<?xml version="1.0" encoding="utf-8"?>
<!-- Generator: Adobe Illustrator 26.0.1, SVG Export Plug-In . SVG Version: 6.00 Build 0)  -->
<svg version="1.1" id="Layer_1" xmlns="http://www.w3.org/2000/svg" xmlns:xlink="http://www.w3.org/1999/xlink" x="0px" y="0px"
	 viewBox="0 0 548.7 184.2" style="enable-background:new 0 0 548.7 184.2;" xml:space="preserve">
<style type="text/css">
	.st0{fill:#1955CC;}
	.st1{fill:#FD7D00;}
</style>
<g>
	<g>
		<g>
			<path class="st0" d="M144.3,99.3c4.2,1.4,8.5,2.8,12.7,4.3s8.5,3.1,12.6,4.8c7.8,3.2,13.9,8.3,17.5,15.8c1.5-4,2.6-8.2,4.6-12
				c6.6-12.9,16.5-21.6,31.2-24.1c10.6-1.8,20.8-0.2,30,5.3c10.9,6.5,11.1,21.8,0.6,28.7c-3.9,2.5-8.2,2.3-12.4,1.3
				c-2.4-0.5-4.7-1.4-7.1-1.9c-5.5-1.3-9.6,0.9-11.2,6.3c-1.6,5.6-1.2,11.1,2.6,15.9c2.3,3,5.7,3.9,9.2,2.5c2.8-1.2,5.6-2.5,8.5-3.5
				c4.3-1.6,8.4-1,12.3,1.2c0.8,0.4,1.6,0.9,2.6,1.6c1.3-5.5,2.5-10.8,3.8-16.1c4.8-20.7,9.5-41.5,14.4-62.2
				c1.4-5.9,4.4-10.7,10.2-13.2c6.7-2.9,13.2-1.9,18.7,2.5c5,4,7,9.8,5.9,16.2c-0.9,5.3-2.3,10.6-3.4,15.7c4.5,0.8,8.9,1.3,13.1,2.4
				c10.1,2.7,18,8.1,22,18.2c0.9,2.4,1.5,4.9,2.3,7.4c8.3-18,21.5-28.9,42-28.3c19.2,0.5,31.1,11.9,39.2,28.4
				c8.8-19.4,23.4-30.5,45.2-28.1c21,2.3,32.4,16.2,38.6,35.7c0-1.1,0-2.2,0-3.4c0.1-1.1,0.3-2.3,0.3-3.4c0.5-7.6,0.9-15.1,1.5-22.7
				c0.5-7.5,0.9-15.1,1.9-22.6c1.3-10.3,9.8-16.2,19.5-15.1c9.8,1.1,16.4,10,15.4,19.9c-0.7,7.5-1.1,14.9-1.7,22.4
				c-0.9,12.6-1.8,25.2-2.7,37.7c-0.6,8.9-1.1,17.9-1.9,26.8c-0.6,6.9-4.1,12.2-10.6,14.8c-6.6,2.7-12.8,1.8-18.3-2.7
				c-5.7-4.7-6.8-11.2-6-18.1c0.1-0.8,0.2-1.7,0.3-2.5c0-0.7,0-1.3,0-2.5c-8.8,19.6-23.5,29.6-44.7,28.1
				c-17.8-1.3-29.2-11.8-36.5-27.7c-9.7,21-25.9,30.6-48.8,27.2c-17.1-2.5-31.1-17.2-34.8-36.1c-2.3,8.8-4.5,17.4-6.8,26
				c-1.8,6.7-5.7,11.6-12.6,13.3c-7.1,1.8-13.4,0.1-18.3-5.6c-4.4-5.1-4.6-11.1-3.2-17.3c2.6-11.4,5.2-22.8,7.8-34.1
				c0.7-3.1-0.7-5.7-3.5-6.5c-3.2-0.9-6,0.5-6.9,3.6c-1.1,4.1-2,8.3-2.9,12.5c-1.9,8.1-3.4,16.3-5.7,24.3
				c-3.9,13.5-18.9,17.7-29.3,8.3c-0.2-0.2-0.5-0.4-0.8-0.6c-11.6,10.4-25,14.6-40.2,11.2c-15.5-3.5-24.9-14.1-30.6-27.8
				c-1.9,3.6-3.5,7.9-6,11.5c-7,9.9-16.8,15.5-28.6,17.3c-13.3,2-26.1-0.3-38.1-6.3c-4.8-2.4-7.2-4.8-10.2-9.5
				c-0.8,4.4-2.6,8.2-5.9,11.2c-10.1,8.9-25.9,3.6-28.7-9.7c-0.6-2.7-0.7-5.5-0.9-8.2c-0.7-12.5-1.3-25-1.9-37.6c-0.1-2,0-4.1,0-6.5
				c0.6,0.7,1.2,1.3,1.7,1.9c5.6,6.6,11.5,12.7,18.7,17.5c3.9,2.6,8.1,4.6,12.8,5.3c0.8,0.1,1.6,0,2.5,0c0-0.7,0-1.2,0.1-1.7
				c0.4-2.4-0.5-3.4-3.1-3.9c-6.4-1.2-11.6-4.9-16-9.4c-5.3-5.3-10.1-11-15.1-16.6c-0.5-0.6-0.9-1.2-1.7-2.1c0,3.1,0,5.8,0,8.5
				C59.7,101.8,52.3,89,46,75.5c-0.2-0.1-0.5-0.1-0.7-0.2c-2.7,6.9-5.7,13.6-7.9,20.6c-1.8,5.7-2.8,11.7-3.6,17.7
				c-0.4,3.1,0.1,6.4,0.9,9.5c1.3,5.1,5.3,7.1,10.4,6.1c5.3-1,9.8-3.6,14.3-6.6c0.5-0.3,1-0.7,1.5-1c1.6-0.8,2.9-0.3,3.8,1
				c0.9,1.3,0.9,2.9-0.4,3.9c-6.1,4.6-12.5,8.4-20.3,8.9c-8.8,0.7-15-5-16.2-14.2c-1.4-10.7,1.2-20.7,4.8-30.5
				c2.7-7.4,6.3-14.4,9.4-21.6c0.3-0.8,0.5-1.8,0.2-2.6c-2-5.9-4.2-11.8-6.4-18c-1.6,0.3-3.3,0.7-5.1,1.1c-7.2,1.9-14.3,4.1-20.2,9
				C5,63.1,4.6,68.2,9.8,73.2c2.9,2.7,6.4,4.7,9.6,6.9c2,1.4,2.7,3.1,1.5,4.8c-0.9,1.2-2.2,1.8-3.6,1.1c-5.9-3-11.5-6.4-15.1-12.3
				c-3.9-6.4-2.7-13.5,3.1-18.9c5.5-5.1,12.3-7.8,19.4-10c3.1-1,6.3-1.7,9.6-2.6c-0.6-4-1.3-7.9-1.7-11.9c-0.7-7.5-0.9-15,2.5-22
				c3.9-7.8,9.7-9.1,16.8-7.8C58.1,1.7,63.2,5.3,68,9.3c1.5,1.3,1.8,2.9,0.6,4.5c-1.3,1.6-2.9,1.4-4.5,0.3c-3.3-2.1-6.6-4.3-10-6.3
				c-1.2-0.7-2.6-1.1-3.9-1.3c-5.7-1-9.3,1.8-10.8,8c-1.7,7.2-0.9,14.3,0.2,21.4c0,0.1,0.1,0.1,0.1,0.2c1.1,5.2,1.1,5.2,6.3,4.5
				c4.2-0.5,8.4-0.9,12.6-1.1c1.8-0.1,2.9-0.6,4-2c6.2-7.9,13-15.2,20.8-21.6c6.5-5.3,13.5-10.1,21.9-12.1c9.1-2.2,16.4,1.9,18.9,11
				c0.7,2.3,1.1,4.8,1,7.2c-0.1,4-0.7,8.1-1.3,12c-0.3,2.3-1.8,3.2-3.9,2.7c-1.7-0.4-2.5-2.1-2.1-4.2c0.9-5,1.4-10,0.4-15
				c-1.3-6.6-5.3-9.1-11.9-7.6c-6.3,1.5-11.6,5-16.7,8.9C82.4,24.3,76,30.9,70.1,38c-0.2,0.3-0.4,0.6-0.8,1.1
				c3.4,0.2,6.4,0.4,9.5,0.5c15.9,1,31.6,3.4,46.6,8.9c8.3,3,16.1,6.9,22.6,13.2c1.2,1.2,3.8,1,5.8,1.3c8.2,1.1,15.7,3.8,22.5,8.5
				c5.6,4,8.7,10.6,6.1,18.6c-2.3,7-8.2,12-15.4,11.9c-3.8-0.1-7.6-1.5-11.4-2.3c-2.9-0.6-5.8-1.2-8.7-1.6c-0.8-0.1-1.7,0.3-2.6,0.4
				C144.4,98.8,144.4,99,144.3,99.3z M113.7,122.4c1.5,1.3,3,2.6,4.9,4.2c3.2-16.3-0.8-31-5.4-45.6c-0.3-0.1-0.5-0.1-0.8-0.2
				c-0.9,2-1.8,4.1-2.7,6.1c-0.5-0.7-1.1-1.4-1.4-2.2c-1.9-4.7-3.7-9.5-5.5-14.2c-1-2.4-2-4.8-3.1-7.1c-1-2.3-0.6-4,1.2-4.9
				c1.7-0.8,3.4-0.1,4.4,2.1c1.7,3.6,3.3,7.2,4.8,10.9c1.1,2.5,2.1,5.1,3.2,7.8c7.1-8.8,16-14,27.1-16.1c-5.6-4.4-11.6-7.1-17.8-9.2
				c-18.3-6.4-37.4-8.4-56.6-8.5c-0.9,0-2.1,0.6-2.6,1.4c-4.4,6.6-8.8,13.3-13,19.9C50,67.4,50,68.5,50.3,69
				c4.9,9.3,9.8,18.5,14.8,27.7c1.2,2.2,2.8,4.2,4,5.9c1.8-3.3,3.6-6.4,5.4-9.6c-7.6-7-10.8-18.8-6.1-22.6c1.2,5.8,4.2,8.5,9.1,8.4
				c3.9-0.1,7.6-3.2,7.8-7c0.1-1.9-0.3-4.2-1.2-5.9c-1.6-3.2-4.8-4.1-8.2-4.1c0.1-0.3,0.1-0.4,0.1-0.5c0.2-0.2,0.3-0.3,0.5-0.4
				c6.7-3.3,13.2-3,19.5,1.2c3.1,2.1,5.2,5.1,7,8.3c0,0.3,0,0.6,0.1,0.9c2,5.6,1.2,10.8-1.8,15.8c-1.1,1.8-2.5,3.4-3.8,5.1
				c4.3,3.4,6.4,8,6.9,13.2c0.4,4,0.3,7.9,0.6,11.9c0.3,4.9,0.6,9.9,0.9,14.8c2.8-0.3,4.2-1.1,5.6-3.7
				C112.3,126.6,112.9,124.5,113.7,122.4z M105.9,138.7c0.1,2.3,0.3,4.3,0.4,6.2c0.1,2,0,4,0,6c5-9.2,11.9-12.5,21.9-10
				c4.8,1.2,9.5,3,14.3,4c2.5,0.5,5.3,0.2,7.9-0.2c0.9-0.2,1.9-1.7,2.2-2.8c0.1-0.5-1.1-1.6-1.8-2.2c-0.5-0.4-1.2-0.5-1.9-0.8
				c-10.2-3.3-20.9-5.4-30-11.7C116.4,133.3,112.8,137.8,105.9,138.7z M475.3,135.9c-0.1-5.6-1.1-9.2-3.8-12.1
				c-3.3-3.4-8.7-2.9-10.8,1.3c-1.1,2.3-1.9,4.9-2.2,7.4c-0.4,4.5,0.4,8.9,3.6,12.4c3.1,3.4,7.9,3.1,10.7-0.6
				C475,141.3,475.2,137.8,475.3,135.9z M394.2,135.9c0-5.1-1-8.5-3.1-11.2c-3.5-4.6-9.1-4-11.9,0.9c-2.3,4.2-2.3,8.5-1.3,12.9
				c0.5,2.3,1.8,4.7,3.4,6.6c2.8,3.3,7.7,2.7,10.3-0.7C393.5,141.7,394,138.5,394.2,135.9z M141.6,63.2c0.7,0.9,1.1,1.4,1.4,1.8
				c5.3,5.8,5.1,10.7-1,15.4c-3.2,2.4-6.9,4-10.5,6c-1.4,0.8-2.6,1.6-1.9,3.4c0.6,1.8,2.1,2.3,3.7,1.6c6-2.3,11.6-5.3,15.7-10.4
				c3.8-4.8,4-11.2,0.5-16.2c-0.5-0.7-1.3-1.4-2.1-1.5C145.7,63.1,143.9,63.2,141.6,63.2z M56.1,45.7c-4.9,0.5-9.3,1-14.1,1.5
				c1.5,4.6,2.9,8.8,4.4,13.3C49.7,55.5,52.7,50.8,56.1,45.7z"/>
			<path class="st0" d="M109.6,86.8c1.3,5.8,2.9,11.7,3.9,17.6c1,6,1.7,12.1,0.2,18.1c-4.4-4.1-6.5-9.4-7.4-15.1
				c-1-6.3-0.3-12.6,1.8-18.7C108.4,88,109.1,87.4,109.6,86.8z"/>
		</g>
		<circle class="st1" cx="76.6" cy="70.1" r="6.5"/>
	</g>
</g>
</svg>
