<?xml version="1.0" encoding="utf-8"?>
<!-- Generator: Adobe Illustrator 26.0.1, SVG Export Plug-In . SVG Version: 6.00 Build 0)  -->
<svg version="1.1" id="Layer_1" xmlns="http://www.w3.org/2000/svg" xmlns:xlink="http://www.w3.org/1999/xlink" x="0px" y="0px"
	 viewBox="0 0 701.5 701.8" style="enable-background:new 0 0 701.5 701.8;" xml:space="preserve">
<style type="text/css">
	.st0{fill:url(#SVGID_1_);}
	.st1{fill:#FFFFFF;}
	.st2{fill:#EDEEED;}
	.st3{fill:#62667C;}
	.st4{fill:#505464;}
	.st5{fill:#EE5463;}
	.st6{fill:#81899D;}
	.st7{fill:#69AFED;}
	.st8{fill:#EBEDED;}
</style>
<g>
	
		<image style="overflow:visible;opacity:0.15;" width="2923" height="2924" xlink:href="F74488CA.png"  transform="matrix(0.24 0 0 0.24 0 0)">
	</image>
	<g>
		<linearGradient id="SVGID_1_" gradientUnits="userSpaceOnUse" x1="21.0428" y1="350.8908" x2="680.5044" y2="350.8908">
			<stop  offset="0" style="stop-color:#FAFAFA"/>
			<stop  offset="0.4804" style="stop-color:#FFFFFF"/>
			<stop  offset="1" style="stop-color:#FAFAFA"/>
		</linearGradient>
		<circle class="st0" cx="350.8" cy="350.9" r="329.7"/>
	</g>
</g>
<g>
	
		<image style="overflow:visible;opacity:0.15;" width="2670" height="2669" xlink:href="F74488CE.png"  transform="matrix(0.24 0 0 0.24 30.3895 30.6295)">
	</image>
	<g>
		<circle class="st1" cx="350.8" cy="350.9" r="301"/>
	</g>
</g>
<g>
	<path class="st2" d="M332,159.3c12.5,0,25,0,37.4,0c0.7,0.5,1.4,1.3,2.2,1.4c16.8,2,32.8,7,48,14.4c19.9,9.7,36.9,23.3,51.3,40.3
		c10.5,12.3,18.9,25.9,25,40.9c9.4,23.2,14,47.4,11.3,72.5c-1,8.8-1.9,17.8-4.1,26.4c-7.2,27.8-20.7,52.1-41.3,72.4
		c-1,1-1.7,2.4-2.5,3.6c-1.1,0.7-2.3,1.3-3.3,2.2c-34.8,30.5-75.4,43.9-121.5,39.5c-34-3.3-63.7-17-89.3-39.7c-0.9-0.8-2-1.3-3-1.9
		c-0.8-1.2-1.5-2.5-2.5-3.6c-3.8-4.2-7.8-8-11.3-12.4c-10.5-13-18.6-27.3-24.6-42.9c-6.4-16.6-9.9-33.9-10.1-51.6
		c-0.1-10.1,0.9-20.3,2.2-30.4c2-15.4,7.2-30,14.1-43.8c8.5-17.1,20-32,33.9-45.1c11.4-10.8,24.3-19.4,38.3-26.3
		c13.8-6.8,28.3-11.5,43.6-13.6C327.9,161.1,330,160,332,159.3z M350.9,224.5c-50.6-0.1-92,41.1-92.1,91.6
		c-0.2,50.8,41,92.3,91.7,92.5c50.7,0.2,92.2-41.2,92.4-91.9C442.9,265.9,401.7,224.5,350.9,224.5z M364,195.4
		c0.1-7.1-6-13.4-13.2-13.5c-7.2-0.1-13.4,6-13.4,13.2c-0.1,7.2,6,13.4,13.2,13.4C357.7,208.7,363.9,202.7,364,195.4z"/>
	<path class="st3" d="M350.9,224.5c50.8,0.1,92,41.4,91.9,92.2c-0.1,50.7-41.6,92-92.4,91.9c-50.7-0.2-91.9-41.6-91.7-92.5
		C258.9,265.5,300.2,224.4,350.9,224.5z M282.7,316.6c1.3,39.1,30.3,67.7,67.8,67.7c39.3,0,68-29.8,68.1-67.9
		c0.1-38.3-29.7-67.8-68-67.7C312.2,248.7,283.7,278.4,282.7,316.6z"/>
	<path class="st4" d="M459.3,431.1c3.2,3,6.5,6,9.7,9c-3.9,3.7-7.5,7.7-11.7,10.9c-11.9,9.3-24.6,17.2-38.6,23.2
		c-18.1,7.7-37,12.4-56.6,13.6c-13.9,0.9-27.9,0.4-41.6-2.3c-22.2-4.3-43.1-12-62.1-24.5c-9.3-6.1-18.7-12.3-26-21
		c3.2-3,6.5-6,9.7-9c1,0.6,2.1,1.1,3,1.9c25.5,22.8,55.3,36.5,89.3,39.7c46,4.4,86.6-9,121.5-39.5
		C456.9,432.4,458.2,431.8,459.3,431.1z"/>
	<path class="st5" d="M364,195.4c-0.1,7.2-6.3,13.3-13.5,13.2c-7.2-0.1-13.3-6.3-13.2-13.4c0.1-7.2,6.3-13.3,13.4-13.2
		C358,182.1,364.2,188.3,364,195.4z"/>
	<path class="st3" d="M232.5,440.1c7.3,8.7,16.6,14.9,26,21c19,12.5,39.9,20.2,62.1,24.5c13.7,2.6,27.7,3.1,41.6,2.3
		c19.6-1.2,38.5-5.9,56.6-13.6c13.9-6,26.7-13.8,38.6-23.2c4.2-3.3,7.8-7.3,11.7-10.9c19.2,18.8,33.3,40.6,37.7,67.6
		c0.9,5.2,1.5,10.7,0.9,16c-1.5,13.7-14.5,21.5-28.1,17.8c-15.9-4.2-31.7-8.6-47.8-11.8c-35.5-7.2-71.4-8.8-107.5-6.8
		c-34.7,1.9-68.7,8.3-101.9,18.4c-15.5,4.7-29-5.6-28.6-21.7c0.6-23.3,9.5-43.6,23.3-61.9C221.7,451.5,227.3,445.9,232.5,440.1z"/>
	<path class="st6" d="M282.7,316.6c1-38.2,29.6-67.9,68-68c38.2-0.1,68,29.4,68,67.7c-0.1,38.2-28.8,68-68.1,67.9
		C313,384.3,283.9,355.7,282.7,316.6z M307.3,316.8c-0.9,23.4,20.3,43.6,43.8,43.4c22.9-0.2,43.6-19.8,43.3-44.1
		c-0.2-22.5-18.4-43.3-43.6-43.4C325.6,272.7,306.3,293.7,307.3,316.8z"/>
	<path class="st7" d="M307.3,316.8c-1-23.1,18.3-44.2,43.5-44.1c25.3,0.1,43.4,20.9,43.6,43.4c0.2,24.3-20.4,43.9-43.3,44.1
		C327.5,360.4,306.4,340.2,307.3,316.8z M339.6,285c-0.4,0.1-1.7,0-2.9,0.5c-9.6,3.9-16.6,10.3-19.7,20.4c-1.9,6.3,2.2,10.8,8.4,8.7
		c10.9-3.5,18.3-10.8,21.1-22.1C347.7,288,345,285,339.6,285z"/>
	<path class="st8" d="M339.6,285c5.4,0,8.1,3,6.9,7.5c-2.8,11.3-10.2,18.6-21.1,22.1c-6.3,2-10.4-2.4-8.4-8.7
		c3.1-10.1,10.1-16.6,19.7-20.4C337.9,285.1,339.2,285.1,339.6,285z"/>
</g>
</svg>
