<?xml version="1.0" encoding="utf-8"?>
<!-- Generator: Adobe Illustrator 25.4.1, SVG Export Plug-In . SVG Version: 6.00 Build 0)  -->
<svg version="1.1" id="Layer_1" xmlns="http://www.w3.org/2000/svg" xmlns:xlink="http://www.w3.org/1999/xlink" x="0px" y="0px"
	 viewBox="0 0 171.3 171.4" style="enable-background:new 0 0 171.3 171.4;" xml:space="preserve">
<style type="text/css">
	.st0{fill:#FFFFFF;}
	.st1{fill:none;stroke:#000000;stroke-width:1.0723;stroke-miterlimit:10;}
	.st2{fill:none;stroke:#000000;stroke-width:1.0779;stroke-miterlimit:10;}
	.st3{fill:none;stroke:#000000;stroke-width:1.0818;stroke-miterlimit:10;}
	.st4{fill:none;stroke:#000000;stroke-width:1.0703;stroke-miterlimit:10;}
	.st5{fill:none;stroke:#000000;stroke-width:1.0609;stroke-miterlimit:10;}
	.st6{fill:none;stroke:#000000;stroke-width:1.0777;stroke-miterlimit:10;}
	.st7{fill:none;stroke:#000000;stroke-width:1.0636;stroke-miterlimit:10;}
	.st8{fill:none;stroke:#000000;stroke-width:1.0705;stroke-miterlimit:10;}
	.st9{fill:none;stroke:#000000;stroke-width:0.8962;stroke-miterlimit:10;}
	.st10{fill:#2284EB;}
	.st11{fill:#2682E8;}
	.st12{opacity:0.8;fill:#FFFF00;}
	.st13{fill:none;stroke:#000000;stroke-width:1.5869;stroke-linecap:round;stroke-miterlimit:10;}
	.st14{fill:#040303;}
	.st15{opacity:0.8;fill:#103F84;}
	.st16{opacity:0.8;fill:#154EAA;}
	.st17{fill:#1955CD;}
	.st18{opacity:0.8;fill:#2A9B2F;}
	.st19{fill:#2A9B2F;}
	.st20{fill:#90DB5A;}
	.st21{opacity:0.8;fill:#FDC957;}
	.st22{fill:#413C36;}
	.st23{fill:#E46565;}
	.st24{fill:#E56D6D;}
	.st25{fill:#E56969;}
	.st26{fill:#FDC956;}
	.st27{fill:#FDC957;}
	.st28{fill:#FDCA57;}
	.st29{fill:#FCC856;}
	.st30{fill:#FCC957;}
	.st31{fill:#FCC958;}
	.st32{fill:#FDCA58;}
	.st33{fill:#FAC857;}
	.st34{fill:#F8C656;}
	.st35{opacity:0.8;fill:#71C0E7;}
	.st36{fill:#EFBF20;}
	.st37{fill:#71C0E7;}
	.st38{fill:#050503;}
	.st39{fill:#040506;}
	.st40{fill:#090C0E;}
	.st41{fill:#0D0C08;}
	.st42{fill:#07090B;}
	.st43{fill:#F8E3AB;}
	.st44{fill:#060503;}
	.st45{fill:#F7E3AD;}
	.st46{fill:#C3E3FE;}
	.st47{fill:#C1E3FD;}
	.st48{opacity:0.8;fill:#B7835A;}
	.st49{fill:#97C767;}
	.st50{fill:#88B858;}
	.st51{fill:#B7835A;}
	.st52{fill:#72B147;}
	.st53{clip-path:url(#SVGID_00000102518593390286811060000017838595840704157825_);fill:#946A49;}
	.st54{clip-path:url(#SVGID_00000163794344478933851570000013307527353278124937_);fill:#64A43A;}
	.st55{clip-path:url(#SVGID_00000039105525533351346640000015344185688289336992_);fill:#5A9A30;}
	.st56{fill:#5A5952;}
	.st57{fill:#765338;}
	.st58{fill:#496E2E;}
	.st59{fill:#5B422D;}
	.st60{fill:#3B6121;}
	.st61{fill:#4F3624;}
	.st62{fill:#362518;}
	.st63{fill:#57704C;}
	.st64{fill:#320000;}
	.st65{fill:#628D79;}
	.st66{fill:#688774;}
	.st67{fill:#6FA895;}
	.st68{fill:#608875;}
	.st69{fill:#557562;}
	.st70{fill:#6C8573;}
	.st71{fill:#826C6B;}
	.st72{fill:#655450;}
	.st73{fill:#6FA995;}
	.st74{fill:#667C68;}
	.st75{fill:#5D6E5C;}
	.st76{fill:#617261;}
	.st77{fill:#5C735F;}
	.st78{fill:#57705D;}
	.st79{fill:#5F7966;}
	.st80{fill:#5F7662;}
	.st81{fill:#5F7A66;}
	.st82{fill:#647364;}
	.st83{fill:#607B68;}
	.st84{fill:#677765;}
	.st85{fill:#657B67;}
	.st86{fill:#4C5F54;}
	.st87{fill:#657C65;}
	.st88{fill:#617E6C;}
	.st89{fill:#5F7460;}
	.st90{fill:#5F7560;}
	.st91{fill:#627E67;}
	.st92{fill:#647D68;}
	.st93{fill:#617C68;}
	.st94{fill:#5E7B68;}
	.st95{fill:#617E6B;}
	.st96{fill:#607564;}
	.st97{fill:#607F6B;}
	.st98{fill:#617862;}
	.st99{fill:#72706B;}
	.st100{fill:#617963;}
	.st101{fill:#667D66;}
	.st102{fill:#607A66;}
	.st103{fill:#637A64;}
	.st104{fill:#607963;}
	.st105{fill:#627B68;}
	.st106{fill:#627A64;}
	.st107{fill:#637E67;}
	.st108{fill:#697C69;}
	.st109{fill:#687A67;}
	.st110{fill:#65806A;}
	.st111{fill:#648069;}
	.st112{fill:#637F68;}
	.st113{fill:#6A7D6B;}
	.st114{fill:#647F68;}
	.st115{fill:#6A7C6A;}
	.st116{fill:#637D68;}
	.st117{fill:#657B69;}
	.st118{fill:#6B7D6B;}
	.st119{fill:#627D66;}
	.st120{fill:#677A68;}
	.st121{fill:#647A68;}
	.st122{fill:#667866;}
	.st123{fill:#697B69;}
	.st124{fill:#737C6F;}
	.st125{fill:#6A7C69;}
	.st126{fill:#657C6A;}
	.st127{fill:#5D7263;}
	.st128{fill:#747F75;}
	.st129{fill:#6C8370;}
	.st130{fill:#6B806E;}
	.st131{fill:#6E786E;}
	.st132{fill:#617762;}
	.st133{fill:#69816F;}
	.st134{fill:#6E8572;}
	.st135{fill:#6C7E6F;}
	.st136{fill:#6D8572;}
	.st137{fill:#717B71;}
	.st138{fill:#787F79;}
	.st139{fill:#6C8775;}
	.st140{fill:#6D8475;}
	.st141{fill:#70876E;}
	.st142{fill:#6F9784;}
	.st143{fill:#7F9986;}
	.st144{fill:#7B9086;}
	.st145{fill:#6C9280;}
	.st146{fill:#76867C;}
	.st147{fill:#7F847A;}
	.st148{fill:#75917F;}
	.st149{fill:#7D8980;}
	.st150{fill:#839489;}
	.st151{fill:#889B91;}
	.st152{fill:#76887E;}
	.st153{fill:#7B9481;}
	.st154{fill:#778C82;}
	.st155{fill:#7C9684;}
	.st156{fill:#7C8E84;}
	.st157{fill:#74927F;}
	.st158{fill:#829C8A;}
	.st159{fill:#7C9784;}
	.st160{fill:#808F79;}
	.st161{fill:#7C8F85;}
	.st162{fill:#718E7C;}
	.st163{fill:#74897F;}
	.st164{fill:#799886;}
	.st165{fill:#779280;}
	.st166{fill:#728F7B;}
	.st167{fill:#7C9A88;}
	.st168{fill:#7C8F78;}
	.st169{fill:#7E9C8A;}
	.st170{fill:#779482;}
	.st171{fill:#77897F;}
	.st172{fill:#819E8C;}
	.st173{fill:#7B9381;}
	.st174{fill:#799482;}
	.st175{fill:#718E7B;}
	.st176{fill:#709986;}
	.st177{fill:#7C8A81;}
	.st178{fill:#819784;}
	.st179{fill:#6D9482;}
	.st180{fill:#778B82;}
	.st181{fill:#7F8E84;}
	.st182{fill:#7C9C8A;}
	.st183{fill:#728E7A;}
	.st184{fill:#869E8C;}
	.st185{fill:#72887E;}
	.st186{fill:#738F7B;}
	.st187{fill:#748F7B;}
	.st188{fill:#788B82;}
	.st189{fill:#829086;}
	.st190{fill:#7E8077;}
	.st191{fill:#7A9886;}
	.st192{fill:#7B9886;}
	.st193{fill:#809A88;}
	.st194{fill:#758A80;}
	.st195{fill:#89ABA0;}
	.st196{fill:#839C8A;}
	.st197{fill:#778E7C;}
	.st198{fill:#849C8A;}
	.st199{fill:#788980;}
	.st200{fill:#758A81;}
	.st201{fill:#66826B;}
	.st202{fill:#7F8278;}
	.st203{fill:#7B8D77;}
	.st204{fill:#252326;}
	.st205{fill:#C6B7B4;}
	.st206{fill:#C8B9B6;}
	.st207{fill:#C3B4B1;}
	.st208{fill:#D6C7C4;}
	.st209{fill:#C7B8B5;}
	.st210{fill:#C9BAB6;}
	.st211{fill:#AEA29F;}
	.st212{fill:#B2A5A2;}
	.st213{fill:#CBBCB9;}
	.st214{fill:#47704C;}
	.st215{fill:#B1A4A1;}
	.st216{fill:#AFA29F;}
	.st217{fill:#BEB1AE;}
	.st218{fill:#C9BBB7;}
	.st219{fill:#B3A6A3;}
	.st220{fill:#C1B3B0;}
	.st221{fill:#B5A9A5;}
	.st222{fill:#DBCAC7;}
	.st223{fill:#B4A8A4;}
	.st224{fill:#DAC9C6;}
	.st225{fill:#ADA09D;}
	.st226{fill:#BFB1AE;}
	.st227{fill:#AEA19E;}
	.st228{fill:#BBAFAB;}
	.st229{fill:#D7C7C4;}
	.st230{fill:#D6C6C3;}
	.st231{fill:#B6A9A5;}
	.st232{fill:#DACAC7;}
	.st233{fill:#B2A6A2;}
	.st234{fill:#C5B7B4;}
	.st235{fill:#CDBEBB;}
	.st236{fill:#BBAEAA;}
	.st237{fill:#D5C5C2;}
	.st238{fill:#D9C8C5;}
	.st239{fill:#D8C8C5;}
	.st240{fill:#CABBB8;}
	.st241{fill:#B7AAA6;}
	.st242{fill:#BFB2AE;}
	.st243{fill:#D3C3C0;}
	.st244{fill:#B9ACA8;}
	.st245{fill:#CFC0BD;}
	.st246{fill:#B3A7A3;}
	.st247{fill:#BEB1AD;}
	.st248{fill:#BCAFAB;}
	.st249{fill:#C4B5B2;}
	.st250{fill:#DDCCC9;}
	.st251{fill:#B7AAA7;}
	.st252{fill:#ADA19E;}
	.st253{fill:#C9BAB7;}
	.st254{fill:#B8ABA7;}
	.st255{fill:#D1C2BF;}
	.st256{fill:#B0A3A0;}
	.st257{fill:#D2C3C0;}
	.st258{fill:#C0B2AF;}
	.st259{fill:#BBAEAB;}
	.st260{fill:#D2C2BF;}
	.st261{fill:#BDB1AD;}
	.st262{fill:#BAADA9;}
	.st263{fill:#C2B4B1;}
	.st264{fill:#D9C9C6;}
	.st265{fill:#BDB0AC;}
	.st266{fill:#C5B6B3;}
	.st267{fill:#6C6463;}
	.st268{fill:#DCCBC8;}
	.st269{fill:#B7ABA7;}
	.st270{fill:#D0C1BE;}
	.st271{fill:#786F6D;}
	.st272{fill:#DCCCC9;}
	.st273{fill:#7A706F;}
	.st274{fill:#7C7271;}
	.st275{fill:#6B6362;}
	.st276{fill:#766D6C;}
	.st277{fill:#7A716F;}
	.st278{fill:#DBC9C6;}
	.st279{fill:#121111;}
	.st280{fill:#79706E;}
	.st281{fill:#665E5D;}
	.st282{fill:#685F5E;}
	.st283{fill:#D5C6C3;}
	.st284{fill:#645C5C;}
	.st285{fill:#665E5E;}
	.st286{fill:#68605F;}
	.st287{fill:#6D6564;}
	.st288{fill:#716968;}
	.st289{fill:#756C6B;}
	.st290{fill:#E1D9D4;}
	.st291{fill:#796F6D;}
	.st292{fill:#E0D8D3;}
	.st293{fill:#7E7372;}
	.st294{fill:#E2DBD6;}
	.st295{fill:#807675;}
	.st296{fill:#E2DAD5;}
	.st297{fill:#6C6361;}
	.st298{fill:#726A69;}
	.st299{fill:#242225;}
	.st300{fill:#746B6A;}
	.st301{fill:#E1DAD5;}
	.st302{fill:#222123;}
	.st303{fill:#555052;}
	.st304{fill:#608874;}
	.st305{fill:#DFD7D2;}
	.st306{fill:#DED5D0;}
	.st307{fill:#565052;}
	.st308{fill:#736A69;}
	.st309{fill:#222124;}
	.st310{fill:#524D4E;}
	.st311{fill:#131111;}
	.st312{fill:#232124;}
	.st313{fill:#222022;}
	.st314{fill:#635859;}
	.st315{fill:#6A886C;}
	.st316{fill:#777E73;}
	.st317{fill:#290101;}
	.st318{fill:#7B8378;}
	.st319{fill:#6E8C71;}
	.st320{fill:#300101;}
	.st321{fill:#466F4B;}
	.st322{fill:#E3DCD7;}
	.st323{fill:#E3DBD6;}
	.st324{fill:#131212;}
	.st325{fill:#E0D7D2;}
	.st326{fill:#0E0C0C;}
	.st327{fill:#585153;}
	.st328{fill:#060404;}
	.st329{fill:#020101;}
	.st330{fill:#020202;}
	.st331{fill:#5B5355;}
	.st332{fill:#0E0D0D;}
	.st333{fill:#DFD5D0;}
	.st334{fill:#0F0C0C;}
	.st335{fill:#534D4E;}
	.st336{fill:#030202;}
	.st337{fill:#554F51;}
	.st338{fill:#070707;}
	.st339{fill:#DED3CF;}
	.st340{fill:#817675;}
	.st341{fill:#050404;}
	.st342{fill:#554D4F;}
	.st343{fill:#565152;}
	.st344{fill:#DFD6D1;}
	.st345{fill:#827876;}
	.st346{fill:#C3B5B2;}
	.st347{fill:#B6AAA6;}
	.st348{fill:#DBD1CC;}
	.st349{fill:#595153;}
	.st350{fill:#DBD0CB;}
	.st351{fill:#DCD2CE;}
	.st352{fill:#7F7573;}
	.st353{fill:#E0D9D4;}
	.st354{fill:#D5C6C2;}
	.st355{fill:#DDD5D1;}
	.st356{fill:#DFD8D4;}
	.st357{fill:#6F6564;}
	.st358{fill:#DAD0CB;}
	.st359{opacity:0.8;fill:#FD7E01;}
	.st360{fill:#020303;}
	.st361{fill:#1A56CD;}
	.st362{fill:#FD7E01;}
	.st363{fill:#E06E07;}
	.st364{fill:#4D88E8;}
	.st365{opacity:0.8;fill:#B665C2;}
	.st366{fill:#E685F9;}
	.st367{fill:#B665C2;}
	.st368{fill:#D376E1;}
	.st369{fill:#6BE7FA;}
	.st370{fill:#6BE8FA;}
	.st371{opacity:0.8;fill:#2AB2FD;}
	.st372{fill:#2AB2FD;}
	.st373{fill:#2BB2FD;}
	.st374{fill:#2CB3FD;}
	.st375{fill:#2EB4FD;}
	.st376{fill:#2EB5FD;}
	.st377{fill:#2FB5FD;}
	.st378{opacity:0.8;fill:#F24234;}
	.st379{fill:#030302;}
	.st380{fill:#CDD6DA;}
	.st381{fill:#02A7F2;}
	.st382{fill:#F24234;}
	.st383{fill:#FD5622;}
	.st384{fill:#FDDA00;}
	.st385{fill:#3E50B3;}
	.st386{fill:#60A817;}
	.st387{fill:#A3C200;}
	.st388{fill:#A3C300;}
	.st389{fill:#008900;}
	.st390{fill:#FDE93A;}
	.st391{fill:#FD9701;}
	.st392{fill:#00BAD2;}
	.st393{fill:#7D8C92;}
	.st394{fill:#5F7C89;}
	.st395{fill:#9C9C9C;}
	.st396{fill:#00818D;}
	.st397{fill:#F17A00;}
	.st398{fill:#F9D533;}
	.st399{fill:#539214;}
	.st400{fill:#007600;}
	.st401{fill:#8EAA00;}
	.st402{fill:#FABE08;}
	.st403{fill:#8CA700;}
	.st404{fill:#36464E;}
</style>
<circle class="st0" cx="85.7" cy="85.7" r="76.9"/>
<g>
	<path class="st10" d="M56.2,144.4c0.2,0.2,0.5,0.3,0.7,0.5C56.7,144.7,56.5,144.6,56.2,144.4z"/>
	<path class="st11" d="M48.3,134.1c0.1,0.1,0.1,0.3,0.2,0.4C48.4,134.4,48.3,134.3,48.3,134.1z"/>
</g>
<g>
	<path class="st21" d="M85.7,5.2c-44.5,0-80.5,36-80.5,80.5c0,44.5,36.1,80.5,80.5,80.5c44.5,0,80.5-36.1,80.5-80.5
		C166.2,41.2,130.1,5.2,85.7,5.2z M85.7,158.3c-40.1,0-72.6-32.5-72.6-72.6c0-40.1,32.5-72.6,72.6-72.6c40.1,0,72.6,32.5,72.6,72.6
		C158.3,125.8,125.8,158.3,85.7,158.3z"/>
	<g>
		<path class="st22" d="M95.5,45.4c0.5,0.3,1.1,0.5,1.6,0.9c0.9,0.7,1.4,1.6,1.4,2.7c0,0.5,0.2,0.7,0.6,0.9c3,1.4,6,2.8,9,4.1
			c0.4,0.2,0.6,0.2,1-0.1c1.4-1.1,3.4-1.1,4.7,0c1.4,1.1,1.9,2.9,1.2,4.6c-0.1,0.2-0.1,0.7,0.1,0.9c1.7,2.2,3.4,4.3,5.1,6.4
			c0.2,0.2,0.6,0.3,0.8,0.3c1.9-0.3,3.7,0.7,4.4,2.5c0.7,1.8,0,3.7-1.8,4.7c-0.4,0.2-0.6,0.5-0.6,1c0,3.2,0,6.3,0,9.5
			c0,0.5,0.1,0.7,0.6,1c1.9,1,2.5,3.2,1.6,5c-0.9,1.9-3,2.6-5,1.9c-0.2-0.1-0.7,0-0.9,0.1c-3,2.5-6.1,5-9.1,7.6
			c-0.2,0.2-0.3,0.6-0.3,0.8c0.3,1.8-0.4,3.4-2,4.3c-0.4,0.2-0.5,0.4-0.5,0.8c0,4.1,0,8.1,0,12.2c0,0.4,0.1,0.6,0.5,0.8
			c1.6,0.9,2.4,2.6,2,4.3c-0.4,1.7-2,2.9-3.8,2.9c-1.7,0-3.3-1.3-3.7-2.9c-0.4-1.8,0.3-3.5,2-4.3c0.4-0.2,0.5-0.4,0.5-0.8
			c0-4.1,0-8.1,0-12.2c0-0.4-0.1-0.6-0.5-0.8c-1.2-0.6-1.8-1.6-2.1-2.9c0-0.2-0.3-0.5-0.5-0.6c-3.7-1.2-7.3-2.5-11.1-3.7
			c-0.5,1.5-1,2.9-1.4,4.4c0,0.2,0.1,0.4,0.2,0.6c1.8,2.1,1.4,4.8-1,6.2c-0.2,0.1-0.4,0.5-0.4,0.8c0,2.8,0,5.6,0,8.4
			c0,0.4,0.1,0.6,0.5,0.8c1.6,0.9,2.4,2.6,1.9,4.4c-0.5,1.7-2,2.9-3.7,2.9c-1.8,0-3.4-1.2-3.8-3c-0.4-1.7,0.4-3.4,2-4.4
			c0.2-0.1,0.5-0.5,0.5-0.7c0-2.8,0-5.6,0-8.4c0-0.4-0.1-0.6-0.5-0.8c-1.1-0.6-1.8-1.5-2-2.7c-0.1-0.2-0.3-0.5-0.5-0.6
			c-3.3-1-6.7-1.9-10.1-2.9c-0.2-0.1-0.7,0-0.9,0.2c-1.6,1.5-3.8,1.6-5.4,0.2c-1.6-1.4-1.7-3.7-0.3-5.4c0.1-0.2,0.2-0.6,0.1-0.8
			c-0.7-1.8-1.4-3.5-2.1-5.2c-0.1-0.2-0.4-0.4-0.6-0.5c-1.7-0.2-2.8-1.2-3.4-2.7c-0.1-0.2-0.4-0.5-0.6-0.6c-2-0.4-4.1-0.8-6.1-1.1
			c-0.2,0-0.5,0.1-0.6,0.2c-1.8,2.6-6.1,2-6.9-1.3c0,0-0.1-0.1-0.1-0.1c0-0.6,0-1.1,0-1.7c0.5-1.1,1.2-2.2,2.4-2.7
			c0.1,0,0.2-0.4,0.2-0.5c0-2.4,0-4.8,0-7.2c0-0.2-0.1-0.5-0.2-0.5c-1.2-0.5-1.8-1.5-2.4-2.6c0-0.6,0-1.3,0-1.9
			c0.1-0.1,0.1-0.1,0.2-0.2c0.9-2.1,2.3-3,4.6-2.6c0.2,0,0.6-0.2,0.7-0.4c1.7-2.1,3.4-4.2,5.1-6.3c0.2-0.2,0.2-0.6,0.1-0.9
			c-0.7-1.7-0.3-3.4,1.1-4.6c1.4-1.1,3.2-1.1,4.7-0.1c0.2,0.1,0.6,0.2,0.9,0.1c1.5-0.7,3-1.5,4.5-2.2c0.9-0.4,1.7-0.7,1.4-1.9
			c0-0.1,0-0.1,0.1-0.2c0.4-1.6,1.6-2.4,3-2.9c0.5,0,0.9,0,1.4,0c1.2,0.4,2.3,1.1,2.8,2.3c0.1,0.1,0.4,0.2,0.6,0.2
			c4.6,0,9.1,0,13.7,0c0.2,0,0.5-0.1,0.6-0.2c0.6-1.3,1.6-1.9,2.8-2.4C94.5,45.4,95,45.4,95.5,45.4z M88.2,96.9c0-0.2,0-0.6,0-0.6
			c-0.8-0.3-1.7-0.6-2.8-1c0.3,0.7,0.4,1.2,0.6,1.7c0.3,1.1,0.7,2.3,1,3.4c0.1,0,0.1,0,0.2,0C87.4,99.3,87.8,98.1,88.2,96.9z
			 M100.2,65.1c0.1,0,0.2,0,0.3,0.1c2.4-2.1,4.7-4.2,7.1-6.4c0.1-0.1,0.2-0.4,0.2-0.7c0-0.3-0.1-0.6-0.1-0.9c0-0.4-0.2-0.6-0.6-0.8
			c-3.1-1.4-6.1-2.8-9.1-4.2c-0.2-0.1-0.6,0-0.9,0.1c-1.1,0.8-2.4,1-3.7,0.6c-0.2-0.1-0.7,0-0.9,0.2c-1.7,1.6-3.4,3.2-5.2,4.8
			c-0.1,0.1-0.2,0.3-0.3,0.5c3,2.3,6,4.5,9,6.8c0.1,0.1,0.4,0.1,0.5,0.1C97.8,64.6,99,64.7,100.2,65.1L100.2,65.1z M104.8,80.8
			c-2.2,1.2-4.5,2.4-6.7,3.6c0,0.1,0,0.1,0,0.2c1.9,0.2,3.7,0.3,5.6,0.5c4.7,0.4,9.3,0.9,14.2,1.3c-3.1-2.6-6.1-5.1-9-7.5
			c-0.1-0.1-0.4-0.1-0.6,0C107.1,79.5,105.9,80.1,104.8,80.8z M68.2,85.9c-0.2,0.2-0.4,0.3-0.7,0.5c0.2,0.1,0.4,0.3,0.6,0.4
			c0.1,0.1,0.3,0.1,0.4,0.1c4.2,1.4,8.4,2.8,12.8,4.3c-1.1-3.6-2.2-7.1-3.3-10.6c-1.3,0.7-2.5,1.3-3.7,1.9
			C72.3,83.8,70.3,84.9,68.2,85.9z M83.1,96.9c0-0.2-0.1-0.4-0.1-0.5c-0.2-1.5-1.1-2.3-2.6-2.7c-3-0.8-6-1.9-9-2.9
			c-1.4-0.5-2.8-1-4.3-1.5c-0.2-0.1-0.5,0-0.7,0.2c-0.1,0.1-0.1,0.5,0,0.7c0.7,1.7,1.4,3.5,2.1,5.2c0.1,0.2,0.4,0.5,0.6,0.5
			c1.9,0.3,3,1.3,3.5,3.2c0.1,0.2,0.3,0.5,0.5,0.5c3.4,1,6.8,2,10.2,2.9c0.6,0.2,1.4-0.5,1.2-1.2C84.1,99.8,83.6,98.3,83.1,96.9z
			 M68.3,69c-1.8,0.1-3.6,0.1-5.4,0.2c0,0.3,0,0.4,0,0.5c0.5,4.2,1.1,8.5,1.6,12.7c0.1,1,1.1,0.8,1.6,1.3c0.1,0.1,0.6-0.2,1-0.3
			c3.3-1.7,6.5-3.3,9.8-5c0.2-0.1,0.3-0.5,0.2-0.8c-0.6-2-1.2-3.9-1.8-5.9c-0.1-0.2-0.4-0.4-0.7-0.6c-0.7-0.5-1.8-0.7-2.2-1.3
			c-0.7-1.1-1.6-1-2.5-0.9C69.4,68.9,68.9,69,68.3,69z M105.1,77.6c0.4-0.2,0.8-0.4,1.4-0.7c-0.6-0.4-1-0.8-1.5-1.2
			c-1.4-1.1-2.7-2.3-4.1-3.4c-0.2-0.1-0.6-0.1-0.8-0.1c-1.3,0.5-2.5,0.4-3.7-0.4c-0.2-0.1-0.6-0.2-0.9-0.1c-1.6,0.8-3.2,1.6-4.7,2.4
			c-1.4,0.8-2.9,1.5-4.3,2.3c0,0.1,0,0.2,0.1,0.2c1.7,1.7,3.3,3.4,5,5c0.1,0.1,0.5,0.2,0.7,0.1c1.2-0.4,2.3-0.2,3.4,0.5
			c0.2,0.1,0.6,0.2,0.8,0C99.3,80.8,102.2,79.2,105.1,77.6z M93.7,95.4c3,1,6,2,9,3c0.4,0.1,0.6,0.1,1-0.2c1.2-1.1,2.6-1.4,4.1-0.8
			c0.5,0.2,0.7,0,1-0.2c3-2.5,6-5,8.9-7.5c0.2-0.1,0.4-0.2,0.6-0.3c-0.1-0.1-0.1-0.2-0.2-0.3c-0.3-0.1-0.7-0.1-1-0.2
			c-2.1-0.2-4.2-0.4-6.3-0.6c-2.9-0.2-5.8-0.5-8.6-0.7c-1.7-0.2-3.4-0.4-5-0.5c-0.2,0-0.5,0.2-0.6,0.4c-0.6,1-1.5,1.5-2.6,1.8
			c-0.2,0.1-0.6,0.2-0.6,0.4c-0.6,1.7-1.1,3.3-1.7,5.1C92.4,95,93.1,95.2,93.7,95.4z M102.4,68.1c0,0.5-0.1,1.1-0.1,1.6
			c0,0.2,0.1,0.4,0.2,0.5c0.4,0.4,0.9,0.7,1.3,1.1c1.6,1.3,3.2,2.7,4.8,4c0.2,0.1,0.6,0.1,0.8-0.1c2.6-1.4,5.1-2.8,7.7-4.2
			c0.6-0.3,1-0.6,0.9-1.4c0-0.4,0.3-0.9,0.3-1.3c0-0.3,0-0.6-0.1-0.8c-1.7-2.2-3.4-4.3-5.2-6.5c-0.1-0.2-0.5-0.2-0.8-0.3
			c-0.7-0.1-1.4,0-2.1-0.2c-0.4-0.1-0.7-0.1-1,0.2c-2.1,1.9-4.2,3.8-6.3,5.7C102.3,67,102.1,67.4,102.4,68.1z M70,66.3
			c0.4,0,0.8,0,1.2-0.1c0.2-0.1,0.5-0.2,0.6-0.4c1-2,2.8-2.7,4.9-2.1c0.2,0.1,0.5,0,0.7-0.1c1.8-1.7,3.6-3.4,5.4-5.1
			c0,0,0-0.1,0-0.1c-2.5-1.9-5-3.8-7.6-5.7c-0.2-0.1-0.5-0.1-0.8,0c-1.4,0.6-2.7,0.5-4-0.4c-0.2-0.1-0.6-0.2-0.9-0.1
			c-1.8,0.9-3.6,1.8-5.4,2.7c-0.4,0.2-0.5,0.4-0.5,0.8c0,1.1-0.4,2.1-1.3,2.7c-0.8,0.5-0.8,1.1-0.7,1.9c0.3,2.1,0.6,4.2,0.8,6.3
			C65.1,66.6,67.6,66.5,70,66.3z M60.3,69.4c-2.3,0.1-4.5,0.2-6.7,0.4c-0.2,0-0.5,0.2-0.6,0.4c-0.4,0.8-0.9,1.4-1.7,1.8
			c-0.4,0.2-0.5,0.4-0.5,0.8c0,2.4,0,4.7,0,7.1c0,0.3,0.2,0.6,0.5,0.7c0.9,0.5,1.6,1.2,1.9,2.3c0.1,0.4,0.3,0.6,0.7,0.6
			c2,0.3,4,0.7,6.1,1.1c0.2,0,0.4,0,0.5-0.1c1.5-1.2,1.7-1.6,1.4-3.6c0-0.3-0.1-0.6-0.1-0.8C61.3,76.7,60.8,73.1,60.3,69.4z
			 M85,60.1c-2,1.8-3.9,3.6-5.8,5.4c-0.2,0.2-0.2,0.5-0.2,0.8c0,0.7-0.1,1.5,0,2.2c0,0.3,0,0.7,0.2,0.9c1.6,1.6,3.2,3.2,4.8,4.8
			c0.1,0.1,0.5,0.2,0.7,0.1c3.2-1.6,6.4-3.3,9.6-5c0.5-0.2,0.6-1.8,0.2-2.1C91.4,64.9,88.2,62.5,85,60.1z M89.2,93.9
			c0.6-1.7,1.2-3.4,1.7-5c0.1-0.2-0.1-0.5-0.3-0.7c-1-1.1-1.3-2.4-0.9-3.8c0.1-0.3,0-0.7-0.2-0.9c-1.7-1.8-3.5-3.6-5.3-5.3
			c-0.2-0.2-0.6-0.2-0.8-0.1c-0.9,0.4-1.7,0.9-2.5,1.3c-0.4,0.2-0.5,0.4-0.3,0.8c1.2,3.9,2.4,7.9,3.7,11.8c0.1,0.2,0.3,0.5,0.6,0.6
			C86.3,92.9,87.7,93.4,89.2,93.9z M111,77.3c2.9,2.4,5.7,4.8,8.6,7.1c0.4,0.4,1,0.1,1-0.4c0-3.4,0-6.7,0-10.1c0-0.5-1.2-1.2-1.6-1
			C116.4,74.4,113.8,75.8,111,77.3z M76.7,50.6c2.8,2.1,5.4,4.1,8.1,6.1c2.1-2,4.2-4,6.4-5.9c0-0.1-0.1-0.1-0.1-0.2
			C86.3,50.6,81.6,50.6,76.7,50.6z M60,66.8c-0.3-2.3-0.6-4.6-0.9-6.8c0-0.2-0.2-0.4-0.2-0.6c-0.2,0.1-0.4,0.1-0.6,0.3
			c-1.8,2.2-3.5,4.3-5.2,6.5c-0.1,0.1-0.1,0.4-0.1,0.6c0,0.1,0.3,0.3,0.5,0.2C55.6,67.1,57.7,67,60,66.8z M78.2,72.3
			c0.5,1.7,1,3.2,1.5,4.7c0.8-0.4,1.5-0.8,2.1-1.1C80.6,74.7,79.5,73.6,78.2,72.3z M63.7,85.5c-0.7,0-1.3,0.6-1.3,1.3
			c0,0.7,0.5,1.2,1.2,1.3c0.7,0,1.3-0.5,1.4-1.2C65,86.1,64.4,85.5,63.7,85.5z M70.2,99.6c0-0.7-0.6-1.3-1.3-1.2
			c-0.7,0-1.3,0.6-1.2,1.3c0,0.7,0.6,1.2,1.3,1.2C69.6,100.9,70.2,100.3,70.2,99.6z M50.8,68.7c0-0.7-0.6-1.3-1.3-1.3
			c-0.7,0-1.2,0.5-1.3,1.2c0,0.7,0.5,1.3,1.2,1.4C50.1,70,50.8,69.4,50.8,68.7z M99.9,68.7c0-0.7-0.6-1.3-1.3-1.3
			c-0.7,0-1.3,0.6-1.3,1.3c0,0.6,0.6,1.2,1.2,1.3C99.2,70,99.9,69.4,99.9,68.7z M94.7,50.6c0.7,0,1.3-0.6,1.3-1.3
			c0-0.7-0.5-1.2-1.2-1.3c-0.7,0-1.3,0.5-1.3,1.2C93.4,49.9,94,50.5,94.7,50.6z M123.1,70c0-0.7-0.6-1.3-1.3-1.3
			c-0.7,0-1.3,0.6-1.3,1.3c0,0.7,0.6,1.2,1.3,1.2C122.5,71.2,123.1,70.7,123.1,70z M49.5,85.5c0.7,0,1.3-0.6,1.3-1.3
			c0-0.7-0.5-1.2-1.2-1.3c-0.7,0-1.3,0.5-1.3,1.2C48.2,84.8,48.8,85.4,49.5,85.5z M93.4,86.7c0.7,0,1.3-0.6,1.3-1.3
			c0-0.7-0.6-1.2-1.4-1.2c-0.7,0-1.2,0.6-1.2,1.3C92.1,86.2,92.7,86.7,93.4,86.7z M106.3,99.7c-0.7,0-1.3,0.6-1.3,1.3
			c0,0.7,0.6,1.3,1.3,1.2c0.7,0,1.2-0.5,1.2-1.2C107.6,100.3,107.1,99.7,106.3,99.7z M111.5,58.3c0.7,0,1.3-0.6,1.2-1.3
			c0-0.7-0.6-1.2-1.2-1.2c-0.7,0-1.3,0.6-1.3,1.3C110.2,57.7,110.8,58.3,111.5,58.3z M59.8,54.5c-0.7,0-1.3,0.5-1.3,1.3
			c0,0.7,0.5,1.2,1.2,1.3c0.7,0,1.3-0.5,1.3-1.2C61.1,55.1,60.6,54.5,59.8,54.5z M72.7,48c-0.7,0-1.3,0.6-1.3,1.3
			c0,0.6,0.6,1.2,1.3,1.3c0.7,0,1.3-0.6,1.3-1.3C74,48.6,73.4,48,72.7,48z M87,120.4c-0.7,0-1.3,0.6-1.3,1.3c0,0.7,0.6,1.3,1.3,1.2
			c0.7,0,1.2-0.6,1.2-1.2C88.2,120.9,87.7,120.4,87,120.4z M107.6,121.6c0-0.7-0.6-1.3-1.3-1.3c-0.7,0-1.3,0.6-1.3,1.3
			c0,0.7,0.6,1.2,1.2,1.2C107,122.9,107.6,122.4,107.6,121.6z M87,106.1c0.7,0,1.3-0.6,1.3-1.3c0-0.7-0.5-1.2-1.2-1.2
			c-0.7,0-1.3,0.5-1.3,1.2C85.7,105.5,86.3,106.1,87,106.1z M76.6,67.3c0-0.7-0.6-1.3-1.3-1.3c-0.7,0-1.2,0.6-1.2,1.4
			c0,0.7,0.6,1.2,1.3,1.2C76,68.6,76.6,68,76.6,67.3z M121.9,86.8c-0.7,0-1.3,0.6-1.3,1.3c0,0.6,0.6,1.3,1.2,1.3
			c0.7,0,1.3-0.5,1.3-1.2C123.1,87.4,122.6,86.8,121.9,86.8z"/>
		<path class="st23" d="M48.3,48.1c0-0.9,0-1.8,0-2.7c0.8,0,1.7,0,2.5,0c0,0.9,0,1.8,0,2.7c0,0,0,0,0,0
			C49.9,48.1,49.1,48.1,48.3,48.1L48.3,48.1z"/>
		<path class="st23" d="M45.6,48.1c0.9,0,1.8,0,2.7,0c0,0,0,0,0,0c0,0.8,0,1.7,0,2.5l0,0c-0.9,0-1.8,0-2.7,0
			C45.6,49.7,45.6,48.9,45.6,48.1z"/>
		<path class="st24" d="M61.1,110c0-0.8,0-1.7,0-2.6c0.9,0,1.7,0,2.6,0c0,0.9,0,1.7,0,2.6l0,0C62.9,110,62,110,61.1,110L61.1,110z"
			/>
		<path class="st24" d="M63.8,112.5c0,0.9,0,1.7,0,2.6c-0.9,0-1.7,0-2.6,0c0-0.9,0-1.7,0-2.6c0,0,0,0,0,0
			C62,112.5,62.9,112.5,63.8,112.5L63.8,112.5z"/>
		<path class="st25" d="M115.4,110c0,0.8,0,1.7,0,2.5c-0.9,0-1.7,0-2.6,0c0-0.9,0-1.7,0-2.5l0,0C113.6,110,114.5,110,115.4,110
			L115.4,110z"/>
		<path class="st23" d="M53.4,95.8c0,0.7,0,1.3,0,2c0,0.4-0.1,0.6-0.6,0.6c-0.6,0-1.3,0-2,0c0-0.9,0-1.7,0-2.6
			C51.7,95.8,52.6,95.8,53.4,95.8L53.4,95.8z"/>
		<path class="st25" d="M115.4,107.4c0.8,0,1.6,0,2.5,0c0,0.9,0,1.7,0,2.6c-0.9,0-1.7,0-2.5,0c0,0,0,0,0,0
			C115.4,109.1,115.4,108.2,115.4,107.4L115.4,107.4z"/>
		<path class="st23" d="M55.9,98.5c0-0.9,0-1.8,0-2.7c0,0,0,0,0,0c0.8,0,1.7,0,2.6,0c0,0.9,0,1.7,0,2.6
			C57.6,98.4,56.8,98.4,55.9,98.5L55.9,98.5z"/>
		<path class="st23" d="M123.1,53.2c0.9,0,1.7,0,2.6,0c0,0.8,0,1.6,0,2.5c-0.9,0-1.7,0-2.6,0l0,0C123.1,54.9,123.1,54.1,123.1,53.2
			L123.1,53.2z"/>
		<path class="st23" d="M120.6,53.2c0-0.9,0-1.7,0-2.6c0.8,0,1.6,0,2.5,0c0,0.9,0,1.7,0,2.6c0,0,0,0,0,0
			C122.2,53.2,121.4,53.2,120.6,53.2L120.6,53.2z"/>
		<path class="st23" d="M120.6,55.7c-0.8,0-1.7,0-2.6,0c0-0.9,0-1.7,0-2.5c0.9,0,1.7,0,2.6,0c0,0,0,0,0,0
			C120.6,54.1,120.6,54.9,120.6,55.7L120.6,55.7z"/>
		<path class="st25" d="M112.7,110c-0.8,0-1.6,0-2.5,0c0-0.9,0-1.7,0-2.6c0.8,0,1.6,0,2.5,0l0,0C112.7,108.2,112.7,109.1,112.7,110
			L112.7,110z"/>
		<path class="st25" d="M112.7,107.4c0-0.8,0-1.6,0-2.5c0.9,0,1.7,0,2.7,0c0,0.8,0,1.6,0,2.5c0,0,0,0,0,0
			C114.5,107.4,113.6,107.4,112.7,107.4L112.7,107.4z"/>
		<path class="st23" d="M123.1,55.7c0,0.8,0,1.7,0,2.6c-0.8,0-1.6,0-2.5,0c0-0.9,0-1.7,0-2.6c0,0,0,0,0,0
			C121.4,55.7,122.2,55.7,123.1,55.7L123.1,55.7z"/>
		<path class="st23" d="M53.4,95.8c0-0.8,0-1.6,0-2.5c0.8,0,1.6,0,2.5,0c0,0.8,0,1.7,0,2.5c0,0,0,0,0,0
			C55.1,95.8,54.3,95.8,53.4,95.8C53.4,95.8,53.4,95.8,53.4,95.8z"/>
		<path class="st23" d="M55.9,98.4c0,0.8,0,1.6,0,2.5c-0.8,0-1.7,0-2.5,0c0-0.8,0-1.6,0-2.4C54.3,98.5,55.1,98.5,55.9,98.4
			C55.9,98.5,55.9,98.4,55.9,98.4z"/>
		<path class="st23" d="M61.1,112.5c-0.8,0-1.6,0-2.5,0c0-0.8,0-1.6,0-2.5c0.8,0,1.7,0,2.5,0c0,0,0,0,0,0
			C61.1,110.9,61.1,111.7,61.1,112.5L61.1,112.5z"/>
		<path class="st23" d="M63.8,110c0.8,0,1.6,0,2.5,0c0,0.8,0,1.6,0,2.5c-0.8,0-1.6,0-2.5,0c0,0,0,0,0,0
			C63.8,111.7,63.8,110.9,63.8,110L63.8,110z"/>
		<path class="st26" d="M85,60.1c3.2,2.4,6.4,4.8,9.5,7.2c0.4,0.3,0.3,1.9-0.2,2.1c-3.2,1.7-6.4,3.3-9.6,5c-0.2,0.1-0.6,0-0.7-0.1
			c-1.6-1.6-3.2-3.2-4.8-4.8C79,69.2,79,68.8,79,68.5c0-0.7,0-1.5,0-2.2c0-0.3,0-0.6,0.2-0.8C81.1,63.7,83,61.9,85,60.1z"/>
		<path class="st27" d="M105.1,77.6c-2.9,1.6-5.7,3.2-8.6,4.7c-0.2,0.1-0.6,0.1-0.8,0c-1.1-0.7-2.2-0.9-3.4-0.5
			c-0.2,0.1-0.5,0-0.7-0.1c-1.7-1.7-3.4-3.3-5-5c0,0,0-0.1-0.1-0.2c1.4-0.7,2.9-1.5,4.3-2.3c1.6-0.8,3.1-1.6,4.7-2.4
			c0.2-0.1,0.7-0.1,0.9,0.1c1.2,0.8,2.4,0.9,3.7,0.4c0.2-0.1,0.6-0.1,0.8,0.1c1.4,1.1,2.7,2.3,4.1,3.4C105,76.3,105,77,105.1,77.6z"
			/>
		<path class="st28" d="M68.3,69c0.5,0,1.1-0.1,1.6-0.1c1-0.1,1.8-0.2,2.5,0.9c0.4,0.7,1.4,0.9,2.2,1.3c0.3,0.2,0.6,0.3,0.7,0.6
			c0.6,1.9,1.3,3.9,1.8,5.9c0.1,0.2,0,0.7-0.2,0.8c-3.2,1.7-6.5,3.4-9.8,5c-0.9-2.8-1.2-5.8-0.6-8.7C67,72.8,67.7,70.9,68.3,69z"/>
		<path class="st26" d="M89.2,93.9c-1.5-0.5-2.9-1-4.4-1.5c-0.2-0.1-0.5-0.4-0.6-0.6C83,87.9,81.8,84,80.6,80
			c-0.1-0.4,0-0.6,0.3-0.8c0.8-0.4,1.7-0.9,2.5-1.3c0.2-0.1,0.6,0,0.8,0.1c1.8,1.7,3.6,3.5,5.3,5.3c0.2,0.2,0.3,0.6,0.2,0.9
			c-0.4,1.5-0.1,2.7,0.9,3.8c0.2,0.2,0.3,0.5,0.3,0.7C90.4,90.5,89.8,92.2,89.2,93.9z"/>
		<path class="st29" d="M68.2,85.9c2.1-1.1,4.1-2.2,6.2-3.3c1.2-0.6,2.4-1.3,3.7-1.9c1.1,3.5,2.2,6.9,3.3,10.6
			c-4.4-1.5-8.6-2.9-12.8-4.3C68.5,86.6,68.3,86.3,68.2,85.9z"/>
		<path class="st30" d="M102.3,87.6c-1.9,3.2-4.5,5.6-7.8,7.4c-0.3,0.1-0.5,0.3-0.7,0.4c-0.7-0.2-1.3-0.4-2-0.7
			c0.6-1.7,1.1-3.4,1.7-5.1c0.1-0.2,0.4-0.3,0.6-0.4c1.1-0.2,2-0.8,2.6-1.8c0.1-0.2,0.4-0.4,0.6-0.4
			C98.9,87.3,100.6,87.4,102.3,87.6z"/>
		<path class="st31" d="M87.1,58.4c3.6,0.3,6.9,1.4,9.8,3.6c1,0.7,1.9,1.7,2.9,2.5c0.2,0.2,0.3,0.4,0.4,0.6
			c-1.2-0.4-2.4-0.5-3.5,0.2c-0.1,0.1-0.4,0-0.5-0.1C93.1,62.9,90.1,60.7,87.1,58.4z"/>
		<path class="st31" d="M70,66.3c3.2-4.3,7.5-6.9,12.8-7.8c-1.8,1.7-3.6,3.4-5.4,5.1c-0.1,0.1-0.5,0.2-0.7,0.1
			c-2.1-0.7-3.9,0.1-4.9,2.1c-0.1,0.2-0.4,0.4-0.6,0.4C70.8,66.3,70.4,66.3,70,66.3z"/>
		<path class="st32" d="M83.1,96.9c-4.7-0.6-8.5-2.6-11.7-6.1c3,1,5.9,2.1,9,2.9c1.5,0.4,2.4,1.1,2.6,2.7
			C83,96.5,83.1,96.7,83.1,96.9z"/>
		<path class="st33" d="M104.8,80.8c-0.4,1.4-0.7,2.9-1.1,4.3c-1.9-0.2-3.7-0.3-5.6-0.5c0-0.1,0-0.1,0-0.2
			C100.3,83.2,102.5,82,104.8,80.8z"/>
		<path class="st33" d="M78.2,72.3c1.3,1.3,2.4,2.5,3.6,3.6c-0.6,0.3-1.3,0.7-2.1,1.1C79.2,75.4,78.7,73.9,78.2,72.3z"/>
		<path class="st34" d="M99.9,68.7c0,0.7-0.7,1.3-1.3,1.3c-0.6,0-1.2-0.6-1.2-1.3c0-0.7,0.6-1.3,1.3-1.3
			C99.3,67.4,99.9,68,99.9,68.7z"/>
		<path class="st34" d="M93.4,86.7c-0.7,0-1.3-0.6-1.3-1.3c0-0.7,0.5-1.2,1.2-1.3c0.7,0,1.3,0.5,1.4,1.2
			C94.7,86.1,94.2,86.7,93.4,86.7z"/>
		<path class="st34" d="M76.6,67.3c0,0.7-0.6,1.3-1.3,1.3c-0.7,0-1.2-0.5-1.3-1.2c0-0.7,0.5-1.3,1.2-1.4C76,66,76.6,66.6,76.6,67.3z
			"/>
		<path class="st34" d="M88.2,96.9c-0.7,0.1-1.5,0.1-2.2,0.2c-0.2-0.5-0.3-1-0.6-1.7c1.1,0.4,1.9,0.6,2.8,1
			C88.2,96.3,88.2,96.7,88.2,96.9z"/>
		<path class="st34" d="M102.4,68.1c0.5,1.1,0.9,2.1,1.4,3.2c-0.4-0.3-0.9-0.7-1.3-1.1c-0.1-0.1-0.2-0.3-0.2-0.5
			C102.3,69.2,102.4,68.6,102.4,68.1z"/>
		<path class="st31" d="M100.2,65.1c0.1,0,0.2,0,0.3,0.1C100.4,65.1,100.3,65.1,100.2,65.1z"/>
		<path class="st23" d="M50.8,50.6c0,0.8,0,1.6,0,2.5c-0.8,0-1.6,0-2.5,0c0-0.8,0-1.7,0-2.5c0,0,0,0,0,0
			C49.1,50.6,49.9,50.6,50.8,50.6L50.8,50.6z"/>
		<path class="st23" d="M50.8,48.1c0.8,0,1.6,0,2.5,0c0,0.8,0,1.6,0,2.5c-0.8,0-1.7,0-2.5,0c0,0,0,0,0,0
			C50.8,49.7,50.8,48.9,50.8,48.1L50.8,48.1z"/>
	</g>
</g>
</svg>
