<?xml version="1.0" encoding="utf-8"?>
<!-- Generator: Adobe Illustrator 25.4.1, SVG Export Plug-In . SVG Version: 6.00 Build 0)  -->
<svg version="1.1" id="Layer_1" xmlns="http://www.w3.org/2000/svg" xmlns:xlink="http://www.w3.org/1999/xlink" x="0px" y="0px"
	 viewBox="0 0 170 170" style="enable-background:new 0 0 170 170;" xml:space="preserve">
<style type="text/css">
	.st0{fill:#FFFFFF;}
	.st1{fill:none;stroke:#000000;stroke-width:1.0723;stroke-miterlimit:10;}
	.st2{fill:none;stroke:#000000;stroke-width:1.0779;stroke-miterlimit:10;}
	.st3{fill:none;stroke:#000000;stroke-width:1.0818;stroke-miterlimit:10;}
	.st4{fill:none;stroke:#000000;stroke-width:1.0703;stroke-miterlimit:10;}
	.st5{fill:none;stroke:#000000;stroke-width:1.0609;stroke-miterlimit:10;}
	.st6{fill:none;stroke:#000000;stroke-width:1.0777;stroke-miterlimit:10;}
	.st7{fill:none;stroke:#000000;stroke-width:1.0636;stroke-miterlimit:10;}
	.st8{fill:none;stroke:#000000;stroke-width:1.0705;stroke-miterlimit:10;}
	.st9{fill:none;stroke:#000000;stroke-width:0.8962;stroke-miterlimit:10;}
	.st10{fill:#2284EB;}
	.st11{fill:#2682E8;}
	.st12{opacity:0.8;fill:#FFFF00;}
	.st13{fill:none;stroke:#000000;stroke-width:1.5869;stroke-linecap:round;stroke-miterlimit:10;}
	.st14{fill:#040303;}
	.st15{opacity:0.8;fill:#103F84;}
	.st16{opacity:0.8;fill:#154EAA;}
	.st17{fill:#1955CD;}
	.st18{opacity:0.8;fill:#2A9B2F;}
	.st19{fill:#2A9B2F;}
	.st20{fill:#90DB5A;}
	.st21{opacity:0.8;fill:#FDC957;}
	.st22{fill:#413C36;}
	.st23{fill:#E46565;}
	.st24{fill:#E56D6D;}
	.st25{fill:#E56969;}
	.st26{fill:#FDC956;}
	.st27{fill:#FDC957;}
	.st28{fill:#FDCA57;}
	.st29{fill:#FCC856;}
	.st30{fill:#FCC957;}
	.st31{fill:#FCC958;}
	.st32{fill:#FDCA58;}
	.st33{fill:#FAC857;}
	.st34{fill:#F8C656;}
	.st35{opacity:0.8;fill:#71C0E7;}
	.st36{fill:#EFBF20;}
	.st37{fill:#71C0E7;}
	.st38{fill:#050503;}
	.st39{fill:#040506;}
	.st40{fill:#090C0E;}
	.st41{fill:#0D0C08;}
	.st42{fill:#07090B;}
	.st43{fill:#F8E3AB;}
	.st44{fill:#060503;}
	.st45{fill:#F7E3AD;}
	.st46{fill:#C3E3FE;}
	.st47{fill:#C1E3FD;}
	.st48{opacity:0.8;fill:#B7835A;}
	.st49{fill:#97C767;}
	.st50{fill:#88B858;}
	.st51{fill:#B7835A;}
	.st52{fill:#72B147;}
	.st53{clip-path:url(#SVGID_00000011015570786705709940000005158613107112248707_);fill:#946A49;}
	.st54{clip-path:url(#SVGID_00000103948526811582072350000009603150857170062004_);fill:#64A43A;}
	.st55{clip-path:url(#SVGID_00000129895794303658527150000015054154741751889296_);fill:#5A9A30;}
	.st56{fill:#5A5952;}
	.st57{fill:#765338;}
	.st58{fill:#496E2E;}
	.st59{fill:#5B422D;}
	.st60{fill:#3B6121;}
	.st61{fill:#4F3624;}
	.st62{fill:#362518;}
	.st63{fill:#57704C;}
	.st64{fill:#320000;}
	.st65{fill:#628D79;}
	.st66{fill:#688774;}
	.st67{fill:#6FA895;}
	.st68{fill:#608875;}
	.st69{fill:#557562;}
	.st70{fill:#6C8573;}
	.st71{fill:#826C6B;}
	.st72{fill:#655450;}
	.st73{fill:#6FA995;}
	.st74{fill:#667C68;}
	.st75{fill:#5D6E5C;}
	.st76{fill:#617261;}
	.st77{fill:#5C735F;}
	.st78{fill:#57705D;}
	.st79{fill:#5F7966;}
	.st80{fill:#5F7662;}
	.st81{fill:#5F7A66;}
	.st82{fill:#647364;}
	.st83{fill:#607B68;}
	.st84{fill:#677765;}
	.st85{fill:#657B67;}
	.st86{fill:#4C5F54;}
	.st87{fill:#657C65;}
	.st88{fill:#617E6C;}
	.st89{fill:#5F7460;}
	.st90{fill:#5F7560;}
	.st91{fill:#627E67;}
	.st92{fill:#647D68;}
	.st93{fill:#617C68;}
	.st94{fill:#5E7B68;}
	.st95{fill:#617E6B;}
	.st96{fill:#607564;}
	.st97{fill:#607F6B;}
	.st98{fill:#617862;}
	.st99{fill:#72706B;}
	.st100{fill:#617963;}
	.st101{fill:#667D66;}
	.st102{fill:#607A66;}
	.st103{fill:#637A64;}
	.st104{fill:#607963;}
	.st105{fill:#627B68;}
	.st106{fill:#627A64;}
	.st107{fill:#637E67;}
	.st108{fill:#697C69;}
	.st109{fill:#687A67;}
	.st110{fill:#65806A;}
	.st111{fill:#648069;}
	.st112{fill:#637F68;}
	.st113{fill:#6A7D6B;}
	.st114{fill:#647F68;}
	.st115{fill:#6A7C6A;}
	.st116{fill:#637D68;}
	.st117{fill:#657B69;}
	.st118{fill:#6B7D6B;}
	.st119{fill:#627D66;}
	.st120{fill:#677A68;}
	.st121{fill:#647A68;}
	.st122{fill:#667866;}
	.st123{fill:#697B69;}
	.st124{fill:#737C6F;}
	.st125{fill:#6A7C69;}
	.st126{fill:#657C6A;}
	.st127{fill:#5D7263;}
	.st128{fill:#747F75;}
	.st129{fill:#6C8370;}
	.st130{fill:#6B806E;}
	.st131{fill:#6E786E;}
	.st132{fill:#617762;}
	.st133{fill:#69816F;}
	.st134{fill:#6E8572;}
	.st135{fill:#6C7E6F;}
	.st136{fill:#6D8572;}
	.st137{fill:#717B71;}
	.st138{fill:#787F79;}
	.st139{fill:#6C8775;}
	.st140{fill:#6D8475;}
	.st141{fill:#70876E;}
	.st142{fill:#6F9784;}
	.st143{fill:#7F9986;}
	.st144{fill:#7B9086;}
	.st145{fill:#6C9280;}
	.st146{fill:#76867C;}
	.st147{fill:#7F847A;}
	.st148{fill:#75917F;}
	.st149{fill:#7D8980;}
	.st150{fill:#839489;}
	.st151{fill:#889B91;}
	.st152{fill:#76887E;}
	.st153{fill:#7B9481;}
	.st154{fill:#778C82;}
	.st155{fill:#7C9684;}
	.st156{fill:#7C8E84;}
	.st157{fill:#74927F;}
	.st158{fill:#829C8A;}
	.st159{fill:#7C9784;}
	.st160{fill:#808F79;}
	.st161{fill:#7C8F85;}
	.st162{fill:#718E7C;}
	.st163{fill:#74897F;}
	.st164{fill:#799886;}
	.st165{fill:#779280;}
	.st166{fill:#728F7B;}
	.st167{fill:#7C9A88;}
	.st168{fill:#7C8F78;}
	.st169{fill:#7E9C8A;}
	.st170{fill:#779482;}
	.st171{fill:#77897F;}
	.st172{fill:#819E8C;}
	.st173{fill:#7B9381;}
	.st174{fill:#799482;}
	.st175{fill:#718E7B;}
	.st176{fill:#709986;}
	.st177{fill:#7C8A81;}
	.st178{fill:#819784;}
	.st179{fill:#6D9482;}
	.st180{fill:#778B82;}
	.st181{fill:#7F8E84;}
	.st182{fill:#7C9C8A;}
	.st183{fill:#728E7A;}
	.st184{fill:#869E8C;}
	.st185{fill:#72887E;}
	.st186{fill:#738F7B;}
	.st187{fill:#748F7B;}
	.st188{fill:#788B82;}
	.st189{fill:#829086;}
	.st190{fill:#7E8077;}
	.st191{fill:#7A9886;}
	.st192{fill:#7B9886;}
	.st193{fill:#809A88;}
	.st194{fill:#758A80;}
	.st195{fill:#89ABA0;}
	.st196{fill:#839C8A;}
	.st197{fill:#778E7C;}
	.st198{fill:#849C8A;}
	.st199{fill:#788980;}
	.st200{fill:#758A81;}
	.st201{fill:#66826B;}
	.st202{fill:#7F8278;}
	.st203{fill:#7B8D77;}
	.st204{fill:#252326;}
	.st205{fill:#C6B7B4;}
	.st206{fill:#C8B9B6;}
	.st207{fill:#C3B4B1;}
	.st208{fill:#D6C7C4;}
	.st209{fill:#C7B8B5;}
	.st210{fill:#C9BAB6;}
	.st211{fill:#AEA29F;}
	.st212{fill:#B2A5A2;}
	.st213{fill:#CBBCB9;}
	.st214{fill:#47704C;}
	.st215{fill:#B1A4A1;}
	.st216{fill:#AFA29F;}
	.st217{fill:#BEB1AE;}
	.st218{fill:#C9BBB7;}
	.st219{fill:#B3A6A3;}
	.st220{fill:#C1B3B0;}
	.st221{fill:#B5A9A5;}
	.st222{fill:#DBCAC7;}
	.st223{fill:#B4A8A4;}
	.st224{fill:#DAC9C6;}
	.st225{fill:#ADA09D;}
	.st226{fill:#BFB1AE;}
	.st227{fill:#AEA19E;}
	.st228{fill:#BBAFAB;}
	.st229{fill:#D7C7C4;}
	.st230{fill:#D6C6C3;}
	.st231{fill:#B6A9A5;}
	.st232{fill:#DACAC7;}
	.st233{fill:#B2A6A2;}
	.st234{fill:#C5B7B4;}
	.st235{fill:#CDBEBB;}
	.st236{fill:#BBAEAA;}
	.st237{fill:#D5C5C2;}
	.st238{fill:#D9C8C5;}
	.st239{fill:#D8C8C5;}
	.st240{fill:#CABBB8;}
	.st241{fill:#B7AAA6;}
	.st242{fill:#BFB2AE;}
	.st243{fill:#D3C3C0;}
	.st244{fill:#B9ACA8;}
	.st245{fill:#CFC0BD;}
	.st246{fill:#B3A7A3;}
	.st247{fill:#BEB1AD;}
	.st248{fill:#BCAFAB;}
	.st249{fill:#C4B5B2;}
	.st250{fill:#DDCCC9;}
	.st251{fill:#B7AAA7;}
	.st252{fill:#ADA19E;}
	.st253{fill:#C9BAB7;}
	.st254{fill:#B8ABA7;}
	.st255{fill:#D1C2BF;}
	.st256{fill:#B0A3A0;}
	.st257{fill:#D2C3C0;}
	.st258{fill:#C0B2AF;}
	.st259{fill:#BBAEAB;}
	.st260{fill:#D2C2BF;}
	.st261{fill:#BDB1AD;}
	.st262{fill:#BAADA9;}
	.st263{fill:#C2B4B1;}
	.st264{fill:#D9C9C6;}
	.st265{fill:#BDB0AC;}
	.st266{fill:#C5B6B3;}
	.st267{fill:#6C6463;}
	.st268{fill:#DCCBC8;}
	.st269{fill:#B7ABA7;}
	.st270{fill:#D0C1BE;}
	.st271{fill:#786F6D;}
	.st272{fill:#DCCCC9;}
	.st273{fill:#7A706F;}
	.st274{fill:#7C7271;}
	.st275{fill:#6B6362;}
	.st276{fill:#766D6C;}
	.st277{fill:#7A716F;}
	.st278{fill:#DBC9C6;}
	.st279{fill:#121111;}
	.st280{fill:#79706E;}
	.st281{fill:#665E5D;}
	.st282{fill:#685F5E;}
	.st283{fill:#D5C6C3;}
	.st284{fill:#645C5C;}
	.st285{fill:#665E5E;}
	.st286{fill:#68605F;}
	.st287{fill:#6D6564;}
	.st288{fill:#716968;}
	.st289{fill:#756C6B;}
	.st290{fill:#E1D9D4;}
	.st291{fill:#796F6D;}
	.st292{fill:#E0D8D3;}
	.st293{fill:#7E7372;}
	.st294{fill:#E2DBD6;}
	.st295{fill:#807675;}
	.st296{fill:#E2DAD5;}
	.st297{fill:#6C6361;}
	.st298{fill:#726A69;}
	.st299{fill:#242225;}
	.st300{fill:#746B6A;}
	.st301{fill:#E1DAD5;}
	.st302{fill:#222123;}
	.st303{fill:#555052;}
	.st304{fill:#608874;}
	.st305{fill:#DFD7D2;}
	.st306{fill:#DED5D0;}
	.st307{fill:#565052;}
	.st308{fill:#736A69;}
	.st309{fill:#222124;}
	.st310{fill:#524D4E;}
	.st311{fill:#131111;}
	.st312{fill:#232124;}
	.st313{fill:#222022;}
	.st314{fill:#635859;}
	.st315{fill:#6A886C;}
	.st316{fill:#777E73;}
	.st317{fill:#290101;}
	.st318{fill:#7B8378;}
	.st319{fill:#6E8C71;}
	.st320{fill:#300101;}
	.st321{fill:#466F4B;}
	.st322{fill:#E3DCD7;}
	.st323{fill:#E3DBD6;}
	.st324{fill:#131212;}
	.st325{fill:#E0D7D2;}
	.st326{fill:#0E0C0C;}
	.st327{fill:#585153;}
	.st328{fill:#060404;}
	.st329{fill:#020101;}
	.st330{fill:#020202;}
	.st331{fill:#5B5355;}
	.st332{fill:#0E0D0D;}
	.st333{fill:#DFD5D0;}
	.st334{fill:#0F0C0C;}
	.st335{fill:#534D4E;}
	.st336{fill:#030202;}
	.st337{fill:#554F51;}
	.st338{fill:#070707;}
	.st339{fill:#DED3CF;}
	.st340{fill:#817675;}
	.st341{fill:#050404;}
	.st342{fill:#554D4F;}
	.st343{fill:#565152;}
	.st344{fill:#DFD6D1;}
	.st345{fill:#827876;}
	.st346{fill:#C3B5B2;}
	.st347{fill:#B6AAA6;}
	.st348{fill:#DBD1CC;}
	.st349{fill:#595153;}
	.st350{fill:#DBD0CB;}
	.st351{fill:#DCD2CE;}
	.st352{fill:#7F7573;}
	.st353{fill:#E0D9D4;}
	.st354{fill:#D5C6C2;}
	.st355{fill:#DDD5D1;}
	.st356{fill:#DFD8D4;}
	.st357{fill:#6F6564;}
	.st358{fill:#DAD0CB;}
	.st359{opacity:0.8;fill:#FD7E01;}
	.st360{fill:#020303;}
	.st361{fill:#1A56CD;}
	.st362{fill:#FD7E01;}
	.st363{fill:#E06E07;}
	.st364{fill:#4D88E8;}
	.st365{opacity:0.8;fill:#B665C2;}
	.st366{fill:#E685F9;}
	.st367{fill:#B665C2;}
	.st368{fill:#D376E1;}
	.st369{fill:#6BE7FA;}
	.st370{fill:#6BE8FA;}
	.st371{opacity:0.8;fill:#2AB2FD;}
	.st372{fill:#2AB2FD;}
	.st373{fill:#2BB2FD;}
	.st374{fill:#2CB3FD;}
	.st375{fill:#2EB4FD;}
	.st376{fill:#2EB5FD;}
	.st377{fill:#2FB5FD;}
	.st378{opacity:0.8;fill:#F24234;}
	.st379{fill:#030302;}
	.st380{fill:#CDD6DA;}
	.st381{fill:#02A7F2;}
	.st382{fill:#F24234;}
	.st383{fill:#FD5622;}
	.st384{fill:#FDDA00;}
	.st385{fill:#3E50B3;}
	.st386{fill:#60A817;}
	.st387{fill:#A3C200;}
	.st388{fill:#A3C300;}
	.st389{fill:#008900;}
	.st390{fill:#FDE93A;}
	.st391{fill:#FD9701;}
	.st392{fill:#00BAD2;}
	.st393{fill:#7D8C92;}
	.st394{fill:#5F7C89;}
	.st395{fill:#9C9C9C;}
	.st396{fill:#00818D;}
	.st397{fill:#F17A00;}
	.st398{fill:#F9D533;}
	.st399{fill:#539214;}
	.st400{fill:#007600;}
	.st401{fill:#8EAA00;}
	.st402{fill:#FABE08;}
	.st403{fill:#8CA700;}
	.st404{fill:#36464E;}
</style>
<circle class="st0" cx="85" cy="85" r="76.9"/>
<g>
	<path class="st12" d="M85,4.5C40.6,4.5,4.5,40.5,4.5,85c0,44.5,36.1,80.5,80.5,80.5c44.5,0,80.5-36.1,80.5-80.5
		C165.5,40.5,129.5,4.5,85,4.5z M85,157.6c-40.1,0-72.6-32.5-72.6-72.6c0-40.1,32.5-72.6,72.6-72.6c40.1,0,72.6,32.5,72.6,72.6
		C157.6,125.1,125.1,157.6,85,157.6z"/>
	<g>
		<g>
			<path d="M123.4,52c-0.8,0-1.5-0.7-1.5-1.5v-7.3h-9.1c-0.8,0-1.5-0.7-1.5-1.5s0.7-1.5,1.5-1.5H125v10.4
				C125,51.3,124.3,52,123.4,52z"/>
			<path d="M46.6,52c-0.8,0-1.5-0.7-1.5-1.5V40.1h12.1c0.8,0,1.5,0.7,1.5,1.5s-0.7,1.5-1.5,1.5h-9.1v7.3C48.2,51.3,47.5,52,46.6,52z
				"/>
			<path d="M125,130h-12.1c-0.8,0-1.5-0.7-1.5-1.5c0-0.8,0.7-1.5,1.5-1.5h9.1v-7.3c0-0.8,0.7-1.5,1.5-1.5s1.5,0.7,1.5,1.5V130z"/>
			<path d="M57.2,130H45.1v-10.4c0-0.8,0.7-1.5,1.5-1.5s1.5,0.7,1.5,1.5v7.3h9.1c0.8,0,1.5,0.7,1.5,1.5
				C58.8,129.3,58.1,130,57.2,130z"/>
		</g>
		<g>
			<line class="st13" x1="92.3" y1="90" x2="116.5" y2="102.6"/>
			<line class="st13" x1="54.1" y1="102.9" x2="77.4" y2="90.1"/>
			<path class="st14" d="M85,124.2c-0.4,0-0.8-0.2-1.4-0.5c-6.2-4-12.4-7.9-18.6-11.8l-5-3.1c-0.3-0.2-0.6-0.4-0.9-0.5l-0.4-0.2
				l-1.6-1c-1.3-0.9-2.7-1.8-4-2.6c-0.8-0.5-1.1-1-1.1-2c0-11.6,0-23.3,0-34.9c0-0.9,0.3-1.4,1-1.9c1.4-0.9,2.9-1.8,4.3-2.8l1.8-1.2
				c0.3-0.2,0.7-0.4,1-0.6c0.8-0.5,1.6-1,2.5-1.5c0.5-0.3,0.9-0.5,1.2-0.5c0.1,0,0.4,0,0.9,0.4c0.3,1.2,0.2,1.2-0.9,2
				c-1.5,0.9-2.9,1.9-4.5,2.8l-4.1,2.6l6.8,4.3c7.1,4.5,14.2,9,21.3,13.4c0.4,0.3,1,0.4,1.6,0.4c0.8,0,1.5-0.2,2.1-0.6
				c4.2-2.6,8.4-5.2,12.5-7.8l14.5-9.2l-1.2-1.4l-0.1-0.2c-0.1-0.2-0.3-0.4-0.7-0.6l-2.5-1.6c-7.6-4.8-15.2-9.6-22.8-14.4
				c-0.4-0.3-0.9-0.4-1.6-0.4c-0.7,0-1.4,0.2-1.9,0.5c-3.3,2-6.3,3.9-9.1,5.7c-0.5,0.3-1,0.5-1.3,0.5c-0.2,0-0.5,0-0.9-0.4
				c-0.3-1.2-0.2-1.2,1.1-2c1.2-0.7,2.4-1.5,3.5-2.2c2.4-1.5,4.9-3.1,7.3-4.6c0.4-0.3,0.8-0.4,1.2-0.4c0.3,0,0.7,0.1,1.2,0.4
				c10.2,6.4,20.3,12.9,30.5,19.2c0.9,0.6,1.2,1.1,1.2,2.2c0,11.6,0,23.1,0,34.7c0,1-0.3,1.6-1.2,2.2c-10.1,6.4-20.3,12.7-30.4,19.2
				C85.9,124,85.4,124.2,85,124.2z M54.3,77.3c0,7.9,0,15.7,0.1,23.5c0,1.2,1,2.4,1.9,3c4.7,3,9.5,6.1,14.3,9.1l12.9,8.1l0.3-2.5
				l0.1-0.5c0-0.3,0.1-0.6,0.1-0.8l0-4.4c0-7.6,0-15.5-0.1-23.2c0-1.3-1-2.7-2-3.3c-6.7-4.3-13.5-8.6-20.2-12.8l-3.2-2
				c-0.3-0.2-0.7-0.4-1.1-0.6l-0.6-0.3l-2.4-1.3L54.3,77.3z M113.4,70.4l-0.5,0.3c-0.3,0.2-0.5,0.3-0.7,0.4l-4.3,2.7
				c-6.6,4.2-13.4,8.4-20.1,12.7c-1.1,0.7-1.7,2.3-1.7,3.5c-0.1,7.5-0.1,15,0,22.5l0,4.2c0,0.3,0,0.7,0.1,1.1l0.2,2.9l2.1-1l0.4-0.2
				c0.3-0.1,0.6-0.3,0.8-0.4l3.8-2.4c6.7-4.2,13.6-8.6,20.4-12.9c1-0.7,1.8-2.1,1.8-3.4c0.1-6.9,0.1-13.7,0.1-20.6l0-10.4
				L113.4,70.4z"/>
			<path class="st15" d="M114.2,71.8c0,1,0,1.7,0,2.4c0,8.7,0,17.3,0,26c0,0.7-0.5,1.7-1.1,2.1c-8,5.2-16.1,10.2-24.2,15.3
				c-0.3,0.2-0.6,0.3-1.1,0.5c0-0.6-0.1-1.1-0.1-1.5c0-8.9,0-17.8,0-26.7c0-0.7,0.4-1.8,1-2.2c8.1-5.2,16.2-10.3,24.3-15.4
				C113.3,72.3,113.6,72.2,114.2,71.8z"/>
			<path class="st16" d="M82.2,118.3c-2.4-1.5-4.6-2.9-6.9-4.3c-6.1-3.8-12.1-7.6-18.2-11.5c-0.5-0.4-1.2-1.1-1.2-1.7
				c-0.1-9.5-0.1-19.1-0.1-28.9c0.7,0.4,1.2,0.6,1.6,0.9c7.8,4.9,15.7,9.8,23.4,14.8c0.6,0.4,1.3,1.3,1.3,2
				c0.1,9.2,0.1,18.4,0.1,27.6C82.3,117.4,82.2,117.7,82.2,118.3z"/>
			<polygon class="st17" points="58,66.9 85,50.4 111.1,66.9 84.6,82.8 			"/>
		</g>
	</g>
</g>
</svg>
