<?xml version="1.0" encoding="UTF-8"?>
<svg data-bbox="13.3 12.4 350.4 362.8" viewBox="0 0 383.4 383.3" xmlns="http://www.w3.org/2000/svg" data-type="ugc">
    <g>
        <path d="M289.7 343.1c44.8-31.7 74-84 74-143 0-96.8-78.4-175.2-175.2-175.2S13.3 103.3 13.3 200.1c0 17.5 2.6 34.5 7.4 50.5" fill="none" stroke="#fec04e" stroke-width="9.514" stroke-miterlimit="10"/>
        <path d="M268.6 353.4c-16.2 7.9-33.2 13.1-51 15.5-2.4.4-4.8 1.3-7.2 2.1h-37.8c-.7-.5-1.5-1.2-2.3-1.3-7.4-1.4-14.9-2.2-22.2-4-14.6-3.5-28.2-9.2-41.4-16.1-19.3-10.1-35.5-24-50.2-39.9-2.9-3.1-5.2-6.7-7.8-10.2v-26.9c0-15.1.1-30.1.2-45.1 1.6 2.4 3.5 4.9 4.9 7.4 9.1 16.1 21.1 29.4 36.3 39.8 12.3 8.5 25.8 14.7 40.5 17.9.5 2.6 2.2 3.6 4.8 3.6h46.7c2.6 0 4.2-.9 4.8-3.6 11.3-2.2 21.7-6.7 31.6-12.3 17.9-10.2 32.1-24 42.8-41.5 2.3-3.8 4.8-7.5 7.2-11.3.1 5.6.2 11.2.3 16.9-.2 36.2-.2 72.6-.2 109zm-110-22.4h-30.8c-2.2 0-4 .9-4.1 3.4-.1 2.6 1.7 3.6 4.1 3.6 20.6 0 41 .1 61.6-.1 1.4 0 3.4-1.6 4-2.9.9-2.1-1.2-3.9-4.3-3.9-10.2-.1-20.4-.1-30.5-.1zm.4-27.9h-31.1c-2.2 0-4 .9-4.1 3.4-.1 2.6 1.7 3.6 4.1 3.6 20.6 0 41 .1 61.6-.1 1.4 0 3.4-1.6 4-2.9.9-2.1-1.2-3.9-4.3-3.9-10.2-.2-20.2-.1-30.2-.1zm0 13.9h-31.1c-2.2 0-4 .9-4.1 3.4-.1 2.6 1.7 3.6 4.1 3.6 20.6 0 41 .1 61.6-.1 1.4 0 3.4-1.6 4-2.9.9-2.1-1.2-3.9-4.3-3.9-10.2-.1-20.2-.1-30.2-.1z" fill="#e6e6e6"/>
        <path d="M27.8 221.9c0-22.3-.1-44.8-.1-67.1 0-11.7-.1-23.3-.1-35 0-13.6.1-27.2.1-40.8 0-8.5 4-12.4 12.6-12.5 7.8 0 15.6-.1 23.4-.1 14.2.1 28.4.1 42.6.2-.8 3-1.7 6.1-2.4 9.1-.2.9-.1 2-.2 3 1.1 0 2.2.1 3.3-.1 1.4-.2 2.8-.6 4-1.1 4.7-2.2 9.2-1.8 13.8.1 2.2.8 4.5 1.2 7.8 2-1.3-5-2.3-9-3.4-12.9H140c24.6 0 49.2-.1 73.9-.1l.1.1c-1 3.8-2.1 7.7-3.1 11.6-5.5.8-8.6 4.1-9.7 9.4H48.7v101.6c0 10.9-.1 21.9-.1 32.9-2.2 3.9-4.8 7.5-9.9 7.7-5.4-.2-8.6-3.5-10.9-8z" fill="#6a61b3"/>
        <path d="M289.6 301.2v40.4c-7 3.9-14 7.9-20.9 11.9V244.4c2.1 4.1 5 7.3 9.9 7.6 5.6.4 8.5-3.3 10.9-7.7.1 11.7.2 23.4.2 35.1-1.7 5-7.4 5-11.2 8.7 5.6 3 9.1 7.5 11.1 13.1z" fill="#51489a"/>
        <path d="M234.4 37.5c-.2-2.2-.8-4.4-.5-6.5.9-6.2 5.5-8.7 10.9-10.2 3.7 1.3 7.5 2.6 11.1 3.9-1.7 2.9.9 4.6 2.2 6.2.9 1.1 3.3 2 4.8 1.7 1.3-.2 3.1-1.9 3.5-3.3.7-2.2.4-4.8.5-7.2 1.2-6.5 5-9.7 11.5-9.7s10.3 3.2 11.5 9.7c0 2-.6 4.1.1 5.8.7 1.8 2.2 3.8 3.9 4.6 2.2 1 4.3-.4 5.4-2.5.8-1.5 1.6-3.1 2.3-4.7 6.2-5.3 9.8-5.9 15.6-2.4 4.8 2.9 6.5 6.8 5.3 12.4l-.3 2.1c-1.2 2.2-2.4 4.4-3.6 6.5-3.5-1.7-6.5-.6-9.3 1.6-.7-.7-1.3-1.6-2.2-2.1-12.8-8.1-26.7-10.5-41.2-6.7-6.5 1.7-12.5 5.1-18.9 7.9-2.2-3.8-2.2-3.7-5-.3-1.4 1.7-3.2 3.1-4.8 4.6 2.1-4.4.5-8.1-2.8-11.4z" fill="#fd9101"/>
        <path d="m342.4 112.8.9 1.5c4 4.8 4.5 8.7 1.8 13.6-2.3 4.1-7.4 7.7-12.8 5.9-.7-.2-1.4-.1-2.1-.2-1.5-1.1-2.9-2.2-4.4-3.3 1.7-.9 3.3-1.9 5-2.8-2.6-2.7-5-5.1-7.3-7.6.2-.6.4-1.1.7-1.6 6-9.9 8.8-20.5 8-32.2-.7-11.8-5-21.8-12.1-30.9.6-1.9 1.1-3.7 1.7-5.6l8.4-3.9c2.1-.3 4.2-.8 6.2-.7 5.1.6 7.9 4 9.7 8.5 1.6 4.2.7 7.9-2.5 11.2-.5.5-.9 1-1.4 1.6-1.9.9-4 1.6-5.4 3-1.1 1.1-2 3.3-1.8 4.8.2 1.3 1.9 3.1 3.2 3.5 2.2.7 4.8.4 7.2.5 6.3 1.2 9.6 4.9 9.7 10.8.1 6.7-2.7 10.5-9.2 12.1h-.6c-2.3.1-4.8-.2-6.8.5-1.5.5-3.2 2.2-3.5 3.6-.3 1.5.7 3.6 1.9 4.8 1.5 1.4 3.8 2 5.5 2.9z" fill="#fd9102"/>
        <path d="M266.8 22.3c-.1 2.4.2 5-.5 7.2-.4 1.3-2.2 3-3.5 3.3-1.5.3-3.8-.6-4.8-1.7-1.3-1.7-3.9-3.3-2.2-6.2 3.7-.9 7.4-1.8 11-2.6z" fill="#bd422a"/>
        <path d="M301.6 25.6c-.7 1.6-1.5 3.1-2.3 4.7-1.2 2.2-3.3 3.6-5.4 2.5-1.7-.7-3.3-2.8-3.9-4.6-.7-1.7-.1-3.8-.1-5.8 3.8 1 7.8 2.1 11.7 3.2z" fill="#bd422a"/>
        <path d="M345.6 78.1c-2.4-.1-5 .2-7.2-.5-1.3-.4-3-2.2-3.2-3.5-.2-1.5.7-3.6 1.8-4.8 1.4-1.4 3.6-2.1 5.4-3 1 4 2.1 7.9 3.2 11.8z" fill="#bd422a"/>
        <path d="m330.3 45.7-8.4 3.9c-1.1-1.8-2.2-3.6-3.4-5.4 1.2-2.2 2.4-4.4 3.6-6.5 2.9 2.6 5.6 5.3 8.2 8z" fill="#bd422a"/>
        <path d="M48.6 221.9c0-10.9.1-21.9.1-32.9V87.4h152.5c.4 9.1 2.7 12.2 9.8 13.6 1.1 3.9 2.2 7.9 3.3 11.8-.5.6-.9 1-1.4 1.6-3.1 3.3-4.1 7-2.4 11.2 1.7 4.5 4.6 7.9 9.7 8.4 2.1.2 4.1-.4 6.2-.7l.3.9c-5.4 15-10.8 29.8-16.3 44.8-3 7.9-6 15.8-9.1 23.7-1 2.5-.6 4.4 1.2 6.4 12.2 13.6 24.2 27.1 36.4 40.7 3.3 3.6 6.1 3 7.5-1.7 3.3-10.8 6.5-21.8 9.6-32.7 1.8-6.1 3.4-12.2 5-18.4.9-2.8 1.9-5.7 2.8-8.5 1.6-4.8 3.2-9.5 4.8-14.3 0 17.7 0 35.4-.1 53.1-2.4 3.7-4.9 7.5-7.2 11.3-10.8 17.5-25 31.3-42.8 41.5-9.9 5.7-20.4 10.1-31.6 12.3-.6-2.6-2.2-3.5-4.9-3.5-15.5.1-31 .1-46.6 0-2.6 0-4.3.8-4.9 3.5-14.7-3.2-28.1-9.3-40.5-17.9-15.1-10.5-27.2-23.7-36.3-39.8-1.4-2.5-3.3-5-4.9-7.4 0-1.7-.1-3.5-.2-5.4zm113-110.9c-9.7.7-16.3 1-22.7 1.8-5 .6-9.9 1.6-14.8 2.7-1.1.3-2.4 1.7-2.7 2.8-6.3 30.2 8.3 63.2 35.2 79.3 1 .6 3 .7 3.9 0 26.6-15.9 41.1-48.5 35.3-79-.4-2.1-1-3.1-3.2-3.4-11.3-1.4-22.7-3.1-31-4.2zm-3 125.6h30.8c2.4 0 4.2-.9 4.2-3.6 0-2.3-1.7-3.5-4-3.5h-61.8c-2.3 0-4 1-4 3.4-.1 2.6 1.7 3.6 4.1 3.6h2.1c9.5.1 19 .1 28.6.1zm0 38.4h-30.5c-2.4 0-4.3.7-4.4 3.4-.1 2.6 1.7 3.6 4.1 3.6 20.6 0 41 .1 61.6-.1 1.4 0 3.4-1.6 4-2.9.9-2.1-1.3-3.9-4.3-3.9-10.2-.1-20.4-.1-30.5-.1zm-.2-24.5h23.4c2.5 0 4.6-.6 4.7-3.5.1-2.8-2-3.6-4.5-3.6h-46.7c-2.5 0-4.6.7-4.5 3.6.1 2.8 2.2 3.5 4.7 3.5h22.9z" fill="#fefefe"/>
        <path d="M268.4 227.4c0-17.7 0-35.4.1-53.1.7-3.3 1.5-6.5 2.2-9.7 5 3 10.1 2.5 15.1.4 1.2 5 2.5 10 3.7 15 0 18.8-.1 37.6-.1 56.4 0 2.7-.1 5.3-.1 8-2.3 4.4-5.3 7.9-10.9 7.7-5-.3-7.8-3.6-9.9-7.6 0-5.9 0-11.5-.1-17.1z" fill="#6a61b3"/>
        <path d="M48.6 221.9c.1 1.9.2 3.6.3 5.5-.1 15.1-.1 30.1-.2 45.1v26.9c-5.6-8.9-11.4-17.7-16.9-26.6-1.8-2.8-2.8-6.1-4.2-9.2.1-13.9.2-28 .2-41.9 2.2 4.5 5.4 7.9 10.9 7.7 5.1 0 7.7-3.6 9.9-7.5z" fill="#51489a"/>
        <path d="M158.6 331h30.5c3.1 0 5.2 1.9 4.3 3.9-.6 1.3-2.6 2.9-4 2.9-20.6.2-41 .1-61.6.1-2.4 0-4.2-1-4.1-3.6.1-2.4 1.8-3.4 4.1-3.4 10.3.1 20.5.1 30.8.1z" fill="#958fc9"/>
        <path d="M159 303.1h30.1c3.1 0 5.2 1.9 4.3 3.9-.6 1.3-2.6 2.9-4 2.9-20.6.2-41 .1-61.6.1-2.4 0-4.2-1-4.1-3.6.1-2.4 1.9-3.4 4.1-3.4 10.5.1 20.8.1 31.2.1z" fill="#958fc9"/>
        <path d="M159 317h30.1c3.1 0 5.2 1.9 4.3 3.9-.6 1.3-2.6 2.9-4 2.9-20.6.2-41 .1-61.6.1-2.4 0-4.2-1-4.1-3.6.1-2.4 1.9-3.4 4.1-3.4 10.5.2 20.8.1 31.2.1z" fill="#958fc9"/>
        <path d="M130.5 292.5c.6-2.6 2.2-3.5 4.9-3.5 15.5.1 31 .1 46.6 0 2.6 0 4.3.8 4.9 3.5-.5 2.6-2.2 3.6-4.8 3.6h-46.7c-2.8-.1-4.3-1-4.9-3.6z" fill="#958fc9"/>
        <path d="M345.8 179.1c3.1 8 6.3 16 9.1 24.1.6 1.5.1 4.2-.9 5.4-11.9 13.6-24 26.8-35.9 40.5-3.9 4.6-7.3 3.2-8.7-2-4.4-15.9-9.2-31.7-13.7-47.5-.3-1.1-.4-2.2-.6-3.5.2-8.9 3.1-16.4 9.9-22.5 8-7.2 22.3-8.9 31.1-2.8 3.5 2.5 6.5 5.6 9.7 8.3z" fill="#f67026"/>
        <path d="M345.8 179.1c-3.2-2.7-6.3-5.8-9.7-8.2-8.9-6.1-23.2-4.4-31.1 2.8-6.8 6.1-9.7 13.6-9.9 22.5-1.8-5.4-3.6-10.9-5.4-16.4-1.2-5-2.5-10-3.7-15 1.3-2.7 2.6-5.4 3.9-8.2 3.9-1.1 7.9-2.3 11.8-3.5 6 5.5 10 6.3 15.3 3.1 5.6-3.4 6.9-8.2 5.5-14.2 2.5-2.3 5-4.7 7.5-7.1 5.1 14.8 10.5 29.5 15.8 44.2z" fill="#e9562d"/>
        <path d="M289.6 301.2c-2.1-5.5-5.5-10-11.1-13.2 3.7-3.6 9.4-3.7 11.2-8.7.6-.6 1-1.2 1.6-1.8 1.2-1.5 2.5-1.5 3.2.3 1.7 4.6 4.6 8.1 8.7 10.8.5.3.4 2.4.1 2.6-5 1.9-8.7 5.1-11.6 9.4-.5.5-1.4.4-2.1.6z" fill="#fbe4bd"/>
        <path d="M342.4 112.8c-1.9-.9-4-1.5-5.4-2.9-1.1-1.1-2.2-3.3-1.9-4.8.3-1.4 2-3.2 3.5-3.6 2.2-.7 4.6-.4 6.8-.5-.9 4-1.9 7.9-3 11.8z" fill="#bd422a"/>
        <path d="M329.8 135.1c-2.5 2.3-5 4.7-7.5 7.1-1.1-1.7-2.3-3.3-3.5-5 1.9-2.7 3.3-6 7-6.8 1.5 1.1 2.9 2.2 4.4 3.3 0 .3-.2.8-.4 1.4z" fill="#bd422a"/>
        <path d="M318.9 137.1c1.1 1.7 2.3 3.3 3.5 5 1.4 6 .1 10.8-5.5 14.2-5.3 3.2-9.3 2.4-15.3-3.1-1.2-2.2-2.2-4.8-3.8-6.5-1.1-1.1-3.6-1.8-5.1-1.5-1 .2-2.1 2.4-2.3 3.9-.5 2.4-.4 5-.5 7.6-1.3 2.7-2.6 5.4-3.9 8.2-5.1 2.2-10.2 2.6-15.1-.4-1.3-2.6-2.5-5.1-3.8-7.8-.1-2.5 0-5.1-.4-7.6-.3-1.5-1.4-3.8-2.3-3.9-1.8-.2-4.1.5-5.4 1.7-1.7 1.7-2.4 4.1-3.6 6.3-3.3 3.4-6.7 6.1-11.9 4.6-7.9-2.3-11-8.4-8.3-16.5 1-1.8 2.4-3.5 2.9-5.4.4-1.4-.1-3.5-.9-4.6-.8-1-3-2-4.1-1.6-2.3.7-4.3 2.4-6.5 3.7-2.1.2-4.2.8-6.2.7-5.1-.6-7.9-4-9.7-8.4-1.6-4.2-.6-7.9 2.4-11.2.5-.5.9-1 1.4-1.6 1.9-.9 4-1.6 5.4-3 1.1-1.1 2-3.3 1.8-4.8-.2-1.3-1.9-3.1-3.2-3.5-2.2-.7-4.8-.4-7.2-.5-7.1-1.3-9.4-4.6-9.8-13.6 1.2-5.2 4.2-8.6 9.7-9.4 2 .1 4 .6 5.9.1 1.7-.5 3.6-1.8 4.5-3.3.7-1.1.2-3.8-.7-4.7-1.8-1.7-4.3-2.5-6.5-3.6l-.1-.1c-.3-.6-.6-1.3-1-1.8-3.2-3.2-4.1-6.9-2.5-11.1 1.8-4.5 4.7-7.9 9.7-8.4 2-.3 4.1.4 6.2.6 2.5 2.8 5.6 4.1 9.3 4.1-1.7 1-3.4 2.2-5.4 3.5 1.6 1.4 2.8 2.4 3.9 3.6-.7 1.4-1.1 3-2 4.3-7.4 11.3-9.6 23.9-7.6 37 2.6 16.3 11.1 29.3 25.4 37.8 16.4 9.8 33.5 10.8 50.9 2.9 4.1-1.9 7.9-4.4 11.9-6.6.8 1.4 1.8 2.7 2.4 4.1.6 1.8 1.8 2 3.4.6z" fill="#fd9101"/>
        <path d="M106.4 66.5c0-1.3.3-2.7 0-4-.5-2.2-1.3-4.5-1.8-6.7-.4-1.7-.5-3.5-.7-5.2 1.7.2 3.6 0 5 .7 6.6 3.3 13 2 19.4-.5 1-.4 2.2-.3 3.4-.4 0 1.2.2 2.4-.1 3.6-.7 2.9-1.7 5.8-2.4 8.7-.3 1.1.1 2.4.1 3.6 1 4 2.1 7.9 3.4 12.9-3.2-.8-5.6-1.1-7.8-2-4.7-1.9-9.2-2.2-13.8-.1-1.2.6-2.6.8-4 1.1-1 .2-2.2.1-3.3.1 0-1-.1-2 .2-3 .7-2.7 1.5-5.7 2.4-8.8z" fill="#fcfdfc"/>
        <path d="M214.1 66.5c2.2 1.2 4.7 2.1 6.5 3.6.9.9 1.4 3.6.7 4.7-.8 1.5-2.7 2.8-4.5 3.3-1.8.6-3.9 0-5.9-.1 1.1-3.8 2.1-7.6 3.2-11.5z" fill="#bd422a"/>
        <path d="M235.7 49.7c-3.7 0-6.8-1.3-9.3-4.1l8-8c3.5 3.3 5 6.9 2.7 11.5V49c-.5.2-1 .5-1.4.7-.1 0 0 0 0 0z" fill="#bd422a"/>
        <path d="M246.9 44.7c6.3-2.7 12.3-6.2 18.9-7.9 14.6-3.6 28.5-1.4 41.2 6.7.8.6 1.5 1.4 2.2 2.1-1.1 1.6-2.3 3.2-3.5 4.8-.6-.2-1.1-.3-1.6-.6-9.6-6.2-20.2-9-31.5-7.1-5.7.9-11.1 3.6-16.6 5.4-1.9.7-3.8 1.4-5.7 2.2-1.2-1.7-2.3-3.7-3.4-5.6z" fill="#feb42d"/>
        <path d="M246.9 44.7c1.1 1.9 2.2 3.7 3.3 5.7 1.7 1.2 3.3 2.4 5 3.6 1.9 2.7-.8 3-2.2 4-5.4.8-7.2 6.2-10.8 9-.6-.3-.8-.3-.9-.5-.7-.9-1.2-2-1.9-2.9-.8-3-2.3-5.5-5.2-6.9-1.2-1-2.3-2.2-3.9-3.6 2.1-1.3 3.7-2.3 5.4-3.5h-.1c.5-.3.9-.5 1.4-.7v.1c1.6-1.5 3.4-2.9 4.8-4.6 2.8-3.4 2.9-3.5 5.1.3z" fill="#fefcf9"/>
        <path d="M305.7 50.4c1.1-1.6 2.3-3.2 3.5-4.8 2.8-2.2 5.9-3.3 9.3-1.6 1.1 1.8 2.2 3.6 3.4 5.4-.6 1.9-1.1 3.7-1.7 5.6-1.5 2.2-2.9 4.2-4.4 6.4-.8.5-1.7 1-2.5 1.5-.7-6.9-3.7-9.3-10.7-7.9 1.1-1.4 2.1-3 3.1-4.6z" fill="#fee4bc"/>
        <path d="M315.9 61.6c1.5-2.2 2.9-4.2 4.4-6.4 7.1 9.2 11.4 19.2 12.1 30.9.7 11.7-2.1 22.3-8 32.2-.3.5-.5 1-.7 1.6l-3.9-6.6V112c.4-.6.8-1.1 1.2-1.7 4.6-9 5.8-18.6 4.2-28.4-1.4-7.5-3.9-14.6-9.3-20.3z" fill="#feb42d"/>
        <path d="m319.6 113.3 3.9 6.6c2.3 2.4 4.7 4.9 7.3 7.6-1.7.9-3.3 1.9-5 2.8-3.7.8-5.1 4.1-7 6.8-1.6 1.4-2.8 1.2-3.7-.8-.7-1.5-1.6-2.8-2.4-4.1-2-1.9-3.8-3.6-5.8-5.5-1-1.4-2.2-2.7.5-3.6 4.6-1.6 8-4.5 10.5-8.7.3-.6 1.2-.8 1.7-1.1z" fill="#fee4bc"/>
        <path d="M260.9 197c-1.7 6.2-3.3 12.3-5 18.4l-9.6 32.7c-1.4 4.7-4.2 5.3-7.5 1.7-12.2-13.6-24.2-27.1-36.4-40.7-1.8-2-2.2-3.8-1.2-6.4 3.1-7.9 6.1-15.8 9.1-23.7 4.2-3.3 7.9-7.1 12.5-9.5 10.5-5.4 24.9-1.4 32 7.9 4.5 6 6.3 12.4 6.1 19.6z" fill="#e9552e"/>
        <path d="M161.6 111c8.3 1.2 19.7 2.8 31.1 4.4 2.1.3 2.8 1.2 3.2 3.4 5.8 30.4-8.8 63.1-35.3 79-1 .6-3 .6-3.9 0-26.8-16.1-41.4-49.1-35.2-79.3.2-1.1 1.6-2.5 2.7-2.8 4.9-1.1 9.8-2.2 14.8-2.7 6.4-.9 12.9-1.2 22.6-2zm-3 7.9c-10.4-.3-20.6.7-30.6 3.2-.3 2.9-.7 5.4-.8 7.9-.3 13.3 2.8 25.9 9.5 37.4 5.4 9.3 12.4 17.3 22 22.9 7.3-4.2 13.1-10 18-16.8 11-15.4 15.2-32.6 12.7-51.5-10.4-2.4-20.5-3.5-30.8-3.1z" fill="#fe9305"/>
        <path d="M260.9 197c.2-7.2-1.6-13.6-6.1-19.5-7.1-9.3-21.5-13.4-32-7.9-4.6 2.4-8.4 6.4-12.5 9.5 5.4-15 10.8-29.8 16.3-44.8 2.8 2.3 5.5 4.7 8.3 7-2.7 7.9.4 14.1 8.3 16.5 5.2 1.5 8.7-1.2 11.9-4.6 3.9 1.2 7.8 2.3 11.7 3.6 1.3 2.6 2.5 5.1 3.8 7.8-.7 3.3-1.5 6.5-2.2 9.7-1.6 4.8-3.2 9.5-4.8 14.3l-2.7 8.4z" fill="#d1472b"/>
        <path d="M158.6 236.6h-30.7c-2.4 0-4.2-1-4.1-3.6.1-2.4 1.7-3.4 4-3.4h61.8c2.3 0 3.9 1 4 3.5 0 2.6-1.8 3.6-4.2 3.6-10.3-.1-20.6-.1-30.8-.1z" fill="#6a61b4"/>
        <path d="M158.6 275h30.5c3.1 0 5.2 1.9 4.3 3.9-.6 1.3-2.6 2.9-4 2.9-20.6.2-41 .1-61.6.1-2.4 0-4.2-1-4.1-3.6.1-2.6 2.1-3.4 4.4-3.4 10.2.1 20.3.1 30.5.1z" fill="#958fc9"/>
        <path d="M158.4 250.5h-23c-2.5 0-4.6-.7-4.7-3.5-.1-2.8 2-3.6 4.5-3.6h46.7c2.5 0 4.6.8 4.5 3.6-.1 2.8-2.2 3.5-4.7 3.5h-23.3z" fill="#6a61b4"/>
        <path d="M211.1 101c2.4.1 5-.2 7.2.5 1.3.4 3 2.2 3.2 3.5.2 1.5-.7 3.6-1.8 4.8-1.4 1.4-3.6 2.1-5.4 3-1.1-3.9-2.2-7.8-3.2-11.8z" fill="#bd422a"/>
        <path d="M234.9 141.3c-2.8-2.3-5.5-4.7-8.3-7l-.3-.9c2.2-1.3 4.1-3 6.5-3.7 1.1-.4 3.3.6 4.1 1.6.9 1.1 1.3 3.2.9 4.6-.4 2-1.9 3.6-2.9 5.4z" fill="#bd422a"/>
        <path d="M289.7 156.7c.1-2.5 0-5.1.5-7.6.3-1.5 1.3-3.7 2.3-3.9 1.6-.3 4 .4 5.1 1.5 1.7 1.8 2.6 4.3 3.8 6.5-3.8 1.1-7.8 2.3-11.7 3.5z" fill="#bd422a"/>
        <path d="M307 126.6c2 1.9 3.8 3.6 5.8 5.5-3.9 2.2-7.8 4.8-11.9 6.6-17.4 7.9-34.5 6.9-50.9-2.9-14.3-8.6-22.8-21.5-25.4-37.8-2.1-13.1.2-25.6 7.6-37 .8-1.3 1.3-2.9 2-4.3 2.9 1.4 4.5 3.9 5.2 6.9-.8.9-1.9 1.8-2.4 2.8-4.6 8.6-6.7 17.6-5.8 27.4.9 10.7 4.9 19.9 12.1 27.6 12.4 13.3 27.9 18 45.5 14.3 6.8-1.4 13.2-4 18.2-9.1z" fill="#feb42d"/>
        <path d="M266.8 156.7c-3.9-1.2-7.8-2.3-11.7-3.6 1.1-2.2 2-4.6 3.6-6.3 1.2-1.2 3.6-1.9 5.4-1.7.9.1 2.1 2.4 2.3 3.9.5 2.6.3 5.2.4 7.7z" fill="#bd422a"/>
        <path d="M237.1 49c-.5.3-.9.5-1.4.7.4-.2.9-.5 1.4-.7z" fill="#fd9101"/>
        <path d="M305.7 50.4c-1 1.6-2 3.1-3 4.7-3.6 4.2-7.2 8.4-10.7 12.7-2.1 2.6-3.7 5.4-5.6 8.2-3.8 4.2-7.7 8.4-11.7 12.8-1.7-2.1-3.2-3.9-4.7-5.8l-4.8-6c-3.4-4.4-5.6-5.1-10.8-3.6-.3-4.2-.5-8.4-.7-12.7-.1-.9-.5-1.9-.7-2.9 1.3-1 4-1.3 2.2-4 .3-1.9.5-3.8.7-5.7 5.5-1.9 10.9-4.5 16.6-5.4 11.3-2 21.9.9 31.5 7.1.5.4 1.1.5 1.7.6z" fill="#fecc71"/>
        <path d="M255.9 48.3c-.3 1.9-.5 3.8-.7 5.7-1.7-1.2-3.3-2.4-5-3.6 1.9-.7 3.8-1.5 5.7-2.1z" fill="#fec04f"/>
        <path d="M253.1 58c.3.9.7 1.9.7 2.9.3 4.2.6 8.4.7 12.7-4 4.5-4.1 7.2-.5 11.9 4.6 5.9 9.4 11.5 13.8 17.5 2.9 3.9 6.3 5.8 11 3.9.7.6 1.4 1.2 2.2 1.6 12.3 6.3 25.1 7.2 38.4 3.5v1.3c-.6.4-1.4.6-1.7 1-2.4 4.2-5.9 7-10.5 8.7-2.6.9-1.5 2.3-.5 3.6-5 5-11.4 7.6-18.1 9-17.8 3.6-33.1-1-45.5-14.3-7.2-7.7-11-16.9-12.1-27.6-.9-9.8 1.2-18.9 5.8-27.4.6-1 1.6-1.9 2.4-2.8.6 1 1.2 2 1.9 2.9.1.2.4.2.9.5 3.9-2.7 5.6-8 11.1-8.9z" fill="#fec04f"/>
        <path d="M319.6 112c-13.3 3.7-26.1 2.8-38.4-3.5-.7-.4-1.5-1-2.2-1.6 1.2-1.5 2.5-3 3.7-4.6 4.7-6.1 9.3-12.2 13.8-18.2 5.6-7 11.2-14 16.7-21 .8-.5 1.7-1 2.5-1.5 5.4 5.7 7.9 12.8 9.1 20.4 1.6 9.8.4 19.4-4.2 28.4-.1.5-.6 1-1 1.6z" fill="#fecc71"/>
        <path d="M313.4 63.1c-5.6 7-11.2 14-16.7 21-6.9.7-9.3-1.1-10.1-7.9 1.9-2.7 3.6-5.6 5.6-8.2 3.5-4.3 7.1-8.5 10.7-12.7 6.7-1.5 9.8.8 10.5 7.8z" fill="#fefefd"/>
        <path d="M158.6 118.9c10.3-.4 20.4.7 30.7 3.1 2.5 19-1.7 36.1-12.7 51.5-4.9 6.7-10.6 12.6-18 16.8-1.2-12-3.3-23.9-3.3-35.9.1-11.8 2.1-23.6 3.3-35.5z" fill="#fecc70"/>
        <path d="M158.6 118.9c-1.1 11.9-3.3 23.7-3.2 35.5 0 12 2.1 23.9 3.3 35.9-9.4-5.5-16.5-13.6-22-22.9-6.7-11.5-9.7-24-9.5-37.4.1-2.5.5-5 .8-7.9 10-2.6 20.3-3.4 30.6-3.2z" fill="#fec04e"/>
        <path d="M286.4 76.1c.8 6.8 3.2 8.7 10.1 7.9-4.6 6.1-9.3 12.2-13.8 18.2-1.2 1.6-2.5 3.1-3.7 4.6-4.8 1.8-8.1 0-11-3.9-4.4-6-9.3-11.6-13.8-17.5-3.7-4.7-3.6-7.4.5-11.9 5.2-1.6 7.4-.8 10.8 3.6 1.6 2.1 3.2 4 4.8 6 1.5 1.9 3 3.7 4.7 5.8 3.9-4.3 7.6-8.5 11.4-12.8z" fill="#fee6be"/>
        <path d="M20.7 250.5c21.7 72.2 88.6 124.7 167.8 124.7 37.7 0 75.2-13.8 103.8-34" fill="none" stroke="#fec04e" stroke-width="9.514" stroke-miterlimit="10"/>
    </g>
</svg>
