<?xml version="1.0" encoding="utf-8"?>
<!-- Generator: Adobe Illustrator 26.0.1, SVG Export Plug-In . SVG Version: 6.00 Build 0)  -->
<svg version="1.1" id="Layer_1" xmlns="http://www.w3.org/2000/svg" xmlns:xlink="http://www.w3.org/1999/xlink" x="0px" y="0px"
	 viewBox="0 0 701.5 701.8" style="enable-background:new 0 0 701.5 701.8;" xml:space="preserve">
<style type="text/css">
	.st0{fill:url(#SVGID_1_);}
	.st1{fill:#FFFFFF;}
	.st2{fill:#EDEEED;}
	.st3{fill:#CCCCCC;}
	.st4{fill:#4F4F4F;}
	.st5{fill:#2C2C2C;}
	.st6{fill:#516581;}
	.st7{fill:#69AFED;}
	.st8{fill:#509DD6;}
</style>
<g>
	
		<image style="overflow:visible;opacity:0.15;" width="2923" height="2924" xlink:href="B1E43193.png"  transform="matrix(0.24 0 0 0.24 0 0)">
	</image>
	<g>
		<linearGradient id="SVGID_1_" gradientUnits="userSpaceOnUse" x1="21.0428" y1="350.8908" x2="680.5044" y2="350.8908">
			<stop  offset="0" style="stop-color:#FAFAFA"/>
			<stop  offset="0.4804" style="stop-color:#FFFFFF"/>
			<stop  offset="1" style="stop-color:#FAFAFA"/>
		</linearGradient>
		<circle class="st0" cx="350.8" cy="350.9" r="329.7"/>
	</g>
</g>
<g>
	
		<image style="overflow:visible;opacity:0.15;" width="2670" height="2669" xlink:href="B1E43191.png"  transform="matrix(0.24 0 0 0.24 30.3895 30.6295)">
	</image>
	<g>
		<circle class="st1" cx="350.8" cy="350.9" r="301"/>
	</g>
</g>
<g>
	<path class="st2" d="M158.8,506.5c1.6-3.9,3.3-7.7,4.7-11.6c12.2-33.6,24.3-67.2,36.8-100.7c2.7-7.3,9-11.3,16.5-13.4
		c0.7-0.2,1.4-0.5,2.1-0.7c3.5,0.1,7,0.4,10.4,0.4c73.8,0,147.6,0,221.4,0c3.7,0,7.5,0.2,11.2,0.2c0.4,0.3,0.7,0.7,1.2,0.9
		c10.3,3.8,14.6,12.1,16.7,22c-8,0.1-16,0.1-24,0.2c-60.6,0-121.2,0-181.8,0c-16.4,0-32.7,0.1-49.1-0.1c-2.7,0-4,0.8-4.8,3.4
		c-1.3,4.3-3.1,8.4-4.6,12.6c-2.1,5.9-4.2,11.9-6.6,18.5c2,0,3.4,0,4.9,0c83.4,0,166.7,0,250.1,0c1.4,0,2.7-0.1,4.1-0.1
		c8.2,0,16.4,0.1,24.6,0.1c0.3,0.4,0.6,0.8,0.8,1.2c7.5,20.7,15,41.3,22.4,62c0.7,2.1,1,4.3,1.5,6.4c-31.2,0-62.5,0-93.7,0
		c-48.5,0-97,0-145.5,0c-39.8,0-79.5,0-119.3,0C158.8,507.4,158.8,507,158.8,506.5z M400.4,484.6c7.6,0,15.2,0,23.2,0
		c-1.2-7.9-2.3-15.5-3.4-23.1c-7.9,0-15.4,0-22.9,0c-38.7,0-77.3,0-116,0c-1.1,7.9-2.2,15.3-3.3,23.2c1.7,0,3,0,4.4,0
		c14.5,0,29,0,43.5,0C350.7,484.7,375.5,484.7,400.4,484.6z"/>
	<path class="st3" d="M517.2,507.9c-0.5-2.1-0.8-4.4-1.5-6.4c-7.4-20.7-14.9-41.3-22.4-62c-0.2-0.4-0.5-0.8-0.8-1.2
		c-2.2-6.3-4.2-12.6-6.5-18.9c-1.9-5.3-4.2-10.5-6.3-15.8c-2.1-10-6.4-18.3-16.7-22c-0.4-0.2-0.8-0.6-1.2-0.9c0-0.1,0-0.3-0.1-0.4
		c6.2-0.1,12.4-0.2,18.6-0.3c0.3,0,0.7-0.1,1-0.1c0.5,0,1,0.1,1.5,0.1c7.4,2.1,14.2,5.3,17.8,12.4c2.2,4.4,3.7,9.2,5.4,13.9
		c11.6,31.8,23.1,63.6,34.6,95.4c0.6,1.6,1.4,3.1,2.2,4.7c0,0.5,0,1,0,1.5c-8.2,0-16.5,0-24.7,0
		C517.8,507.9,517.5,507.9,517.2,507.9z"/>
	<path class="st3" d="M293.2,530.7c-1.6,0.1-3.2,0.4-4.8,0.4c-33.4,0-66.7-0.1-100.1,0.1c-15.1,0.1-25.3-4.6-29.5-19.5
		c0-1.2,0-2.5,0-3.7c39.8,0,79.5,0,119.3,0c0.4,9,4.3,15.8,12.4,20.1C291.5,528.6,292.3,529.8,293.2,530.7z"/>
	<path class="st3" d="M518,508c8.2,0,16.5,0,24.7,0c0,1.2,0,2.5,0,3.7c-2,5.8-4.5,11.2-9.8,14.9c-4.5,3.1-9.6,4.2-14.8,4.4
		c-5.7,0.2-11.5,0-17.2-0.1c0.7-0.5,1.3-1.3,2.2-1.6C512.1,525.8,517.9,517.6,518,508z"/>
	<path class="st4" d="M461.8,380.8c-3.7-0.1-7.5-0.2-11.2-0.2c-73.8,0-147.6,0-221.4,0c-3.5,0-7-0.3-10.4-0.4
		c-12.7-3.8-18.7-11.7-18.7-25c0-53,0-106,0-159c0-16,9.5-25.5,25.7-25.5c75.1,0,150.2,0,225.3,0c3.4,0,6.7,0.2,10.1,0.2
		c1,0.6,2,1.2,3.1,1.7c8.3,3.3,14.3,12.3,13.9,21.2c-7.7,0-15.4,0.1-23.2,0.1c-0.9-0.1-1.7-0.2-2.6-0.2c-75.1,0-150.2,0-225.4,0
		c-1.1,0-2.2,0.1-3.5,0.2c0,54.5,0,108.8,0,163.5c1.7,0,3.2,0,4.6,0c74.2,0,148.5,0,222.7,0c1.4,0,2.7-0.1,4.1-0.1
		c7.7,0,15.4,0,23.2,0.1c0.3,8.9-5.6,17.8-13.8,21.2c-1,0.4-1.7,1.2-2.6,1.8C461.8,380.5,461.8,380.6,461.8,380.8z"/>
	<path class="st5" d="M478.1,193.7c0.3-8.9-5.6-17.9-13.9-21.2c-1.1-0.4-2.1-1.1-3.1-1.7c6.2,0,12.5-0.4,18.7,0
		c12.7,0.9,21.6,10.6,21.7,23.3c0.1,14.8,0,29.7,0,44.5c0,38.8,0,77.6,0,116.4c0,13.3-6,21.2-18.7,25c-0.5,0-1-0.1-1.5-0.1
		c-0.3,0-0.7,0.1-1,0.1c-6.2,0.1-12.4,0.2-18.6,0.3c0.9-0.6,1.6-1.5,2.6-1.8c8.3-3.4,14.1-12.2,13.8-21.2c0-1.6,0.1-3.2,0.1-4.9
		c0-51.3,0-102.6,0-153.9C478.3,197,478.2,195.4,478.1,193.7z"/>
	<path class="st1" d="M467.9,438.2c-1.4,0-2.7,0.1-4.1,0.1c-83.4,0-166.7,0-250.1,0c-1.4,0-2.9,0-4.9,0c2.4-6.6,4.4-12.6,6.6-18.5
		c1.5-4.2,3.3-8.3,4.6-12.6c0.8-2.6,2.1-3.5,4.8-3.4c16.4,0.1,32.7,0.1,49.1,0.1c60.6,0,121.2,0,181.8,0c0.5,1.5,1,3.1,1.6,4.6
		C460.8,418.4,464.3,428.3,467.9,438.2z"/>
	<path class="st3" d="M293.2,530.7c-0.9-0.9-1.7-2-2.8-2.6c-8.1-4.3-11.9-11.1-12.4-20.1c48.5,0,97,0,145.5,0
		c-1.3,4.2-2.2,8.5-4,12.5c-2.6,5.5-8.3,7.4-13.3,10c-3.4,0.2-6.7,0.5-10.1,0.5c-33.3,0-66.7,0-100-0.1
		C295.2,530.9,294.2,530.7,293.2,530.7z"/>
	<path class="st1" d="M400.4,484.6c-24.9,0-49.7,0.1-74.6,0.1c-14.5,0-29,0-43.5,0c-1.3,0-2.7,0-4.4,0c1.1-7.9,2.2-15.2,3.3-23.2
		c38.7,0,77.3,0,116,0C398.3,469.2,399.3,476.9,400.4,484.6z"/>
	<path class="st3" d="M406.3,530.4c5-2.6,10.7-4.5,13.3-10c1.8-3.9,2.7-8.3,4-12.5c31.2,0,62.5,0,93.7,0c0.3,0,0.5,0,0.8,0.1
		c-0.2,9.7-5.9,17.8-15,21.3c-0.8,0.3-1.4,1-2.2,1.6c-3.1,0.1-6.2,0.2-9.3,0.2c-27,0-54,0-81,0C409.1,531.1,407.7,530.7,406.3,530.4
		z"/>
	<path class="st3" d="M467.9,438.2c-3.5-9.9-7.1-19.9-10.6-29.8c-0.5-1.5-1-3-1.6-4.6c8-0.1,16-0.1,24-0.2
		c2.1,5.3,4.3,10.5,6.3,15.8c2.3,6.2,4.3,12.6,6.5,18.9C484.3,438.3,476.1,438.2,467.9,438.2z"/>
	<path class="st3" d="M400.4,484.6c-1-7.7-2.1-15.4-3.1-23.1c7.5,0,15,0,22.9,0c1.1,7.6,2.2,15.1,3.4,23.1
		C415.5,484.6,407.9,484.6,400.4,484.6z"/>
	<path class="st6" d="M480.3,380.1c0.3,0,0.7-0.1,1-0.1C481,380,480.6,380,480.3,380.1z"/>
	<path class="st7" d="M455,357.3c-1.4,0-2.7,0.1-4.1,0.1c-74.2,0-148.5,0-222.7,0c-1.5,0-2.9,0-4.6,0c0-54.7,0-109,0-163.5
		c1.3-0.1,2.4-0.2,3.5-0.2c75.1,0,150.2,0,225.4,0c0.9,0,1.7,0.1,2.6,0.2C455,248.3,455,302.8,455,357.3z"/>
	<path class="st8" d="M455,357.3c0-54.5,0-109,0-163.4c7.7,0,15.4-0.1,23.2-0.1c0,1.6,0.1,3.2,0.1,4.9c0,51.3,0,102.6,0,153.9
		c0,1.6-0.1,3.2-0.1,4.9C470.4,357.3,462.7,357.3,455,357.3z"/>
</g>
</svg>
