<?xml version="1.0" encoding="utf-8"?>
<!-- Generator: Adobe Illustrator 26.0.1, SVG Export Plug-In . SVG Version: 6.00 Build 0)  -->
<svg version="1.1" id="Layer_1" xmlns="http://www.w3.org/2000/svg" xmlns:xlink="http://www.w3.org/1999/xlink" x="0px" y="0px"
	 viewBox="0 0 701.5 701.8" style="enable-background:new 0 0 701.5 701.8;" xml:space="preserve">
<style type="text/css">
	.st0{fill:url(#SVGID_1_);}
	.st1{fill:#FFFFFF;}
	.st2{fill:#6D6E71;}
	.st3{fill:#1955CC;}
	.st4{fill:#578EE5;}
	.st5{fill:#58565D;}
	.st6{fill:#797881;}
	.st7{fill:#939598;}
	.st8{fill:#7B7A83;}
	.st9{fill:#D1D3D4;}
	.st10{fill:#3C3A41;}
</style>
<g>
	
		<image style="overflow:visible;opacity:0.15;" width="2923" height="2924" xlink:href="B5590968.png"  transform="matrix(0.24 0 0 0.24 0 0)">
	</image>
	<g>
		<linearGradient id="SVGID_1_" gradientUnits="userSpaceOnUse" x1="21.0428" y1="350.8908" x2="680.5044" y2="350.8908">
			<stop  offset="0" style="stop-color:#FAFAFA"/>
			<stop  offset="0.4804" style="stop-color:#FFFFFF"/>
			<stop  offset="1" style="stop-color:#FAFAFA"/>
		</linearGradient>
		<circle class="st0" cx="350.8" cy="350.9" r="329.7"/>
	</g>
</g>
<g>
	
		<image style="overflow:visible;opacity:0.15;" width="2670" height="2669" xlink:href="B5590969.png"  transform="matrix(0.24 0 0 0.24 30.3895 30.6295)">
	</image>
	<g>
		<circle class="st1" cx="350.8" cy="350.9" r="301"/>
	</g>
</g>
<g>
	<path class="st2" d="M555.2,295.5c-0.5,2-1.3,3.9-1.6,5.9c-4.2,28.7-16.8,53.2-37.1,73.8c-4.7,4.8-11.8,4.9-16.5,0.5
		c-4.8-4.4-5.2-11.2-1.2-16.5c6.1-8,13-15.6,18.1-24.2c12.4-21.1,16.4-44.1,13-68.3c-3.2-23.1-13.2-43-29.3-59.8
		c-3.4-3.6-5.5-7.6-4.2-12.6c1.1-4.5,4-7.5,8.5-8.7c4.6-1.2,8.7,0.1,12,3.5c20,20.8,32.8,45.2,36.8,74c0.3,2.3,1,4.5,1.5,6.8
		C555.2,278.5,555.2,287,555.2,295.5z"/>
	<path class="st3" d="M350.8,171c25.6-1.9,54.3,18.8,60.2,47.1c0.7,3.3,1.2,6.8,1.2,10.2c0.1,50,0.4,100.1-0.2,150.1
		c-0.2,18.2-9.6,32.6-23.9,43.6c-11,8.4-23.4,12.8-37.4,12.4C350.8,346.6,350.8,258.8,350.8,171z"/>
	<path class="st4" d="M350.8,171c0,87.8,0,175.6,0,263.4c-27.9,0.3-54.5-19.6-60.5-48.5c-0.7-3.3-1-6.8-1-10.3
		c-0.1-48.4-0.3-96.8,0-145.3c0.1-23.2,11.5-40.3,31.3-51.9C329.9,173.1,340,170.3,350.8,171z"/>
	<path class="st2" d="M146.4,280.9c0.5-34.6,13.1-65.5,38-91.4c5-5.2,12.1-5.6,17.2-1.1c5.1,4.5,5.5,12,0.4,17.4
		c-9.2,9.8-17.1,20.4-22.3,32.8c-13.8,32.9-12.5,65.3,4.9,96.6c4.2,7.6,10.4,14.1,15.4,21.2c2,2.9,4.4,5.8,5.2,9.1
		c1.3,5.1-1.9,10.1-6.6,12.4c-4.8,2.3-9.9,1.4-13.9-2.7c-9.1-9.2-16.8-19.5-22.9-31C151.6,324.8,146.6,304.1,146.4,280.9z"/>
	<path class="st5" d="M350.8,458.5c24.9-0.5,46-9.6,63-27.8c14.5-15.5,21.9-33.9,22.4-55.1c0.2-6.3,2.9-10.5,8.2-12.3
		c4.7-1.7,10-0.6,12.9,3.5c1.6,2.2,3,5.3,3,8c0,22.6-6.6,43.1-19.7,61.5c-16.8,23.3-39.4,37.9-67.3,44.3c-3.5,0.8-7,1.3-10.5,1.9
		c-3.9,0.2-7.8,0.5-11.9,0.8c0,8.2,0,15.7,0,23.2l-0.1,0.1c-4,0-7.9-0.1-11.9-0.1c0-8,0-16,0-24c2.8,0,5.6-0.2,8.3,0.1
		c2.8,0.2,3.7-0.7,3.6-3.6C350.7,472.1,350.8,465.3,350.8,458.5z"/>
	<path class="st6" d="M350.8,458.5c0,6.8-0.2,13.5,0,20.3c0.1,2.8-0.9,3.8-3.6,3.6c-2.8-0.2-5.6,0-8.3-0.1c-4.9-1-9.9-1.8-14.7-3.2
		c-42.8-12.1-69.9-39.7-80.6-82.9c-1.7-7-1.8-14.5-2.2-21.7c-0.3-6.3,4.4-11.2,10.6-11.8c6.2-0.6,11.9,3.5,12.9,9.9
		c0.9,5.8,0.7,11.7,2,17.4c7.3,33.3,27.9,54.8,60.1,65C334.5,457.4,342.8,457.4,350.8,458.5z"/>
	<path class="st7" d="M507.2,281.1c-0.6,23.9-8.4,43.4-24.1,59.7c-5.1,5.2-12.1,5.7-17.1,1.1c-5.1-4.7-5.6-11.6-0.6-17.1
		c8.1-8.9,14.2-18.9,16.4-30.9c3.7-19.9-1.2-37.4-14.7-52.4c-2.9-3.3-5.5-6.6-5.1-11.2c0.5-4.9,3.1-8.5,7.7-10.2
		c4.8-1.8,9.3-0.8,12.8,2.9c13.3,13.6,21.5,29.9,23.8,48.9C506.9,275.4,507.1,278.9,507.2,281.1z"/>
	<path class="st7" d="M227.1,345.8c-2.8-1.6-6.1-2.6-8.3-4.8c-31.1-30.2-32.6-82.1-3.5-114.3c1.2-1.3,2.2-2.6,3.5-3.9
		c4.9-4.8,12.1-5,16.9-0.5c4.7,4.4,5.1,11.3,0.9,16.6c-3.4,4.4-7.2,8.6-10.1,13.3c-13,21.4-9.9,50.8,7,69.4
		c3.9,4.2,7.5,8.4,5.5,14.8C237.4,341.4,232.7,345,227.1,345.8z"/>
	<path class="st5" d="M362.8,506.3c12.1,0,24.2,0.1,36.3,0.2c7.9,0.1,13.1,4.8,13.3,11.8c0.2,7.4-4.9,12.5-12.9,12.6
		c-16.2,0.1-32.4,0-48.7,0c-0.1-8.1-0.1-16.3-0.2-24.4c0,0,0.1-0.1,0.1-0.1C354.8,506.3,358.8,506.3,362.8,506.3z"/>
	<path class="st8" d="M350.6,506.4c0.1,8.1,0.1,16.3,0.2,24.4c-16.1,0-32.1,0-48.2-0.1c-7.7,0-12.9-4.4-13.3-10.9
		c-0.6-7.8,4.6-13.2,12.9-13.3c10.8-0.1,21.5,0,32.3,0c1.5,0,2.9-0.2,4.4-0.2C342.7,506.3,346.7,506.4,350.6,506.4z"/>
	<path class="st9" d="M274.1,265.5c-1.2,2.6-2.1,5.4-3.8,7.6c-4.8,6.5-5,11.4-0.2,17.6c4.8,6.2,4.3,13.2-1.2,17.7
		c-5.4,4.4-12.5,3.2-17.5-2.8c-12.3-14.7-11.7-34.8,1.3-48.6c3.4-3.6,8.6-4.8,13.2-3C270.4,255.8,273.4,260.1,274.1,265.5z"/>
	<path class="st9" d="M427.4,298.6c1.4-2.6,2.4-5.5,4.1-7.9c4.5-6.2,4.6-11.3-0.1-17.3c-4.8-5.9-4.3-13.3,1.2-17.7
		c5.4-4.3,12.6-3.2,17.5,2.8c12.3,14.9,12,34-0.8,48.1c-3.7,4.1-8.9,5.4-13.7,3.5C431.1,308.3,428.1,303.9,427.4,298.6z"/>
	<path class="st10" d="M362.8,506.3c-4,0-8,0-12,0c0-7.5,0-15,0-23.2c4.2-0.3,8.1-0.5,11.9-0.8C362.8,490.3,362.8,498.3,362.8,506.3
		z"/>
</g>
</svg>
