<?xml version="1.0" encoding="utf-8"?>
<!-- Generator: Adobe Illustrator 26.0.3, SVG Export Plug-In . SVG Version: 6.00 Build 0)  -->
<svg version="1.1" id="Layer_1" xmlns="http://www.w3.org/2000/svg" xmlns:xlink="http://www.w3.org/1999/xlink" x="0px" y="0px"
	 viewBox="0 0 329.95 383.37" style="enable-background:new 0 0 329.95 383.37;" xml:space="preserve">
<style type="text/css">
	.st0{display:none;}
	.st1{display:inline;opacity:0.05;}
	.st2{fill:#ED1C24;}
</style>
<g id="gRID" class="st0">
	<g class="st1">
		<g>
			<rect x="-3169" y="-57.82" class="st2" width="5400" height="80"/>
			<rect x="-3169" y="-217.82" class="st2" width="5400" height="80"/>
			<rect x="-3169" y="-377.82" class="st2" width="5400" height="80"/>
		</g>
	</g>
</g>
<g>
	<path d="M0.3,0c109.79,0,219.57,0,329.36,0c0.1,1.48,0.28,2.97,0.28,4.45c0.01,113.99,0.01,227.99,0.01,341.98
		c0,1.46,0,2.92,0,4.86c-88.89,0-177.35,0-266.22,0c0,10.74,0,20.99,0,31.85c-5.62-3.73-10.68-7.09-15.82-10.5
		c-5.23,3.46-10.36,6.85-16.21,10.72c0-11.25,0-21.52,0-32.17c-10.69,0-20.98,0-31.69,0c0-1.83,0-3.3,0-4.76
		C0,232.31,0,118.2,0.01,4.08C0.01,2.72,0.2,1.36,0.3,0z M179.19,150.6c3.46-1.26,5.38-0.12,6.79,2.86
		c1.49,3.14,3.38,6.09,5.17,9.07c0.48,0.79,1.24,1.97,1.9,2c4.49,0.18,9,0.09,13.95,0.09c-3.55-6.23-6.73-11.8-9.89-17.34
		c1.1-1.07,1.96-1.79,2.69-2.63c7.82-8.98,3.64-24.64-7.89-26.65c-8.27-1.44-17-0.28-25.7-0.28c0,15.56,0,31.07,0,46.7
		c4.36,0,8.51,0,12.97,0C179.19,159.62,179.19,155.05,179.19,150.6z M135.43,165.09c13.29-0.12,24.19-11.02,24.09-24.08
		c-0.1-13.3-10.92-24.15-24.05-24.13c-13.4,0.02-24.48,11.09-24.28,24.29C111.38,154.45,122.28,165.2,135.43,165.09z M245.36,175.62
		c-13.38,0.08-24.18,10.77-24.18,23.92c0,13.35,11.05,24.36,24.32,24.23c13.22-0.13,24.17-11.18,23.97-24.2
		C269.27,186.13,258.61,175.54,245.36,175.62z M130.85,175.62c-13.39,0.03-24.2,10.67-24.24,23.84c-0.04,13.41,10.9,24.4,24.2,24.32
		c13.26-0.09,24.1-10.96,24-24.1C154.71,186.21,144.13,175.59,130.85,175.62z M71.48,117.57c0,15.69,0,31.29,0,46.86
		c4.35,0,8.4,0,12.77,0c0-4.81,0-9.37,0-14.46c3.29,0,6.28,0.23,9.21-0.05c7.8-0.74,13.55-7.01,14.01-15.01
		c0.47-8.14-4.93-16.39-12.45-17.17C87.29,116.95,79.42,117.57,71.48,117.57z M84.18,205.75c5.37,0,10.41,0,15.61,0
		c0-3.69,0-6.97,0-10.67c-5.29,0-10.34,0-15.35,0c0-2.84,0-5.26,0-8.09c6.56,0,12.84,0,19.03,0c0-3.88,0-7.32,0-10.83
		c-10.84,0-21.47,0-32.01,0c0,15.8,0,31.32,0,46.9c4.31,0,8.35,0,12.72,0C84.18,217.27,84.18,211.72,84.18,205.75z M222.03,128.61
		c0,12.35,0,24.12,0,35.84c4.45,0,8.51,0,12.99,0c0-12,0-23.78,0-35.97c4.72,0,9.02,0,13.43,0c0-3.87,0-7.3,0-11
		c-13.43,0-26.66,0-39.93,0c0,3.8,0,7.33,0,11.14C213.01,128.61,217.21,128.61,222.03,128.61z M174.42,176.14
		c-4.44,0-8.59,0-12.81,0c0,15.77,0,31.28,0,46.91c11.51,0,22.78,0,34.1,0c0-3.79,0-7.3,0-11.28c-7.22,0-14.12,0-21.29,0
		C174.42,199.62,174.42,187.94,174.42,176.14z M214.31,223.1c0-15.96,0-31.47,0-46.99c-4.33,0-8.37,0-12.5,0
		c0,15.75,0,31.27,0,46.99C206.04,223.1,210.08,223.1,214.31,223.1z"/>
	<path d="M179.31,139.59c0-4.42,0-7.46,0-11.61c3.63,0.78,7.19,0.99,10.12,2.47c0.96,0.48,1.11,5.7,0.23,6.18
		C186.77,138.19,183.23,138.58,179.31,139.59z"/>
	<path d="M124.53,141.09c-0.05-7.57,4.25-12.54,10.82-12.52c6.46,0.02,10.81,4.87,10.87,12.14c0.07,7.57-4.21,12.68-10.67,12.75
		C128.98,153.55,124.57,148.6,124.53,141.09z"/>
	<path d="M234.53,199.64c0.01-7.55,4.38-12.56,10.91-12.49c6.33,0.07,10.76,5.12,10.79,12.31c0.04,7.51-4.33,12.63-10.8,12.67
		C238.9,212.17,234.53,207.16,234.53,199.64z"/>
	<path d="M130.82,212.12c-6.57,0.03-10.87-4.91-10.87-12.5c0-7.39,4.2-12.36,10.52-12.47c6.51-0.11,11.14,4.99,11.17,12.32
		C141.68,206.96,137.29,212.09,130.82,212.12z"/>
	<path d="M84.33,139.5c0-4.39,0-7.42,0-11.53c3.31,0.8,6.63,0.91,9.01,2.47c1.08,0.71,1.17,5.57,0.15,6.27
		C91.13,138.33,87.82,138.56,84.33,139.5z"/>
</g>
</svg>
