<?xml version="1.0" encoding="utf-8"?>
<!-- Generator: Adobe Illustrator 26.0.3, SVG Export Plug-In . SVG Version: 6.00 Build 0)  -->
<svg version="1.1" id="Layer_1" xmlns="http://www.w3.org/2000/svg" xmlns:xlink="http://www.w3.org/1999/xlink" x="0px" y="0px"
	 viewBox="0 0 270.86 318.74" style="enable-background:new 0 0 270.86 318.74;" xml:space="preserve">
<style type="text/css">
	.st0{display:none;}
	.st1{display:inline;opacity:0.05;}
	.st2{fill:#ED1C24;}
</style>
<g id="gRID" class="st0">
	<g class="st1">
		<g>
			<rect x="-2408.5" y="209.71" class="st2" width="5400" height="80"/>
			<rect x="-2408.5" y="49.71" class="st2" width="5400" height="80"/>
			<rect x="-2408.5" y="-110.29" class="st2" width="5400" height="80"/>
		</g>
	</g>
</g>
<g>
	<path d="M270.86,318.74c-90.39,0-180.5,0-270.86,0C0,212.49,0,106.41,0,0c58.2,0,116.47,0,175.14,0c0,31.58,0,63.19,0,95.33
		c32.09,0,63.8,0,95.72,0C270.86,170.01,270.86,244.16,270.86,318.74z M159.27,127.19c-34.72,0-69.06,0-103.83,0
		c0-29.42,0-58.4,0-87.43c-5.48,0-10.52,0-15.6,0c0,34.58,0,68.93,0,103.34c39.93,0,79.63,0,119.43,0
		C159.27,137.83,159.27,132.85,159.27,127.19z M215.14,215.54c-58.73,0-117.02,0-175.27,0c0,5.34,0,10.38,0,15.34
		c58.57,0,116.86,0,175.27,0C215.14,225.66,215.14,220.72,215.14,215.54z M215.15,255.38c-58.74,0-117.05,0-175.27,0
		c0,5.33,0,10.38,0,15.32c58.56,0,116.86,0,175.27,0C215.15,265.44,215.15,260.5,215.15,255.38z M151.12,175.49
		c-37.22,0-74.27,0-111.28,0c0,5.35,0,10.4,0,15.57c37.18,0,74.13,0,111.28,0C151.12,185.78,151.12,180.73,151.12,175.49z
		 M95.21,61.65c-9.75,9.64-19.2,19-28.14,27.84c3.43,3.59,6.98,7.32,10.61,11.12c5.47-5.47,11.08-10.97,16.53-16.62
		c1.67-1.73,2.85-2.06,4.97-0.56c6.11,4.31,12.48,8.23,18.6,12.53c2.06,1.45,3.24,1.3,4.98-0.46c10.15-10.31,20.4-20.52,30.68-30.7
		c1.13-1.12,2.66-1.85,3.71-2.56c-4.54-4.48-8.21-8.1-12.3-12.14c-8.69,8.71-17.64,17.69-26.73,26.79
		C110.42,71.77,102.65,66.6,95.21,61.65z"/>
	<path d="M191.56,79.1c0-24.67,0-49.15,0-73.05c24.3,24.29,48.79,48.78,73.06,73.05C240.91,79.1,216.46,79.1,191.56,79.1z"/>
</g>
</svg>
