<?xml version="1.0" encoding="utf-8"?>
<!-- Generator: Adobe Illustrator 26.0.3, SVG Export Plug-In . SVG Version: 6.00 Build 0)  -->
<svg version="1.1" id="Layer_1" xmlns="http://www.w3.org/2000/svg" xmlns:xlink="http://www.w3.org/1999/xlink" x="0px" y="0px"
	 viewBox="0 0 305.44 383.14" style="enable-background:new 0 0 305.44 383.14;" xml:space="preserve">
<style type="text/css">
	.st0{display:none;}
	.st1{display:inline;opacity:0.05;}
	.st2{fill:#ED1C24;}
</style>
<g id="gRID" class="st0">
	<g class="st1">
		<g>
			<rect x="-2391.21" y="241.91" class="st2" width="5400" height="80"/>
			<rect x="-2391.21" y="81.91" class="st2" width="5400" height="80"/>
			<rect x="-2391.21" y="-78.09" class="st2" width="5400" height="80"/>
		</g>
	</g>
</g>
<g>
	<path d="M21.75,0C95.1,0,168.46,0,241.82,0c0.19,0.15,0.36,0.38,0.58,0.45c14.63,4.37,21.13,13.02,21.13,28.16
		c0,37.93,0,75.85,0,113.78c0,1.41,0,2.83,0,3.97c-6.95-0.94-13.33-2.26-19.76-2.53c-6.44-0.27-13.03-0.12-19.37,0.95
		c-57.79,9.81-94.27,75.92-63.85,131.47c0.73,1.34,1.14,3.04,1.15,4.57c0.08,14.72,0.04,29.44,0.03,44.16c0,1.34,0,2.68,0,4.37
		c-1.31,0-2.28,0-3.25,0c-43.91,0-87.83,0-131.74-0.01c-1.49,0-3-0.06-4.47-0.31c-13.58-2.29-22.22-12.84-22.22-27.21
		C0.04,212.5,0.04,123.17,0.04,33.85c0-2.87-0.12-5.75,0.05-8.61C0.68,15.08,5.43,7.5,14.52,2.82C16.8,1.65,19.33,0.93,21.75,0z
		 M122.43,83.84c16.71,0,33.43-0.03,50.14,0.02c4.11,0.01,7.64-1.15,10.27-4.37c3.11-3.82,3.81-8.11,1.68-12.59
		c-2.32-4.88-6.37-7.04-11.77-7.03c-33.05,0.04-66.11,0.01-99.16,0.02c-8.25,0-13.7,4.84-13.65,12.05
		c0.05,7.16,5.53,11.89,13.84,11.89C90,83.84,106.21,83.84,122.43,83.84z M122.79,107.79c-16.46,0-32.93-0.01-49.39,0
		c-8,0.01-13.41,4.79-13.46,11.87c-0.05,7.07,5.4,12.07,13.29,12.07c33.05,0.02,66.1,0.02,99.16,0c7.9,0,13.34-5,13.28-12.07
		c-0.05-7.04-5.5-11.86-13.48-11.87C155.72,107.78,139.26,107.79,122.79,107.79z M101.98,179.65c9.6,0,19.21,0.03,28.81-0.01
		c7.59-0.04,12.98-5.09,12.96-12.02c-0.03-6.93-5.43-11.9-13.05-11.91c-19.21-0.03-38.41-0.02-57.62,0
		c-7.7,0.01-13.06,4.87-13.14,11.81c-0.08,7.07,5.37,12.1,13.23,12.13C82.77,179.67,92.37,179.65,101.98,179.65z"/>
	<path d="M239.66,167.67c36.32,0.03,65.85,29.69,65.78,66.04c-0.08,36.29-29.81,65.81-66.15,65.69
		c-36.13-0.12-65.58-29.7-65.58-65.88C173.71,197.19,203.3,167.64,239.66,167.67z M230.27,235.55c-2.98-1.94-5.7-3.89-8.58-5.56
		c-5.68-3.29-12.62-1.59-16.1,3.8c-3.42,5.28-2.35,12.24,2.87,15.99c6.17,4.42,12.5,8.62,18.94,12.64
		c5.39,3.36,12.08,2.2,15.65-2.99c8.46-12.3,16.73-24.75,24.82-37.3c3.15-4.89,1.93-10.7-2.3-14.6c-4.06-3.74-9.83-4.42-14.43-1.22
		c-1.97,1.37-3.55,3.46-4.94,5.48C240.86,219.59,235.66,227.48,230.27,235.55z"/>
	<path d="M185.68,305.82c36.15,23.47,71.69,23.44,107.57,0.15c0.08,0.98,0.21,1.89,0.21,2.81c0.01,20.33,0.03,40.65,0,60.98
		c-0.02,11.38-9.32,16.75-19.26,11.12c-10.51-5.95-21.03-11.91-31.44-18.05c-2.38-1.4-4.11-1.3-6.43,0.07
		c-10.31,6.06-20.72,11.95-31.12,17.84c-10.37,5.87-19.52,0.51-19.53-11.42c-0.02-19.95,0-39.9,0-59.86
		C185.68,308.37,185.68,307.28,185.68,305.82z"/>
</g>
</svg>
