<svg width="1438" height="812" viewBox="0 0 1438 812" fill="none" xmlns="http://www.w3.org/2000/svg">
<path d="M1441.5 175.499C-0.500122 -370.5 -82.0458 541.241 42 494.499C76.5 481.499 150.972 466.333 125 508.499C82.5 577.499 240.5 656.998 263.5 611.998C286.5 566.998 52.5 596.498 83.5 691.998C114.5 787.498 867.762 689.351 1036 722.998C1168.5 749.498 1253.5 684.498 1319 760.998" stroke="#2C2C2C" stroke-dasharray="12 12"/>
<path d="M1374.78 798.417C1367.86 793.489 1360.23 789.365 1353.07 784.758C1345.89 780.131 1338.77 775.4 1331.72 770.576C1331.07 770.13 1330.46 771.177 1331.11 771.621C1338.16 776.441 1345.28 781.168 1352.47 785.788C1359.59 790.361 1366.73 795.438 1374.29 799.263C1374.87 799.559 1375.3 798.785 1374.78 798.417Z" fill="black"/>
<path d="M1333.63 764.922C1333.64 764.932 1333.65 764.928 1333.65 764.918C1333.64 764.908 1333.63 764.912 1333.63 764.922Z" fill="black"/>
<path d="M1339.35 747.389C1337.75 749.403 1337.24 752.524 1336.43 754.931C1335.34 758.189 1334.25 761.449 1333.16 764.709C1333.05 765.045 1333.36 765.508 1333.75 765.468C1334.26 765.415 1334.45 765.362 1334.69 764.887C1334.97 764.337 1334.4 763.818 1333.86 764.071C1330.72 765.518 1327.72 767.181 1324.85 769.083C1325.13 769.297 1325.42 769.511 1325.7 769.725C1325.73 769.564 1325.76 769.404 1325.79 769.243C1325.84 768.954 1325.56 768.733 1325.29 768.867C1325.14 768.938 1325 769.01 1324.85 769.081C1324.19 769.404 1324.82 770.464 1325.44 770.061C1328.33 768.187 1331.33 766.533 1334.48 765.102C1334.2 764.83 1333.92 764.557 1333.64 764.286C1333.68 764.28 1333.72 764.276 1333.75 764.271C1333.94 764.523 1334.14 764.777 1334.34 765.03C1335.39 761.922 1336.44 758.814 1337.49 755.705C1338.33 753.234 1339.92 750.236 1339.86 747.601C1339.86 747.37 1339.52 747.174 1339.35 747.389Z" fill="black"/>
<path d="M1331.72 770.859C1330.65 770.117 1329.25 769.731 1328.03 769.295C1327.22 769.002 1325.98 768.183 1325.22 768.825C1325.16 768.875 1325.15 768.965 1325.16 769.038C1325.37 769.944 1326.78 770.042 1327.55 770.316C1328.79 770.762 1330.08 771.424 1331.39 771.643C1331.88 771.726 1332.13 771.148 1331.72 770.859Z" fill="black"/>
<path d="M1330.45 773.58C1328.58 772.582 1327.13 770.717 1325.55 769.338C1325.07 768.922 1324.39 769.579 1324.85 770.032C1325.86 771.025 1326.91 771.974 1327.96 772.927C1328.6 773.505 1329.31 774.374 1330.25 774.281C1330.6 774.244 1330.81 773.776 1330.45 773.58Z" fill="black"/>
<path d="M1331.52 770.964C1330.57 772.173 1330.22 773.679 1329.68 775.109C1328.96 776.989 1328.22 778.857 1327.44 780.712C1325.88 784.445 1324.16 788.115 1322.39 791.759C1322.1 792.366 1323.01 792.902 1323.33 792.292C1325.19 788.67 1326.89 784.971 1328.47 781.215C1329.16 779.562 1329.83 777.9 1330.47 776.227C1331.1 774.602 1332 772.924 1332.01 771.167C1332.02 770.941 1331.68 770.762 1331.52 770.964Z" fill="black"/>
<path d="M1373.83 798.305C1372.03 798.913 1368.69 797.775 1366.75 797.5C1364.81 797.224 1362.87 796.954 1360.93 796.681C1356.83 796.104 1352.73 795.528 1348.63 794.951C1344.55 794.376 1340.46 793.802 1336.38 793.228C1332.09 792.624 1327.6 791.622 1323.28 791.486C1322.74 791.469 1322.63 792.267 1323.15 792.399C1327.42 793.475 1332.02 793.74 1336.38 794.35C1340.93 794.987 1345.49 795.623 1350.05 796.261C1354.62 796.9 1359.19 797.541 1363.77 798.18C1365.97 798.489 1368.18 798.807 1370.39 799.084C1371.77 799.257 1372.97 799.644 1374.1 798.762C1374.32 798.597 1374.08 798.221 1373.83 798.305Z" fill="black"/>
<path d="M1374.65 797.945C1361.43 786.41 1347.96 775.26 1334.15 764.431C1333.59 763.995 1332.81 764.765 1333.37 765.206C1340.07 770.455 1346.86 775.604 1353.35 781.112C1360.22 786.945 1367.02 792.871 1373.92 798.665C1374.43 799.084 1375.15 798.383 1374.65 797.945Z" fill="black"/>
<path d="M1374.59 798.019C1372.16 793.325 1368.65 788.958 1365.68 784.57C1362.77 780.255 1359.84 775.945 1356.92 771.639C1354.04 767.407 1351.15 763.183 1348.19 759.005C1346.67 756.853 1345.13 754.71 1343.56 752.589C1342.42 751.032 1341.31 748.806 1339.69 747.706C1339.48 747.563 1339.17 747.633 1339 747.794C1338.96 747.834 1338.91 747.876 1338.87 747.916C1338.68 748.098 1338.68 748.376 1338.79 748.597C1338.81 748.641 1338.83 748.685 1338.85 748.729C1339.18 749.383 1340.16 748.814 1339.84 748.164C1339.82 748.585 1339.81 749.007 1339.79 749.428C1339.98 749.676 1340.17 749.924 1340.35 750.171C1340.66 750.693 1341.11 751.175 1341.47 751.661C1342.21 752.655 1342.95 753.653 1343.69 754.655C1345.24 756.784 1346.78 758.927 1348.3 761.081C1351.26 765.264 1354.15 769.489 1357.02 773.722C1359.78 777.778 1362.53 781.841 1365.29 785.892C1368.13 790.05 1370.73 794.638 1374.03 798.454C1374.31 798.774 1374.77 798.363 1374.59 798.019Z" fill="black"/>
</svg>
