<svg width="260" height="87" viewBox="0 0 260 87" fill="none" xmlns="http://www.w3.org/2000/svg">
<path d="M68.2134 46.891C70.1979 47.5525 72.2297 48.214 74.2142 48.9227C76.1987 49.6315 78.2305 50.3875 80.1677 51.1908C83.8533 52.7028 86.7356 55.1125 88.4366 58.6563C89.1453 56.7663 89.6651 54.7818 90.6101 52.9863C93.7286 46.891 98.4064 42.7802 105.352 41.5989C110.361 40.7484 115.18 41.5044 119.527 44.1032C124.678 47.1745 124.772 54.4038 119.811 57.6641C117.968 58.8453 115.936 58.7508 113.952 58.2783C112.818 58.0421 111.731 57.6168 110.597 57.3806C107.998 56.7663 106.061 57.8058 105.305 60.3574C104.549 63.0034 104.738 65.6021 106.534 67.8702C107.62 69.2877 109.227 69.7129 110.881 69.0514C112.204 68.4844 113.527 67.8702 114.897 67.3977C116.929 66.6417 118.866 66.9252 120.709 67.9647C121.087 68.1537 121.465 68.3899 121.937 68.7207C122.551 66.1219 123.118 63.6176 123.733 61.1134C126.001 51.3325 128.221 41.5044 130.537 31.7236C131.198 28.9358 132.616 26.6678 135.356 25.4865C138.522 24.1162 141.593 24.5888 144.192 26.6678C146.555 28.5578 147.5 31.2983 146.98 34.3223C146.555 36.8266 145.893 39.3309 145.373 41.7407C147.5 42.1187 149.579 42.3549 151.563 42.8747C156.335 44.1504 160.068 46.702 161.958 51.4743C162.384 52.6083 162.667 53.7895 163.045 54.9708C166.967 46.4657 173.204 41.3154 182.89 41.5989C191.962 41.8352 197.585 47.2217 201.412 55.0181C205.57 45.8515 212.469 40.6067 222.77 41.7407C232.692 42.8274 238.079 49.3952 241.008 58.6091C241.008 58.0893 241.008 57.5696 241.008 57.0026C241.056 56.4828 241.15 55.9158 241.15 55.3961C241.386 51.805 241.575 48.2612 241.859 44.6702C242.095 41.1264 242.284 37.5354 242.757 33.9916C243.371 29.1248 247.387 26.337 251.97 26.8568C256.601 27.3765 259.719 31.5818 259.247 36.2596C258.916 39.8034 258.727 43.2999 258.444 46.8437C258.018 52.7973 257.593 58.7508 257.168 64.6571C256.884 68.8624 256.648 73.115 256.27 77.3203C255.987 80.5805 254.333 83.0848 251.262 84.3133C248.143 85.5891 245.214 85.1638 242.615 83.0376C239.922 80.8168 239.402 77.7455 239.78 74.4852C239.827 74.1072 239.874 73.682 239.922 73.304C239.922 72.9732 239.922 72.6897 239.922 72.1227C235.764 81.3838 228.818 86.1088 218.801 85.4001C210.39 84.7858 205.003 79.8245 201.554 72.3117C196.971 82.2343 189.316 86.7704 178.496 85.1638C170.416 83.9826 163.801 77.0368 162.053 68.1064C160.966 72.2645 159.927 76.328 158.84 80.3915C157.989 83.5573 156.146 85.8726 152.886 86.6758C149.531 87.5264 146.555 86.7231 144.239 84.0298C142.16 81.62 142.066 78.785 142.727 75.8555C143.956 70.4689 145.184 65.0824 146.413 59.7431C146.744 58.2783 146.082 57.0498 144.759 56.6718C143.247 56.2466 141.924 56.9081 141.499 58.3728C140.979 60.3101 140.554 62.2946 140.129 64.2791C139.231 68.1064 138.522 71.981 137.435 75.761C135.593 82.1398 128.505 84.1243 123.591 79.6828C123.496 79.5883 123.355 79.4938 123.213 79.3993C117.732 84.3133 111.4 86.2979 104.218 84.6913C96.8944 83.0376 92.4529 78.029 89.7596 71.5557C88.8618 73.2567 88.1058 75.2885 86.9246 76.9895C83.617 81.6673 78.9865 84.3133 73.4109 85.1638C67.1266 86.1088 61.0786 85.0221 55.4085 82.1871C53.1405 81.053 52.0065 79.919 50.589 77.6983C50.2109 79.7773 49.3604 81.5728 47.8012 82.9903C43.0289 87.1956 35.5633 84.6913 34.2403 78.407C33.9568 77.1313 33.9095 75.8083 33.815 74.5325C33.4843 68.6262 33.2008 62.7199 32.9173 56.7663C32.87 55.8213 32.9173 54.829 32.9173 53.695C33.2008 54.0258 33.4843 54.3093 33.7205 54.5928C36.3666 57.7113 39.1543 60.5936 42.5564 62.8616C44.3991 64.0901 46.3837 65.0351 48.6044 65.3659C48.9824 65.4131 49.3604 65.3659 49.7857 65.3659C49.7857 65.0351 49.7857 64.7989 49.8329 64.5626C50.0219 63.4286 49.5967 62.9561 48.3682 62.7199C45.3442 62.1529 42.8871 60.4046 40.8081 58.2783C38.3038 55.7741 36.0358 53.0808 33.6733 50.4348C33.437 50.1513 33.248 49.8677 32.87 49.4425C32.87 50.9073 32.87 52.183 32.87 53.4588C28.2395 48.0722 24.743 42.0242 21.7662 35.6454C21.6717 35.5981 21.5299 35.5981 21.4354 35.5509C20.1597 38.8111 18.7421 41.9769 17.7026 45.2845C16.8521 47.9777 16.3796 50.8128 16.0016 53.6478C15.8126 55.1125 16.0489 56.6718 16.4269 58.1366C17.0411 60.5464 18.9311 61.4914 21.3409 61.0189C23.8452 60.5463 25.9715 59.3178 28.0977 57.9003C28.334 57.7586 28.5702 57.5696 28.8065 57.4278C29.5625 57.0498 30.1768 57.2861 30.602 57.9003C31.0273 58.5146 31.0273 59.2706 30.413 59.7431C27.5307 61.9166 24.5067 63.7121 20.8212 63.9484C16.6631 64.2791 13.7336 61.5859 13.1666 57.2388C12.5051 52.183 13.7336 47.458 15.4346 42.8274C16.7104 39.3309 18.4114 36.0234 19.8762 32.6213C20.0179 32.2433 20.1124 31.7708 19.9707 31.3928C19.0256 28.605 17.9861 25.8173 16.9466 22.8877C16.1906 23.0295 15.3874 23.2185 14.5369 23.4075C11.1348 24.3053 7.78004 25.3448 4.99226 27.66C2.39349 29.7863 2.20448 32.1961 4.66151 34.5586C6.03177 35.8344 7.68554 36.7794 9.19755 37.8189C10.1426 38.4804 10.4733 39.2836 9.90631 40.0869C9.48106 40.6539 8.8668 40.9374 8.20529 40.6067C5.41752 39.1891 2.77149 37.5826 1.07047 34.7949C-0.772295 31.7708 -0.205289 28.416 2.53524 25.8645C5.13401 23.4547 8.34704 22.179 11.7018 21.1395C13.1666 20.667 14.6786 20.3362 16.2379 19.911C15.9544 18.0209 15.6236 16.1782 15.4346 14.2882C15.1039 10.7444 15.0094 7.20059 16.6159 3.89305C18.4586 0.207517 21.1992 -0.406739 24.554 0.207517C27.4835 0.774523 29.8933 2.47554 32.1613 4.36556C32.87 4.97981 33.0118 5.73582 32.4448 6.49183C31.8305 7.24784 31.0745 7.15334 30.3185 6.63358C28.7592 5.64132 27.2 4.60181 25.5935 3.6568C25.0265 3.32605 24.3649 3.13705 23.7507 3.04254C21.0574 2.57004 19.3564 3.89305 18.6476 6.82258C17.8444 10.2246 18.2224 13.5794 18.7421 16.9342C18.7421 16.9814 18.7894 16.9814 18.7894 17.0287C19.3092 19.4857 19.3092 19.4857 21.7662 19.155C23.7507 18.9187 25.7352 18.7297 27.7197 18.6352C28.5702 18.5879 29.09 18.3517 29.6097 17.6902C32.5393 13.9574 35.7523 10.5081 39.4378 7.48409C42.5091 4.97981 45.8167 2.71179 49.7857 1.76678C54.0855 0.727272 57.5348 2.66454 58.716 6.96433C59.0468 8.05109 59.2358 9.23236 59.1885 10.3664C59.1413 12.2564 58.8578 14.1937 58.5743 16.0364C58.4325 17.1232 57.7238 17.5484 56.7315 17.3122C55.9283 17.1232 55.5503 16.3199 55.7393 15.3277C56.1645 12.9651 56.4008 10.6026 55.9283 8.2401C55.314 5.12157 53.424 3.9403 50.3055 4.64906C47.3287 5.35782 44.8244 7.01158 42.4146 8.85435C38.9653 11.4531 35.9413 14.5717 33.1535 17.9264C33.059 18.0682 32.9645 18.2099 32.7755 18.4462C34.382 18.5407 35.7996 18.6352 37.2643 18.6824C44.7771 19.155 52.1955 20.289 59.283 22.8877C63.2048 24.3053 66.8904 26.148 69.9616 29.1248C70.5286 29.6918 71.7572 29.5973 72.7022 29.7391C76.5767 30.2588 80.1205 31.5346 83.3335 33.7553C85.9796 35.6454 87.4443 38.7639 86.2158 42.5439C85.129 45.8515 82.3413 48.214 78.9392 48.1667C77.1437 48.1195 75.3482 47.458 73.5527 47.08C72.1824 46.7965 70.8121 46.513 69.4419 46.324C69.0639 46.2767 68.6386 46.4657 68.2134 46.513C68.2606 46.6547 68.2606 46.7492 68.2134 46.891ZM53.7547 57.8058C54.4635 58.4201 55.1722 59.0343 56.07 59.7903C57.582 52.0885 55.692 45.1427 53.5185 38.2441C53.3767 38.1969 53.2822 38.1969 53.1405 38.1496C52.7152 39.0946 52.29 40.0869 51.8647 41.0319C51.6285 40.7012 51.345 40.3704 51.2032 39.9924C50.3055 37.7716 49.4549 35.5036 48.6044 33.2828C48.1319 32.1488 47.6594 31.0148 47.1397 29.9281C46.6672 28.8413 46.8562 28.038 47.7067 27.6128C48.5099 27.2348 49.3132 27.5655 49.7857 28.605C50.589 30.3061 51.345 32.0071 52.0537 33.7553C52.5735 34.9366 53.046 36.1651 53.5657 37.4409C56.9205 33.2828 61.1258 30.8258 66.3706 29.8336C63.7246 27.7545 60.8896 26.4788 57.96 25.4865C49.3132 22.4625 40.2884 21.5175 31.2163 21.4702C30.791 21.4702 30.224 21.7537 29.9878 22.1317C27.9087 25.2503 25.8297 28.416 23.8452 31.5346C23.6562 31.8181 23.6562 32.3378 23.7979 32.5741C26.1132 36.9684 28.4285 41.3154 30.791 45.6625C31.358 46.702 32.114 47.647 32.681 48.4502C33.5315 46.891 34.382 45.4262 35.2326 43.9142C31.6415 40.6067 30.1295 35.0311 32.3503 33.2356C32.9173 35.9761 34.3348 37.2519 36.6501 37.2046C38.4928 37.1574 40.2411 35.6926 40.3356 33.8971C40.3829 32.9993 40.1939 31.9126 39.7686 31.1093C39.0126 29.5973 37.5006 29.172 35.8941 29.172C35.9413 29.0303 35.9413 28.983 35.9413 28.9358C36.0358 28.8413 36.0831 28.794 36.1776 28.7468C39.3433 27.1875 42.4146 27.3293 45.3914 29.3138C46.8562 30.3061 47.8484 31.7236 48.6989 33.2356C48.6989 33.3773 48.6989 33.5191 48.7462 33.6608C49.6912 36.3069 49.3132 38.7639 47.8957 41.1264C47.3759 41.9769 46.7144 42.7329 46.1002 43.5362C48.1319 45.1427 49.1242 47.3162 49.3604 49.7733C49.5494 51.6633 49.5022 53.506 49.6439 55.3961C49.7857 57.7113 49.9274 60.0738 50.0692 62.3891C51.3922 62.2474 52.0537 61.8694 52.7152 60.6408C53.0932 59.7903 53.3767 58.7981 53.7547 57.8058ZM50.0692 65.5076C50.1165 66.5944 50.211 67.5394 50.2582 68.4372C50.3055 69.3822 50.2582 70.3272 50.2582 71.2722C52.6207 66.9252 55.881 65.3659 60.6061 66.5472C62.8741 67.1142 65.0948 67.9647 67.3629 68.4372C68.5441 68.6734 69.8671 68.5317 71.0956 68.3427C71.5209 68.2482 71.9934 67.5394 72.1352 67.0197C72.1824 66.7834 71.6154 66.2637 71.2847 65.9801C71.0484 65.7911 70.7177 65.7439 70.3869 65.6021C65.5674 64.0429 60.5116 63.0506 56.2118 60.0738C55.0305 62.9561 53.3295 65.0824 50.0692 65.5076ZM224.612 64.1846C224.565 61.5386 224.093 59.8376 222.817 58.4673C221.258 56.8608 218.706 57.0971 217.714 59.0816C217.194 60.1684 216.816 61.3969 216.674 62.5781C216.485 64.7044 216.863 66.7834 218.375 68.4372C219.84 70.0437 222.108 69.9019 223.431 68.1537C224.471 66.7362 224.565 65.0824 224.612 64.1846ZM186.292 64.1846C186.292 61.7749 185.82 60.1683 184.827 58.8926C183.174 56.7191 180.528 57.0026 179.205 59.3178C178.118 61.3024 178.118 63.3341 178.59 65.4131C178.827 66.4999 179.441 67.6339 180.197 68.5317C181.52 70.0909 183.835 69.8074 185.064 68.2009C185.962 66.9252 186.198 65.4131 186.292 64.1846ZM66.9376 29.8336C67.2684 30.2588 67.4574 30.4951 67.5991 30.6841C70.1034 33.4246 70.0089 35.7399 67.1266 37.9606C65.6146 39.0946 63.8663 39.8507 62.1653 40.7957C61.5038 41.1737 60.9368 41.5517 61.2676 42.4022C61.5511 43.2527 62.2598 43.4889 63.0158 43.1582C65.8509 42.0714 68.4969 40.6539 70.4342 38.2441C72.2297 35.9761 72.3242 32.9521 70.6704 30.5896C70.4342 30.2588 70.0561 29.9281 69.6781 29.8808C68.8749 29.7863 68.0244 29.8336 66.9376 29.8336ZM26.5385 21.5647C24.2232 21.801 22.1442 22.0372 19.8762 22.2735C20.5849 24.447 21.2464 26.4315 21.9552 28.5578C23.5144 26.1953 24.932 23.9745 26.5385 21.5647Z" fill="#2C2C2C"/>
<path d="M51.8174 40.9854C52.4317 43.7259 53.1877 46.5137 53.6602 49.3014C54.1327 52.1365 54.4635 55.0187 53.7547 57.8538C51.6757 55.9165 50.6834 53.4122 50.2582 50.7189C49.7857 47.7422 50.1164 44.7654 51.1087 41.8831C51.2504 41.5524 51.5812 41.2689 51.8174 40.9854Z" fill="#2C2C2C"/>
<path d="M36.2249 36.167C37.9211 36.167 39.2962 34.7919 39.2962 33.0957C39.2962 31.3995 37.9211 30.0244 36.2249 30.0244C34.5287 30.0244 33.1536 31.3995 33.1536 33.0957C33.1536 34.7919 34.5287 36.167 36.2249 36.167Z" fill="#FD7D00"/>
</svg>
