<svg width="26" height="33" viewBox="0 0 26 33" fill="none" xmlns="http://www.w3.org/2000/svg">
<path d="M1.83604 0C8.0276 0 14.22 0 20.4124 0C20.4284 0.0126617 20.4428 0.0320763 20.4614 0.037985C21.6963 0.406862 22.245 1.13702 22.245 2.415C22.245 5.61672 22.245 8.81759 22.245 12.0193C22.245 12.1383 22.245 12.2582 22.245 12.3544C21.6583 12.2751 21.1198 12.1637 20.577 12.1409C20.0334 12.1181 19.4771 12.1307 18.942 12.2211C14.0638 13.0491 10.9845 18.6296 13.5523 23.3186C13.6139 23.4317 13.6485 23.5752 13.6494 23.7044C13.6561 24.9469 13.6528 26.1894 13.6519 27.432C13.6519 27.5451 13.6519 27.6582 13.6519 27.8008C13.5413 27.8008 13.4595 27.8008 13.3776 27.8008C9.67108 27.8008 5.96374 27.8008 2.25725 27.8C2.13148 27.8 2.00402 27.7949 1.87993 27.7738C0.733628 27.5805 0.00431496 26.69 0.00431496 25.477C0.00347085 17.9374 0.00347085 10.3969 0.00347085 2.85732C0.00347085 2.61506 -0.00665849 2.37195 0.00769141 2.13054C0.057494 1.27292 0.458447 0.633084 1.22574 0.23804C1.4182 0.139278 1.63176 0.0785024 1.83604 0ZM10.3346 7.07703C11.7451 7.07703 13.1564 7.0745 14.5669 7.07872C14.9139 7.07957 15.2118 6.98165 15.4338 6.70985C15.6964 6.38739 15.7554 6.02527 15.5756 5.64711C15.3798 5.23518 15.0379 5.05285 14.5821 5.0537C11.7923 5.05707 9.0017 5.05454 6.21191 5.05539C5.51552 5.05539 5.05548 5.46394 5.0597 6.07254C5.06392 6.67693 5.52649 7.07619 6.22795 7.07619C7.5971 7.07703 8.96541 7.07703 10.3346 7.07703ZM10.3649 9.09868C8.97554 9.09868 7.58528 9.09784 6.19588 9.09868C5.52059 9.09953 5.06392 9.50301 5.0597 10.1006C5.05548 10.6974 5.51552 11.1195 6.18153 11.1195C8.97132 11.1212 11.7611 11.1212 14.5517 11.1195C15.2186 11.1195 15.6778 10.6974 15.6727 10.1006C15.6685 9.50639 15.2085 9.09953 14.5349 9.09868C13.1446 9.09784 11.7552 9.09868 10.3649 9.09868ZM8.60835 15.1645C9.4187 15.1645 10.2299 15.167 11.0402 15.1636C11.6809 15.1603 12.1359 14.734 12.1342 14.149C12.1317 13.564 11.6758 13.1445 11.0326 13.1437C9.4111 13.1411 7.7904 13.142 6.16886 13.1437C5.5189 13.1445 5.06645 13.5548 5.0597 14.1406C5.05295 14.7374 5.51299 15.1619 6.17646 15.1645C6.98681 15.1662 7.79716 15.1645 8.60835 15.1645Z" fill="#2C2C2C"/>
<path d="M20.23 14.1533C23.2959 14.1559 25.7885 16.6595 25.7826 19.7278C25.7759 22.7911 23.2663 25.2829 20.1988 25.2728C17.149 25.2627 14.6631 22.7658 14.6631 19.7118C14.6631 16.6451 17.1609 14.1508 20.23 14.1533ZM19.4374 19.8832C19.1859 19.7194 18.9563 19.5548 18.7132 19.4138C18.2337 19.1361 17.6479 19.2796 17.3542 19.7346C17.0655 20.1803 17.1558 20.7678 17.5964 21.0843C18.1172 21.4574 18.6516 21.812 19.1952 22.1513C19.6501 22.4349 20.2149 22.337 20.5162 21.8989C21.2303 20.8606 21.9284 19.8097 22.6113 18.7504C22.8772 18.3376 22.7742 17.8472 22.4171 17.518C22.0744 17.2023 21.5874 17.1449 21.1991 17.415C21.0328 17.5306 20.8994 17.707 20.7821 17.8775C20.3313 18.536 19.8924 19.202 19.4374 19.8832Z" fill="#2C2C2C"/>
<path d="M15.6736 25.8145C18.725 27.7956 21.725 27.7931 24.7537 25.8271C24.7604 25.9098 24.7714 25.9867 24.7714 26.0643C24.7723 27.7804 24.7739 29.4956 24.7714 31.2117C24.7697 32.1723 23.9847 32.6256 23.1457 32.1504C22.2585 31.6481 21.3705 31.145 20.4918 30.6267C20.2909 30.5086 20.1448 30.517 19.949 30.6326C19.0787 31.1442 18.2 31.6414 17.3221 32.1385C16.4468 32.634 15.6744 32.1816 15.6736 31.1746C15.6719 29.4906 15.6736 27.8066 15.6736 26.1217C15.6736 26.0297 15.6736 25.9377 15.6736 25.8145Z" fill="#2C2C2C"/>
</svg>
