<?xml version="1.0" encoding="utf-8"?>
<!-- Generator: Adobe Illustrator 26.0.3, SVG Export Plug-In . SVG Version: 6.00 Build 0)  -->
<svg version="1.1" id="Layer_1" xmlns="http://www.w3.org/2000/svg" xmlns:xlink="http://www.w3.org/1999/xlink" x="0px" y="0px"
	 viewBox="0 0 1860.6 1622" style="enable-background:new 0 0 1860.6 1622;" xml:space="preserve">
<style type="text/css">
	.st0{fill:#1955CC;}
	.st1{fill:#EFEFEF;}
	.st2{fill:url(#SVGID_1_);}
	.st3{fill:#54504F;}
	.st4{fill:#969696;}
	.st5{fill:#C9C9C9;}
	.st6{fill:#E3E3E3;}
	.st7{fill:#FFFFFF;}
	.st8{fill:#FFD799;}
</style>
<g id="Layer_3">
</g>
<path class="st0" d="M1648.1,905.1c-0.2,0-0.3,0-0.5,0c-2.2-0.3-3.7-2.3-3.5-4.5l67-522c15.5-120.9-48.8-235.7-160-285.5
	c-2-0.9-2.9-3.3-2-5.3s3.3-2.9,5.3-2c54.1,24.2,100.1,66,129.7,117.7c30.7,53.6,42.8,114.6,34.9,176.1l-67,522
	C1651.8,903.7,1650.1,905.1,1648.1,905.1z"/>
<path class="st0" d="M1518.8,80.8c-0.4,0-0.8-0.1-1.1-0.2c-20.1-6-41-9.7-62.2-10.9c-2.2-0.1-3.9-2-3.8-4.2s2-3.9,4.2-3.8
	c21.8,1.3,43.3,5.1,64,11.3c2.1,0.6,3.3,2.9,2.7,5C1522.1,79.7,1520.5,80.8,1518.8,80.8z"/>
<path class="st0" d="M139.8,288.6c-2.2,0-4-1.8-4-4c-0.3-39.9,7.5-78.5,23.3-114.7c15.2-34.9,36.9-66,64.7-92.3
	c27.7-26.3,59.9-46.5,95.5-59.8c37-13.9,76-19.7,115.8-17.3l910.3,54.6c2.2,0.1,3.9,2,3.8,4.2s-2,3.9-4.2,3.8L434.6,8.5
	c-76.7-4.6-149.6,22-205.4,74.9c-55.7,52.9-86.1,124.3-85.5,201.2C143.8,286.8,142.1,288.6,139.8,288.6L139.8,288.6z"/>
<path class="st0" d="M146.8,1178c-2.2,0-4-1.8-4-4l-5.7-721c0-2.2,1.8-4,4-4c2.2-0.1,4,1.8,4,4l5.7,721
	C150.9,1176.2,149.1,1178,146.8,1178C146.9,1178,146.8,1178,146.8,1178z"/>
<path class="st0" d="M1326.2,1508.3c-5.8,0-11.5-0.2-17.3-0.5l-795.1-47.7c-2.2-0.1-3.9-2-3.8-4.2s2-3.9,4.2-3.8l795.1,47.7
	c39.8,2.4,78.8-3.7,115.7-18.1c2.1-0.8,4.4,0.2,5.2,2.3c0.8,2.1-0.2,4.4-2.3,5.2C1395.3,1501.9,1361.1,1508.3,1326.2,1508.3z"/>
<path class="st1" d="M1264.5,1409.1h225c20.3,0,36.8-16.5,36.8-36.8v-225.8c0-20.3-16.5-36.8-36.8-36.8h-225
	c-20.3,0-36.8,16.5-36.8,36.8v225.8C1227.7,1392.6,1244.2,1409.1,1264.5,1409.1z"/>
<linearGradient id="SVGID_1_" gradientUnits="userSpaceOnUse" x1="732.9998" y1="643.8475" x2="997.0001" y2="1279.8472" gradientTransform="matrix(1 0 0 -1 0 1622)">
	<stop  offset="5.376340e-03" style="stop-color:#E3E3E3"/>
	<stop  offset="1" style="stop-color:#FFFFFF"/>
</linearGradient>
<path class="st2" d="M1284.5,531.8c2.6-204.1-160.1-370.4-364.2-372.1c-44.4,0.4-86.9,8.5-126.1,23.2c-11.8,4.4-23.4,9.4-34.6,15
	c-122.3,60.8-205.3,187.6-203.5,333.8c1.2,95.3,38.6,181.8,99.2,246.4c1,1,1.9,2,2.9,3l-2.9-3c2.4,2.5,4.7,4.9,7.1,7.3
	c0.2,0.2,0.5,0.5,0.7,0.7c0,0,0,0,0.1,0.1c0.3,0.3,0.6,0.6,0.9,0.9c0.7,0.7,1.4,1.4,2.2,2.1l-0.4-0.5c0.2,0.2,0.3,0.3,0.5,0.5
	c38.4,37.7,59.4,89.5,58.2,143.3c0,0.8,0,15.3,0,16c0,0.2,0,0.5,0,0.7c0,0.5,0,0.9,0,1.4c0,107.7,84.5,181.1,191.1,185.2h4.8h4.8
	c106.6-4.1,191.1-77.6,191.1-185.2c0-0.5,0-0.9,0-1.4c0-0.2,0-0.5,0-0.7c0-0.8,0-15.3,0-16c-1.2-53.8,19.8-105.6,58.2-143.3
	c0.2-0.2,0.3-0.3,0.5-0.5l-0.4,0.5c0.7-0.7,1.4-1.4,2.2-2.1c0.3-0.3,0.6-0.6,0.9-0.9c0,0,0,0,0.1-0.1c0.2-0.2,0.5-0.5,0.7-0.7
	c2.4-2.4,4.8-4.8,7.1-7.3l-2.9,3c1-1,1.9-2,2.9-3C1245.9,713.5,1283.3,627,1284.5,531.8z"/>
<path class="st3" d="M935.1,1140h-9.6c-0.1,0-0.1,0-0.2,0c-53.6-2.1-102.7-21.6-138.1-54.9c-18-16.9-32-36.7-41.6-59
	c-10.1-23.2-15.2-48.6-15.2-75.4c0-0.5,0-0.9,0-1.4c0-0.2,0-0.4,0-0.6v-0.1c0-0.6,0-15.3,0-16.1c1.2-52.5-19.6-103.6-56.9-140.2
	c-0.1-0.1-0.1-0.1-0.2-0.2c-0.7-0.7-1.5-1.4-2.2-2.2l-0.8-0.8l-0.1-0.1l-0.7-0.8c-2.5-2.5-4.9-4.9-7.2-7.3c-0.2-0.2-0.4-0.4-0.5-0.6
	c-63.2-67.7-98.6-156-99.8-248.6c-0.8-63.8,14.7-126.8,44.8-182.2c29.2-53.8,71.7-99.9,122.9-133.5c1.8-1.2,4.3-0.7,5.5,1.2
	c1.2,1.8,0.7,4.3-1.2,5.5C629.7,291,568.3,406.5,569.9,531.6c1.1,90.8,36,177.4,98.1,243.7c0.9,1,1.9,2,2.8,2.9
	c0.1,0.1,0.3,0.3,0.4,0.5c1.2,1.3,2.5,2.6,3.8,3.9l0.6,0.6c0.1,0,0.1,0.1,0.1,0.1l0.9,0.9c0.5,0.5,1,1,1.5,1.5
	c0.1,0.1,0.1,0.1,0.2,0.2l0.5,0.5c38.9,38.2,60.6,91.5,59.4,146.2c0,0.7,0,14.8,0,16v0.5c0,0.1,0,0.2,0,0.3c0,0.4,0,0.8,0,1.3
	c0,100.8,78.7,177,187.2,181.2h9.5c108.5-4.2,187.2-80.4,187.2-181.2c0-0.4,0-0.9,0-1.3c0-0.1,0-0.2,0-0.4v-0.4c0-1.2,0-15.3,0-16
	c-1.2-54.7,20.4-108,59.4-146.2l0.5-0.5c0.1-0.1,0.1-0.1,0.2-0.2c0.5-0.5,1-1,1.5-1.5l0.9-0.9c0.1-0.1,0.1-0.1,0.2-0.1l0.6-0.6
	c1.3-1.3,2.6-2.6,3.8-3.8c0.1-0.2,0.2-0.3,0.4-0.4c1-1,1.9-2,2.9-3c62.1-66.3,97-152.9,98.1-243.7c0-2.2,1.9-4,4-3.9
	c2.2,0,4,1.8,3.9,4c-1.2,92.6-36.6,180.9-99.8,248.6c-0.1,0.2-0.3,0.4-0.5,0.6c-2.3,2.4-4.6,4.8-7.2,7.3l-0.7,0.7
	c0,0-0.1,0.1-0.2,0.2l-0.8,0.8c-0.7,0.7-1.4,1.4-2.2,2.2c-0.1,0.1-0.1,0.1-0.2,0.2c-37.3,36.7-58,87.8-56.9,140.2
	c0,0.9,0,15.5,0,16.1v0.1c0,0.2,0,0.4,0,0.6c0,0.5,0,0.9,0,1.4c0,26.8-5.1,52.1-15.2,75.4c-9.7,22.3-23.7,42.1-41.6,59
	C1037.7,1118.5,988.6,1138,935.1,1140C935.2,1140,935.2,1140,935.1,1140z"/>
<path class="st3" d="M1164,249.8c-0.9,0-1.8-0.3-2.6-0.9c-64.4-54.2-146.5-84.5-231.2-85.2c-26.1,0.2-52.1,3.2-77.3,8.9
	c-2.2,0.5-4.3-0.9-4.8-3c-0.5-2.2,0.9-4.3,3-4.8c25.8-5.8,52.4-8.8,79.1-9c44.2,0.4,87.3,8.3,128.1,23.7
	c39.5,14.8,75.9,36.2,108.2,63.4c1.7,1.4,1.9,3.9,0.5,5.6C1166.3,249.3,1165.2,249.8,1164,249.8z"/>
<path class="st4" d="M724.4,1047.9v17.5c0,108.2,87.7,195.9,195.9,195.9l0,0c2.4,0,4.8-0.1,7.3-0.1v-213.3H724.4z"/>
<path class="st5" d="M927.6,1047.9v213.3c104.8-3.8,188.6-90,188.6-195.7V1048H927.6V1047.9z"/>
<path class="st3" d="M930.3,1265.3c-110.2,0-199.9-89.7-199.9-199.9v-17.5c0-2.2,1.8-4,4-4h391.8c2.2,0,4,1.8,4,4v17.5
	C1130.2,1175.6,1040.5,1265.3,930.3,1265.3z M738.4,1051.9v13.5c0,105.8,86.1,191.9,191.9,191.9l0,0c105.8,0,191.9-86.1,191.9-191.9
	v-13.5H738.4z"/>
<path class="st5" d="M721.4,932.6c-10.5,0-19,8.5-19,19v184c0,10.5,8.5,19,19,19h206.1v-222H721.4z"/>
<path class="st6" d="M1119.2,932.6H927.6v222h191.6c10.5,0,19-8.5,19-19v-184C1138.2,941.1,1129.7,932.6,1119.2,932.6z"/>
<path class="st3" d="M1129.2,1158.6H731.4c-12.7,0-23-10.3-23-23v-184c0-12.7,10.3-23,23-23h397.8c12.7,0,23,10.3,23,23v184
	C1152.2,1148.3,1141.9,1158.6,1129.2,1158.6z M731.4,936.6c-8.3,0-15,6.7-15,15v184c0,8.3,6.7,15,15,15h397.8c8.3,0,15-6.7,15-15
	v-184c0-8.3-6.7-15-15-15H731.4z"/>
<g>
	<path class="st4" d="M696.2,967.7c-9.2,0.7-16.3,7.7-16.3,16.1c0,9.4,8.9,16.9,19.3,16.1l200.4-15.1v-32.4L696.2,967.7z"/>
	<path class="st5" d="M1141.5,934.1l-241.9,18.2v32.4l244.9-18.5c9.2-0.7,16.3-7.7,16.3-16.1
		C1160.8,940.7,1151.9,933.3,1141.5,934.1z"/>
</g>
<g>
	<path class="st4" d="M696.2,1121c-9.2,0.7-16.3,7.7-16.3,16.1c0,9.4,8.9,16.9,19.3,16.1l200.4-15.1v-32.4L696.2,1121z"/>
	<path class="st5" d="M1141.5,1087.4l-241.9,18.2v32.4l244.9-18.5c9.2-0.7,16.3-7.7,16.3-16.1l0,0
		C1160.8,1094.1,1151.9,1086.7,1141.5,1087.4z"/>
</g>
<g>
	<path class="st4" d="M696.2,1044.3c-9.2,0.7-16.3,7.7-16.3,16.1l0,0c0,9.4,8.9,16.9,19.3,16.1l200.4-15.1V1029L696.2,1044.3z"/>
	<path class="st5" d="M1141.5,1010.8L899.6,1029v32.4l244.9-18.5c9.2-0.7,16.3-7.7,16.3-16.1l0,0
		C1160.8,1017.4,1151.9,1010,1141.5,1010.8z"/>
</g>
<g>
	<path class="st3" d="M707.6,1003.9c-5.8,0-11.3-2.1-15.4-5.9c-4.1-3.8-6.3-8.8-6.3-14.2c0-10.4,8.8-19.2,20-20.1
		c2.2-0.2,4.1,1.5,4.3,3.7s-1.5,4.1-3.7,4.3c-7.1,0.5-12.6,5.8-12.6,12.1c0,3.1,1.3,6.1,3.8,8.3c2.9,2.7,7,4.1,11.2,3.8l445.3-33.6
		c7.1-0.5,12.6-5.8,12.6-12.1c0-2.2,1.8-4,4-4s4,1.8,4,4c0,10.4-8.8,19.2-20,20.1l-445.3,33.6
		C708.8,1003.8,708.2,1003.9,707.6,1003.9z"/>
</g>
<g>
	<path class="st3" d="M707.6,1157.2c-5.8,0-11.3-2.1-15.4-5.9c-4.1-3.8-6.3-8.8-6.3-14.2c0-10.4,8.8-19.2,20-20.1
		c2.2-0.2,4.1,1.5,4.3,3.7s-1.5,4.1-3.7,4.3c-7.1,0.5-12.6,5.8-12.6,12.1c0,3.1,1.3,6.1,3.8,8.3c2.9,2.7,7,4.1,11.2,3.8l445.3-33.6
		c7.1-0.5,12.6-5.8,12.6-12.1c0-2.2,1.8-4,4-4s4,1.8,4,4c0,10.4-8.8,19.2-20,20.1l-445.3,33.6
		C708.8,1157.2,708.2,1157.2,707.6,1157.2z"/>
</g>
<g>
	<path class="st3" d="M707.6,1080.5c-5.8,0-11.3-2.1-15.4-5.9c-4.1-3.8-6.3-8.8-6.3-14.2c0-10.4,8.8-19.2,20-20.1
		c2.2-0.2,4.1,1.5,4.3,3.7s-1.5,4.1-3.7,4.3c-7.1,0.5-12.6,5.8-12.6,12.1c0,3.1,1.3,6.1,3.8,8.3c2.9,2.7,7,4.1,11.2,3.8l445.3-33.6
		c7.1-0.5,12.6-5.8,12.6-12.1c0-2.2,1.8-4,4-4s4,1.8,4,4c0,10.4-8.8,19.2-20,20.1l-445.3,33.6
		C708.8,1080.5,708.2,1080.5,707.6,1080.5z"/>
</g>
<g>
	<ellipse class="st5" cx="1452.1" cy="1184.3" rx="14.2" ry="14.2"/>
	<circle class="st5" cx="1362.1" cy="1184.3" r="14.2"/>
	<ellipse class="st5" cx="1272" cy="1184.5" rx="14.2" ry="14.2"/>
	<ellipse class="st5" cx="1181.9" cy="1184.3" rx="14.2" ry="14.2"/>
	<ellipse class="st5" cx="1452.1" cy="1274.6" rx="14.2" ry="14.2"/>
	<circle class="st5" cx="1362.1" cy="1274.4" r="14.2"/>
	<ellipse class="st5" cx="1272" cy="1274.4" rx="14.2" ry="14.2"/>
	<ellipse class="st5" cx="1181.9" cy="1274.6" rx="14.2" ry="14.2"/>
	<ellipse class="st5" cx="1452.2" cy="1364.5" rx="14.2" ry="14.2"/>
	<circle class="st5" cx="1362.1" cy="1364.5" r="14.2"/>
	<ellipse class="st5" cx="1272.1" cy="1364.5" rx="14.2" ry="14.2"/>
	<ellipse class="st5" cx="1182" cy="1364.5" rx="14.2" ry="14.2"/>
	<ellipse class="st5" cx="1452.1" cy="1274.6" rx="14.2" ry="14.2"/>
	<circle class="st5" cx="1362.1" cy="1274.4" r="14.2"/>
	<ellipse class="st5" cx="1272" cy="1274.4" rx="14.2" ry="14.2"/>
	<ellipse class="st5" cx="1181.9" cy="1274.6" rx="14.2" ry="14.2"/>
	<ellipse class="st5" cx="1452.1" cy="1454.5" rx="14.2" ry="14.2"/>
	<circle class="st5" cx="1362.1" cy="1454.5" r="14.2"/>
	<ellipse class="st5" cx="1272" cy="1454.7" rx="14.2" ry="14.2"/>
	<ellipse class="st5" cx="1181.9" cy="1454.5" rx="14.2" ry="14.2"/>
</g>
<path class="st7" d="M1162.5,263.4L910.3,515.6L785.6,390.9c-41.8-41.8-109.5-41.8-151.3,0l0,0c-41.8,41.8-41.8,109.5,0,151.3
	l200.4,200.4c41.8,41.8,109.5,41.8,151.3,0l75.7-75.7l252.2-252.2c41.8-41.8,41.8-109.5,0-151.3l0,0
	C1272.1,221.6,1204.3,221.6,1162.5,263.4z"/>
<g>
	<g>
		<polygon class="st5" points="205.4,1618 243,1618 276.3,1356.9 238.7,1356.9 		"/>
		<polygon class="st5" points="542.5,1618 504.9,1618 471.6,1356.9 509.2,1356.9 		"/>
	</g>
	<g>
		<path class="st3" d="M253,1622c-0.2,0-0.3,0-0.5,0c-2.2-0.3-3.7-2.3-3.5-4.5l32.7-256.6h-33.1c-2.2,0-4-1.8-4-4s1.8-4,4-4h37.6
			c1.1,0,2.2,0.5,3,1.4s1.1,2,1,3.1L257,1618.5C256.7,1620.5,255,1622,253,1622z"/>
		<path class="st3" d="M552.5,1622c-2,0-3.7-1.5-4-3.5l-32.8-257.6h-34.1c-2.2,0-4-1.8-4-4s1.8-4,4-4h37.6c2,0,3.7,1.5,4,3.5
			l33.3,261.1c0.3,2.2-1.3,4.2-3.5,4.5C552.8,1622,552.7,1622,552.5,1622z"/>
	</g>
	<polygon class="st6" points="394.3,1618 356.7,1618 471.6,1356.9 509.2,1356.9 	"/>
	<polygon class="st6" points="161.4,1618 123.8,1618 238.7,1356.9 276.3,1356.9 	"/>
	<path class="st3" d="M404.3,1622h-37.6c-1.4,0-2.6-0.7-3.4-1.8s-0.9-2.6-0.3-3.8l115-261.1c0.6-1.5,2.1-2.4,3.7-2.4h37.6
		c1.4,0,2.6,0.7,3.4,1.8s0.9,2.6,0.3,3.8l-114.9,261.1C407.3,1621.1,405.9,1622,404.3,1622z M372.8,1614h28.9l111.4-253.1h-28.9
		L372.8,1614z"/>
	<path class="st3" d="M171.4,1622h-37.6c-1.4,0-2.6-0.7-3.4-1.8s-0.9-2.6-0.3-3.8L245,1355.3c0.6-1.5,2.1-2.4,3.7-2.4h37.6
		c1.4,0,2.6,0.7,3.4,1.8s0.9,2.6,0.3,3.8l-115,261.1C174.4,1621.1,173,1622,171.4,1622z M139.9,1614h28.9l111.4-253.1h-28.9
		L139.9,1614z"/>
	<g>
		<polygon class="st0" points="371.8,1220.2 459,1220.2 434.9,1017 347.6,1017 		"/>
		<rect x="364.5" y="1220.2" class="st0" width="107.7" height="29.5"/>
		<path class="st3" d="M469,1224.2h-87.3c-2,0-3.7-1.5-4-3.5l-24.2-203.2c-0.1-1.1,0.2-2.3,1-3.1c0.8-0.9,1.8-1.3,3-1.3h87.3
			c2,0,3.7,1.5,4,3.5l24.2,203.2c0.1,1.1-0.2,2.3-1,3.1C471.3,1223.7,470.2,1224.2,469,1224.2z M385.3,1216.2h79.2L441.3,1021h-79.2
			L385.3,1216.2z"/>
		<path class="st3" d="M482.2,1253.7H374.6c-2.2,0-4-1.8-4-4v-29.5c0-2.2,1.8-4,4-4h107.7c2.2,0,4,1.8,4,4v29.5
			C486.2,1251.9,484.5,1253.7,482.2,1253.7z M378.6,1245.7h99.7v-21.5h-99.7L378.6,1245.7L378.6,1245.7z"/>
		
			<rect x="223" y="1153.9" transform="matrix(0.6669 -0.7452 0.7452 0.6669 -817.1184 577.8892)" class="st0" width="29.5" height="97.9"/>
		<g>
			<path class="st0" d="M279.5,1220.5l68.4-80.1c6.6-7.8,10.6-17.5,11.2-27.8l8.3-95.6h-86.6l-3.3,75.4l-60.9,71.9L279.5,1220.5z"/>
		</g>
		<path class="st3" d="M274.4,1250.5c-0.9,0-1.9-0.3-2.7-1l-73-65.3c-0.8-0.7-1.3-1.7-1.3-2.8c-0.1-1.1,0.3-2.1,1-2.9l19.7-22
			c1.5-1.6,4-1.8,5.6-0.3l73,65.3c0.8,0.7,1.3,1.7,1.3,2.8c0.1,1.1-0.3,2.1-1,2.9l-19.7,22C276.6,1250.1,275.5,1250.5,274.4,1250.5z
			 M207.1,1180.9l67,60l14.3-16l-67-60L207.1,1180.9z"/>
		<g>
			<path class="st3" d="M289.5,1224.5c-1,0-1.9-0.4-2.7-1l-62.8-56.2c-1.6-1.4-1.8-3.9-0.4-5.6l60-70.8l3.2-74.1
				c0.1-2.1,1.9-3.8,4-3.8h86.6c2.2,0,4,1.8,4,4s-1.8,4-4,4h-82.7l-3.1,71.6c0,0.9-0.4,1.7-0.9,2.4l-58.4,68.9l56.8,50.9l65.7-77
				c6-7.1,9.7-16.1,10.3-25.4l5.7-65.9c0.2-2.2,2.1-3.8,4.3-3.6c2.2,0.2,3.8,2.1,3.6,4.3L373,1113c-0.7,10.9-5,21.6-12.1,30
				l-68.4,80.1c-0.7,0.8-1.7,1.3-2.8,1.4C289.7,1224.5,289.6,1224.5,289.5,1224.5z"/>
		</g>
		<g>
			<path class="st4" d="M181.7,1196.8c1.6,1.4,2.5,3.5,2.5,5.6c-0.1,10.5,4.2,20.9,12.6,28.4c7,6.2,15.6,9.4,24.2,9.6
				c6.1,0.2,12.1,2.3,16.6,6.4l0.1,0.1c2.7,2.4,4.9,5.5,6.4,8.8l7.2,16.7c7.3,16.9,4.1,36.5-8.2,50.3l0,0l-102.4-91.6l30.3-33.8
				C173.8,1194.2,178.6,1194,181.7,1196.8L181.7,1196.8z"/>
			<path class="st3" d="M253.1,1326.8c-1,0-1.9-0.4-2.7-1L148,1234.2c-0.8-0.7-1.3-1.7-1.3-2.8c-0.1-1.1,0.3-2.1,1-2.9l30.3-33.8
				c4.3-4.8,11.6-5.2,16.4-0.9l0,0c2.5,2.2,3.9,5.4,3.9,8.6c-0.1,9.7,4.1,19,11.3,25.4c6,5.3,13.7,8.4,21.7,8.6
				c7.2,0.2,14,2.8,19.2,7.4l0.1,0.1c3.1,2.8,5.7,6.4,7.4,10.2l7.2,16.7c7.8,18.3,4.3,39.7-8.9,54.5c-0.7,0.8-1.7,1.3-2.8,1.3
				C253.3,1326.8,253.2,1326.8,253.1,1326.8z M156.4,1230.9l96.3,86.2c9.1-12.3,11.1-28.7,5-42.9l-7.2-16.7
				c-1.2-2.8-3.1-5.4-5.3-7.4l-0.1-0.1c-3.7-3.3-8.7-5.3-14.1-5.4c-9.9-0.3-19.4-4-26.8-10.7c-8.9-8-14-19.4-13.9-31.4
				c0-1-0.4-1.9-1.2-2.6l0,0c-1.5-1.3-3.8-1.2-5.1,0.3L156.4,1230.9z"/>
			<g>
				<path class="st3" d="M258.3,1276.4c-1.5,0-2.9-0.8-3.6-2.2c-1-2-0.2-4.4,1.7-5.4c6.9-3.5,9.7-12.1,6.2-19c-1-2-0.2-4.4,1.8-5.4
					s4.4-0.2,5.4,1.8c5.5,10.9,1.2,24.2-9.7,29.8C259.5,1276.3,258.9,1276.4,258.3,1276.4z"/>
				<path class="st3" d="M282.7,1284.4c-1.5,0-2.9-0.8-3.6-2.2c-1.7-3.4-4.6-5.9-8.2-7s-7.4-0.9-10.8,0.8c-2,1-4.4,0.2-5.4-1.7
					c-1-2-0.2-4.4,1.7-5.4c5.3-2.7,11.3-3.2,16.9-1.3c5.6,1.8,10.2,5.7,12.9,11c1,2,0.2,4.4-1.7,5.4
					C283.9,1284.2,283.3,1284.4,282.7,1284.4z"/>
			</g>
		</g>
		<g>
			<path class="st4" d="M384.1,1269.8c2.2,0,4.2,0.9,5.6,2.5c6.9,7.8,17.1,12.8,28.4,12.8c9.3,0,17.9-3.4,24.5-9
				c4.7-4,10.5-6.3,16.7-6.3h0.2c3.7,0,7.3,0.8,10.6,2.4l16.5,7.7c16.7,7.8,27.4,24.5,27.4,43l0,0H376.5v-45.4
				C376.5,1273.2,379.9,1269.8,384.1,1269.8L384.1,1269.8z"/>
			<path class="st3" d="M524,1326.8H386.5c-2.2,0-4-1.8-4-4v-45.4c0-6.4,5.2-11.6,11.6-11.6c3.3,0,6.5,1.4,8.6,3.9
				c6.4,7.3,15.7,11.4,25.4,11.4c8,0,15.8-2.9,21.9-8c5.5-4.7,12.3-7.3,19.3-7.3h0.2c4.2,0,8.5,0.9,12.3,2.7l16.5,7.7
				c18,8.4,29.7,26.7,29.7,46.6C528,1325,526.2,1326.8,524,1326.8z M390.5,1318.8h129.2c-1.4-15.2-10.9-28.8-24.9-35.3l-16.5-7.7
				c-2.8-1.3-5.9-2-8.9-2h-0.2c-5,0-10,1.9-14.1,5.4c-7.5,6.4-17.2,9.9-27.1,9.9c-12,0-23.4-5.1-31.3-14.1c-0.7-0.7-1.6-1.2-2.6-1.2
				c-2,0-3.6,1.6-3.6,3.6V1318.8z"/>
			<g>
				<path class="st3" d="M495.7,1288.5c-0.6,0-1.2-0.1-1.8-0.4c-2-1-2.8-3.4-1.8-5.4c3.5-7,0.6-15.5-6.3-18.9c-2-1-2.8-3.4-1.8-5.4
					s3.4-2.8,5.4-1.8c10.9,5.4,15.4,18.8,9.9,29.7C498.5,1287.7,497.1,1288.5,495.7,1288.5z"/>
				<path class="st3" d="M495.7,1288.5c-0.6,0-1.2-0.1-1.8-0.4c-2-1-2.8-3.4-1.8-5.4c2.6-5.3,7.2-9.2,12.8-11.1
					c5.6-1.9,11.6-1.5,16.9,1.2c2,1,2.8,3.4,1.8,5.4s-3.4,2.8-5.4,1.8c-3.4-1.7-7.2-1.9-10.8-0.8c-3.6,1.2-6.5,3.7-8.2,7.1
					C498.5,1287.7,497.1,1288.5,495.7,1288.5z"/>
			</g>
		</g>
		<g>
			<path class="st8" d="M454.4,852.2L489,843c5.7-1.5,10.5-5.3,13.6-10.5l58.8-100.3c6.7-11.4,3.4-26.5-7.4-33.8
				c-10.8-7.3-10.1-29.1-16.8-17.7L468.4,798l-25.1,6.7"/>
		</g>
		<g>
			<path class="st3" d="M443.1,808.6c-1.8,0-3.4-1.2-3.9-3c-0.6-2.1,0.7-4.3,2.8-4.9l23.5-6.3l68.2-115.9c1.1-1.9,3.6-2.5,5.5-1.4
				s2.5,3.6,1.4,5.5l-69,117.3c-0.5,0.9-1.4,1.6-2.4,1.8l-25.1,6.7C443.8,808.6,443.5,808.6,443.1,808.6z"/>
			<path class="st3" d="M454.2,856.2c-1.8,0-3.4-1.2-3.9-3c-0.6-2.1,0.7-4.3,2.8-4.9l34.5-9.2c4.7-1.2,8.7-4.3,11.2-8.7l58.8-100.3
				c1.1-1.9,3.6-2.5,5.5-1.4s2.5,3.6,1.4,5.5l-58.8,100.3c-3.7,6.2-9.4,10.6-16.1,12.4l-34.5,9.2
				C454.9,856.2,454.6,856.2,454.2,856.2z"/>
		</g>
		<g>
			<path class="st7" d="M414.5,875.5l41-11L438.3,791l-68.1,15.3l-34.5,3.3L280,815c-17,1.6-33,9.7-44.9,22.9L203,873l49.3,44.4
				l18.9-15.2l9.7,114.8h153.9l-15.5-107.5l0.6-3.3C421.7,895.6,419.8,884.7,414.5,875.5z"/>
		</g>
		<g>
			<path class="st3" d="M444.9,1021h-154c-2.1,0-3.8-1.6-4-3.7l-9-107.3l-13,10.5c-1.5,1.2-3.7,1.2-5.2-0.1L210.3,876
				c-0.8-0.7-1.3-1.7-1.3-2.8s0.3-2.1,1-2.9l32.1-35.2c12.6-13.8,29.5-22.4,47.5-24.1l89.9-8.7l67.8-15.3c2.1-0.5,4.3,0.9,4.8,3
				l17.2,73.5c0.5,2.1-0.8,4.2-2.9,4.8l-36.3,9.8c4,9,5.2,19,3.6,28.8l-0.5,2.7l15.4,106.8c0.2,1.1-0.2,2.3-0.9,3.2
				C447.1,1020.5,446,1021,444.9,1021z M294.6,1013h145.6l-14.8-102.9c-0.1-0.4-0.1-0.8,0-1.2l0.6-3.3c1.6-9.6-0.2-19.6-5-28.1
				c-0.6-1.1-0.7-2.4-0.2-3.5s1.5-2,2.7-2.3l37.3-10l-15.4-65.9l-64.2,14.4c-0.2,0-0.3,0.1-0.5,0.1l-90.2,8.7
				c-16,1.5-31.1,9.2-42.3,21.6l-29.4,32.2l43.8,39.4l16.2-13.1c1.2-0.9,2.7-1.1,4.1-0.6c1.4,0.6,2.3,1.9,2.4,3.3L294.6,1013z"/>
		</g>
		<path class="st8" d="M284.5,669.1c25.6-18.4,63.2-10,83.9,18.9c3.3,4.5,15.7,12.2,17.7,17.1c2.8,6.8-5.2,10.9-4.7,17.8
			c0.3,4.1,0.3,8.1-0.2,12.1l-23.7,1.6l20.6,11.7c-3.5,10-9.8,18.8-18.7,25.2c-25.6,18.4-63.2,10-83.9-18.9
			C255,725.8,258.9,687.5,284.5,669.1z"/>
		<path class="st3" d="M338.8,787.2c-4.6,0-9.2-0.5-13.9-1.6c-16.8-3.8-31.9-14-42.5-28.7c-22-30.6-17.6-71.4,9.8-91.1
			c13.3-9.6,30-12.8,47-8.9c16.8,3.8,31.9,14,42.5,28.7c1.1,1.5,4.3,4.1,7.1,6.4c4.9,4,9.5,7.8,11.1,11.5c2.3,5.5-0.3,10-2.2,13.2
			c-1.2,2.1-2.3,3.9-2.2,5.8c0.4,4.2,0.3,8.6-0.2,12.9c-0.2,1.9-1.8,3.4-3.7,3.6l-10.4,0.7l9.1,5.2c1.7,1,2.4,3,1.8,4.8
			c-3.9,11.1-10.9,20.4-20.2,27.1C362.2,783.6,350.8,787.2,338.8,787.2z M325.3,663.3c-10.3,0-20.2,3.1-28.4,9
			c-23.8,17.1-27.3,52.9-8,79.9c9.4,13.1,22.8,22.2,37.7,25.6c14.7,3.3,29.1,0.6,40.6-7.6c7.1-5.1,12.6-12,16.1-20.2l-17.6-10
			c-1.5-0.9-2.3-2.6-1.9-4.4c0.4-1.7,1.9-3,3.6-3.1l20.2-1.4c0.1-2.7,0.1-5.4-0.1-8c-0.4-4.4,1.6-7.8,3.3-10.5c1.8-3,2.4-4.3,1.7-6
			c-0.8-1.9-5.6-5.8-8.8-8.4c-3.5-2.9-6.8-5.5-8.5-7.9c-9.4-13.1-22.8-22.2-37.7-25.6C333.3,663.8,329.3,663.3,325.3,663.3z
			 M391.3,734.9L391.3,734.9L391.3,734.9z"/>
		<path class="st4" d="M334.2,625.8c-80.4,20.1-111,66.6-101.3,119.7c0.5,2.8,1.2,5.6,1.9,8.4l-0.1-0.1l17.3,61.6l37.3,4.1
			c23.6,2.6,42.3-19.5,35.9-42.4l-24.4-87C353.5,682.6,357.1,620.1,334.2,625.8z"/>
		<path class="st3" d="M303,823.7c-1.4,0-2.7-0.1-4.1-0.2l-37.3-4.1c-1.6-0.2-3-1.3-3.4-2.9L240.9,755c-0.1-0.3-0.1-0.5-0.1-0.8
			c-0.7-2.8-1.3-5.4-1.7-7.9c-5.2-28.3,0.9-54.3,17.6-75.4c17.9-22.5,47-39,86.6-48.9l0,0c5.3-1.3,10,0,13.4,3.8
			c5.7,6.4,6.6,19,2.1,31.5c-6.7,18.5-22.5,31.8-42.8,36.1l23.2,82.7c3.4,12,0.6,24.9-7.5,34.4C324.4,818.9,313.9,823.7,303,823.7z
			 M265.1,811.8l34.7,3.8c9.9,1.1,19.3-2.7,25.7-10.3c6.4-7.6,8.6-17.5,5.9-27.1l-24.4-87c-0.3-1.1-0.1-2.3,0.5-3.3s1.6-1.6,2.8-1.8
			c28.1-4.1,38-23.5,40.9-31.7c3.9-10.7,2.7-19.9-0.5-23.4c-0.9-1-2.4-2.2-5.5-1.4c-72.6,18.1-108.4,60.1-98.3,115.1
			c0.5,2.6,1.1,5.2,1.8,8.2c0,0.2,0.1,0.4,0.1,0.6L265.1,811.8z"/>
		<path class="st3" d="M424.5,879.5c-1.3,0-2.6-0.7-3.4-1.9l-13.3-21.3c-1.2-1.9-0.6-4.3,1.3-5.5s4.3-0.6,5.5,1.3l13.3,21.3
			c1.2,1.9,0.6,4.3-1.3,5.5C426,879.3,425.2,879.5,424.5,879.5z"/>
		<g>
			<g>
				<path class="st8" d="M194.1,908.2l24.9-29l35,31.5l-11.5,12.8l40.5,50c8.2,10.1,6.6,24.8-3.5,33c-3.7,3-8.1,4.7-12.5,5.1
					c-7.6,0.7-15.4-2.2-20.5-8.6l-52.6-65C186.9,929.3,186.9,916.8,194.1,908.2z"/>
				<g>
					<path class="st3" d="M282.8,977.5c-1.2,0-2.3-0.5-3.1-1.5l-40.5-50c-1.2-1.5-1.2-3.8,0.2-5.2l11.7-12.8c1.5-1.6,4-1.7,5.7-0.2
						c1.6,1.5,1.7,4,0.2,5.7l-9.4,10.3l38.3,47.3c1.4,1.7,1.1,4.2-0.6,5.6C284.6,977.2,283.7,977.5,282.8,977.5z"/>
					<path class="st3" d="M246.3,1007c-1.2,0-2.3-0.5-3.1-1.5l-52.6-65c-8.2-10.2-8.1-24.8,0.3-34.9l25.2-29.1
						c1.4-1.7,4-1.9,5.6-0.4c1.7,1.4,1.9,4,0.4,5.6l-25.1,29c-5.9,7.1-6,17.5-0.1,24.7l52.6,65c1.4,1.7,1.1,4.2-0.6,5.6
						C248.1,1006.7,247.2,1007,246.3,1007z"/>
				</g>
				<g>
					<path class="st8" d="M301.6,1057.3l4,6.6c2.7,4.5,8.6,5.9,13,3.1c3.9-2.4,5.4-7.1,4-11.2c-0.2-0.6-0.5-1.3-0.9-1.8l-4.1-6.5
						h0.1c2.7,4.5,8.6,5.9,13,3.2c3.9-2.4,5.4-7.1,4-11.2c-0.2-0.6-0.5-1.3-0.9-1.8l-11.8-18.6c2.4,1.4,5.2,1.5,7.7,0.7
						c2.1-0.7,4-2.2,5.1-4.3c2.5-4.5,0.9-10.3-3.6-12.8l-47.7-28.3l-37.3,28.7l39.1,64.2c2.4,3.9,7.1,5.4,11.2,4
						c0.6-0.2,1.3-0.5,1.8-0.9C302.9,1067.6,304.3,1061.8,301.6,1057.3z"/>
				</g>
				<g>
					<path class="st3" d="M293.6,1075.7c-4.6,0-9.1-2.4-11.5-6.4l-39.1-64.2c-1.1-1.9-0.6-4.3,1.3-5.5c1.9-1.1,4.3-0.5,5.5,1.3
						l39.1,64.2c1.3,2.2,4,3.2,6.4,2.3c0.4-0.1,0.7-0.3,1.1-0.5c2.6-1.6,3.4-4.9,1.8-7.5c-1.2-1.9-0.6-4.3,1.3-5.5s4.3-0.6,5.5,1.3
						l0,0l0,0l4,6.6c1.6,2.6,4.9,3.4,7.5,1.8c2.2-1.3,3.2-4,2.3-6.5c-0.1-0.4-0.3-0.7-0.5-1.1l-4.1-6.5c-0.6-0.9-0.7-2-0.5-3
						s0.9-1.9,1.8-2.5s2-0.8,3.1-0.5c1,0.2,2,0.9,2.5,1.8c0.8,1.2,2,2.1,3.4,2.5c1.4,0.3,2.9,0.1,4.1-0.6c2.2-1.3,3.2-4,2.3-6.5
						c-0.1-0.4-0.3-0.7-0.5-1.1l-11.7-18.6c-1-1.5-0.8-3.6,0.5-4.9c1.3-1.3,3.3-1.6,4.9-0.7c1.4,0.8,2.9,0.9,4.4,0.4
						c1.3-0.4,2.3-1.3,3-2.5c1.5-2.6,0.5-5.9-2.1-7.4l-47.8-28.3c-1.9-1.1-2.5-3.6-1.4-5.5s3.6-2.5,5.5-1.4l47.7,28.3
						c6.4,3.6,8.7,11.8,5.1,18.2c-1.6,2.9-4.2,5.1-7.3,6.1c-0.4,0.1-0.8,0.3-1.2,0.4l7.4,11.6c0.5,0.9,1,1.8,1.3,2.7
						c2,5.9-0.4,12.6-5.7,15.9c-1.9,1.1-3.9,1.8-6,1.9c1.3,5.6-1.2,11.5-6.1,14.5c-5.1,3.1-11.4,2.4-15.7-1.2
						c-1.1,1.8-2.6,3.3-4.5,4.5c-0.8,0.5-1.7,0.9-2.6,1.2C296.5,1075.5,295,1075.7,293.6,1075.7z"/>
				</g>
			</g>
			<path class="st3" d="M262.3,921.4c-1,0-1.9-0.3-2.7-1L210.3,876c-0.8-0.7-1.3-1.7-1.3-2.8c-0.1-1.1,0.3-2.1,1-2.9l32.1-35.2
				c1.5-1.6,4-1.7,5.7-0.3c1.6,1.5,1.7,4,0.3,5.7l-29.4,32.2l46.3,41.7c1.6,1.5,1.8,4,0.3,5.6C264.5,920.9,263.4,921.4,262.3,921.4z
				"/>
		</g>
		<g>
			<path class="st8" d="M542.5,695.3l-20.5,9.8l-16.6-34.7c-2.7-5.7-0.3-12.4,5.3-15.2l0,0c5.7-2.7,12.4-0.3,15.2,5.3L542.5,695.3z"
				/>
			<path class="st3" d="M522,709.1c-1.5,0-2.9-0.8-3.6-2.3l-16.6-34.7c-3.7-7.6-0.4-16.8,7.2-20.5c3.7-1.8,7.9-2,11.7-0.6
				c3.9,1.4,7,4.1,8.8,7.8l16.6,34.7c1,2,0.1,4.4-1.9,5.3c-2,1-4.4,0.1-5.3-1.9l-16.6-34.7c-0.9-1.8-2.3-3.1-4.2-3.8
				s-3.9-0.5-5.6,0.3c-3.7,1.8-5.2,6.2-3.5,9.8l16.6,34.7c1,2,0.1,4.4-1.9,5.3C523.2,709,522.6,709.1,522,709.1z"/>
			<path class="st0" d="M571.9,541.8l-156.5,63.4c-4.1,1.7-8.8-0.3-10.4-4.4l-17.4-42.9c-1.7-4.1,0.3-8.8,4.4-10.4L548.5,484
				c4.1-1.7,8.8,0.3,10.4,4.4l17.4,42.9C578,535.5,576,540.1,571.9,541.8z"/>
			<path class="st3" d="M534,652.9c-1.6,0-3.1-0.9-3.7-2.5l-20-49.4c-0.7-1.8-0.1-3.8,1.5-4.9l85.3-54.9l-12.2-30.1l-6.1,2.5
				c-2,0.8-4.4-0.2-5.2-2.2s0.2-4.4,2.2-5.2l9.8-4c1-0.4,2.1-0.4,3.1,0s1.7,1.2,2.1,2.2l15,36.9c0.7,1.8,0.1,3.8-1.5,4.9L519,601.1
				l18.7,46.3c0.8,2-0.2,4.4-2.2,5.2C535,652.8,534.5,652.9,534,652.9z"/>
			
				<rect x="543.3" y="644.6" transform="matrix(0.9269 -0.3754 0.3754 0.9269 -223.7378 260.4187)" class="st6" width="26.3" height="119.7"/>
			<path class="st3" d="M566.7,768.8c-1.6,0-3.1-0.9-3.7-2.5l-44.9-111c-0.8-2,0.2-4.4,2.2-5.2l24.4-9.9c2-0.8,4.4,0.2,5.2,2.2
				l44.9,111c0.4,1,0.4,2.1,0,3.1s-1.2,1.7-2.2,2.1l-24.4,9.9C567.7,768.7,567.2,768.8,566.7,768.8z M527,656.1l41.9,103.6l16.9-6.9
				l-41.9-103.6L527,656.1z"/>
			<path class="st8" d="M583.1,729.3l-29.4,11.5c-5.4,2.1-11.5-0.6-13.6-6l-14.5-37c-2.1-5.4,0.6-11.5,6-13.6l29.4-11.5
				c5.4-2.1,11.5,0.6,13.6,6l14.5,37C591.2,721.1,588.5,727.2,583.1,729.3z"/>
			<path class="st3" d="M550,745.5c-5.8,0-11.3-3.5-13.5-9.2l-14.5-37c-2.9-7.4,0.8-15.9,8.2-18.8l29.4-11.5
				c7.5-2.9,15.9,0.8,18.8,8.2l14.5,37c2.9,7.5-0.8,15.9-8.2,18.8l-29.4,11.5C553.5,745.2,551.7,745.5,550,745.5z M564.8,676
				c-0.8,0-1.6,0.1-2.4,0.4L533,687.9c-3.3,1.3-5,5.1-3.7,8.4l14.5,37c1.3,3.3,5.1,5,8.4,3.7l29.4-11.5l0,0c3.3-1.3,5-5.1,3.7-8.4
				l-14.5-37C569.9,677.6,567.4,676,564.8,676z"/>
			<path class="st3" d="M422.1,609.8c-1.6,0-3.2-0.3-4.7-1c-3-1.2-5.2-3.6-6.4-6.5l-17.4-42.9c-2.5-6.1,0.5-13.1,6.6-15.6
				l156.5-63.4c6.1-2.5,13.1,0.5,15.6,6.6l17.4,42.9c2.5,6.1-0.5,13.1-6.6,15.6l0,0l-156.5,63.4
				C425.2,609.5,423.7,609.8,422.1,609.8z M561.3,487.4c-0.5,0-1,0.1-1.5,0.3l-156.5,63.4c-2,0.8-3,3.2-2.2,5.2l17.4,42.9
				c0.4,1,1.2,1.8,2.1,2.2s2.1,0.4,3.1,0L580.2,538c2-0.8,3-3.2,2.2-5.2L565,489.9C564.4,488.4,562.9,487.4,561.3,487.4z
				 M581.7,541.8L581.7,541.8L581.7,541.8z"/>
		</g>
	</g>
	<path class="st5" d="M518.5,1356.9H229.4c-9.4,0-17.1-7.6-17.1-17.1l0,0c0-9.4,7.6-17.1,17.1-17.1h289.1c9.4,0,17.1,7.6,17.1,17.1
		l0,0C535.6,1349.3,527.9,1356.9,518.5,1356.9z"/>
	<path class="st5" d="M480.4,1448.4H191.3c-9.4,0-17.1-7.6-17.1-17.1l0,0c0-9.4,7.6-17.1,17.1-17.1h289.1c9.4,0,17.1,7.6,17.1,17.1
		l0,0C497.5,1440.8,489.8,1448.4,480.4,1448.4z"/>
	<path class="st5" d="M442.3,1539.9H153.2c-9.4,0-17.1-7.6-17.1-17.1l0,0c0-9.4,7.6-17.1,17.1-17.1h289.1c9.4,0,17.1,7.6,17.1,17.1
		l0,0C459.4,1532.3,451.7,1539.9,442.3,1539.9z"/>
	<path class="st3" d="M528.5,1360.9H239.4c-11.6,0-21.1-9.4-21.1-21.1c0-11.6,9.4-21.1,21.1-21.1h289.1c11.6,0,21.1,9.4,21.1,21.1
		S540.1,1360.9,528.5,1360.9z M239.4,1326.8c-7.2,0-13.1,5.9-13.1,13.1s5.9,13.1,13.1,13.1h289.1c7.2,0,13.1-5.9,13.1-13.1
		s-5.9-13.1-13.1-13.1H239.4z"/>
	<path class="st3" d="M490.4,1452.4H201.3c-11.6,0-21.1-9.4-21.1-21.1c0-11.6,9.4-21.1,21.1-21.1h289.1c11.6,0,21.1,9.4,21.1,21.1
		C511.5,1443,502,1452.4,490.4,1452.4z M201.3,1418.3c-7.2,0-13.1,5.9-13.1,13.1s5.9,13.1,13.1,13.1h289.1c7.2,0,13.1-5.9,13.1-13.1
		s-5.9-13.1-13.1-13.1H201.3z"/>
	<path class="st3" d="M452.3,1543.9H163.2c-11.6,0-21.1-9.4-21.1-21.1c0-11.6,9.4-21.1,21.1-21.1h289.1c11.6,0,21.1,9.4,21.1,21.1
		S463.9,1543.9,452.3,1543.9z M163.2,1509.8c-7.2,0-13.1,5.9-13.1,13.1s5.9,13.1,13.1,13.1h289.1c7.2,0,13.1-5.9,13.1-13.1
		s-5.9-13.1-13.1-13.1H163.2z"/>
</g>
<g>
	<path class="st0" d="M1338.9,384.6l-252.2,252.2l-75.7,75.7c-41.8,41.8-109.5,41.8-151.3,0L659.3,512.2c-8-8-14.5-17-19.5-26.6
		l108.1-134.7L628,439.5c0-1,0-2,0-3c0-27.4,10.5-54.8,31.3-75.7c41.8-41.8,109.6-41.8,151.3,0l92.3,92.3l-68.8,85.7l87-67.5
		l14.3,14.3l252.2-252.3c20.9-20.9,48.3-31.3,75.7-31.3s54.8,10.4,75.7,31.3C1380.7,275.1,1380.7,342.8,1338.9,384.6z"/>
</g>
<path class="st3" d="M930.3,777.9c-28.4,0-56.9-10.8-78.5-32.5c-1.6-1.6-1.6-4.1,0-5.7c1.6-1.6,4.1-1.6,5.7,0
	c40.2,40.2,105.5,40.2,145.7,0l327.9-327.9c40.2-40.2,40.2-105.5,0-145.7c-1.6-1.6-1.6-4.1,0-5.7s4.1-1.6,5.7,0
	c43.3,43.3,43.3,113.7,0,157l-327.9,327.9C987.2,767.1,958.7,777.9,930.3,777.9z"/>
<path class="st3" d="M818.7,710.7c-1,0-2-0.4-2.8-1.2L651.4,545c-43.3-43.3-43.3-113.7,0-157s113.7-43.3,157,0l121.9,122
	l249.4-249.4c28.8-28.8,71-39.5,110.1-27.9c2.1,0.6,3.3,2.9,2.7,5s-2.9,3.3-5,2.7c-36.3-10.7-75.4-0.8-102.2,25.9L933.1,518.4
	c-1.6,1.6-4.1,1.6-5.7,0L802.7,393.7c-40.2-40.2-105.5-40.2-145.7,0s-40.2,105.5,0,145.7l164.5,164.5c1.6,1.6,1.6,4.1,0,5.7
	C820.8,710.4,819.8,710.7,818.7,710.7z"/>
<g>
	<g>
		<g>
			<path class="st4" d="M1592.9,1568c2,0,4,0.9,5.3,2.4c6.5,7.4,16.1,12.1,26.8,12.1c8.8,0,16.9-3.2,23.1-8.5c4.4-3.8,9.9-6,15.7-6
				h0.2c3.5,0,6.9,0.8,10,2.2l15.6,7.2c15.8,7.3,25.9,23.2,25.9,40.6l0,0h-129.8v-42.8C1585.7,1571.2,1588.9,1568,1592.9,1568
				L1592.9,1568z"/>
			<path class="st3" d="M1726.2,1622h-129.8c-2.2,0-4-1.8-4-4v-42.8c0-6.2,5-11.2,11.2-11.2c3.2,0,6.2,1.4,8.3,3.7
				c6,6.8,14.7,10.7,23.8,10.7c7.5,0,14.8-2.7,20.5-7.5c5.2-4.5,11.8-6.9,18.3-6.9h0.2c4,0,8.1,0.9,11.7,2.6l15.6,7.2
				c17.1,8,28.2,25.3,28.2,44.2C1730.2,1620.2,1728.4,1622,1726.2,1622z M1600.5,1614H1722c-1.4-14.2-10.3-26.8-23.3-32.9l-15.6-7.2
				c-2.6-1.2-5.5-1.8-8.4-1.8h-0.2c-4.7,0-9.4,1.8-13.2,5c-7.2,6.1-16.3,9.4-25.7,9.4c-11.4,0-22.2-4.9-29.8-13.4
				c-0.6-0.7-1.4-1-2.3-1c-1.8,0-3.2,1.4-3.2,3.2v38.7H1600.5z"/>
		</g>
		<g>
			<path class="st3" d="M1679.5,1587.6c-0.6,0-1.2-0.1-1.8-0.4c-2-1-2.8-3.4-1.8-5.4l9.3-18.4c1-2,3.4-2.8,5.4-1.8s2.8,3.4,1.8,5.4
				l-9.3,18.4C1682.3,1586.8,1680.9,1587.6,1679.5,1587.6z"/>
			<path class="st3" d="M1695.5,1594.3c-0.6,0-1.2-0.1-1.8-0.4c-2-1-2.8-3.4-1.8-5.4l9.3-18.4c1-2,3.4-2.8,5.4-1.8s2.8,3.4,1.8,5.4
				l-9.3,18.4C1698.4,1593.5,1697,1594.3,1695.5,1594.3z"/>
		</g>
	</g>
	<g>
		<g>
			<path class="st4" d="M1545.6,1568c-2,0-4,0.9-5.3,2.4c-6.5,7.4-16.1,12.1-26.8,12.1c-8.8,0-16.9-3.2-23.1-8.5
				c-4.4-3.8-9.9-6-15.7-6h-0.2c-3.5,0-6.9,0.8-10,2.2l-15.6,7.2c-15.8,7.3-25.9,23.2-25.9,40.6l0,0h129.8v-42.8
				C1552.8,1571.2,1549.6,1568,1545.6,1568L1545.6,1568z"/>
			<path class="st3" d="M1563.5,1622h-129.8c-2.2,0-4-1.8-4-4c0-18.9,11.1-36.2,28.2-44.2l15.6-7.2c3.6-1.7,7.7-2.6,11.7-2.6h0.2
				c6.6,0,13.1,2.5,18.3,6.9c5.7,4.9,13,7.5,20.5,7.5c9.1,0,17.8-3.9,23.8-10.7c2.1-2.4,5.1-3.7,8.3-3.7c6.2,0,11.2,5,11.2,11.2
				v42.8C1567.5,1620.2,1565.7,1622,1563.5,1622z M1437.9,1614h121.6v-38.8c0-1.8-1.4-3.2-3.2-3.2c-0.9,0-1.8,0.4-2.3,1
				c-7.5,8.5-18.4,13.4-29.8,13.4c-9.4,0-18.5-3.4-25.7-9.4c-3.8-3.2-8.5-5-13.2-5h-0.2c-2.9,0-5.8,0.6-8.4,1.8l-15.6,7.2
				C1448.2,1587.2,1439.4,1599.8,1437.9,1614z"/>
		</g>
		<g>
			<path class="st3" d="M1478.6,1587.6c-1.5,0-2.9-0.8-3.6-2.2l-9.3-18.4c-1-2-0.2-4.4,1.8-5.4s4.4-0.2,5.4,1.8l9.3,18.4
				c1,2,0.2,4.4-1.8,5.4C1479.8,1587.4,1479.2,1587.6,1478.6,1587.6z"/>
			<path class="st3" d="M1462.5,1594.3c-1.5,0-2.9-0.8-3.6-2.2l-9.3-18.4c-1-2-0.2-4.4,1.8-5.4s4.4-0.2,5.4,1.8l9.3,18.4
				c1,2,0.2,4.4-1.8,5.4C1463.7,1594.1,1463.1,1594.3,1462.5,1594.3z"/>
		</g>
	</g>
	<g>
		<path class="st8" d="M1274.8,973.3l-6.3-5.4c-4.3-3.7-4.8-10.1-1.1-14.4c3.2-3.7,8.5-4.6,12.6-2.3c0.6,0.3,1.2,0.8,1.8,1.3
			l6.3,5.5l0.1-0.1c-4.3-3.7-4.8-10.1-1.1-14.4c3.2-3.7,8.5-4.6,12.6-2.3c0.6,0.3,1.2,0.8,1.8,1.3l17.8,15.8c-1-2.8-0.7-5.8,0.6-8.3
			c1.1-2.1,3-3.8,5.5-4.7c5.3-1.9,11.1,0.8,13,6.1l25.1,66.5l-7.9,19.8l-28.5,9.7l-18.2-16.3l-47.4-42c-3.7-3.2-4.6-8.5-2.3-12.6
			c0.3-0.6,0.8-1.2,1.3-1.8C1264,970.1,1270.5,969.6,1274.8,973.3z"/>
	</g>
	<g>
		<path class="st8" d="M1459.4,1135.4l-55.6-6.7c-6.3-0.7-12.1-3.8-16.3-8.9l-64.5-78.1c-9.1-11-8.1-27.6,2.1-37.2
			c10.3-9.6,25.9-8.5,35,2.5l58,70.2l45.1,5.6"/>
	</g>
	<g>
		<path class="st3" d="M1463.4,1086.8c-0.2,0-0.3,0-0.5,0l-45.1-5.6c-1-0.1-1.9-0.6-2.6-1.4l-58-70.2c-1.4-1.7-1.2-4.2,0.5-5.6
			c1.7-1.4,4.2-1.2,5.6,0.5l57,69l43.5,5.4c2.2,0.3,3.7,2.3,3.5,4.5C1467.1,1085.3,1465.4,1086.8,1463.4,1086.8z"/>
		<path class="st3" d="M1459.6,1139.3c-0.2,0-0.3,0-0.5,0l-55.6-6.7c-7.3-0.8-14-4.4-18.9-10.3l-64.5-78.1c-1.4-1.7-1.2-4.2,0.5-5.6
			s4.2-1.2,5.6,0.5l64.5,78.1c3.5,4.3,8.4,6.9,13.6,7.5l55.7,6.7c2.2,0.3,3.8,2.3,3.5,4.5
			C1463.3,1137.9,1461.6,1139.3,1459.6,1139.3z"/>
	</g>
	<g>
		<path class="st3" d="M1323,1045.6c-0.9,0-1.8-0.3-2.6-1l-61.5-52.9c-5-4.3-6.4-11.7-3.2-17.5c0.5-0.9,1.1-1.8,1.7-2.5
			c1.6-1.9,3.6-3.2,5.8-4c-3.3-5.1-2.9-12,1.2-16.9c4.1-4.7,10.9-6.2,16.5-3.7c0.5-2.3,1.6-4.5,3.1-6.3c4.3-5,11.7-6.4,17.5-3.2
			c0.9,0.5,1.8,1.1,2.5,1.7l11.5,10.2c0.2-0.6,0.5-1.1,0.7-1.6c1.7-3.1,4.4-5.4,7.6-6.6c3.6-1.3,7.4-1.1,10.8,0.5s6,4.5,7.3,8
			l21.7,55.7c0.8,2.1-0.2,4.4-2.3,5.2c-2.1,0.8-4.4-0.2-5.2-2.3l-21.7-55.8c-0.6-1.6-1.7-2.9-3.2-3.6c-1.5-0.7-3.2-0.8-4.7-0.2
			c-1.4,0.5-2.6,1.5-3.3,2.9c-0.8,1.6-1,3.4-0.4,5c0.6,1.7,0,3.6-1.5,4.7c-1.5,1-3.5,0.9-4.9-0.3l-17.8-15.8
			c-0.3-0.3-0.7-0.5-1.1-0.7c-2.5-1.4-5.8-0.8-7.7,1.4c-1.1,1.3-1.6,2.9-1.5,4.5c0.1,1.7,0.9,3.2,2.1,4.3c0.8,0.7,1.3,1.7,1.4,2.8
			s-0.3,2.1-1,2.9c-1.5,1.7-4.1,1.9-5.7,0.4l-6.3-5.5c-0.3-0.3-0.7-0.5-1.1-0.7c-2.5-1.4-5.8-0.8-7.7,1.4c-2.2,2.6-1.9,6.5,0.7,8.8
			l6.3,5.4c1.7,1.4,1.9,4,0.4,5.6c-1.4,1.7-4,1.9-5.6,0.4c-2.6-2.2-6.5-1.9-8.8,0.7c-0.3,0.3-0.5,0.7-0.8,1.1
			c-1.4,2.5-0.8,5.8,1.4,7.7l61.5,52.9c1.7,1.4,1.9,4,0.4,5.6C1325.2,1045.2,1324.1,1045.6,1323,1045.6z"/>
	</g>
	<g>
		<g>
			<g>
				
					<rect x="1538.6" y="727.1" transform="matrix(0.2784 -0.9605 0.9605 0.2784 406.7644 2038.8475)" class="st7" width="43.2" height="43.2"/>
				
					<rect x="1497.2" y="715.1" transform="matrix(0.2784 -0.9605 0.9605 0.2784 388.4086 1990.3163)" class="st0" width="43.2" height="43.2"/>
				
					<rect x="1455.7" y="703" transform="matrix(0.2784 -0.9605 0.9605 0.2784 370.0529 1941.7849)" class="st7" width="43.2" height="43.2"/>
				
					<rect x="1414.2" y="691.1" transform="matrix(0.2784 -0.9605 0.9605 0.2784 351.5862 1893.2963)" class="st0" width="43.2" height="43.2"/>
				
					<rect x="1372.7" y="679" transform="matrix(0.2784 -0.9605 0.9605 0.2784 333.2252 1844.7642)" class="st7" width="43.2" height="43.2"/>
				
					<rect x="1526.6" y="768.6" transform="matrix(0.2784 -0.9605 0.9605 0.2784 358.2331 2057.2034)" class="st0" width="43.2" height="43.2"/>
				
					<rect x="1485.1" y="756.5" transform="matrix(0.2784 -0.9605 0.9605 0.2784 339.8773 2008.672)" class="st7" width="43.2" height="43.2"/>
				
					<rect x="1443.6" y="744.5" transform="matrix(0.2784 -0.9605 0.9605 0.2784 321.5229 1960.1409)" class="st0" width="43.2" height="43.2"/>
				
					<rect x="1402.1" y="732.5" transform="matrix(0.2784 -0.9605 0.9605 0.2784 303.0535 1911.6516)" class="st7" width="43.2" height="43.2"/>
				
					<rect x="1360.7" y="720.5" transform="matrix(0.2784 -0.9605 0.9605 0.2784 284.6978 1863.1202)" class="st0" width="43.2" height="43.2"/>
				
					<rect x="1514.6" y="810.1" transform="matrix(0.2784 -0.9605 0.9605 0.2784 309.7396 2075.6707)" class="st7" width="43.2" height="43.2"/>
				
					<rect x="1473.1" y="798" transform="matrix(0.2784 -0.9605 0.9605 0.2784 291.3474 2027.028)" class="st0" width="43.2" height="43.2"/>
				
					<rect x="1431.6" y="786" transform="matrix(0.2784 -0.9605 0.9605 0.2784 272.9902 1978.4962)" class="st7" width="43.2" height="43.2"/>
				
					<rect x="1390.1" y="774" transform="matrix(0.2784 -0.9605 0.9605 0.2784 254.5222 1930.0074)" class="st0" width="43.2" height="43.2"/>
				
					<rect x="1348.6" y="762" transform="matrix(0.2784 -0.9605 0.9605 0.2784 236.1664 1881.4762)" class="st7" width="43.2" height="43.2"/>
			</g>
			<path class="st3" d="M1561,862.5c-0.4,0-0.7-0.1-1.1-0.2l-207.5-60.1c-1-0.3-1.9-1-2.4-1.9s-0.6-2-0.3-3l36.1-124.5
				c0.6-2.1,2.8-3.3,5-2.7l207.5,60.1c1,0.3,1.9,1,2.4,1.9s0.6,2,0.3,3l-36.1,124.5C1564.3,861.3,1562.7,862.5,1561,862.5z
				 M1358.5,795.6l199.8,57.9l33.9-116.8l-199.8-57.9L1358.5,795.6z"/>
		</g>
		<g>
			
				<rect x="1200" y="913.6" transform="matrix(0.2784 -0.9605 0.9605 0.2784 70.9587 1941.4912)" class="st1" width="255" height="19.9"/>
			<path class="st3" d="M1301.6,1052.8c-0.4,0-0.7-0.1-1.1-0.2l-19.1-5.5c-2.1-0.6-3.3-2.8-2.7-5l71-244.9c0.3-1,1-1.9,1.9-2.4
				s2-0.6,3-0.3l19.1,5.5c2.1,0.6,3.3,2.8,2.7,5l-71,244.9c-0.3,1-1,1.9-1.9,2.4C1303,1052.6,1302.3,1052.8,1301.6,1052.8z
				 M1287.5,1040.6l11.4,3.3l68.8-237.3l-11.4-3.3L1287.5,1040.6z"/>
		</g>
	</g>
	<g>
		<path class="st8" d="M1679.8,1273.6c-4.7,0-9.5-1.3-13.7-4.1c-11.5-7.6-14.6-23.1-7-34.6l37.7-57l-40.3-39.8
			c-9.8-9.7-9.9-25.5-0.2-35.3c9.7-9.8,25.5-9.9,35.3-0.2l54.8,54.2c8.5,8.4,9.8,21.6,3.3,31.5l-49.1,74.1
			C1695.8,1269.7,1687.9,1273.6,1679.8,1273.6z"/>
	</g>
	<path class="st0" d="M1535.3,1549.9H1498c-12.6,0-22.3-10.2-21.6-22.9l11.2-238.7h83l-11.2,238.7
		C1558.7,1539.6,1547.9,1549.9,1535.3,1549.9z"/>
	<path class="st0" d="M1603.4,1549.9h37.2c12.6,0,22.3-10.2,21.6-22.9l-11.2-238.7h-83l11.2,238.7
		C1580,1539.6,1590.8,1549.9,1603.4,1549.9z"/>
	<path class="st3" d="M1650.1,1553.9h-37.2c-14.7,0-27.4-12-28.2-26.7l-5.9-128.3l-5.9,128.2c-0.9,14.7-13.5,26.7-28.2,26.7h-37.2
		c-7.2,0-13.9-2.8-18.7-7.9c-4.8-5.1-7.3-11.9-6.9-19.2l11.2-238.7c0.1-2.1,1.9-3.8,4-3.8h163.3c2.1,0,3.9,1.7,4,3.8l11.2,238.7
		c0.4,7.2-2,14-6.9,19.2C1663.9,1551,1657.3,1553.9,1650.1,1553.9z M1578.7,1307.6c2.1,0,3.9,1.7,4,3.8l9.9,215.4
		c0.6,10.5,9.7,19.1,20.2,19.1h37.2c5,0,9.6-1.9,12.9-5.4s5-8.2,4.7-13.2l0,0l-11-234.9h-155.7l-11,234.9c-0.3,5.1,1.4,9.7,4.7,13.3
		c3.3,3.5,7.9,5.4,12.9,5.4h37.2c10.5,0,19.6-8.6,20.2-19.1l9.9-215.3C1574.8,1309.3,1576.6,1307.6,1578.7,1307.6z"/>
	<g>
		<path class="st8" d="M1612.8,929.6c-26.4-17.3-63.5-7.3-83,22.3c-3.1,4.7-15.2,12.8-17,17.8c-2.5,6.9,5.7,10.6,5.4,17.5
			c-0.2,4.1,0.1,8.1,0.7,12.1l23.7,0.7l-20.1,12.6c4,9.8,10.6,18.4,19.8,24.4c26.4,17.3,63.5,7.3,83-22.3
			C1644.7,985,1639.2,947,1612.8,929.6z"/>
		<path class="st3" d="M1581.1,1049.5c-11,0-21.8-3-31.1-9.1c-9.5-6.3-16.9-15.3-21.3-26.2c-0.7-1.8-0.1-3.9,1.6-4.9l8.9-5.5
			l-10.4-0.3c-1.9-0.1-3.6-1.5-3.8-3.4c-0.6-4.3-0.9-8.6-0.7-12.9c0.1-1.9-1.1-3.6-2.4-5.7c-2-3.1-4.8-7.4-2.7-13.1
			c1.4-3.8,5.9-7.7,10.6-11.9c2.7-2.4,5.8-5.1,6.8-6.7c7.5-11.4,17.7-20.4,29.5-26.1c2-1,4.4-0.1,5.3,1.9c1,2,0.1,4.4-1.9,5.3
			c-10.5,5.1-19.6,13.1-26.3,23.3c-1.6,2.5-4.8,5.3-8.2,8.3c-3.1,2.7-7.7,6.8-8.4,8.7c-0.6,1.7,0,3,1.9,5.9c1.7,2.7,3.9,6,3.7,10.4
			c-0.1,2.7,0,5.3,0.2,8l20.3,0.6c1.8,0,3.3,1.2,3.7,3c0.5,1.7-0.2,3.5-1.7,4.4l-17.2,10.7c3.8,8,9.6,14.7,16.9,19.5
			c18.7,12.3,44.3,9.9,63.7-5.9c1.7-1.4,4.2-1.1,5.6,0.6s1.1,4.2-0.6,5.6C1610.6,1044.3,1595.6,1049.5,1581.1,1049.5z"/>
		<path class="st4" d="M1563.6,888.9c-22.6-5.8-18.1,56.3,34.1,62.9c0,0,20.8,29.2-5.5,53.3c0,0,11.1,31.6,39.5,32.9
			C1631.7,1038.1,1729.7,931.4,1563.6,888.9z"/>
		<path class="st3" d="M1641.6,1042.5c-0.1,0-0.1,0-0.2,0c-30.8-1.5-42.6-34.2-43.1-35.6c-0.5-1.5-0.1-3.2,1.1-4.3
			c20.6-18.9,9.4-40.9,5.9-46.7c-21.5-3.3-38.4-16.6-45.6-35.8c-4.6-12.3-3.9-24.8,1.7-31c3.3-3.7,8-5,13.1-3.7l0,0
			c55.3,14.1,88,37,97.2,67.9c12.9,43.5-25.5,86-27.2,87.8C1643.8,1042.1,1642.7,1042.5,1641.6,1042.5z M1606.8,1006.6
			c3,6.7,13.3,25.7,33.1,27.8c6.4-7.6,34.5-43.7,24.1-78.7c-8.3-28-39.1-49-91.5-62.4c-3-0.8-4.4,0.4-5.2,1.3
			c-3,3.4-4.1,12.3-0.1,22.9c6.3,16.9,21.6,28.5,40.9,30.9c1.1,0.1,2.1,0.7,2.8,1.7C1611.1,950.3,1632.3,980.8,1606.8,1006.6z"/>
	</g>
	<g>
		<path class="st3" d="M1679.2,1277.6c-5.7,0-11.2-1.7-16-4.8c-6.4-4.3-10.8-10.8-12.4-18.4c-1.5-7.6,0-15.3,4.2-21.8l35.9-54.3
			l-8.2-8.1c-1.6-1.6-1.6-4.1,0-5.7s4.1-1.6,5.7,0l10.6,10.5c1.4,1.3,1.6,3.5,0.5,5.1l-37.7,57c-3.1,4.7-4.2,10.3-3.1,15.7
			c1.1,5.5,4.3,10.2,9,13.3c3.4,2.3,7.4,3.5,11.5,3.5c7.1,0,13.6-3.5,17.5-9.4l49.1-74.1c5.5-8.3,4.4-19.5-2.7-26.5l-25.3-25
			c-1.6-1.6-1.6-4.1,0-5.7s4.1-1.6,5.7,0l25.3,25c9.8,9.7,11.4,25.1,3.8,36.6l-49.1,74.1C1698,1272.8,1689,1277.6,1679.2,1277.6z"/>
	</g>
	<path class="st7" d="M1683,1081.5c-14.4-13.4-33-20.7-52.3-20.7l-140.2,10.4l-52.5-6.3l-3.7,88.3l52.7,7.2v127.9h80.3h82.9
		l-2.6-133.1l19.2,18l54-56.4L1683,1081.5z"/>
	<path class="st3" d="M1660.4,1292.3h-163.3c-2.2,0-4-1.8-4-4v-124.4l-49.3-6.8c-2-0.3-3.5-2.1-3.5-4.1l3.7-88.3
		c0-1.1,0.6-2.2,1.4-2.9s2-1.1,3.1-0.9l52.1,6.2l139.8-10.4c0.1,0,0.2,0,0.3,0c20.3,0,39.9,7.7,55,21.8l0,0l38,35.3
		c0.8,0.7,1.2,1.7,1.3,2.8c0,1.1-0.4,2.1-1.1,2.9l-54,56.4c-1.5,1.6-4,1.7-5.6,0.2l-12.3-11.5l2.4,123.6c0,1.1-0.4,2.1-1.1,2.9
		C1662.5,1291.9,1661.5,1292.3,1660.4,1292.3z M1501.1,1284.3h155.2l-2.6-129c0-1.6,0.9-3.1,2.4-3.7c1.5-0.7,3.2-0.4,4.4,0.7
		l16.3,15.3l48.5-50.6l-35.1-32.5c-13.6-12.6-31.2-19.6-49.4-19.6l-140,10.4c-0.3,0-0.5,0-0.8,0l-48.2-5.8l-3.3,80.3l49.1,6.7
		c2,0.3,3.5,2,3.5,4V1284.3z"/>
	<g>
		<g>
			<path class="st8" d="M1653.8,1292.1l25.6-9.7c6.1-2.3,9.1-9.1,6.8-15.2l-12.7-33.7c-2.3-6.1-9.1-9.1-15.2-6.8l-25.6,9.7
				c-6.1,2.3-9.1,9.1-6.8,15.2l12.7,33.7C1640.9,1291.3,1647.7,1294.4,1653.8,1292.1z"/>
			<path class="st3" d="M1649.7,1296.9c-6.4,0-12.4-3.9-14.8-10.2l-12.7-33.7c-1.5-3.9-1.4-8.2,0.4-12.1c1.7-3.8,4.9-6.8,8.8-8.3
				l25.6-9.7c8.1-3.1,17.2,1,20.3,9.2l12.7,33.7c1.5,3.9,1.4,8.2-0.4,12.1c-1.7,3.8-4.9,6.8-8.8,8.3l-25.6,9.7l0,0
				C1653.4,1296.5,1651.5,1296.9,1649.7,1296.9z M1653.8,1292.1L1653.8,1292.1L1653.8,1292.1z M1662.5,1230c-0.9,0-1.8,0.2-2.7,0.5
				l-25.6,9.7c-1.9,0.7-3.5,2.2-4.3,4.1c-0.9,1.9-0.9,4-0.2,5.9l12.7,33.7c1.5,4,6,6,10,4.5l25.6-9.7c1.9-0.7,3.5-2.2,4.3-4.1
				c0.9-1.9,0.9-4,0.2-5.9l-12.7-33.7C1668.6,1231.9,1665.6,1230,1662.5,1230z"/>
		</g>
	</g>
	<g>
		<path class="st8" d="M1360.1,1006.9l-21.7-55.8c-1.9-5.3-7.8-8-13-6.1l0,0c-5.3,1.9-8,7.8-6.1,13l8.6,23.8c0,0-10,9.8-6.6,25.9"/>
		<path class="st3" d="M1321.2,1011.7c-1.8,0-3.5-1.3-3.9-3.2c-2.9-13.8,2.9-23.5,6-27.6l-7.8-21.6c-1.3-3.6-1.1-7.4,0.5-10.8
			c1.6-3.4,4.5-6,8-7.3c3.6-1.3,7.4-1.1,10.8,0.5s6,4.5,7.3,8l21.7,55.7c0.8,2.1-0.2,4.4-2.3,5.2c-2.1,0.8-4.4-0.2-5.2-2.3
			l-21.7-55.8c-0.6-1.6-1.7-2.9-3.2-3.6c-1.5-0.7-3.2-0.8-4.7-0.2c-1.6,0.6-2.8,1.7-3.5,3.2s-0.8,3.2-0.2,4.7l8.6,23.8
			c0.5,1.5,0.2,3.1-1,4.2c-0.3,0.3-8.4,8.6-5.5,22.2c0.5,2.2-0.9,4.3-3.1,4.7C1321.7,1011.7,1321.5,1011.7,1321.2,1011.7z"/>
	</g>
</g>
<g>
	<g>
		<path class="st7" d="M863.4,193.4L863.4,193.4L863.4,193.4c-37.9,10.2-67.5,39.8-77.7,77.7l0,0l0,0
			c-10.2-37.9-39.8-67.5-77.7-77.7l0,0l0,0c37.9-10.2,67.5-39.8,77.7-77.7l0,0l0,0C795.9,153.6,825.5,183.2,863.4,193.4z"/>
		<path class="st7" d="M685.9,145.7L685.9,145.7L685.9,145.7c-24.4,6.6-43.5,25.6-50,50l0,0l0,0c-6.6-24.4-25.6-43.5-50-50l0,0l0,0
			c24.4-6.6,43.5-25.6,50-50l0,0l0,0C642.4,120.1,661.5,139.1,685.9,145.7z"/>
	</g>
	<g>
		<path class="st3" d="M795.6,275.1c-1.8,0-3.4-1.2-3.9-3c-9.8-36.4-38.5-65.1-74.9-74.9c-1.7-0.5-3-2.1-3-3.9s1.2-3.4,3-3.9
			c36.4-9.8,65.1-38.5,74.9-74.9c0.5-1.7,2.1-3,3.9-3s3.4,1.2,3.9,3c9.8,36.4,38.5,65.1,74.9,74.9c1.7,0.5,3,2.1,3,3.9
			s-1.2,3.4-3,3.9c-36.4,9.8-65.1,38.5-74.9,74.9C799,273.9,797.5,275.1,795.6,275.1z M730.7,193.4c29.7,11.6,53.3,35.3,64.9,64.9
			c11.6-29.7,35.3-53.3,64.9-64.9c-29.7-11.6-53.3-35.3-64.9-64.9C784.1,158.1,760.4,181.8,730.7,193.4z"/>
		<path class="st3" d="M645.9,199.8L645.9,199.8c-1.8,0-3.4-1.2-3.9-3c-6.2-22.9-24.3-41-47.2-47.2c-1.7-0.5-3-2.1-3-3.9
			s1.2-3.4,3-3.9c22.9-6.2,41-24.3,47.2-47.2c0.5-1.7,2.1-3,3.9-3s3.4,1.2,3.9,3c6.2,22.9,24.3,41,47.2,47.2c1.7,0.5,3,2.1,3,3.9
			s-1.2,3.4-3,3.9c-22.9,6.2-41,24.3-47.2,47.2C649.2,198.5,647.7,199.8,645.9,199.8z M607.7,145.7c16.9,7.5,30.6,21.2,38.1,38.1
			c7.5-16.9,21.2-30.6,38.1-38.1c-16.9-7.5-30.6-21.2-38.1-38.1C638.3,124.5,624.7,138.2,607.7,145.7z"/>
	</g>
</g>
<g>
	<path class="st1" d="M700.5,1452.5c0,0,75.3-116.2-1.9-90.4c0,0,13.5-74.8-29.8-53.8c0,0-27.8-74.2-62.6-41.8
		c-29,27,24.7,58.9,24.7,58.9s-50.9,40.8,12.8,59.6C643.7,1385.1,599.8,1418.6,700.5,1452.5z"/>
	<path class="st4" d="M710.5,1456.2c-0.4,0-0.9-0.1-1.3-0.2c-42.7-14.4-65.8-30.8-68.8-48.9c-1.5-9,2.4-16.1,5.8-20.5
		c-16.7-6-26.2-14.5-28.3-25.2c-2.9-14.8,9.5-29.2,16.3-35.7c-9.1-6.2-28.7-21.6-30.6-39.2c-0.9-8.5,2.4-16.4,9.7-23.2
		c8.4-7.9,17.3-10.8,26.4-8.6c21.1,5,36.3,36.7,41.1,48c9.2-3.6,16.8-3.2,22.6,1.2c13.5,10.2,11.6,39,9.9,52.2
		c14.7-3.9,24.5-2.4,29.9,4.6c7.4,9.6,4.6,27.9-8.7,56c-9.3,19.8-20.4,36.9-20.8,37.6C713.1,1455.5,711.9,1456.2,710.5,1456.2z
		 M634.1,1262c-5.1,0-10.1,2.4-15.2,7.1c-5.5,5.1-7.9,10.5-7.2,16.5c1.6,15.3,23.1,31.2,31.2,36.1c1.1,0.7,1.9,1.9,1.9,3.2
		c0.1,1.3-0.5,2.6-1.5,3.4c-0.2,0.2-20.4,16.6-17.5,31.6c1.7,8.8,11.5,15.9,28.9,21.1c1.4,0.4,2.5,1.6,2.8,3.1s-0.3,3-1.5,3.9
		c-0.4,0.3-9.5,7.5-7.7,17.9c1.7,10,13.6,25.3,60.5,41.5c16.6-26.3,37.8-69.5,28.3-81.8c-4.7-6-17.4-3.3-27.2,0
		c-1.3,0.4-2.8,0.2-3.9-0.8c-1.1-0.9-1.6-2.3-1.3-3.7c2-11.3,5-42.5-5.9-50.8c-4-3-10.1-2.6-18.2,1.3c-1,0.5-2.2,0.5-3.2,0.1
		s-1.9-1.3-2.3-2.3c-4.4-11.7-19.5-42.8-37-46.9C636.7,1262.2,635.4,1262,634.1,1262z"/>
	<path class="st1" d="M716.6,1469.2c0,0-72.7-117.8,3.9-90.4c0,0-11.9-75,31-53.1c0,0,29.4-73.6,63.5-40.4
		c28.4,27.7-26,58.4-26,58.4s50,41.9-14.1,59.3C774.9,1403.1,818.1,1437.5,716.6,1469.2z"/>
	<path class="st3" d="M726.6,1473.1c-1.4,0-2.7-0.7-3.4-1.9c-0.4-0.7-11.1-18.1-20-38.1c-12.6-28.4-15.1-46.8-7.5-56.2
		c5.6-6.9,15.4-8.2,30-3.9c-1.4-13.2-2.6-42.1,11.1-52c5.9-4.3,13.5-4.5,22.7-0.7c5-11.2,20.9-42.6,42.2-47.1
		c9.1-1.9,18,1.2,26.2,9.2c7.2,7,10.3,14.9,9.2,23.4c-2.3,17.5-22.2,32.4-31.4,38.5c6.6,6.7,18.7,21.3,15.5,36.1
		c-2.3,10.7-12,18.9-28.9,24.6c3.4,4.5,7.1,11.7,5.4,20.7c-3.4,18-26.9,33.9-69.8,47.3C727.4,1473,727,1473.1,726.6,1473.1z
		 M711.1,1378.5c-3.9,0-7.2,0.9-9.2,3.4c-9.8,12,10.4,55.8,26.4,82.4c47.2-15.2,59.5-30.2,61.4-40.1c2-10.4-6.9-17.8-7.3-18.1
		c-1.2-0.9-1.7-2.5-1.4-3.9c0.3-1.5,1.4-2.6,2.9-3c17.6-4.8,27.4-11.7,29.4-20.4c3.3-14.9-16.6-31.8-16.8-32c-1-0.8-1.5-2.1-1.4-3.4
		s0.9-2.5,2-3.1c0.3-0.2,29.6-17,32-35.4c0.8-6-1.5-11.4-6.9-16.7c-6.3-6.1-12.5-8.5-19-7.1c-17.6,3.7-33.4,34.5-38.1,46.1
		c-0.4,1-1.3,1.9-2.3,2.3c-1.1,0.4-2.2,0.3-3.2-0.2c-8-4.1-14.1-4.7-18.2-1.7c-11.1,8-8.8,39.3-7,50.6c0.2,1.4-0.3,2.8-1.4,3.7
		c-1.1,0.9-2.6,1.2-3.9,0.7C723.4,1380.4,716.7,1378.5,711.1,1378.5z"/>
	<g>
		<path class="st7" d="M624.4,1443.8h177.9l-4.4,156.8c-0.3,9.7-8.2,17.5-18,17.5H646.7c-9.7,0-17.7-7.7-18-17.5L624.4,1443.8z"/>
		<path class="st6" d="M713.3,1618H780c9.7,0,17.7-7.7,18-17.5l4.4-156.8h-89V1618H713.3z"/>
		<path class="st3" d="M790,1622H656.7c-12,0-21.6-9.4-22-21.4l-4.4-156.8c0-1.1,0.4-2.1,1.1-2.9c0.8-0.8,1.8-1.2,2.9-1.2h177.9
			c1.1,0,2.1,0.4,2.9,1.2c0.8,0.8,1.2,1.8,1.1,2.9l-4.4,156.8C811.6,1612.6,801.9,1622,790,1622z M638.5,1447.8l4.3,152.6
			c0.2,7.6,6.3,13.6,14,13.6H790c7.6,0,13.7-6,14-13.6l4.3-152.6H638.5z"/>
	</g>
</g>
<g>
	<path class="st3" d="M865.6,1622H4c-2.2,0-4-1.8-4-4s1.8-4,4-4h861.6c2.2,0,4,1.8,4,4S867.8,1622,865.6,1622z"/>
	<path class="st3" d="M1856.6,1622h-957c-2.2,0-4-1.8-4-4s1.8-4,4-4h957c2.2,0,4,1.8,4,4S1858.8,1622,1856.6,1622z"/>
</g>
<g>
	<path class="st5" d="M1539.1,564.4c-2.2,0-4-1.8-4-4v-87.5c0-2.2,1.8-4,4-4s4,1.8,4,4v87.5C1543.1,562.6,1541.3,564.4,1539.1,564.4
		z"/>
	<path class="st5" d="M1539.1,476.9c-1,0-2-0.4-2.8-1.2l-24.9-24.9c-1.1-1.1-1.5-2.7-0.9-4.2l24.9-67.6c0.6-1.6,2.1-2.6,3.8-2.6
		s3.2,1,3.8,2.6l24.9,67.6c0.5,1.5,0.2,3.1-0.9,4.2l-24.9,24.9C1541.1,476.5,1540.1,476.9,1539.1,476.9z M1518.7,447l20.3,20.3
		l20.3-20.3l-20.3-55.1L1518.7,447z"/>
</g>
<g>
	<path class="st5" d="M329.3,339.9c-2.2,0-4-1.8-4-4v-87.5c0-2.2,1.8-4,4-4s4,1.8,4,4v87.5C333.3,338.1,331.5,339.9,329.3,339.9z"/>
	<path class="st5" d="M329.3,252.4c-1.1,0-2.1-0.4-2.8-1.2l-24.9-24.9c-1.1-1.1-1.5-2.7-0.9-4.2l24.9-67.6c0.6-1.6,2.1-2.6,3.8-2.6
		s3.2,1,3.8,2.6L358,222c0.5,1.5,0.2,3.1-0.9,4.2l-24.9,24.9C331.4,252,330.3,252.4,329.3,252.4z M309,222.4l20.3,20.3l20.3-20.3
		l-20.3-55.1L309,222.4z"/>
</g>
<g>
	<path class="st5" d="M1066.1,1444.3c-2.2,0-4-1.8-4-4v-87.5c0-2.2,1.8-4,4-4s4,1.8,4,4v87.5
		C1070.1,1442.5,1068.3,1444.3,1066.1,1444.3z"/>
	<path class="st5" d="M1066.1,1356.8c-1,0-2-0.4-2.8-1.2l-24.9-24.9c-1.1-1.1-1.5-2.7-0.9-4.2l24.9-67.6c0.6-1.6,2.1-2.6,3.8-2.6
		s3.2,1,3.8,2.6l24.9,67.6c0.5,1.5,0.2,3.1-0.9,4.2l-24.9,24.9C1068.1,1356.4,1067.1,1356.8,1066.1,1356.8z M1045.8,1326.8
		l20.3,20.3l20.3-20.3l-20.3-55.1L1045.8,1326.8z"/>
</g>
<circle class="st0" cx="129.8" cy="370" r="40"/>
<path class="st3" d="M139.8,414c-24.3,0-44-19.8-44-44s19.8-44,44-44s44,19.8,44,44S164.1,414,139.8,414z M139.8,333.9
	c-19.9,0-36,16.2-36,36s16.2,36,36,36s36-16.2,36-36S159.7,333.9,139.8,333.9z"/>
</svg>
