<?xml version="1.0" encoding="utf-8"?>
<!-- Generator: Adobe Illustrator 26.0.3, SVG Export Plug-In . SVG Version: 6.00 Build 0)  -->
<svg version="1.1" id="Layer_1" xmlns="http://www.w3.org/2000/svg" xmlns:xlink="http://www.w3.org/1999/xlink" x="0px" y="0px"
	 viewBox="0 0 69.1 69.2" style="enable-background:new 0 0 69.1 69.2;" xml:space="preserve">
<style type="text/css">
	.st0{fill:#030302;}
	.st1{fill:#CDD6DA;}
	.st2{fill:#02A7F2;}
	.st3{fill:#F24234;}
	.st4{fill:#FD5622;}
	.st5{fill:#FDDA00;}
	.st6{fill:#3E50B3;}
	.st7{fill:#60A817;}
	.st8{fill:#A3C200;}
	.st9{fill:#A3C300;}
	.st10{fill:#008900;}
	.st11{fill:#FDE93A;}
	.st12{fill:#FD9701;}
	.st13{fill:#00BAD2;}
	.st14{fill:#7D8C92;}
	.st15{fill:#5F7C89;}
	.st16{fill:#9C9C9C;}
	.st17{fill:#00818D;}
	.st18{fill:#F17A00;}
	.st19{fill:#F9D533;}
	.st20{fill:#539214;}
	.st21{fill:#007600;}
	.st22{fill:#8EAA00;}
	.st23{fill:#FABE08;}
	.st24{fill:#8CA700;}
	.st25{fill:#020202;}
	.st26{fill:#36464E;}
</style>
<g>
	<path class="st0" d="M7.8,69.2c-0.3-0.1-0.7-0.2-1-0.3c-4-1.1-6.8-4.7-6.8-8.8c0-17,0-33.9,0-50.9C0,4.4,3.8,0.4,8.5,0
		c4.8-0.3,9.1,3,9.8,7.8c0.1,0.6,0.1,1.3,0.1,1.9c0,4.9,0,9.9,0,14.8c0,0.2,0,0.5,0,0.7c0,0,0.1,0,0.1,0.1c0.1-0.2,0.2-0.4,0.3-0.6
		c2.6-4.4,5.1-8.9,7.7-13.3c3.1-5.2,10-6.2,14.3-2.1c3.1,2.9,3.8,7.6,1.6,11.4c-2.5,4.3-5,8.6-7.5,13c-0.2,0.3-0.3,0.6-0.6,1
		c0.3-0.2,0.5-0.3,0.7-0.3c4.5-2.6,8.9-5.2,13.4-7.7c5.6-3.2,12.4-0.1,13.7,6.2c0.8,3.8-1,7.7-4.5,9.7c-4.1,2.4-8.2,4.8-12.3,7.1
		c-0.5,0.3-1,0.6-1.5,1c0.2,0,0.4,0,0.7,0c5,0,10.1,0,15.1,0c4.1,0,7.6,2.3,8.9,6c0.2,0.6,0.4,1.3,0.6,1.9c0,0.9,0,1.8,0,2.7
		c-0.1,0.2-0.2,0.4-0.2,0.7c-0.9,3.5-3.1,5.8-6.5,6.8c-0.4,0.1-0.9,0.2-1.3,0.3C43.3,69.2,25.5,69.2,7.8,69.2z M6.7,50.7
		c0.1-0.1,0.3-0.1,0.4-0.2c3-1.7,6-3.4,8.9-5.2c1.1-0.7,2.3-1.3,3.5-2c-2.2-1.3-4.4-2.5-6.6-3.8c-0.9,1.6-1.8,3.1-2.7,4.6
		C9.1,46.3,7.8,48.5,6.7,50.7C6.6,50.7,6.6,50.8,6.7,50.7C6.6,50.8,6.7,50.7,6.7,50.7z M53.3,41.8c0.1,0.2,0.2,0.3,0.3,0.5
		c1.1-0.7,2.2-1.2,3.2-1.9c3.1-2,4.1-6,2.3-9.2c-1-1.8-2.6-3-4.7-3.3c-0.8,0-1.6-0.2-2.3-0.1c-2.1,0.2-3.6,1.6-5.4,2.5
		c0.5,0.9,1,1.8,1.5,2.7C49.9,36,51.6,38.9,53.3,41.8z M60.7,53.2c-1.4,0-2.9,0-4.3,0c0,4.6,0,9.2,0,13.6c1.5,0,3,0,4.4,0
		c1.7-0.2,3.1-1,4.2-2.3c1.8-2.1,2.2-4.5,1.2-7.1C65.3,55,63.4,53.5,60.7,53.2z M35.7,9.2c-2.3-0.4-4.3,0.2-6,1.8
		c-1.4,1.3-2,3-3,4.5c1.2,0.7,2.2,1.3,3.3,1.9c2.4,1.3,4.7,2.7,7.1,4c0.5,0.3,1,0.6,1.6,1c0.7-1.2,1.4-2.4,2-3.6
		C42.7,14.8,40.2,10,35.7,9.2z M13.7,27.7c-3.8,0-7.6,0-11.4,0c0,3.5,0,6.9,0,10.3c2.3,0,4.6,0,6.8,0c0.4,0,0.9,0,1.3,0.1
		c0.5,0.1,0.8-0.1,1.1-0.6c1.3-2.4,2.7-4.8,4.1-7.1c0.5-0.9,0.4-1.7,0.4-2.7C15.2,27.7,14.4,27.7,13.7,27.7z M13.7,12.7
		c0.8,0,1.5,0,2.3,0c0-1.5,0.1-2.9,0-4.4c-0.2-2.9-2.9-5.6-5.7-5.9C7,1.6,3.3,3.9,2.5,7.3C2.1,9,2.3,10.8,2.2,12.5l0.1,0.1
		C6.1,12.7,9.9,12.7,13.7,12.7z M21.4,41.7c0.3,0.4,0.6,0.2,1,0c2.3-1.3,4.5-2.7,6.8-3.9c1-0.5,1.6-1.3,2.1-2.4
		c-0.5-0.3-1.1-0.6-1.6-0.9c-2.2-1.3-4.4-2.6-6.6-3.8c-1.2-0.7-2.5-1.4-3.8-2.2c-1.7,3-3.5,6-5.2,9C16.6,39,19,40.3,21.4,41.7z
		 M13.7,15c-3.8,0-7.6,0-11.4,0l-0.1,0.1c0,3.4,0,6.8,0,10.2c0.1,0,0.1,0.1,0.2,0.1c3.8,0,7.5,0,11.3,0c0.8,0,1.5,0,2.3,0
		c0-3.5,0-6.9,0-10.3C15.2,15,14.4,15,13.7,15z M36,23.6c-3.4-2-6.9-4-10.4-6c-1.8,3-3.5,6-5.2,9c0.6,0.3,1.1,0.6,1.6,0.9
		c2.9,1.7,5.8,3.3,8.7,5c0.6,0.3,1.1,0.7,1.7,1c1.7-3,3.5-6,5.2-9C37.1,24.2,36.5,23.9,36,23.6z M28.7,53.1c-0.3,0-0.6,0-0.9,0
		c-5.5,0-10.9,0-16.4,0c-0.9,0-1.8,0-2.8,0c-4.3,0.2-7.3,4.4-6.2,8.5c0.8,3.2,3.5,5.3,6.9,5.3c6.3,0,12.6,0,18.8,0
		c0.2,0,0.3,0,0.6,0C28.7,62.3,28.7,57.7,28.7,53.1z M51.6,43.5c-2.3-4-4.6-8-6.9-12c-3,1.7-6,3.5-9,5.2c2.3,4,4.6,8,6.9,12
		C45.6,47,48.5,45.2,51.6,43.5z M31.1,66.9c3.5,0,6.9,0,10.3,0c0-4.6,0-9.2,0-13.8c-3.4,0-6.9,0-10.3,0
		C31.1,57.7,31.1,62.3,31.1,66.9z M54.1,66.9c0-4.6,0-9.2,0-13.8c-3.4,0-6.9,0-10.3,0c0,4.6,0,9.2,0,13.8
		C47.2,66.9,50.6,66.9,54.1,66.9z M24.7,43c0.1,0.2,0.2,0.4,0.3,0.6c1.2,2.1,2.5,4.3,3.7,6.4c0.3,0.5,0.7,0.8,1.3,0.8
		c2.7,0,5.4,0,8.1,0c1,0,1.7-0.5,2.5-1c-2.3-4-4.6-7.9-6.9-11.9C30.6,39.6,27.7,41.3,24.7,43z M9.8,40.5c-2.6,0-5,0-7.5,0
		c0,4.3,0,8.6,0,13C4.8,49.1,7.3,44.8,9.8,40.5z M22.7,44.2c-3.7,2.2-7.4,4.3-11.1,6.4v0.1c4.9,0,9.8,0,14.8,0
		C25.2,48.5,23.9,46.4,22.7,44.2z"/>
	<path class="st1" d="M28.7,53.1c0,4.7,0,9.2,0,13.8c-0.2,0-0.4,0-0.6,0c-6.3,0-12.6,0-18.8,0c-3.4,0-6.1-2.1-6.9-5.3
		c-1.1-4.1,2-8.3,6.2-8.5c0.9-0.1,1.8,0,2.8,0c5.5,0,10.9,0,16.4,0C28.1,53.1,28.4,53.1,28.7,53.1z M9.2,55.4c-2.5,0-4.6,2-4.7,4.5
		c-0.1,2.5,2,4.7,4.6,4.7c2.5,0,4.6-2,4.7-4.5C13.8,57.5,11.8,55.4,9.2,55.4z"/>
	<path class="st2" d="M51.6,43.5c-3,1.7-6,3.5-9,5.2c-2.3-4-4.6-8-6.9-12c3-1.7,6-3.4,9-5.2C46.9,35.5,49.2,39.5,51.6,43.5z"/>
	<path class="st3" d="M31.1,66.9c0-4.6,0-9.2,0-13.8c3.4,0,6.9,0,10.3,0c0,4.6,0,9.2,0,13.8C38,66.9,34.6,66.9,31.1,66.9z"/>
	<path class="st4" d="M54.1,66.9c-3.5,0-6.9,0-10.3,0c0-4.6,0-9.2,0-13.8c3.4,0,6.9,0,10.3,0C54.1,57.7,54.1,62.3,54.1,66.9z"/>
	<path class="st5" d="M30.7,32.5c-2.9-1.7-5.8-3.3-8.7-5c-0.5-0.3-1-0.6-1.6-0.9c1.7-3,3.4-6,5.2-9c3.5,2,6.9,4,10.4,6
		c-1.4,2.4-2.8,4.9-4.2,7.3C31.5,31.4,31.1,31.9,30.7,32.5z"/>
	<path class="st6" d="M24.7,43c3-1.7,5.9-3.4,9-5.2c2.3,4,4.6,8,6.9,11.9c-0.8,0.5-1.5,1-2.5,1c-2.7,0-5.4,0-8.1,0
		c-0.6,0-1-0.2-1.3-0.8c-1.2-2.2-2.5-4.3-3.7-6.4C24.9,43.5,24.8,43.3,24.7,43z"/>
	<path class="st7" d="M2.4,15c3.8,0,7.6,0,11.4,0c0,3.4,0,6.9,0,10.3c-3.8,0-7.5,0-11.3,0c0,0-0.1,0-0.2-0.1
		C2.3,21.8,2.3,18.4,2.4,15C2.3,15.1,2.3,15.1,2.4,15z"/>
	<path class="st8" d="M21.4,41.7c-2.4-1.4-4.8-2.7-7.3-4.1c1.7-3,3.5-6,5.2-9c1.3,0.7,2.5,1.5,3.8,2.2c2.2,1.3,4.4,2.6,6.6,3.8
		c-0.5,0.9-1.1,1.9-1.6,2.8c-0.2,0.3-0.4,0.6-0.7,0.8c-1,0.6-2,1.2-3,1.7C23.3,40.5,22.4,41.1,21.4,41.7z"/>
	<path class="st9" d="M2.2,12.6c0.1-1.7-0.1-3.5,0.3-5.2C3.2,4,7,1.7,10.3,2.5c0.5,0.5,0.9,0.9,1.4,1.4c1.2,1.3,1.9,2.8,2,4.5
		c0.1,1.4,0,2.8,0,4.3c-3.8,0-7.6,0-11.3,0C2.3,12.7,2.3,12.6,2.2,12.6z"/>
	<path class="st10" d="M9.1,38.1c-2.3,0-4.5,0-6.8,0c0-3.4,0-6.8,0-10.3c3.8,0,7.6,0,11.4,0c-0.1,0.9,0.2,1.9-0.3,2.8
		c-0.8,1.3-1.5,2.6-2.3,3.9C10.4,35.7,9.8,36.9,9.1,38.1z"/>
	<path class="st11" d="M37.2,21.5c-2.4-1.3-4.7-2.7-7.1-4c-1.1-0.6-2.2-1.3-3.3-1.9c1-1.5,1.6-3.3,3-4.5c1.7-1.6,3.7-2.2,6-1.8
		c0.1,0.2,0.2,0.4,0.4,0.5c2.5,2.2,3.6,4.9,2.7,8.2C38.5,19.2,37.8,20.3,37.2,21.5z"/>
	<path class="st12" d="M60.9,66.8c-1.5,0-2.9,0-4.4,0c0-4.5,0-9,0-13.6c1.4,0,2.8,0,4.3,0c0.1,0.1,0.1,0.1,0.2,0.2
		c2.8,2,4.1,5.3,3.3,8.6C63.8,64,62.6,65.6,60.9,66.8z"/>
	<path class="st13" d="M53.3,41.8c-1.7-2.9-3.4-5.9-5.1-8.8c-0.5-0.9-1-1.7-1.5-2.7c1.8-0.9,3.3-2.3,5.4-2.5c0.8-0.1,1.6,0,2.3,0.1
		c0.1,0.1,0.2,0.3,0.3,0.4c2.2,1.8,3.2,4.2,3,7C57.4,38.3,55.9,40.4,53.3,41.8z"/>
	<path class="st14" d="M6.6,50.6c1.2-2.1,2.4-4.3,3.7-6.4c0.9-1.5,1.8-3,2.7-4.6c2.2,1.3,4.3,2.5,6.6,3.8c-1.2,0.7-2.3,1.4-3.5,2
		c-3,1.7-6,3.4-8.9,5.2C7,50.6,6.8,50.7,6.6,50.6C6.7,50.7,6.6,50.7,6.6,50.6z"/>
	<path class="st15" d="M9.8,40.5c-2.5,4.3-5,8.6-7.5,13c0-4.4,0-8.7,0-13C4.7,40.5,7.2,40.5,9.8,40.5z"/>
	<path class="st16" d="M22.7,44.2c1.3,2.2,2.5,4.3,3.8,6.5c-5,0-9.9,0-14.8,0v-0.1C15.3,48.5,18.9,46.4,22.7,44.2z"/>
	<path class="st17" d="M53.3,41.8c2.6-1.4,4.1-3.5,4.4-6.4s-0.8-5.2-3-7c-0.1-0.1-0.2-0.3-0.3-0.4c2.1,0.3,3.7,1.5,4.7,3.3
		c1.8,3.2,0.8,7.2-2.3,9.2c-1,0.7-2.1,1.3-3.2,1.9C53.5,42.1,53.4,42,53.3,41.8z"/>
	<path class="st18" d="M60.9,66.8c1.7-1.2,2.9-2.8,3.4-4.8c0.8-3.3-0.4-6.7-3.3-8.6c-0.1-0.1-0.1-0.1-0.2-0.2
		c2.7,0.4,4.5,1.8,5.5,4.2c1,2.6,0.6,5-1.2,7.1C64,65.8,62.6,66.6,60.9,66.8z"/>
	<path class="st19" d="M37.2,21.5c0.6-1.2,1.3-2.3,1.6-3.6c0.8-3.3-0.2-6-2.7-8.2c-0.2-0.1-0.3-0.4-0.4-0.5c4.4,0.8,7,5.6,5.1,9.6
		c-0.6,1.2-1.3,2.4-2,3.6C38.2,22.2,37.7,21.9,37.2,21.5z"/>
	<path class="st20" d="M13.7,25.4c0-3.4,0-6.9,0-10.3c0.7,0,1.5,0,2.3,0c0,3.4,0,6.9,0,10.3C15.2,25.4,14.5,25.4,13.7,25.4z"/>
	<path class="st21" d="M9.1,38.1c0.7-1.2,1.3-2.4,2-3.6c0.8-1.3,1.5-2.6,2.3-3.9c0.5-0.9,0.2-1.8,0.3-2.8c0.7,0,1.5,0,2.3,0
		c0,0.9,0.1,1.8-0.4,2.7c-1.4,2.3-2.8,4.7-4.1,7.1c-0.3,0.5-0.6,0.7-1.1,0.6C10,38.1,9.5,38.1,9.1,38.1z"/>
	<path class="st22" d="M13.7,12.7c0-1.4,0.1-2.8,0-4.3c-0.1-1.7-0.8-3.2-2-4.5c-0.4-0.5-0.9-1-1.4-1.4c2.8,0.3,5.4,3,5.7,5.9
		c0.1,1.4,0,2.9,0,4.4C15.2,12.7,14.5,12.7,13.7,12.7z"/>
	<path class="st23" d="M30.7,32.5c0.4-0.5,0.8-1,1.1-1.6c1.4-2.4,2.8-4.9,4.2-7.3c0.5,0.3,1,0.6,1.6,0.9c-1.7,3-3.5,6-5.2,9
		C31.8,33.1,31.3,32.8,30.7,32.5z"/>
	<path class="st24" d="M21.4,41.7c1-0.6,1.9-1.2,2.9-1.8c1-0.6,2-1.1,3-1.7c0.3-0.2,0.6-0.5,0.7-0.8c0.6-0.9,1.1-1.9,1.6-2.8
		c0.5,0.3,1.1,0.6,1.6,0.9c-0.4,1.1-1.1,1.8-2.1,2.4c-2.3,1.2-4.6,2.6-6.8,3.9C22,41.9,21.7,42.1,21.4,41.7z"/>
	<path class="st20" d="M2.4,15L2.4,15C2.3,15.1,2.3,15.1,2.4,15z"/>
	<path class="st22" d="M2.2,12.6L2.2,12.6C2.3,12.7,2.3,12.6,2.2,12.6z"/>
	<path class="st14" d="M6.7,50.7C6.7,50.7,6.6,50.8,6.7,50.7C6.6,50.8,6.6,50.7,6.7,50.7C6.6,50.7,6.7,50.7,6.7,50.7z"/>
	<path class="st25" d="M9.2,55.4c2.6,0,4.6,2.1,4.5,4.7c0,2.5-2.1,4.6-4.7,4.5c-2.5,0-4.6-2.2-4.6-4.7C4.6,57.4,6.7,55.4,9.2,55.4z
		 M11.4,60c0-1.4-0.9-2.3-2.3-2.3c-1.3,0-2.3,1-2.3,2.2s1.1,2.4,2.3,2.4C10.4,62.3,11.4,61.3,11.4,60z"/>
	<path class="st26" d="M11.4,60c0,1.2-1.1,2.3-2.3,2.3c-1.3,0-2.4-1.1-2.3-2.4c0-1.2,1.1-2.2,2.3-2.2C10.5,57.7,11.4,58.7,11.4,60z"
		/>
</g>
</svg>
