<?xml version="1.0" encoding="utf-8"?>
<!-- Generator: Adobe Illustrator 26.0.3, SVG Export Plug-In . SVG Version: 6.00 Build 0)  -->
<svg version="1.1" id="Layer_1" xmlns="http://www.w3.org/2000/svg" xmlns:xlink="http://www.w3.org/1999/xlink" x="0px" y="0px"
	 viewBox="0 0 80.2 80.4" style="enable-background:new 0 0 80.2 80.4;" xml:space="preserve">
<style type="text/css">
	.st0{fill:#2284EB;}
	.st1{fill:#2682E8;}
	.st2{fill:#413C36;}
	.st3{fill:#E46565;}
	.st4{fill:#E56D6D;}
	.st5{fill:#E56969;}
	.st6{fill:#FDC956;}
	.st7{fill:#FDC957;}
	.st8{fill:#FDCA57;}
	.st9{fill:#FCC856;}
	.st10{fill:#FCC957;}
	.st11{fill:#FCC958;}
	.st12{fill:#FDCA58;}
	.st13{fill:#FAC857;}
	.st14{fill:#F8C656;}
</style>
<g>
	<path class="st0" d="M10.7,99c0.2,0.2,0.5,0.3,0.7,0.5C11.2,99.3,11,99.2,10.7,99z"/>
	<path class="st1" d="M2.8,88.7C2.9,88.8,2.9,89,3,89.1C2.9,89,2.8,88.9,2.8,88.7z"/>
</g>
<g>
	<path class="st2" d="M50,0c0.5,0.3,1.1,0.5,1.6,0.9C52.5,1.6,53,2.5,53,3.6c0,0.5,0.2,0.7,0.6,0.9c3,1.4,6,2.8,9,4.1
		c0.4,0.2,0.6,0.2,1-0.1c1.4-1.1,3.4-1.1,4.7,0c1.4,1.1,1.9,2.9,1.2,4.6c-0.1,0.2-0.1,0.7,0.1,0.9c1.7,2.2,3.4,4.3,5.1,6.4
		c0.2,0.2,0.6,0.3,0.8,0.3c1.9-0.3,3.7,0.7,4.4,2.5c0.7,1.8,0,3.7-1.8,4.7c-0.4,0.2-0.6,0.5-0.6,1c0,3.2,0,6.3,0,9.5
		c0,0.5,0.1,0.7,0.6,1c1.9,1,2.5,3.2,1.6,5c-0.9,1.9-3,2.6-5,1.9c-0.2-0.1-0.7,0-0.9,0.1c-3,2.5-6.1,5-9.1,7.6
		c-0.2,0.2-0.3,0.6-0.3,0.8c0.3,1.8-0.4,3.4-2,4.3c-0.4,0.2-0.5,0.4-0.5,0.8c0,4.1,0,8.1,0,12.2c0,0.4,0.1,0.6,0.5,0.8
		c1.6,0.9,2.4,2.6,2,4.3s-2,2.9-3.8,2.9c-1.7,0-3.3-1.3-3.7-2.9c-0.4-1.8,0.3-3.5,2-4.3c0.4-0.2,0.5-0.4,0.5-0.8c0-4.1,0-8.1,0-12.2
		c0-0.4-0.1-0.6-0.5-0.8c-1.2-0.6-1.8-1.6-2.1-2.9c0-0.2-0.3-0.5-0.5-0.6c-3.7-1.2-7.3-2.5-11.1-3.7c-0.5,1.5-1,2.9-1.4,4.4
		c0,0.2,0.1,0.4,0.2,0.6c1.8,2.1,1.4,4.8-1,6.2c-0.2,0.1-0.4,0.5-0.4,0.8c0,2.8,0,5.6,0,8.4c0,0.4,0.1,0.6,0.5,0.8
		c1.6,0.9,2.4,2.6,1.9,4.4c-0.5,1.7-2,2.9-3.7,2.9c-1.8,0-3.4-1.2-3.8-3c-0.4-1.7,0.4-3.4,2-4.4c0.2-0.1,0.5-0.5,0.5-0.7
		c0-2.8,0-5.6,0-8.4c0-0.4-0.1-0.6-0.5-0.8c-1.1-0.6-1.8-1.5-2-2.7c-0.1-0.2-0.3-0.5-0.5-0.6c-3.3-1-6.7-1.9-10.1-2.9
		c-0.2-0.1-0.7,0-0.9,0.2c-1.6,1.5-3.8,1.6-5.4,0.2s-1.7-3.7-0.3-5.4c0.1-0.2,0.2-0.6,0.1-0.8c-0.7-1.8-1.4-3.5-2.1-5.2
		c-0.1-0.2-0.4-0.4-0.6-0.5c-1.7-0.2-2.8-1.2-3.4-2.7c-0.1-0.2-0.4-0.5-0.6-0.6c-2-0.4-4.1-0.8-6.1-1.1c-0.2,0-0.5,0.1-0.6,0.2
		c-1.8,2.6-6.1,2-6.9-1.3L0,39.8c0-0.6,0-1.1,0-1.7c0.5-1.1,1.2-2.2,2.4-2.7c0.1,0,0.2-0.4,0.2-0.5c0-2.4,0-4.8,0-7.2
		c0-0.2-0.1-0.5-0.2-0.5c-1.2-0.5-1.8-1.5-2.4-2.6c0-0.6,0-1.3,0-1.9c0.1-0.1,0.1-0.1,0.2-0.2c0.9-2.1,2.3-3,4.6-2.6
		c0.2,0,0.6-0.2,0.7-0.4c1.7-2.1,3.4-4.2,5.1-6.3c0.2-0.2,0.2-0.6,0.1-0.9c-0.7-1.7-0.3-3.4,1.1-4.6c1.4-1.1,3.2-1.1,4.7-0.1
		c0.2,0.1,0.6,0.2,0.9,0.1c1.5-0.7,3-1.5,4.5-2.2c0.9-0.4,1.7-0.7,1.4-1.9c0-0.1,0-0.1,0.1-0.2c0.4-1.6,1.6-2.4,3-2.9
		c0.5,0,0.9,0,1.4,0c1.2,0.4,2.3,1.1,2.8,2.3C30.7,2.9,31,3,31.2,3c4.6,0,9.1,0,13.7,0c0.2,0,0.5-0.1,0.6-0.2
		c0.6-1.3,1.6-1.9,2.8-2.4C49,0,49.5,0,50,0z M42.7,51.5c0-0.2,0-0.6,0-0.6c-0.8-0.3-1.7-0.6-2.8-1c0.3,0.7,0.4,1.2,0.6,1.7
		c0.3,1.1,0.7,2.3,1,3.4c0.1,0,0.1,0,0.2,0C41.9,53.9,42.3,52.7,42.7,51.5z M54.7,19.7c0.1,0,0.2,0,0.3,0.1c2.4-2.1,4.7-4.2,7.1-6.4
		c0.1-0.1,0.2-0.4,0.2-0.7s-0.1-0.6-0.1-0.9c0-0.4-0.2-0.6-0.6-0.8c-3.1-1.4-6.1-2.8-9.1-4.2c-0.2-0.1-0.6,0-0.9,0.1
		c-1.1,0.8-2.4,1-3.7,0.6c-0.2-0.1-0.7,0-0.9,0.2c-1.7,1.6-3.4,3.2-5.2,4.8c-0.1,0.1-0.2,0.3-0.3,0.5c3,2.3,6,4.5,9,6.8
		c0.1,0.1,0.4,0.1,0.5,0.1C52.3,19.2,53.5,19.3,54.7,19.7L54.7,19.7z M59.3,35.4c-2.2,1.2-4.5,2.4-6.7,3.6c0,0.1,0,0.1,0,0.2
		c1.9,0.2,3.7,0.3,5.6,0.5c4.7,0.4,9.3,0.9,14.2,1.3c-3.1-2.6-6.1-5.1-9-7.5c-0.1-0.1-0.4-0.1-0.6,0C61.6,34.1,60.4,34.7,59.3,35.4z
		 M22.7,40.5c-0.2,0.2-0.4,0.3-0.7,0.5c0.2,0.1,0.4,0.3,0.6,0.4c0.1,0.1,0.3,0.1,0.4,0.1c4.2,1.4,8.4,2.8,12.8,4.3
		c-1.1-3.6-2.2-7.1-3.3-10.6c-1.3,0.7-2.5,1.3-3.7,1.9C26.8,38.4,24.8,39.5,22.7,40.5z M37.6,51.5c0-0.2-0.1-0.4-0.1-0.5
		c-0.2-1.5-1.1-2.3-2.6-2.7c-3-0.8-6-1.9-9-2.9c-1.4-0.5-2.8-1-4.3-1.5c-0.2-0.1-0.5,0-0.7,0.2c-0.1,0.1-0.1,0.5,0,0.7
		c0.7,1.7,1.4,3.5,2.1,5.2c0.1,0.2,0.4,0.5,0.6,0.5c1.9,0.3,3,1.3,3.5,3.2c0.1,0.2,0.3,0.5,0.5,0.5c3.4,1,6.8,2,10.2,2.9
		c0.6,0.2,1.4-0.5,1.2-1.2C38.6,54.4,38.1,52.9,37.6,51.5z M22.8,23.6c-1.8,0.1-3.6,0.1-5.4,0.2c0,0.3,0,0.4,0,0.5
		c0.5,4.2,1.1,8.5,1.6,12.7c0.1,1,1.1,0.8,1.6,1.3c0.1,0.1,0.6-0.2,1-0.3c3.3-1.7,6.5-3.3,9.8-5c0.2-0.1,0.3-0.5,0.2-0.8
		c-0.6-2-1.2-3.9-1.8-5.9c-0.1-0.2-0.4-0.4-0.7-0.6c-0.7-0.5-1.8-0.7-2.2-1.3c-0.7-1.1-1.6-1-2.5-0.9C23.9,23.5,23.4,23.6,22.8,23.6
		z M59.6,32.2c0.4-0.2,0.8-0.4,1.4-0.7c-0.6-0.4-1-0.8-1.5-1.2c-1.4-1.1-2.7-2.3-4.1-3.4c-0.2-0.1-0.6-0.1-0.8-0.1
		c-1.3,0.5-2.5,0.4-3.7-0.4c-0.2-0.1-0.6-0.2-0.9-0.1c-1.6,0.8-3.2,1.6-4.7,2.4c-1.4,0.8-2.9,1.5-4.3,2.3c0,0.1,0,0.2,0.1,0.2
		c1.7,1.7,3.3,3.4,5,5c0.1,0.1,0.5,0.2,0.7,0.1c1.2-0.4,2.3-0.2,3.4,0.5c0.2,0.1,0.6,0.2,0.8,0C53.8,35.4,56.7,33.8,59.6,32.2z
		 M48.2,50c3,1,6,2,9,3c0.4,0.1,0.6,0.1,1-0.2c1.2-1.1,2.6-1.4,4.1-0.8c0.5,0.2,0.7,0,1-0.2c3-2.5,6-5,8.9-7.5
		c0.2-0.1,0.4-0.2,0.6-0.3c-0.1-0.1-0.1-0.2-0.2-0.3c-0.3-0.1-0.7-0.1-1-0.2c-2.1-0.2-4.2-0.4-6.3-0.6c-2.9-0.2-5.8-0.5-8.6-0.7
		c-1.7-0.2-3.4-0.4-5-0.5c-0.2,0-0.5,0.2-0.6,0.4c-0.6,1-1.5,1.5-2.6,1.8c-0.2,0.1-0.6,0.2-0.6,0.4c-0.6,1.7-1.1,3.3-1.7,5.1
		C46.9,49.6,47.6,49.8,48.2,50z M56.9,22.7c0,0.5-0.1,1.1-0.1,1.6c0,0.2,0.1,0.4,0.2,0.5c0.4,0.4,0.9,0.7,1.3,1.1
		c1.6,1.3,3.2,2.7,4.8,4c0.2,0.1,0.6,0.1,0.8-0.1c2.6-1.4,5.1-2.8,7.7-4.2c0.6-0.3,1-0.6,0.9-1.4c0-0.4,0.3-0.9,0.3-1.3
		c0-0.3,0-0.6-0.1-0.8c-1.7-2.2-3.4-4.3-5.2-6.5c-0.1-0.2-0.5-0.2-0.8-0.3c-0.7-0.1-1.4,0-2.1-0.2c-0.4-0.1-0.7-0.1-1,0.2
		c-2.1,1.9-4.2,3.8-6.3,5.7C56.8,21.6,56.6,22,56.9,22.7z M24.5,20.9c0.4,0,0.8,0,1.2-0.1c0.2-0.1,0.5-0.2,0.6-0.4
		c1-2,2.8-2.7,4.9-2.1c0.2,0.1,0.5,0,0.7-0.1c1.8-1.7,3.6-3.4,5.4-5.1V13c-2.5-1.9-5-3.8-7.6-5.7c-0.2-0.1-0.5-0.1-0.8,0
		c-1.4,0.6-2.7,0.5-4-0.4c-0.2-0.1-0.6-0.2-0.9-0.1c-1.8,0.9-3.6,1.8-5.4,2.7c-0.4,0.2-0.5,0.4-0.5,0.8c0,1.1-0.4,2.1-1.3,2.7
		c-0.8,0.5-0.8,1.1-0.7,1.9c0.3,2.1,0.6,4.2,0.8,6.3C19.6,21.2,22.1,21.1,24.5,20.9z M14.8,24c-2.3,0.1-4.5,0.2-6.7,0.4
		c-0.2,0-0.5,0.2-0.6,0.4c-0.4,0.8-0.9,1.4-1.7,1.8c-0.4,0.2-0.5,0.4-0.5,0.8c0,2.4,0,4.7,0,7.1c0,0.3,0.2,0.6,0.5,0.7
		c0.9,0.5,1.6,1.2,1.9,2.3c0.1,0.4,0.3,0.6,0.7,0.6c2,0.3,4,0.7,6.1,1.1c0.2,0,0.4,0,0.5-0.1c1.5-1.2,1.7-1.6,1.4-3.6
		c0-0.3-0.1-0.6-0.1-0.8C15.8,31.3,15.3,27.7,14.8,24z M39.5,14.7c-2,1.8-3.9,3.6-5.8,5.4c-0.2,0.2-0.2,0.5-0.2,0.8
		c0,0.7-0.1,1.5,0,2.2c0,0.3,0,0.7,0.2,0.9c1.6,1.6,3.2,3.2,4.8,4.8c0.1,0.1,0.5,0.2,0.7,0.1c3.2-1.6,6.4-3.3,9.6-5
		c0.5-0.2,0.6-1.8,0.2-2.1C45.9,19.5,42.7,17.1,39.5,14.7z M43.7,48.5c0.6-1.7,1.2-3.4,1.7-5c0.1-0.2-0.1-0.5-0.3-0.7
		c-1-1.1-1.3-2.4-0.9-3.8c0.1-0.3,0-0.7-0.2-0.9c-1.7-1.8-3.5-3.6-5.3-5.3c-0.2-0.2-0.6-0.2-0.8-0.1c-0.9,0.4-1.7,0.9-2.5,1.3
		c-0.4,0.2-0.5,0.4-0.3,0.8c1.2,3.9,2.4,7.9,3.7,11.8c0.1,0.2,0.3,0.5,0.6,0.6C40.8,47.5,42.2,48,43.7,48.5z M65.5,31.9
		c2.9,2.4,5.7,4.8,8.6,7.1c0.4,0.4,1,0.1,1-0.4c0-3.4,0-6.7,0-10.1c0-0.5-1.2-1.2-1.6-1C70.9,29,68.3,30.4,65.5,31.9z M31.2,5.2
		c2.8,2.1,5.4,4.1,8.1,6.1c2.1-2,4.2-4,6.4-5.9c0-0.1-0.1-0.1-0.1-0.2C40.8,5.2,36.1,5.2,31.2,5.2z M14.5,21.4
		c-0.3-2.3-0.6-4.6-0.9-6.8c0-0.2-0.2-0.4-0.2-0.6c-0.2,0.1-0.4,0.1-0.6,0.3c-1.8,2.2-3.5,4.3-5.2,6.5c-0.1,0.1-0.1,0.4-0.1,0.6
		c0,0.1,0.3,0.3,0.5,0.2C10.1,21.7,12.2,21.6,14.5,21.4z M32.7,26.9c0.5,1.7,1,3.2,1.5,4.7c0.8-0.4,1.5-0.8,2.1-1.1
		C35.1,29.3,34,28.2,32.7,26.9z M18.2,40.1c-0.7,0-1.3,0.6-1.3,1.3c0,0.7,0.5,1.2,1.2,1.3c0.7,0,1.3-0.5,1.4-1.2
		C19.5,40.7,18.9,40.1,18.2,40.1z M24.7,54.2c0-0.7-0.6-1.3-1.3-1.2c-0.7,0-1.3,0.6-1.2,1.3c0,0.7,0.6,1.2,1.3,1.2
		C24.1,55.5,24.7,54.9,24.7,54.2z M5.3,23.3C5.3,22.6,4.7,22,4,22s-1.2,0.5-1.3,1.2c0,0.7,0.5,1.3,1.2,1.4C4.6,24.6,5.3,24,5.3,23.3
		z M54.4,23.3c0-0.7-0.6-1.3-1.3-1.3c-0.7,0-1.3,0.6-1.3,1.3c0,0.6,0.6,1.2,1.2,1.3C53.7,24.6,54.4,24,54.4,23.3z M49.2,5.2
		c0.7,0,1.3-0.6,1.3-1.3S50,2.7,49.3,2.6c-0.7,0-1.3,0.5-1.3,1.2C47.9,4.5,48.5,5.1,49.2,5.2z M77.6,24.6c0-0.7-0.6-1.3-1.3-1.3
		c-0.7,0-1.3,0.6-1.3,1.3c0,0.7,0.6,1.2,1.3,1.2S77.6,25.3,77.6,24.6z M4,40.1c0.7,0,1.3-0.6,1.3-1.3c0-0.7-0.5-1.2-1.2-1.3
		c-0.7,0-1.3,0.5-1.3,1.2C2.7,39.4,3.3,40,4,40.1z M47.9,41.3c0.7,0,1.3-0.6,1.3-1.3c0-0.7-0.6-1.2-1.4-1.2c-0.7,0-1.2,0.6-1.2,1.3
		C46.6,40.8,47.2,41.3,47.9,41.3z M60.8,54.3c-0.7,0-1.3,0.6-1.3,1.3c0,0.7,0.6,1.3,1.3,1.2c0.7,0,1.2-0.5,1.2-1.2
		C62.1,54.9,61.6,54.3,60.8,54.3z M66,12.9c0.7,0,1.3-0.6,1.2-1.3c0-0.7-0.6-1.2-1.2-1.2c-0.7,0-1.3,0.6-1.3,1.3
		C64.7,12.3,65.3,12.9,66,12.9z M14.3,9.1c-0.7,0-1.3,0.5-1.3,1.3c0,0.7,0.5,1.2,1.2,1.3c0.7,0,1.3-0.5,1.3-1.2
		C15.6,9.7,15.1,9.1,14.3,9.1z M27.2,2.6c-0.7,0-1.3,0.6-1.3,1.3c0,0.6,0.6,1.2,1.3,1.3c0.7,0,1.3-0.6,1.3-1.3S27.9,2.6,27.2,2.6z
		 M41.5,75c-0.7,0-1.3,0.6-1.3,1.3s0.6,1.3,1.3,1.2c0.7,0,1.2-0.6,1.2-1.2C42.7,75.5,42.2,75,41.5,75z M62.1,76.2
		c0-0.7-0.6-1.3-1.3-1.3c-0.7,0-1.3,0.6-1.3,1.3s0.6,1.2,1.2,1.2C61.5,77.5,62.1,77,62.1,76.2z M41.5,60.7c0.7,0,1.3-0.6,1.3-1.3
		c0-0.7-0.5-1.2-1.2-1.2s-1.3,0.5-1.3,1.2C40.2,60.1,40.8,60.7,41.5,60.7z M31.1,21.9c0-0.7-0.6-1.3-1.3-1.3c-0.7,0-1.2,0.6-1.2,1.4
		c0,0.7,0.6,1.2,1.3,1.2C30.5,23.2,31.1,22.6,31.1,21.9z M76.4,41.4c-0.7,0-1.3,0.6-1.3,1.3c0,0.6,0.6,1.3,1.2,1.3
		c0.7,0,1.3-0.5,1.3-1.2C77.6,42,77.1,41.4,76.4,41.4z"/>
	<path class="st3" d="M2.8,2.7c0-0.9,0-1.8,0-2.7c0.8,0,1.7,0,2.5,0c0,0.9,0,1.8,0,2.7l0,0C4.4,2.7,3.6,2.7,2.8,2.7L2.8,2.7z"/>
	<path class="st3" d="M0.1,2.7c0.9,0,1.8,0,2.7,0l0,0c0,0.8,0,1.7,0,2.5l0,0c-0.9,0-1.8,0-2.7,0C0.1,4.3,0.1,3.5,0.1,2.7z"/>
	<path class="st4" d="M15.6,64.6c0-0.8,0-1.7,0-2.6c0.9,0,1.7,0,2.6,0c0,0.9,0,1.7,0,2.6l0,0C17.4,64.6,16.5,64.6,15.6,64.6
		L15.6,64.6z"/>
	<path class="st4" d="M18.3,67.1c0,0.9,0,1.7,0,2.6c-0.9,0-1.7,0-2.6,0c0-0.9,0-1.7,0-2.6l0,0C16.5,67.1,17.4,67.1,18.3,67.1
		L18.3,67.1z"/>
	<path class="st5" d="M69.9,64.6c0,0.8,0,1.7,0,2.5c-0.9,0-1.7,0-2.6,0c0-0.9,0-1.7,0-2.5l0,0C68.1,64.6,69,64.6,69.9,64.6
		L69.9,64.6z"/>
	<path class="st3" d="M7.9,50.4c0,0.7,0,1.3,0,2c0,0.4-0.1,0.6-0.6,0.6c-0.6,0-1.3,0-2,0c0-0.9,0-1.7,0-2.6
		C6.2,50.4,7.1,50.4,7.9,50.4L7.9,50.4z"/>
	<path class="st5" d="M69.9,62c0.8,0,1.6,0,2.5,0c0,0.9,0,1.7,0,2.6c-0.9,0-1.7,0-2.5,0l0,0C69.9,63.7,69.9,62.8,69.9,62L69.9,62z"
		/>
	<path class="st3" d="M10.4,53.1c0-0.9,0-1.8,0-2.7l0,0c0.8,0,1.7,0,2.6,0c0,0.9,0,1.7,0,2.6C12.1,53,11.3,53,10.4,53.1L10.4,53.1z"
		/>
	<path class="st3" d="M77.6,7.8c0.9,0,1.7,0,2.6,0c0,0.8,0,1.6,0,2.5c-0.9,0-1.7,0-2.6,0l0,0C77.6,9.5,77.6,8.7,77.6,7.8L77.6,7.8z"
		/>
	<path class="st3" d="M75.1,7.8c0-0.9,0-1.7,0-2.6c0.8,0,1.6,0,2.5,0c0,0.9,0,1.7,0,2.6l0,0C76.7,7.8,75.9,7.8,75.1,7.8L75.1,7.8z"
		/>
	<path class="st3" d="M75.1,10.3c-0.8,0-1.7,0-2.6,0c0-0.9,0-1.7,0-2.5c0.9,0,1.7,0,2.6,0l0,0C75.1,8.7,75.1,9.5,75.1,10.3
		L75.1,10.3z"/>
	<path class="st5" d="M67.2,64.6c-0.8,0-1.6,0-2.5,0c0-0.9,0-1.7,0-2.6c0.8,0,1.6,0,2.5,0l0,0C67.2,62.8,67.2,63.7,67.2,64.6
		L67.2,64.6z"/>
	<path class="st5" d="M67.2,62c0-0.8,0-1.6,0-2.5c0.9,0,1.7,0,2.7,0c0,0.8,0,1.6,0,2.5l0,0C69,62,68.1,62,67.2,62L67.2,62z"/>
	<path class="st3" d="M77.6,10.3c0,0.8,0,1.7,0,2.6c-0.8,0-1.6,0-2.5,0c0-0.9,0-1.7,0-2.6l0,0C75.9,10.3,76.7,10.3,77.6,10.3
		L77.6,10.3z"/>
	<path class="st3" d="M7.9,50.4c0-0.8,0-1.6,0-2.5c0.8,0,1.6,0,2.5,0c0,0.8,0,1.7,0,2.5l0,0C9.6,50.4,8.8,50.4,7.9,50.4L7.9,50.4z"
		/>
	<path class="st3" d="M10.4,53c0,0.8,0,1.6,0,2.5c-0.8,0-1.7,0-2.5,0c0-0.8,0-1.6,0-2.4C8.8,53.1,9.6,53.1,10.4,53
		C10.4,53.1,10.4,53,10.4,53z"/>
	<path class="st3" d="M15.6,67.1c-0.8,0-1.6,0-2.5,0c0-0.8,0-1.6,0-2.5c0.8,0,1.7,0,2.5,0l0,0C15.6,65.5,15.6,66.3,15.6,67.1
		L15.6,67.1z"/>
	<path class="st3" d="M18.3,64.6c0.8,0,1.6,0,2.5,0c0,0.8,0,1.6,0,2.5c-0.8,0-1.6,0-2.5,0l0,0C18.3,66.3,18.3,65.5,18.3,64.6
		L18.3,64.6z"/>
	<path class="st6" d="M39.5,14.7c3.2,2.4,6.4,4.8,9.5,7.2c0.4,0.3,0.3,1.9-0.2,2.1c-3.2,1.7-6.4,3.3-9.6,5c-0.2,0.1-0.6,0-0.7-0.1
		c-1.6-1.6-3.2-3.2-4.8-4.8c-0.2-0.3-0.2-0.7-0.2-1c0-0.7,0-1.5,0-2.2c0-0.3,0-0.6,0.2-0.8C35.6,18.3,37.5,16.5,39.5,14.7z"/>
	<path class="st7" d="M59.6,32.2c-2.9,1.6-5.7,3.2-8.6,4.7c-0.2,0.1-0.6,0.1-0.8,0c-1.1-0.7-2.2-0.9-3.4-0.5c-0.2,0.1-0.5,0-0.7-0.1
		c-1.7-1.7-3.4-3.3-5-5c0,0,0-0.1-0.1-0.2c1.4-0.7,2.9-1.5,4.3-2.3c1.6-0.8,3.1-1.6,4.7-2.4c0.2-0.1,0.7-0.1,0.9,0.1
		c1.2,0.8,2.4,0.9,3.7,0.4c0.2-0.1,0.6-0.1,0.8,0.1c1.4,1.1,2.7,2.3,4.1,3.4C59.5,30.9,59.5,31.6,59.6,32.2z"/>
	<path class="st8" d="M22.8,23.6c0.5,0,1.1-0.1,1.6-0.1c1-0.1,1.8-0.2,2.5,0.9c0.4,0.7,1.4,0.9,2.2,1.3c0.3,0.2,0.6,0.3,0.7,0.6
		c0.6,1.9,1.3,3.9,1.8,5.9c0.1,0.2,0,0.7-0.2,0.8c-3.2,1.7-6.5,3.4-9.8,5c-0.9-2.8-1.2-5.8-0.6-8.7C21.5,27.4,22.2,25.5,22.8,23.6z"
		/>
	<path class="st6" d="M43.7,48.5c-1.5-0.5-2.9-1-4.4-1.5c-0.2-0.1-0.5-0.4-0.6-0.6c-1.2-3.9-2.4-7.8-3.6-11.8
		c-0.1-0.4,0-0.6,0.3-0.8c0.8-0.4,1.7-0.9,2.5-1.3c0.2-0.1,0.6,0,0.8,0.1c1.8,1.7,3.6,3.5,5.3,5.3c0.2,0.2,0.3,0.6,0.2,0.9
		c-0.4,1.5-0.1,2.7,0.9,3.8c0.2,0.2,0.3,0.5,0.3,0.7C44.9,45.1,44.3,46.8,43.7,48.5z"/>
	<path class="st9" d="M22.7,40.5c2.1-1.1,4.1-2.2,6.2-3.3c1.2-0.6,2.4-1.3,3.7-1.9c1.1,3.5,2.2,6.9,3.3,10.6
		c-4.4-1.5-8.6-2.9-12.8-4.3C23,41.2,22.8,40.9,22.7,40.5z"/>
	<path class="st10" d="M56.8,42.2c-1.9,3.2-4.5,5.6-7.8,7.4c-0.3,0.1-0.5,0.3-0.7,0.4c-0.7-0.2-1.3-0.4-2-0.7
		c0.6-1.7,1.1-3.4,1.7-5.1c0.1-0.2,0.4-0.3,0.6-0.4c1.1-0.2,2-0.8,2.6-1.8c0.1-0.2,0.4-0.4,0.6-0.4C53.4,41.9,55.1,42,56.8,42.2z"/>
	<path class="st11" d="M41.6,13c3.6,0.3,6.9,1.4,9.8,3.6c1,0.7,1.9,1.7,2.9,2.5c0.2,0.2,0.3,0.4,0.4,0.6c-1.2-0.4-2.4-0.5-3.5,0.2
		c-0.1,0.1-0.4,0-0.5-0.1C47.6,17.5,44.6,15.3,41.6,13z"/>
	<path class="st11" d="M24.5,20.9c3.2-4.3,7.5-6.9,12.8-7.8c-1.8,1.7-3.6,3.4-5.4,5.1c-0.1,0.1-0.5,0.2-0.7,0.1
		c-2.1-0.7-3.9,0.1-4.9,2.1c-0.1,0.2-0.4,0.4-0.6,0.4C25.3,20.9,24.9,20.9,24.5,20.9z"/>
	<path class="st12" d="M37.6,51.5c-4.7-0.6-8.5-2.6-11.7-6.1c3,1,5.9,2.1,9,2.9c1.5,0.4,2.4,1.1,2.6,2.7
		C37.5,51.1,37.6,51.3,37.6,51.5z"/>
	<path class="st13" d="M59.3,35.4c-0.4,1.4-0.7,2.9-1.1,4.3c-1.9-0.2-3.7-0.3-5.6-0.5c0-0.1,0-0.1,0-0.2
		C54.8,37.8,57,36.6,59.3,35.4z"/>
	<path class="st13" d="M32.7,26.9c1.3,1.3,2.4,2.5,3.6,3.6c-0.6,0.3-1.3,0.7-2.1,1.1C33.7,30,33.2,28.5,32.7,26.9z"/>
	<path class="st14" d="M54.4,23.3c0,0.7-0.7,1.3-1.3,1.3c-0.6,0-1.2-0.6-1.2-1.3c0-0.7,0.6-1.3,1.3-1.3C53.8,22,54.4,22.6,54.4,23.3
		z"/>
	<path class="st14" d="M47.9,41.3c-0.7,0-1.3-0.6-1.3-1.3c0-0.7,0.5-1.2,1.2-1.3c0.7,0,1.3,0.5,1.4,1.2
		C49.2,40.7,48.7,41.3,47.9,41.3z"/>
	<path class="st14" d="M31.1,21.9c0,0.7-0.6,1.3-1.3,1.3c-0.7,0-1.2-0.5-1.3-1.2c0-0.7,0.5-1.3,1.2-1.4
		C30.5,20.6,31.1,21.2,31.1,21.9z"/>
	<path class="st14" d="M42.7,51.5c-0.7,0.1-1.5,0.1-2.2,0.2c-0.2-0.5-0.3-1-0.6-1.7c1.1,0.4,1.9,0.6,2.8,1
		C42.7,50.9,42.7,51.3,42.7,51.5z"/>
	<path class="st14" d="M56.9,22.7c0.5,1.1,0.9,2.1,1.4,3.2c-0.4-0.3-0.9-0.7-1.3-1.1c-0.1-0.1-0.2-0.3-0.2-0.5
		C56.8,23.8,56.9,23.2,56.9,22.7z"/>
	<path class="st11" d="M54.7,19.7c0.1,0,0.2,0,0.3,0.1C54.9,19.7,54.8,19.7,54.7,19.7z"/>
	<path class="st3" d="M5.3,5.2c0,0.8,0,1.6,0,2.5c-0.8,0-1.6,0-2.5,0c0-0.8,0-1.7,0-2.5l0,0C3.6,5.2,4.4,5.2,5.3,5.2L5.3,5.2z"/>
	<path class="st3" d="M5.3,2.7c0.8,0,1.6,0,2.5,0c0,0.8,0,1.6,0,2.5c-0.8,0-1.7,0-2.5,0l0,0C5.3,4.3,5.3,3.5,5.3,2.7L5.3,2.7z"/>
</g>
</svg>
