<?xml version="1.0" encoding="utf-8"?>
<!-- Generator: Adobe Illustrator 26.0.3, SVG Export Plug-In . SVG Version: 6.00 Build 0)  -->
<svg version="1.1" id="Layer_1" xmlns="http://www.w3.org/2000/svg" xmlns:xlink="http://www.w3.org/1999/xlink" x="0px" y="0px"
	 viewBox="0 0 95 71.4" style="enable-background:new 0 0 95 71.4;" xml:space="preserve">
<style type="text/css">
	.st0{fill:#2AB2FD;}
	.st1{fill:#2BB2FD;}
	.st2{fill:#2CB3FD;}
	.st3{fill:#2EB4FD;}
	.st4{fill:#2EB5FD;}
	.st5{fill:#2FB5FD;}
</style>
<g>
	<g>
		<path class="st0" d="M60.1,12.5c-0.7,4.3-1.4,8.4-2.1,12.4S56.7,33,55.9,37c-0.1,0.7-0.4,1.4-0.9,1.9c-4.3,4.3-8.7,8.6-13.1,12.8
			c-0.1,0.1-0.3,0.2-0.5,0.3c-2.4-2.5-4.7-5-7.1-7.6c-1.6-1.7-3.2-3.4-4.8-5.1c-0.7-0.7-0.8-1.2-0.3-2.2c4.3-8.1,8.6-16.3,13-24.4
			c0.3-0.5,1-1.2,1.5-1.2C49.1,11.8,54.5,12.2,60.1,12.5z"/>
		<path class="st1" d="M1.2,9.3c13.4,0.7,26.4,1.4,39.5,2.1c-4.6,8.5-9,16.8-13.6,25.3C18.6,27.7,10.1,18.7,1.2,9.3z"/>
		<path class="st2" d="M22.8,69.9c2.2-9.1,4.5-18.1,6.8-27.5c3.6,3.9,7,7.5,10.5,11.2c-5.7,5.6-11.3,11-16.9,16.5
			C23,70,22.9,70,22.8,69.9z"/>
		<path class="st3" d="M56,1.4c12.9,0,25.3,0,37.8,0c0,0.1,0,0.1,0,0.2C89.7,2.7,85.7,3.9,81.6,5c-5.9,1.6-11.9,3.3-17.8,4.9
			c-1.1,0.3-1.7,0.1-2.4-0.9C59.8,6.5,58,4.1,56,1.4z"/>
		<path class="st4" d="M44.1,9.7c3.3-3,6.2-5.6,9.3-8.4c2.1,3,4.1,5.8,6.4,9C54.5,10.1,49.5,9.9,44.1,9.7z"/>
		<path class="st5" d="M37.8,9.4c-1.2-0.1-2.4-0.2-3.6-0.3c-4-0.2-7.9-0.5-11.9-0.7C21.2,8.3,20.4,8,20,6.8
			c-0.7-1.7-1.6-3.3-2.6-5.4C24.5,4,31.3,6.5,38,9C37.9,9,37.8,9.2,37.8,9.4z"/>
	</g>
	<path d="M23.1,71.4c-0.2,0-0.4-0.1-0.6-0.2c-0.5-0.3-0.7-0.8-0.6-1.4l6.4-27.4l-2.2-5L0.3,10.2C0,9.8-0.1,9.3,0.1,8.8S0.7,8,1.2,8
		l0,0l18.2,0.1l-3.2-6.2c-0.2-0.5-0.2-1,0.2-1.4c0.3-0.4,0.9-0.5,1.4-0.4l24.5,8.8l10.4-8.6C52.9,0.1,53.2,0,53.5,0h2.6h37.7
		c0.6,0,1.1,0.5,1.2,1.1s-0.3,1.2-0.9,1.4l-31,8.9l-1.9,1.7l-4.4,25.4c0,0.3-0.2,0.5-0.4,0.7L42.3,52.9L23.9,71
		C23.8,71.2,23.4,71.4,23.1,71.4z M4.1,10.6L28,35.9c0.1,0.1,0.2,0.2,0.2,0.4l2.4,5.6c0.1,0.2,0.1,0.5,0.1,0.8l-5.5,23.6l15.3-15.1
		l14-13.5l4.4-25.5c0-0.3,0.2-0.5,0.4-0.7l2.5-2.1c0.1-0.1,0.3-0.2,0.5-0.3L85,2.6H56h-2.2l-10.6,8.8c-0.3,0.3-0.8,0.4-1.2,0.2
		l-22.2-8l2.7,5.2c0.2,0.4,0.2,0.9,0,1.2c-0.2,0.4-0.6,0.6-1.1,0.6l0,0H4.1z"/>
	<path d="M40.8,54.2c-0.3,0-0.7-0.1-0.9-0.4L27.3,40c-0.5-0.5-0.4-1.3,0.1-1.8s1.3-0.4,1.8,0.1l12.6,13.8c0.5,0.5,0.4,1.3-0.1,1.8
		C41.4,54.1,41.1,54.2,40.8,54.2z"/>
	<path d="M61.8,12.3c-0.4,0-0.8-0.2-1-0.5l-6.9-9.7c-0.4-0.6-0.3-1.3,0.3-1.7c0.6-0.4,1.3-0.3,1.7,0.3l6.9,9.7
		c0.4,0.6,0.3,1.3-0.3,1.7C62.3,12.2,62,12.3,61.8,12.3z"/>
	<path d="M27.6,39c-0.2,0-0.4,0-0.6-0.2c-0.6-0.3-0.8-1.1-0.5-1.7l13.9-25.6l-19.5-1c-0.7,0-1.2-0.6-1.2-1.3S20.3,8,21,8l21.5,1.1
		c0.4,0,0.8,0.3,1,0.6c0.2,0.4,0.2,0.8,0,1.2L28.7,38.4C28.5,38.8,28,39,27.6,39z"/>
	<path d="M60.7,12.3C60.7,12.3,60.6,12.3,60.7,12.3l-18.2-0.7c-0.7,0-1.2-0.6-1.2-1.3s0.6-1.2,1.3-1.2l18.2,0.7
		c0.7,0,1.2,0.6,1.2,1.3C61.9,11.8,61.3,12.3,60.7,12.3z"/>
</g>
</svg>
