<?xml version="1.0" encoding="utf-8"?>
<!-- Generator: Adobe Illustrator 26.0.3, SVG Export Plug-In . SVG Version: 6.00 Build 0)  -->
<svg version="1.1" id="Layer_1" xmlns="http://www.w3.org/2000/svg" xmlns:xlink="http://www.w3.org/1999/xlink" x="0px" y="0px"
	 viewBox="0 0 79.9 89.9" style="enable-background:new 0 0 79.9 89.9;" xml:space="preserve">
<style type="text/css">
	.st0{fill:none;stroke:#000000;stroke-width:1.5869;stroke-linecap:round;stroke-miterlimit:10;}
	.st1{fill:#040303;}
	.st2{opacity:0.8;fill:#103F84;enable-background:new    ;}
	.st3{opacity:0.8;fill:#154EAA;enable-background:new    ;}
	.st4{fill:#1955CD;}
</style>
<g>
	<g>
		<path d="M78.3,11.9c-0.8,0-1.5-0.7-1.5-1.5V3.1h-9.1c-0.8,0-1.5-0.7-1.5-1.5s0.7-1.5,1.5-1.5h12.2v10.4
			C79.9,11.2,79.2,11.9,78.3,11.9z"/>
		<path d="M1.5,11.9c-0.8,0-1.5-0.7-1.5-1.5V0h12.1c0.8,0,1.5,0.7,1.5,1.5S12.9,3,12.1,3H3v7.3C3.1,11.2,2.4,11.9,1.5,11.9z"/>
		<path d="M79.9,89.9H67.8c-0.8,0-1.5-0.7-1.5-1.5s0.7-1.5,1.5-1.5h9.1v-7.3c0-0.8,0.7-1.5,1.5-1.5s1.5,0.7,1.5,1.5V89.9z"/>
		<path d="M12.1,89.9H0V79.5C0,78.7,0.7,78,1.5,78S3,78.7,3,79.5v7.3h9.1c0.8,0,1.5,0.7,1.5,1.5C13.7,89.2,13,89.9,12.1,89.9z"/>
	</g>
	<g>
		<line class="st0" x1="47.2" y1="49.9" x2="71.4" y2="62.5"/>
		<line class="st0" x1="9" y1="62.8" x2="32.3" y2="50"/>
		<path class="st1" d="M39.9,84.1c-0.4,0-0.8-0.2-1.4-0.5c-6.2-4-12.4-7.9-18.6-11.8l-5-3.1c-0.3-0.2-0.6-0.4-0.9-0.5L13.6,68L12,67
			c-1.3-0.9-2.7-1.8-4-2.6c-0.8-0.5-1.1-1-1.1-2c0-11.6,0-23.3,0-34.9c0-0.9,0.3-1.4,1-1.9c1.4-0.9,2.9-1.8,4.3-2.8l1.8-1.2
			c0.3-0.2,0.7-0.4,1-0.6c0.8-0.5,1.6-1,2.5-1.5c0.5-0.3,0.9-0.5,1.2-0.5c0.1,0,0.4,0,0.9,0.4c0.3,1.2,0.2,1.2-0.9,2
			c-1.5,0.9-2.9,1.9-4.5,2.8l-4.1,2.6l6.8,4.3c7.1,4.5,14.2,9,21.3,13.4c0.4,0.3,1,0.4,1.6,0.4c0.8,0,1.5-0.2,2.1-0.6
			c4.2-2.6,8.4-5.2,12.5-7.8l14.5-9.2l-1.2-1.4l-0.1-0.2c-0.1-0.2-0.3-0.4-0.7-0.6l-2.5-1.6c-7.6-4.8-15.2-9.6-22.8-14.4
			c-0.4-0.3-0.9-0.4-1.6-0.4s-1.4,0.2-1.9,0.5c-3.3,2-6.3,3.9-9.1,5.7c-0.5,0.3-1,0.5-1.3,0.5c-0.2,0-0.5,0-0.9-0.4
			c-0.3-1.2-0.2-1.2,1.1-2c1.2-0.7,2.4-1.5,3.5-2.2c2.4-1.5,4.9-3.1,7.3-4.6c0.4-0.3,0.8-0.4,1.2-0.4c0.3,0,0.7,0.1,1.2,0.4
			c10.2,6.4,20.3,12.9,30.5,19.2c0.9,0.6,1.2,1.1,1.2,2.2c0,11.6,0,23.1,0,34.7c0,1-0.3,1.6-1.2,2.2c-10.1,6.4-20.3,12.7-30.4,19.2
			C40.8,83.9,40.3,84.1,39.9,84.1z M9.2,37.2c0,7.9,0,15.7,0.1,23.5c0,1.2,1,2.4,1.9,3c4.7,3,9.5,6.1,14.3,9.1l12.9,8.1l0.3-2.5
			l0.1-0.5c0-0.3,0.1-0.6,0.1-0.8v-4.4c0-7.6,0-15.5-0.1-23.2c0-1.3-1-2.7-2-3.3c-6.7-4.3-13.5-8.6-20.2-12.8l-3.2-2
			c-0.3-0.2-0.7-0.4-1.1-0.6l-0.6-0.3l-2.4-1.3L9.2,37.2z M68.3,30.3l-0.5,0.3c-0.3,0.2-0.5,0.3-0.7,0.4l-4.3,2.7
			c-6.6,4.2-13.4,8.4-20.1,12.7c-1.1,0.7-1.7,2.3-1.7,3.5c-0.1,7.5-0.1,15,0,22.5v4.2c0,0.3,0,0.7,0.1,1.1l0.2,2.9l2.1-1l0.4-0.2
			c0.3-0.1,0.6-0.3,0.8-0.4l3.8-2.4C55.1,72.4,62,68,68.8,63.7c1-0.7,1.8-2.1,1.8-3.4c0.1-6.9,0.1-13.7,0.1-20.6V29.3L68.3,30.3z"/>
		<path class="st2" d="M69.1,31.7c0,1,0,1.7,0,2.4c0,8.7,0,17.3,0,26c0,0.7-0.5,1.7-1.1,2.1c-8,5.2-16.1,10.2-24.2,15.3
			c-0.3,0.2-0.6,0.3-1.1,0.5c0-0.6-0.1-1.1-0.1-1.5c0-8.9,0-17.8,0-26.7c0-0.7,0.4-1.8,1-2.2c8.1-5.2,16.2-10.3,24.3-15.4
			C68.2,32.2,68.5,32.1,69.1,31.7z"/>
		<path class="st3" d="M37.1,78.2c-2.4-1.5-4.6-2.9-6.9-4.3c-6.1-3.8-12.1-7.6-18.2-11.5c-0.5-0.4-1.2-1.1-1.2-1.7
			c-0.1-9.5-0.1-19.1-0.1-28.9c0.7,0.4,1.2,0.6,1.6,0.9c7.8,4.9,15.7,9.8,23.4,14.8c0.6,0.4,1.3,1.3,1.3,2
			c0.1,9.2,0.1,18.4,0.1,27.6C37.2,77.3,37.1,77.6,37.1,78.2z"/>
		<polygon class="st4" points="12.9,26.8 39.9,10.3 66,26.8 39.5,42.7 		"/>
	</g>
</g>
</svg>
