<svg width="56" height="56" viewBox="0 0 56 56" fill="none" xmlns="http://www.w3.org/2000/svg">
<path d="M0 34.7812C0 26.0312 0 17.2812 0 8.53125C0.0379167 8.37521 0.083125 8.22062 0.110833 8.06167C0.695625 4.70312 2.40625 2.16125 5.5475 0.711667C6.27812 0.374792 7.09625 0.231875 7.875 0C21.2917 0 34.7083 0 48.125 0C48.1702 0.0277083 48.2125 0.0714583 48.2621 0.0802083C52.1558 0.765625 54.4731 3.17333 55.6223 6.84104C55.7944 7.39083 55.876 7.96833 56 8.53271C56 17.2827 56 26.0327 56 34.7827C55.9621 34.9387 55.9125 35.0933 55.8906 35.2508C55.2271 39.7906 51.5112 43.4612 46.7425 43.3387C43.2848 43.2498 39.8227 43.3344 36.3635 43.3081C35.8415 43.3037 35.5658 43.4437 35.3194 43.9221C33.476 47.4935 31.5919 51.0431 29.7398 54.6102C29.4292 55.2081 29.066 55.7171 28.439 56C28.1473 56 27.8556 56 27.564 56C26.9354 55.7185 26.5723 55.2067 26.2631 54.6087C24.411 51.0431 22.5269 47.4935 20.6835 43.9221C20.4371 43.4437 20.1615 43.3037 19.6394 43.3081C16.1437 43.3329 12.6481 43.3227 9.15104 43.3183C8.715 43.3183 8.27167 43.3242 7.84437 43.2542C3.99583 42.6271 1.63771 40.2996 0.441875 36.6858C0.23625 36.0704 0.144375 35.4171 0 34.7812ZM32.4012 18.2525C35.4433 14.7671 34.0667 10.7771 31.9462 9.0125C29.4758 6.95771 25.8781 7.06125 23.5317 9.31146C21.3208 11.4304 20.7156 15.2863 23.4106 18.2365C23.2808 18.3094 23.1583 18.3837 23.03 18.4479C19.1698 20.4152 17.1267 23.5667 16.9196 27.8877C16.835 29.6494 18.1373 31.0304 19.9048 31.0377C25.2437 31.0596 30.5812 31.061 35.9202 31.0362C37.644 31.0275 38.9258 29.6873 38.866 27.9679C38.7188 23.6833 36.7077 20.545 32.9379 18.5237C32.7629 18.4304 32.585 18.3458 32.4012 18.2525Z" fill="#FD7D00"/>
<path d="M35.5775 27.7113C30.45 27.7113 25.3779 27.7113 20.2344 27.7113C20.3963 25.2467 21.4565 23.3013 23.4865 21.9931C26.1552 20.2738 29.0048 20.2081 31.7844 21.6767C34.1367 22.9221 35.3427 25.0104 35.5775 27.7113Z" fill="#FD7D00"/>
<path d="M30.8787 13.841C30.8641 15.4773 29.4889 16.8204 27.857 16.7898C26.2281 16.7606 24.917 15.4335 24.9185 13.8148C24.9185 12.1756 26.2718 10.8281 27.9095 10.8354C29.5443 10.8427 30.8933 12.2077 30.8787 13.841Z" fill="#FD7D00"/>
</svg>
