<svg width="33" height="33" viewBox="0 0 33 33" fill="none" xmlns="http://www.w3.org/2000/svg">
<path d="M22.7708 32.3506C15.4202 32.3506 8.06971 32.3506 0.719183 32.3506C0.115643 32.1404 0 31.9792 0 31.336C0 21.2159 0 11.0967 0 0.976638C0 0.24226 0.247325 0 0.990987 0C8.15159 0 15.3122 0 22.4728 0C23.2384 0 23.4739 0.233819 23.4739 0.996052C23.4739 11.1051 23.4739 21.2142 23.4739 31.3233C23.4739 31.975 23.3659 32.132 22.7708 32.3506ZM11.4284 23.2409C11.4284 22.1149 11.4386 20.9888 11.4259 19.8628C11.409 18.3383 10.375 17.3153 8.85642 17.3085C7.96166 17.3043 7.06775 17.3043 6.17299 17.3085C4.65274 17.3161 3.61533 18.3459 3.61027 19.8653C3.60267 22.1064 3.60351 24.3484 3.61027 26.5895C3.61449 28.1267 4.65021 29.1531 6.19156 29.1624C7.05424 29.1674 7.91777 29.1649 8.78045 29.1632C10.3986 29.1598 11.4217 28.1418 11.4284 26.5237C11.4318 25.4297 11.4284 24.3357 11.4284 23.2409ZM11.8015 8.71461C9.4971 8.71461 7.19268 8.71461 4.88741 8.71461C4.77176 8.71461 4.65528 8.70955 4.54048 8.71883C4.12349 8.75428 3.8272 8.97038 3.67864 9.35698C3.53092 9.74105 3.59929 10.1015 3.88545 10.4087C4.11758 10.6586 4.41471 10.7304 4.74391 10.7304C9.43717 10.7287 14.1304 10.7295 18.8245 10.7287C18.9191 10.7287 19.0145 10.7244 19.1065 10.7067C19.6484 10.6054 19.9827 10.1656 19.9379 9.61697C19.8949 9.08264 19.4703 8.7163 18.8735 8.71546C16.5159 8.71292 14.1583 8.71461 11.8015 8.71461ZM11.7112 14.9771C11.9113 14.9771 12.1113 14.9771 12.3114 14.9771C14.4689 14.9771 16.6265 14.9779 18.784 14.9762C19.3251 14.9754 19.7277 14.6808 19.8451 14.2106C20.0105 13.548 19.5091 12.963 18.7595 12.9622C16.4332 12.958 14.1076 12.9605 11.7813 12.9605C9.44477 12.9605 7.10827 12.9537 4.77176 12.9698C4.51347 12.9715 4.22647 13.055 4.00531 13.1884C3.64403 13.407 3.52332 13.8797 3.65163 14.2798C3.78837 14.7061 4.1716 14.9745 4.66963 14.9754C7.0171 14.9779 9.36373 14.9771 11.7112 14.9771ZM11.772 6.4659C13.6763 6.4659 15.5815 6.46674 17.4858 6.4659C18.0015 6.4659 18.5173 6.47687 19.0322 6.45408C19.4973 6.43382 19.8712 6.07001 19.932 5.62601C19.9995 5.13051 19.7446 4.67385 19.2854 4.52697C19.0997 4.46788 18.8921 4.46198 18.6945 4.46198C14.0857 4.4586 9.47684 4.45944 4.86799 4.46029C4.73125 4.46029 4.59366 4.46113 4.4586 4.47886C3.99265 4.53963 3.63728 4.93046 3.6128 5.3981C3.57988 6.03878 4.01966 6.4659 4.73209 6.46674C7.07872 6.46759 9.42535 6.4659 11.772 6.4659Z" fill="#2C2C2C"/>
<path d="M28.141 32.3507C27.7274 32.1372 27.6041 31.7962 27.6219 31.3412C27.6514 30.5773 27.6303 29.8108 27.6303 29.0283C29.1835 29.0283 30.7037 29.0283 32.2721 29.0283C32.2721 29.2967 32.2721 29.5559 32.2721 29.8142C32.2721 30.2979 32.2493 30.7841 32.278 31.2661C32.3101 31.797 32.1134 32.1574 31.6162 32.3507C30.4581 32.3507 29.3 32.3507 28.141 32.3507Z" fill="#2C2C2C"/>
<path d="M32.251 27.0077C30.7046 27.0077 29.1919 27.0077 27.6548 27.0077C27.6548 21.6974 27.6548 16.3989 27.6548 11.0835C29.1877 11.0835 30.7088 11.0835 32.251 11.0835C32.251 16.3921 32.251 21.6839 32.251 27.0077Z" fill="#2C2C2C"/>
<path d="M27.6346 9.01793C28.1773 7.5534 28.71 6.11841 29.2426 4.68258C29.3338 4.43694 29.4022 4.17695 29.5321 3.95242C29.6039 3.82833 29.7769 3.70256 29.912 3.69328C30.031 3.68484 30.2311 3.80976 30.2767 3.92288C30.9494 5.60688 31.6019 7.29848 32.2704 9.01709C30.7114 9.01793 29.1928 9.01793 27.6346 9.01793Z" fill="#2C2C2C"/>
<path d="M9.42618 22.2173C8.14144 22.2173 6.89637 22.2173 5.62176 22.2173C5.61585 22.105 5.60657 22.0037 5.60657 21.9016C5.60572 21.2288 5.6015 20.5569 5.60826 19.8842C5.61248 19.4773 5.76273 19.3262 6.15946 19.3245C7.07364 19.3211 7.98781 19.3203 8.90198 19.3254C9.24554 19.3271 9.42027 19.4841 9.42449 19.8166C9.43377 20.6042 9.42618 21.3909 9.42618 22.2173Z" fill="#2C2C2C"/>
<path d="M9.42032 24.2715C9.42032 25.1046 9.43214 25.9217 9.41357 26.7388C9.40766 27.0047 9.20592 27.1516 8.94171 27.1541C7.99546 27.1609 7.04921 27.1609 6.10296 27.155C5.82525 27.1533 5.6235 27.0039 5.61844 26.7194C5.6024 25.9124 5.61253 25.1046 5.61253 24.2723C6.88798 24.2715 8.14065 24.2715 9.42032 24.2715Z" fill="#2C2C2C"/>
</svg>
