<?xml version="1.0" encoding="utf-8"?>
<!-- Generator: Adobe Illustrator 26.0.3, SVG Export Plug-In . SVG Version: 6.00 Build 0)  -->
<svg version="1.1" id="_x2014_ëîé_x5F_1" xmlns="http://www.w3.org/2000/svg" xmlns:xlink="http://www.w3.org/1999/xlink"
	 x="0px" y="0px" viewBox="0 0 351.73 393.75" style="enable-background:new 0 0 351.73 393.75;" xml:space="preserve">
<style type="text/css">
	.st0{fill:#1955CC;}
	.st1{fill:#FD7D00;}
	.st2{enable-background:new    ;}
	.st3{fill:#0E3175;}
	.st4{clip-path:url(#SVGID_00000146476853151282993870000008354061538312269977_);enable-background:new    ;}
	.st5{fill:#0E2E6E;}
	.st6{fill:#0D2C6A;}
	.st7{fill:#0D2B68;}
	.st8{fill:#123C90;}
	.st9{fill:#164AB2;}
	.st10{clip-path:url(#SVGID_00000003097961325853813390000006162998437798050710_);enable-background:new    ;}
	.st11{fill:#113887;}
	.st12{fill:#103683;}
	.st13{fill:#10357E;}
	.st14{clip-path:url(#SVGID_00000006704635945974757850000015995166052724082364_);enable-background:new    ;}
	.st15{fill:#0E3072;}
	.st16{fill:#0F3176;}
	.st17{fill:#0F337A;}
	.st18{fill:#2C2C2C;}
	.st19{fill:#03143F;}
	.st20{fill:#0C2F78;}
	.st21{fill:#02143E;}
	.st22{fill:#4770E8;}
	.st23{fill:#125BE1;}
	.st24{fill:#051743;}
	.st25{fill:#3F64D3;}
	.st26{fill:#105BE1;}
	.st27{fill:#2F3552;}
	.st28{fill:#2448A5;}
	.st29{fill:#2F62E0;}
</style>
<g>
	<path class="st0" d="M94.37,28c-7.45,16.35,7.57,24.93,12.32,39.08c12.69,37.76-80.68,120.18-90.31,137.97
		c-17.52,32.37-21.24,72.99,3.89,107.87c25.67,35.63,76.71,51.17,115.21,55.32c70.28,7.57,160.29-22.41,188.43-87.75
		c30.48-70.81-4.4-169.48-64.07-225.42C229.52,26.65,178.47,0.12,139.21,4.83C125.76,6.44,100.63,14.25,94.37,28z"/>
	<path class="st1" d="M328.57,175.1c0.17-0.2,0.34-0.42,0.5-0.62c1.84-2.29,3.51-4.58,5.17-6.87c1.82-2.5,3.63-5,5.22-7.72
		c3.18-5.22,6.13-10.9,8.4-16.57c2.28-5.9,3.86-12.03,3.86-18.38c0-3.18-0.46-6.36-1.37-9.54c-0.9-2.95-2.27-5.9-4.3-8.63
		c-1.82-2.5-4.31-4.77-6.82-6.58c-2.5-1.82-5.44-3.4-8.17-4.54c-5.67-2.5-11.8-3.86-17.93-4.54c-7.53-0.98-15.15-1.1-22.7-0.67
		c0.14,0.2,0.29,0.42,0.42,0.62c1.3-0.02,2.59,0,3.89,0.05c6.12,0,12.25,0.46,18.15,1.37c5.9,0.91,12.03,2.5,17.48,4.99
		c2.73,1.36,5.22,2.73,7.72,4.53c2.27,1.82,4.31,3.86,6.13,6.36c1.59,2.5,2.95,4.99,3.63,7.95c0.91,2.72,1.14,5.67,1.14,8.63
		c0,5.9-1.59,11.8-3.85,17.24c-4.14,10.11-10.32,19.3-17.21,27.88c-0.7,0.86-1.39,1.71-2.09,2.55c-7.72,9.31-16.34,17.93-25.42,26.1
		c-1.14,0.91-2.27,2.05-3.4,2.95c-7.72-7.72-15.89-15.22-24.29-22.25c-5.9-4.99-11.8-9.76-17.93-14.31c0-1.81-0.22-3.63-0.22-5.67
		c-0.69-12.48-1.82-24.74-3.63-37.22c-1.82-12.26-4.08-24.52-7.27-36.77c-1.59-6.13-3.18-12.03-5.21-18.16
		c-2.05-5.9-4.09-11.8-6.59-17.7c-1.13-2.95-2.5-5.9-3.85-8.63c-1.37-2.95-2.95-5.67-4.54-8.4c-1.33-2.28-2.74-4.57-4.26-6.82
		c-2.08-3.12-4.36-6.17-6.86-9.08c-2.27-2.5-4.54-4.76-7.04-7.03c-2.5-2.05-5.44-4.09-8.4-5.68c-2.95-1.59-6.35-2.73-9.76-3.4
		c-3.4-0.68-7.04-0.68-10.44-0.22c-3.4,0.45-6.81,1.59-9.76,3.18c-1.15,0.62-2.28,1.28-3.35,1.98c4.06,0.61,8.18,1.46,12.3,2.51
		c0.57-0.07,1.15-0.13,1.72-0.18c2.73-0.23,5.22,0,7.95,0.68c2.5,0.68,4.99,1.82,7.26,3.18c1.76,1.06,3.45,2.32,5.07,3.73
		c2.57,2.23,4.97,4.84,7.19,7.62c3.4,4.54,6.58,9.54,9.31,14.76c1.36,2.72,2.5,5.22,3.85,7.94c1.14,2.73,2.28,5.45,3.4,8.18
		c2.05,5.67,3.86,11.34,5.68,17.02c1.59,5.67,3.18,11.57,4.31,17.47c2.5,11.81,4.53,23.61,5.9,35.64
		c1.13,9.99,2.04,19.97,2.72,29.96c-1.13-0.68-2.04-1.36-3.18-2.27c-25.19-17.02-51.3-32-78.99-44.49
		c-13.85-6.13-27.93-11.8-42.22-16.34c-3.44-1.07-6.89-2.1-10.35-3.06c-11.17-3.1-22.48-5.54-33.91-6.93
		c-7.72-0.68-15.21-1.14-22.93-0.68c-3.86,0.23-7.72,0.68-11.35,1.59c-3.85,0.91-7.49,1.82-11.12,3.63
		c-1.82,0.68-3.4,1.82-5.22,2.73c-1.59,1.13-3.18,2.27-4.53,3.63c-1.37,1.37-2.73,2.95-3.86,4.54c-1.13,1.59-2.04,3.4-2.95,5.22
		c-0.69,1.82-1.37,3.63-1.82,5.67c-0.46,1.82-0.68,3.86-0.68,5.9c0,2.05,0,3.86,0.22,5.9c0.23,2.05,0.46,3.86,0.91,5.68
		c1.59,7.49,4.54,14.76,7.95,21.34c3.4,6.81,7.49,13.16,12.03,19.29c3.38,4.56,6.88,8.99,10.5,13.3c0.32-0.36,0.65-0.7,0.98-1.06
		c-3.65-4.4-7.06-8.93-10.34-13.59c-4.31-6.13-8.18-12.49-11.58-19.07c-3.4-6.58-6.13-13.62-7.49-20.88
		c-0.46-1.82-0.68-3.63-0.68-5.45c-0.23-1.82-0.23-3.63,0-5.45c0-1.81,0.22-3.63,0.68-5.44c0.45-1.82,0.91-3.4,1.59-4.99
		c0.68-1.6,1.59-3.18,2.73-4.54c1.13-1.36,2.27-2.73,3.4-4.08c1.36-1.14,2.73-2.28,4.31-3.18c1.59-0.9,3.18-1.81,4.76-2.5
		c6.58-2.95,14.08-4.31,21.34-4.76c7.49-0.46,14.76,0,22.25,0.91c11.28,1.39,22.57,3.84,33.55,6.84c3.38,0.93,6.72,1.9,10.04,2.91
		c14.3,4.54,28.15,9.99,42,16.12c27.24,12.25,53.57,27.24,78.08,44.26c1.82,1.13,3.4,2.5,5.22,3.63v2.05
		c0.46,12.03,0.68,24.06,0.46,36.32c-0.23,12.03-0.91,24.29-2.05,36.32c-0.23,3.85-0.68,7.72-1.14,11.8
		c-9.08,5.45-18.38,10.67-27.92,15.67c-21.57,11.34-44.03,21.34-66.96,29.28c-22.93,7.95-46.77,14.31-70.82,16.8
		c-6.13,0.68-12.03,0.91-18.16,0.91c-6.13,0-12.03-0.46-17.93-1.59c-5.9-1.14-11.8-2.73-17.02-5.45c-2.5-1.36-4.99-3.18-7.27-4.99
		c-0.37-0.37-0.73-0.75-1.07-1.13c-1.61-1.74-3.07-3.63-4.37-5.68c-1.37-2.5-2.28-5.45-2.95-8.4c-0.45-2.95-0.68-5.9-0.23-8.86
		c0.11-1.45,0.32-2.91,0.61-4.37c-0.18-1.81-0.3-3.61-0.37-5.41c-0.98,3.05-1.71,6.16-2.05,9.33c-0.46,3.18-0.46,6.35,0,9.53
		c0.45,3.18,1.36,6.36,2.72,9.09c1.37,2.95,3.4,5.44,5.68,7.72c1.19,1.19,2.5,2.25,3.87,3.22c1.25,0.89,2.55,1.7,3.85,2.45
		c5.44,3.18,11.57,4.99,17.7,6.36c6.13,1.13,12.26,1.81,18.61,2.04c6.13,0.23,12.49,0,18.61-0.68c12.26-1.14,24.52-3.18,36.55-5.9
		c12.02-2.73,23.83-6.36,35.64-10.21c23.38-7.95,46.08-17.93,67.87-29.28c8.4-4.31,16.8-9.08,24.74-13.85
		c-0.68,5.9-1.59,12.03-2.5,17.93c-3.85,23.83-9.54,47.45-18.38,69.46c-3.8,9.1-8.22,18.2-13.69,26.24
		c-1.06,1.59-2.18,3.13-3.34,4.63c-3.63,4.54-7.5,8.63-12.03,11.8c-2.28,1.59-4.77,2.95-7.27,3.85c-2.5,0.91-5.22,1.37-7.72,1.37
		c-2.73,0-5.44-0.23-7.94-1.14c-2.73-0.91-5.22-2.04-7.5-3.63c-4.76-2.95-9.08-7.26-12.93-11.8c-0.36-0.42-0.71-0.85-1.05-1.28
		c-1.59-0.11-3.17-0.25-4.73-0.4c0.82,1.33,1.69,2.65,2.6,3.96c3.63,5.22,7.72,9.99,12.94,14.07c2.5,2.05,5.45,3.63,8.63,4.99
		c3.18,1.37,6.58,2.05,9.99,2.28c3.4,0.22,7.04-0.23,10.21-1.14c3.4-0.91,6.36-2.27,9.31-4.08c5.91-3.4,10.67-7.95,14.99-12.94
		c3.83-4.23,7.12-8.99,10.18-13.81c0.4-0.62,0.79-1.23,1.17-1.85c3.4-5.44,6.12-11.12,8.85-16.79c2.73-5.67,4.99-11.57,7.27-17.48
		c2.04-5.9,4.08-11.8,5.9-17.93c3.63-12.02,6.35-24.28,8.63-36.54c1.82-9.99,3.18-19.97,4.31-29.96
		c7.72-4.99,15.21-10.21,22.47-15.44c7.95-5.9,15.67-12.25,23.38-18.83c1.82,1.81,3.63,3.85,5.45,5.67
		c10.21,10.89,19.74,22.7,27.46,35.41c0.62,1.03,1.23,2.06,1.83,3.12c3.12,5.45,5.84,11.19,7.94,17.09
		c2.5,7.03,3.85,14.53,3.18,21.79c-0.23,1.82-0.68,3.63-1.14,5.45c-0.45,1.82-1.13,3.4-2.04,4.99c-1.82,3.18-4.08,6.13-7.04,8.4
		c-2.95,2.27-6.13,4.08-9.54,5.45c-3.4,1.36-7.03,2.27-10.66,2.95c-5.26,0.99-10.76,1.38-16.23,1.34c-0.25,0.24-0.49,0.47-0.74,0.71
		c5.72,0.14,11.52-0.11,17.19-1.15c3.63-0.68,7.49-1.59,10.89-2.95c3.63-1.37,7.04-3.18,9.99-5.45c2.95-2.27,5.67-5.22,7.49-8.63
		c1.14-1.82,1.82-3.63,2.5-5.44c0.46-1.82,0.91-3.63,1.14-5.68c0.23-1.82,0.46-3.85,0.23-5.67c0-0.91,0-1.82-0.23-2.95
		c-0.23-0.91-0.23-1.82-0.45-2.95c-0.69-3.86-1.6-7.49-2.73-11.12c-2.37-6.89-5.55-13.37-9.17-19.63c-0.2-0.35-0.39-0.69-0.59-1.03
		c-7.72-13.17-17.25-24.97-27.47-36.09c-1.81-2.04-3.63-3.85-5.44-5.67c1.13-0.91,2.27-2.05,3.18-2.95
		C312,193.49,320.62,184.64,328.57,175.1z M271.82,221.63c-6.12,4.54-12.48,8.86-18.83,13.17v-0.68
		c1.13-12.49,1.81-24.74,2.27-37.23c0.23-9.31,0-18.38-0.23-27.69c5.45,4.08,10.67,8.17,15.67,12.48
		c8.17,7.04,16.34,14.3,24.06,21.8C287.49,210.06,279.77,215.96,271.82,221.63z"/>
</g>
</svg>
