<?xml version="1.0" encoding="utf-8"?>
<!-- Generator: Adobe Illustrator 26.0.3, SVG Export Plug-In . SVG Version: 6.00 Build 0)  -->
<svg version="1.1" id="_x2014_ëîé_x5F_1" xmlns="http://www.w3.org/2000/svg" xmlns:xlink="http://www.w3.org/1999/xlink"
	 x="0px" y="0px" viewBox="0 0 184.48 17.43" style="enable-background:new 0 0 184.48 17.43;" xml:space="preserve">
<style type="text/css">
	.st0{fill:#1955CC;}
	.st1{fill:#FD7D00;}
	.st2{enable-background:new    ;}
	.st3{fill:#0E3175;}
	.st4{clip-path:url(#SVGID_00000065782372055561977430000013801910139779075733_);enable-background:new    ;}
	.st5{fill:#0E2E6E;}
	.st6{fill:#0D2C6A;}
	.st7{fill:#0D2B68;}
	.st8{fill:#123C90;}
	.st9{fill:#164AB2;}
	.st10{clip-path:url(#SVGID_00000121270347642821193560000008978313580337393300_);enable-background:new    ;}
	.st11{fill:#113887;}
	.st12{fill:#103683;}
	.st13{fill:#10357E;}
	.st14{clip-path:url(#SVGID_00000005947434266708132150000018407310804672672662_);enable-background:new    ;}
	.st15{fill:#0E3072;}
	.st16{fill:#0F3176;}
	.st17{fill:#0F337A;}
	.st18{fill:#2C2C2C;}
	.st19{fill:#03143F;}
	.st20{fill:#0C2F78;}
	.st21{fill:#02143E;}
	.st22{fill:#4770E8;}
	.st23{fill:#125BE1;}
	.st24{fill:#051743;}
	.st25{fill:#3F64D3;}
	.st26{fill:#105BE1;}
	.st27{fill:#2F3552;}
	.st28{fill:#2448A5;}
	.st29{fill:#2F62E0;}
</style>
<g>
	<path class="st18" d="M2.61,7.47h0.93C3.63,7.8,3.67,8.22,3.67,8.71c0,0.48-0.04,0.89-0.12,1.25H2.61
		c0.08,0.33,0.12,0.75,0.12,1.24c0,0.48-0.04,0.89-0.12,1.25c0.08,0.33,0.12,0.75,0.12,1.25c0,0.48-0.04,0.89-0.12,1.25
		c0.08,0.33,0.12,0.75,0.12,1.24c0,0.48-0.04,0.89-0.12,1.25H0.12C0.04,17.08,0,16.66,0,16.18c0-0.5,0.04-0.91,0.12-1.24
		C0.04,14.59,0,14.17,0,13.69c0-0.5,0.04-0.91,0.12-1.25C0.04,12.1,0,11.68,0,11.2c0-0.5,0.04-0.91,0.12-1.24
		C0.04,9.61,0,9.19,0,8.71c0-0.5,0.04-0.91,0.12-1.25C0.04,7.12,0,6.7,0,6.22c0-0.5,0.04-0.91,0.12-1.25C0.04,4.63,0,4.21,0,3.73
		c0-0.5,0.04-0.91,0.12-1.25C0.04,2.14,0,1.72,0,1.25C0,0.75,0.04,0.33,0.12,0h2.49C2.7,0.33,2.74,0.75,2.74,1.25
		c0,0.48-0.04,0.89-0.12,1.24C2.7,2.82,2.74,3.24,2.74,3.73c0,0.48-0.04,0.89-0.12,1.25C2.7,5.31,2.74,5.73,2.74,6.22
		C2.74,6.7,2.7,7.12,2.61,7.47z M10.21,11.2c0,0.48-0.04,0.89-0.12,1.25c0.08,0.33,0.12,0.75,0.12,1.25c0,0.48-0.04,0.89-0.12,1.25
		c0.08,0.33,0.12,0.75,0.12,1.24c0,0.48-0.04,0.89-0.12,1.25H7.59c-0.08-0.35-0.12-0.77-0.12-1.25c0-0.5,0.04-0.91,0.12-1.24
		c-0.08-0.35-0.12-0.77-0.12-1.25c0-0.5,0.04-0.91,0.12-1.25c-0.08-0.35-0.12-0.77-0.12-1.25c0-0.5,0.04-0.91,0.12-1.24
		C7.51,9.61,7.47,9.19,7.47,8.71c0-0.5,0.04-0.91,0.12-1.25H3.55C3.46,7.12,3.42,6.7,3.42,6.22c0-0.5,0.04-0.91,0.12-1.25h4.98
		c0.08,0.33,0.12,0.75,0.12,1.25c0,0.48-0.04,0.89-0.12,1.24h1.56c0.08,0.33,0.12,0.75,0.12,1.25c0,0.48-0.04,0.89-0.12,1.25
		C10.17,10.29,10.21,10.71,10.21,11.2z"/>
	<path class="st18" d="M22.53,9.96c0.08,0.33,0.12,0.75,0.12,1.24c0,0.48-0.04,0.89-0.12,1.25H16c0.08,0.33,0.12,0.75,0.12,1.25
		c0,0.48-0.04,0.89-0.12,1.25h5.29c0.08,0.33,0.12,0.75,0.12,1.24c0,0.48-0.04,0.89-0.12,1.25h-6.22c-0.08-0.35-0.12-0.77-0.12-1.25
		c0-0.5,0.04-0.91,0.12-1.24h-1.56c-0.08-0.35-0.12-0.77-0.12-1.25c0-0.5,0.04-0.91,0.12-1.25h-0.93c-0.08-0.35-0.12-0.77-0.12-1.25
		c0-0.5,0.04-0.91,0.12-1.24h0.93c-0.08-0.35-0.12-0.77-0.12-1.25c0-0.5,0.04-0.91,0.12-1.25h1.56c-0.08-0.35-0.12-0.77-0.12-1.24
		c0-0.5,0.04-0.91,0.12-1.25h6.22c0.08,0.33,0.12,0.75,0.12,1.25c0,0.48-0.04,0.89-0.12,1.24h1.24c0.08,0.33,0.12,0.75,0.12,1.25
		C22.66,9.19,22.61,9.61,22.53,9.96z M19.92,8.71c0-0.5,0.04-0.91,0.12-1.25H16c0.08,0.33,0.12,0.75,0.12,1.25
		c0,0.48-0.04,0.89-0.12,1.25h4.05C19.96,9.61,19.92,9.19,19.92,8.71z"/>
	<path class="st18" d="M33.86,16.18c0,0.48-0.04,0.89-0.12,1.25h-7.47c-0.08-0.35-0.12-0.77-0.12-1.25c0-0.5,0.04-0.91,0.12-1.24
		h2.49c-0.08-0.35-0.12-0.77-0.12-1.25c0-0.5,0.04-0.91,0.12-1.25c-0.08-0.35-0.12-0.77-0.12-1.25c0-0.5,0.04-0.91,0.12-1.24
		c-0.08-0.35-0.12-0.77-0.12-1.25c0-0.5,0.04-0.91,0.12-1.25c-0.08-0.35-0.12-0.77-0.12-1.24c0-0.5,0.04-0.91,0.12-1.25
		c-0.08-0.35-0.12-0.77-0.12-1.25c0-0.5,0.04-0.91,0.12-1.25h-1.87c-0.08-0.35-0.12-0.77-0.12-1.24c0-0.5,0.04-0.91,0.12-1.25h4.36
		c0.08,0.33,0.12,0.75,0.12,1.25c0,0.48-0.04,0.89-0.12,1.24c0.08,0.33,0.12,0.75,0.12,1.25c0,0.48-0.04,0.89-0.12,1.25
		c0.08,0.33,0.12,0.75,0.12,1.25c0,0.48-0.04,0.89-0.12,1.24c0.08,0.33,0.12,0.75,0.12,1.25c0,0.48-0.04,0.89-0.12,1.25
		c0.08,0.33,0.12,0.75,0.12,1.24c0,0.48-0.04,0.89-0.12,1.25c0.08,0.33,0.12,0.75,0.12,1.25c0,0.48-0.04,0.89-0.12,1.25h2.49
		C33.82,15.27,33.86,15.68,33.86,16.18z"/>
	<path class="st18" d="M46.31,16.18c0,0.48-0.04,0.89-0.12,1.25h-7.47c-0.08-0.35-0.12-0.77-0.12-1.25c0-0.5,0.04-0.91,0.12-1.24
		h2.49c-0.08-0.35-0.12-0.77-0.12-1.25c0-0.5,0.04-0.91,0.12-1.25c-0.08-0.35-0.12-0.77-0.12-1.25c0-0.5,0.04-0.91,0.12-1.24
		c-0.08-0.35-0.12-0.77-0.12-1.25c0-0.5,0.04-0.91,0.12-1.25c-0.08-0.35-0.12-0.77-0.12-1.24c0-0.5,0.04-0.91,0.12-1.25
		c-0.08-0.35-0.12-0.77-0.12-1.25c0-0.5,0.04-0.91,0.12-1.25h-1.87c-0.08-0.35-0.12-0.77-0.12-1.24c0-0.5,0.04-0.91,0.12-1.25h4.36
		c0.08,0.33,0.12,0.75,0.12,1.25c0,0.48-0.04,0.89-0.12,1.24c0.08,0.33,0.12,0.75,0.12,1.25c0,0.48-0.04,0.89-0.12,1.25
		c0.08,0.33,0.12,0.75,0.12,1.25c0,0.48-0.04,0.89-0.12,1.24c0.08,0.33,0.12,0.75,0.12,1.25c0,0.48-0.04,0.89-0.12,1.25
		c0.08,0.33,0.12,0.75,0.12,1.24c0,0.48-0.04,0.89-0.12,1.25c0.08,0.33,0.12,0.75,0.12,1.25c0,0.48-0.04,0.89-0.12,1.25h2.49
		C46.27,15.27,46.31,15.68,46.31,16.18z"/>
	<path class="st18" d="M59.88,12.45h-0.93c0.08,0.33,0.12,0.75,0.12,1.25c0,0.48-0.04,0.89-0.12,1.25h-1.56
		c0.08,0.33,0.12,0.75,0.12,1.24c0,0.48-0.04,0.89-0.12,1.25h-4.98c-0.08-0.35-0.12-0.77-0.12-1.25c0-0.5,0.04-0.91,0.12-1.24h-1.56
		c-0.08-0.35-0.12-0.77-0.12-1.25c0-0.5,0.04-0.91,0.12-1.25h-0.93c-0.08-0.35-0.12-0.77-0.12-1.25c0-0.5,0.04-0.91,0.12-1.24h0.93
		c-0.08-0.35-0.12-0.77-0.12-1.25c0-0.5,0.04-0.91,0.12-1.25h1.56c-0.08-0.35-0.12-0.77-0.12-1.24c0-0.5,0.04-0.91,0.12-1.25h4.98
		c0.08,0.33,0.12,0.75,0.12,1.25c0,0.48-0.04,0.89-0.12,1.24h1.56c0.08,0.33,0.12,0.75,0.12,1.25c0,0.48-0.04,0.89-0.12,1.25h0.93
		C59.96,10.29,60,10.71,60,11.2C60,11.68,59.96,12.1,59.88,12.45z M57.39,12.45c-0.08-0.35-0.12-0.77-0.12-1.25
		c0-0.5,0.04-0.91,0.12-1.24h-0.93c-0.08-0.35-0.12-0.77-0.12-1.25c0-0.5,0.04-0.91,0.12-1.25h-3.11c0.08,0.33,0.12,0.75,0.12,1.25
		c0,0.48-0.04,0.89-0.12,1.25h-0.93c0.08,0.33,0.12,0.75,0.12,1.24c0,0.48-0.04,0.89-0.12,1.25h0.93c0.08,0.33,0.12,0.75,0.12,1.25
		c0,0.48-0.04,0.89-0.12,1.25h3.11c-0.08-0.35-0.12-0.77-0.12-1.25c0-0.5,0.04-0.91,0.12-1.25H57.39z"/>
	<path class="st18" d="M84.77,7.47c0.08,0.33,0.12,0.75,0.12,1.25c0,0.48-0.04,0.89-0.12,1.25h-0.93c0.08,0.33,0.12,0.75,0.12,1.24
		c0,0.48-0.04,0.89-0.12,1.25c0.08,0.33,0.12,0.75,0.12,1.25c0,0.48-0.04,0.89-0.12,1.25h-0.62c0.08,0.33,0.12,0.75,0.12,1.24
		c0,0.48-0.04,0.89-0.12,1.25h-1.87c-0.08-0.35-0.12-0.77-0.12-1.25c0-0.5,0.04-0.91,0.12-1.24h-0.62
		c-0.08-0.35-0.12-0.77-0.12-1.25c0-0.5,0.04-0.91,0.12-1.25h-1.87c0.08,0.33,0.12,0.75,0.12,1.25c0,0.48-0.04,0.89-0.12,1.25h-0.62
		c0.08,0.33,0.12,0.75,0.12,1.24c0,0.48-0.04,0.89-0.12,1.25h-1.87c-0.08-0.35-0.12-0.77-0.12-1.25c0-0.5,0.04-0.91,0.12-1.24h-0.62
		c-0.08-0.35-0.12-0.77-0.12-1.25c0-0.5,0.04-0.91,0.12-1.25c-0.08-0.35-0.12-0.77-0.12-1.25c0-0.5,0.04-0.91,0.12-1.24h-0.93
		c-0.08-0.35-0.12-0.77-0.12-1.25c0-0.5,0.04-0.91,0.12-1.25c-0.08-0.35-0.12-0.77-0.12-1.24c0-0.5,0.04-0.91,0.12-1.25h2.49
		c0.08,0.33,0.12,0.75,0.12,1.25c0,0.48-0.04,0.89-0.12,1.24c0.08,0.33,0.12,0.75,0.12,1.25c0,0.48-0.04,0.89-0.12,1.25
		c0.08,0.33,0.12,0.75,0.12,1.24c0,0.48-0.04,0.89-0.12,1.25h0.93c-0.08-0.35-0.12-0.77-0.12-1.25c0-0.5,0.04-0.91,0.12-1.24h0.62
		c-0.08-0.35-0.12-0.77-0.12-1.25c0-0.5,0.04-0.91,0.12-1.25c-0.08-0.35-0.12-0.77-0.12-1.24c0-0.5,0.04-0.91,0.12-1.25h1.87
		c0.08,0.33,0.12,0.75,0.12,1.25c0,0.48-0.04,0.89-0.12,1.24c0.08,0.33,0.12,0.75,0.12,1.25c0,0.48-0.04,0.89-0.12,1.25h0.62
		c0.08,0.33,0.12,0.75,0.12,1.24c0,0.48-0.04,0.89-0.12,1.25h0.93c-0.08-0.35-0.12-0.77-0.12-1.25c0-0.5,0.04-0.91,0.12-1.24
		c-0.08-0.35-0.12-0.77-0.12-1.25c0-0.5,0.04-0.91,0.12-1.25c-0.08-0.35-0.12-0.77-0.12-1.24c0-0.5,0.04-0.91,0.12-1.25h2.49
		c0.08,0.33,0.12,0.75,0.12,1.25C84.9,6.7,84.86,7.12,84.77,7.47z"/>
	<path class="st18" d="M97.22,12.45h-0.93c0.08,0.33,0.12,0.75,0.12,1.25c0,0.48-0.04,0.89-0.12,1.25h-1.56
		c0.08,0.33,0.12,0.75,0.12,1.24c0,0.48-0.04,0.89-0.12,1.25h-4.98c-0.08-0.35-0.12-0.77-0.12-1.25c0-0.5,0.04-0.91,0.12-1.24H88.2
		c-0.08-0.35-0.12-0.77-0.12-1.25c0-0.5,0.04-0.91,0.12-1.25h-0.93c-0.08-0.35-0.12-0.77-0.12-1.25c0-0.5,0.04-0.91,0.12-1.24h0.93
		c-0.08-0.35-0.12-0.77-0.12-1.25c0-0.5,0.04-0.91,0.12-1.25h1.56c-0.08-0.35-0.12-0.77-0.12-1.24c0-0.5,0.04-0.91,0.12-1.25h4.98
		c0.08,0.33,0.12,0.75,0.12,1.25c0,0.48-0.04,0.89-0.12,1.24h1.56c0.08,0.33,0.12,0.75,0.12,1.25c0,0.48-0.04,0.89-0.12,1.25h0.93
		c0.08,0.33,0.12,0.75,0.12,1.24C97.35,11.68,97.3,12.1,97.22,12.45z M94.73,12.45c-0.08-0.35-0.12-0.77-0.12-1.25
		c0-0.5,0.04-0.91,0.12-1.24H93.8c-0.08-0.35-0.12-0.77-0.12-1.25c0-0.5,0.04-0.91,0.12-1.25h-3.11c0.08,0.33,0.12,0.75,0.12,1.25
		c0,0.48-0.04,0.89-0.12,1.25h-0.93c0.08,0.33,0.12,0.75,0.12,1.24c0,0.48-0.04,0.89-0.12,1.25h0.93c0.08,0.33,0.12,0.75,0.12,1.25
		c0,0.48-0.04,0.89-0.12,1.25h3.11c-0.08-0.35-0.12-0.77-0.12-1.25c0-0.5,0.04-0.91,0.12-1.25H94.73z"/>
	<path class="st18" d="M109.79,8.71c0,0.48-0.04,0.89-0.12,1.25h-2.49c-0.08-0.35-0.12-0.77-0.12-1.25c0-0.5,0.04-0.91,0.12-1.25
		H105c0.08,0.33,0.12,0.75,0.12,1.25c0,0.48-0.04,0.89-0.12,1.25h-0.93c0.08,0.33,0.12,0.75,0.12,1.24c0,0.48-0.04,0.89-0.12,1.25
		c0.08,0.33,0.12,0.75,0.12,1.25c0,0.48-0.04,0.89-0.12,1.25h1.87c0.08,0.33,0.12,0.75,0.12,1.24c0,0.48-0.04,0.89-0.12,1.25h-6.22
		c-0.08-0.35-0.12-0.77-0.12-1.25c0-0.5,0.04-0.91,0.12-1.24h1.87c-0.08-0.35-0.12-0.77-0.12-1.25c0-0.5,0.04-0.91,0.12-1.25
		c-0.08-0.35-0.12-0.77-0.12-1.25c0-0.5,0.04-0.91,0.12-1.24c-0.08-0.35-0.12-0.77-0.12-1.25c0-0.5,0.04-0.91,0.12-1.25h-1.87
		c-0.08-0.35-0.12-0.77-0.12-1.24c0-0.5,0.04-0.91,0.12-1.25h3.11c0.08,0.33,0.12,0.75,0.12,1.25c0,0.48-0.04,0.89-0.12,1.24h1.24
		c-0.08-0.35-0.12-0.77-0.12-1.24c0-0.5,0.04-0.91,0.12-1.25h4.67c0.08,0.33,0.12,0.75,0.12,1.25c0,0.48-0.04,0.89-0.12,1.24h0.93
		C109.75,7.8,109.79,8.22,109.79,8.71z"/>
	<path class="st18" d="M121,16.18c0,0.48-0.04,0.89-0.12,1.25h-7.47c-0.08-0.35-0.12-0.77-0.12-1.25c0-0.5,0.04-0.91,0.12-1.24h2.49
		c-0.08-0.35-0.12-0.77-0.12-1.25c0-0.5,0.04-0.91,0.12-1.25c-0.08-0.35-0.12-0.77-0.12-1.25c0-0.5,0.04-0.91,0.12-1.24
		c-0.08-0.35-0.12-0.77-0.12-1.25c0-0.5,0.04-0.91,0.12-1.25c-0.08-0.35-0.12-0.77-0.12-1.24c0-0.5,0.04-0.91,0.12-1.25
		c-0.08-0.35-0.12-0.77-0.12-1.25c0-0.5,0.04-0.91,0.12-1.25h-1.87c-0.08-0.35-0.12-0.77-0.12-1.24c0-0.5,0.04-0.91,0.12-1.25h4.36
		c0.08,0.33,0.12,0.75,0.12,1.25c0,0.48-0.04,0.89-0.12,1.24c0.08,0.33,0.12,0.75,0.12,1.25c0,0.48-0.04,0.89-0.12,1.25
		c0.08,0.33,0.12,0.75,0.12,1.25c0,0.48-0.04,0.89-0.12,1.24c0.08,0.33,0.12,0.75,0.12,1.25c0,0.48-0.04,0.89-0.12,1.25
		c0.08,0.33,0.12,0.75,0.12,1.24c0,0.48-0.04,0.89-0.12,1.25c0.08,0.33,0.12,0.75,0.12,1.25c0,0.48-0.04,0.89-0.12,1.25h2.49
		C120.96,15.27,121,15.68,121,16.18z"/>
	<path class="st18" d="M130.52,7.47h-3.11c0.08,0.33,0.12,0.75,0.12,1.25c0,0.48-0.04,0.89-0.12,1.25h-0.93
		c0.08,0.33,0.12,0.75,0.12,1.24c0,0.48-0.04,0.89-0.12,1.25h0.93c0.08,0.33,0.12,0.75,0.12,1.25c0,0.48-0.04,0.89-0.12,1.25h3.11
		c0.08,0.33,0.12,0.75,0.12,1.24c0,0.48-0.04,0.89-0.12,1.25h-3.42c-0.08-0.35-0.12-0.77-0.12-1.25c0-0.5,0.04-0.91,0.12-1.24h-1.56
		c-0.08-0.35-0.12-0.77-0.12-1.25c0-0.5,0.04-0.91,0.12-1.25h-0.93c-0.08-0.35-0.12-0.77-0.12-1.25c0-0.5,0.04-0.91,0.12-1.24h0.93
		c-0.08-0.35-0.12-0.77-0.12-1.25c0-0.5,0.04-0.91,0.12-1.25h1.56c-0.08-0.35-0.12-0.77-0.12-1.24c0-0.5,0.04-0.91,0.12-1.25h3.42
		c0.08,0.33,0.12,0.75,0.12,1.25C130.64,6.7,130.6,7.12,130.52,7.47z M134.69,3.73c0,0.48-0.04,0.89-0.12,1.25
		c0.08,0.33,0.12,0.75,0.12,1.25c0,0.48-0.04,0.89-0.12,1.24c0.08,0.33,0.12,0.75,0.12,1.25c0,0.48-0.04,0.89-0.12,1.25
		c0.08,0.33,0.12,0.75,0.12,1.24c0,0.48-0.04,0.89-0.12,1.25c0.08,0.33,0.12,0.75,0.12,1.25c0,0.48-0.04,0.89-0.12,1.25
		c0.08,0.33,0.12,0.75,0.12,1.24c0,0.48-0.04,0.89-0.12,1.25h-2.49c-0.08-0.35-0.12-0.77-0.12-1.25c0-0.5,0.04-0.91,0.12-1.24h-0.93
		c-0.08-0.35-0.12-0.77-0.12-1.25c0-0.5,0.04-0.91,0.12-1.25h0.93c-0.08-0.35-0.12-0.77-0.12-1.25c0-0.5,0.04-0.91,0.12-1.24h-0.93
		c-0.08-0.35-0.12-0.77-0.12-1.25c0-0.5,0.04-0.91,0.12-1.25h0.93c-0.08-0.35-0.12-0.77-0.12-1.24c0-0.5,0.04-0.91,0.12-1.25
		c-0.08-0.35-0.12-0.77-0.12-1.25c0-0.5,0.04-0.91,0.12-1.25c-0.08-0.35-0.12-0.77-0.12-1.24c0-0.5,0.04-0.91,0.12-1.25h2.49
		c0.08,0.33,0.12,0.75,0.12,1.25c0,0.48-0.04,0.89-0.12,1.24C134.65,2.82,134.69,3.24,134.69,3.73z"/>
	<path class="st18" d="M155.85,3.73c0,0.48-0.04,0.89-0.12,1.25c0.08,0.33,0.12,0.75,0.12,1.25c0,0.48-0.04,0.89-0.12,1.24
		c0.08,0.33,0.12,0.75,0.12,1.25c0,0.48-0.04,0.89-0.12,1.25c0.08,0.33,0.12,0.75,0.12,1.24c0,0.48-0.04,0.89-0.12,1.25h-2.49
		c-0.08-0.35-0.12-0.77-0.12-1.25c0-0.5,0.04-0.91,0.12-1.24c-0.08-0.35-0.12-0.77-0.12-1.25c0-0.5,0.04-0.91,0.12-1.25
		c-0.08-0.35-0.12-0.77-0.12-1.24c0-0.5,0.04-0.91,0.12-1.25c-0.08-0.35-0.12-0.77-0.12-1.25c0-0.5,0.04-0.91,0.12-1.25
		c-0.08-0.35-0.12-0.77-0.12-1.24c0-0.5,0.04-0.91,0.12-1.25h2.49c0.08,0.33,0.12,0.75,0.12,1.25c0,0.48-0.04,0.89-0.12,1.24
		C155.81,2.82,155.85,3.24,155.85,3.73z M155.73,14.94c0.08,0.33,0.12,0.75,0.12,1.24c0,0.48-0.04,0.89-0.12,1.25h-2.49
		c-0.08-0.35-0.12-0.77-0.12-1.25c0-0.5,0.04-0.91,0.12-1.24H155.73z"/>
	<path class="st18" d="M184.48,16.18c0,0.48-0.04,0.89-0.12,1.25h-9.96c-0.08-0.35-0.12-0.77-0.12-1.25c0-0.5,0.04-0.91,0.12-1.24
		h9.96C184.44,15.27,184.48,15.68,184.48,16.18z"/>
</g>
</svg>
