<?xml version="1.0" encoding="utf-8"?>
<!-- Generator: Adobe Illustrator 26.1.0, SVG Export Plug-In . SVG Version: 6.00 Build 0)  -->
<svg version="1.1" id="_x2014_ëîé_x5F_1" xmlns="http://www.w3.org/2000/svg" xmlns:xlink="http://www.w3.org/1999/xlink"
	 x="0px" y="0px" viewBox="0 0 30.7 92.1" style="enable-background:new 0 0 30.7 92.1;" xml:space="preserve">
<style type="text/css">
	.st0{fill:#123C90;}
	.st1{fill:#164AB2;}
	.st2{fill:#0D2B68;}
	.st3{fill:#113887;}
</style>
<g>
	<polygon class="st0" points="14.7,58.7 5.6,53.9 5.6,51 19.5,49.1 28.7,54 	"/>
</g>
<g>
	<path class="st1" d="M28.7,54l-0.1,12.1c0,4.3-1.1,8.8-3.1,13.5s-4.6,8.7-7.6,11.9L9,88.2l-0.4-5.6c2.4-5.2,3.8-8.9,3.9-13.2
		l1-14.7L28.7,54z"/>
</g>
<path class="st1" d="M16.1,23.4L5.7,17.8L6.4,7.5L19,4.8l4.2-0.2c0,0,3.2,0.6,3.8,1.5s-4.7,15-4.7,15L16.1,23.4z"/>
<path class="st2" d="M14.7,56l-9.1-5v13.9V65c0,0.4,0,0.9-0.1,1.4c0,0.2,0,0.4-0.1,0.7c0,0.3-0.1,0.5-0.1,0.8c0,0.2-0.1,0.5-0.1,0.7
	c0,0.3-0.1,0.6-0.2,0.9c-0.1,0.4-0.2,0.8-0.3,1.3c-0.1,0.3-0.1,0.5-0.2,0.8s-0.1,0.6-0.2,0.8c-0.1,0.3-0.1,0.5-0.2,0.8
	c0,0.2-0.1,0.5-0.2,0.7c-0.1,0.4-0.2,0.7-0.4,1.1c0,0.1-0.1,0.3-0.1,0.4l0,0l0,0c-0.2,0.5-0.4,1-0.6,1.4c-0.1,0.2-0.1,0.3-0.2,0.5
	c-0.3,0.6-0.6,1.3-0.9,1.9l-1.8,4l9.1,5l1.8-4c0.3-0.7,0.6-1.3,0.9-2c0.3-0.7,0.5-1.3,0.8-1.9l0,0l0,0l0,0c0.2-0.5,0.4-1.1,0.5-1.6
	c0.1-0.2,0.1-0.3,0.1-0.5c0.1-0.4,0.2-0.8,0.4-1.2c0-0.2,0.1-0.3,0.1-0.5c0.1-0.5,0.2-1,0.4-1.5v-0.1c0.1-0.5,0.2-1,0.3-1.6
	c0-0.1,0-0.3,0.1-0.4c0.1-0.4,0.1-0.8,0.1-1.1c0-0.2,0-0.3,0-0.5c0-0.5,0.1-1,0.1-1.4c0,0,0,0,0-0.1l0,0l0,0L14.7,56z"/>
<g>
	<polygon class="st0" points="14.7,56 5.6,51 19.5,49.1 28.7,54 	"/>
</g>
<g>
	<path class="st1" d="M28.7,54l-0.1,12.1c0,4.3-1.1,8.8-3.1,13.5s-4.6,8.7-7.6,11.9L9,88.2l1.9-3.9c2.4-5.2,3.7-10,3.8-14.3V56.1
		L28.7,54z"/>
</g>
<path class="st3" d="M22.8,5c0.9,0,1.8,0.1,2.7,0.4h0.1c0.4,0.1,0.8,0.3,1.2,0.5l0,0l0,0l0,0l-0.3-0.2l0,0l-9.1-5
	c-0.3-0.1-0.6-0.3-0.9-0.4h-0.1c-0.1,0-0.3-0.1-0.4-0.1l0,0.1l0,0h-0.1c-0.2-0.1-0.4-0.1-0.6-0.1c-0.1,0-0.2,0-0.3-0.1
	C14.5,0,14.1,0,13.7,0c-0.1,0-0.3,0-0.4,0c-0.4,0-0.9,0-1.4,0.1c-0.1,0-0.2,0-0.3,0.1c-0.2,0-0.4,0.1-0.7,0.1
	c-0.1,0-0.3,0.1-0.4,0.1c-0.2,0-0.4,0.1-0.5,0.1c-0.2,0-0.3,0.1-0.5,0.2c-0.1,0-0.3,0.1-0.4,0.1c0,0.1-0.2,0.2-0.4,0.3
	c0,0-0.1,0-0.1,0.1c0,0-0.1,0-0.1,0.1c-0.2,0-0.4,0.1-0.6,0.2c-0.1,0-0.2,0.1-0.3,0.1C7.5,1.7,7.3,1.8,7.2,1.9c0,0-0.1,0-0.1,0.1
	l0,0C6.7,2.2,6.3,2.5,6,2.8l0,0l0,0c-0.4,0.4-0.7,0.6-0.9,1l0,0L5,3.9C4.7,4.2,4.5,4.4,4.3,4.7L4.2,4.8c0,0.1-0.1,0.1-0.1,0.2
	C4,5.2,3.8,5.4,3.7,5.7c0,0.1-0.1,0.1-0.1,0.2S3.5,6.1,3.5,6.2c0,0,0,0.1-0.1,0.1C3.3,6.5,3.1,6.8,3,7l0,0v0.1
	C2.9,7.4,2.8,7.6,2.8,7.8c0,0.1,0,0.1-0.1,0.2C2.6,8.3,2.6,8.6,2.5,8.8v0.1c-0.1,0.6-0.2,1.3-0.2,2c0,2.7,0.9,4.8,2.7,6.4
	c0.4,0.3,0.8,0.6,1.3,0.9l9.8,5.2c-0.5-0.2-1.6-0.7-2-1.1c-1.8-1.5-2.7-3.7-2.7-6.4c0-0.7,0.1-1.3,0.2-2v-0.1
	c0.1-0.3,0.1-0.6,0.2-0.8c0-0.1,0-0.1,0.1-0.2c0.1-0.2,0.1-0.5,0.2-0.7l0,0c0.1-0.3,0.2-0.5,0.4-0.8c0,0,0-0.1,0.1-0.1
	c0.1-0.2,0.2-0.3,0.3-0.5s0.3-0.5,0.4-0.7c0.1-0.1,0.2-0.2,0.2-0.4c0.2-0.2,0.3-0.4,0.5-0.7c0.1-0.1,0.1-0.1,0.2-0.2
	c0.3-0.3,0.6-0.6,0.9-0.9c0.4-0.4,0.8-0.7,1.3-1c0.1-0.1,0.2-0.1,0.3-0.2c0.2-0.1,0.3-0.2,0.5-0.3c0.1-0.1,0.3-0.1,0.4-0.2
	c0.1,0,0.2-0.1,0.4-0.2c0.1,0,0.2-0.1,0.3-0.1c0.2-0.1,0.4-0.1,0.6-0.2c0.1,0,0.2-0.1,0.3-0.1c0.2-0.1,0.4-0.1,0.6-0.2
	c0.1,0,0.2-0.1,0.3-0.1c0.2,0,0.5-0.1,0.7-0.1c0.1,0,0.2,0,0.3,0l0,0C21.6,5,22.1,5,22.5,5C22.6,5,22.7,5,22.8,5z"/>
<g>
	<path class="st1" d="M21.1,5.1c2.8-0.4,5,0.2,6.9,1.7c1.8,1.5,2.7,3.7,2.7,6.4c0,2.8-0.9,5.1-2.7,7.1c-1.8,2-4.1,3.2-6.9,3.6
		s-5.1-0.2-6.9-1.7s-2.7-3.6-2.7-6.4s0.9-5.1,2.7-7.1S18.3,5.5,21.1,5.1z"/>
</g>
</svg>
