<?xml version="1.0" encoding="utf-8"?>
<!-- Generator: Adobe Illustrator 26.0.3, SVG Export Plug-In . SVG Version: 6.00 Build 0)  -->
<svg version="1.1" id="_x2014_ëîé_x5F_1" xmlns="http://www.w3.org/2000/svg" xmlns:xlink="http://www.w3.org/1999/xlink"
	 x="0px" y="0px" viewBox="0 0 116.04 77.38" style="enable-background:new 0 0 116.04 77.38;" xml:space="preserve">
<style type="text/css">
	.st0{fill:#1955CC;}
	.st1{fill:#FD7D00;}
	.st2{enable-background:new    ;}
	.st3{fill:#0E3175;}
	.st4{clip-path:url(#SVGID_00000037663650158465209880000008095971502168041098_);enable-background:new    ;}
	.st5{fill:#0E2E6E;}
	.st6{fill:#0D2C6A;}
	.st7{fill:#0D2B68;}
	.st8{fill:#123C90;}
	.st9{fill:#164AB2;}
	.st10{clip-path:url(#SVGID_00000132069046109884402010000013360791229245570487_);enable-background:new    ;}
	.st11{fill:#113887;}
	.st12{fill:#103683;}
	.st13{fill:#10357E;}
	.st14{clip-path:url(#SVGID_00000044887112223718834650000016335119530915349173_);enable-background:new    ;}
	.st15{fill:#0E3072;}
	.st16{fill:#0F3176;}
	.st17{fill:#0F337A;}
	.st18{fill:#2C2C2C;}
	.st19{fill:#03143F;}
	.st20{fill:#0C2F78;}
	.st21{fill:#02143E;}
	.st22{fill:#4770E8;}
	.st23{fill:#125BE1;}
	.st24{fill:#051743;}
	.st25{fill:#3F64D3;}
	.st26{fill:#105BE1;}
	.st27{fill:#2F3552;}
	.st28{fill:#2448A5;}
	.st29{fill:#2F62E0;}
</style>
<g>
	<g>
		<polygon class="st19" points="73.57,43.38 74.09,56.51 81.53,60.54 81.02,47.42 73.57,43.38 		"/>
		<polygon class="st20" points="94.98,31.19 73.57,43.38 81.02,47.42 102.43,35.23 94.98,31.19 		"/>
		<polygon class="st21" points="72.42,14.22 72.94,27.35 80.38,31.38 79.87,18.26 72.42,14.22 		"/>
		<polygon class="st22" points="108.14,23.06 72.42,14.22 79.87,18.26 115.59,27.09 108.14,23.06 		"/>
		<polygon class="st23" points="116.04,38.5 115.59,27.09 79.87,18.26 80.38,31.38 102.43,35.23 81.02,47.42 81.53,60.54 
			116.04,38.5 		"/>
	</g>
	<g>
		<polygon class="st24" points="57.36,1.8 40.18,73.34 47.63,77.38 64.81,5.84 57.36,1.8 		"/>
		<polygon class="st25" points="66.95,0 57.36,1.8 64.81,5.84 74.4,4.04 66.95,0 		"/>
		<polygon class="st26" points="57.17,75.58 74.4,4.04 64.81,5.84 47.63,77.38 57.17,75.58 		"/>
	</g>
	<g>
		<polygon class="st27" points="0,43.36 0.45,54.77 7.9,58.8 7.45,47.39 0,43.36 		"/>
		<polygon class="st28" points="34.71,21.27 0,43.36 7.45,47.39 42.15,25.31 34.71,21.27 		"/>
		<polygon class="st29" points="35.85,50.39 13.69,46.61 21.14,50.65 43.3,54.43 35.85,50.39 		"/>
		<polygon class="st26" points="43.82,67.6 43.3,54.43 21.14,50.65 42.67,38.43 42.15,25.31 7.45,47.39 7.9,58.8 43.82,67.6 		"/>
	</g>
</g>
</svg>
