<svg width="56" height="56" viewBox="0 0 56 56" fill="none" xmlns="http://www.w3.org/2000/svg">
<path d="M26.2493 0C27.416 0 28.5826 0 29.7492 0C29.8892 0.0306242 30.0278 0.078748 30.1707 0.088956C34.8547 0.447697 39.1946 1.8637 43.1174 4.4478C49.9262 8.93352 54.1086 15.1896 55.5785 23.2277C55.7608 24.2267 55.8615 25.2416 56 26.2493C56 27.416 56 28.5826 56 29.7492C55.9694 29.8907 55.9285 30.0292 55.9081 30.1721C55.7171 31.4671 55.5961 32.7766 55.3306 34.0556C53.0761 44.8892 43.8247 53.7615 32.9327 55.5611C31.8769 55.736 30.8123 55.8542 29.7521 56C28.5855 56 27.4189 56 26.2522 56C25.8935 55.9548 25.5362 55.9052 25.1775 55.8673C20.1288 55.3161 15.5192 53.6069 11.4447 50.5606C5.48319 46.104 1.78641 40.214 0.437489 32.8802C0.244994 31.8433 0.142913 30.7919 0 29.7492C0 28.5826 0 27.416 0 26.2493C0.0831228 25.5654 0.154579 24.88 0.252285 24.1975C1.13018 18.0931 3.69824 12.8067 8.02062 8.40707C12.2147 4.13864 17.2691 1.4583 23.1752 0.430197C24.1946 0.252285 25.2241 0.141455 26.2493 0ZM26.0087 19.9816C26.0087 22.5321 26.0335 25.0827 25.9956 27.6318C25.9824 28.5797 26.3324 29.2534 27.0674 29.8265C28.8626 31.225 30.6286 32.6629 32.4062 34.0847C33.8281 35.2222 35.2426 36.3699 36.6761 37.4928C37.8209 38.3896 39.3419 38.0134 39.8508 36.7315C40.195 35.8639 39.9515 35.0064 39.1406 34.356C36.2445 32.0285 33.3468 29.704 30.4361 27.3955C30.0992 27.1287 29.9796 26.856 29.9811 26.4345C29.9971 22.974 29.9898 19.512 29.9898 16.0515C29.9898 14.685 30.0015 13.3186 29.9811 11.9522C29.9665 10.9941 29.3088 10.227 28.4076 10.0491C27.1185 9.79683 26.0204 10.6995 26.0131 12.0557C25.9999 14.6996 26.0102 17.3406 26.0087 19.9816Z" fill="#FD7D00"/>
</svg>
