<?xml version="1.0" encoding="utf-8"?>
<!-- Generator: Adobe Illustrator 26.0.3, SVG Export Plug-In . SVG Version: 6.00 Build 0)  -->
<svg version="1.1" xmlns="http://www.w3.org/2000/svg" xmlns:xlink="http://www.w3.org/1999/xlink" x="0px" y="0px"
	 viewBox="0 0 300 240" style="enable-background:new 0 0 300 240;" xml:space="preserve">
<style type="text/css">
	.st0{fill:#FFFFFF;}
</style>
<g id="Background">
</g>
<g id="Illustration">
	<g id="Online_language_school_1_">
		<g>
			<path d="M264.84,223H162.65c-4.4,0-7.52-3.56-6.97-7.95l25.16-198.78c0.56-4.39,4.58-7.95,8.98-7.95l97.06-1.13
				c11.14,0,12.65,4.69,12.1,9.08l-25.16,198.78C273.26,219.44,269.24,223,264.84,223z"/>
			<g>
				<path class="st0" d="M258.69,223H156.5c-4.4,0-7.52-3.57-6.97-7.97l25.16-199.41c0.56-4.4,4.58-7.97,8.98-7.97h102.19
					c4.4,0,7.52,3.57,6.97,7.97l-25.16,199.41C267.11,219.43,263.09,223,258.69,223z"/>
				<path d="M258.69,223.28H156.5c-2.2,0-4.17-0.86-5.54-2.41c-1.39-1.57-1.99-3.66-1.71-5.89l25.16-199.41
					c0.57-4.53,4.73-8.22,9.26-8.22h102.19c2.2,0,4.17,0.86,5.54,2.41c1.39,1.57,1.99,3.66,1.71,5.88l-25.16,199.41
					C267.38,219.59,263.22,223.28,258.69,223.28z M183.67,7.93c-4.26,0-8.16,3.46-8.7,7.72l-25.16,199.41
					c-0.26,2.06,0.3,3.99,1.57,5.44c1.26,1.43,3.07,2.22,5.11,2.22h102.19c4.26,0,8.16-3.46,8.7-7.72l25.16-199.41
					c0.26-2.06-0.3-3.99-1.57-5.44c-1.26-1.43-3.07-2.22-5.11-2.22H183.67z"/>
			</g>
			<path d="M259.7,217.43H156.96c-0.57,0-1.08-0.22-1.44-0.63c-0.36-0.41-0.52-0.95-0.45-1.53l24.03-190.4
				c0.15-1.15,1.2-2.09,2.36-2.09h102.74c0.57,0,1.08,0.22,1.44,0.63c0.36,0.41,0.52,0.95,0.45,1.53l-24.02,190.4
				C261.91,216.49,260.85,217.43,259.7,217.43z M181.45,23.34c-0.88,0-1.68,0.71-1.79,1.59l-24.03,190.4
				c-0.05,0.41,0.06,0.8,0.31,1.08c0.25,0.28,0.61,0.44,1.01,0.44H259.7c0.88,0,1.68-0.71,1.79-1.59l24.02-190.4
				c0.05-0.41-0.06-0.8-0.31-1.08c-0.25-0.28-0.61-0.44-1.01-0.44H181.45z M155.36,215.3L155.36,215.3L155.36,215.3z"/>
			<ellipse transform="matrix(0.729 -0.6845 0.6845 0.729 53.2465 164.0913)" cx="233.86" cy="14.8" rx="3.18" ry="2.8"/>
		</g>
		<g>
			<g>
				<path class="st0" d="M275.42,37.44H170.4c-3.83,0-7.33,3.12-7.82,6.97l-9.98,78.24c-0.49,3.85,2.21,6.97,6.04,6.97h105.02
					c3.83,0,7.33-3.12,7.82-6.97l9.98-78.24C281.95,40.55,279.25,37.44,275.42,37.44z"/>
				<path d="M263.67,129.9H158.65c-1.92,0-3.63-0.75-4.82-2.1c-1.22-1.38-1.75-3.22-1.5-5.18l9.98-78.24
					c0.51-3.98,4.14-7.22,8.1-7.22h105.02c1.92,0,3.63,0.75,4.82,2.1c1.22,1.38,1.75,3.22,1.5,5.18l-9.98,78.24
					C271.26,126.66,267.63,129.9,263.67,129.9z M170.4,37.72c-3.68,0-7.06,3.01-7.53,6.72l-9.98,78.24
					c-0.23,1.8,0.25,3.48,1.36,4.73c1.08,1.23,2.65,1.91,4.4,1.91h105.02c3.68,0,7.06-3.01,7.53-6.72l9.98-78.24
					c0.23-1.8-0.25-3.48-1.36-4.73c-1.08-1.23-2.65-1.91-4.4-1.91H170.4z"/>
			</g>
			<g>
				<path d="M275.39,49.15H167.52c-0.16,0-0.29-0.13-0.29-0.29c0-0.16,0.13-0.29,0.29-0.29h107.87c0.16,0,0.29,0.13,0.29,0.29
					C275.67,49.03,275.54,49.15,275.39,49.15z"/>
				<path class="st0" d="M175.13,42.79c-0.13,0.99-1.02,1.79-2,1.79c-0.98,0-1.67-0.8-1.55-1.79c0.13-0.99,1.02-1.79,2-1.79
					S175.26,41.81,175.13,42.79z"/>
				<path class="st0" d="M182.24,42.79c-0.13,0.99-1.02,1.79-2,1.79c-0.98,0-1.67-0.8-1.55-1.79c0.13-0.99,1.02-1.79,2-1.79
					S182.37,41.81,182.24,42.79z"/>
				<path class="st0" d="M189.35,42.79c-0.13,0.99-1.02,1.79-2,1.79c-0.98,0-1.67-0.8-1.55-1.79c0.13-0.99,1.02-1.79,2-1.79
					S189.47,41.81,189.35,42.79z"/>
				<path d="M276.25,43.08h-10.01c-0.16,0-0.29-0.13-0.29-0.29c0-0.16,0.13-0.29,0.29-0.29h10.01c0.16,0,0.29,0.13,0.29,0.29
					C276.53,42.95,276.41,43.08,276.25,43.08z"/>
				<path d="M261.74,43.08h-48.4c-0.16,0-0.29-0.13-0.29-0.29c0-0.16,0.13-0.29,0.29-0.29h48.4c0.16,0,0.29,0.13,0.29,0.29
					C262.02,42.95,261.9,43.08,261.74,43.08z"/>
				<path d="M202.44,43.08h-8.82c-0.16,0-0.29-0.13-0.29-0.29c0-0.16,0.13-0.29,0.29-0.29h8.82c0.16,0,0.29,0.13,0.29,0.29
					C202.72,42.95,202.59,43.08,202.44,43.08z"/>
			</g>
			<g>
				<polygon class="st0" points="262.03,116.49 162.23,116.49 169.98,55.68 269.79,55.68 				"/>
				<path d="M262.03,116.78h-99.81c-0.08,0-0.16-0.04-0.21-0.1c-0.05-0.06-0.08-0.14-0.07-0.22l7.75-60.81
					c0.02-0.14,0.14-0.25,0.28-0.25h99.81c0.08,0,0.16,0.04,0.21,0.1c0.05,0.06,0.08,0.14,0.07,0.22l-7.75,60.81
					C262.3,116.67,262.18,116.78,262.03,116.78z M162.55,116.21h99.23l7.68-60.24h-99.23L162.55,116.21z"/>
			</g>
		</g>
		<g>
			<g>
				<path class="st0" d="M21.57,114.2C8.08,117.09,1.55,142,1.27,158.12c-0.48,27.44,16.69,53.73,40.39,66.37
					c31.49,16.79,78.43,11.57,93.89-15.71c9.23-16.28,7.96-41.69-4.87-51.89c-12.87-10.23-26.08,3.78-50.67-2.49
					C46.02,145.72,38.43,110.58,21.57,114.2z"/>
				<path d="M81.66,234.4c-14.18,0-28.3-3.34-40.14-9.66C16.8,211.57,0.51,184.79,0.98,158.12c0.16-8.94,2.11-19.04,5.22-27.02
					c2.7-6.92,7.54-15.51,15.3-17.18c8.01-1.72,13.91,5.06,21.38,13.64c8.51,9.78,19.1,21.94,37.19,26.56
					c11.75,3,20.74,1.37,28.66-0.07c8.56-1.55,15.33-2.78,22.11,2.62c6.05,4.81,9.99,13.51,10.82,23.87
					c0.8,10.05-1.34,20.39-5.87,28.39c-3.76,6.63-9.43,12.16-16.87,16.44c-6.88,3.96-15.27,6.76-24.27,8.09
					C90.36,234.09,86.01,234.4,81.66,234.4z M21.57,114.2l0.06,0.28c-7.52,1.61-12.25,10.04-14.89,16.82
					c-3.09,7.92-5.02,17.95-5.18,26.83c-0.47,26.46,15.7,53.03,40.24,66.11c15.36,8.19,34.6,11.34,52.78,8.64
					c18.73-2.78,33.58-11.62,40.73-24.25c4.47-7.9,6.59-18.13,5.8-28.06c-0.81-10.2-4.67-18.75-10.6-23.47
					c-6.58-5.24-13.24-4.03-21.65-2.5c-7.98,1.45-17.03,3.09-28.91,0.06c-18.26-4.66-28.92-16.9-37.48-26.74
					c-7.35-8.44-13.15-15.1-20.83-13.46L21.57,114.2z"/>
			</g>
			<g>
				<g>
					<g>
						<path class="st0" d="M99.49,234.06c0,0,11.79,4.85,20.2,4.77c1.42-0.01,2.34-1.5,1.74-2.78c-0.35-0.74-0.87-1.68-1.65-2.85
							c-2.92-4.38-15.41-11.49-15.41-11.49l-2.01,0.87c-0.71,0.31-0.99,1.16-0.62,1.83l0.51,0.91l-3.35,0
							c-0.76,0-1.37,0.64-1.33,1.4C97.65,228.26,98.03,230.95,99.49,234.06z"/>
						<path d="M119.51,239.12c-8.35,0-20-4.75-20.12-4.8c-0.07-0.03-0.12-0.08-0.15-0.14c-1.45-3.08-1.86-5.75-1.95-7.45
							c-0.02-0.45,0.13-0.87,0.44-1.19c0.31-0.33,0.73-0.5,1.18-0.5c0,0,0,0,0,0l2.86,0l-0.27-0.48c-0.22-0.39-0.26-0.86-0.12-1.28
							c0.14-0.42,0.46-0.77,0.87-0.95l2.01-0.87c0.08-0.04,0.18-0.03,0.25,0.01c0.51,0.29,12.59,7.19,15.51,11.58
							c0.72,1.08,1.28,2.05,1.67,2.89c0.32,0.7,0.27,1.5-0.14,2.15c-0.41,0.64-1.1,1.03-1.86,1.04
							C119.63,239.12,119.57,239.12,119.51,239.12z M99.71,233.84c1.17,0.47,11.98,4.71,19.8,4.71c0.06,0,0.12,0,0.19,0
							c0.57,0,1.07-0.29,1.38-0.77c0.31-0.49,0.35-1.09,0.1-1.61c-0.38-0.82-0.93-1.76-1.63-2.81
							c-2.69-4.04-13.89-10.57-15.19-11.33l-1.88,0.82c-0.27,0.12-0.47,0.33-0.56,0.61c-0.09,0.28-0.07,0.57,0.08,0.82l0.51,0.91
							c0.05,0.09,0.05,0.2,0,0.28c-0.05,0.09-0.15,0.14-0.25,0.14l-3.35,0c0,0,0,0,0,0c-0.29,0-0.56,0.12-0.76,0.33
							c-0.2,0.21-0.3,0.48-0.28,0.77C97.94,228.33,98.33,230.89,99.71,233.84z"/>
					</g>
					<path d="M120.12,236.92c-0.01,0-0.01,0-0.02,0c-9.15-0.61-19.94-4.68-20.04-4.72c-0.15-0.06-0.22-0.22-0.17-0.37
						c0.06-0.15,0.22-0.22,0.37-0.17c0.11,0.04,10.81,4.08,19.88,4.68c0.16,0.01,0.28,0.15,0.27,0.3
						C120.39,236.81,120.27,236.92,120.12,236.92z"/>
					<path d="M112.16,232.04c-0.05,0-0.1-0.01-0.14-0.04c-0.14-0.08-0.18-0.26-0.1-0.39l1.81-3.07c0.08-0.14,0.25-0.18,0.39-0.1
						c0.14,0.08,0.18,0.26,0.1,0.39l-1.81,3.07C112.35,231.99,112.25,232.04,112.16,232.04z"/>
					<path d="M108.1,230.79c-0.05,0-0.1-0.01-0.14-0.04c-0.14-0.08-0.18-0.26-0.1-0.39l2.27-3.86c0.08-0.14,0.25-0.18,0.39-0.1
						c0.14,0.08,0.18,0.26,0.1,0.39l-2.27,3.86C108.29,230.74,108.2,230.79,108.1,230.79z"/>
				</g>
				<path d="M62.55,158.36c0.36-0.38,26.14-11.52,36.67-13.89c10.54-2.37,14.46-2.39,18.05,3.63c3.59,6.02-17.27,38.88-17.27,38.88
					l-44.37-11.56L62.55,158.36z"/>
				<path class="st0" d="M87.52,171.14c-0.04,0-0.08-0.01-0.12-0.03c-0.14-0.06-0.21-0.23-0.14-0.38
					c4.96-11.08,13.16-18.99,13.24-19.07c0.11-0.11,0.29-0.11,0.4,0.01c0.11,0.11,0.11,0.29-0.01,0.4
					c-0.08,0.08-8.2,7.92-13.11,18.89C87.73,171.07,87.63,171.14,87.52,171.14z"/>
				<path d="M41.46,173.08c0,0,0,6.28,5.95,12.17c7.45,7.37,31.48,2.3,31.48,2.3s2.47,4.05,4.08,14.86
					c1.61,10.81,3.41,25.37,6.09,28.92l23.27-5.02c0,0-7.72-46.32-13.08-52.62c-5.36-6.3-44.37-7.29-44.37-7.29L41.46,173.08z"/>
				<path class="st0" d="M101.94,179.65c-0.12,0-0.23-0.07-0.27-0.19c-0.97-2.79-1.86-4.68-2.64-5.59
					c-3.58-4.2-29.67-6.36-37.58-6.92c-0.16-0.01-0.28-0.15-0.26-0.3c0.01-0.16,0.15-0.27,0.3-0.26
					c10.21,0.72,34.36,2.86,37.98,7.12c0.84,0.98,1.73,2.87,2.74,5.77c0.05,0.15-0.03,0.31-0.18,0.36
					C102,179.65,101.97,179.65,101.94,179.65z"/>
				<g>
					<path d="M70.97,151.3c0.12-0.37,12.05-18.54,12.05-18.54l2.88,2.1l-10.9,17L70.97,151.3z"/>
					<g>
						<path class="st0" d="M29.88,170.78c0,0-4.18-5.84-2.47-18.91c1.71-13.07,5.89-19.86,10.27-21.41
							c4.38-1.55,22.38,1.28,23.78,23.24L29.88,170.78z"/>
						<path d="M29.88,171.06c-0.09,0-0.18-0.04-0.23-0.12c-0.17-0.24-4.22-6.08-2.52-19.11c1.56-11.95,5.38-19.84,10.46-21.64
							c2.35-0.83,8.34-0.42,13.71,3.12c4.36,2.88,9.71,8.74,10.46,20.37c0.01,0.11-0.05,0.22-0.15,0.27l-31.59,17.07
							C29.97,171.05,29.93,171.06,29.88,171.06z M40.31,130.39c-1.05,0-1.92,0.13-2.53,0.34c-4.8,1.7-8.57,9.62-10.08,21.18
							c-1.5,11.44,1.59,17.34,2.28,18.49l31.19-16.86c-0.77-11.27-5.96-16.96-10.19-19.75C47.19,131.29,43.11,130.39,40.31,130.39z"
							/>
					</g>
					<path d="M42.46,161.62c-0.15,0-0.27-0.11-0.28-0.27l-0.87-12.26c-0.01-0.16,0.11-0.29,0.26-0.3c0.15-0.01,0.29,0.11,0.3,0.26
						l0.87,12.26c0.01,0.16-0.11,0.29-0.26,0.3C42.47,161.62,42.47,161.62,42.46,161.62z"/>
					<g>
						<path class="st0" d="M28.36,167.41c0,0,1.52,10.98,16.86,7.3c15.34-3.67,23.34-17.94,23.34-17.94s8.93-1.91,8.63-7.71
							c0,0-2.99,0.8-5.53,0c-2.54-0.8-5.3,0.02-6.35,1.01C58.05,156.89,34.88,158.93,28.36,167.41z"/>
						<path d="M39.42,175.76c-2.87,0-5.29-0.66-7.22-1.98c-3.55-2.43-4.11-6.17-4.13-6.33c-0.01-0.08,0.01-0.15,0.06-0.21
							c3.6-4.69,12.11-7.4,20.33-10.03c6.88-2.2,13.38-4.27,16.64-7.33c1.22-1.14,4.1-1.87,6.63-1.07c2.44,0.77,5.34,0,5.37,0
							c0.08-0.02,0.17-0.01,0.24,0.04c0.07,0.05,0.11,0.13,0.12,0.22c0.3,5.66-7.59,7.71-8.73,7.97
							c-0.8,1.35-8.89,14.47-23.46,17.96C43.16,175.5,41.2,175.76,39.42,175.76z M28.66,167.49c0.12,0.64,0.87,3.77,3.87,5.82
							c2.99,2.04,7.23,2.42,12.62,1.13c15.04-3.6,23.08-17.66,23.16-17.8c0.04-0.07,0.11-0.12,0.19-0.14
							c0.09-0.02,8.33-1.85,8.41-7.07c-0.88,0.19-3.24,0.58-5.34-0.09c-2.47-0.78-5.11,0.05-6.07,0.95
							c-3.35,3.14-9.91,5.24-16.86,7.46C40.56,160.33,32.2,163,28.66,167.49z"/>
					</g>
					<path d="M71.73,151.84c-0.25,0-0.5-0.01-0.77-0.02c-0.16-0.01-0.28-0.14-0.27-0.3c0.01-0.16,0.14-0.28,0.3-0.27
						c4.47,0.18,5.94-1.28,5.96-1.29c0.11-0.11,0.29-0.11,0.4-0.01c0.11,0.11,0.12,0.29,0.01,0.4
						C77.28,150.42,75.85,151.84,71.73,151.84z"/>
					<path d="M71.26,153.96c-0.1,0-0.2,0-0.3,0c-0.16,0-0.28-0.13-0.28-0.29c0-0.16,0.13-0.28,0.29-0.28c0,0,0,0,0.01,0
						c3.84,0.07,5.1-1.29,5.11-1.3c0.11-0.12,0.29-0.13,0.4-0.02c0.12,0.1,0.13,0.28,0.03,0.4
						C76.46,152.53,75.16,153.96,71.26,153.96z"/>
				</g>
				<g>
					<g>
						<path class="st0" d="M44.91,121.76c-0.1,0.19-4.45,7.62-4.45,7.62l-3,2.02c1.11,0.84,3.06,2.11,5.79,2.83
							c2.79,0.74,5.16,0.59,6.54,0.4c-0.12-0.38-0.32-0.87-0.67-1.39c-0.55-0.81-1.21-1.3-1.64-1.56c0.89-1.54,1.79-3.07,2.68-4.61
							L44.91,121.76z"/>
						<path d="M47.5,135.07c-1.45,0-2.9-0.19-4.32-0.57c-2.14-0.57-4.13-1.54-5.89-2.88c-0.07-0.06-0.12-0.14-0.11-0.24
							c0-0.09,0.05-0.18,0.13-0.23l2.94-1.98c1.51-2.58,4.33-7.41,4.41-7.56c0.04-0.08,0.12-0.13,0.21-0.15
							c0.09-0.01,0.18,0.02,0.24,0.08l5.26,5.31c0.09,0.09,0.11,0.23,0.04,0.34l-2.55,4.38c0.59,0.4,1.09,0.9,1.49,1.49
							c0.31,0.45,0.54,0.94,0.71,1.46c0.03,0.08,0.01,0.17-0.03,0.24c-0.04,0.07-0.12,0.12-0.2,0.13
							C49.05,135.01,48.27,135.07,47.5,135.07z M37.95,131.41c1.62,1.17,3.43,2.03,5.37,2.54c1.99,0.53,4.04,0.67,6.08,0.43
							c-0.14-0.35-0.31-0.68-0.52-0.99c-0.4-0.59-0.93-1.09-1.55-1.47c-0.13-0.08-0.18-0.25-0.1-0.39l2.57-4.42l-4.84-4.89
							c-0.84,1.44-4.11,7.03-4.26,7.3c-0.02,0.04-0.05,0.07-0.09,0.09L37.95,131.41z M40.46,129.38L40.46,129.38L40.46,129.38z"/>
					</g>
					<g>
						<path d="M52.56,110.25c-2.57-0.33-3.67,2.38-6.72,1.9c-1.4-0.22-1.95-0.9-3.31-0.65c-0.9,0.17-2.31,0.78-2.76,1.96
							c-0.57,1.51,1.04,2.31,1.97,5.77c0.65,2.43,0.35,3.86,1.28,4.27c0.94,0.42,1.75-0.82,2.81-0.44c1.38,0.49,0.92,2.89,2.22,3.99
							c0.89,0.76,3.17,1.21,7.05-0.59c-0.16-0.7-0.4-2.15-0.79-3.46c-1.21-4.11-2.58-5.12-1.99-6.12c0.91-1.53,3.87-0.4,4.46-1.67
							C57.42,113.89,55.2,110.6,52.56,110.25z"/>
						<g>
							<path class="st0" d="M46.58,116.37l0.98,0.82c0,0,0.7,4.06,1.23,5.43c0.53,1.37,4.9,0.06,4.9,0.06l0.31-0.8l1.21-0.39
								c0,0-2.26-3.54-2.79-6.52C52.42,114.97,49.33,113.93,46.58,116.37z"/>
							<path d="M46.87,116.37c0.33,0.2,0.61,0.37,0.88,0.6l0,0c0.05,0.05,0.09,0.11,0.1,0.17c0.15,0.88,0.32,1.76,0.51,2.63
								c0.19,0.87,0.38,1.75,0.65,2.57l0.05,0.15c0.02,0.05,0.03,0.06,0.05,0.1c0.04,0.05,0.08,0.11,0.15,0.15
								c0.13,0.09,0.32,0.15,0.52,0.18c0.4,0.06,0.83,0.05,1.26,0.01c0.86-0.09,1.74-0.28,2.58-0.52l-0.18,0.17l0.31-0.8l0.01-0.02
								c0.03-0.08,0.1-0.13,0.17-0.15l1.23-0.31l-0.11,0.3c-0.64-1.02-1.21-2.06-1.72-3.15c-0.5-1.09-0.94-2.22-1.18-3.42l0.19,0.22
								c-0.45-0.13-0.97-0.2-1.46-0.2c-0.5-0.01-1,0.05-1.48,0.17c-0.48,0.12-0.96,0.29-1.39,0.53c-0.23,0.11-0.43,0.25-0.64,0.39
								c-0.12,0.08-0.15,0.12-0.23,0.15C47.06,116.31,46.97,116.33,46.87,116.37z M46.3,116.38c0.1-0.13,0.21-0.27,0.35-0.4
								c0.13-0.13,0.29-0.26,0.39-0.32c0.23-0.15,0.45-0.31,0.7-0.43c0.48-0.27,1-0.45,1.53-0.58c0.53-0.13,1.08-0.19,1.62-0.18
								c0.55,0.01,1.08,0.07,1.63,0.23c0.1,0.03,0.17,0.11,0.19,0.2l0,0.02c0.2,1.13,0.59,2.25,1.06,3.33
								c0.47,1.07,1.01,2.13,1.62,3.14c0.06,0.1,0.03,0.22-0.07,0.28c-0.01,0.01-0.02,0.01-0.03,0.01l-0.01,0l-1.18,0.47l0.18-0.17
								l-0.31,0.8l0,0c-0.03,0.08-0.1,0.14-0.18,0.17c-0.88,0.25-1.77,0.44-2.69,0.54c-0.46,0.04-0.93,0.06-1.41-0.01
								c-0.24-0.04-0.5-0.11-0.74-0.27c-0.12-0.07-0.23-0.19-0.32-0.32c-0.03-0.07-0.08-0.15-0.1-0.2l-0.06-0.17
								c-0.29-0.88-0.47-1.76-0.67-2.64c-0.18-0.88-0.35-1.76-0.51-2.65l0.1,0.17C47,117.09,46.62,116.72,46.3,116.38z"/>
						</g>
						<g>
							<path class="st0" d="M47.11,120.02c0,0-1.15-2.57-2.21-1.8C43.84,118.99,45.18,121.79,47.11,120.02z"/>
							<path d="M45.88,120.88c-0.19,0-0.35-0.04-0.49-0.08c-0.58-0.21-1.04-0.81-1.14-1.49c-0.08-0.55,0.1-1.04,0.47-1.32
								c0.26-0.19,0.55-0.24,0.84-0.16c0.96,0.25,1.71,1.89,1.8,2.08c0.05,0.11,0.02,0.24-0.07,0.33
								C46.75,120.73,46.27,120.88,45.88,120.88z M45.31,118.36c-0.09,0-0.16,0.03-0.25,0.09c-0.29,0.21-0.27,0.61-0.24,0.77
								c0.07,0.47,0.38,0.9,0.76,1.04c0.35,0.13,0.75,0.02,1.17-0.32c-0.3-0.61-0.86-1.44-1.33-1.57
								C45.38,118.37,45.35,118.36,45.31,118.36z"/>
						</g>
					</g>
				</g>
			</g>
			<path d="M28.36,196.5c-0.04,0-0.07-0.01-0.11-0.02c-0.15-0.06-0.21-0.23-0.15-0.37c3.18-7.68,13.79-9.17,13.89-9.18
				c0.16-0.02,0.3,0.09,0.32,0.25c0.02,0.16-0.09,0.3-0.25,0.32c-0.1,0.01-10.39,1.46-13.44,8.83
				C28.58,196.43,28.47,196.5,28.36,196.5z"/>
			<path d="M42.8,201.22c-0.14,0-0.27-0.11-0.28-0.26c-0.79-7.41,3.58-12.31,3.62-12.36c0.11-0.12,0.29-0.13,0.4-0.02
				c0.12,0.11,0.13,0.29,0.02,0.4c-0.04,0.05-4.24,4.76-3.48,11.91c0.02,0.16-0.1,0.3-0.25,0.31
				C42.82,201.22,42.81,201.22,42.8,201.22z"/>
		</g>
		<g>
			<g>
				<path class="st0" d="M206.34,112.45c1.87-2.2,22.87-27.94,9.68-57.29c-9.26-20.61-32.82-37.3-60.18-38.2
					c-4.61-0.15-33.72-1.11-49.34,18.44c-10.52,13.16-11.67,31.55-1.45,44.93c12.15,15.9,35.35,18.17,38.8,18.46
					c24.1,2.04,37.39-10.96,50.53-4.68C202.43,97.95,205.2,106.52,206.34,112.45z"/>
				<path d="M206.34,112.74c-0.02,0-0.05,0-0.07-0.01c-0.11-0.03-0.19-0.11-0.21-0.22c-1.74-9.13-5.71-15.23-11.8-18.14
					c-6.69-3.19-13.32-1.35-21.73,0.98c-7.96,2.21-16.99,4.72-28.7,3.73c-2.44-0.21-8.9-0.95-16.2-3.39
					c-9.98-3.34-17.65-8.44-22.8-15.18c-5-6.54-7.46-14.4-7.11-22.73c0.33-8.04,3.37-16.05,8.56-22.55
					c14.18-17.74,39.39-18.88,49.57-18.55c13.15,0.43,25.95,4.5,37.02,11.76c10.46,6.86,18.78,16.31,23.41,26.61
					c5.55,12.35,5.83,25.48,0.81,39.04c-3.81,10.31-9.45,17.26-10.54,18.55C206.5,112.7,206.42,112.74,206.34,112.74z M186.5,92.08
					c2.72,0,5.35,0.5,8.01,1.77c6.12,2.92,10.16,8.96,11.99,17.96c1.66-2.04,6.61-8.59,10.06-17.92c4.96-13.41,4.69-26.4-0.8-38.61
					c-9.84-21.89-33.92-37.18-59.93-38.03c-10.09-0.33-35.09,0.79-49.1,18.33c-10.69,13.37-11.28,31.71-1.44,44.58
					c11.73,15.35,34.21,17.98,38.59,18.35c11.61,0.98,20.59-1.51,28.5-3.71C177.61,93.35,182.17,92.08,186.5,92.08z"/>
			</g>
		</g>
		<g>
			<g>
				<g>
					<path class="st0" d="M240.74,212.26c-1.69-3.48-1.85-6.99,0-10.53l-1.33-1.59l-36.35,1.2l1.25,11.55l35.19,0.41L240.74,212.26z
						"/>
					<path d="M239.5,213.57C239.49,213.57,239.49,213.57,239.5,213.57l-35.19-0.41c-0.14,0-0.26-0.11-0.28-0.25l-1.25-11.55
						c-0.01-0.08,0.02-0.16,0.07-0.22c0.05-0.06,0.13-0.1,0.21-0.1l36.35-1.2c0.09,0,0.17,0.04,0.23,0.1l1.33,1.59
						c0.07,0.09,0.09,0.21,0.03,0.32c-1.74,3.33-1.74,6.69,0,10.27c0.06,0.12,0.03,0.26-0.07,0.34l-1.24,1.03
						C239.63,213.55,239.56,213.57,239.5,213.57z M204.56,212.59l34.83,0.4l0.99-0.82c-1.68-3.58-1.67-7.08,0.01-10.41l-1.12-1.34
						l-35.9,1.18L204.56,212.59z"/>
				</g>
				<g>
					<path class="st0" d="M173.94,198.86h47.91h19.56c0.79,0,1.43,0.64,1.43,1.43c0,0.79-0.64,1.43-1.43,1.43h-31.02
						c-2.27,0-4.11,1.84-4.11,4.11v2.31c0,2.27,1.84,4.11,4.11,4.11h31.02c0.79,0,1.43,0.64,1.43,1.43c0,0.79-0.64,1.43-1.43,1.43
						h-67.47c-4.19,0-7.58-3.4-7.58-7.58v-1.08C166.36,202.26,169.75,198.86,173.94,198.86z"/>
					<path d="M241.41,215.4h-67.47c-4.34,0-7.87-3.53-7.87-7.87v-1.08c0-4.34,3.53-7.87,7.87-7.87h67.47c0.94,0,1.71,0.77,1.71,1.71
						c0,0.94-0.77,1.71-1.71,1.71h-31.02c-2.11,0-3.83,1.72-3.83,3.83v2.31c0,2.11,1.72,3.83,3.83,3.83h31.02
						c0.94,0,1.71,0.77,1.71,1.71C243.12,214.63,242.36,215.4,241.41,215.4z M173.94,199.15c-4.02,0-7.3,3.27-7.3,7.3v1.08
						c0,4.02,3.27,7.3,7.3,7.3h67.47c0.63,0,1.14-0.51,1.14-1.14c0-0.63-0.51-1.14-1.14-1.14h-31.02c-2.43,0-4.4-1.97-4.4-4.4v-2.31
						c0-2.43,1.97-4.4,4.4-4.4h31.02c0.63,0,1.14-0.51,1.14-1.14c0-0.63-0.51-1.14-1.14-1.14H173.94z"/>
				</g>
				<path d="M239.4,206.79h-16.64c-0.16,0-0.29-0.13-0.29-0.29c0-0.16,0.13-0.29,0.29-0.29h16.64c0.16,0,0.29,0.13,0.29,0.29
					C239.69,206.66,239.56,206.79,239.4,206.79z"/>
				<path d="M221.6,209.87h-3.02c-0.16,0-0.29-0.13-0.29-0.29c0-0.16,0.13-0.29,0.29-0.29h3.02c0.16,0,0.29,0.13,0.29,0.29
					C221.89,209.74,221.76,209.87,221.6,209.87z"/>
				<path d="M239.53,209.87h-16.64c-0.16,0-0.29-0.13-0.29-0.29c0-0.16,0.13-0.29,0.29-0.29h16.64c0.16,0,0.29,0.13,0.29,0.29
					C239.82,209.74,239.69,209.87,239.53,209.87z"/>
			</g>
			<g>
				<g>
					<path class="st0" d="M239.69,231.71h-60.94v-14.93l60.94,0C237.89,221.82,237.84,226.8,239.69,231.71z"/>
					<path d="M239.69,232h-60.94c-0.16,0-0.29-0.13-0.29-0.29v-14.93c0-0.16,0.13-0.29,0.29-0.29h60.94c0.09,0,0.18,0.05,0.23,0.12
						s0.07,0.17,0.04,0.26c-1.79,5.02-1.79,9.98,0,14.73c0.03,0.09,0.02,0.19-0.03,0.26C239.87,231.95,239.78,232,239.69,232z
						 M179.03,231.43h60.25c-1.65-4.65-1.65-9.47,0.01-14.36h-60.26V231.43z"/>
				</g>
				<g>
					<path d="M186.08,217.52h54.03c0.65,0,1.18-0.53,1.18-1.18c0-0.65-0.53-1.18-1.18-1.18H170c-2.86,0-5.17,2.31-5.17,5.17v8.13
						c0,2.86,2.31,5.17,5.17,5.17h70.11c0.65,0,1.18-0.53,1.18-1.18c0-0.65-0.53-1.18-1.18-1.18h-54.03c-2.02,0-3.65-1.64-3.65-3.65
						v-6.46C182.43,219.15,184.06,217.52,186.08,217.52z"/>
					<path d="M240.11,233.92H170c-3.01,0-5.46-2.45-5.46-5.46v-8.13c0-3.01,2.45-5.46,5.46-5.46h70.11c0.81,0,1.46,0.66,1.46,1.46
						c0,0.81-0.66,1.46-1.46,1.46h-54.03c-1.86,0-3.37,1.51-3.37,3.37v6.46c0,1.86,1.51,3.37,3.37,3.37h54.03
						c0.81,0,1.46,0.66,1.46,1.46C241.57,233.26,240.91,233.92,240.11,233.92z M170,215.45c-2.69,0-4.88,2.19-4.88,4.88v8.13
						c0,2.69,2.19,4.88,4.88,4.88h70.11c0.49,0,0.89-0.4,0.89-0.89s-0.4-0.89-0.89-0.89h-54.03c-2.17,0-3.94-1.77-3.94-3.94v-6.46
						c0-2.17,1.77-3.94,3.94-3.94h54.03c0.49,0,0.89-0.4,0.89-0.89c0-0.49-0.4-0.89-0.89-0.89H170z"/>
				</g>
				<path d="M238.61,220.61h-9c-0.16,0-0.29-0.13-0.29-0.29s0.13-0.29,0.29-0.29h9c0.16,0,0.29,0.13,0.29,0.29
					S238.77,220.61,238.61,220.61z"/>
				<path d="M228.07,220.61h-16.36c-0.16,0-0.29-0.13-0.29-0.29s0.13-0.29,0.29-0.29h16.36c0.16,0,0.29,0.13,0.29,0.29
					S228.22,220.61,228.07,220.61z"/>
				<path d="M238.42,222.6h-22.49c-0.16,0-0.29-0.13-0.29-0.29c0-0.16,0.13-0.29,0.29-0.29h22.49c0.16,0,0.29,0.13,0.29,0.29
					C238.7,222.48,238.58,222.6,238.42,222.6z"/>
				<path d="M214.03,222.6h-4.58c-0.16,0-0.29-0.13-0.29-0.29c0-0.16,0.13-0.29,0.29-0.29h4.58c0.16,0,0.29,0.13,0.29,0.29
					C214.31,222.48,214.19,222.6,214.03,222.6z"/>
				<path d="M238.42,226.76h-23.85c-0.16,0-0.29-0.13-0.29-0.29c0-0.16,0.13-0.29,0.29-0.29h23.85c0.16,0,0.29,0.13,0.29,0.29
					C238.7,226.64,238.58,226.76,238.42,226.76z"/>
				<path d="M212.9,226.76h-1.19c-0.16,0-0.29-0.13-0.29-0.29c0-0.16,0.13-0.29,0.29-0.29h1.19c0.16,0,0.29,0.13,0.29,0.29
					C213.18,226.64,213.05,226.76,212.9,226.76z"/>
			</g>
		</g>
		<g>
			<g>
				<path class="st0" d="M252.76,213.47h-24.84c-1.37,0-2.39,1.29-2.06,2.62c1.61,6.46,4.03,11.8,5.83,15.21
					c1.32,2.5,3.91,4.07,6.74,4.07h3.81c2.83,0,5.42-1.57,6.74-4.07c1.8-3.41,4.22-8.74,5.83-15.21
					C255.15,214.76,254.13,213.47,252.76,213.47z"/>
				<path d="M242.24,235.66h-3.81c-2.94,0-5.62-1.62-7-4.23c-1.77-3.37-4.23-8.75-5.86-15.27c-0.18-0.72-0.02-1.46,0.44-2.05
					c0.46-0.59,1.15-0.93,1.9-0.93h24.84c0.75,0,1.44,0.34,1.9,0.93c0.46,0.58,0.62,1.33,0.44,2.05c-1.63,6.52-4.08,11.9-5.86,15.27
					C247.86,234.04,245.18,235.66,242.24,235.66z M227.91,213.76c-0.57,0-1.1,0.26-1.45,0.71c-0.35,0.45-0.47,1.01-0.33,1.56
					c1.61,6.47,4.05,11.8,5.81,15.14c1.27,2.42,3.76,3.92,6.49,3.92h3.81c2.73,0,5.22-1.5,6.49-3.92c1.76-3.34,4.19-8.67,5.81-15.14
					c0.14-0.55,0.01-1.11-0.33-1.56c-0.35-0.45-0.88-0.71-1.45-0.71H227.91z"/>
			</g>
			<g>
				<g>
					<path class="st0" d="M236.07,150.94c0.08-4.23-0.46-10.78-4.14-17.31c-7.65-13.6-24.36-19.09-26.01-16.9
						c-1.2,1.59,4.9,8.12,16.13,20.16C227.72,142.95,232.65,147.73,236.07,150.94z"/>
					<path d="M236.07,151.23c-0.07,0-0.14-0.03-0.2-0.08c-4.79-4.49-9.51-9.22-14.03-14.07c-12.01-12.87-17.49-18.74-16.15-20.52
						c0.34-0.45,1.09-0.64,2.24-0.56c5.06,0.34,17.77,5.98,24.25,17.5c2.89,5.14,4.3,11.01,4.17,17.46c0,0.11-0.07,0.21-0.17,0.26
						C236.15,151.22,236.11,151.23,236.07,151.23z M207.46,116.55c-0.93,0-1.22,0.24-1.31,0.35c-1.05,1.4,5.77,8.71,16.11,19.78
						c4.37,4.68,8.92,9.26,13.54,13.61c0.02-6.09-1.36-11.64-4.11-16.52c-6.37-11.33-18.84-16.88-23.79-17.21
						C207.74,116.55,207.59,116.55,207.46,116.55z"/>
				</g>
				<g>
					<path class="st0" d="M237.82,151.07c-0.52-8.51,0.17-15.44,0.9-20.18c2.75-17.94,9.51-27.13,11.04-29.13
						c1.12-1.47,6.6-8.65,8.95-7.55c2.03,0.95,0.85,7.59-0.97,17.46c-1.69,9.16-2.53,13.74-4.27,18.05
						C251.53,134.52,247.29,142.92,237.82,151.07z"/>
					<path d="M237.82,151.36c-0.04,0-0.08-0.01-0.11-0.02c-0.1-0.04-0.17-0.14-0.17-0.25c-0.42-6.82-0.11-13.63,0.9-20.24
						c2.55-16.62,8.6-26,11.09-29.26c3.07-4.03,7.18-8.62,9.3-7.63c2.17,1.01,1.21,6.79-0.81,17.78c-1.69,9.17-2.53,13.77-4.29,18.1
						c-3.25,8.06-8.54,15.27-15.72,21.45C237.95,151.33,237.89,151.36,237.82,151.36z M258.17,94.39c-0.98,0-3.26,1.09-8.19,7.54
						c-2.46,3.23-8.46,12.51-10.98,29c-0.98,6.38-1.29,12.95-0.93,19.54c6.89-6.03,11.97-13.04,15.13-20.85
						c1.73-4.28,2.57-8.86,4.25-17.98c1.61-8.75,3-16.29,1.13-17.16C258.48,94.43,258.35,94.39,258.17,94.39z"/>
				</g>
				<g>
					<path class="st0" d="M236.13,152.86c-2.26-2.16-8.07-7.09-15.85-6.83c-3.61,0.12-8.12,1.38-8.15,2.74
						c-0.04,1.8,7.86,3.48,12.62,4.06C229.47,153.39,233.44,153.16,236.13,152.86z"/>
					<path d="M230.58,153.46c-1.96,0-3.93-0.12-5.87-0.35c-0.13-0.02-12.93-1.64-12.87-4.35c0.04-1.69,4.93-2.9,8.43-3.02
						c7.42-0.25,13.24,4.22,16.05,6.91c0.08,0.08,0.11,0.19,0.07,0.3c-0.04,0.1-0.13,0.18-0.24,0.19
						C234.3,153.35,232.44,153.46,230.58,153.46z M220.87,146.31c-0.19,0-0.38,0-0.58,0.01c-3.73,0.13-7.85,1.41-7.88,2.46
						c-0.03,1.33,6.49,3.05,12.36,3.77c3.53,0.43,7.13,0.46,10.7,0.1C232.67,150.07,227.43,146.31,220.87,146.31z"/>
				</g>
				<g>
					<path class="st0" d="M239.88,156.7c1.04,1.63,2.51,3.8,4.46,6.21c0.94,1.17,3.74,4.59,6.99,7.37
						c5.06,4.34,13.58,9.16,15.33,7.32c1.69-1.77-2.38-10.16-8.87-14.38c-2.14-1.39-4.35-2.2-8.21-3.61
						C245.65,158.17,242.27,157.27,239.88,156.7z"/>
					<path d="M265.44,178.29c-3.24,0-10.03-4.12-14.3-7.78c-2.21-1.9-4.58-4.39-7.02-7.41c-1.61-1.99-3.12-4.08-4.48-6.24
						c-0.06-0.1-0.06-0.22,0.01-0.32c0.07-0.09,0.19-0.14,0.3-0.11c3.28,0.77,6.55,1.75,9.74,2.92c3.8,1.39,6.1,2.23,8.26,3.64
						c5.01,3.25,8.95,9.38,9.35,12.84c0.11,0.9-0.04,1.57-0.43,1.98C266.55,178.13,266.06,178.29,265.44,178.29z M240.51,157.15
						c1.25,1.93,2.62,3.8,4.06,5.59c2.42,2.99,4.76,5.46,6.95,7.34c5.27,4.52,13.46,8.89,14.94,7.34c0.26-0.27,0.36-0.8,0.27-1.51
						c-0.34-2.88-3.77-8.96-9.1-12.42c-2.11-1.37-4.26-2.16-8.15-3.59C246.55,158.8,243.53,157.89,240.51,157.15z"/>
				</g>
				<path d="M240.52,211.39c0,0-0.01,0-0.01,0c-0.16-0.01-0.28-0.14-0.27-0.3c1.2-30.41-2.83-57.14-2.87-57.4
					c-0.02-0.16,0.08-0.3,0.24-0.33c0.15-0.02,0.3,0.08,0.33,0.24c0.04,0.27,4.09,27.05,2.88,57.51
					C240.8,211.27,240.67,211.39,240.52,211.39z"/>
			</g>
			<g>
				<path d="M238.29,211.39c-0.15,0-0.27-0.11-0.28-0.26c-0.02-0.3-2.34-29.79-11.35-47.83c-0.07-0.14-0.01-0.31,0.13-0.38
					c0.14-0.07,0.31-0.01,0.38,0.13c9.06,18.14,11.39,47.74,11.41,48.04c0.01,0.16-0.11,0.29-0.26,0.31
					C238.3,211.39,238.29,211.39,238.29,211.39z"/>
				<path d="M226.03,168.84c0.68,0.73,3.75,4.15,3.73,9.44c-0.01,5.21-3.01,10.16-4.24,9.86
					C224.48,187.89,224.06,183.77,226.03,168.84z"/>
				<path d="M224.94,164.66c-3.13,3.74-8.12,8.81-15.39,13.01c-8.04,4.64-18.89,8.23-20.15,6.11c-1.03-1.73,4.57-6.95,7.42-9.27
					C201.01,171.1,209.79,165.39,224.94,164.66z"/>
				<path d="M224.11,161.52c-3.08-3.62-8.21-8.61-15.81-11.98c-16.19-7.17-34.78-3.08-35.08,0.02c-0.16,1.66,5.08,1.69,19.7,8.42
					c9.73,4.48,13.61,7.31,20.2,6.98C217.85,164.72,221.64,162.98,224.11,161.52z"/>
				<g>
					<path d="M227.16,161.19c3.83-3.79,10.42-9.18,19.87-11.76c5.94-1.62,15.38-2.77,16.33-0.3c1.02,2.66-7.68,9.64-17.03,12.27
						C238.36,163.64,231.27,162.34,227.16,161.19z"/>
					<path class="st0" d="M237.34,162.92c-3.35,0-6.78-0.49-10.25-1.46c-0.1-0.03-0.17-0.1-0.2-0.2c-0.03-0.1,0-0.2,0.08-0.27
						c5.89-5.84,12.62-9.82,20-11.83c4.74-1.29,15.52-3.12,16.67-0.12c0.19,0.5,0.11,1.13-0.26,1.85
						c-1.67,3.32-9.04,8.57-16.96,10.79C243.46,162.51,240.43,162.92,237.34,162.92z M227.72,161.05
						c6.41,1.71,12.65,1.74,18.54,0.08c7.55-2.12,14.99-7.29,16.6-10.5c0.29-0.57,0.37-1.04,0.23-1.39
						c-0.83-2.18-9.87-1.2-15.98,0.47C239.97,151.65,233.45,155.47,227.72,161.05z"/>
				</g>
			</g>
		</g>
		<g>
			<g>
				<path d="M72.71,139.16c-0.07,0-0.14-0.03-0.2-0.08c-0.11-0.11-0.12-0.29-0.01-0.4l1.05-1.1c0.11-0.11,0.29-0.12,0.4-0.01
					c0.11,0.11,0.12,0.29,0.01,0.4l-1.05,1.1C72.86,139.13,72.79,139.16,72.71,139.16z"/>
				<path d="M69.04,143c-0.07,0-0.14-0.03-0.2-0.08c-0.11-0.11-0.12-0.29-0.01-0.4l1.05-1.1c0.11-0.11,0.29-0.12,0.4-0.01
					c0.11,0.11,0.12,0.29,0.01,0.4l-1.05,1.1C69.19,142.97,69.11,143,69.04,143z"/>
				<path d="M70.07,139.22c-0.07,0-0.14-0.03-0.2-0.08l-1.07-1.05c-0.11-0.11-0.11-0.29,0-0.4c0.11-0.11,0.29-0.11,0.4,0l1.07,1.05
					c0.11,0.11,0.11,0.29,0,0.4C70.21,139.19,70.14,139.22,70.07,139.22z"/>
				<path d="M73.8,142.89c-0.07,0-0.14-0.03-0.2-0.08l-1.07-1.05c-0.11-0.11-0.11-0.29,0-0.4c0.11-0.11,0.29-0.11,0.4,0L74,142.4
					c0.11,0.11,0.11,0.29,0,0.4C73.95,142.86,73.88,142.89,73.8,142.89z"/>
			</g>
			<path d="M97.16,36.01c-0.05,0-0.09-0.01-0.14-0.04l-15.14-8.37c-0.14-0.08-0.19-0.25-0.11-0.39c0.08-0.14,0.25-0.19,0.39-0.11
				l15.14,8.37c0.14,0.08,0.19,0.25,0.11,0.39C97.36,35.96,97.26,36.01,97.16,36.01z"/>
			<path d="M102.46,32.38c-0.07,0-0.15-0.03-0.2-0.08L81.82,11.62c-0.11-0.11-0.11-0.29,0-0.4c0.11-0.11,0.29-0.11,0.4,0
				l20.44,20.67c0.11,0.11,0.11,0.29,0,0.4C102.61,32.35,102.54,32.38,102.46,32.38z"/>
			<path d="M108.58,27.15c-0.1,0-0.19-0.05-0.24-0.14l-9.7-15.69c-0.08-0.13-0.04-0.31,0.09-0.39c0.13-0.08,0.31-0.04,0.39,0.09
				l9.7,15.69c0.08,0.13,0.04,0.31-0.09,0.39C108.69,27.13,108.63,27.15,108.58,27.15z"/>
		</g>
		<g>
			<path d="M113.01,141.96c-0.09,0-0.18-0.04-0.23-0.12c-0.09-0.13-0.06-0.31,0.07-0.4c0.46-0.32,0.92-0.67,1.36-1.02
				c0.12-0.1,0.3-0.08,0.4,0.05c0.1,0.12,0.08,0.3-0.05,0.4c-0.45,0.35-0.92,0.7-1.39,1.03
				C113.13,141.94,113.07,141.96,113.01,141.96z"/>
			<path d="M66.21,136.18c-0.08,0-0.16-0.04-0.22-0.1c-0.74-0.89-1.44-1.83-2.09-2.79c-0.09-0.13-0.05-0.31,0.08-0.4
				c0.13-0.09,0.31-0.05,0.4,0.08c0.64,0.94,1.33,1.87,2.06,2.74c0.1,0.12,0.08,0.3-0.04,0.4
				C66.34,136.16,66.28,136.18,66.21,136.18z M62.35,130.47c-0.1,0-0.2-0.05-0.25-0.15c-0.55-1.02-1.06-2.08-1.51-3.14
				c-0.06-0.15,0.01-0.31,0.15-0.37c0.14-0.06,0.31,0.01,0.37,0.15c0.44,1.05,0.94,2.09,1.48,3.09c0.08,0.14,0.02,0.31-0.11,0.39
				C62.44,130.46,62.39,130.47,62.35,130.47z M59.68,124.11c-0.12,0-0.24-0.08-0.27-0.2c-0.34-1.12-0.62-2.25-0.84-3.38
				c-0.03-0.15,0.07-0.3,0.23-0.33c0.15-0.03,0.3,0.07,0.33,0.23c0.21,1.11,0.49,2.23,0.82,3.32c0.05,0.15-0.04,0.31-0.19,0.36
				C59.73,124.1,59.7,124.11,59.68,124.11z M58.38,117.33c-0.15,0-0.27-0.11-0.28-0.26c-0.04-0.44-0.06-0.89-0.08-1.33
				C58,115.36,58,114.98,58,114.6c0-0.34,0.01-0.68,0.02-1.02c0.01-0.16,0.15-0.28,0.29-0.28c0.16,0.01,0.28,0.14,0.28,0.29
				c-0.01,0.33-0.02,0.67-0.02,1c0,0.37,0.01,0.75,0.02,1.12c0.02,0.43,0.04,0.87,0.08,1.3c0.01,0.16-0.1,0.29-0.26,0.31
				C58.39,117.33,58.39,117.33,58.38,117.33z M58.6,110.44c-0.01,0-0.03,0-0.04,0c-0.16-0.02-0.26-0.17-0.24-0.32
				c0.16-1.14,0.39-2.29,0.68-3.42c0.04-0.15,0.19-0.25,0.35-0.21c0.15,0.04,0.25,0.19,0.21,0.35c-0.28,1.11-0.51,2.24-0.67,3.36
				C58.87,110.34,58.74,110.44,58.6,110.44z M60.3,103.75c-0.03,0-0.07-0.01-0.1-0.02c-0.15-0.05-0.22-0.22-0.17-0.37
				c0.4-1.08,0.86-2.16,1.37-3.2c0.07-0.14,0.24-0.2,0.38-0.13c0.14,0.07,0.2,0.24,0.13,0.38c-0.5,1.02-0.95,2.08-1.34,3.15
				C60.53,103.68,60.42,103.75,60.3,103.75z M90.98,98.8c-0.13,0-0.25-0.09-0.28-0.23c-0.03-0.15,0.07-0.31,0.22-0.34
				c1.04-0.22,2.01-0.77,2.82-1.6c0.11-0.11,0.29-0.12,0.4-0.01c0.11,0.11,0.12,0.29,0.01,0.4c-0.88,0.91-1.96,1.52-3.11,1.76
				C91.02,98.79,91,98.8,90.98,98.8z M87.59,98.48c-0.03,0-0.07-0.01-0.1-0.02c-1.08-0.42-2.09-1.1-2.94-1.99
				c-0.11-0.11-0.1-0.29,0.01-0.4c0.11-0.11,0.3-0.1,0.4,0.01c0.79,0.83,1.74,1.47,2.73,1.85c0.15,0.06,0.22,0.22,0.16,0.37
				C87.81,98.41,87.71,98.48,87.59,98.48z M63.32,97.55c-0.05,0-0.1-0.01-0.15-0.04c-0.13-0.08-0.18-0.26-0.09-0.39
				c0.61-0.99,1.28-1.95,1.98-2.87c0.1-0.12,0.28-0.15,0.4-0.05c0.12,0.1,0.15,0.28,0.05,0.4c-0.69,0.9-1.35,1.85-1.95,2.82
				C63.51,97.5,63.42,97.55,63.32,97.55z M95.68,94.17c-0.03,0-0.06,0-0.09-0.01c-0.15-0.05-0.23-0.21-0.19-0.36
				c0.23-0.72,0.34-1.45,0.34-2.17c0-0.37-0.03-0.75-0.09-1.11c-0.03-0.16,0.08-0.3,0.23-0.33c0.16-0.03,0.3,0.08,0.33,0.23
				c0.07,0.39,0.1,0.8,0.1,1.2c0,0.78-0.12,1.57-0.37,2.35C95.92,94.09,95.81,94.17,95.68,94.17z M82.94,93.64
				c-0.11,0-0.22-0.07-0.27-0.18c-0.4-1.04-0.65-2.2-0.75-3.45c-0.01-0.16,0.11-0.29,0.26-0.31c0.16-0.01,0.29,0.11,0.31,0.26
				c0.09,1.19,0.33,2.3,0.71,3.29c0.06,0.15-0.02,0.31-0.16,0.37C83.01,93.64,82.97,93.64,82.94,93.64z M67.53,92.08
				c-0.07,0-0.14-0.03-0.2-0.08c-0.11-0.11-0.12-0.29-0.01-0.4c0.8-0.85,1.65-1.65,2.53-2.4c0.12-0.1,0.3-0.09,0.4,0.03
				c0.1,0.12,0.09,0.3-0.03,0.4c-0.86,0.73-1.69,1.53-2.48,2.36C67.68,92.05,67.61,92.08,67.53,92.08z M72.78,87.61
				c-0.09,0-0.18-0.04-0.24-0.13c-0.09-0.13-0.05-0.31,0.08-0.4c0.96-0.65,1.97-1.26,2.99-1.79c0.14-0.07,0.31-0.02,0.39,0.12
				c0.07,0.14,0.02,0.31-0.12,0.39c-1,0.52-1.99,1.11-2.93,1.76C72.89,87.59,72.84,87.61,72.78,87.61z M94.6,87.6
				c-0.09,0-0.18-0.04-0.23-0.12c-0.62-0.89-1.42-1.67-2.38-2.34c-0.13-0.09-0.16-0.27-0.07-0.4c0.09-0.13,0.27-0.16,0.4-0.07
				c1.01,0.7,1.86,1.54,2.52,2.48c0.09,0.13,0.06,0.31-0.07,0.4C94.71,87.58,94.66,87.6,94.6,87.6z M82.31,86.83
				c-0.01,0-0.02,0-0.04,0c-0.16-0.02-0.27-0.16-0.25-0.32c0.02-0.17,0.04-0.34,0.07-0.51c0.14-0.97,0.35-1.95,0.62-2.91
				c0.04-0.15,0.2-0.24,0.35-0.2c0.15,0.04,0.24,0.2,0.2,0.35c-0.26,0.94-0.47,1.89-0.61,2.84c-0.02,0.17-0.05,0.33-0.07,0.5
				C82.57,86.72,82.45,86.83,82.31,86.83z M78.89,84.42c-0.12,0-0.22-0.07-0.27-0.19c-0.05-0.15,0.02-0.31,0.17-0.37
				c1.14-0.43,2.27-0.75,3.36-0.96c0.15-0.03,0.3,0.07,0.34,0.23c0.03,0.15-0.07,0.3-0.23,0.34c-1.06,0.21-2.16,0.52-3.27,0.94
				C78.96,84.41,78.93,84.42,78.89,84.42z M89.05,83.69c-0.03,0-0.06,0-0.08-0.01c-0.45-0.14-0.91-0.25-1.36-0.33
				c-0.63-0.11-1.29-0.17-1.96-0.19c-0.16,0-0.28-0.13-0.28-0.29c0-0.16,0.13-0.29,0.29-0.28c0.7,0.02,1.38,0.08,2.05,0.2
				c0.48,0.08,0.96,0.2,1.43,0.35c0.15,0.05,0.23,0.21,0.19,0.36C89.28,83.61,89.17,83.69,89.05,83.69z M84.17,80.2
				c-0.04,0-0.08-0.01-0.12-0.02c-0.14-0.06-0.21-0.23-0.14-0.38c0.47-1.06,1.02-2.09,1.64-3.08c0.08-0.13,0.26-0.17,0.39-0.09
				c0.13,0.08,0.17,0.26,0.09,0.39c-0.6,0.97-1.14,1.98-1.61,3.01C84.38,80.13,84.28,80.2,84.17,80.2z M87.82,74.36
				c-0.06,0-0.13-0.02-0.18-0.07c-0.12-0.1-0.14-0.28-0.03-0.4c0.75-0.89,1.57-1.74,2.43-2.51c0.12-0.11,0.3-0.1,0.4,0.02
				c0.11,0.12,0.1,0.3-0.02,0.4c-0.84,0.75-1.64,1.58-2.38,2.45C87.99,74.32,87.9,74.36,87.82,74.36z"/>
			<path d="M93,69.75c-0.09,0-0.18-0.05-0.24-0.13c-0.09-0.13-0.05-0.31,0.08-0.4c0.48-0.32,0.98-0.62,1.49-0.9
				c0.14-0.08,0.31-0.03,0.39,0.11c0.08,0.14,0.03,0.31-0.11,0.39c-0.49,0.27-0.98,0.57-1.45,0.88C93.11,69.73,93.05,69.75,93,69.75
				z"/>
		</g>
	</g>
	<g>
		<path d="M126.68,53.1c1.52-0.01,3.04-0.02,4.6-0.03c0.03,3.89,0.05,7.71,0.08,11.64c-1.53,0.01-3.07,0.02-4.6,0.03
			C126.74,60.86,126.71,56.98,126.68,53.1z"/>
		<path d="M178.4,81.2c-3.24,0.02-6.39,0.04-9.58,0.06c-0.1-15.08-0.2-30.13-0.3-45.23c3.16-0.02,6.33-0.04,9.58-0.06
			c0,0.2,0,0.42,0,0.63c0.03,4.48,0.07,8.96,0.08,13.44c0,0.5,0.12,0.72,0.64,0.89c3.05,0.98,5,3.05,5.59,6.2
			c0.59,3.18-0.49,5.83-3.06,7.8c-0.73,0.56-1.62,0.95-2.48,1.28c-0.48,0.18-0.57,0.38-0.57,0.83c0.04,4.48,0.07,8.96,0.1,13.44
			C178.4,80.71,178.4,80.93,178.4,81.2z"/>
		<path d="M165.1,40.94c0.08,11.81,0.16,23.62,0.24,35.5c-0.14-0.09-0.25-0.14-0.35-0.21c-4.04-2.99-8.53-5.05-13.33-6.45
			c-0.44-0.13-0.58-0.3-0.58-0.76c-0.03-6.85-0.08-13.7-0.13-20.56c0-0.4,0.09-0.59,0.5-0.71c4.81-1.46,9.29-3.58,13.3-6.63
			c0.07-0.06,0.15-0.11,0.23-0.16C165,40.94,165.04,40.95,165.1,40.94z"/>
		<path d="M134.72,48.75c4.28-0.03,8.52-0.06,12.8-0.09c0.04,6.73,0.09,13.45,0.13,20.21c-4.25,0.03-8.51,0.06-12.8,0.09
			C134.81,62.24,134.77,55.53,134.72,48.75z"/>
		<path d="M151.44,87.64c-0.24,0.01-0.42,0.03-0.6,0.04c-3.54,0.03-7.08,0.04-10.61,0.08c-0.41,0-0.64-0.12-0.84-0.48
			c-0.91-1.6-1.86-3.18-2.78-4.78c-0.12-0.2-0.22-0.45-0.22-0.68c-0.03-3.05-0.05-6.1-0.07-9.15c0-0.07,0.02-0.15,0.03-0.26
			c3.44-0.02,6.87-0.05,10.36-0.07c0.01,0.21,0.03,0.41,0.03,0.61c0.02,2.01,0.01,4.03,0.05,6.04c0.01,0.35,0.12,0.74,0.29,1.05
			c1.33,2.34,2.68,4.66,4.02,6.99C151.21,87.22,151.31,87.4,151.44,87.64z"/>
	</g>
</g>
</svg>
