<?xml version="1.0" encoding="utf-8"?>
<!-- Generator: Adobe Illustrator 26.0.3, SVG Export Plug-In . SVG Version: 6.00 Build 0)  -->
<svg version="1.1" xmlns="http://www.w3.org/2000/svg" xmlns:xlink="http://www.w3.org/1999/xlink" x="0px" y="0px"
	 viewBox="0 0 300 240" style="enable-background:new 0 0 300 240;" xml:space="preserve">
<style type="text/css">
	.st0{fill:#FFFFFF;}
</style>
<g id="Background">
</g>
<g id="Illustration">
	<g id="K-12_program_1_">
		<g>
			<g>
				<path class="st0" d="M143.18,145.73h81.7c4.18,0,7.57-3.39,7.57-7.56V8.38c0-4.18-3.39-7.56-7.57-7.56H35.36
					c-4.18,0-7.57,3.39-7.57,7.56v129.78c0,4.18,3.39,7.56,7.57,7.56H143.18z"/>
				<g>
					<path class="st0" d="M35.52,142.77c-2.54,0-4.61-2.07-4.61-4.61V8.38c0-2.54,2.07-4.61,4.61-4.61h189.52
						c2.54,0,4.61,2.07,4.61,4.61v129.78c0,2.54-2.07,4.61-4.61,4.61H35.52z"/>
					<path d="M225.04,143.08H35.52c-2.72,0-4.92-2.21-4.92-4.92V8.38c0-2.71,2.21-4.92,4.92-4.92h189.52c2.72,0,4.92,2.21,4.92,4.92
						v129.78C229.96,140.88,227.75,143.08,225.04,143.08z M35.52,4.09c-2.37,0-4.3,1.93-4.3,4.3v129.78c0,2.37,1.93,4.3,4.3,4.3
						h189.52c2.37,0,4.3-1.93,4.3-4.3V8.38c0-2.37-1.93-4.3-4.3-4.3H35.52z"/>
				</g>
				<path d="M103.56,146.04H62.12c-0.17,0-0.31-0.14-0.31-0.31s0.14-0.31,0.31-0.31h41.44c0.17,0,0.31,0.14,0.31,0.31
					S103.73,146.04,103.56,146.04z"/>
				<path d="M38.75,146.04h-3.39c-4.35,0-7.89-3.53-7.89-7.88V8.38c0-4.34,3.54-7.88,7.89-7.88h189.52c4.35,0,7.89,3.53,7.89,7.88
					V51.9c0,0.17-0.14,0.31-0.31,0.31c-0.17,0-0.31-0.14-0.31-0.31V8.38c0-4-3.26-7.25-7.26-7.25H35.36c-4,0-7.26,3.25-7.26,7.25
					v129.78c0,4,3.26,7.25,7.26,7.25h3.39c0.17,0,0.31,0.14,0.31,0.31S38.93,146.04,38.75,146.04z"/>
			</g>
		</g>
		<g>
			<g>
				<g>
					<polygon class="st0" points="245.39,239.24 230.3,239.24 230.3,73.54 245.24,72.48 					"/>
					<path d="M245.39,239.55H230.3c-0.17,0-0.31-0.14-0.31-0.31V73.54c0-0.16,0.13-0.3,0.29-0.31l14.94-1.05
						c0.09,0,0.17,0.02,0.23,0.08c0.06,0.06,0.1,0.14,0.1,0.23l0.15,166.76c0,0.08-0.03,0.16-0.09,0.22
						C245.55,239.52,245.47,239.55,245.39,239.55z M230.61,238.93h14.46l-0.15-166.11l-14.31,1.01V238.93z"/>
				</g>
				<g>
					<path class="st0" d="M299.38,239.24h-53.84c-0.11,0-0.2-0.09-0.2-0.21V72.7c0-0.12,0.09-0.21,0.21-0.21l53.84,2.13
						c0.11,0,0.19,0.1,0.19,0.21v164.2C299.59,239.15,299.5,239.24,299.38,239.24z"/>
					<path d="M299.38,239.55h-53.84c-0.35,0-0.62-0.23-0.62-0.52V72.7c0-0.16,0.08-0.3,0.22-0.4c0.12-0.08,0.27-0.13,0.43-0.12
						l53.84,2.13c0.33,0.01,0.59,0.24,0.59,0.52v164.2C300,239.32,299.73,239.55,299.38,239.55z M245.75,238.93h53.42v-164
						l-53.42-2.11V238.93z"/>
				</g>
				<g>
					<path d="M272.56,161.89c-0.17,0-0.31-0.14-0.31-0.31V86.43c0-0.17,0.14-0.31,0.31-0.31s0.31,0.14,0.31,0.31v75.15
						C272.88,161.75,272.74,161.89,272.56,161.89z"/>
					<path d="M259.77,135.11c-0.17,0-0.31-0.14-0.31-0.31v-22.17c0-0.17,0.14-0.31,0.31-0.31s0.31,0.14,0.31,0.31v22.17
						C260.08,134.97,259.94,135.11,259.77,135.11z"/>
					<path d="M259.77,211.14c-0.17,0-0.31-0.14-0.31-0.31v-38.26c0-0.17,0.14-0.31,0.31-0.31s0.31,0.14,0.31,0.31v38.26
						C260.08,211,259.94,211.14,259.77,211.14z"/>
				</g>
			</g>
			<g>
				<g>
					<g>
						<polygon class="st0" points="172.3,239.26 148.18,239.26 148.18,120.46 172.17,115.75 						"/>
						<path d="M172.3,239.57h-24.12c-0.17,0-0.31-0.14-0.31-0.31v-118.8c0-0.15,0.11-0.28,0.25-0.31l23.99-4.71
							c0.09-0.02,0.19,0.01,0.26,0.07c0.07,0.06,0.11,0.15,0.11,0.24l0.13,123.51c0,0.08-0.03,0.16-0.09,0.22
							C172.46,239.54,172.38,239.57,172.3,239.57z M148.49,238.95h23.5l-0.13-122.82l-23.37,4.59V238.95z"/>
					</g>
					<g>
						<path class="st0" d="M237.4,239.26h-64.98c-0.13,0-0.24-0.07-0.24-0.16V115.92c0-0.09,0.11-0.16,0.25-0.16l64.98,1.64
							c0.13,0,0.23,0.07,0.23,0.16V239.1C237.64,239.19,237.53,239.26,237.4,239.26z"/>
						<path d="M237.4,239.57h-64.98c-0.31,0-0.55-0.21-0.55-0.47V115.92c0-0.12,0.05-0.23,0.14-0.31c0.11-0.11,0.27-0.16,0.44-0.16
							l64.98,1.64c0.31,0.01,0.54,0.21,0.54,0.47V239.1C237.95,239.36,237.71,239.57,237.4,239.57z M172.48,238.95l64.85,0V117.7
							l-64.85-1.63V238.95z M237.41,238.95L237.41,238.95C237.41,238.95,237.41,238.95,237.41,238.95z"/>
					</g>
				</g>
				<g>
					<path d="M204.92,190.39c-0.17,0-0.31-0.14-0.31-0.31v-63.28c0-0.17,0.14-0.31,0.31-0.31s0.31,0.14,0.31,0.31v63.28
						C205.23,190.25,205.09,190.39,204.92,190.39z"/>
					<path d="M187.76,147.75c-0.17,0-0.31-0.14-0.31-0.31v-10.79c0-0.17,0.14-0.31,0.31-0.31c0.17,0,0.31,0.14,0.31,0.31v10.79
						C188.07,147.61,187.93,147.75,187.76,147.75z"/>
					<path d="M187.76,219.32c-0.17,0-0.31-0.14-0.31-0.31v-53.73c0-0.17,0.14-0.31,0.31-0.31c0.17,0,0.31,0.14,0.31,0.31v53.73
						C188.07,219.18,187.93,219.32,187.76,219.32z"/>
					<path d="M222.08,169.02c-0.17,0-0.31-0.14-0.31-0.31v-10.79c0-0.17,0.14-0.31,0.31-0.31s0.31,0.14,0.31,0.31v10.79
						C222.39,168.88,222.25,169.02,222.08,169.02z"/>
				</g>
			</g>
			<g>
				<g>
					<g>
						<polygon class="st0" points="83.84,239.26 54.31,239.26 54.31,179.21 83.84,175.95 						"/>
						<path d="M83.84,239.57H54.31c-0.17,0-0.31-0.14-0.31-0.31v-60.05c0-0.16,0.12-0.29,0.28-0.31l29.53-3.27
							c0.09-0.01,0.18,0.02,0.24,0.08c0.07,0.06,0.1,0.14,0.1,0.23v63.32C84.15,239.43,84.01,239.57,83.84,239.57z M54.63,238.95
							h28.9v-62.66l-28.9,3.2V238.95z"/>
					</g>
					<g>
						<path class="st0" d="M164.42,239.26H83.84v-63.14c0-0.09,0.16-0.17,0.34-0.17l80.23,1.36V239.26z"/>
						<path d="M164.42,239.57H83.84c-0.17,0-0.31-0.14-0.31-0.31v-63.14c0-0.11,0.05-0.22,0.13-0.3c0.12-0.12,0.32-0.17,0.53-0.18
							l80.23,1.36c0.17,0,0.31,0.14,0.31,0.31v61.95C164.73,239.43,164.59,239.57,164.42,239.57z M84.15,238.95h79.95v-61.34
							l-79.92-1.35c-0.01,0-0.02,0-0.03,0V238.95z"/>
					</g>
				</g>
				<g>
					<path d="M105.26,230.12c-0.17,0-0.31-0.11-0.31-0.24v-37.49c0-0.13,0.14-0.24,0.31-0.24c0.17,0,0.31,0.11,0.31,0.24v37.49
						C105.57,230.02,105.43,230.12,105.26,230.12z"/>
					<path d="M147.49,234.51c-0.17,0-0.31-0.11-0.31-0.24v-37.49c0-0.13,0.14-0.24,0.31-0.24s0.31,0.11,0.31,0.24v37.49
						C147.8,234.4,147.66,234.51,147.49,234.51z"/>
					<path d="M126.38,219.82c-0.17,0-0.31-0.11-0.31-0.24v-7.67c0-0.13,0.14-0.24,0.31-0.24c0.17,0,0.31,0.11,0.31,0.24v7.67
						C126.69,219.71,126.55,219.82,126.38,219.82z"/>
				</g>
			</g>
			<g>
				<g>
					<g>
						<polygon class="st0" points="20.96,239.26 0.49,239.26 0.49,219.24 20.77,216.3 						"/>
						<path d="M20.96,239.57H0.49c-0.27,0-0.49-0.14-0.49-0.31v-20.02c0-0.15,0.16-0.27,0.38-0.3l20.28-2.94
							c0.15-0.02,0.3,0,0.41,0.06c0.12,0.06,0.18,0.15,0.18,0.24l0.19,22.96c0,0.08-0.05,0.16-0.14,0.22
							C21.22,239.54,21.09,239.57,20.96,239.57z M0.98,238.95h19.49l-0.19-22.26l-19.3,2.8V238.95z"/>
					</g>
					<g>
						<path class="st0" d="M75.91,239.26H20.96c-0.11,0-0.19-0.06-0.19-0.14v-22.68c0-0.08,0.09-0.14,0.2-0.14l54.95,0.66
							c0.11,0,0.19,0.06,0.19,0.14v22.02C76.11,239.2,76.02,239.26,75.91,239.26z"/>
						<path d="M75.91,239.57H20.96c-0.38,0-0.68-0.2-0.68-0.45v-22.68c0-0.13,0.08-0.25,0.22-0.33c0.13-0.08,0.31-0.13,0.48-0.12
							l54.95,0.66c0.37,0,0.67,0.21,0.67,0.45v22.02C76.6,239.37,76.29,239.57,75.91,239.57z M21.26,238.95h54.36v-21.68
							l-54.36-0.65V238.95z M20.96,216.61C20.96,216.61,20.96,216.61,20.96,216.61L20.96,216.61z"/>
					</g>
				</g>
				<g>
					<path d="M65.63,229.57c-0.17,0-0.31-0.14-0.31-0.31v-5.7c0-0.17,0.14-0.31,0.31-0.31s0.31,0.14,0.31,0.31v5.7
						C65.94,229.43,65.8,229.57,65.63,229.57z"/>
					<path d="M54.55,240c-0.17,0-0.31-0.14-0.31-0.31v-7.39c0-0.17,0.14-0.31,0.31-0.31c0.17,0,0.31,0.14,0.31,0.31v7.39
						C54.86,239.86,54.72,240,54.55,240z"/>
				</g>
			</g>
		</g>
		<g>
			<g>
				<path d="M189.67,63.16c-1.8,1.49-0.74,2.76-3.04,6.18c-1.69,2.51-3.13,3.12-3.08,4.76c0.05,1.48,1.26,2.54,2.07,3.24
					c3.65,3.19,8.68,2.84,11.76,2.63c2.5-0.17,5.92-0.4,6.39-1.97c0.46-1.54-2.49-2.6-2.76-5.65c-0.21-2.45,1.58-3.14,1.18-5.31
					c-0.52-2.81-4-4.24-4.56-4.47C195.39,61.67,191.88,61.33,189.67,63.16z"/>
				<path d="M191.44,63.47c0,0-0.48-4.78-4.32-3.73c-3.84,1.04-0.44,5.16,2.38,5.64C192.32,65.86,191.44,63.47,191.44,63.47z"/>
			</g>
			<g>
				<g>
					<polygon class="st0" points="205.42,145.36 201.29,152.2 199.06,149.27 202.67,142.59 					"/>
					<path d="M201.29,152.51c-0.1,0-0.19-0.05-0.25-0.12l-2.23-2.93c-0.07-0.1-0.08-0.23-0.03-0.34l3.61-6.68
						c0.05-0.09,0.13-0.15,0.23-0.16c0.1-0.01,0.2,0.02,0.27,0.09l2.75,2.77c0.1,0.1,0.12,0.26,0.05,0.38l-4.12,6.84
						c-0.05,0.09-0.15,0.14-0.25,0.15C201.3,152.51,201.3,152.51,201.29,152.51z M199.43,149.24l1.83,2.41l3.76-6.24l-2.28-2.3
						L199.43,149.24z"/>
				</g>
				<path d="M202.72,151.16c-1.09,2.12-3.84,7.28-6.49,9.75c-0.65,0.6-1.74,0.32-1.97-0.51c-0.83-2.98-1.38-9.17,1.71-14.06
					c0,0,1.47-0.16,4.22,0.33l-0.61,2.44l0.34-0.23c0.51-0.34,1.2-0.32,1.67,0.07l0.79,0.64
					C202.85,149.98,202.99,150.62,202.72,151.16z"/>
				<path class="st0" d="M195.79,160.33c-0.12,0-0.24-0.07-0.29-0.2c-2.43-6.08,0.73-12.99,0.87-13.28
					c0.07-0.16,0.26-0.22,0.41-0.15s0.22,0.26,0.15,0.41c-0.03,0.07-3.18,6.95-0.85,12.78c0.06,0.16-0.01,0.34-0.17,0.4
					C195.87,160.32,195.83,160.33,195.79,160.33z"/>
				<path class="st0" d="M201.12,154.43c-0.06,0-0.11-0.01-0.16-0.05l-2.06-1.27c-0.15-0.09-0.19-0.28-0.1-0.43
					c0.09-0.15,0.28-0.19,0.43-0.1l2.06,1.27c0.15,0.09,0.19,0.28,0.1,0.43C201.33,154.38,201.22,154.43,201.12,154.43z"/>
				<path class="st0" d="M200.09,156.17c-0.06,0-0.13-0.02-0.18-0.06l-1.89-1.38c-0.14-0.1-0.17-0.3-0.07-0.44
					c0.1-0.14,0.3-0.17,0.44-0.07l1.89,1.38c0.14,0.1,0.17,0.3,0.07,0.44C200.28,156.12,200.18,156.17,200.09,156.17z"/>
				<g>
					<path class="st0" d="M217.12,148.01c0,0.16,3.78,7.98,3.78,7.98l-4.3,0.33l-2.92-6.68L217.12,148.01z"/>
					<path d="M216.6,156.63c-0.12,0-0.24-0.07-0.29-0.19l-2.92-6.68c-0.07-0.15,0-0.33,0.15-0.41l3.44-1.63
						c0.1-0.05,0.21-0.04,0.3,0.02c0.07,0.04,0.12,0.12,0.14,0.2c0.14,0.39,2.32,4.93,3.76,7.91c0.04,0.09,0.04,0.2-0.01,0.29
						c-0.05,0.09-0.14,0.15-0.25,0.16l-4.3,0.33C216.62,156.63,216.61,156.63,216.6,156.63z M214.09,149.79l2.71,6.2l3.62-0.27
						c-2.36-4.87-3.18-6.63-3.46-7.28L214.09,149.79z M217.43,148.01L217.43,148.01L217.43,148.01z"/>
				</g>
				<path d="M216.95,154.36c0,0,0.86-1.95,3.09-0.98c0,0,4.1,5.61,5.63,10.25c0.43,1.31-0.99,2.49-2.31,1.93
					c-3.09-1.32-7.94-4.1-10.71-9.25c0,0,0.86-2.12,2.23-3.09L216.95,154.36z"/>
				<path class="st0" d="M224.41,164.46c-1.17,0-5.43-0.55-10.98-7.79c-0.1-0.14-0.08-0.33,0.06-0.44c0.14-0.1,0.33-0.08,0.44,0.06
					c6.14,8.03,10.67,7.54,10.71,7.54c0.17-0.02,0.33,0.1,0.35,0.27c0.02,0.17-0.09,0.33-0.26,0.35
					C224.7,164.44,224.59,164.46,224.41,164.46z"/>
				<path class="st0" d="M220.9,160.05c-0.11,0-0.22-0.06-0.27-0.16c-0.08-0.15-0.03-0.34,0.12-0.42l2.06-1.14
					c0.15-0.08,0.34-0.03,0.42,0.12c0.08,0.15,0.03,0.34-0.12,0.42l-2.06,1.14C221,160.03,220.95,160.05,220.9,160.05z"/>
				<path class="st0" d="M219.87,158.58c-0.11,0-0.22-0.06-0.28-0.17c-0.08-0.15-0.02-0.34,0.14-0.42l2.23-1.14
					c0.15-0.08,0.34-0.02,0.42,0.14c0.08,0.15,0.02,0.34-0.14,0.42l-2.23,1.14C219.97,158.57,219.92,158.58,219.87,158.58z"/>
				<path d="M196.48,106.11c0,0,11.2,1.9,19.28,9.92c2.04,2.02,2.76,4.94,1.88,7.61c-1.79,5.48-5.7,15.5-12.22,23.03l-4.98-4.07
					c0,0,1.2-9.45,4.47-15.31c3.27-5.86-15.81-18.57-15.81-18.57L196.48,106.11z"/>
				<path d="M218.5,149.47l-5.84,1.63c0,0-10.66-21.34-13.75-24.43c-3.09-3.09-9.11-8.14-15.47-9.93c-6.36-1.79-5.23-5.88-5.23-5.88
					l9.7-3.4c0,0,15.12,6.19,20.11,13.19C213,127.65,218.5,149.47,218.5,149.47z"/>
				<path d="M200.38,113.98c3.05,1.98,5.93,4.28,7.63,6.66c4.98,7,10.48,28.83,10.48,28.83l-5.84,1.63c0,0-10.66-21.34-13.75-24.43
					c-3.09-3.09-9.11-8.14-15.47-9.93c-6.36-1.79-5.23-5.88-5.23-5.88l9.7-3.4C187.9,107.45,194.48,110.14,200.38,113.98z"/>
				<path class="st0" d="M213.74,133.79c-0.13,0-0.25-0.08-0.29-0.21c-2.1-6.12-4.02-10.41-5.69-12.75
					c-2.72-3.83-8.58-7.43-13.01-9.77c-0.15-0.08-0.21-0.27-0.13-0.42c0.08-0.15,0.27-0.21,0.42-0.13
					c4.49,2.38,10.43,6.03,13.23,9.96c1.71,2.4,3.65,6.74,5.77,12.91c0.06,0.16-0.03,0.34-0.19,0.4
					C213.81,133.79,213.77,133.79,213.74,133.79z"/>
				<path class="st0" d="M208.62,143.55c-0.11,0-0.22-0.06-0.28-0.17c-2.16-4.13-4.04-7.59-5.6-10.29
					c-0.09-0.15-0.03-0.34,0.11-0.43c0.15-0.09,0.34-0.03,0.43,0.11c1.56,2.71,3.44,6.18,5.61,10.32c0.08,0.15,0.02,0.34-0.13,0.42
					C208.72,143.54,208.67,143.55,208.62,143.55z"/>
			</g>
			<g>
				<g>
					<path class="st0" d="M189.39,76.11c-1.5-0.56-3.19-0.34-4.51,0.58c-2.16,1.5-5.1,4.29-5.42,8.53
						c-0.52,6.81-6.61,23.5-0.3,30.95c0.51-0.41,9.93-9.55,19.01-9.58c-0.21-4.38,0.3-18.07-1.4-23.83
						C195.64,78.9,191.85,77.02,189.39,76.11z"/>
					<path d="M179.17,116.48c-0.09,0-0.18-0.04-0.24-0.11c-4.83-5.7-2.58-16.58-0.93-24.52c0.55-2.66,1.03-4.97,1.16-6.66
						c0.33-4.29,3.2-7.13,5.56-8.77c1.41-0.98,3.2-1.2,4.79-0.61c4.14,1.54,6.69,3.84,7.58,6.86c1.29,4.35,1.32,13.23,1.34,19.1
						c0.01,1.99,0.01,3.7,0.07,4.8c0,0.08-0.03,0.17-0.09,0.23c-0.06,0.06-0.14,0.1-0.22,0.1c-7.22,0.02-14.72,5.82-18.55,9.27
						c-0.14,0.12-0.23,0.2-0.27,0.24C179.31,116.46,179.24,116.48,179.17,116.48z M187.69,76.11c-0.93,0-1.85,0.28-2.63,0.82
						c-2.24,1.55-4.98,4.26-5.29,8.3c-0.13,1.73-0.61,4.05-1.17,6.73c-1.59,7.7-3.77,18.21,0.6,23.74c0,0,0.01,0,0.01-0.01
						c3.84-3.46,11.32-9.24,18.64-9.43c-0.04-1.11-0.05-2.7-0.05-4.51c-0.02-5.84-0.06-14.66-1.32-18.93
						c-0.83-2.81-3.25-4.98-7.2-6.45C188.77,76.21,188.23,76.11,187.69,76.11z"/>
				</g>
				<g>
					<g>
						<polygon points="204.35,85.36 206.07,80.85 208.12,80.78 212.21,86.01 212.38,86.67 207.23,96.26 200.88,97.01 201.04,92.62 
							202.74,85.33 						"/>
						<g>
							<polygon class="st0" points="206.07,80.85 209.07,85.16 204.32,85.26 							"/>
							<path d="M204.32,85.57c-0.1,0-0.2-0.05-0.26-0.13c-0.06-0.09-0.07-0.2-0.03-0.29l1.75-4.41c0.04-0.11,0.14-0.18,0.25-0.19
								c0.11-0.01,0.23,0.04,0.29,0.13l3,4.31c0.07,0.09,0.07,0.22,0.02,0.32c-0.05,0.1-0.16,0.17-0.27,0.17L204.32,85.57
								C204.32,85.57,204.32,85.57,204.32,85.57z M206.14,81.51l-1.36,3.43l3.7-0.08L206.14,81.51z"/>
						</g>
					</g>
					<g>
						<path d="M202.48,86.56c-0.03,0-0.06,0-0.09-0.01c-0.17-0.05-0.26-0.22-0.21-0.39l0.26-0.92c0.04-0.13,0.16-0.22,0.3-0.23
							l7.14-0.07c0,0,0,0,0,0c0.17,0,0.31,0.14,0.31,0.31c0,0.17-0.14,0.31-0.31,0.31l-6.91,0.06l-0.2,0.69
							C202.74,86.47,202.62,86.56,202.48,86.56z"/>
						<path d="M200.58,97.32c-0.16,0-0.29-0.12-0.31-0.28c-0.02-0.17,0.1-0.33,0.27-0.34l6.49-0.73l4.89-9.34
							c0.09-0.17,0.07-0.38-0.05-0.54l-4.46-5.74c-0.11-0.14-0.08-0.33,0.05-0.44c0.14-0.11,0.33-0.08,0.44,0.05l4.46,5.74
							c0.27,0.35,0.31,0.82,0.11,1.21l-4.97,9.49c-0.05,0.09-0.14,0.15-0.24,0.17l-6.65,0.75C200.6,97.32,200.59,97.32,200.58,97.32
							z M207.23,96.26L207.23,96.26L207.23,96.26z"/>
						<path d="M203.96,87.19c-0.09,0-0.18-0.04-0.24-0.12l-1.22-1.55c-0.11-0.14-0.08-0.33,0.05-0.44c0.14-0.11,0.33-0.08,0.44,0.05
							l1.22,1.55c0.11,0.14,0.08,0.33-0.05,0.44C204.1,87.17,204.03,87.19,203.96,87.19z"/>
					</g>
				</g>
				<g>
					<path class="st0" d="M182.32,92.77c0,0,3.38,0.94,6.4-0.63l0.07,5.1c0,0,7.55-2.34,9.51-3.71c1.97-1.37,0.5-6.17,4.18-7.28
						c0,0-0.79,2.23-0.46,2.49c0.33,0.26,1.31,0.39,2.42-0.33c1.11-0.72,3.15-1.7,4.52-1.37c1.38,0.33-0.76,5.61-4.06,6.74
						c-4.2,1.43-11.6,10.86-17.61,12.49c-1.47,0.4-3.01-0.29-3.66-1.67c-0.36-0.75-0.67-1.78-0.82-3.17
						C182.45,97.81,182.32,92.77,182.32,92.77z"/>
					<path d="M186.47,106.69c-1.3,0-2.53-0.74-3.11-1.96c-0.43-0.91-0.71-2.01-0.84-3.27c-0.37-3.59-0.5-8.63-0.5-8.68
						c0-0.1,0.04-0.19,0.12-0.25c0.08-0.06,0.18-0.08,0.28-0.05c0.03,0.01,3.3,0.89,6.17-0.61c0.1-0.05,0.21-0.05,0.3,0.01
						c0.09,0.06,0.15,0.16,0.15,0.26l0.06,4.69c1.58-0.5,7.38-2.39,9.03-3.54c0.71-0.49,0.92-1.59,1.15-2.75
						c0.36-1.81,0.77-3.87,3.11-4.58c0.11-0.03,0.23,0,0.32,0.08c0.08,0.08,0.11,0.21,0.07,0.32c-0.33,0.94-0.56,1.9-0.52,2.17
						c0.24,0.14,1.03,0.27,2.02-0.37c0.48-0.31,2.97-1.84,4.76-1.42c0.23,0.06,0.63,0.26,0.66,0.98c0.08,1.6-1.85,5.39-4.7,6.36
						c-1.79,0.61-4.28,2.81-6.91,5.14c-3.41,3.01-7.28,6.43-10.71,7.36C187.08,106.65,186.77,106.69,186.47,106.69z M182.65,93.16
						c0.04,1.27,0.18,5.26,0.49,8.23c0.12,1.19,0.39,2.22,0.79,3.06c0.59,1.23,1.97,1.86,3.3,1.5c3.29-0.89,7.1-4.26,10.46-7.23
						c2.68-2.37,5.22-4.61,7.13-5.26c2.54-0.86,4.34-4.33,4.27-5.74c-0.01-0.17-0.05-0.37-0.18-0.41c-1.12-0.27-2.96,0.48-4.28,1.33
						c-1.28,0.83-2.39,0.63-2.79,0.31c-0.12-0.1-0.43-0.35,0.14-2.19c-1.46,0.75-1.78,2.33-2.08,3.86c-0.26,1.28-0.5,2.5-1.41,3.14
						c-1.98,1.39-9.29,3.66-9.6,3.75c-0.09,0.03-0.2,0.01-0.28-0.05c-0.08-0.06-0.13-0.15-0.13-0.25l-0.06-4.62
						C186.04,93.68,183.6,93.35,182.65,93.16z"/>
				</g>
			</g>
			<g>
				<g>
					<path class="st0" d="M190.23,71.98l-1.97,3.44c-0.97,1.69-0.86,3.82,0.34,5.36c0.2,0.26,0.43,0.52,0.68,0.76
						c0.65,0.62,1.72,0.4,2.09-0.42l2.09-4.56L190.23,71.98z"/>
					<path d="M190.16,82.21c-0.41,0-0.8-0.15-1.1-0.44c-0.25-0.24-0.49-0.51-0.71-0.8c-1.27-1.63-1.41-3.87-0.36-5.7l1.97-3.44
						c0.05-0.09,0.15-0.15,0.26-0.16c0.11,0,0.21,0.05,0.27,0.13l3.23,4.58c0.06,0.09,0.07,0.21,0.03,0.31l-2.09,4.56
						c-0.22,0.48-0.66,0.83-1.19,0.93C190.36,82.2,190.26,82.21,190.16,82.21z M190.26,72.56l-1.73,3.02
						c-0.92,1.61-0.8,3.58,0.31,5.01c0.21,0.26,0.42,0.51,0.65,0.73c0.23,0.22,0.54,0.31,0.86,0.25c0.32-0.06,0.6-0.28,0.74-0.57
						l2.01-4.4L190.26,72.56z"/>
				</g>
				<g>
					<path class="st0" d="M200.61,68.98c0.54,0.16-2.18,8.82-4.96,9.07c-2.78,0.25-6.34-2.26-6.11-5.28c0,0-1.76-0.51-0.89-2.82
						c0.74-1.93,2.2-0.2,2.63,0.38c0.08,0.11,0.2,0.19,0.34,0.23c1.81,0.3,0.73-3.03,5.76-3.31
						C197.38,67.26,198.58,68.39,200.61,68.98z"/>
					<path d="M195.26,78.38c-1.55,0-3.27-0.74-4.49-1.94c-1.03-1.02-1.57-2.24-1.55-3.46c-0.26-0.13-0.66-0.39-0.91-0.89
						c-0.3-0.61-0.28-1.36,0.05-2.24c0.25-0.65,0.61-1.01,1.08-1.08c0.83-0.12,1.67,0.81,2.1,1.38c0.04,0.05,0.1,0.09,0.16,0.12
						c0.46,0.07,0.62-0.15,1-0.77c0.57-0.94,1.44-2.37,4.67-2.54c0.08-0.01,0.17,0.03,0.23,0.08c0.01,0.01,1.18,1.09,3.1,1.65
						c0.34,0.1,0.3,0.55,0.28,0.72c-0.17,1.71-2.56,8.71-5.3,8.96C195.54,78.37,195.4,78.38,195.26,78.38z M189.58,69.37
						c-0.02,0-0.04,0-0.06,0c-0.28,0.04-0.47,0.39-0.58,0.69c-0.27,0.71-0.3,1.29-0.08,1.73c0.25,0.51,0.76,0.67,0.77,0.67
						c0.14,0.04,0.23,0.18,0.22,0.32c-0.09,1.11,0.4,2.25,1.36,3.19c1.21,1.19,2.94,1.88,4.41,1.75c0.57-0.05,1.22-0.57,1.89-1.49
						c1.64-2.26,2.85-6.19,2.86-7.01c-1.67-0.52-2.77-1.38-3.1-1.66c-2.79,0.19-3.52,1.37-4.04,2.24c-0.36,0.59-0.74,1.21-1.65,1.06
						c-0.01,0-0.02,0-0.04-0.01c-0.2-0.06-0.38-0.18-0.5-0.35C190.51,69.81,189.95,69.37,189.58,69.37z M200.52,69.28L200.52,69.28
						L200.52,69.28z"/>
				</g>
			</g>
		</g>
		<g>
			<g>
				<path d="M37.26,206.95c5.5-7.24,10.74-15.93,12.18-24.9l0.27-1.7l-6.84-4.18l-2.52,13.26c-0.92,5.88-6.86,15.1-6.86,15.1
					L37.26,206.95z"/>
				<path d="M51.72,209.77l4.54-0.04l1.06-8.84c0.28-3.56,0.62-6.95,0.39-10.52l-0.75-11.49l-8.05,0.04l2.03,10.79
					c0.55,4.06,0.95,7.75,1.02,11.99L51.72,209.77z"/>
				<g>
					<g>
						<path class="st0" d="M51.23,208.4l0.06,0.85c0.06,0.8,0,1.58-0.4,2.27c-0.34,0.59-0.7,1.42-0.7,2.35c0,0,6.89,1.6,12.92,0.08
							c0,0,0.03-0.71-1.82-1.12c-1.85-0.41-4.07-0.68-4.21-1.31c-0.15-0.63-0.15-2.29-0.41-2.62c-0.26-0.33-2.48-0.89-3.62,0
							C53.05,208.91,52.02,208.18,51.23,208.4z"/>
						<path d="M57.31,214.92c-3.93,0-7.14-0.73-7.19-0.74c-0.14-0.03-0.24-0.16-0.24-0.3c0-1.03,0.4-1.93,0.74-2.51
							c0.31-0.54,0.43-1.2,0.36-2.09l-0.06-0.85c-0.01-0.15,0.08-0.28,0.23-0.32c0.72-0.2,1.53,0.21,1.89,0.43
							c1.27-0.78,3.49-0.31,3.87,0.18c0.2,0.26,0.26,0.82,0.34,1.72c0.03,0.39,0.07,0.79,0.12,1.02c0.1,0.31,1.78,0.64,2.78,0.83
							c0.4,0.08,0.81,0.16,1.2,0.25c2,0.44,2.07,1.27,2.06,1.43c-0.01,0.14-0.1,0.26-0.24,0.29
							C61.24,214.75,59.19,214.92,57.31,214.92z M50.51,213.63c1.25,0.26,6.99,1.3,12.14,0.12c-0.19-0.18-0.61-0.42-1.43-0.6
							c-0.39-0.08-0.79-0.16-1.19-0.24c-1.98-0.39-3.11-0.64-3.26-1.3c-0.06-0.27-0.1-0.67-0.14-1.1c-0.04-0.47-0.11-1.25-0.21-1.4
							c-0.21-0.2-2.18-0.72-3.18,0.06c-0.11,0.08-0.26,0.09-0.37,0.01c-0.22-0.15-0.81-0.49-1.3-0.49l0.04,0.56
							c0.05,0.64,0.05,1.6-0.44,2.45C50.89,212.14,50.57,212.84,50.51,213.63z"/>
					</g>
					<g>
						<path class="st0" d="M63.13,215.4c0.03-0.3,0.04-0.77,0.01-1.14c-0.01-0.16-0.16-0.28-0.32-0.25
							c-1.23,0.19-6.26,0.86-12.31-0.08c-0.17-0.03-0.32,0.1-0.32,0.27v1.16c0,0.32,0.24,0.6,0.56,0.64
							c1.67,0.22,7.43,0.74,11.89-0.08C62.91,215.88,63.1,215.66,63.13,215.4z"/>
						<path d="M56.87,216.68c-2.52,0-4.84-0.2-6.16-0.37c-0.47-0.06-0.83-0.47-0.83-0.95v-1.16c0-0.17,0.07-0.33,0.21-0.45
							c0.13-0.11,0.3-0.16,0.48-0.14c5.94,0.92,10.85,0.29,12.21,0.08c0.16-0.03,0.33,0.02,0.46,0.12c0.13,0.1,0.21,0.25,0.22,0.42
							c0.03,0.38,0.02,0.86-0.01,1.2c-0.04,0.4-0.34,0.72-0.74,0.8C60.89,216.57,58.82,216.68,56.87,216.68z M50.51,214.24v1.12
							c0,0.17,0.12,0.31,0.29,0.33c2.29,0.3,7.71,0.68,11.8-0.08c0.12-0.02,0.22-0.12,0.23-0.25c0.03-0.28,0.03-0.71,0.01-1.05
							C61.4,214.54,56.46,215.16,50.51,214.24z M63.13,215.4L63.13,215.4L63.13,215.4z M62.83,214.28L62.83,214.28L62.83,214.28z"/>
					</g>
					<path d="M60.32,213.62c-0.04,0-0.07-0.01-0.11-0.02c-0.16-0.06-0.24-0.24-0.18-0.4l0.21-0.56c0.06-0.16,0.24-0.24,0.4-0.18
						c0.16,0.06,0.24,0.24,0.18,0.4l-0.21,0.56C60.56,213.54,60.44,213.62,60.32,213.62z"/>
					<path d="M58.9,213.59c-0.04,0-0.08-0.01-0.12-0.02c-0.16-0.07-0.23-0.25-0.17-0.41l0.33-0.81c0.07-0.16,0.25-0.23,0.41-0.17
						c0.16,0.07,0.23,0.25,0.17,0.41l-0.33,0.81C59.13,213.52,59.02,213.59,58.9,213.59z"/>
					<path d="M57.4,213.2c-0.07,0-0.13-0.02-0.19-0.07c-0.14-0.11-0.16-0.3-0.05-0.44l0.59-0.76c0.11-0.14,0.3-0.16,0.44-0.05
						c0.14,0.11,0.16,0.3,0.05,0.44l-0.59,0.76C57.58,213.16,57.49,213.2,57.4,213.2z"/>
					<path d="M55.94,212.21c-0.12,0-0.23-0.07-0.28-0.18c-0.07-0.16,0-0.34,0.16-0.41l1.08-0.49c0.16-0.07,0.34,0,0.41,0.16
						c0.07,0.16,0,0.34-0.16,0.41l-1.08,0.49C56.03,212.2,55.98,212.21,55.94,212.21z"/>
					<path d="M55.58,210.69c-0.16,0-0.3-0.12-0.31-0.29c-0.01-0.17,0.12-0.32,0.29-0.33l1.32-0.1c0.17-0.02,0.32,0.12,0.33,0.29
						c0.01,0.17-0.12,0.32-0.29,0.33l-1.32,0.1C55.6,210.69,55.59,210.69,55.58,210.69z"/>
				</g>
				<g>
					<g>
						<path class="st0" d="M33.75,203.22l-0.41,0.75c-0.39,0.7-0.87,1.32-1.58,1.68c-0.61,0.31-1.37,0.81-1.88,1.59
							c0,0,4.9,5.1,10.77,7.12c0,0,0.41-0.58-0.91-1.93c-1.32-1.35-3.05-2.8-2.81-3.4c0.28-0.7,1.06-1.59,1.14-2.15
							c0.09-0.64-1.64-2.36-3.08-2.25C34.99,204.64,34.53,203.46,33.75,203.22z"/>
						<path d="M40.65,214.67c-0.03,0-0.07-0.01-0.1-0.02c-5.88-2.02-10.84-7.15-10.89-7.2c-0.1-0.1-0.12-0.26-0.04-0.39
							c0.56-0.86,1.4-1.4,2-1.7c0.55-0.28,1.01-0.77,1.45-1.55l0.41-0.75c0.07-0.13,0.22-0.19,0.37-0.15
							c0.71,0.22,1.16,1.01,1.35,1.4c0.98,0.03,1.97,0.71,2.55,1.32c0.27,0.28,0.7,0.82,0.64,1.28c-0.06,0.38-0.34,0.83-0.64,1.3
							c-0.2,0.32-0.41,0.65-0.53,0.93c-0.08,0.31,1.13,1.48,1.85,2.18c0.3,0.29,0.6,0.59,0.89,0.88c1.44,1.46,1.04,2.2,0.94,2.33
							C40.84,214.62,40.75,214.67,40.65,214.67z M30.29,207.2c0.91,0.9,5.15,4.9,10.1,6.73c-0.06-0.25-0.28-0.68-0.87-1.29
							c-0.28-0.29-0.58-0.58-0.88-0.87c-1.45-1.41-2.25-2.23-2-2.87c0.13-0.33,0.36-0.68,0.58-1.03c0.25-0.39,0.51-0.8,0.55-1.05
							c0.01-0.07-0.09-0.36-0.47-0.77c-0.57-0.6-1.49-1.19-2.27-1.12c-0.14,0.01-0.26-0.07-0.31-0.2c-0.1-0.25-0.41-0.85-0.82-1.12
							l-0.27,0.49c-0.31,0.56-0.83,1.37-1.71,1.81C31.41,206.17,30.76,206.58,30.29,207.2z"/>
					</g>
					<g>
						<path class="st0" d="M39.88,215.58c0.17-0.21,0.39-0.53,0.56-0.82c0.12-0.21,0.04-0.47-0.18-0.57
							c-1.31-0.6-5.66-2.74-10.02-6.63c-0.19-0.17-0.48-0.13-0.61,0.08l-0.55,0.85c-0.18,0.27-0.13,0.63,0.12,0.84
							c1.28,1.1,5.81,4.68,10,6.43C39.43,215.85,39.71,215.78,39.88,215.58z"/>
						<path d="M39.41,216.11c-0.12,0-0.23-0.02-0.35-0.07c-3.91-1.63-8.3-4.95-10.08-6.48c-0.36-0.31-0.44-0.85-0.18-1.25l0.55-0.85
							c0.11-0.17,0.3-0.29,0.51-0.32c0.21-0.03,0.42,0.04,0.58,0.18c4.35,3.87,8.71,6.01,9.94,6.58c0.19,0.08,0.33,0.24,0.39,0.44
							c0.06,0.19,0.04,0.4-0.07,0.58c-0.18,0.3-0.41,0.64-0.59,0.86c0,0,0,0,0,0C39.94,215.99,39.68,216.11,39.41,216.11z
							 M39.88,215.58L39.88,215.58L39.88,215.58z M29.96,207.76c-0.01,0-0.01,0-0.01,0c-0.02,0-0.05,0.01-0.07,0.04l-0.55,0.85
							c-0.09,0.14-0.07,0.33,0.06,0.44c1.75,1.5,6.08,4.77,9.92,6.38c0.11,0.05,0.25,0.01,0.33-0.08c0.16-0.2,0.37-0.5,0.53-0.78
							c0.02-0.03,0.01-0.06,0.01-0.07c0-0.02-0.02-0.04-0.05-0.06c-1.25-0.57-5.69-2.75-10.1-6.68
							C30,207.77,29.98,207.76,29.96,207.76z"/>
					</g>
					<path d="M38.67,212.6c-0.1,0-0.19-0.04-0.25-0.13c-0.1-0.14-0.07-0.33,0.07-0.44l0.48-0.35c0.14-0.1,0.33-0.07,0.44,0.07
						c0.1,0.14,0.07,0.33-0.07,0.44l-0.48,0.35C38.8,212.58,38.73,212.6,38.67,212.6z"/>
					<path d="M37.5,211.8c-0.1,0-0.2-0.05-0.26-0.14c-0.1-0.14-0.06-0.34,0.08-0.43l0.72-0.49c0.14-0.1,0.34-0.06,0.43,0.08
						c0.1,0.14,0.06,0.34-0.08,0.43l-0.72,0.49C37.62,211.78,37.56,211.8,37.5,211.8z"/>
					<path d="M36.45,210.65c-0.13,0-0.25-0.08-0.29-0.21c-0.06-0.16,0.03-0.34,0.19-0.4l0.91-0.31c0.16-0.06,0.34,0.03,0.4,0.19
						c0.06,0.16-0.03,0.34-0.19,0.4l-0.91,0.31C36.52,210.65,36.49,210.65,36.45,210.65z"/>
					<path d="M36.95,209.21c-0.02,0-0.03,0-0.05,0l-1.17-0.18c-0.17-0.03-0.29-0.19-0.26-0.36c0.03-0.17,0.19-0.29,0.36-0.26
						l1.17,0.18c0.17,0.03,0.29,0.19,0.26,0.36C37.23,209.1,37.1,209.21,36.95,209.21z"/>
					<path d="M37.47,208.2c-0.05,0-0.1-0.01-0.15-0.04l-1.16-0.64c-0.15-0.08-0.21-0.27-0.12-0.42c0.08-0.15,0.27-0.21,0.42-0.12
						l1.16,0.64c0.15,0.08,0.21,0.27,0.12,0.42C37.68,208.14,37.58,208.2,37.47,208.2z"/>
				</g>
			</g>
			<g>
				
					<ellipse transform="matrix(0.3446 -0.9387 0.9387 0.3446 -105.1403 163.3707)" class="st0" cx="64.43" cy="156.98" rx="5.71" ry="7.06"/>
				<path d="M65.37,163.18c-0.99,0-2.01-0.18-3.02-0.55c-1.84-0.68-3.35-1.9-4.27-3.43c-0.93-1.56-1.13-3.25-0.57-4.77
					c1.15-3.11,5.19-4.5,9.01-3.09c1.84,0.68,3.35,1.9,4.27,3.43c0.93,1.56,1.13,3.25,0.57,4.77
					C70.51,161.82,68.1,163.18,65.37,163.18z M63.49,151.41c-2.47,0-4.64,1.2-5.39,3.24c-0.5,1.34-0.31,2.84,0.52,4.23
					c0.84,1.41,2.24,2.54,3.95,3.16c3.49,1.29,7.18,0.07,8.21-2.73c0.5-1.34,0.31-2.84-0.52-4.23c-0.84-1.41-2.24-2.54-3.95-3.16
					C65.36,151.57,64.4,151.41,63.49,151.41z"/>
				<ellipse class="st0" cx="72.17" cy="156.15" rx="2.33" ry="2.33"/>
				<ellipse class="st0" cx="59.76" cy="151.63" rx="2.33" ry="2.33"/>
				<path d="M72.17,158.79c-0.26,0-0.53-0.04-0.79-0.12c-0.3-0.09-0.58-0.24-0.83-0.43c-0.14-0.11-0.16-0.3-0.05-0.44
					c0.11-0.14,0.3-0.16,0.44-0.06c0.19,0.15,0.4,0.26,0.64,0.33c1.06,0.33,2.2-0.26,2.54-1.32c0.16-0.51,0.11-1.06-0.14-1.54
					c-0.25-0.48-0.67-0.83-1.19-0.99c-0.9-0.28-1.89,0.1-2.36,0.92c-0.09,0.15-0.28,0.2-0.43,0.11c-0.15-0.09-0.2-0.28-0.11-0.43
					c0.61-1.06,1.91-1.56,3.08-1.2c0.67,0.21,1.23,0.67,1.55,1.3c0.33,0.63,0.39,1.34,0.18,2.02
					C74.34,158.06,73.29,158.79,72.17,158.79z"/>
				<path d="M59.86,154.24c-0.83,0-1.62-0.39-2.12-1.06c-0.42-0.57-0.6-1.26-0.5-1.96c0.1-0.7,0.47-1.32,1.03-1.74
					c1.17-0.87,2.83-0.63,3.7,0.53c0.25,0.34,0.42,0.74,0.49,1.15c0.03,0.17-0.09,0.33-0.26,0.36c-0.17,0.03-0.33-0.09-0.36-0.26
					c-0.05-0.32-0.18-0.62-0.38-0.88c-0.67-0.89-1.94-1.08-2.83-0.41c-0.43,0.32-0.71,0.8-0.79,1.33c-0.08,0.53,0.06,1.07,0.38,1.5
					c0.43,0.58,1.15,0.88,1.87,0.8c0.17-0.02,0.33,0.1,0.35,0.27c0.02,0.17-0.1,0.33-0.27,0.35
					C60.07,154.23,59.97,154.24,59.86,154.24z"/>
				<path class="st0" d="M72.05,169.75c-0.91,0.48-2.04,0.13-2.53-0.78l-3.65-6.89l3.31-1.75l3.64,6.88
					C73.31,168.14,72.96,169.27,72.05,169.75z"/>
				<path d="M71.18,170.28c-0.78,0-1.54-0.42-1.93-1.16l-2.72-5.14c-0.08-0.15-0.02-0.34,0.13-0.42c0.15-0.08,0.34-0.02,0.42,0.13
					l2.72,5.14c0.4,0.76,1.35,1.05,2.11,0.65c0.37-0.19,0.64-0.52,0.76-0.92c0.12-0.4,0.08-0.82-0.11-1.19l-3.1-5.85
					c-0.08-0.15-0.02-0.34,0.13-0.42c0.15-0.08,0.34-0.02,0.42,0.13l3.1,5.85c0.27,0.51,0.33,1.1,0.16,1.66
					c-0.17,0.56-0.55,1.01-1.06,1.28C71.87,170.2,71.52,170.28,71.18,170.28z"/>
			</g>
			<g>
				<g>
					<path class="st0" d="M31.8,177.91c-0.63,0.2-1.04-0.1-0.96-0.61c0.08-0.51,0.67-0.72,1.26-1.36c0.13-0.14-1.76,0.38-2.62,0.33
						c-0.35-0.02-0.66-0.24-0.82-0.55c0,0-0.43-0.77,0.29-1.26c1.06-0.72,4.01-1.21,4.77-1.64l1.63-0.98l1.86,1.99l-2.26,2.06
						c-0.11,0.1-0.98,0.81-1.62,1.17L31.8,177.91z"/>
					<path d="M31.43,178.29c-0.25,0-0.46-0.07-0.63-0.21c-0.22-0.19-0.32-0.49-0.26-0.82c0.06-0.38,0.3-0.61,0.59-0.86
						c-0.57,0.1-1.22,0.21-1.66,0.18c-0.46-0.03-0.87-0.3-1.08-0.73c-0.19-0.34-0.36-1.14,0.4-1.66c0.65-0.44,1.91-0.79,3.03-1.09
						c0.76-0.21,1.47-0.4,1.76-0.57l1.63-0.98c0.13-0.08,0.29-0.05,0.39,0.05l1.86,1.99c0.06,0.06,0.09,0.14,0.08,0.23
						c0,0.08-0.04,0.16-0.1,0.22l-2.26,2.06c-0.11,0.1-1,0.82-1.67,1.21l-1.54,0.88c-0.02,0.01-0.04,0.02-0.06,0.03
						C31.74,178.26,31.58,178.29,31.43,178.29z M31.8,177.91L31.8,177.91L31.8,177.91z M32.1,175.61c0.16,0,0.23,0.05,0.29,0.17
						c0.07,0.12,0.04,0.28-0.05,0.38c-0.24,0.26-0.47,0.45-0.67,0.61c-0.31,0.25-0.48,0.4-0.51,0.59c-0.01,0.08-0.01,0.19,0.06,0.25
						c0.07,0.06,0.22,0.09,0.47,0.02l1.52-0.86c0.62-0.35,1.46-1.04,1.56-1.13l2.03-1.84l-1.48-1.57l-1.42,0.85
						c-0.36,0.21-1.08,0.41-1.91,0.63c-1.07,0.29-2.27,0.62-2.84,1c-0.45,0.31-0.24,0.77-0.19,0.85c0.11,0.23,0.33,0.38,0.56,0.39
						c0.46,0.03,1.31-0.14,1.86-0.24C31.73,175.65,31.95,175.61,32.1,175.61z"/>
				</g>
				<g>
					<path class="st0" d="M66.65,162.77l-4.29-2.57c-1.98-1.19-3.76-2.68-5.27-4.42l-5.05-5.8l-4.81,0.03l-0.25,0.97l-1.81-0.54
						l-2.23,5.77c-1.56,4.03-3.56,7.87-5.97,11.46l-2.67,3.97l2.87,3.08c2.08-1.69,3.65-3.21,4.94-4.7l-3.35,13.07h20.07v-16.7
						l3.6,2.17c1.66,1,3.83,0.5,4.88-1.13C68.27,165.91,67.99,163.94,66.65,162.77z"/>
					<path d="M58.84,183.39H38.77c-0.1,0-0.19-0.04-0.25-0.12c-0.06-0.08-0.08-0.18-0.06-0.27l3.03-11.84
						c-1.18,1.26-2.54,2.51-4.12,3.79c-0.13,0.1-0.31,0.09-0.42-0.03l-2.87-3.08c-0.1-0.11-0.11-0.27-0.03-0.39l2.67-3.97
						c2.39-3.56,4.39-7.39,5.93-11.39l2.23-5.77c0.06-0.15,0.22-0.23,0.38-0.19l1.5,0.45l0.17-0.66c0.04-0.14,0.16-0.23,0.3-0.23
						l4.81-0.03c0.1,0.01,0.18,0.04,0.24,0.11l5.05,5.8c1.5,1.72,3.25,3.18,5.2,4.36l4.29,2.57c0.02,0.01,0.03,0.02,0.05,0.03
						c1.46,1.28,1.76,3.4,0.71,5.03c-1.15,1.79-3.48,2.33-5.3,1.23l-3.12-1.88v16.15C59.15,183.25,59.01,183.39,58.84,183.39z
						 M39.17,182.76h19.36v-16.39c0-0.11,0.06-0.22,0.16-0.27c0.1-0.06,0.22-0.05,0.31,0l3.6,2.17c1.53,0.92,3.49,0.47,4.45-1.04
						c0.88-1.37,0.63-3.13-0.58-4.21l-4.26-2.56c-2.01-1.21-3.81-2.71-5.35-4.48l-4.95-5.69l-4.43,0.03l-0.19,0.74
						c-0.02,0.08-0.07,0.15-0.15,0.19c-0.07,0.04-0.16,0.05-0.24,0.03l-1.54-0.46l-2.12,5.5c-1.56,4.04-3.58,7.92-6,11.52
						l-2.53,3.76l2.5,2.68c1.85-1.52,3.38-2.99,4.67-4.48c0.09-0.11,0.25-0.14,0.38-0.07c0.13,0.07,0.19,0.21,0.16,0.35
						L39.17,182.76z"/>
				</g>
			</g>
			<g>
				<g>
					<ellipse class="st0" cx="63.12" cy="169.79" rx="2.45" ry="2.61"/>
					<path d="M63.12,172.72c-1.52,0-2.76-1.31-2.76-2.92c0-1.61,1.24-2.92,2.76-2.92c1.52,0,2.76,1.31,2.76,2.92
						C65.88,171.41,64.64,172.72,63.12,172.72z M63.12,167.49c-1.18,0-2.13,1.03-2.13,2.3s0.96,2.3,2.13,2.3s2.13-1.03,2.13-2.3
						S64.3,167.49,63.12,167.49z"/>
				</g>
				<g>
					
						<ellipse transform="matrix(0.5048 -0.8632 0.8632 0.5048 -115.4406 131.1916)" class="st0" cx="56.63" cy="166.22" rx="2.74" ry="2.49"/>
					<path d="M56.42,169.21c-0.45,0-0.9-0.11-1.31-0.35c-0.61-0.35-1.05-0.94-1.24-1.64c-0.21-0.79-0.09-1.66,0.34-2.4
						c0.84-1.45,2.61-2.01,3.95-1.24c0.61,0.35,1.05,0.94,1.24,1.64c0.21,0.79,0.09,1.66-0.34,2.4c0,0,0,0,0,0
						C58.48,168.63,57.45,169.21,56.42,169.21z M56.84,163.86c-0.81,0-1.63,0.47-2.1,1.28c-0.34,0.59-0.44,1.3-0.28,1.92
						c0.15,0.55,0.48,1,0.95,1.27c1.04,0.6,2.43,0.15,3.1-1.01c0.34-0.59,0.44-1.29,0.28-1.92c-0.15-0.55-0.48-1-0.95-1.27
						C57.54,163.94,57.19,163.86,56.84,163.86z M58.79,167.47L58.79,167.47L58.79,167.47z"/>
				</g>
			</g>
			<g>
				<g>
					<path class="st0" d="M54.74,139.21c0.48,0.12,0.88,1.64,0.99,2.22c0.38,1.96,0.2,5.43-0.94,5.79
						c-1.06,0.33-1.34-0.19-2.06,0.41c-0.61,0.51-0.92,1.46-1.01,3.01c-0.01,0.1,0.98,1.09,1.56,1.71c0.15,0.17-1.21,1.75-3.94,1.6
						c-3.45-0.19-3.07-2.49-3.11-2.66C46.2,151.19,48.42,137.67,54.74,139.21z"/>
					<path d="M49.7,154.27c-0.13,0-0.25,0-0.39-0.01c-1.56-0.09-3.41-0.65-3.4-2.86c0-0.03,0-0.05,0-0.06
						c-0.05-0.2,1.21-7.78,4.54-11.06c1.31-1.29,2.77-1.75,4.35-1.36c0.72,0.18,1.12,1.93,1.22,2.46c0.36,1.85,0.28,5.7-1.15,6.15
						c-0.52,0.16-0.88,0.14-1.16,0.12c-0.32-0.02-0.48-0.03-0.79,0.23c-0.52,0.43-0.8,1.26-0.89,2.7c0.14,0.17,0.57,0.62,0.89,0.96
						c0.2,0.21,0.41,0.43,0.58,0.61c0.05,0.06,0.16,0.21,0.04,0.46C53.33,153.07,52.03,154.27,49.7,154.27z M46.54,151.29
						c0,0.03,0,0.07,0,0.11c-0.01,1.38,0.94,2.14,2.81,2.24c2.15,0.12,3.3-0.87,3.57-1.21c-0.14-0.15-0.29-0.31-0.45-0.47
						c-1.04-1.1-1.08-1.15-1.07-1.34c0.1-1.68,0.45-2.68,1.12-3.24c0.5-0.41,0.87-0.39,1.23-0.37c0.26,0.02,0.53,0.03,0.94-0.1
						c0.83-0.26,1.12-3.38,0.72-5.43c-0.2-1.01-0.57-1.89-0.76-1.98c-1.1-0.27-2.14-0.05-3.09,0.63
						C47.98,142.72,46.6,150.86,46.54,151.29z"/>
				</g>
				<path d="M56.58,139.65c0.1,0.63-0.34,1.21-0.97,1.29c-1.71,0.2-3.35,0.61-4.6,2.05c-1.2,1.39-1.15,8.47-1.65,12.96
					c-0.22,1.98-2.25,3.2-4.12,2.49c-4.73-1.79-7.73-6.3-5.8-9.64l5.68-10.26c0.67-1.16,1.7-2.06,3.05-2.69
					c0.63-0.29,1.71-0.55,2.4-0.58C55.19,135.06,56.31,137.96,56.58,139.65z"/>
				<g>
					<path class="st0" d="M52.13,143.8c-1.19-0.16-1.45-2.45-0.74-2.71c0.71-0.27,1.24,0.92,1.24,0.92L52.13,143.8z"/>
					<path d="M52.13,144.11c-0.01,0-0.03,0-0.04,0c-0.83-0.11-1.29-0.99-1.39-1.81c-0.08-0.75,0.14-1.34,0.58-1.51
						c0.78-0.29,1.39,0.54,1.63,1.08c0.07,0.16,0,0.34-0.16,0.41c-0.16,0.07-0.34,0-0.41-0.16c-0.09-0.19-0.49-0.88-0.85-0.75
						c-0.11,0.04-0.23,0.37-0.18,0.86c0.06,0.56,0.36,1.19,0.85,1.26c0.17,0.02,0.29,0.18,0.27,0.35
						C52.42,144,52.29,144.11,52.13,144.11z"/>
				</g>
			</g>
		</g>
		<g>
			<g>
				<g>
					<g>
						<path class="st0" d="M118.03,166.27l0.35,5.59c0.02,0.15-0.09,0.3-0.22,0.31l-2.73,0.17c-0.12,0.01-0.22-0.09-0.24-0.22
							l-0.9-5.24L118.03,166.27z"/>
						<path d="M115.41,172.65c-0.27,0-0.5-0.21-0.53-0.49l-0.9-5.22c-0.01-0.08,0.01-0.17,0.05-0.23c0.05-0.07,0.12-0.11,0.2-0.13
							l3.74-0.61c0.09-0.01,0.18,0.01,0.24,0.06c0.07,0.05,0.11,0.14,0.12,0.22l0.35,5.59c0.02,0.15-0.03,0.32-0.14,0.44
							c-0.1,0.12-0.23,0.18-0.38,0.19l-2.73,0.17C115.43,172.65,115.42,172.65,115.41,172.65z M115.5,172.06L115.5,172.06
							L115.5,172.06z M114.65,167.14l0.84,4.88l2.59-0.16l-0.34-5.23L114.65,167.14z M118.14,171.86
							C118.14,171.86,118.14,171.86,118.14,171.86L118.14,171.86z"/>
					</g>
					<g>
						<path class="st0" d="M118.81,170.44c0.18,0.65,0.56,2.48,0.72,3.58c0.1,0.69-0.34,1.34-1.01,1.52
							c-1.89,0.51-6.41,0.49-10.17,0.65c-0.26,0.01-0.73-0.11-0.94-0.74c-0.72-2.12,3.24-2.77,7.15-4.92
							c0.08-0.04,0.17-0.04,0.24,0.01c0.04,0.03,0.1,0.07,0.17,0.11c0.68,0.43,1.81,0.43,2.5,0.02l0.78-0.47
							C118.47,170.09,118.75,170.2,118.81,170.44z"/>
						<path d="M108.33,176.51c-0.42,0-0.97-0.25-1.21-0.95c-0.59-1.75,1.38-2.6,3.88-3.68c1.05-0.45,2.24-0.97,3.41-1.61
							c0.18-0.1,0.4-0.09,0.57,0.03c0.04,0.03,0.09,0.07,0.16,0.11c0.58,0.37,1.57,0.37,2.17,0.01l0.78-0.47
							c0.19-0.11,0.41-0.13,0.61-0.05c0.2,0.08,0.35,0.25,0.41,0.46c0,0,0,0,0,0c0.19,0.68,0.57,2.52,0.73,3.62
							c0.12,0.84-0.41,1.65-1.23,1.87c-1.44,0.39-4.27,0.47-7.26,0.56c-0.99,0.03-2.02,0.06-2.98,0.1
							C108.36,176.51,108.34,176.51,108.33,176.51z M114.67,170.84c-1.18,0.65-2.37,1.16-3.42,1.61c-2.52,1.09-3.93,1.76-3.54,2.91
							c0.18,0.52,0.56,0.53,0.64,0.53c0.97-0.04,2-0.07,2.99-0.1c2.82-0.08,5.74-0.17,7.11-0.54c0.52-0.14,0.86-0.65,0.78-1.18
							c-0.15-1.05-0.53-2.89-0.72-3.54c-0.01-0.03-0.03-0.04-0.04-0.04c-0.01-0.01-0.03-0.01-0.06,0l-0.78,0.47
							c-0.79,0.48-2.06,0.47-2.83-0.02C114.75,170.9,114.71,170.86,114.67,170.84z"/>
					</g>
					<g>
						<path class="st0" d="M119.65,174.52c0,0.02,0.01,0.03,0.01,0.04c0.1,0.69-0.56,1.12-1.18,1.41c-1.86,0.87-9.39,0.37-9.68,0.35
							c-0.01,0-0.01,0-0.02,0c-0.09,0-1.05,0-1.32-0.59c-0.03-0.07-0.06-0.18-0.07-0.27c-0.02-0.16-0.01-0.32,0.02-0.48
							c0.03-0.13,0.15-0.21,0.28-0.17c1.4,0.36,4.66,0.48,7.92,0.12c2.17-0.24,3.11-0.71,3.61-1.01c0.14-0.08,0.31,0,0.34,0.15
							C119.59,174.19,119.62,174.35,119.65,174.52z"/>
						<path d="M113.51,176.79c-2.2,0-4.31-0.13-4.73-0.16c-0.2,0-1.25-0.02-1.6-0.77c-0.04-0.09-0.07-0.21-0.09-0.36
							c-0.03-0.19-0.02-0.38,0.03-0.58c0.03-0.14,0.12-0.27,0.25-0.35c0.13-0.08,0.27-0.1,0.41-0.06c1.28,0.33,4.45,0.48,7.8,0.11
							c2.05-0.23,2.97-0.66,3.48-0.97c0.15-0.09,0.34-0.1,0.5-0.03c0.16,0.07,0.28,0.22,0.31,0.39l0.1,0.51
							c0.15,1.03-0.95,1.54-1.36,1.74C117.69,176.67,115.56,176.79,113.51,176.79z M108.78,176.01c0.01,0,0.04,0,0.05,0
							c2.86,0.19,8.09,0.34,9.51-0.33c0.75-0.35,1.07-0.69,1.01-1.08c0,0,0-0.02,0-0.02l-0.07-0.34c-0.58,0.33-1.59,0.77-3.63,0.99
							c-3.35,0.37-6.55,0.22-7.94-0.1c-0.02,0.1-0.02,0.2,0,0.29c0.02,0.12,0.04,0.17,0.04,0.18
							C107.93,176.01,108.77,176.01,108.78,176.01C108.78,176.01,108.78,176.01,108.78,176.01z"/>
					</g>
					<path d="M114.29,172.56c-0.07,0-0.13-0.02-0.19-0.06l-1.14-0.87c-0.14-0.1-0.16-0.3-0.06-0.44c0.1-0.14,0.3-0.16,0.44-0.06
						l1.14,0.87c0.14,0.1,0.16,0.3,0.06,0.44C114.48,172.52,114.39,172.56,114.29,172.56z"/>
					<path d="M112.78,173.18c-0.06,0-0.13-0.02-0.19-0.06l-1-0.75c-0.14-0.1-0.17-0.3-0.06-0.44c0.1-0.14,0.3-0.17,0.44-0.06l1,0.75
						c0.14,0.1,0.17,0.3,0.06,0.44C112.97,173.14,112.87,173.18,112.78,173.18z"/>
				</g>
				<g>
					<path d="M125.99,115.53c0,0,2.17,4.33,2.9,8.9c0.68,4.25,3.18,21.75,9.26,35.79c0.69,1.59-0.11,3.25-1.8,3.62
						c-0.68,0.15-0.96-0.09-1.55-0.38c-0.3-0.15-0.81-0.58-0.81-0.58s-10.77-8.99-15.17-32.59c-2.83-15.18-2.36-13.97-2.36-13.97
						L125.99,115.53z"/>
					<path d="M122.96,117.51c0,0,1.26,8.24-1.13,14.33c-2.3,5.86-3.77,28.83-2.91,35.47c0.05,0.42-0.24,0.8-0.65,0.86
						c-1.05,0.15-2.93,0.35-4.22,0.11c-0.24-0.04-0.43-0.22-0.49-0.45c-0.85-3.37-7.92-33.8-2.94-49.4L122.96,117.51z"/>
					<path class="st0" d="M120.63,138.95c-0.17,0-0.31-0.13-0.31-0.3c0-0.13-0.08-3.33,1.24-6.4c0.45-1.06,0.52-2.1,0.47-3.44
						c-0.01-0.17,0.13-0.32,0.3-0.32c0.17-0.02,0.32,0.13,0.32,0.3c0.05,1.39-0.02,2.55-0.52,3.71c-1.27,2.94-1.19,6.1-1.18,6.13
						C120.95,138.8,120.81,138.94,120.63,138.95C120.64,138.95,120.63,138.95,120.63,138.95z"/>
					<path class="st0" d="M115.54,130.46c-0.33,0-0.66-0.07-0.96-0.2l-2.26-1.01c-0.8-0.36-1.3-1.16-1.27-2.03l0.14-4.45
						c0.01-0.23,0.11-0.46,0.29-0.61c0.18-0.15,0.41-0.23,0.65-0.2c2.67,0.28,5.18,0.02,6.44-0.16c0.25-0.04,0.51,0.04,0.69,0.21
						c0.19,0.17,0.29,0.42,0.27,0.67l-0.25,4.66c-0.04,0.65-0.36,1.25-0.89,1.63l-1.46,1.06
						C116.51,130.31,116.03,130.46,115.54,130.46z M112.03,122.57c-0.05,0-0.11,0.02-0.15,0.06c-0.05,0.04-0.07,0.1-0.08,0.16
						l-0.14,4.45c-0.02,0.62,0.33,1.19,0.9,1.44l2.26,1.01c0.56,0.25,1.23,0.18,1.73-0.18l1.47-1.06c0.38-0.27,0.61-0.69,0.63-1.16
						l0.25-4.66c0-0.09-0.04-0.15-0.07-0.18c-0.03-0.03-0.09-0.07-0.18-0.06c-1.29,0.19-3.86,0.46-6.6,0.17
						C112.04,122.57,112.03,122.57,112.03,122.57z"/>
					<path class="st0" d="M126.96,129.41c-0.13,0-0.27-0.03-0.39-0.09l-2.49-1.26c-0.26-0.13-0.43-0.38-0.47-0.67l-0.56-5.18
						c-0.05-0.46,0.27-0.87,0.72-0.94l3.03-0.47c0.17-0.03,0.33,0.09,0.36,0.26c0.03,0.17-0.09,0.33-0.26,0.36l-3.03,0.47
						c-0.13,0.02-0.21,0.13-0.2,0.26l0.56,5.18c0.01,0.08,0.06,0.15,0.13,0.19l2.49,1.26c0.08,0.04,0.17,0.03,0.24-0.02l1.5-1.06
						c0.14-0.1,0.34-0.07,0.43,0.08c0.1,0.14,0.07,0.33-0.08,0.43l-1.5,1.06C127.31,129.36,127.13,129.41,126.96,129.41z"/>
				</g>
				<g>
					<path class="st0" d="M136.35,166.5c-0.33-1.66-0.48-2-1.27-3.28c-0.59-0.95,0.85-2.38,1.58-2.49c1.22-0.25,1.03,0.14,2.43,1.93
						l1.1,1.35C140.18,164,136.64,167.95,136.35,166.5z"/>
					<path d="M136.68,167.13c-0.06,0-0.11-0.01-0.17-0.02c-0.14-0.04-0.39-0.16-0.46-0.55c-0.29-1.45-0.38-1.83-0.96-2.8
						c-0.09-0.15-0.04-0.34,0.11-0.43c0.15-0.09,0.34-0.04,0.43,0.11c0.63,1.05,0.74,1.49,1.04,3c0.01,0.06,0.03,0.07,0.03,0.07
						c0.32,0.11,1.74-1.05,3.09-2.52l-0.87-1.06c-0.41-0.52-0.66-0.93-0.88-1.3c-0.09-0.15-0.04-0.34,0.11-0.43
						c0.15-0.09,0.34-0.04,0.43,0.11c0.21,0.35,0.45,0.74,0.83,1.23l1.04,1.26c0.1,0.12,0.09,0.29-0.01,0.41
						C139.6,165.12,137.69,167.13,136.68,167.13z"/>
					<g>
						<path class="st0" d="M136.16,165.88l1.42-2.13c0.66-1,2.07-1.14,2.92-0.31l1.62,1.36c0,0,0.31,0.93,0.21,1.54
							c-0.13,0.78-0.38,1.9-0.87,3.01c-0.75,1.71-2.83,5.13-3.58,6.34c-0.16,0.25-0.54,0.5-0.81,0.38c-0.32-0.14-0.65-0.4-0.98-0.7
							c-0.5-0.47-0.33-2.65-0.15-4.17c0.11-0.97,0.03-3.46-0.01-4.48C135.92,166.42,136,166.13,136.16,165.88z"/>
						<path d="M137.23,176.41c-0.1,0-0.19-0.02-0.28-0.06c-0.32-0.14-0.67-0.39-1.06-0.76c-0.3-0.28-0.65-1.04-0.25-4.43
							c0.11-0.95,0.03-3.42-0.01-4.43c-0.01-0.36,0.08-0.71,0.28-1.02l1.42-2.13c0.37-0.55,0.95-0.91,1.61-0.98
							c0.66-0.07,1.31,0.16,1.78,0.62l1.6,1.34c0.04,0.04,0.08,0.09,0.1,0.14c0.01,0.04,0.33,1.01,0.22,1.68
							c-0.13,0.77-0.38,1.94-0.89,3.09c-0.75,1.7-2.76,5.02-3.6,6.37C137.98,176.12,137.6,176.41,137.23,176.41z M139.17,163.21
							c-0.06,0-0.11,0-0.17,0.01c-0.47,0.05-0.9,0.31-1.16,0.7l-1.42,2.13c0,0,0,0,0,0c-0.13,0.19-0.19,0.42-0.18,0.65
							c0.04,1.03,0.13,3.53,0.01,4.53c-0.39,3.3-0.02,3.83,0.06,3.9c0.34,0.32,0.64,0.53,0.89,0.65c0.07,0.03,0.31-0.09,0.42-0.26
							c0.64-1.05,2.8-4.59,3.56-6.3c0.48-1.09,0.73-2.2,0.85-2.94c0.06-0.39-0.09-1.01-0.17-1.31l-1.55-1.3
							C139.98,163.37,139.58,163.21,139.17,163.21z M136.16,165.88L136.16,165.88L136.16,165.88z"/>
					</g>
					<path d="M135.99,168.63c-0.14,0-0.26-0.09-0.3-0.23c-0.05-0.17,0.05-0.34,0.22-0.38l1.52-0.42c0.17-0.05,0.34,0.05,0.38,0.22
						c0.05,0.17-0.05,0.34-0.22,0.38l-1.52,0.42C136.05,168.62,136.02,168.63,135.99,168.63z"/>
					<path d="M136.1,169.99c-0.14,0-0.26-0.09-0.3-0.23c-0.05-0.17,0.05-0.34,0.22-0.38l1.52-0.42c0.17-0.05,0.34,0.05,0.38,0.22
						c0.05,0.17-0.05,0.34-0.22,0.38l-1.52,0.42C136.16,169.98,136.13,169.99,136.1,169.99z"/>
					<g>
						<path class="st0" d="M137.66,176.18c-0.16,0-0.3-0.02-0.44-0.07c-0.46-0.16-1.59-0.5-1.47-2.13c0.13-1.69,1.42-2.55,2.36-3.66
							c0.72-0.85,0.64-4.38,0.87-5.08c0.4-1.24,2.22-1.43,3.13-0.45c0.58,0.62,0.65,1.97,0.59,2.96c-0.11,1.86-1.2,5.56-2.58,7.34
							C139.45,175.98,138.41,176.18,137.66,176.18z"/>
						<path d="M137.66,176.49c-0.19,0-0.37-0.03-0.54-0.09l-0.04-0.01c-0.49-0.17-1.78-0.61-1.64-2.43
							c0.11-1.41,0.95-2.27,1.76-3.11c0.23-0.24,0.46-0.48,0.67-0.73c0.41-0.48,0.54-2.25,0.63-3.42c0.05-0.71,0.1-1.28,0.18-1.55
							c0.2-0.63,0.72-1.08,1.43-1.23c0.81-0.18,1.69,0.09,2.23,0.67c0.66,0.72,0.73,2.13,0.67,3.19c-0.1,1.8-1.18,5.63-2.65,7.52
							C139.57,176.33,138.33,176.49,137.66,176.49z M140.63,164.48c-0.13,0-0.25,0.01-0.38,0.04c-0.48,0.11-0.83,0.4-0.97,0.82
							c-0.07,0.2-0.11,0.78-0.16,1.4c-0.1,1.4-0.24,3.14-0.77,3.78c-0.22,0.26-0.47,0.51-0.7,0.76c-0.77,0.79-1.49,1.54-1.58,2.72
							c-0.1,1.34,0.75,1.64,1.22,1.79l0.04,0.01c0.1,0.04,0.22,0.05,0.34,0.05c0.55,0,1.58-0.12,2.22-0.95
							c1.39-1.8,2.42-5.45,2.52-7.17c0.07-1.31-0.11-2.31-0.51-2.73C141.58,164.67,141.11,164.48,140.63,164.48z"/>
					</g>
					<path d="M137.66,176.49c-0.46,0-0.87-0.18-1.14-0.49c-0.24-0.28-0.35-0.64-0.29-1.02c0.25-1.8,1.22-2.74,2.25-3.72
						c0.74-0.71,0.95-3.42,1.04-4.58c0.04-0.5,0.06-0.72,0.09-0.84c0.16-0.58,0.87-1.1,1.61-1.18c0.7-0.08,1.28,0.24,1.61,0.86
						c0.08,0.15,0.02,0.34-0.13,0.42c-0.15,0.08-0.34,0.02-0.42-0.13c-0.27-0.5-0.69-0.56-0.99-0.53c-0.52,0.06-1,0.43-1.08,0.72
						c-0.02,0.07-0.05,0.4-0.07,0.72c-0.11,1.44-0.32,4.11-1.24,4.98c-0.99,0.95-1.85,1.77-2.07,3.36c-0.03,0.2,0.02,0.38,0.14,0.52
						c0.15,0.17,0.39,0.27,0.67,0.27c0.16,0,0.33-0.01,0.48-0.03c0.17-0.02,0.33,0.1,0.35,0.27c0.02,0.17-0.1,0.33-0.27,0.35
						C138.04,176.48,137.85,176.49,137.66,176.49z"/>
				</g>
			</g>
			<g>
				<g>
					<path class="st0" d="M128.12,81.4c0,0,1.64-5,1.72-6.64c0.08-1.64-1.56-9.18-2.21-11.63c0,0,0.61-4.6-2.9-5.41
						c-0.24-0.06-0.4-0.25-0.49-0.48c-0.29-0.77-0.4-1.28-0.68-2.21c-0.23-0.77-1.36-0.44-1.26,0.44c0.04,0.33,0.38,3.15,0.53,4.29
						c0.02,0.15-0.05,0.36-0.15,0.47c-0.23,0.27-0.48,0.83,0.01,1.83c0.75,1.55,1.07,1.1,1.87,2.38c0.8,1.28,1.05,5.9,1.1,8.36
						c0.05,2.46-0.96,4.55-1.5,5.46S128.12,81.4,128.12,81.4z"/>
					<path d="M128.12,81.71c-0.05,0-0.09-0.01-0.14-0.03c-0.64-0.32-3.83-1.94-4.16-3.04c-0.07-0.25-0.01-0.43,0.05-0.54
						c0.46-0.77,1.51-2.84,1.46-5.29c-0.07-3.26-0.39-7.13-1.06-8.2c-0.33-0.53-0.56-0.73-0.81-0.95c-0.31-0.27-0.64-0.55-1.08-1.47
						c-0.57-1.19-0.22-1.87,0.04-2.17c0.05-0.05,0.08-0.18,0.08-0.23c-0.15-1.17-0.49-3.95-0.53-4.29c-0.07-0.66,0.37-1.11,0.83-1.2
						c0.47-0.09,0.9,0.17,1.04,0.63c0.09,0.3,0.17,0.56,0.23,0.8c0.14,0.49,0.25,0.88,0.44,1.39c0.06,0.17,0.15,0.26,0.27,0.29
						c3.51,0.81,3.2,5.11,3.14,5.69c0.62,2.35,2.3,9.95,2.21,11.67c-0.08,1.66-1.67,6.51-1.74,6.72c-0.03,0.09-0.09,0.16-0.18,0.19
						C128.2,81.7,128.16,81.71,128.12,81.71z M123.01,54.9c-0.02,0-0.05,0-0.07,0.01c-0.18,0.04-0.37,0.22-0.34,0.53
						c0.03,0.33,0.38,3.14,0.53,4.28c0.03,0.23-0.07,0.53-0.22,0.71c-0.28,0.33-0.26,0.84,0.05,1.49c0.39,0.8,0.64,1.02,0.93,1.27
						c0.26,0.22,0.55,0.47,0.93,1.09c0.9,1.44,1.11,6.44,1.15,8.52c0.06,2.61-1.06,4.8-1.54,5.62c0,0,0,0.02,0.01,0.04
						c0.17,0.57,2.06,1.74,3.51,2.49c0.37-1.15,1.53-4.88,1.6-6.21c0.08-1.57-1.53-8.99-2.2-11.54c-0.01-0.04-0.01-0.08-0.01-0.12
						c0.02-0.18,0.53-4.33-2.66-5.06c-0.32-0.07-0.58-0.31-0.71-0.68c-0.2-0.53-0.32-0.95-0.46-1.44c-0.07-0.24-0.14-0.49-0.23-0.79
						C123.21,54.94,123.1,54.9,123.01,54.9z"/>
				</g>
				<g>
					<path class="st0" d="M125.54,76.16c-0.61-0.13-1.24,0.18-1.53,0.73c-0.6,1.12-4.89,5.79-5.53,6.3
						c-0.79,0.63-3.07,4.41-7.96,4.31c-0.29-0.01-0.57,0.09-0.79,0.28c-0.56,0.47-1.88,1.38-4.16,2.07
						c-1.39,0.42-2.48,1.74-2.61,4.75c-0.15,3.58-3.88,10.59-2.79,13.27c1.89,4.67,4.92,3.35,7.77,2.41c0,0,0.2,0,0.03,4.2
						c-0.26,6.42-0.42,6.69,8.48,6.1c6.68-0.44,12.8-1.39,12.86-2.79c0.05-1.03-1.74-6.61-2.11-13.32
						c-0.37-6.71,0.8-16.95,1.55-19.56C129.41,82.58,128.54,76.81,125.54,76.16z"/>
					<path d="M111.98,121.1c-1.82,0-2.93-0.22-3.59-0.86c-0.94-0.91-0.87-2.53-0.75-5.47l0.01-0.31c0.1-2.36,0.07-3.36,0.04-3.78
						l-0.11,0.04c-2.72,0.92-5.81,1.95-7.71-2.74c-0.67-1.66,0.34-4.75,1.33-7.74c0.68-2.06,1.38-4.2,1.44-5.66
						c0.12-2.81,1.07-4.5,2.83-5.03c2.22-0.67,3.49-1.55,4.06-2.01c0.28-0.23,0.64-0.35,0.99-0.35c3.87,0.09,6.09-2.41,7.15-3.61
						c0.26-0.29,0.45-0.51,0.61-0.64c0.61-0.48,4.88-5.13,5.45-6.2c0.37-0.68,1.14-1.05,1.87-0.89c0.93,0.2,1.72,0.84,2.35,1.89
						c1.26,2.11,1.59,5.51,1.09,7.25c-0.73,2.56-1.91,12.76-1.54,19.46c0.25,4.45,1.13,8.46,1.66,10.86
						c0.29,1.31,0.46,2.1,0.45,2.49c-0.08,1.84-7.2,2.69-13.15,3.09C114.62,121.01,113.15,121.1,111.98,121.1z M107.93,109.97
						c0.08,0,0.17,0.04,0.23,0.1c0.1,0.11,0.28,0.29,0.11,4.42l-0.01,0.31c-0.11,2.76-0.17,4.28,0.56,5
						c0.85,0.83,2.87,0.79,7.6,0.47c8.59-0.57,12.53-1.69,12.57-2.5c0.01-0.3-0.18-1.19-0.43-2.32c-0.53-2.41-1.42-6.46-1.68-10.96
						c-0.38-6.75,0.82-17.07,1.56-19.66c0.46-1.61,0.12-4.85-1.02-6.76c-0.54-0.9-1.19-1.44-1.95-1.6c-0.47-0.1-0.96,0.13-1.19,0.57
						c-0.62,1.16-4.9,5.83-5.61,6.39c-0.12,0.1-0.31,0.31-0.53,0.56c-1.11,1.25-3.39,3.82-7.42,3.82c-0.07,0-0.13,0-0.2,0
						c-0.21-0.01-0.42,0.07-0.59,0.21c-0.6,0.49-1.95,1.43-4.27,2.13c-1.48,0.45-2.28,1.95-2.39,4.46
						c-0.07,1.55-0.75,3.63-1.47,5.83c-0.95,2.88-1.93,5.86-1.34,7.32c1.68,4.15,4.23,3.29,6.93,2.38l0.46-0.15
						C107.86,109.97,107.9,109.97,107.93,109.97z"/>
				</g>
				<path d="M107.42,111.06c-0.13,0-0.25-0.08-0.29-0.21c-0.06-0.16,0.03-0.34,0.19-0.4c0.05-0.02,2.41-1.04,2.02-7.62
					c-0.01-0.17,0.12-0.32,0.29-0.33c0.17-0.01,0.32,0.12,0.33,0.29c0.43,7.15-2.31,8.2-2.43,8.24
					C107.49,111.06,107.45,111.06,107.42,111.06z"/>
			</g>
			<g>
				<g>
					<path class="st0" d="M116.01,73.43c0.17,0.58,0.49,2.01,0.84,2.46c0.86,1.1,1.61,4.64,0.25,7.06
						c-0.77,1.38-0.85,2.48-0.79,3.13c0.04,0.43-0.16,0.85-0.53,1.08l-0.01,0.01c-0.87,0.57-1.87,0.93-2.91,1.03l-0.3,0.03
						c-0.49,0.05-0.96-0.21-1.18-0.66c-0.66-1.35-2.08-4.13-3-4.84c-1.23-0.94-8.23-8.85-3.57-11.3
						C112.93,67.16,115.49,71.63,116.01,73.43z"/>
					<path d="M112.45,88.55c-0.56,0-1.09-0.32-1.34-0.84c-1.23-2.53-2.29-4.25-2.91-4.73c-0.84-0.65-5.56-5.73-5.26-9.29
						c0.1-1.13,0.68-1.98,1.74-2.54c3.48-1.83,6.35-2.29,8.53-1.36c2.19,0.93,2.93,2.96,3.1,3.56c0.03,0.11,0.07,0.26,0.12,0.43
						c0.16,0.6,0.43,1.62,0.67,1.93c0.91,1.17,1.71,4.87,0.28,7.4c-0.72,1.29-0.81,2.32-0.75,2.95c0.05,0.54-0.21,1.07-0.67,1.37
						c-0.93,0.61-1.98,0.98-3.07,1.09l-0.3,0.03C112.55,88.55,112.5,88.55,112.45,88.55z M110.79,69.95c-1.64,0-3.59,0.59-5.82,1.76
						c-0.87,0.46-1.33,1.12-1.41,2.04c-0.27,3.1,3.95,7.92,5.02,8.74c0.95,0.73,2.34,3.42,3.09,4.95c0.16,0.32,0.51,0.52,0.86,0.48
						l0.3-0.03c0.99-0.1,1.94-0.44,2.77-0.98c0.28-0.19,0.43-0.49,0.4-0.8c-0.07-0.72,0.02-1.88,0.83-3.31
						c1.28-2.28,0.57-5.69-0.23-6.72c-0.3-0.38-0.54-1.23-0.78-2.15c-0.04-0.16-0.08-0.3-0.11-0.42c-0.15-0.53-0.81-2.33-2.74-3.16
						C112.32,70.09,111.59,69.95,110.79,69.95z"/>
				</g>
				<path d="M115.78,79.4C115.78,79.4,115.78,79.4,115.78,79.4c-0.93-0.02-1.52-1.09-1.63-2.13c-0.1-0.9,0.18-1.55,0.71-1.68
					c0.59-0.14,0.96,0.53,1,0.61c0.08,0.15,0.02,0.34-0.13,0.42c-0.15,0.08-0.34,0.02-0.42-0.13c-0.09-0.16-0.24-0.31-0.31-0.3
					c-0.17,0.04-0.3,0.43-0.24,1c0.08,0.76,0.49,1.56,1.02,1.57c0.17,0,0.31,0.15,0.3,0.32C116.09,79.27,115.95,79.4,115.78,79.4z"
					/>
				<path d="M117.78,74.36c0,0-0.26-6.51-4.54-7.37c-4.29-0.86-9.43,0.55-10.83,2.45s-0.18,5.07-0.18,5.07s-1.66,3,0.54,4.37
					c2.2,1.37,4.39,4.91,6.67,3.75s3.53-2.49,3.43-4.82C112.74,74.72,117.78,74.36,117.78,74.36z"/>
			</g>
		</g>
		<g>
			<g>
				<g>
					<g>
						<path class="st0" d="M244.95,100.58c0.87-2.87,0.72-4.68-0.07-6.57l-1.33-2.64l4-1.6l1.23,3.01c0.4,0.97,0.97,1.86,1.69,2.62
							l0.66,0.7L244.95,100.58z"/>
						<path d="M244.95,100.89c-0.06,0-0.13-0.02-0.18-0.06c-0.11-0.08-0.16-0.22-0.12-0.34c0.91-3,0.64-4.71-0.06-6.36l-1.32-2.63
							c-0.04-0.08-0.04-0.17-0.01-0.25c0.03-0.08,0.09-0.15,0.18-0.18l4-1.6c0.16-0.06,0.34,0.01,0.4,0.17l1.23,3.01
							c0.38,0.94,0.93,1.79,1.62,2.52l0.66,0.7c0.06,0.07,0.09,0.15,0.08,0.24c-0.01,0.09-0.05,0.17-0.13,0.22l-6.18,4.49
							C245.08,100.87,245.01,100.89,244.95,100.89z M243.98,91.52l1.18,2.34c0.8,1.91,0.91,3.63,0.33,5.94l5.17-3.76l-0.42-0.44
							c-0.75-0.79-1.34-1.71-1.75-2.72l-1.11-2.72L243.98,91.52z"/>
					</g>
					<g>
						<g>
							<path class="st0" d="M249.32,94.62c0.1-0.31,0.51-0.39,0.73-0.15c0.63,0.67,1.74,1.8,2.58,2.38
								c0.78,0.54,1.03,1.59,0.58,2.42c-1.26,2.36-4.43,7.49-7.78,11.41c-0.23,0.27-0.8,0.63-1.62,0.26
								c-2.75-1.24-0.14-6.83,1.36-12.65c0.06-0.23,0.24-0.4,0.48-0.45l0.83-0.15C248.02,97.38,248.66,96.65,249.32,94.62z"/>
							<path d="M244.49,111.4c-0.25,0-0.52-0.05-0.81-0.18c-2.38-1.07-1.24-4.81,0.07-9.13c0.38-1.26,0.78-2.56,1.11-3.88
								c0.09-0.35,0.37-0.61,0.72-0.68l0.83-0.15c1.41-0.28,1.97-0.89,2.6-2.86c0.08-0.25,0.28-0.43,0.54-0.49
								c0.26-0.06,0.54,0.02,0.72,0.22c0.59,0.63,1.71,1.77,2.53,2.34c0.91,0.63,1.2,1.84,0.68,2.82
								c-1.31,2.46-4.47,7.55-7.82,11.47C245.43,111.16,245.02,111.4,244.49,111.4z M249.61,94.71c-0.69,2.16-1.44,2.95-3.07,3.28
								l-0.84,0.15c-0.11,0.02-0.2,0.11-0.23,0.22c-0.34,1.33-0.74,2.64-1.12,3.9c-1.23,4.05-2.29,7.54-0.41,8.38
								c0.76,0.34,1.18-0.09,1.25-0.18c3.32-3.88,6.45-8.91,7.75-11.35c0.37-0.7,0.16-1.57-0.49-2.02c-0.87-0.6-2.02-1.78-2.63-2.42
								c-0.05-0.05-0.11-0.04-0.13-0.04C249.66,94.65,249.63,94.67,249.61,94.71z"/>
						</g>
						<g>
							<path class="st0" d="M252.44,96.72c0,0,0.13,0.09,0.19,0.13c0.78,0.54,1.03,1.59,0.58,2.42c-1.26,2.36-4.43,7.49-7.78,11.41
								c-0.23,0.27-0.8,0.63-1.62,0.26c-0.25-0.11-0.63-0.42-0.63-0.42l0.23-0.29c3.21-4.08,6.11-8.39,8.69-12.9L252.44,96.72z"/>
							<path d="M244.49,111.4c-0.25,0-0.52-0.05-0.81-0.18c-0.28-0.13-0.66-0.43-0.7-0.46c-0.13-0.11-0.15-0.3-0.05-0.43l0.23-0.29
								c3.19-4.06,6.1-8.38,8.66-12.86l0.35-0.61c0.04-0.08,0.12-0.13,0.2-0.15c0.08-0.02,0.17,0,0.25,0.05l0.19,0.13
								c0.91,0.63,1.2,1.84,0.68,2.82c-1.31,2.46-4.47,7.55-7.82,11.47C245.43,111.16,245.02,111.4,244.49,111.4z M243.63,110.46
								c0.11,0.08,0.23,0.15,0.32,0.19c0.76,0.34,1.18-0.09,1.25-0.18c3.32-3.88,6.45-8.91,7.75-11.35c0.36-0.67,0.18-1.49-0.4-1.95
								l-0.18,0.31c-2.57,4.5-5.5,8.86-8.71,12.94L243.63,110.46z"/>
						</g>
						<path d="M244.03,102.95c-0.15,0-0.28-0.11-0.31-0.26c-0.03-0.17,0.09-0.33,0.26-0.36l2.76-0.46c0.17-0.03,0.33,0.09,0.36,0.26
							c0.03,0.17-0.09,0.33-0.26,0.36l-2.76,0.46C244.07,102.95,244.05,102.95,244.03,102.95z"/>
						<path d="M243.58,104.52c-0.15,0-0.28-0.11-0.31-0.27c-0.03-0.17,0.09-0.33,0.26-0.35l2.25-0.33c0.17-0.02,0.33,0.09,0.35,0.26
							c0.03,0.17-0.09,0.33-0.26,0.35l-2.25,0.33C243.62,104.52,243.6,104.52,243.58,104.52z"/>
					</g>
				</g>
				<path d="M267.5,58.88c0,0-27.78-6.08-36.24-1.27c-1.28,0.73-2.49,2.25-2.75,3.69c-0.81,4.39,1.63,13.95,15.02,31.94
					c0.19,0.25,0.53,0.35,0.82,0.24l4.25-1.61c0.34-0.13,0.53-0.5,0.43-0.86l-5.67-19.82c-0.15-0.52,0.28-1.01,0.81-0.95l26.47,3.25
					L267.5,58.88z"/>
				<g>
					<g>
						<path class="st0" d="M259.3,111.13l-0.54,2.58c-0.73,3.76,2.02,5.68,2.02,5.68l-8.13,0.99c0,0,1.78-1.08,1.41-6.3l-0.47-4.37
							L259.3,111.13z"/>
						<path d="M252.64,120.69c-0.13,0-0.25-0.08-0.29-0.21c-0.05-0.14,0.01-0.29,0.13-0.37c0.01-0.01,1.6-1.11,1.27-6.01l-0.46-4.36
							c-0.01-0.1,0.03-0.2,0.11-0.27c0.08-0.07,0.18-0.09,0.28-0.07l5.71,1.42c0.16,0.04,0.26,0.2,0.23,0.37l-0.54,2.58
							c-0.68,3.52,1.87,5.35,1.9,5.36c0.11,0.07,0.16,0.21,0.12,0.33c-0.03,0.13-0.14,0.22-0.26,0.23l-8.13,0.99
							C252.66,120.69,252.65,120.69,252.64,120.69z M253.95,110.12l0.42,3.93c0.23,3.38-0.42,5.1-0.95,5.93l6.64-0.81
							c-0.8-0.82-2.16-2.69-1.61-5.52l0.48-2.29L253.95,110.12z"/>
					</g>
					<g>
						<g>
							<path class="st0" d="M259.46,115.92c0.67,0.77,1.89,2.22,2.82,3.62c0.59,0.88,0.24,1.89-0.39,2.74
								c-1.28,1.72-3.04,3.04-5.1,4.4c-1.8,1.19-3.82,2.44-6.25,3.55c-0.66,0.3-2.14,0.71-3.14,0.22c-3-1.49,2-6.17,5.93-11.56
								c0.15-0.21,0.42-0.32,0.67-0.26l0.92,0.18c0.92,0.18,1.86-0.2,2.38-0.98l1.24-1.85
								C258.76,115.66,259.21,115.63,259.46,115.92z"/>
							<path d="M248.52,130.99c-0.44,0-0.88-0.07-1.26-0.26c-0.58-0.29-0.93-0.7-1.04-1.23c-0.36-1.65,1.6-4.1,4.09-7.22
								c0.92-1.15,1.87-2.34,2.77-3.58c0.23-0.31,0.61-0.46,0.99-0.39l0.92,0.18c0.8,0.16,1.61-0.17,2.06-0.85l1.24-1.85
								c0.15-0.23,0.4-0.37,0.68-0.39c0.28-0.01,0.54,0.09,0.73,0.31c0.65,0.75,1.89,2.23,2.84,3.65c0.58,0.87,0.44,1.97-0.4,3.09
								c-1.29,1.73-3,3.04-5.18,4.48c-1.71,1.13-3.8,2.44-6.29,3.57C250.21,130.72,249.36,130.99,248.52,130.99z M253.88,118.92
								c-0.11,0-0.22,0.05-0.29,0.15c-0.91,1.25-1.87,2.44-2.79,3.6c-2.19,2.74-4.27,5.34-3.97,6.69c0.08,0.34,0.31,0.61,0.71,0.81
								c0.84,0.42,2.17,0.09,2.87-0.22c2.45-1.12,4.51-2.41,6.2-3.53c2.12-1.4,3.79-2.67,5.02-4.33c0.47-0.64,0.92-1.56,0.38-2.38
								c-0.93-1.4-2.15-2.85-2.79-3.59c-0.06-0.06-0.14-0.1-0.22-0.09c-0.05,0-0.14,0.02-0.2,0.12l-1.24,1.85
								c-0.59,0.89-1.65,1.32-2.7,1.11l-0.92-0.18C253.93,118.92,253.9,118.92,253.88,118.92z"/>
						</g>
						<g>
							<path class="st0" d="M261.8,118.89c0,0,0.44,0.58,0.48,0.65c0.15,0.22,0.23,0.48,0.28,0.74c0.15,0.85-0.14,1.71-0.74,2.34
								c-0.14,0.15-0.34,0.34-0.57,0.56c-2.36,2.24-5.01,4.16-7.87,5.72c-1.45,0.79-4.67,2.42-5.99,1.56
								c-0.41-0.27-0.65-1.07-0.65-1.07s0.77,0.46,3.08-0.69c3.91-1.94,6.56-4.12,9.78-6.72c0.64-0.51,1.07-0.98,1.52-1.54
								C261.5,119.98,261.73,119.45,261.8,118.89z"/>
							<path d="M248.39,131c-0.47,0-0.86-0.1-1.15-0.29c-0.49-0.32-0.75-1.15-0.78-1.24c-0.04-0.12,0-0.26,0.11-0.34
								c0.1-0.08,0.24-0.09,0.35-0.02c0,0,0.73,0.32,2.78-0.7c3.75-1.86,6.38-3.98,9.41-6.43l0.31-0.25
								c0.55-0.44,0.98-0.88,1.48-1.49c0.32-0.4,0.53-0.87,0.59-1.38c0.02-0.13,0.11-0.23,0.23-0.26c0.12-0.03,0.25,0.01,0.33,0.11
								c0.1,0.14,0.45,0.6,0.49,0.67c0.16,0.24,0.27,0.52,0.33,0.86c0.17,0.92-0.14,1.9-0.82,2.61c-0.15,0.15-0.35,0.35-0.58,0.57
								c-2.35,2.23-5.02,4.17-7.94,5.76C251.3,130.38,249.57,131,248.39,131z M247.25,129.77c0.09,0.18,0.21,0.34,0.32,0.41
								c0.47,0.31,1.84,0.52,5.67-1.57c2.87-1.57,5.5-3.47,7.81-5.67c0.22-0.21,0.42-0.4,0.56-0.55c0.54-0.57,0.79-1.34,0.65-2.07
								c-0.05-0.25-0.12-0.46-0.23-0.62c-0.01-0.01-0.04-0.05-0.08-0.1c-0.13,0.36-0.32,0.71-0.56,1.01
								c-0.53,0.65-0.98,1.11-1.57,1.59l-0.31,0.25c-3.07,2.48-5.71,4.61-9.53,6.51C248.64,129.62,247.78,129.78,247.25,129.77z"/>
						</g>
						<path d="M254.07,122.95c-0.02,0-0.04,0-0.07-0.01l-3.03-0.65c-0.17-0.04-0.28-0.2-0.24-0.37c0.04-0.17,0.2-0.28,0.37-0.24
							l3.03,0.65c0.17,0.04,0.28,0.2,0.24,0.37C254.35,122.85,254.22,122.95,254.07,122.95z"/>
						<path d="M252.39,124.31c-0.02,0-0.05,0-0.07-0.01l-2.46-0.58c-0.17-0.04-0.27-0.21-0.23-0.37c0.04-0.17,0.21-0.27,0.37-0.23
							l2.46,0.58c0.17,0.04,0.27,0.21,0.23,0.37C252.66,124.21,252.53,124.31,252.39,124.31z"/>
					</g>
				</g>
				<path d="M249.53,66.81c8.09-6.91,34.14-7.13,34.14-7.13s3.25,3.87,1.7,11.67c-0.51,2.57-2.33,4.88-5.21,4.88l-15.98,0.13
					c-1.17,0.01-2.1,0.98-2.06,2.15c0.3,7.71,0.56,23.66-1.65,34.53c-0.09,0.44-0.42,0.79-0.86,0.91c-1.02,0.28-3.02,0.72-5.19,0.69
					c-0.68-0.01-1.24-0.52-1.33-1.19l-5.3-39.52c-0.16-1.19-0.16-2.4,0.04-3.59C248.05,69.08,248.52,67.67,249.53,66.81z"/>
				<path class="st0" d="M247.36,71.73C247.35,71.73,247.35,71.73,247.36,71.73c-0.18-0.01-0.32-0.15-0.31-0.32
					c0.19-6.53,8.61-8.4,8.7-8.41c0.17-0.04,0.33,0.07,0.37,0.24c0.04,0.17-0.07,0.33-0.24,0.37c-0.08,0.02-8.03,1.78-8.21,7.82
					C247.66,71.6,247.52,71.73,247.36,71.73z"/>
			</g>
			<g>
				<g>
					<path class="st0" d="M237.36,43.59c0.05-0.91,0.34-1.89-0.13-2.63l-0.95-1.26c-0.69-1.07-0.62-2.49-0.19-3.65l1.25-3.01
						c0.12-0.34,0.6,0.42,0.7,0.77l3.4,12.05c0.57,1.75,2.5,1.9,3.59,1.15l4.48-3.06l5.3,7.36c0,0-5.15,3.63-11.75,4.8
						C241.55,56.38,236.63,56.24,237.36,43.59z"/>
					<path d="M242.41,56.49c-0.73,0-1.79-0.19-2.76-1.06c-2.07-1.84-2.94-5.83-2.59-11.85c0.01-0.22,0.04-0.45,0.07-0.68
						c0.08-0.67,0.15-1.3-0.15-1.77l-0.94-1.24c-0.68-1.05-0.76-2.52-0.23-3.95l1.25-3.02c0.07-0.21,0.25-0.28,0.39-0.28
						c0.48,0.02,0.86,0.95,0.9,1.08l3.4,12.05c0.25,0.77,0.78,1.1,1.18,1.24c0.63,0.21,1.39,0.11,1.93-0.26l4.48-3.06
						c0.14-0.1,0.33-0.06,0.43,0.08l5.3,7.36c0.05,0.07,0.07,0.15,0.05,0.23c-0.01,0.08-0.06,0.16-0.13,0.2
						c-0.05,0.04-5.28,3.69-11.88,4.85C242.94,56.46,242.7,56.49,242.41,56.49z M237.67,43.61c-0.42,7.25,1.06,10.18,2.38,11.35
						c1.12,1,2.32,0.96,2.94,0.85c5.64-0.99,10.25-3.84,11.37-4.57l-4.93-6.85l-4.23,2.88c-0.7,0.48-1.67,0.61-2.48,0.33
						c-0.76-0.26-1.32-0.84-1.58-1.65l-3.4-12.07c-0.04-0.13-0.14-0.31-0.23-0.45l-1.13,2.73c-0.46,1.23-0.4,2.5,0.16,3.37
						l0.94,1.24c0.43,0.68,0.34,1.45,0.25,2.19C237.71,43.18,237.68,43.4,237.67,43.61z M237.63,33.15L237.63,33.15
						C237.63,33.15,237.63,33.15,237.63,33.15z"/>
				</g>
				<g>
					<path class="st0" d="M286.05,61.53c-0.59-2.34-1.01-4.51-3.27-10.46c-1.57-4.13,0.69-12.58-3.24-16.35
						c-6.47-6.21-24.84,4.23-26.04,4.92l-1.24,0.67c-1.4,0.8-2.75,1.72-4.04,2.69l-0.24,0.18l5.8,9.16l6.7-3.44
						c1.85,2.99,3.4,6.17,4.62,9.48l0.78,2.87c0,0-0.27,0.55,6.95,1.6c5.21,0.75,9.94,0.42,12.17,0.18
						C285.74,62.94,286.23,62.24,286.05,61.53z"/>
					<path d="M279.56,63.62c-2.02,0-4.34-0.12-6.76-0.47c-6.78-0.98-7.08-1.54-7.18-1.73c-0.02-0.04-0.04-0.09-0.04-0.14l-0.77-2.83
						c-1.17-3.16-2.67-6.25-4.44-9.15l-6.45,3.31c-0.14,0.07-0.32,0.03-0.41-0.11l-5.8-9.16c-0.09-0.14-0.05-0.32,0.08-0.42
						l0.24-0.18c1.44-1.08,2.77-1.97,4.07-2.71l1.25-0.67c2-1.16,19.84-11.16,26.4-4.87c2.52,2.42,2.59,6.67,2.66,10.43
						c0.04,2.32,0.08,4.51,0.66,6.04c2,5.28,2.58,7.62,3.08,9.69c0.07,0.27,0.13,0.54,0.2,0.81c0.11,0.42,0.02,0.87-0.23,1.23
						c-0.25,0.36-0.65,0.59-1.08,0.64C283.8,63.46,281.87,63.62,279.56,63.62z M266.18,61.12c0.19,0.12,1.24,0.62,6.71,1.41
						c5.13,0.74,9.78,0.43,12.09,0.17c0.26-0.03,0.49-0.17,0.64-0.38c0.15-0.21,0.2-0.47,0.13-0.72c0,0,0,0,0,0
						c-0.07-0.27-0.13-0.54-0.2-0.81c-0.5-2.05-1.07-4.37-3.06-9.61c-0.62-1.63-0.66-3.87-0.7-6.25c-0.07-3.81-0.14-7.75-2.47-9.99
						c-6.34-6.08-24.88,4.51-25.66,4.96l-1.25,0.68c-1.27,0.73-2.58,1.6-4,2.67l-0.01,0.01l5.5,8.67l6.45-3.31
						c0.14-0.07,0.32-0.02,0.41,0.11c1.86,3.01,3.42,6.22,4.65,9.53L266.18,61.12z M266.17,61.38
						C266.17,61.38,266.17,61.38,266.17,61.38C266.17,61.38,266.17,61.38,266.17,61.38z M266.17,61.38
						C266.17,61.38,266.17,61.38,266.17,61.38C266.17,61.38,266.17,61.38,266.17,61.38z M266.17,61.38
						C266.17,61.38,266.17,61.38,266.17,61.38C266.17,61.38,266.17,61.38,266.17,61.38z M266.18,61.37c0,0,0,0.01-0.01,0.01
						C266.17,61.38,266.17,61.37,266.18,61.37z M266.18,61.37C266.18,61.37,266.18,61.37,266.18,61.37
						C266.18,61.37,266.18,61.37,266.18,61.37z"/>
				</g>
				<g>
					<path class="st0" d="M262.87,46.58l-3.1,2.85c-0.21,0.2-0.47,0.36-0.76,0.42c-0.59,0.12-1.22-0.09-1.61-0.58l-6.07-9.02
						c-0.45-0.67-1.19-1.09-2-1.14l-3.87-0.31c-0.51-0.04-0.82,0.57-0.46,0.94c0.37,0.38,0.93,0.76,1.72,0.9
						c0.49,0.09,0.86,0.46,0.93,0.95c0.32,2.08,2.7,3,2.7,3s2.32,13.91,8.92,12.22c8.75-2.24,13.76-8.35,13.76-8.35L262.87,46.58z"
						/>
					<path d="M258.18,57.24c-0.86,0-1.68-0.25-2.46-0.76c-3.84-2.5-5.41-10.4-5.65-11.69c-0.58-0.26-2.44-1.25-2.73-3.17
						c-0.05-0.35-0.32-0.62-0.68-0.69c-0.74-0.13-1.37-0.47-1.88-0.99c-0.25-0.26-0.31-0.64-0.16-0.96c0.16-0.34,0.5-0.53,0.87-0.5
						l3.87,0.31c0.89,0.05,1.73,0.53,2.24,1.28l6.07,9.02c0.3,0.37,0.8,0.55,1.29,0.45c0.21-0.04,0.42-0.16,0.61-0.34l3.1-2.85
						c0.07-0.07,0.17-0.09,0.27-0.08l10.15,1.86c0.11,0.02,0.2,0.1,0.24,0.2c0.04,0.1,0.02,0.22-0.05,0.3
						c-0.05,0.06-5.18,6.22-13.92,8.46C258.95,57.19,258.56,57.24,258.18,57.24z M245.41,39.09c-0.15,0-0.21,0.11-0.23,0.15
						c-0.02,0.04-0.06,0.16,0.04,0.26c0.42,0.43,0.94,0.7,1.55,0.81c0.62,0.11,1.09,0.6,1.19,1.21c0.29,1.88,2.48,2.75,2.51,2.76
						c0.1,0.04,0.18,0.13,0.2,0.24c0.01,0.09,1.53,8.92,5.4,11.44c0.97,0.63,2.02,0.81,3.13,0.53c7.24-1.85,11.94-6.45,13.23-7.84
						l-9.46-1.73l-2.98,2.74c-0.27,0.25-0.59,0.43-0.91,0.49c-0.72,0.15-1.46-0.12-1.92-0.69l-6.09-9.04c-0.4-0.59-1.05-0.96-1.76-1
						l-3.87-0.31C245.43,39.09,245.42,39.09,245.41,39.09z"/>
				</g>
				<path d="M263.13,45.51c-0.06,0-0.12-0.02-0.18-0.06c-0.14-0.1-0.18-0.29-0.08-0.43l1.4-2.03c0.1-0.14,0.29-0.18,0.43-0.08
					c0.14,0.1,0.18,0.29,0.08,0.43l-1.4,2.03C263.33,45.46,263.23,45.51,263.13,45.51z"/>
				<path d="M273.43,47.86c-0.09,0-0.17-0.04-0.24-0.11c-0.11-0.13-0.1-0.33,0.03-0.44c4.67-4.07,6.09-7.43,6.7-8.86l0.08-0.19
					c0.07-0.16,0.25-0.23,0.41-0.16c0.16,0.07,0.23,0.25,0.16,0.41l-0.08,0.19c-0.62,1.47-2.08,4.93-6.86,9.09
					C273.58,47.84,273.5,47.86,273.43,47.86z"/>
				<path d="M241.32,48.93l7.45,0.36c1.12,0.05,2.14-0.66,2.01-1.43l-2.49-15.54c-0.08-0.49-0.63-0.85-1.35-0.89l-7.45-0.36
					c-1.12-0.05-2.14,0.66-2.01,1.43l2.49,15.54C240.05,48.54,240.59,48.9,241.32,48.93z"/>
			</g>
			<g>
				<g>
					<path class="st0" d="M272.37,33.72l2.15,0.57c0.51,0.14,0.49,0.81-0.01,1c-5.6,2.1-8.38,1.28-10.12,1.06
						c-0.51-0.06-0.63-0.76-0.16-0.98l0.01-0.01c0.61-0.29,0.9-1.01,0.64-1.64l-1.51-3.77l3.23-6.33L270,31.8
						C270.48,32.75,271.34,33.45,272.37,33.72z"/>
					<path d="M267.75,37.01c-1.13,0-2.03-0.14-2.77-0.25c-0.23-0.04-0.44-0.07-0.64-0.09c-0.37-0.05-0.66-0.33-0.72-0.69
						c-0.06-0.37,0.13-0.72,0.46-0.88c0.48-0.23,0.69-0.77,0.5-1.25l-1.51-3.77c-0.03-0.08-0.03-0.18,0.01-0.26l3.23-6.33
						c0.06-0.11,0.17-0.18,0.29-0.17c0.12,0,0.23,0.08,0.28,0.19l3.38,8.16c0.43,0.85,1.22,1.49,2.16,1.74l2.15,0.57
						c0.35,0.09,0.59,0.38,0.6,0.73c0.02,0.38-0.22,0.72-0.58,0.86C271.62,36.71,269.42,37.01,267.75,37.01z M263.72,29.98
						l1.45,3.64c0.31,0.78-0.04,1.68-0.8,2.03c-0.14,0.06-0.13,0.18-0.13,0.22c0.01,0.04,0.04,0.15,0.18,0.17
						c0.2,0.03,0.42,0.06,0.65,0.1c1.77,0.27,4.43,0.69,9.31-1.14c0.14-0.05,0.18-0.16,0.18-0.24c0-0.08-0.05-0.14-0.14-0.16
						l-2.15-0.57c-1.11-0.3-2.05-1.06-2.57-2.09l-3.13-7.56L263.72,29.98z"/>
				</g>
				<g>
					<g>
						<path class="st0" d="M259.44,20.99c-3.19,2.36-1.9,4.52-1.9,4.52c0.23,0.63,0.77,2.09,0.7,2.39
							c-0.08,0.37-0.48,1.07-0.45,1.27c0.03,0.2,0.46,0.51,1.12,0.48c0,0,1.14,3.05,2.1,3.32c0.96,0.27,3.8-1.61,3.8-1.61l0.46-0.36
							c1.49-1.17,2.12-2.89,2.1-4.8C267.38,26.19,266.76,15.57,259.44,20.99z"/>
						<path d="M261.22,33.3c-0.11,0-0.2-0.01-0.29-0.04c-0.96-0.27-1.91-2.5-2.23-3.31c-0.67-0.03-1.16-0.39-1.21-0.74
							c-0.03-0.19,0.07-0.42,0.24-0.81c0.09-0.2,0.18-0.43,0.21-0.57c0.01-0.12-0.1-0.61-0.68-2.2c-0.16-0.3-1.16-2.55,2-4.89
							c2.02-1.49,3.75-1.94,5.16-1.34c2.33,1,3.02,4.62,3.21,6.12c0.02,0.17-0.1,0.33-0.27,0.35c-0.17,0.02-0.33-0.1-0.35-0.27
							c-0.17-1.4-0.8-4.76-2.83-5.63c-1.19-0.51-2.72-0.08-4.55,1.27c-2.93,2.17-1.83,4.09-1.82,4.1c0.01,0.02,0.02,0.03,0.03,0.05
							c0.59,1.61,0.78,2.28,0.71,2.57c-0.04,0.2-0.15,0.44-0.25,0.68c-0.06,0.15-0.16,0.37-0.18,0.47c0.07,0.08,0.33,0.24,0.78,0.22
							c0.14-0.01,0.26,0.07,0.31,0.2c0.45,1.2,1.34,2.97,1.89,3.13c0.57,0.16,2.41-0.82,3.54-1.57l0.44-0.35
							c0.19-0.15,0.38-0.32,0.55-0.5c0.12-0.12,0.32-0.13,0.44-0.01c0.12,0.12,0.13,0.32,0.01,0.44c-0.19,0.2-0.39,0.39-0.61,0.56
							l-0.46,0.36C264.53,31.91,262.38,33.3,261.22,33.3z"/>
						<path d="M260.13,18.96c-0.87,0.5-1.62,1.36-2.09,1.56c-0.76,0.31-1.34-0.37-2.22,0.28c-0.78,0.58-1.33,1.3-1.21,2.18
							c0.02,0.15,0.06,0.3,0.12,0.45c0.8,2.07,2.26,1.89,2.82,1.83c0,0,3.14-0.87,3.79-0.9c0.61-0.03,1.62,0.53,2.25,1.72
							c0.08,0.15,0.26,0.23,0.43,0.2c0.2-0.04,0.34-0.23,0.31-0.43c-0.07-0.64-0.14-1.93,0.46-2.14c0.7-0.25,2.02,0.91,1.35,2.07
							c-0.21,0.36,0.03,0.83,0.44,0.87c0.34,0.04,0.73-0.07,1.04-0.53c0,0,0.9-3.78-0.78-6.26
							C265.17,17.37,261.29,18.29,260.13,18.96z"/>
						<g>
							<path d="M257.74,29.69c-0.05,0-0.1-0.01-0.15-0.04c-0.39-0.21-0.76-0.72-0.99-1.36c-0.15-0.44-0.21-0.88-0.18-1.25
								c0.06-0.61,0.37-0.8,0.54-0.86c0.56-0.19,1.22,0.39,1.58,1.39c0.06,0.16-0.03,0.34-0.19,0.4c-0.16,0.06-0.34-0.03-0.4-0.19
								c-0.27-0.74-0.68-1.05-0.79-1.01c-0.03,0.01-0.1,0.11-0.13,0.34c-0.03,0.28,0.03,0.63,0.15,0.98
								c0.19,0.55,0.49,0.91,0.69,1.02c0.15,0.08,0.21,0.27,0.13,0.42C257.96,29.63,257.85,29.69,257.74,29.69z"/>
							<path d="M259.95,28.8c-0.6,0-1.22-0.56-1.52-1.4c-0.16-0.45-0.19-0.91-0.11-1.31c0.1-0.44,0.35-0.76,0.7-0.88
								c0.68-0.24,1.48,0.36,1.82,1.35c0,0,0,0,0,0c0.16,0.45,0.19,0.91,0.11,1.31c-0.1,0.44-0.35,0.76-0.7,0.88
								C260.15,28.78,260.05,28.8,259.95,28.8z M259.33,25.78c-0.04,0-0.07,0.01-0.1,0.02c-0.14,0.05-0.24,0.2-0.29,0.43
								c-0.06,0.28-0.03,0.63,0.09,0.97c0.24,0.7,0.74,1.07,1.03,0.97c0.14-0.05,0.24-0.2,0.29-0.43c0.06-0.28,0.03-0.63-0.09-0.97
								C260.04,26.14,259.62,25.78,259.33,25.78z"/>
							<path d="M260.25,26.35c-0.12,0-0.24-0.08-0.29-0.2c-0.06-0.16,0.02-0.34,0.18-0.4l3.33-1.3c0.16-0.06,0.34,0.02,0.4,0.18
								c0.06,0.16-0.02,0.34-0.18,0.4l-3.33,1.3C260.32,26.34,260.28,26.35,260.25,26.35z"/>
						</g>
					</g>
				</g>
			</g>
		</g>
		<g>
			<g>
				<path d="M165.95,43.35c-0.1,0-0.2-0.05-0.26-0.14c-0.09-0.14-0.05-0.34,0.09-0.43l33.18-21.7c0.14-0.09,0.34-0.05,0.43,0.09
					c0.09,0.14,0.05,0.34-0.09,0.43l-33.18,21.7C166.07,43.33,166.01,43.35,165.95,43.35z"/>
				<path d="M163.57,38.14c-0.08,0-0.15-0.03-0.21-0.09c-0.12-0.12-0.13-0.32-0.01-0.44l12.74-13.45c0.12-0.13,0.32-0.13,0.44-0.01
					c0.12,0.12,0.13,0.32,0.01,0.44L163.8,38.04C163.73,38.11,163.65,38.14,163.57,38.14z"/>
			</g>
			<g>
				<path d="M47.15,127c0,0-0.01,0-0.01,0l-2.42-0.08c-0.17-0.01-0.31-0.15-0.3-0.32c0.01-0.17,0.15-0.31,0.32-0.3l2.42,0.08
					c0.17,0.01,0.31,0.15,0.3,0.32C47.45,126.87,47.31,127,47.15,127z"/>
				<path d="M41.52,126.81c0,0-0.01,0-0.01,0l-2.42-0.08c-0.17-0.01-0.31-0.15-0.3-0.32c0.01-0.17,0.16-0.32,0.32-0.3l2.42,0.08
					c0.17,0.01,0.31,0.15,0.3,0.32C41.82,126.68,41.69,126.81,41.52,126.81z"/>
				<path d="M43.18,125.26c0,0-0.01,0-0.01,0c-0.17-0.01-0.31-0.15-0.3-0.32l0.08-2.41c0.01-0.17,0.15-0.31,0.32-0.3
					c0.17,0.01,0.31,0.15,0.3,0.32l-0.08,2.41C43.48,125.13,43.34,125.26,43.18,125.26z"/>
				<path d="M42.99,130.88c0,0-0.01,0-0.01,0c-0.17-0.01-0.31-0.15-0.3-0.32l0.08-2.41c0.01-0.17,0.15-0.32,0.32-0.3
					c0.17,0.01,0.31,0.15,0.3,0.32l-0.08,2.41C43.3,130.75,43.16,130.88,42.99,130.88z"/>
			</g>
			<g>
				<path d="M276.22,13.22c0,0-0.01,0-0.01,0l-2.42-0.08c-0.17-0.01-0.31-0.15-0.3-0.32c0.01-0.17,0.15-0.31,0.32-0.3l2.42,0.08
					c0.17,0.01,0.31,0.15,0.3,0.32C276.53,13.08,276.39,13.22,276.22,13.22z"/>
				<path d="M270.6,13.03c0,0-0.01,0-0.01,0l-2.42-0.08c-0.17-0.01-0.31-0.15-0.3-0.32c0.01-0.17,0.15-0.32,0.32-0.3l2.42,0.08
					c0.17,0.01,0.31,0.15,0.3,0.32C270.9,12.9,270.76,13.03,270.6,13.03z"/>
				<path d="M272.26,11.48c0,0-0.01,0-0.01,0c-0.17-0.01-0.31-0.15-0.3-0.32l0.08-2.41c0.01-0.17,0.16-0.31,0.32-0.3
					c0.17,0.01,0.31,0.15,0.3,0.32l-0.08,2.41C272.56,11.35,272.42,11.48,272.26,11.48z"/>
				<path d="M272.07,17.1c0,0-0.01,0-0.01,0c-0.17-0.01-0.31-0.15-0.3-0.32l0.08-2.41c0.01-0.17,0.16-0.31,0.32-0.3
					c0.17,0.01,0.31,0.15,0.3,0.32l-0.08,2.41C272.38,16.97,272.24,17.1,272.07,17.1z"/>
			</g>
			<g>
				<path d="M52.51,101.19c-0.1,0-0.19-0.04-0.25-0.13c-0.1-0.14-0.07-0.33,0.06-0.44l18.23-13.51c0.14-0.1,0.33-0.07,0.44,0.06
					c0.1,0.14,0.07,0.33-0.06,0.44L52.7,101.13C52.64,101.17,52.58,101.19,52.51,101.19z"/>
				<path d="M70.99,93.89c-0.1,0-0.19-0.04-0.25-0.13c-0.1-0.14-0.07-0.33,0.07-0.44l16.11-11.83c0.14-0.1,0.33-0.07,0.44,0.07
					c0.1,0.14,0.07,0.33-0.07,0.44L71.17,93.83C71.12,93.87,71.05,93.89,70.99,93.89z"/>
				<path d="M54.69,105.86c-0.1,0-0.19-0.04-0.25-0.13c-0.1-0.14-0.07-0.33,0.07-0.44l12.35-9.07c0.14-0.1,0.33-0.07,0.44,0.07
					c0.1,0.14,0.07,0.33-0.07,0.44l-12.35,9.07C54.82,105.84,54.76,105.86,54.69,105.86z"/>
			</g>
			<g>
				<path d="M140.68,96.21c-0.1,0-0.19-0.04-0.25-0.13c-0.1-0.14-0.07-0.33,0.06-0.44l18.23-13.51c0.14-0.1,0.33-0.07,0.44,0.06
					c0.1,0.14,0.07,0.33-0.06,0.44l-18.23,13.51C140.81,96.19,140.75,96.21,140.68,96.21z"/>
				<path d="M142.86,100.88c-0.09,0-0.19-0.04-0.25-0.12c-0.1-0.14-0.08-0.33,0.06-0.44l28.92-21.7c0.14-0.1,0.33-0.08,0.44,0.06
					c0.1,0.14,0.08,0.33-0.06,0.44l-28.92,21.7C142.99,100.86,142.93,100.88,142.86,100.88z"/>
			</g>
		</g>
	</g>
	<g>
		<path d="M52.49,24.15c0-0.63-0.22-1.12-0.67-1.47c-0.44-0.35-1.22-0.71-2.34-1.09c-1.12-0.37-2.03-0.74-2.74-1.09
			c-2.31-1.13-3.46-2.69-3.46-4.67c0-0.99,0.29-1.86,0.86-2.61c0.57-0.75,1.39-1.34,2.44-1.76c1.05-0.42,2.23-0.63,3.54-0.63
			c1.28,0,2.43,0.23,3.44,0.68c1.01,0.46,1.8,1.11,2.37,1.95c0.56,0.84,0.84,1.81,0.84,2.89H52.5c0-0.73-0.22-1.29-0.67-1.69
			c-0.44-0.4-1.04-0.6-1.8-0.6c-0.77,0-1.37,0.17-1.81,0.51c-0.44,0.34-0.67,0.77-0.67,1.29c0,0.46,0.24,0.87,0.73,1.24
			c0.49,0.37,1.35,0.75,2.58,1.15c1.23,0.4,2.24,0.82,3.03,1.28c1.92,1.11,2.88,2.64,2.88,4.58c0,1.56-0.59,2.78-1.76,3.67
			c-1.17,0.89-2.78,1.33-4.83,1.33c-1.44,0-2.75-0.26-3.92-0.78c-1.17-0.52-2.05-1.23-2.64-2.13c-0.59-0.9-0.89-1.94-0.89-3.11h4.3
			c0,0.95,0.25,1.66,0.74,2.11c0.49,0.45,1.29,0.68,2.4,0.68c0.71,0,1.27-0.15,1.68-0.46S52.49,24.7,52.49,24.15z"/>
		<path d="M64.61,11.09l3.97,12.38l3.96-12.38h5.65v17.79h-4.3v-4.16l0.42-8.51L70,28.88h-2.84l-4.31-12.67l0.42,8.52v4.16h-4.29
			V11.09H64.61z"/>
		<path d="M91.02,25.56h-5.88l-1.03,3.32h-4.58l6.53-17.79h4.03l6.58,17.79h-4.61L91.02,25.56z M86.17,22.24H90l-1.92-6.17
			L86.17,22.24z"/>
		<path d="M102.25,25.58h7.47v3.3H97.96V11.09h4.29V25.58z"/>
		<path d="M115.82,25.58h7.47v3.3h-11.76V11.09h4.29V25.58z"/>
		<path d="M55.6,48.45c-0.57,0.63-1.39,1.14-2.48,1.52c-1.09,0.38-2.28,0.58-3.58,0.58c-2,0-3.59-0.61-4.79-1.83
			s-1.83-2.92-1.92-5.1l-0.01-1.32c0-1.5,0.27-2.81,0.8-3.93c0.53-1.12,1.29-1.98,2.28-2.59c0.99-0.6,2.13-0.91,3.43-0.91
			c1.9,0,3.37,0.43,4.43,1.3c1.05,0.87,1.66,2.17,1.84,3.89h-3.54c-0.13-0.85-0.4-1.46-0.82-1.82c-0.42-0.36-1.01-0.54-1.78-0.54
			c-0.92,0-1.63,0.39-2.14,1.17s-0.76,1.9-0.76,3.35v0.92c0,1.52,0.26,2.67,0.78,3.43c0.52,0.76,1.34,1.15,2.46,1.15
			c0.96,0,1.67-0.21,2.14-0.64v-2.37h-2.56v-2.52h6.23V48.45z"/>
		<path d="M63.41,44.94h-1.99v5.4h-3.68V35.08h6c1.81,0,3.22,0.4,4.24,1.2c1.02,0.8,1.53,1.94,1.53,3.4c0,1.06-0.21,1.94-0.64,2.64
			c-0.43,0.7-1.1,1.26-2.02,1.7l3.18,6.16v0.16H66.1L63.41,44.94z M61.42,42.11h2.33c0.7,0,1.22-0.18,1.58-0.55
			c0.35-0.37,0.53-0.88,0.53-1.54s-0.18-1.17-0.53-1.55c-0.36-0.37-0.88-0.56-1.57-0.56h-2.33V42.11z"/>
		<path d="M84.65,43.02c0,1.49-0.28,2.8-0.83,3.95c-0.55,1.15-1.34,2.03-2.35,2.65c-1.02,0.62-2.17,0.93-3.47,0.93
			c-1.3,0-2.45-0.3-3.46-0.9c-1.01-0.6-1.79-1.45-2.35-2.56s-0.86-2.38-0.89-3.82V42.4c0-1.49,0.27-2.81,0.82-3.95
			c0.55-1.14,1.33-2.02,2.36-2.65c1.02-0.62,2.19-0.93,3.49-0.93c1.29,0,2.44,0.31,3.46,0.92c1.01,0.61,1.8,1.49,2.36,2.62
			c0.56,1.14,0.85,2.44,0.85,3.9V43.02z M80.91,42.38c0-1.52-0.25-2.67-0.76-3.45s-1.23-1.18-2.17-1.18c-1.84,0-2.82,1.38-2.92,4.15
			l-0.01,1.12c0,1.49,0.25,2.64,0.74,3.45c0.5,0.8,1.23,1.21,2.21,1.21c0.93,0,1.64-0.39,2.15-1.18c0.5-0.79,0.76-1.92,0.76-3.4
			V42.38z"/>
		<path d="M98.51,35.08v9.98c0,1.13-0.24,2.11-0.72,2.94s-1.17,1.46-2.07,1.89s-1.97,0.65-3.2,0.65c-1.86,0-3.32-0.48-4.39-1.45
			c-1.07-0.96-1.61-2.28-1.63-3.96V35.08h3.7v10.13c0.04,1.67,0.82,2.5,2.33,2.5c0.76,0,1.34-0.21,1.73-0.63s0.59-1.1,0.59-2.04
			v-9.96H98.51z"/>
		<path d="M104.48,45.16v5.18h-3.68V35.08h6.09c1.17,0,2.2,0.21,3.1,0.64c0.9,0.43,1.59,1.04,2.08,1.83
			c0.49,0.79,0.74,1.69,0.74,2.7c0,1.49-0.53,2.68-1.6,3.57s-2.53,1.34-4.38,1.34H104.48z M104.48,42.32h2.41
			c0.71,0,1.26-0.18,1.63-0.53s0.56-0.86,0.56-1.51c0-0.71-0.19-1.28-0.58-1.71c-0.38-0.43-0.91-0.64-1.57-0.65h-2.45V42.32z"/>
		<path d="M122.64,46.28c0-0.54-0.19-0.96-0.57-1.26s-1.05-0.61-2.01-0.93c-0.96-0.32-1.74-0.63-2.35-0.93
			c-1.98-0.97-2.96-2.3-2.96-4c0-0.85,0.25-1.59,0.74-2.24c0.49-0.65,1.19-1.15,2.09-1.51s1.91-0.54,3.04-0.54
			c1.1,0,2.08,0.2,2.95,0.59c0.87,0.39,1.55,0.95,2.03,1.67c0.48,0.72,0.72,1.55,0.72,2.48h-3.67c0-0.62-0.19-1.1-0.57-1.45
			c-0.38-0.34-0.9-0.51-1.55-0.51c-0.66,0-1.18,0.15-1.56,0.44c-0.38,0.29-0.57,0.66-0.57,1.1c0,0.39,0.21,0.75,0.63,1.06
			s1.16,0.65,2.21,0.98s1.92,0.7,2.6,1.09c1.65,0.95,2.47,2.26,2.47,3.93c0,1.33-0.5,2.38-1.51,3.14c-1.01,0.76-2.39,1.14-4.14,1.14
			c-1.24,0-2.36-0.22-3.36-0.67c-1-0.44-1.76-1.05-2.26-1.82c-0.51-0.77-0.76-1.66-0.76-2.67h3.69c0,0.82,0.21,1.42,0.63,1.81
			c0.42,0.39,1.11,0.58,2.06,0.58c0.61,0,1.09-0.13,1.44-0.39C122.46,47.12,122.64,46.76,122.64,46.28z"/>
	</g>
</g>
</svg>
