<?xml version="1.0" encoding="utf-8"?>
<!-- Generator: Adobe Illustrator 26.0.3, SVG Export Plug-In . SVG Version: 6.00 Build 0)  -->
<svg version="1.1" xmlns="http://www.w3.org/2000/svg" xmlns:xlink="http://www.w3.org/1999/xlink" x="0px" y="0px"
	 viewBox="0 0 300 240" style="enable-background:new 0 0 300 240;" xml:space="preserve">
<style type="text/css">
	.st0{fill:#FFFFFF;}
</style>
<g id="Background">
</g>
<g id="Illustration">
	<g id="Online_teaching_1_">
		<g>
			<g>
				<g>
					<path class="st0" d="M227.24,157.71h-41.39c-38.22,0-69.19-30.98-69.19-69.19v-5.2c0-38.22,30.98-69.19,69.19-69.19h41.39
						c38.22,0,69.19,30.98,69.19,69.19v5.2C296.43,126.73,265.45,157.71,227.24,157.71z"/>
					<path d="M296.47,32.08H116.69c-0.15,0-0.26-0.12-0.26-0.26v-9.39c0-4.72,3.84-8.56,8.56-8.56h163.19
						c4.72,0,8.56,3.84,8.56,8.56v9.39C296.74,31.97,296.62,32.08,296.47,32.08z M116.96,31.56h179.25v-9.13
						c0-4.43-3.6-8.03-8.03-8.03H124.99c-4.43,0-8.03,3.6-8.03,8.03V31.56z"/>
					<path d="M276.01,144.66H137.07c-3.93,0-7.12-3.19-7.12-7.12v-86.3c0-3.93,3.19-7.12,7.12-7.12h138.93
						c3.93,0,7.12,3.19,7.12,7.12v86.3C283.13,141.47,279.93,144.66,276.01,144.66z M137.07,44.65c-3.63,0-6.59,2.96-6.59,6.59v86.3
						c0,3.63,2.96,6.59,6.59,6.59h138.93c3.63,0,6.59-2.96,6.59-6.59v-86.3c0-3.63-2.96-6.59-6.59-6.59H137.07z"/>
					<path d="M288.15,157.98h-71.66c-0.15,0-0.26-0.12-0.26-0.26s0.12-0.26,0.26-0.26h71.66c4.42,0,8.01-3.59,8.01-8.01V22.4
						c0-4.42-3.59-8.01-8.01-8.01h-88.02c-0.15,0-0.26-0.12-0.26-0.26c0-0.15,0.12-0.26,0.26-0.26h88.02c4.71,0,8.54,3.83,8.54,8.54
						v127.03C296.69,154.15,292.86,157.98,288.15,157.98z"/>
				</g>
				<g>
					<circle cx="267.51" cy="23.29" r="3.02"/>
					<circle cx="277.38" cy="23.29" r="3.02"/>
					<circle cx="287.26" cy="23.29" r="3.02"/>
				</g>
			</g>
			<g>
				<g>
					<path class="st0" d="M151.13,90.94h-28.79c-24.83,0-44.97-20.13-44.97-44.97v0c0-24.83,20.13-44.97,44.97-44.97h28.79
						c24.83,0,44.97,20.13,44.97,44.97v0C196.09,70.81,175.96,90.94,151.13,90.94z"/>
					<g>
						<path class="st0" d="M150.52,86.56h-27.83c-22.42,0-40.59-18.17-40.59-40.59v0c0-22.42,18.17-40.59,40.59-40.59h27.83
							c22.42,0,40.59,18.17,40.59,40.59v0C191.11,68.39,172.93,86.56,150.52,86.56z"/>
						<path d="M185.56,86.83H87.64c-3.2,0-5.81-2.61-5.81-5.81V10.93c0-3.2,2.61-5.81,5.81-5.81h97.92c3.2,0,5.81,2.61,5.81,5.81
							v70.08C191.37,84.22,188.76,86.83,185.56,86.83z M87.64,5.65c-2.91,0-5.28,2.37-5.28,5.28v70.08c0,2.91,2.37,5.28,5.28,5.28
							h97.92c2.91,0,5.28-2.37,5.28-5.28V10.93c0-2.91-2.37-5.28-5.28-5.28H87.64z"/>
					</g>
					<path d="M116.38,91.2H84.73c-4.2,0-7.62-3.42-7.62-7.62V8.36c0-4.2,3.42-7.62,7.62-7.62h104.01c4.2,0,7.62,3.42,7.62,7.62
						v51.91c0,0.15-0.12,0.26-0.26,0.26c-0.15,0-0.26-0.12-0.26-0.26V8.36c0-3.91-3.18-7.09-7.09-7.09H84.73
						c-3.91,0-7.09,3.18-7.09,7.09v75.22c0,3.91,3.18,7.09,7.09,7.09h31.65c0.15,0,0.26,0.12,0.26,0.26
						C116.65,91.09,116.53,91.2,116.38,91.2z"/>
					<path d="M188.74,91.2h-45.62c-0.15,0-0.26-0.12-0.26-0.26c0-0.15,0.12-0.26,0.26-0.26h45.62c2.13,0,4.12-0.94,5.48-2.59
						c0.09-0.11,0.26-0.13,0.37-0.04c0.11,0.09,0.13,0.26,0.04,0.37C193.17,90.19,191.02,91.2,188.74,91.2z"/>
				</g>
				<g>
					<g>
						<path d="M174.9,16.42h-16.36c-0.77,0-1.39-0.62-1.39-1.39s0.62-1.39,1.39-1.39h16.36c0.77,0,1.39,0.62,1.39,1.39
							C176.29,15.8,175.67,16.42,174.9,16.42z"/>
						<path d="M181.56,22.37h-23.02c-0.77,0-1.39-0.62-1.39-1.39c0-0.77,0.62-1.39,1.39-1.39h23.02c0.77,0,1.39,0.62,1.39,1.39
							C182.95,21.75,182.33,22.37,181.56,22.37z"/>
						<path d="M164.32,28.2h-5.78c-0.77,0-1.39-0.62-1.39-1.39c0-0.77,0.62-1.39,1.39-1.39h5.78c0.77,0,1.39,0.62,1.39,1.39
							C165.71,27.58,165.08,28.2,164.32,28.2z"/>
						<path d="M181.05,28.2h-8.47c-0.77,0-1.39-0.62-1.39-1.39c0-0.77,0.62-1.39,1.39-1.39h8.47c0.77,0,1.39,0.62,1.39,1.39
							C182.44,27.58,181.81,28.2,181.05,28.2z"/>
					</g>
					<g>
						<path d="M145.38,61.76h-26.19c-0.77,0-1.39-0.62-1.39-1.39c0-0.77,0.62-1.39,1.39-1.39h26.19c0.77,0,1.39,0.62,1.39,1.39
							C146.77,61.14,146.15,61.76,145.38,61.76z"/>
						<path d="M137.65,67.59h-18.46c-0.77,0-1.39-0.62-1.39-1.39s0.62-1.39,1.39-1.39h18.46c0.77,0,1.39,0.62,1.39,1.39
							S138.42,67.59,137.65,67.59z"/>
					</g>
				</g>
			</g>
			<g>
				<path d="M276.6,144.35c-0.25-1.32-0.49-2.3-0.71-3.23c-1.61-6.88-3.34-12.48-4.61-16.26l-3.43-12.49l-42.28,7.69
					c0,0-1.37,9.23-4.16,24.29H276.6z"/>
				<g>
					<path d="M231.05,142.77c4.64,0,7.66-5.06,5.58-9.35c-0.48-0.99-0.96-1.98-1.44-2.94c-3.57-7.2-13.77-5.63-15.05,2.36
						c-0.02,0.14-0.31,0.28-0.33,0.42c-0.66,5.05,3.23,9.52,8.15,9.52H231.05z"/>
					<g>
						<g>
							<g>
								<path class="st0" d="M289.13,86.17c0-17.75-3.45-25.94-27.59-32.58c-6.13-1.69-15.17-2.39-23.93-1.41
									c-24.4,0.3-33.72,11.19-42.26,10.92c-9.4-0.3-17.22-12.51-17.22-12.51c-3.11-3.38-6.41-1.67-8.18-0.66
									c-2.12,1.2-3.02,4.02-3.4,6c-0.25,1.28-0.03,2.6,0.6,3.73c3.12,5.58,14.07,23.93,24.21,25.44c8.04,1.2,24.16-3.28,31.5-4.7
									c5.18,18.08-3.04,52.86-3.04,52.86c6.14-4.4,26.7,1.27,39.88,6.28c6.59,2.5,12.51,1.11,16.83-1.36
									c4.32-2.47-3.33-28-3.33-28S289.13,101.64,289.13,86.17z"/>
								<path d="M266.73,141.13c-2.19,0-4.58-0.38-7.12-1.35c-11.76-4.47-33.34-10.83-39.64-6.31c-0.09,0.06-0.21,0.07-0.3,0
									c-0.09-0.06-0.14-0.17-0.11-0.28c0.08-0.35,8.08-34.63,3.11-52.5c-1.56,0.31-3.47,0.74-5.67,1.23
									c-8.17,1.84-19.36,4.36-25.69,3.42c-10.24-1.53-21.27-19.96-24.4-25.57c-0.66-1.19-0.88-2.57-0.63-3.9
									c0.41-2.14,1.36-4.94,3.53-6.18c1.54-0.88,5.15-2.93,8.51,0.71c0.01,0.01,0.02,0.02,0.03,0.04c0.08,0.12,7.85,12.1,17,12.38
									c3.21,0.1,6.58-1.42,10.84-3.35c6.88-3.11,16.3-7.38,31.41-7.56c8.24-0.93,17.45-0.39,24.01,1.42
									c11.97,3.29,19.06,7.06,22.99,12.22c3.98,5.23,4.8,12.02,4.8,20.62c0,8.08-4.37,14.24-8.04,17.99
									c-3.48,3.55-7,5.66-7.84,6.14c0.34,1.14,2.01,6.93,3.23,12.89c1.85,9.01,1.82,14.12-0.08,15.21
									C274.21,139.8,270.81,141.13,266.73,141.13z M226.85,131.42c9.42,0,24.01,4.47,32.95,7.87c7.07,2.69,12.93,0.75,16.6-1.35
									c3.39-1.94-1.34-20.65-3.45-27.7c-0.04-0.12,0.02-0.25,0.13-0.31c0.16-0.08,15.8-8.63,15.8-23.76
									c0-16.85-2.7-25.54-27.4-32.32c-6.5-1.79-15.63-2.32-23.83-1.4c-15.03,0.19-24.39,4.42-31.22,7.52
									c-4.33,1.96-7.74,3.5-11.07,3.4c-9.34-0.29-16.94-11.88-17.42-12.61c-2.7-2.92-5.48-1.94-7.84-0.6
									c-2,1.14-2.88,3.79-3.27,5.82c-0.23,1.21-0.03,2.47,0.57,3.55c3.1,5.56,14.01,23.82,24.02,25.31
									c6.23,0.93,17.37-1.58,25.5-3.41c2.31-0.52,4.31-0.97,5.92-1.28c0.13-0.03,0.27,0.05,0.3,0.19
									c4.76,16.61-1.83,47.59-2.9,52.37C221.81,131.8,224.11,131.42,226.85,131.42z"/>
							</g>
							<path d="M173.06,62.07c-2.72,0-4.48-3.01-4.56-3.14c-0.07-0.13-0.03-0.29,0.1-0.36c0.13-0.07,0.29-0.03,0.36,0.1
								c0.02,0.03,1.71,2.91,4.15,2.87c1.87-0.03,3.72-1.72,5.5-5.04c0.07-0.13,0.23-0.18,0.36-0.11c0.13,0.07,0.18,0.23,0.11,0.36
								c-1.88,3.5-3.88,5.29-5.96,5.32C173.1,62.07,173.08,62.07,173.06,62.07z"/>
						</g>
						<path d="M251.27,102.49c-0.1,0-0.2-0.06-0.24-0.15c-0.06-0.13,0-0.29,0.13-0.35c8.97-4.15,13.31-10.24,15.37-14.62
							c2.23-4.74,2.35-8.53,2.35-8.57c0-0.15,0.13-0.25,0.27-0.26c0.15,0,0.26,0.12,0.26,0.27c0,0.16-0.12,3.94-2.4,8.78
							c-2.1,4.46-6.52,10.66-15.63,14.87C251.34,102.48,251.3,102.49,251.27,102.49z"/>
						<path d="M255.23,114.94c-0.14,0-0.26-0.12-0.26-0.26c0-0.15,0.12-0.27,0.26-0.27c10.97-0.13,18.23-4.21,18.3-4.25
							c0.13-0.07,0.29-0.03,0.36,0.1c0.07,0.13,0.03,0.29-0.1,0.36C273.71,110.65,266.35,114.8,255.23,114.94
							C255.23,114.94,255.23,114.94,255.23,114.94z"/>
					</g>
					<g>
						<path class="st0" d="M245.06,113.97c0,0,2.25,0.24,6.7-0.87c3.37-0.84,2.37-11.77-1.72-8.81c-3.42,2.47-5.42,2.79-5.42,2.79
							l-3.3-1.64c-1.29-0.64-2.68-1.07-4.11-1.24c-5.68-0.67-5.34,0.64-5.34,0.64c-0.24,1.33,0.23,1.53,1.27,1.97l4.44,1.87
							c0.62,0.26,0.76,1.1,0.26,1.56c-0.77,0.71-1.66,1.28-2.63,1.66c-1.75,0.69-4.81,1.8-7.95,2.52c-1.48,0.33-1.95,2.17-0.58,2.85
							l9.81,0.72c2.49,0.18,4.94-0.68,6.8-2.39L245.06,113.97z"/>
						<path d="M237.15,118.27c-0.22,0-0.44-0.01-0.66-0.02l-9.81-0.72c-0.03,0-0.07-0.01-0.1-0.03c-0.68-0.34-1.03-0.96-0.94-1.67
							c0.1-0.81,0.74-1.48,1.59-1.67c3.04-0.69,5.98-1.74,7.91-2.5c0.94-0.37,1.79-0.91,2.55-1.6c0,0,0.01,0,0.01-0.01
							c0.16-0.16,0.24-0.39,0.2-0.62c-0.04-0.23-0.18-0.41-0.39-0.5l-4.44-1.87c-1.02-0.43-1.7-0.72-1.44-2.22
							c-0.01-0.1,0.01-0.28,0.17-0.46c0.57-0.65,2.4-0.79,5.46-0.43c1.45,0.17,2.86,0.59,4.2,1.26l3.21,1.6
							c0.4-0.09,2.28-0.6,5.23-2.73c1.09-0.79,1.9-0.6,2.4-0.3c1.48,0.91,2.02,3.97,1.67,6.29c-0.28,1.82-1.05,3.01-2.12,3.28
							c-3.93,0.98-6.14,0.92-6.67,0.89l-1.67,1.54C241.74,117.38,239.46,118.27,237.15,118.27z M226.76,117l9.76,0.72
							c2.4,0.17,4.81-0.67,6.6-2.32l1.75-1.61c0.06-0.05,0.13-0.08,0.21-0.07c0.02,0,2.27,0.22,6.61-0.87
							c0.85-0.21,1.48-1.25,1.73-2.85c0.33-2.16-0.16-4.99-1.42-5.76c-0.51-0.32-1.12-0.22-1.81,0.27
							c-3.43,2.48-5.45,2.83-5.53,2.84c-0.05,0.01-0.11,0-0.16-0.02l-3.3-1.64c-1.28-0.64-2.64-1.05-4.02-1.21
							c-3.76-0.44-4.72,0.01-4.97,0.22c-0.08,0.07-0.08,0.12-0.08,0.12c0.01,0.04,0.01,0.05,0,0.09c-0.21,1.12,0.07,1.24,1.12,1.67
							l4.44,1.87c0.37,0.16,0.63,0.49,0.7,0.89c0.07,0.41-0.06,0.82-0.37,1.1c0,0-0.01,0.01-0.01,0.01c-0.8,0.74-1.71,1.31-2.7,1.7
							c-1.95,0.77-4.92,1.83-7.99,2.53c-0.73,0.17-1.12,0.73-1.18,1.22C226.1,116.35,226.32,116.76,226.76,117z"/>
					</g>
					<g>
						<g>
							<path class="st0" d="M150.92,33.79c0.22-0.65,0.86-1.03,1.5-0.89c1.8,0.4,11.08,2.44,12.81,2.83s1.8,2.32,2.78,4.08
								c0.86,1.53,3.81,7.15,7.02,11.07c0.97,1.18,1.1,2.87,0.35,4.21c-0.43,0.77-0.98,1.52-1.63,1.97
								c-1.68,1.15-2.94,2.51-6.3-5.54c-0.21-0.49-0.55-0.91-1-1.21c-0.63-0.41-1.61-1.16-2.58-2.3c0,0-5.64,6.89-7.08-7.1
								c-0.13-1.24,0.43-2.45,1.47-3.07c0.08-0.05,0.17-0.1,0.26-0.15l-6.76-2.17C151.07,35.31,150.68,34.52,150.92,33.79z"/>
							<path d="M171.94,58.2c-0.14,0-0.29-0.02-0.45-0.06c-1.25-0.36-2.53-2.31-4.29-6.52c-0.19-0.45-0.5-0.82-0.9-1.09
								c-0.62-0.41-1.53-1.1-2.43-2.12c-0.54,0.57-2.04,1.94-3.64,1.46c-1.9-0.57-3.15-3.58-3.7-8.93c-0.13-1.26,0.4-2.48,1.36-3.16
								l-6.2-1.99c-0.4-0.13-0.73-0.41-0.93-0.8c-0.2-0.4-0.24-0.86-0.1-1.29c0.26-0.78,1.04-1.24,1.81-1.06
								c0.11,0.02,10.91,2.4,12.81,2.83c1.34,0.31,1.79,1.44,2.26,2.65c0.2,0.51,0.41,1.05,0.7,1.57c0.09,0.17,0.21,0.39,0.35,0.64
								c1.13,2.07,3.79,6.92,6.64,10.39c1.03,1.26,1.18,3.07,0.38,4.51c-0.54,0.96-1.11,1.65-1.72,2.06l-0.22,0.15
								C173.14,57.81,172.58,58.2,171.94,58.2z M163.88,47.75c0.08,0,0.15,0.03,0.2,0.09c0.93,1.11,1.88,1.84,2.52,2.25
								c0.49,0.32,0.87,0.78,1.09,1.33c1.64,3.93,2.9,5.91,3.95,6.21c0.59,0.17,1.12-0.2,1.74-0.63l0.22-0.16
								c0.53-0.36,1.06-1,1.55-1.88c0.7-1.25,0.57-2.82-0.32-3.91c-2.88-3.51-5.55-8.38-6.69-10.47c-0.14-0.26-0.26-0.47-0.35-0.64
								c-0.31-0.55-0.52-1.1-0.73-1.63c-0.45-1.16-0.81-2.08-1.88-2.32c-1.9-0.43-12.7-2.81-12.8-2.83
								c-0.51-0.11-1.03,0.19-1.2,0.71c-0.1,0.29-0.07,0.61,0.07,0.88c0.13,0.26,0.35,0.45,0.62,0.53l6.76,2.17
								c0.1,0.03,0.17,0.12,0.18,0.23c0.01,0.11-0.05,0.21-0.14,0.26c-0.09,0.05-0.17,0.09-0.25,0.14
								c-0.94,0.55-1.46,1.65-1.34,2.81c0.66,6.38,2.17,8.13,3.33,8.48c1.61,0.49,3.27-1.5,3.29-1.52
								C163.72,47.78,163.8,47.75,163.88,47.75C163.88,47.75,163.88,47.75,163.88,47.75z M150.92,33.79L150.92,33.79L150.92,33.79z"
								/>
						</g>
						<path d="M165.17,45.12c-0.05,0-0.09-0.01-0.13-0.04c-0.44-0.26-1.26-0.84-1.6-1.08c-1.83-1.31-2.85-2.61-3.3-3.27
							c-0.31-0.46-0.47-0.98-0.45-1.49c0.03-0.97,0.64-1.19,0.94-1.29c1.09-0.38,2.83,0.67,3.02,0.79c0.12,0.08,0.16,0.24,0.09,0.36
							c-0.08,0.12-0.24,0.16-0.36,0.09c-0.47-0.29-1.85-0.99-2.57-0.74c-0.28,0.1-0.57,0.2-0.59,0.81
							c-0.01,0.41,0.12,0.82,0.36,1.18c0.43,0.63,1.4,1.88,3.16,3.14c0.33,0.24,1.14,0.81,1.56,1.06c0.13,0.07,0.17,0.24,0.1,0.36
							C165.35,45.07,165.26,45.12,165.17,45.12z"/>
						<path d="M163.95,48.35c-0.07,0-0.14-0.03-0.19-0.08c-1.49-1.59-1.41-3.28-1.4-3.35c0.01-0.15,0.14-0.25,0.28-0.25
							c0.15,0.01,0.26,0.13,0.25,0.28c0,0.02-0.07,1.54,1.26,2.95c0.1,0.11,0.09,0.27-0.01,0.37
							C164.08,48.33,164.02,48.35,163.95,48.35z"/>
					</g>
				</g>
				<g>
					<g>
						<g>
							<path class="st0" d="M252.77,53.17l-0.61-16.54l-11.6,6.09l0.13,10.45c0.08,2.33,2,3.63,2,3.63c2.37,1.8,5.69,1.48,8.11-0.26
								l0.56-0.4C252.29,55.47,252.82,54.35,252.77,53.17z"/>
							<path d="M246.39,58.29c-1.4,0-2.75-0.42-3.87-1.27c-0.07-0.05-2.01-1.4-2.1-3.83l-0.13-10.46c0-0.1,0.05-0.19,0.14-0.24
								l11.6-6.09c0.08-0.04,0.18-0.04,0.26,0.01c0.08,0.05,0.13,0.13,0.13,0.22l0.61,16.54c0.06,1.27-0.51,2.47-1.53,3.2l-0.56,0.4
								C249.53,57.78,247.93,58.29,246.39,58.29z M240.82,42.88l0.13,10.29c0.08,2.16,1.86,3.4,1.88,3.42
								c2.17,1.65,5.3,1.54,7.81-0.26l0.56-0.4c0.87-0.63,1.36-1.65,1.31-2.75c0,0,0,0,0,0l-0.6-16.12L240.82,42.88z"/>
						</g>
						<path d="M235.29,17.69c3.1-0.18-0.8,3.09,10.66-0.35c4.56-1.37,2.25,4.11,3.44,3.75c4.37-1.3,4.22-1.26,6.36-0.68
							c1.41,0.38,2.33,3.06,2.07,5.06c-0.35,2.64-2.47,3.33-4.35,8.91c-1.32,3.92-0.99,6.31-2.52,6.88
							c-1.55,0.58-2.69-1.55-4.42-1.05c-2.24,0.65-1.8,4.65-3.99,6.3c-1.38,1.05-4.58,1.53-9.72-1.04
							c-0.83-0.42-1.26-1.39-1.01-2.31c0.32-1.18,0.72-2.67,1.23-4.06c2.4-6.63,4.69-8.13,3.86-9.84c-1.27-2.63-6.11-1.12-6.91-3.28
							C229.14,23.74,231.05,17.94,235.29,17.69z"/>
						<g>
							<path class="st0" d="M246.1,29.1l-0.89,1.7c-0.42,0.8-0.78,1.63-1.09,2.48c-0.57,1.6-1.67,4.31-2.26,5.84
								c-1.92,4.92-7.8-0.48-7.8-0.48l-0.41-1.35l-0.79-0.33c-0.15-0.06-0.29-0.16-0.4-0.3c-0.25-0.34-0.25-0.78-0.04-1.11
								c1.18-1.8,3.65-5.83,4.53-9.45C236.97,26.1,242.01,24.76,246.1,29.1z"/>
							<path d="M239.21,41.45c-2.43,0-5.19-2.5-5.31-2.62c-0.03-0.03-0.06-0.07-0.07-0.12l-0.37-1.23l-0.68-0.28
								c-0.21-0.09-0.38-0.22-0.5-0.38c-0.31-0.41-0.33-0.98-0.05-1.41c1.06-1.6,3.61-5.73,4.49-9.36c0.02-0.09,0.1-0.17,0.19-0.19
								c0.05-0.01,5.25-1.33,9.39,3.07c0.08,0.08,0.09,0.2,0.04,0.3l-0.89,1.7c-0.41,0.79-0.77,1.61-1.07,2.45
								c-0.42,1.16-1.12,2.94-1.68,4.36c-0.22,0.55-0.42,1.06-0.58,1.48c-0.47,1.2-1.21,1.93-2.2,2.16
								C239.68,41.43,239.45,41.45,239.21,41.45z M234.3,38.49c0.43,0.38,3.36,2.87,5.49,2.37c0.81-0.19,1.42-0.81,1.82-1.83
								c0.16-0.42,0.37-0.93,0.58-1.49c0.56-1.42,1.26-3.19,1.67-4.35c0.31-0.86,0.68-1.71,1.1-2.52l0.8-1.53
								c-3.52-3.61-7.75-2.99-8.6-2.82c-0.91,3.54-3.22,7.38-4.53,9.37c-0.16,0.25-0.15,0.57,0.03,0.81
								c0.07,0.09,0.16,0.16,0.29,0.21l0.79,0.33c0.07,0.03,0.13,0.09,0.15,0.17L234.3,38.49z"/>
						</g>
						<path class="st0" d="M244.85,35.04c0,0,2.13-4.1,3.72-2.7C250.17,33.73,247.72,38.18,244.85,35.04z"/>
					</g>
					<g>
						<path d="M236.98,35.74c-0.45,0-0.83-0.14-1.12-0.43c-0.55-0.53-0.79-1.55-0.71-3.02c0.06-1.13,0.38-1.81,0.97-2.07
							c0.43-0.19,0.89-0.21,1.29-0.04c0.33,0.14,0.59,0.39,0.7,0.68c0.71,1.87,0.41,3.41-0.1,4.23c-0.24,0.39-0.53,0.61-0.82,0.64
							C237.11,35.73,237.05,35.74,236.98,35.74z M236.82,30.59c-0.16,0-0.33,0.04-0.49,0.11c0,0,0,0,0,0
							c-0.39,0.17-0.6,0.7-0.66,1.61c-0.07,1.29,0.12,2.2,0.55,2.61c0.23,0.22,0.53,0.31,0.91,0.28c0.09-0.01,0.26-0.13,0.42-0.39
							c0.42-0.68,0.69-2.07,0.05-3.76c-0.06-0.16-0.21-0.3-0.41-0.38C237.08,30.61,236.96,30.59,236.82,30.59z M236.22,30.46
							L236.22,30.46L236.22,30.46z"/>
						<path d="M246.77,31.85c-0.01,0-0.02,0-0.03,0l-9.68-1.26c-0.14-0.02-0.25-0.15-0.23-0.3c0.02-0.14,0.15-0.25,0.3-0.23
							l9.68,1.26c0.14,0.02,0.25,0.15,0.23,0.3C247.01,31.76,246.9,31.85,246.77,31.85z"/>
						<path d="M232.75,34.7c-0.04,0-0.08-0.01-0.12-0.03c-0.28-0.13-0.48-0.65-0.57-0.95c-0.29-0.94-0.39-2.32,0.21-3.39
							c0.2-0.36,0.49-0.58,0.86-0.65c0.92-0.17,1.99,0.69,2.03,0.72c0.11,0.09,0.13,0.26,0.04,0.37c-0.09,0.11-0.26,0.13-0.37,0.04
							c-0.26-0.21-1.04-0.72-1.6-0.62c-0.21,0.04-0.38,0.17-0.5,0.39c-0.81,1.44-0.11,3.42,0.14,3.61c0.13,0.06,0.18,0.22,0.12,0.35
							C232.94,34.65,232.85,34.7,232.75,34.7z"/>
					</g>
				</g>
			</g>
			<g>
				<g>
					<circle class="st0" cx="182.58" cy="131.94" r="7.33"/>
					<path d="M182.58,139.53c-4.19,0-7.59-3.41-7.59-7.59c0-4.19,3.41-7.59,7.59-7.59s7.59,3.41,7.59,7.59
						C190.17,136.13,186.76,139.53,182.58,139.53z M182.58,124.88c-3.9,0-7.07,3.17-7.07,7.07c0,3.9,3.17,7.07,7.07,7.07
						c3.9,0,7.07-3.17,7.07-7.07C189.64,128.05,186.47,124.88,182.58,124.88z"/>
				</g>
				<g>
					<g>
						<circle class="st0" cx="206.54" cy="131.94" r="7.33"/>
						<path d="M206.54,139.53c-4.19,0-7.59-3.41-7.59-7.59c0-4.19,3.41-7.59,7.59-7.59s7.59,3.41,7.59,7.59
							C214.13,136.13,210.73,139.53,206.54,139.53z M206.54,124.88c-3.9,0-7.07,3.17-7.07,7.07c0,3.9,3.17,7.07,7.07,7.07
							c3.9,0,7.07-3.17,7.07-7.07C213.61,128.05,210.44,124.88,206.54,124.88z"/>
					</g>
					<path d="M204.11,134.78v-5.67c0-0.29,0.3-0.48,0.56-0.35l5.67,2.8c0.29,0.14,0.29,0.55,0,0.7l-5.67,2.87
						C204.41,135.26,204.11,135.07,204.11,134.78z"/>
				</g>
				<g>
					<g>
						<circle class="st0" cx="230.5" cy="131.94" r="7.33"/>
						<path d="M230.5,139.53c-4.19,0-7.59-3.41-7.59-7.59c0-4.19,3.41-7.59,7.59-7.59s7.59,3.41,7.59,7.59
							C238.1,136.13,234.69,139.53,230.5,139.53z M230.5,124.88c-3.9,0-7.07,3.17-7.07,7.07c0,3.9,3.17,7.07,7.07,7.07
							c3.9,0,7.07-3.17,7.07-7.07C237.57,128.05,234.4,124.88,230.5,124.88z"/>
					</g>
					<g>
						<path d="M232.91,134.6c-0.07,0-0.14-0.03-0.19-0.08l-4.89-4.89c-0.1-0.1-0.1-0.27,0-0.37c0.1-0.1,0.27-0.1,0.37,0l4.89,4.89
							c0.1,0.1,0.1,0.27,0,0.37C233.04,134.58,232.98,134.6,232.91,134.6z"/>
						<path d="M228.02,134.6c-0.07,0-0.14-0.03-0.19-0.08c-0.1-0.1-0.1-0.27,0-0.37l4.89-4.89c0.1-0.1,0.27-0.1,0.37,0
							c0.1,0.1,0.1,0.27,0,0.37l-4.89,4.89C228.15,134.58,228.09,134.6,228.02,134.6z"/>
					</g>
				</g>
			</g>
		</g>
		<g>
			<g>
				<g>
					<path class="st0" d="M18.86,114.91c-12.92,2.77-19.18,26.65-19.46,42.1c-0.46,26.3,16,51.51,38.71,63.62
						c30.18,16.1,75.18,11.09,90-15.06c8.84-15.61,7.63-39.96-4.67-49.74c-12.33-9.81-24.99,3.63-48.57-2.39
						C42.3,145.13,35.02,111.45,18.86,114.91z"/>
					<path d="M76.47,230.13c-13.59,0-27.13-3.2-38.48-9.25c-23.69-12.63-39.3-38.3-38.85-63.86c0.15-8.57,2.02-18.25,5-25.9
						c2.58-6.63,7.22-14.86,14.66-16.46c7.67-1.65,13.33,4.85,20.48,13.07c8.16,9.37,18.31,21.03,35.65,25.46
						c11.27,2.88,19.88,1.31,27.48-0.07c8.21-1.49,14.69-2.66,21.19,2.51c5.8,4.61,9.58,12.95,10.36,22.87
						c0.76,9.63-1.29,19.55-5.63,27.21c-3.6,6.35-9.04,11.65-16.17,15.75c-6.6,3.79-14.64,6.47-23.26,7.76
						C84.8,229.82,80.63,230.13,76.47,230.13z M18.91,115.17c-7.21,1.55-11.74,9.63-14.28,16.13c-2.96,7.59-4.82,17.21-4.97,25.72
						c-0.45,25.37,15.05,50.84,38.57,63.38c14.73,7.86,33.17,10.87,50.6,8.29c17.96-2.67,32.19-11.14,39.05-23.24
						c4.29-7.57,6.32-17.38,5.56-26.9c-0.78-9.78-4.48-17.98-10.17-22.5c-6.31-5.02-12.69-3.86-20.76-2.4
						c-7.65,1.39-16.32,2.96-27.71,0.06c-17.5-4.47-27.71-16.2-35.92-25.62C31.84,119.98,26.28,113.59,18.91,115.17z"/>
				</g>
				<path d="M25.37,193.79c-0.03,0-0.07-0.01-0.1-0.02c-0.13-0.06-0.2-0.21-0.14-0.35c3.05-7.36,13.21-8.78,13.31-8.8
					c0.14-0.02,0.28,0.08,0.3,0.23c0.02,0.14-0.08,0.28-0.23,0.3c-0.1,0.01-9.96,1.4-12.89,8.47
					C25.57,193.73,25.47,193.79,25.37,193.79z"/>
				<path d="M39.21,198.32c-0.13,0-0.25-0.1-0.26-0.24c-0.75-7.1,3.43-11.79,3.47-11.84c0.1-0.11,0.26-0.12,0.37-0.02
					c0.11,0.1,0.12,0.27,0.02,0.37c-0.04,0.04-4.07,4.57-3.34,11.43c0.02,0.15-0.09,0.28-0.23,0.29
					C39.23,198.32,39.22,198.32,39.21,198.32z"/>
			</g>
			<g>
				<g>
					<g>
						<g>
							<path class="st0" d="M125.58,204.72c0.09,0.25,9.78,10.07,9.78,10.07l-5.96,2.73l-7.84-8.55L125.58,204.72z"/>
							<path d="M129.41,217.78c-0.07,0-0.14-0.03-0.19-0.09l-7.84-8.55c-0.09-0.1-0.09-0.26,0-0.36l4.01-4.25
								c0.06-0.07,0.16-0.09,0.25-0.08c0.08,0.02,0.14,0.06,0.18,0.13c0.31,0.42,5.98,6.2,9.74,10.01c0.06,0.06,0.09,0.15,0.07,0.23
								c-0.02,0.08-0.07,0.16-0.15,0.19l-5.96,2.73C129.48,217.77,129.44,217.78,129.41,217.78z M121.93,208.97l7.54,8.23l5.44-2.49
								c-5.34-5.42-8.47-8.63-9.33-9.6L121.93,208.97z"/>
						</g>
						<g>
							<g>
								<path class="st0" d="M129.08,213.32c0.21-0.53,0.58-1.14,1.26-1.56c1.02-0.62,2.33-0.5,3.29,0.21
									c2.4,1.79,8.92,6.85,12.73,11.84c1.34,1.76,0.75,4.13-2.22,4.13c-4.87,0-12.65-1.87-19.22-7.36
									c-0.75-0.63-1.14-1.6-1.02-2.57c0.1-0.8,0.29-1.79,0.63-2.74c0.32-0.9,1.26-1.43,2.2-1.26l0.85,0.15
									C128.21,214.28,128.84,213.92,129.08,213.32z"/>
								<path d="M144.13,228.21c-5.08,0-12.84-1.95-19.39-7.42c-0.83-0.7-1.25-1.75-1.11-2.81c0.14-1.04,0.35-1.98,0.64-2.79
									c0.36-1.03,1.42-1.63,2.5-1.44l0.85,0.15c0.51,0.09,1.02-0.19,1.21-0.68c0.28-0.73,0.76-1.31,1.37-1.69
									c1.08-0.66,2.52-0.57,3.59,0.23c2.58,1.92,8.99,6.92,12.78,11.89c0.76,0.99,0.94,2.18,0.49,3.09
									C146.59,227.69,145.55,228.21,144.13,228.21C144.13,228.21,144.13,228.21,144.13,228.21z M126.36,214.24
									c-0.71,0-1.35,0.44-1.59,1.12c-0.28,0.78-0.48,1.68-0.61,2.69c-0.12,0.88,0.23,1.76,0.92,2.34
									c6.44,5.38,14.06,7.3,19.05,7.3c0,0,0,0,0.01,0c1.21,0,2.08-0.41,2.45-1.17c0.36-0.74,0.2-1.71-0.44-2.54
									c-3.75-4.91-10.11-9.88-12.67-11.79c-0.9-0.67-2.1-0.75-3-0.2c-0.52,0.32-0.9,0.8-1.15,1.43c-0.28,0.72-1.04,1.14-1.79,1.01
									l-0.85-0.15C126.57,214.25,126.47,214.24,126.36,214.24z M129.08,213.32L129.08,213.32L129.08,213.32z"/>
							</g>
							<path d="M142.43,225.9c-2.89,0-8.07-1.14-16.22-6.65c-0.12-0.08-0.15-0.25-0.07-0.37c0.08-0.12,0.25-0.15,0.37-0.07
								c13.35,9.02,18.55,6.1,18.6,6.07c0.13-0.08,0.29-0.03,0.36,0.09c0.08,0.13,0.03,0.29-0.09,0.36
								C145.29,225.38,144.37,225.9,142.43,225.9z"/>
							<path d="M137.42,220.7c-0.06,0-0.12-0.02-0.17-0.06c-0.11-0.09-0.13-0.26-0.03-0.37l2.32-2.79c0.09-0.11,0.26-0.13,0.37-0.03
								c0.11,0.09,0.13,0.26,0.03,0.37l-2.32,2.79C137.57,220.67,137.5,220.7,137.42,220.7z"/>
							<path d="M135.14,219.03c-0.06,0-0.13-0.02-0.18-0.07c-0.11-0.1-0.12-0.26-0.02-0.37l2.56-2.88c0.1-0.11,0.26-0.12,0.37-0.02
								c0.11,0.1,0.12,0.26,0.02,0.37l-2.56,2.88C135.29,219,135.22,219.03,135.14,219.03z"/>
						</g>
					</g>
					<g>
						<g>
							<polygon class="st0" points="106.84,211.27 104.7,223.74 99.9,220.48 101.39,208.53 							"/>
							<path d="M104.7,224c-0.05,0-0.1-0.02-0.15-0.05l-4.8-3.26c-0.08-0.06-0.13-0.15-0.11-0.25l1.49-11.95
								c0.01-0.09,0.06-0.16,0.14-0.2c0.08-0.04,0.17-0.04,0.24,0l5.45,2.74c0.1,0.05,0.16,0.17,0.14,0.28l-2.13,12.47
								c-0.02,0.09-0.07,0.16-0.16,0.2C104.77,224,104.74,224,104.7,224z M100.19,220.35l4.33,2.94l2.03-11.87l-4.94-2.49
								L100.19,220.35z"/>
						</g>
						<g>
							<g>
								<path class="st0" d="M106.17,221.42c-0.07,3.85-0.33,11.59-2.93,17.21c-0.7,1.51-3.74,1.56-4.95-0.37
									c-2.52-4.04-5.84-10.96-4.58-19.6c0.1-0.68,0.51-1.26,1.12-1.58c0.71-0.38,1.83-0.86,3.45-1.25
									c0.8-0.19,1.61,0.34,1.75,1.15l0.53,2.99l0.36-0.52c0.54-0.78,1.54-1.1,2.43-0.77c0.48,0.18,1.01,0.38,1.49,0.56
									C105.71,219.57,106.19,220.46,106.17,221.42z"/>
								<path d="M101.09,240c-1.24,0-2.41-0.61-3.03-1.61c-4.04-6.47-5.59-13.12-4.62-19.78c0.11-0.76,0.58-1.42,1.25-1.78
									c0.67-0.36,1.83-0.87,3.51-1.27c0.46-0.11,0.93-0.03,1.33,0.23c0.39,0.26,0.66,0.67,0.74,1.13l0.42,2.36
									c0.61-0.88,1.73-1.23,2.73-0.85l1.49,0.56c0.95,0.36,1.54,1.31,1.52,2.43c0,0,0,0,0,0c-0.06,3.12-0.22,11.39-2.96,17.31
									c-0.33,0.72-1.14,1.19-2.15,1.25C101.25,240,101.17,240,101.09,240z M98.61,216.05c-0.09,0-0.18,0.01-0.27,0.03
									c-1.63,0.39-2.74,0.88-3.38,1.22c-0.53,0.28-0.89,0.8-0.98,1.39c-0.95,6.53,0.57,13.07,4.54,19.42
									c0.68,1.08,1.92,1.41,2.78,1.35c0.82-0.05,1.46-0.41,1.71-0.95c2.69-5.82,2.85-14.02,2.91-17.1
									c0.02-0.91-0.43-1.65-1.18-1.93l-1.49-0.56c-0.78-0.29-1.65-0.02-2.12,0.67l-0.36,0.52c-0.06,0.09-0.17,0.13-0.27,0.11
									c-0.1-0.02-0.19-0.11-0.2-0.21l-0.53-2.99c-0.06-0.32-0.24-0.6-0.51-0.78C99.05,216.11,98.83,216.05,98.61,216.05z
									 M106.17,221.42L106.17,221.42L106.17,221.42z"/>
							</g>
							<path d="M100.64,237.62c-0.08,0-0.16-0.04-0.22-0.11c-5.79-8.09-5.08-18.11-5.07-18.21c0.01-0.15,0.14-0.25,0.28-0.24
								c0.15,0.01,0.25,0.14,0.24,0.28c-0.01,0.1-0.7,9.94,4.98,17.86c0.09,0.12,0.06,0.28-0.06,0.37
								C100.74,237.61,100.69,237.62,100.64,237.62z"/>
							<path d="M105.51,226.99c-0.02,0-0.04,0-0.06-0.01l-3.64-0.84c-0.14-0.03-0.23-0.17-0.2-0.32c0.03-0.14,0.17-0.23,0.32-0.2
								l3.64,0.84c0.14,0.03,0.23,0.17,0.2,0.32C105.74,226.9,105.63,226.99,105.51,226.99z"/>
							<path d="M104.99,230.14c-0.03,0-0.05,0-0.08-0.01l-3.46-1.09c-0.14-0.04-0.22-0.19-0.17-0.33c0.04-0.14,0.19-0.22,0.33-0.17
								l3.46,1.09c0.14,0.04,0.22,0.19,0.17,0.33C105.21,230.07,105.11,230.14,104.99,230.14z"/>
						</g>
					</g>
					<g>
						<path d="M72.52,156.72c0,0,17.05-2.97,32.99,4.93c4.02,1.99,6.63,6.01,6.85,10.49c0.43,8.89,0.38,25.19-4.3,39.6
							c-0.27,0.82-1.17,1.25-1.97,0.94l-7.13-2.7c-0.48-0.18-0.83-0.59-0.94-1.09c-0.69-3.23-3.09-15.53-1.85-24.61
							c1.44-10.54-32.78-19.77-32.78-19.77L72.52,156.72z"/>
						<path d="M127.58,206.79l-5.98,4.41c-0.4,0.29-0.95,0.26-1.31-0.09c-4.04-3.98-26.87-26.3-32.44-29.09
							c-6.12-3.06-17.48-7.54-27.55-6.93c-10.07,0.61-12.57-6.27-12.57-6.27l13.85-10.06c0,0,25,1.46,35.96,9.43
							c9.9,7.2,27.04,32.4,30.27,37.22C128.12,205.86,128.01,206.47,127.58,206.79z"/>
						<path class="st0" d="M112.9,184.36c-0.08,0-0.15-0.03-0.21-0.1c-4.51-5.61-11.47-13.08-15.3-15.86
							c-2.22-1.61-5.21-3.08-8.87-4.36c-0.14-0.05-0.21-0.2-0.16-0.34c0.05-0.14,0.2-0.21,0.34-0.16c3.72,1.3,6.75,2.79,9.01,4.43
							c3.87,2.81,10.87,10.32,15.4,15.96c0.09,0.11,0.07,0.28-0.04,0.37C113.02,184.34,112.96,184.36,112.9,184.36z"/>
					</g>
				</g>
				<g>
					<g>
						<path class="st0" d="M60.85,137.04l1.57,3.91c1.86,4.66,4.95,8.72,8.94,11.76l1.62,1.23c1.04,0.79,2.3,1.21,3.61,1.21l0.2,0
							c1.99-0.01,3.92,0.71,5.41,2.02l-4.55,1.11c-2.77,0.68-5.71,0.26-8.16-1.21c-2.34-1.41-5.18-3.65-7.42-7.06
							c-4.71-7.14-5.62-11.4-5.62-11.4L60.85,137.04z"/>
						<path d="M75,158.86c-1.99,0-3.93-0.53-5.66-1.57c-3.08-1.85-5.6-4.25-7.51-7.14c-4.69-7.1-5.62-11.31-5.65-11.49
							c-0.03-0.13,0.04-0.26,0.17-0.3l4.41-1.58c0.13-0.05,0.28,0.02,0.33,0.15l1.57,3.91c1.85,4.61,4.91,8.64,8.85,11.65l1.62,1.23
							c0.98,0.75,2.22,1.15,3.44,1.15l0.2,0c2.05-0.02,4.04,0.73,5.59,2.09c0.07,0.07,0.11,0.17,0.08,0.26
							c-0.02,0.1-0.1,0.17-0.19,0.19l-4.55,1.11C76.81,158.76,75.9,158.86,75,158.86z M56.76,138.79c0.26,0.96,1.49,4.98,5.52,11.09
							c1.86,2.82,4.33,5.17,7.34,6.97c2.38,1.43,5.21,1.85,7.96,1.18l4.04-0.98c-1.37-1.05-3.05-1.63-4.78-1.63
							c-0.02,0-0.03,0-0.05,0l-0.2,0c-0.01,0-0.03,0-0.04,0c-1.34,0-2.66-0.45-3.73-1.26l-1.62-1.23
							c-4.02-3.07-7.14-7.17-9.02-11.87l-1.47-3.68L56.76,138.79z"/>
					</g>
					<path d="M52.6,172.89c0,0-5.95,3.9-8.96,2.44c-3.01-1.46,2.7-6.38,4.29-6.47C49.52,168.76,52.6,172.89,52.6,172.89z"/>
					<path d="M58.13,109.47c2.49,0.63,5.29,2.26,4.73,6.02c-0.46,3.08-3.75,3.78-5.36,5.32c-5.21,5-0.99,11.12-5.15,16.18
						c-3.96,4.82-9.17,0.93-16.89,6.24c-6.08,4.18,15.32-1.3,7.66,3.02c-6.12,3.44-17.05,2.34-22.73-5.21
						c-5.4-7.17-6.03-17.4,0.35-21.85c5.74-4.01,9.2,1.4,15.27-2.31c5.99-3.66,5.5-9.29,9.18-10.74
						C50.23,104.17,51.95,107.91,58.13,109.47z"/>
					<g>
						<g>
							<path class="st0" d="M25.42,145.13c0.46-1.88,1.09-4.08,1.68-5.52c1.8-4.43,3.02-7.31,8.27-9.64
								c0.79-0.35,1.61-0.62,2.44-0.83l3.13-0.8c0,0,12.88-2.7,17.59,2.54c0.38,0.42,0.87,0.91,1.16,1.45l2.94,5.2l-0.03,0.01
								c-3.01,0.99-4.49,4.4-3.12,7.26c1.57,3.29,3.79,7.16,6.15,8.87c0.75,0.54,6.84,3.57,6.84,3.57s1.21,4.81-8.75,8.15
								c-9.96,3.34-17.11,4.29-19.49,9.13c-1.41,2.86-5.29-11.62-7.49-25.08c-0.42-2.59-2.68-4.48-5.31-4.42L25.42,145.13z"/>
							<path d="M43.8,175.13c-0.03,0-0.06,0-0.09-0.01c-2.13-0.32-5.58-15.5-7.24-25.66c-0.4-2.45-2.57-4.24-5.04-4.2l-6,0.13
								c-0.08-0.01-0.16-0.04-0.21-0.1c-0.05-0.06-0.07-0.15-0.05-0.23c0.54-2.21,1.17-4.29,1.69-5.56c1.74-4.29,3-7.38,8.41-9.79
								c0.75-0.33,1.59-0.62,2.48-0.85l3.13-0.8c0.54-0.11,13.1-2.68,17.85,2.62c0.06,0.07,0.13,0.14,0.2,0.22
								c0.35,0.38,0.74,0.8,1,1.29l2.94,5.2c0.04,0.07,0.04,0.15,0.02,0.22c-0.03,0.07-0.09,0.13-0.16,0.16l-0.03,0.01
								c-1.37,0.45-2.48,1.47-3.05,2.79c-0.56,1.32-0.53,2.81,0.08,4.1c1.46,3.05,3.7,7.05,6.07,8.77c0.58,0.42,4.7,2.5,6.81,3.55
								c0.07,0.03,0.12,0.1,0.14,0.17c0.05,0.21,1.15,5.09-8.92,8.46c-2.24,0.75-4.38,1.39-6.27,1.96
								c-6.54,1.97-11.27,3.39-13.07,7.03C44.25,175.03,44,175.13,43.8,175.13z M31.53,144.73c2.69,0,5.02,1.98,5.46,4.64
								c2.25,13.74,5.56,25.04,6.8,25.22c0.05,0.01,0.12-0.08,0.19-0.22c1.9-3.85,6.72-5.3,13.39-7.3c1.89-0.57,4.02-1.21,6.26-1.96
								c8.77-2.94,8.69-7,8.6-7.72c-0.88-0.44-6.06-3.02-6.76-3.54c-2.46-1.78-4.75-5.86-6.23-8.97c-0.68-1.42-0.72-3.08-0.09-4.54
								c0.59-1.38,1.71-2.45,3.1-2.99l-2.78-4.93c-0.23-0.43-0.6-0.83-0.92-1.18c-0.07-0.08-0.14-0.15-0.2-0.22
								c-4.55-5.07-17.21-2.48-17.33-2.45l-3.12,0.8c-0.87,0.22-1.67,0.5-2.4,0.82c-5.21,2.32-6.38,5.18-8.14,9.5
								c-0.48,1.18-1.07,3.09-1.58,5.15l5.66-0.12C31.45,144.74,31.49,144.73,31.53,144.73z"/>
						</g>
						<g>
							<path class="st0" d="M62.25,159.71l-4.59-1.67c-0.68-0.25-1.44-0.12-2.01,0.33l-2.17,1.74c-0.41,0.33-0.94,0.49-1.47,0.45
								c-2.31-0.19-12.77-3.42-13.8-5.27c-0.51-0.91-1.17-4.03-1.65-6.61c-0.4-2.16-2.31-3.71-4.5-3.66l-4.73,0.1
								c0,0,1.21,11.4,5.01,15.11c2.96,2.87,9.99,4.4,20.24,3.95c0,0,2.14-0.21,3.97-2.32c1.17-1.35,3.95-0.6,5.61-0.98
								C62.77,160.74,62.82,159.92,62.25,159.71z"/>
							<path d="M49.11,164.52c-8.25,0-14.2-1.43-16.94-4.1c-3.83-3.73-5.04-14.8-5.09-15.27c-0.01-0.07,0.02-0.15,0.06-0.2
								c0.05-0.06,0.12-0.09,0.19-0.09l4.73-0.1c2.33-0.05,4.34,1.58,4.77,3.88c0.66,3.56,1.22,5.82,1.62,6.53
								c0.98,1.75,11.31,4.95,13.6,5.13c0.46,0.04,0.92-0.1,1.28-0.39l2.17-1.74c0.63-0.51,1.5-0.65,2.27-0.37l4.59,1.67
								c0.37,0.14,0.6,0.48,0.57,0.87c-0.02,0.4-0.29,0.71-0.68,0.8c-0.61,0.14-1.33,0.13-2.1,0.13c-1.32-0.01-2.69-0.02-3.37,0.77
								c-1.88,2.17-4.05,2.4-4.15,2.41C51.41,164.49,50.24,164.52,49.11,164.52z M27.63,145.38c0.22,1.78,1.54,11.39,4.9,14.66
								c2.98,2.89,10.28,4.31,20.05,3.87c0.01,0,2.05-0.23,3.78-2.23c0.84-0.97,2.33-0.96,3.78-0.95c0.73,0.01,1.42,0.01,1.97-0.12
								c0.18-0.04,0.26-0.19,0.27-0.31c0.01-0.12-0.05-0.28-0.23-0.34l-4.59-1.67c-0.59-0.22-1.26-0.1-1.75,0.29l-2.17,1.74
								c-0.47,0.37-1.05,0.55-1.65,0.5c-2.25-0.18-12.88-3.38-14.01-5.4c-0.43-0.77-0.99-3.02-1.67-6.69
								c-0.38-2.04-2.16-3.5-4.23-3.44L27.63,145.38z"/>
						</g>
					</g>
				</g>
				<g>
					<g>
						<g>
							<path class="st0" d="M42.49,128.12c0,0,3.73-8.1,3.96-9.12c0,0-0.78-0.55-0.56-1.83c0.41-2.44,2.68-0.9,2.68-0.9l0.23,0.09
								c1.35,0.52,2.82,0.64,4.23,0.34l2.97-0.62c0,0,0.46,1.12-0.5,3.04c-0.46,0.92-0.54,2.04-0.52,3.23
								c0.01,0.31-0.24,0.57-0.56,0.58l-0.77,0.02c-0.52,0.87-0.94,1.37-1.68,1.87c-0.2,0.14-0.45,0.19-0.69,0.15
								c-0.32-0.06-0.82-0.2-1.36-0.51l-0.9,3.53l1.89,0.2c0,0,0.38,2.34-3.4,3.49c-2.09,0.64-4.85,0.09-6.91-0.53
								c-1.06-0.32-1.14-1.78-0.12-2.21L42.49,128.12z"/>
							<path d="M45.39,132.24c-1.69,0-3.47-0.41-4.86-0.83c-0.59-0.18-0.99-0.69-1.02-1.3c-0.03-0.61,0.31-1.16,0.88-1.4l1.9-0.79
								c1.24-2.68,3.49-7.68,3.86-8.83c-0.25-0.25-0.71-0.88-0.52-1.96c0.13-0.77,0.45-1.27,0.95-1.49
								c0.86-0.37,1.92,0.27,2.11,0.39l0.2,0.08c1.3,0.5,2.71,0.62,4.08,0.33l2.97-0.62c0.12-0.02,0.25,0.04,0.3,0.16
								c0.02,0.05,0.49,1.25-0.51,3.26c-0.46,0.93-0.51,2.09-0.49,3.11c0.01,0.46-0.36,0.84-0.82,0.85l-0.63,0.01
								c-0.52,0.86-0.97,1.34-1.68,1.83c-0.26,0.18-0.58,0.25-0.88,0.19c-0.28-0.05-0.69-0.16-1.13-0.38l-0.74,2.91l1.59,0.17
								c0.12,0.01,0.21,0.1,0.23,0.22c0.02,0.1,0.38,2.58-3.58,3.79C46.92,132.15,46.16,132.24,45.39,132.24z M47.16,116.06
								c-0.13,0-0.26,0.02-0.38,0.07c-0.33,0.14-0.54,0.51-0.64,1.09c-0.18,1.09,0.43,1.55,0.45,1.57c0.08,0.06,0.13,0.17,0.1,0.27
								c-0.23,1.03-3.82,8.84-3.98,9.17c-0.03,0.06-0.08,0.11-0.14,0.13l-1.99,0.83c-0.43,0.18-0.57,0.57-0.56,0.88
								c0.02,0.31,0.19,0.69,0.65,0.83c1.95,0.59,4.71,1.16,6.76,0.53c2.88-0.88,3.2-2.45,3.22-3L49,128.26
								c-0.08-0.01-0.15-0.05-0.19-0.11c-0.04-0.06-0.06-0.14-0.04-0.22l0.9-3.53c0.02-0.08,0.08-0.15,0.15-0.18
								c0.08-0.03,0.16-0.03,0.24,0.02c0.5,0.29,0.97,0.42,1.27,0.48c0.17,0.03,0.34-0.01,0.49-0.11c0.68-0.46,1.08-0.92,1.6-1.79
								c0.05-0.08,0.13-0.13,0.22-0.13l0.77-0.02c0.17,0,0.3-0.14,0.3-0.31c-0.02-1.08,0.03-2.32,0.55-3.35
								c0.65-1.31,0.61-2.23,0.54-2.62l-2.72,0.57c-1.47,0.3-2.98,0.18-4.38-0.36l-0.23-0.09c-0.02-0.01-0.04-0.02-0.05-0.03
								C48.21,116.35,47.66,116.06,47.16,116.06z M42.49,128.12L42.49,128.12L42.49,128.12z"/>
						</g>
						<path d="M49.93,124.73c-0.05,0-0.1-0.01-0.14-0.04l-0.49-0.31c-0.12-0.08-0.16-0.24-0.08-0.36c0.08-0.12,0.24-0.16,0.37-0.08
							l0.49,0.31c0.12,0.08,0.16,0.24,0.08,0.36C50.1,124.69,50.01,124.73,49.93,124.73z"/>
					</g>
				</g>
				<g>
					<g>
						<path class="st0" d="M87.33,162.67l-22.13,0.15l13.94-21.52c0.52-0.81,1.43-1.31,2.41-1.31l17.86-0.12
							c1.17-0.01,1.89,1.24,1.27,2.2L87.33,162.67z"/>
						<path d="M65.2,163.08c-0.1,0-0.19-0.05-0.23-0.14c-0.05-0.09-0.04-0.19,0.01-0.27l13.94-21.52c0.57-0.89,1.56-1.43,2.63-1.43
							l17.86-0.12c0,0,0.01,0,0.01,0c0.64,0,1.23,0.34,1.54,0.9c0.3,0.55,0.28,1.19-0.06,1.71l-13.36,20.61
							c-0.05,0.07-0.13,0.12-0.22,0.12L65.2,163.08C65.2,163.08,65.2,163.08,65.2,163.08z M87.33,162.67L87.33,162.67L87.33,162.67z
							 M99.43,140.12C99.43,140.12,99.43,140.12,99.43,140.12l-17.87,0.12c-0.9,0.01-1.72,0.45-2.19,1.19l-13.68,21.11l21.5-0.14
							l13.28-20.49c0.23-0.36,0.25-0.8,0.04-1.17C100.29,140.35,99.89,140.12,99.43,140.12z"/>
					</g>
					<path d="M86.2,151.9c-0.5,0.78-1.57,1.41-2.41,1.42c-0.83,0.01-1.1-0.62-0.6-1.4c0.5-0.78,1.57-1.41,2.41-1.42
						C86.42,150.49,86.69,151.12,86.2,151.9z"/>
					<g>
						<path class="st0" d="M87.39,163.83l-30.1,0.2c-0.48,0-0.89-0.6-1.06-1.44c-0.08-0.42,0.24-0.81,0.67-0.81l31.17-0.21
							c0.24,0,0.44,0.2,0.41,0.44C88.39,163.04,87.94,163.82,87.39,163.83z"/>
						<path d="M57.28,164.29c-0.6,0-1.12-0.65-1.32-1.65c-0.05-0.28,0.02-0.56,0.2-0.78c0.18-0.22,0.45-0.35,0.73-0.35l31.17-0.21
							c0.2-0.01,0.38,0.08,0.51,0.22c0.13,0.14,0.19,0.32,0.17,0.51c-0.11,1.21-0.67,2.06-1.35,2.06L57.28,164.29
							C57.29,164.29,57.29,164.29,57.28,164.29z M88.07,161.83C88.07,161.83,88.07,161.83,88.07,161.83l-31.17,0.21
							c-0.13,0-0.25,0.06-0.33,0.16c-0.08,0.1-0.11,0.22-0.09,0.34c0.14,0.71,0.48,1.24,0.8,1.23l30.1-0.2
							c0.34,0,0.74-0.59,0.83-1.58c0-0.05-0.02-0.09-0.04-0.1C88.16,161.85,88.12,161.83,88.07,161.83z"/>
					</g>
				</g>
			</g>
		</g>
		<g>
			<g>
				<path d="M222.76,213.88c-0.09,0-0.17-0.03-0.24-0.1c-0.13-0.13-0.13-0.34,0-0.48l1.84-1.84c0.13-0.13,0.34-0.13,0.48,0
					c0.13,0.13,0.13,0.34,0,0.48l-1.84,1.84C222.93,213.85,222.85,213.88,222.76,213.88z"/>
				<path d="M218.47,218.17c-0.09,0-0.17-0.03-0.24-0.1c-0.13-0.13-0.13-0.34,0-0.48l1.84-1.84c0.13-0.13,0.34-0.13,0.48,0
					c0.13,0.13,0.13,0.34,0,0.48l-1.84,1.84C218.64,218.14,218.55,218.17,218.47,218.17z"/>
				<path d="M220.31,213.88c-0.09,0-0.17-0.03-0.24-0.1l-1.84-1.84c-0.13-0.13-0.13-0.34,0-0.48s0.34-0.13,0.48,0l1.84,1.84
					c0.13,0.13,0.13,0.34,0,0.48C220.48,213.85,220.4,213.88,220.31,213.88z"/>
				<path d="M224.61,218.17c-0.09,0-0.17-0.03-0.24-0.1l-1.84-1.84c-0.13-0.13-0.13-0.34,0-0.48s0.34-0.13,0.48,0l1.84,1.84
					c0.13,0.13,0.13,0.34,0,0.48C224.78,218.14,224.69,218.17,224.61,218.17z"/>
			</g>
			<path d="M214.47,205.06c-0.32,0-0.64-0.06-0.94-0.18c-0.66-0.26-1.19-0.77-1.47-1.43c-0.58-1.35,0.02-2.94,1.35-3.53
				c0.64-0.29,1.35-0.31,2-0.05c0.66,0.26,1.19,0.77,1.47,1.43c0.58,1.35-0.02,2.94-1.35,3.53
				C215.19,204.98,214.83,205.06,214.47,205.06z M214.46,200.36c-0.27,0-0.54,0.06-0.79,0.17c0,0,0,0,0,0
				c-0.99,0.45-1.45,1.64-1.01,2.65c0.21,0.5,0.6,0.88,1.1,1.07c0.48,0.19,1.01,0.17,1.49-0.04c0.99-0.45,1.45-1.64,1.01-2.65
				c-0.21-0.5-0.6-0.88-1.1-1.07C214.94,200.41,214.7,200.36,214.46,200.36z M213.54,200.23L213.54,200.23L213.54,200.23z"/>
			<path d="M242.81,211.94c-0.06,0-0.12,0-0.18-0.01c-0.65-0.05-1.23-0.34-1.65-0.83c-0.41-0.48-0.62-1.09-0.57-1.72
				c0.1-1.31,1.26-2.3,2.58-2.2c0.65,0.05,1.23,0.34,1.65,0.83c0.41,0.48,0.62,1.09,0.57,1.72
				C245.12,210.98,244.06,211.94,242.81,211.94z M241.08,209.43c-0.03,0.45,0.11,0.89,0.41,1.23c0.3,0.35,0.73,0.56,1.19,0.6
				c0.96,0.06,1.79-0.64,1.86-1.58c0.03-0.45-0.11-0.89-0.41-1.23c-0.3-0.35-0.73-0.56-1.19-0.6
				C241.98,207.79,241.15,208.49,241.08,209.43z"/>
		</g>
	</g>
	<g>
		<path d="M130.3,39.3l3.74,1.26v2.1L128,40.2v-1.82l6.04-2.46v2.09L130.3,39.3z"/>
		<path d="M136.25,44.32h-1.63l3.4-10.81h1.64L136.25,44.32z"/>
		<path d="M144.21,39.28l-3.72-1.26v-2.09l6.01,2.46v1.82l-6.01,2.46v-2.09L144.21,39.28z"/>
	</g>
	<g>
		<path d="M92.86,27.02c-1.64-0.46-2.46-1.52-2.46-3.18v-1.35c0-0.92-0.37-1.38-1.11-1.38v-1.55c0.74,0,1.11-0.46,1.11-1.39v-1.44
			c0.01-0.82,0.23-1.48,0.64-1.99s1.02-0.87,1.82-1.1l0.43,1.2c-0.57,0.22-0.87,0.83-0.9,1.84v1.48c0,1.02-0.42,1.74-1.26,2.16
			c0.84,0.42,1.26,1.14,1.26,2.17v1.48c0.02,1.01,0.32,1.62,0.9,1.84L92.86,27.02z"/>
		<path d="M95.64,22.33c0.36,0,0.67,0.11,0.91,0.32s0.36,0.49,0.36,0.83s-0.12,0.61-0.36,0.83s-0.54,0.32-0.91,0.32
			c-0.37,0-0.67-0.11-0.91-0.33s-0.36-0.49-0.36-0.83s0.12-0.61,0.36-0.83S95.27,22.33,95.64,22.33z"/>
		<path d="M99.87,22.33c0.36,0,0.67,0.11,0.91,0.32s0.36,0.49,0.36,0.83s-0.12,0.61-0.36,0.83s-0.54,0.32-0.91,0.32
			c-0.37,0-0.67-0.11-0.91-0.33s-0.36-0.49-0.36-0.83s0.12-0.61,0.36-0.83S99.5,22.33,99.87,22.33z"/>
		<path d="M104.1,22.33c0.36,0,0.67,0.11,0.91,0.32s0.36,0.49,0.36,0.83s-0.12,0.61-0.36,0.83s-0.54,0.32-0.91,0.32
			c-0.37,0-0.67-0.11-0.91-0.33s-0.36-0.49-0.36-0.83s0.12-0.61,0.36-0.83S103.73,22.33,104.1,22.33z"/>
		<path d="M108.33,22.33c0.36,0,0.67,0.11,0.91,0.32s0.36,0.49,0.36,0.83s-0.12,0.61-0.36,0.83s-0.54,0.32-0.91,0.32
			c-0.37,0-0.67-0.11-0.91-0.33s-0.36-0.49-0.36-0.83s0.12-0.61,0.36-0.83S107.96,22.33,108.33,22.33z"/>
		<path d="M112.56,22.33c0.36,0,0.67,0.11,0.91,0.32s0.36,0.49,0.36,0.83s-0.12,0.61-0.36,0.83s-0.54,0.32-0.91,0.32
			c-0.37,0-0.67-0.11-0.91-0.33s-0.36-0.49-0.36-0.83s0.12-0.61,0.36-0.83S112.19,22.33,112.56,22.33z"/>
		<path d="M117.19,37.81c0.57-0.22,0.87-0.83,0.9-1.84v-1.48c0-1.03,0.42-1.75,1.27-2.16c-0.85-0.41-1.27-1.13-1.27-2.16v-1.48
			c-0.02-1.01-0.32-1.62-0.9-1.84l0.43-1.2c0.82,0.23,1.43,0.6,1.84,1.12s0.62,1.2,0.62,2.03v1.37c0,0.93,0.37,1.39,1.11,1.39v1.55
			c-0.74,0-1.11,0.46-1.11,1.37v1.46c-0.03,1.6-0.85,2.63-2.46,3.08L117.19,37.81z"/>
	</g>
</g>
</svg>
