<?xml version="1.0" encoding="utf-8"?>
<!-- Generator: Adobe Illustrator 26.0.3, SVG Export Plug-In . SVG Version: 6.00 Build 0)  -->
<svg version="1.1" xmlns="http://www.w3.org/2000/svg" xmlns:xlink="http://www.w3.org/1999/xlink" x="0px" y="0px"
	 viewBox="0 0 300 240" style="enable-background:new 0 0 300 240;" xml:space="preserve">
<style type="text/css">
	.st0{fill:#FFFFFF;}
</style>
<g id="Background">
</g>
<g id="Illustration">
	<g id="Coding_workshop_00000031205501706163130210000015380194528341124757_">
		<g>
			<g>
				<g>
					<g>
						<path d="M192.52,128.65l-45.43,0.28c-0.29,0-0.39,0.27-0.39,0.54v38.65c0,3.7-25.81,13.31-26.06,12.83l-0.03,4.09
							c0,0.76,0.67,1.44,1.52,1.44h0.57c0,0,0.01,0,0.01,0h38.09c1.77,0,3.51-0.4,5.11-1.07l20.94-8.82c3.77-1.59,6.15-5,6.15-8.72
							v-38.69C193,128.92,192.82,128.65,192.52,128.65z"/>
						<g>
							<path class="st0" d="M142.1,126.68v38.66c0,3.81-2.45,7.28-6.31,8.93l-14.13,6.03c-0.92,0.39-0.61,1.63,0.41,1.63h38.81
								c1.75,0,3.47-0.34,5.05-1.01l15.65-6.59c3.88-1.63,6.36-5.12,6.36-8.95v-38.7c0-0.16-0.14-0.29-0.32-0.29h-45.21
								C142.25,126.4,142.1,126.52,142.1,126.68z"/>
							<path d="M160.9,182.22h-38.81c-0.72,0-1.13-0.47-1.23-0.94c-0.11-0.52,0.17-1.02,0.7-1.25l14.13-6.03
								c3.72-1.59,6.13-4.99,6.13-8.66v-38.66c0-0.32,0.27-0.58,0.61-0.58h45.21c0.34,0,0.61,0.26,0.61,0.58v38.7
								c0,3.93-2.57,7.55-6.54,9.22l-15.65,6.59C164.46,181.86,162.67,182.22,160.9,182.22z M142.39,126.69v38.65
								c0,3.9-2.54,7.51-6.48,9.19l-14.13,6.03c-0.28,0.12-0.41,0.34-0.36,0.6c0.04,0.22,0.25,0.47,0.66,0.47h38.81
								c1.7,0,3.4-0.34,4.94-0.99l15.65-6.59c3.76-1.58,6.18-4.99,6.18-8.68v-38.69c0,0.01-0.01,0-0.03,0h-45.21
								C142.41,126.69,142.4,126.69,142.39,126.69z"/>
						</g>
					</g>
					<g>
						<path d="M57.19,148.84l195.8,0.44c1.71,0,3.42-1.29,3.64-2.99l15.91-122.52c0.38-2.97-1.92-5.92-4.87-5.85L74.14,18.94
							L57.19,148.84z"/>
						<g>
							<path class="st0" d="M259.98,18.61c3.37,0,6.41,3.42,5.98,6.76l-15.45,120.61c-0.22,1.7-2.04,3.14-3.75,3.14l-192.34-0.31
								c-2.05,0-3.43-1.7-3.16-3.75l16-122.84c0.22-1.7,1.35-3.61,3.06-3.61H259.98z"/>
							<path d="M246.75,149.42l-192.34-0.31c-1.04,0-1.97-0.41-2.61-1.14c-0.67-0.77-0.98-1.83-0.84-2.93l16-122.84
								c0.24-1.87,1.5-3.86,3.34-3.86h189.67c1.7,0,3.39,0.82,4.65,2.24c1.24,1.41,1.83,3.18,1.62,4.85L250.8,146.02
								C250.56,147.83,248.67,149.42,246.75,149.42z M70.31,18.9c-1.52,0-2.56,1.73-2.77,3.36l-16,122.84
								c-0.12,0.95,0.13,1.83,0.7,2.48c0.54,0.61,1.31,0.95,2.18,0.95l192.34,0.31c1.62,0,3.27-1.38,3.47-2.89l15.45-120.61
								c0.19-1.5-0.35-3.1-1.48-4.39c-1.14-1.3-2.68-2.05-4.21-2.05H70.31z"/>
						</g>
						<path d="M242.23,143.93l-181.72-0.29c-0.96,0-1.82-0.38-2.42-1.06c-0.62-0.71-0.91-1.7-0.78-2.72L72.03,26.86
							c0.22-1.73,1.39-3.58,3.1-3.58H254.4c1.57,0,3.14,0.76,4.29,2.07c1.15,1.3,1.69,2.94,1.49,4.48l-14.21,110.96
							C245.76,142.46,244.01,143.93,242.23,143.93z M75.13,23.86c-1.38,0-2.34,1.58-2.53,3.07L57.88,139.94
							c-0.11,0.86,0.11,1.67,0.64,2.26c0.49,0.56,1.2,0.86,1.99,0.86l181.72,0.29c1.48,0,2.99-1.26,3.17-2.64l14.21-110.96
							c0.18-1.38-0.32-2.84-1.35-4.02c-1.05-1.19-2.46-1.88-3.86-1.88H75.13z"/>
					</g>
				</g>
			</g>
			<g>
				<g>
					<path d="M235.29,39.17h-73.87c-0.08,0-0.16-0.04-0.22-0.1c-0.05-0.06-0.08-0.15-0.07-0.23l0.5-3.7
						c0.02-0.14,0.14-0.25,0.29-0.25h73.87c0.08,0,0.16,0.04,0.22,0.1c0.05,0.06,0.08,0.15,0.07,0.23l-0.5,3.7
						C235.56,39.07,235.43,39.17,235.29,39.17z M161.75,38.59h73.29l0.42-3.13h-73.29L161.75,38.59z"/>
					<polygon points="251.23,44.99 175.97,44.99 176.46,41.29 251.73,41.29 					"/>
					<path d="M241.33,51.38h-38.9c-0.08,0-0.16-0.04-0.22-0.1c-0.05-0.06-0.08-0.15-0.07-0.23l0.5-3.7
						c0.02-0.14,0.14-0.25,0.29-0.25h38.9c0.08,0,0.16,0.04,0.22,0.1c0.05,0.06,0.08,0.15,0.07,0.23l-0.5,3.7
						C241.6,51.28,241.48,51.38,241.33,51.38z M202.76,50.81h38.32l0.42-3.13h-38.32L202.76,50.81z"/>
					<path d="M228.72,88.02h-73.87c-0.08,0-0.16-0.04-0.22-0.1c-0.05-0.06-0.08-0.15-0.07-0.23l0.5-3.7
						c0.02-0.14,0.14-0.25,0.29-0.25h73.87c0.08,0,0.16,0.04,0.22,0.1c0.05,0.06,0.08,0.15,0.07,0.23l-0.5,3.7
						C228.99,87.91,228.87,88.02,228.72,88.02z M155.18,87.44h73.29l0.42-3.13H155.6L155.18,87.44z"/>
					<path d="M188.75,94.12H169.4c-0.08,0-0.16-0.04-0.22-0.1c-0.05-0.06-0.08-0.15-0.07-0.23l0.5-3.7
						c0.02-0.14,0.14-0.25,0.29-0.25h17.51c0.16,0,0.29,0.13,0.29,0.29c0,0.16-0.13,0.29-0.29,0.29h-17.25l-0.42,3.13h19.02
						c0.16,0,0.29,0.13,0.29,0.29S188.91,94.12,188.75,94.12z"/>
					<path d="M244.66,94.12h-46.49c-0.16,0-0.29-0.13-0.29-0.29s0.13-0.29,0.29-0.29h46.23l0.42-3.13h-49.16
						c-0.16,0-0.29-0.13-0.29-0.29c0-0.16,0.13-0.29,0.29-0.29h49.49c0.08,0,0.16,0.04,0.22,0.1c0.05,0.06,0.08,0.15,0.07,0.23
						l-0.5,3.7C244.93,94.02,244.81,94.12,244.66,94.12z"/>
					<path d="M243.84,100.23h-40.2c-0.16,0-0.29-0.13-0.29-0.29c0-0.16,0.13-0.29,0.29-0.29h39.95l0.42-3.13h-42.59
						c-0.16,0-0.29-0.13-0.29-0.29c0-0.16,0.13-0.29,0.29-0.29h42.92c0.08,0,0.16,0.04,0.22,0.1c0.05,0.06,0.08,0.15,0.07,0.23
						l-0.5,3.7C244.11,100.12,243.99,100.23,243.84,100.23z"/>
					<path d="M194.93,106.08h-27.42c-0.08,0-0.16-0.04-0.22-0.1c-0.05-0.06-0.08-0.15-0.07-0.23l0.5-3.7
						c0.02-0.14,0.14-0.25,0.29-0.25h22.56c0.16,0,0.29,0.13,0.29,0.29c0,0.16-0.13,0.29-0.29,0.29h-22.31l-0.42,3.13h27.09
						c0.16,0,0.29,0.13,0.29,0.29C195.22,105.95,195.09,106.08,194.93,106.08z"/>
					<polygon points="232.83,57.2 158.96,57.2 159.45,53.5 233.32,53.5 					"/>
					<polygon points="238,63.31 173.5,63.31 174,59.6 238.1,59.6 					"/>
					<path d="M228.97,75.81h-29.83c-0.08,0-0.16-0.04-0.22-0.1c-0.05-0.06-0.08-0.15-0.07-0.23l0.5-3.7
						c0.02-0.14,0.14-0.25,0.29-0.25h29.83c0.08,0,0.16,0.04,0.22,0.1c0.05,0.06,0.08,0.15,0.07,0.23l-0.5,3.7
						C229.24,75.7,229.12,75.81,228.97,75.81z M199.48,75.23h29.24l0.42-3.13H199.9L199.48,75.23z"/>
					<polygon points="237.07,81.62 207.25,81.62 207.74,77.92 237.57,77.92 					"/>
					<polygon points="235.64,69.41 199.97,69.41 200.47,65.71 235.78,65.71 					"/>
					<polygon class="st0" points="225.44,112.15 151.57,112.15 152.07,108.45 225.94,108.45 					"/>
					<path d="M205.11,118.55h-39c-0.08,0-0.16-0.04-0.22-0.1c-0.05-0.06-0.08-0.15-0.07-0.23l0.5-3.7c0.02-0.14,0.14-0.25,0.29-0.25
						h37.17c0.16,0,0.29,0.13,0.29,0.29c0,0.16-0.13,0.29-0.29,0.29h-36.92l-0.42,3.13h38.67c0.16,0,0.29,0.13,0.29,0.29
						C205.4,118.42,205.27,118.55,205.11,118.55z"/>
					<path d="M225.63,124.65h-33.04c-0.08,0-0.16-0.04-0.22-0.1c-0.05-0.06-0.08-0.15-0.07-0.23l0.5-3.7
						c0.02-0.14,0.14-0.25,0.29-0.25h31.37c0.16,0,0.29,0.13,0.29,0.29c0,0.16-0.13,0.29-0.29,0.29h-31.11l-0.42,3.13h32.71
						c0.16,0,0.29,0.13,0.29,0.29C225.91,124.52,225.79,124.65,225.63,124.65z"/>
					<polygon class="st0" points="222.98,130.47 149.11,130.47 149.6,126.77 223.47,126.77 					"/>
					<path d="M225.33,136.86h-61.68c-0.08,0-0.16-0.04-0.22-0.1c-0.05-0.06-0.08-0.15-0.07-0.23l0.5-3.7
						c0.02-0.14,0.14-0.25,0.29-0.25h61.47c0.16,0,0.29,0.13,0.29,0.29c0,0.16-0.13,0.29-0.29,0.29H164.4l-0.42,3.13h61.35
						c0.16,0,0.29,0.13,0.29,0.29C225.62,136.73,225.49,136.86,225.33,136.86z"/>
				</g>
				<g>
					<polygon points="149.53,81.55 142.34,81.55 142.82,77.99 150.01,77.99 					"/>
					<polygon points="155.54,38.88 148.04,38.88 148.54,35.18 156.04,35.18 					"/>
					<polygon points="156.29,33.27 148.79,33.27 149.29,29.57 156.79,29.57 					"/>
					<polygon points="154.66,44.99 147.22,44.99 147.72,41.29 155.16,41.29 					"/>
					<polygon points="153.59,51.1 146.52,51.1 147.02,47.39 154.09,47.39 					"/>
					<polygon points="152.81,57.2 145.62,57.2 146.11,53.5 153.3,53.5 					"/>
					<polygon points="151.95,63.31 144.76,63.31 145.25,59.6 152.44,59.6 					"/>
					<polygon points="150.52,75.27 143.39,75.27 143.89,71.57 151.02,71.57 					"/>
					<polygon points="151.16,69.17 144.35,69.17 144.84,65.46 151.66,65.46 					"/>
					<polygon points="147.04,100.1 139.84,100.1 140.32,96.54 147.52,96.54 					"/>
					<polygon points="148.02,93.82 140.9,93.82 141.4,90.12 148.52,90.12 					"/>
					<polygon points="148.66,87.71 141.85,87.71 142.35,84.01 149.16,84.01 					"/>
					<polygon points="142.18,136.21 134.99,136.21 135.47,132.66 142.66,132.66 					"/>
					<polygon points="146.24,105.76 139.18,105.76 139.67,102.06 146.74,102.06 					"/>
					<polygon points="145.46,111.86 138.27,111.86 138.76,108.16 145.95,108.16 					"/>
					<polygon points="144.6,117.97 137.41,117.97 137.91,114.27 145.1,114.27 					"/>
					<polygon points="143.17,129.94 136.04,129.94 136.54,126.23 143.67,126.23 					"/>
					<polygon points="143.81,123.83 137,123.83 137.5,120.13 144.31,120.13 					"/>
				</g>
				<g>
					<polygon points="117.4,32.46 81.84,32.46 82.32,28.9 117.88,28.9 					"/>
					<path d="M123.65,38.93H86.16c-0.08,0-0.16-0.04-0.22-0.1c-0.05-0.06-0.08-0.15-0.07-0.23l0.5-3.7
						c0.02-0.14,0.14-0.25,0.29-0.25h37.48c0.08,0,0.16,0.04,0.22,0.1c0.05,0.06,0.08,0.15,0.07,0.23l-0.5,3.7
						C123.91,38.82,123.79,38.93,123.65,38.93z M86.5,38.35h36.9l0.42-3.13h-36.9L86.5,38.35z"/>
					<path d="M133.44,45.03H89.78c-0.08,0-0.16-0.04-0.22-0.1c-0.05-0.06-0.08-0.15-0.07-0.23l0.5-3.7
						c0.02-0.14,0.14-0.25,0.29-0.25h43.67c0.08,0,0.16,0.04,0.22,0.1c0.05,0.06,0.08,0.15,0.07,0.23l-0.5,3.7
						C133.71,44.93,133.59,45.03,133.44,45.03z M90.11,44.46h43.09l0.42-3.13H90.53L90.11,44.46z"/>
					<path d="M139.04,51.14H102.6c-0.08,0-0.16-0.04-0.22-0.1c-0.05-0.06-0.08-0.15-0.07-0.23l0.5-3.7
						c0.02-0.14,0.14-0.25,0.29-0.25h36.44c0.08,0,0.16,0.04,0.22,0.1c0.05,0.06,0.08,0.15,0.07,0.23l-0.5,3.7
						C139.31,51.03,139.19,51.14,139.04,51.14z M102.93,50.56h35.86l0.42-3.13h-35.86L102.93,50.56z"/>
					<polygon points="104.07,81.31 75.27,81.31 75.75,77.75 104.55,77.75 					"/>
					<path d="M104.52,87.77H83.46c-0.08,0-0.16-0.04-0.22-0.1c-0.05-0.06-0.08-0.15-0.07-0.23l0.5-3.7
						c0.02-0.14,0.14-0.25,0.29-0.25h21.06c0.08,0,0.16,0.04,0.22,0.1c0.05,0.06,0.08,0.15,0.07,0.23l-0.5,3.7
						C104.79,87.67,104.67,87.77,104.52,87.77z M83.79,87.2h20.48l0.42-3.13H84.21L83.79,87.2z"/>
					<path d="M112.06,93.88H91.9c-0.08,0-0.16-0.04-0.22-0.1c-0.05-0.06-0.08-0.15-0.07-0.23l0.5-3.7c0.02-0.14,0.14-0.25,0.29-0.25
						h20.16c0.08,0,0.16,0.04,0.22,0.1c0.05,0.06,0.08,0.15,0.07,0.23l-0.5,3.7C112.33,93.77,112.21,93.88,112.06,93.88z
						 M92.23,93.3h19.58l0.42-3.13H92.65L92.23,93.3z"/>
					<path d="M125.41,99.98H99.9c-0.08,0-0.16-0.04-0.22-0.1c-0.05-0.06-0.08-0.15-0.07-0.23l0.5-3.7c0.02-0.14,0.14-0.25,0.29-0.25
						h25.51c0.08,0,0.16,0.04,0.22,0.1c0.05,0.06,0.08,0.15,0.07,0.23l-0.5,3.7C125.68,99.88,125.56,99.98,125.41,99.98z
						 M100.23,99.41h24.93l0.42-3.13h-24.93L100.23,99.41z"/>
					<polygon points="104.76,56.96 79.01,56.96 79.51,53.25 105.26,53.25 					"/>
					<path d="M136.76,63.35H96.97c-0.08,0-0.16-0.04-0.22-0.1c-0.05-0.06-0.08-0.15-0.07-0.23l0.5-3.7
						c0.02-0.14,0.14-0.25,0.29-0.25h39.79c0.08,0,0.16,0.04,0.22,0.1c0.05,0.06,0.08,0.15,0.07,0.23l-0.5,3.7
						C137.03,63.24,136.91,63.35,136.76,63.35z M97.3,62.77h39.21l0.42-3.13H97.72L97.3,62.77z"/>
					<polygon points="103.44,69.16 77.69,69.16 78.19,65.45 103.94,65.45 					"/>
					<path d="M135.44,75.55H95.65c-0.08,0-0.16-0.04-0.22-0.1c-0.05-0.06-0.08-0.15-0.07-0.23l0.5-3.7
						c0.02-0.14,0.14-0.25,0.29-0.25h39.79c0.08,0,0.16,0.04,0.22,0.1c0.05,0.06,0.08,0.15,0.07,0.23l-0.5,3.7
						C135.71,75.45,135.59,75.55,135.44,75.55z M95.98,74.97h39.21l0.42-3.13H96.4L95.98,74.97z"/>
					<polygon points="104.01,105.73 71.99,105.73 72.47,102.17 104.49,102.17 					"/>
					<path d="M124.74,112.2H72.45c-0.08,0-0.16-0.04-0.22-0.1c-0.05-0.06-0.08-0.15-0.07-0.23l0.5-3.7
						c0.02-0.14,0.14-0.25,0.29-0.25h52.29c0.08,0,0.16,0.04,0.22,0.1c0.05,0.06,0.08,0.15,0.07,0.23l-0.5,3.7
						C125,112.09,124.88,112.2,124.74,112.2z M72.78,111.62h51.7l0.42-3.13H73.2L72.78,111.62z"/>
					<path d="M124.56,118.3H94.54c-0.08,0-0.16-0.04-0.22-0.1c-0.05-0.06-0.08-0.15-0.07-0.23l0.5-3.7
						c0.02-0.14,0.14-0.25,0.29-0.25h30.02c0.08,0,0.16,0.04,0.22,0.1c0.05,0.06,0.08,0.15,0.07,0.23l-0.5,3.7
						C124.83,118.2,124.7,118.3,124.56,118.3z M94.87,117.72h29.43l0.42-3.13H95.29L94.87,117.72z"/>
					<polygon points="111.97,130.22 91.9,130.22 90.27,126.52 112.47,126.52 					"/>
					<path d="M130.56,123.92h-28.79c-0.08,0-0.16-0.04-0.22-0.1c-0.05-0.06-0.08-0.15-0.07-0.23l0.5-3.7
						c0.02-0.14,0.14-0.25,0.29-0.25h28.79c0.08,0,0.16,0.04,0.22,0.1c0.05,0.06,0.08,0.15,0.07,0.23l-0.5,3.7
						C130.83,123.82,130.71,123.92,130.56,123.92z M102.1,123.35h28.21l0.42-3.13h-28.21L102.1,123.35z"/>
					<path d="M117.91,136.62H94.93c-0.16,0-0.29-0.13-0.29-0.29s0.13-0.29,0.29-0.29h22.72l0.42-3.13H93.86
						c-0.16,0-0.29-0.13-0.29-0.29s0.13-0.29,0.29-0.29h24.54c0.08,0,0.16,0.04,0.22,0.1c0.05,0.06,0.08,0.15,0.07,0.23l-0.5,3.7
						C118.17,136.51,118.05,136.62,117.91,136.62z"/>
				</g>
			</g>
		</g>
		<g>
			<g>
				<g>
					<g>
						<polygon class="st0" points="287.58,217.81 286.86,224.72 282.21,225.27 282.21,217.07 						"/>
						<path d="M282.21,225.56c-0.07,0-0.14-0.03-0.19-0.07c-0.06-0.05-0.1-0.13-0.1-0.22v-8.2c0-0.08,0.04-0.16,0.1-0.22
							c0.06-0.05,0.15-0.08,0.23-0.07l5.37,0.74c0.15,0.02,0.26,0.16,0.25,0.32l-0.72,6.92c-0.01,0.13-0.12,0.24-0.25,0.26
							l-4.65,0.55C282.24,225.56,282.22,225.56,282.21,225.56z M282.5,217.4v7.55l4.09-0.48l0.67-6.41L282.5,217.4z"/>
					</g>
					<g>
						<g>
							<path class="st0" d="M281.48,237.31c1.94,0.27,5.11,0.52,8.84,0c1.22-0.17,2.03-1.36,1.73-2.57
								c-0.82-3.36-2.23-9.73-4.66-12.68l-0.6,1.6l-0.83-1.51c-0.11-0.21-0.32-0.35-0.55-0.38l-1.82-0.23
								c-0.38-0.05-0.74,0.21-0.81,0.58l-0.29,1.39l-1.11-1.82l-0.49,6.8c-0.11,1.46-0.32,2.9-0.65,4.33l-0.5,2.15
								C279.57,236.11,280.36,237.15,281.48,237.31z"/>
							<path d="M285.87,237.9c-1.78,0-3.29-0.14-4.43-0.31c-1.27-0.18-2.17-1.38-2.01-2.66l0.5-2.17c0.33-1.41,0.54-2.85,0.65-4.28
								l0.49-6.8c0.01-0.13,0.1-0.23,0.22-0.26c0.12-0.03,0.25,0.02,0.31,0.13l0.73,1.2l0.14-0.67c0.11-0.52,0.61-0.88,1.13-0.81
								l1.82,0.23c0.32,0.04,0.61,0.24,0.77,0.52l0.53,0.96l0.38-1.02c0.04-0.1,0.12-0.17,0.22-0.18c0.1-0.02,0.2,0.02,0.27,0.1
								c2.3,2.8,3.71,8.6,4.54,12.07l0.18,0.73c0.16,0.65,0.03,1.35-0.34,1.9c-0.38,0.55-0.97,0.92-1.63,1.02
								C288.75,237.82,287.23,237.9,285.87,237.9z M281.59,222.62l-0.43,5.9c-0.11,1.47-0.33,2.94-0.66,4.37l-0.5,2.15
								c-0.12,0.95,0.56,1.85,1.52,1.99c1.98,0.28,5.1,0.51,8.76,0c0.5-0.07,0.95-0.35,1.23-0.77c0.29-0.42,0.38-0.95,0.26-1.44
								l-0.18-0.73c-0.79-3.26-2.08-8.6-4.12-11.43l-0.42,1.12c-0.04,0.11-0.14,0.18-0.25,0.19c-0.12,0.01-0.22-0.05-0.27-0.15
								l-0.83-1.51c-0.07-0.13-0.19-0.21-0.34-0.23l-1.82-0.23c-0.23-0.03-0.45,0.13-0.5,0.36l-0.29,1.39
								c-0.02,0.12-0.12,0.21-0.23,0.23c-0.12,0.02-0.23-0.03-0.3-0.13L281.59,222.62z"/>
						</g>
						<path d="M285.73,235.85c-2.36,0-3.8-0.51-3.89-0.54c-0.15-0.05-0.23-0.22-0.17-0.37c0.05-0.15,0.22-0.23,0.37-0.17
							c0.03,0.01,3.1,1.08,7.62,0.04c0.16-0.04,0.31,0.06,0.35,0.22c0.04,0.16-0.06,0.31-0.22,0.35
							C288.25,235.73,286.88,235.85,285.73,235.85z"/>
						<path d="M287.97,230.54C287.97,230.54,287.97,230.54,287.97,230.54l-4.37-0.14c-0.16-0.01-0.28-0.14-0.28-0.3
							c0.01-0.16,0.14-0.29,0.3-0.28l4.36,0.14c0.16,0.01,0.28,0.14,0.28,0.3C288.26,230.41,288.13,230.54,287.97,230.54z"/>
					</g>
				</g>
				<g>
					<g>
						<polygon class="st0" points="265.82,214.12 265.12,224.22 259.53,224.22 259.27,214.12 						"/>
						<path d="M265.12,224.51h-5.59c-0.16,0-0.28-0.12-0.29-0.28l-0.26-10.09c0-0.08,0.03-0.15,0.08-0.21
							c0.05-0.06,0.13-0.09,0.21-0.09h6.55c0.08,0,0.16,0.03,0.21,0.09c0.05,0.06,0.08,0.14,0.08,0.22l-0.7,10.09
							C265.4,224.39,265.27,224.51,265.12,224.51z M259.81,223.93h5.04l0.66-9.52h-5.94L259.81,223.93z"/>
					</g>
					<g>
						<g>
							<path class="st0" d="M266.58,229.92c0.01,0.95-0.63,1.79-1.56,2.01c-3.21,0.75-10.45,2.43-12.52,2.74
								c-2.68,0.4-5.98-0.42-7.39-2c-1.42-1.58,3.17-5.35,5.35-6.72c3.23-2.04,6.34-6.06,7.65-6.24c1.3-0.18,3.74,3.62,3.74,3.62
								l3.98-1.68C265.82,221.64,266.51,225.07,266.58,229.92z"/>
							<path d="M251.1,235.05c-2.47,0-5-0.86-6.21-2.2c-0.28-0.31-0.39-0.7-0.32-1.15c0.28-1.99,3.98-4.9,5.73-6.01
								c1.59-1,3.13-2.47,4.49-3.77c1.46-1.4,2.52-2.41,3.27-2.51c1.31-0.18,3.25,2.59,3.89,3.55l3.75-1.59
								c0.08-0.03,0.17-0.03,0.25,0.01c0.08,0.04,0.13,0.11,0.15,0.2c0.01,0.03,0.7,3.51,0.77,8.33c0.02,1.08-0.73,2.05-1.78,2.3
								c-3.08,0.72-10.46,2.43-12.54,2.74C252.08,235.02,251.59,235.05,251.1,235.05z M258.21,219.98c-0.02,0-0.04,0-0.06,0
								c-0.56,0.08-1.72,1.19-2.95,2.36c-1.38,1.32-2.94,2.81-4.58,3.84c-1.79,1.13-5.24,3.93-5.47,5.6
								c-0.04,0.28,0.02,0.5,0.18,0.68c1.32,1.47,4.45,2.31,7.13,1.91c2.06-0.31,9.43-2.02,12.5-2.73c0.79-0.18,1.35-0.91,1.34-1.72
								c-0.06-3.89-0.52-6.88-0.69-7.87l-3.64,1.54c-0.13,0.06-0.28,0.01-0.36-0.11C260.65,222,259,219.98,258.21,219.98z"/>
						</g>
						<path d="M251.14,232.58c-1.75,0-3.31-0.29-4.44-1.03c-0.13-0.09-0.17-0.27-0.08-0.4c0.09-0.13,0.27-0.17,0.4-0.08
							c4.15,2.72,15.2-1.3,17.37-2.14c0.15-0.06,0.32,0.02,0.37,0.17c0.06,0.15-0.02,0.32-0.17,0.37
							C262.3,230.35,256.01,232.58,251.14,232.58z"/>
						<path d="M257.35,227.09c-0.07,0-0.15-0.03-0.2-0.08l-2.32-2.27c-0.11-0.11-0.12-0.29,0-0.41c0.11-0.11,0.29-0.12,0.41,0
							l2.32,2.27c0.11,0.11,0.12,0.29,0,0.41C257.5,227.06,257.43,227.09,257.35,227.09z"/>
					</g>
				</g>
				<g>
					<g>
						<path class="st0" d="M289.17,148.32c0,0,1.73,31.56,2.64,42.45c0.91,10.89-2.12,28.4-2.12,28.4l-8.63-0.46
							c0,0-0.59-21.29-1.23-27.2c0,0-3.65-8.01-4.73-15.16c-1.08-7.15-4.76-18.44-4.76-18.44s-2.99,56.36-3.28,60.78
							c0,0-6.77,0.3-9.19-1.23c0,0-4.3-20.55-3.68-31.73c0.62-11.18-0.06-38.96-0.06-38.96L289.17,148.32z"/>
						<path d="M289.69,219.46c-0.01,0-0.01,0-0.02,0l-8.63-0.46c-0.15-0.01-0.27-0.13-0.27-0.28c-0.01-0.21-0.6-21.24-1.23-27.13
							c-0.29-0.65-3.7-8.36-4.73-15.2c-0.83-5.5-3.24-13.56-4.27-16.88c-0.49,9.2-2.94,55.24-3.19,59.2
							c-0.01,0.15-0.13,0.26-0.28,0.27c-0.28,0.01-6.89,0.29-9.36-1.28c-0.07-0.04-0.11-0.11-0.13-0.18
							c-0.04-0.21-4.3-20.71-3.69-31.8c0.61-11.04-0.05-38.66-0.06-38.94c0-0.08,0.03-0.16,0.09-0.21c0.06-0.06,0.13-0.08,0.22-0.08
							l35.04,1.55c0.15,0.01,0.27,0.12,0.28,0.27c0.02,0.32,1.74,31.68,2.64,42.44c0.9,10.81-2.09,28.3-2.12,28.48
							C289.95,219.36,289.83,219.46,289.69,219.46z M281.34,218.44l8.11,0.43c0.36-2.19,2.91-18.05,2.07-28.08
							c-0.85-10.25-2.46-39.13-2.63-42.2l-34.47-1.52c0.07,3.08,0.63,28.24,0.05,38.67c-0.58,10.57,3.3,29.81,3.65,31.53
							c2.13,1.24,7.43,1.17,8.66,1.13c0.37-5.96,3.23-59.96,3.26-60.52c0.01-0.14,0.11-0.25,0.25-0.27c0.14-0.02,0.27,0.06,0.31,0.2
							c0.04,0.11,3.7,11.4,4.77,18.49c1.06,7.02,4.67,15.01,4.7,15.09c0.01,0.03,0.02,0.06,0.02,0.09
							C280.71,196.98,281.27,215.96,281.34,218.44z"/>
					</g>
					<path d="M284.05,191.8h-2.64c-0.16,0-0.29-0.13-0.29-0.29s0.13-0.29,0.29-0.29h2.64c0.16,0,0.29,0.13,0.29,0.29
						S284.21,191.8,284.05,191.8z"/>
					<path d="M262.62,208.19c-0.16,0-0.29-0.13-0.29-0.28c-0.09-5.06-5.88-14.57-5.94-14.66c-0.08-0.14-0.04-0.31,0.1-0.4
						c0.14-0.08,0.31-0.04,0.4,0.1c0.24,0.4,5.93,9.74,6.02,14.95C262.91,208.05,262.79,208.19,262.62,208.19
						C262.62,208.19,262.62,208.19,262.62,208.19z"/>
				</g>
			</g>
			<g>
				<g>
					<path class="st0" d="M248.8,98.4c-0.48-0.04-4.46,6.79-6.33,10.05c-0.53,0.93-1.72,1.23-2.62,0.67l-14.62-9.03
						c-1.19-0.74-2.22-1.72-2.99-2.9c-1.22-1.86-1.95-3.75-3.58-5.07c-1.33-1.08-2.68-2.27-3.08-2.58c-0.25-0.2-1.43,0.64-0.54,2.12
						c0.27,0.46,1.29,1.38,1.56,1.8c0.44,0.67,0.44,1.56-0.05,2.19c-0.52,0.67-0.96,1.75-0.37,3.26c0.87,2.22,2.85,2.77,3.96,2.9
						c0.56,0.06,1.08,0.34,1.45,0.76l13.49,15.46c2.09,2.4,5.59,2.94,8.31,1.28c4.39-2.68,10.04-8.08,14.11-14.91L248.8,98.4z"/>
					<path d="M240,120.56c-1.91,0-3.79-0.81-5.13-2.34l-13.5-15.46c-0.33-0.37-0.78-0.61-1.27-0.67c-1.17-0.14-3.27-0.72-4.2-3.09
						c-0.65-1.65-0.13-2.84,0.41-3.54c0.41-0.53,0.42-1.27,0.04-1.85c-0.11-0.17-0.4-0.48-0.68-0.77c-0.36-0.38-0.73-0.77-0.89-1.04
						c-0.64-1.07-0.33-1.93,0.13-2.34c0.29-0.26,0.63-0.32,0.84-0.16c0.17,0.14,0.51,0.43,0.94,0.79c0.58,0.49,1.37,1.17,2.14,1.79
						c1.2,0.97,1.91,2.21,2.67,3.53c0.3,0.53,0.62,1.08,0.97,1.61c0.74,1.12,1.74,2.1,2.9,2.81l14.62,9.03
						c0.37,0.23,0.81,0.3,1.23,0.19c0.42-0.11,0.78-0.38,0.99-0.76c5.88-10.25,6.31-10.21,6.6-10.2c0.05,0,0.1,0.02,0.14,0.05
						l8.7,6.01c0.13,0.09,0.16,0.25,0.08,0.39c-4.38,7.34-10.21,12.56-14.2,15.01C242.44,120.24,241.22,120.56,240,120.56z
						 M215.45,89.8c-0.08,0.03-0.24,0.14-0.34,0.35c-0.13,0.26-0.21,0.71,0.18,1.36c0.13,0.22,0.49,0.6,0.81,0.94
						c0.31,0.33,0.6,0.64,0.75,0.85c0.52,0.79,0.5,1.81-0.06,2.53c-0.66,0.85-0.77,1.85-0.33,2.98c0.82,2.09,2.69,2.6,3.73,2.72
						c0.63,0.07,1.21,0.38,1.64,0.86l13.5,15.46c2,2.3,5.34,2.81,7.94,1.23c3.9-2.38,9.56-7.45,13.87-14.58l-8.31-5.75
						c-0.51,0.53-2.33,3.33-6.07,9.85c-0.3,0.52-0.78,0.88-1.35,1.03c-0.57,0.15-1.17,0.05-1.67-0.26l-14.62-9.03
						c-1.23-0.76-2.3-1.79-3.08-2.99c-0.36-0.55-0.68-1.11-0.99-1.64c-0.73-1.27-1.42-2.46-2.53-3.37c-0.78-0.63-1.57-1.31-2.15-1.8
						C215.94,90.21,215.63,89.94,215.45,89.8z"/>
				</g>
				<g>
					<path d="M298.99,111.1c0,0,0.97-17.98-12.62-23.03c-10.52-3.91-23.96-2.22-28.17-0.76c-10.37,3.6-15.47,17.3-15.47,17.3
						l12.15,1.71c0,0-3.66,39.36-2.07,48.14c0,0,9.78,1.15,13.93-0.5c4.15-1.64,17.79-3.95,24.31-0.93l-1.18-42.1L298.99,111.1z"/>
					<path class="st0" d="M259.71,155.14c-3.49,0-6.7-0.37-6.93-0.4c-0.13-0.01-0.23-0.11-0.25-0.24
						c-1.53-8.43,1.7-44.15,2.05-47.95l-11.88-1.67c-0.09-0.01-0.16-0.06-0.21-0.14c-0.04-0.08-0.05-0.17-0.02-0.25
						c0.05-0.14,5.27-13.87,15.65-17.47c4.6-1.59,18.07-3.06,28.37,0.76c5.65,2.1,9.65,6.8,11.58,13.6
						c1.45,5.11,1.23,9.67,1.22,9.71c-0.01,0.15-0.14,0.27-0.29,0.27c0,0,0,0-0.01,0l-8.83-0.16l1.18,41.8
						c0,0.1-0.05,0.19-0.13,0.25c-0.08,0.06-0.19,0.06-0.28,0.02c-6.51-3.01-20-0.68-24.08,0.94
						C265.06,154.94,262.31,155.14,259.71,155.14z M253.06,154.2c1.45,0.15,9.88,0.96,13.57-0.5c4.06-1.61,17.31-3.91,24.11-1.11
						l-1.17-41.65c0-0.08,0.03-0.16,0.08-0.21c0.06-0.06,0.14-0.08,0.21-0.09l8.85,0.16c0.04-2.28-0.12-17.89-12.44-22.46
						c-10.17-3.78-23.45-2.33-27.98-0.76c-9.22,3.2-14.3,14.67-15.16,16.79l11.79,1.66c0.15,0.02,0.26,0.16,0.25,0.31
						C255.13,106.73,251.59,145.15,253.06,154.2z"/>
				</g>
				<path class="st0" d="M282.06,144.64c-0.02,0-0.03,0-0.05,0c-15.86-2.82-20.5-13.94-20.55-14.05c-0.06-0.15,0.01-0.32,0.16-0.38
					c0.15-0.06,0.32,0.01,0.38,0.16c0.04,0.11,4.58,10.93,20.11,13.7c0.16,0.03,0.26,0.18,0.23,0.34
					C282.32,144.54,282.19,144.64,282.06,144.64z"/>
				<g>
					<polygon class="st0" points="253.06,125.58 272.97,125.58 266.73,103.19 246.82,103.19 					"/>
					<path d="M272.97,125.87h-19.91c-0.13,0-0.24-0.09-0.28-0.21l-6.24-22.39c-0.02-0.09-0.01-0.18,0.05-0.25
						c0.05-0.07,0.14-0.11,0.23-0.11h19.91c0.13,0,0.24,0.09,0.28,0.21l6.24,22.39c0.02,0.09,0.01,0.18-0.05,0.25
						C273.15,125.82,273.06,125.87,272.97,125.87z M253.28,125.29h19.31l-6.08-21.81H247.2L253.28,125.29z"/>
				</g>
				<g>
					<path class="st0" d="M296.63,111.11l-8.76-0.4c0,0-0.07,7.42-0.86,7.55c-2.81,0.47-8.71,0.5-12.54,0.03
						c-1.34-0.16-2.39-1.19-2.64-2.52c-0.19-1-0.73-2.19-2.1-3.03c-1.33-0.82-0.02,1.76-1.26,3.43c-0.67,0.89-2.77,0.5-5.65-0.17
						c-2.87-0.67-3.6,2.42-0.38,4.29c3.49,2.03,5.71,1.8,6.83,2.04c2.22,0.47,21.84,3.57,24.86,1.91
						C296.47,122.95,296.63,111.11,296.63,111.11z"/>
					<path d="M290.33,125.01c-7,0-20.01-2.17-21.12-2.41c-0.22-0.05-0.51-0.08-0.84-0.11c-1.3-0.13-3.27-0.33-6.07-1.96
						c-2.03-1.18-2.53-2.79-2.13-3.79c0.29-0.74,1.16-1.4,2.72-1.03c2.59,0.6,4.78,1.04,5.35,0.28c0.55-0.74,0.55-1.72,0.54-2.44
						c0-0.59-0.01-1.02,0.31-1.2c0.27-0.15,0.58,0.01,0.79,0.14c1.2,0.75,1.98,1.86,2.23,3.23c0.23,1.22,1.19,2.14,2.4,2.29
						c3.78,0.46,9.56,0.45,12.42-0.02c0.37-0.45,0.63-4.1,0.66-7.28c0-0.08,0.03-0.15,0.09-0.21c0.06-0.05,0.13-0.08,0.21-0.08
						l8.76,0.4c0.16,0.01,0.28,0.14,0.28,0.29c-0.02,1.23-0.23,12.05-2.65,13.37C293.59,124.86,292.17,125.01,290.33,125.01z
						 M262.07,116.19c-0.67,0-1.17,0.27-1.36,0.77c-0.31,0.78,0.15,2.07,1.88,3.08c2.69,1.56,4.59,1.76,5.84,1.88
						c0.35,0.04,0.65,0.07,0.9,0.12c2.26,0.48,21.76,3.53,24.67,1.94c1.75-0.96,2.28-9.15,2.35-12.59l-8.18-0.37
						c-0.01,0.6-0.04,2.03-0.13,3.44c-0.23,3.67-0.6,4.03-0.96,4.09c-2.88,0.48-8.78,0.5-12.63,0.03c-1.45-0.18-2.62-1.28-2.89-2.76
						c-0.23-1.22-0.89-2.18-1.97-2.84c-0.09-0.06-0.16-0.09-0.19-0.1c-0.03,0.13-0.03,0.43-0.03,0.66c0.01,0.75,0.02,1.89-0.65,2.79
						c-0.78,1.05-2.96,0.63-5.95-0.06C262.52,116.22,262.28,116.19,262.07,116.19z"/>
				</g>
			</g>
			<g>
				<g>
					<g>
						<path class="st0" d="M266.48,87.63c0,0,2.27-1.39,2.24-2.21l0.65-4.19c0.01-0.38-0.23-0.73-0.59-0.85l-2.68-0.92
							c-0.34-0.12-0.56-0.46-0.54-0.82l0.21-3.33l-1.05-0.93c-0.08-0.07-0.09-0.2-0.02-0.28l1.66-2.02
							c0.54-0.76,1.09-2.59,1.53-2.47c0,0,9.46-1.09,9.92,3.68c0.07,0.69-0.14,1.38-0.54,1.94l-0.84,1.18
							c-0.84,1.19-1.28,2.64-1.13,4.09c0.03,0.3,0.42,2.25,0.69,3.53c0.15,0.73,0.55,1.38,1.14,1.83c0.74,0.57,1.64,1.29,1.49,1.34
							c0,0-1.05,0.77-2.7,1.45c-2.94,1.21-6.28,0.91-8.99-0.75L266.48,87.63z"/>
						<path d="M272.19,89.67c-1.88,0-3.76-0.51-5.41-1.52l-0.45-0.27c-0.09-0.05-0.14-0.15-0.14-0.25c0-0.1,0.05-0.19,0.14-0.25
							c1.02-0.63,2.12-1.56,2.11-1.96c0-0.02,0-0.03,0-0.05l0.64-4.17c0-0.25-0.16-0.48-0.39-0.56l-2.68-0.92
							c-0.46-0.16-0.76-0.62-0.73-1.12l0.2-3.19l-0.95-0.84c-0.2-0.18-0.22-0.48-0.05-0.68l1.66-2.02c0.18-0.25,0.38-0.68,0.57-1.1
							c0.4-0.86,0.72-1.54,1.19-1.48c0.61-0.07,6.24-0.6,8.87,1.52c0.79,0.63,1.23,1.45,1.33,2.42c0.07,0.74-0.14,1.5-0.59,2.14
							l-0.84,1.18c-0.84,1.18-1.22,2.56-1.08,3.9c0.01,0.13,0.12,0.75,0.68,3.5c0.14,0.66,0.5,1.25,1.04,1.66
							c1.67,1.29,1.65,1.41,1.62,1.6c-0.01,0.08-0.06,0.15-0.13,0.2c-0.04,0.03-1.09,0.8-2.76,1.49
							C274.81,89.42,273.5,89.67,272.19,89.67z M267.03,87.62l0.06,0.03c2.65,1.62,5.91,1.89,8.73,0.73c1.16-0.48,2.02-1,2.41-1.26
							c-0.17-0.16-0.53-0.47-1.27-1.04c-0.64-0.49-1.09-1.21-1.25-2c-0.43-2.12-0.67-3.32-0.69-3.56c-0.15-1.47,0.27-3,1.19-4.29
							l0.84-1.18c0.37-0.53,0.55-1.15,0.49-1.75c-0.08-0.82-0.44-1.48-1.11-2.03c-2.54-2.05-8.43-1.4-8.48-1.39
							c-0.02,0-0.04,0-0.06,0c-0.16,0.12-0.45,0.75-0.63,1.14c-0.21,0.44-0.42,0.9-0.64,1.21l-1.62,1.98l0.99,0.88
							c0.07,0.06,0.1,0.15,0.1,0.23l-0.21,3.33c-0.01,0.24,0.13,0.46,0.35,0.53l2.68,0.92c0.48,0.17,0.79,0.62,0.78,1.13
							c0,0.01,0,0.03,0,0.04l-0.64,4.16C269,86.19,267.73,87.14,267.03,87.62z"/>
					</g>
					<path d="M267.58,62.34c2.16-0.11-0.57,2.11,7.41-0.18c3.18-0.91,1.55,2.82,2.37,2.58c3.05-0.87,2.94-0.84,4.43-0.44
						c0.98,0.27,1.61,2.1,1.41,3.47c-0.26,1.8-2.28,4.67-4.09,7.7c-0.94,1.57-2.6,1.71-4.61-0.62c-0.21-0.25,0.88-1.71,0.31-2.34
						c-1.48-1.64-2.14,0.84-3.34,0.07c-1.15-0.73-1.62-1.21-2.84-2.32c-1.47-1.34-3.94,0.75-4.79-2.28
						C263.4,66.4,264.63,62.49,267.58,62.34z"/>
				</g>
			</g>
		</g>
		<g>
			<g>
				<g>
					<g>
						<g>
							<path class="st0" d="M137.63,227.53c0,0,0.66,0,1.29-0.45c1.96-1.39,6.02-4.48,8.8-4.1c4.65,0.65,5.2,4.45,5.2,4.45
								s3.92-0.15,3.84,2.46c-0.06,2-1.2,4.55-4.37,5.95c-4.32,1.91-8.66,3.36-13.44,0.23c-0.93-0.61-2.03-0.89-3.13-0.78
								c-2.69,0.27-42.74,1.13-42.74,1.13c-9.16,0-17.57-5.08-21.82-13.2l-8.44-16.1l9.67-27.02l15.17,35.23
								C95,225.37,136.87,227.71,137.63,227.53z"/>
							<path d="M144.8,238.18c-1.94,0-3.94-0.51-6-1.86c-0.88-0.58-1.93-0.84-2.95-0.74c-2.67,0.27-41.13,1.1-42.76,1.13
								c-9.31,0-17.77-5.12-22.08-13.35l-8.44-16.1c-0.04-0.07-0.04-0.16-0.02-0.23l9.67-27.02c0.04-0.11,0.14-0.19,0.26-0.19
								c0.12-0.01,0.23,0.07,0.27,0.17l15.15,35.2c7.12,9.62,48.05,12.25,49.67,12.05c0.02,0,0.03,0,0.05,0
								c0.02,0,0.59-0.01,1.12-0.39l0.45-0.32c2.19-1.57,5.86-4.2,8.55-3.82c4.11,0.57,5.17,3.56,5.39,4.44
								c0.63,0.01,2.31,0.13,3.25,1.06c0.45,0.45,0.67,1.02,0.65,1.7c-0.03,1-0.45,4.4-4.54,6.21
								C150.05,237.2,147.48,238.18,144.8,238.18z M136.29,234.99c0.99,0,1.98,0.3,2.83,0.85c4.68,3.07,8.9,1.63,13.17-0.25
								c3.79-1.67,4.17-4.78,4.2-5.69c0.02-0.52-0.14-0.93-0.48-1.27c-0.97-0.96-3.04-0.9-3.07-0.9c0,0-0.01,0-0.01,0
								c-0.14,0-0.27-0.1-0.29-0.25c-0.02-0.15-0.59-3.59-4.96-4.2c-2.46-0.34-6.15,2.3-8.13,3.72l-0.46,0.33
								c-0.7,0.5-1.44,0.49-1.46,0.5c-1,0.06-11.46-0.52-22.56-2.27c-10.47-1.66-23.77-4.74-27.64-10.04
								c-0.01-0.02-0.02-0.04-0.03-0.06L72.51,180.9l-9.38,26.21l8.38,15.99c4.22,8.05,12.48,13.04,21.57,13.04
								c0.39-0.01,40.07-0.87,42.71-1.13C135.96,234.99,136.12,234.99,136.29,234.99z"/>
						</g>
						<g>
							<g>
								<path class="st0" d="M127.11,220.29l3.87-6.78l3.18,2.06c0.18,0.11,0.32,0.27,0.43,0.45l0.19,0.33
									c0.24,0.41,0.68,0.67,1.15,0.66c0.26,0,0.51,0.07,0.73,0.21l23.65,15.31c0.19,0.13,0.37,0.28,0.53,0.45l4.78,5.3l-6.65-1.5
									c-0.36-0.08-0.71-0.21-1.04-0.38l-24.88-13.01c-0.21-0.11-0.39-0.28-0.52-0.48l-0.03-0.05c-0.24-0.39-0.67-0.63-1.13-0.63
									l-0.23,0c-0.21,0-0.42-0.05-0.61-0.15L127.11,220.29z"/>
								<path d="M165.61,238.57c-0.02,0-0.04,0-0.06-0.01l-6.65-1.5c-0.39-0.09-0.76-0.23-1.11-0.41l-24.88-13.01
									c-0.26-0.14-0.48-0.34-0.63-0.59l-0.03-0.05c-0.19-0.31-0.52-0.49-0.87-0.49c0,0,0,0,0,0l-0.23,0c0,0,0,0-0.01,0
									c-0.25,0-0.51-0.06-0.74-0.18l-3.41-1.78c-0.07-0.04-0.12-0.1-0.14-0.17c-0.02-0.08-0.01-0.16,0.03-0.22l3.87-6.78
									c0.04-0.07,0.11-0.12,0.18-0.14c0.08-0.02,0.16,0,0.23,0.04l3.18,2.06c0.21,0.14,0.39,0.33,0.52,0.55l0.19,0.33
									c0.19,0.32,0.52,0.52,0.89,0.52c0.01,0,0.02,0,0.03,0c0.31,0,0.61,0.09,0.87,0.26l23.65,15.31c0.22,0.14,0.41,0.31,0.59,0.5
									l4.78,5.3c0.08,0.09,0.1,0.23,0.04,0.34C165.81,238.52,165.71,238.57,165.61,238.57z M131.36,221.93
									c0.55,0,1.08,0.29,1.37,0.77l0.03,0.05c0.1,0.16,0.24,0.29,0.41,0.38l24.88,13.01c0.31,0.16,0.64,0.28,0.97,0.36l5.76,1.3
									l-4.17-4.62c-0.14-0.15-0.3-0.29-0.47-0.4l-23.65-15.31c-0.17-0.11-0.36-0.17-0.56-0.16c-0.01,0-0.01,0-0.02,0
									c-0.57,0-1.1-0.31-1.39-0.8l-0.19-0.33c-0.08-0.14-0.2-0.26-0.33-0.35l-2.92-1.9l-3.57,6.25l3.14,1.64
									c0.15,0.08,0.31,0.11,0.47,0.12L131.36,221.93C131.36,221.93,131.36,221.93,131.36,221.93z"/>
							</g>
							<path d="M159.11,235.82c-0.04,0-0.09-0.01-0.13-0.03c-0.14-0.07-0.2-0.25-0.12-0.39l1.42-2.75c0.07-0.14,0.25-0.2,0.39-0.12
								c0.14,0.07,0.2,0.25,0.12,0.39l-1.42,2.75C159.31,235.76,159.21,235.82,159.11,235.82z"/>
							<g>
								<path d="M125.47,210.15l5.63,3.41l-3.98,6.77l-5.63-3.41c-1.03-0.62-1.39-1.95-0.79-2.97l1.82-3.1
									C123.12,209.84,124.44,209.53,125.47,210.15z"/>
								<path d="M127.13,220.62c-0.05,0-0.1-0.01-0.15-0.04l-5.64-3.41c-1.17-0.7-1.56-2.21-0.89-3.36l1.82-3.1
									c0.32-0.55,0.84-0.94,1.46-1.1c0.64-0.16,1.31-0.06,1.88,0.29l5.63,3.41c0.14,0.08,0.18,0.26,0.1,0.39l-3.98,6.77
									c-0.04,0.07-0.1,0.11-0.18,0.13C127.18,220.61,127.16,220.62,127.13,220.62z M124.34,210.12c-0.15,0-0.31,0.02-0.46,0.06
									c-0.47,0.12-0.86,0.41-1.11,0.83l-1.82,3.1c-0.52,0.88-0.21,2.03,0.69,2.57l5.38,3.25l3.68-6.27l-5.39-3.26
									C125.02,210.21,124.68,210.12,124.34,210.12z"/>
							</g>
							<path d="M132.68,221.54c-0.05,0-0.1-0.01-0.15-0.04c-0.14-0.08-0.18-0.26-0.1-0.4l1.92-3.18c0.08-0.14,0.26-0.18,0.4-0.1
								c0.14,0.08,0.18,0.26,0.1,0.4l-1.92,3.18C132.88,221.49,132.78,221.54,132.68,221.54z"/>
							<path d="M144,224.24c-0.05,0-0.11-0.01-0.15-0.04l-7.06-4.43c-0.14-0.08-0.18-0.26-0.09-0.4c0.08-0.13,0.26-0.18,0.4-0.09
								l7.06,4.43c0.14,0.08,0.18,0.26,0.09,0.4C144.19,224.19,144.1,224.24,144,224.24z"/>
							<path d="M158.71,233.36c-0.05,0-0.1-0.01-0.15-0.04l-2.76-1.72c-0.14-0.08-0.18-0.26-0.09-0.4c0.08-0.14,0.26-0.18,0.4-0.09
								l2.76,1.72c0.14,0.08,0.18,0.26,0.09,0.4C158.9,233.31,158.81,233.36,158.71,233.36z"/>
							<path class="st0" d="M126.51,217.9c-0.05,0-0.1-0.01-0.15-0.04l-4.29-2.64c-0.14-0.08-0.18-0.26-0.1-0.4
								c0.08-0.14,0.26-0.18,0.4-0.09l4.29,2.64c0.14,0.08,0.18,0.26,0.1,0.4C126.7,217.85,126.6,217.9,126.51,217.9z"/>
						</g>
						<path class="st0" d="M137.63,227.53c0,0,5.77-0.72,9.45-0.21c2.86,0.4,11.34-1.64,9.56,3.84c-0.38,1.18-0.58,1.97-1.63,3.08
							c-0.57,0.61-2.14,1.86-3.03,2.26c-4.33,1.91-8.25,2.71-13.04-0.43c-0.92-0.61-2.02-0.88-3.12-0.77
							C135.18,235.36,137.43,227.58,137.63,227.53z"/>
						<path d="M145.39,238.47c-2.12,0-4.27-0.62-6.61-2.16c-0.87-0.57-1.91-0.83-2.93-0.73c-0.7,0.07-2.96,0.15-3.06,0.15
							c-0.16,0.01-0.29-0.12-0.3-0.28c-0.01-0.16,0.12-0.29,0.28-0.3c0.02,0,2.34-0.08,3.02-0.15c1.15-0.12,2.33,0.17,3.31,0.82
							c4.58,3.01,8.28,2.39,12.76,0.41c0.83-0.37,2.37-1.59,2.94-2.19c0.93-0.99,1.15-1.68,1.49-2.74l0.08-0.23
							c0.33-1.02,0.3-1.76-0.09-2.28c-0.86-1.15-3.42-1.07-5.67-1.01c-1.42,0.04-2.76,0.08-3.61-0.19
							c-4.36-1.35-9.22,0.19-9.27,0.21c-0.24,0.06-0.87,0.04-2.34-0.06c-0.16-0.01-0.28-0.15-0.27-0.31
							c0.01-0.16,0.15-0.28,0.31-0.27c1.28,0.09,2,0.12,2.15,0.08c0.18-0.06,5.06-1.61,9.6-0.2c0.76,0.24,2.06,0.2,3.43,0.16
							c2.4-0.07,5.11-0.14,6.15,1.24c0.5,0.67,0.56,1.61,0.18,2.8l-0.07,0.23c-0.35,1.09-0.6,1.87-1.62,2.96
							c-0.6,0.63-2.21,1.92-3.13,2.32C149.78,237.79,147.6,238.47,145.39,238.47z"/>
					</g>
					<g>
						<path class="st0" d="M48.88,161.17c0,0,17.77,2.35,23.68,9.55c7.48,9.11,10.7,22.65,11.75,28.5c0.31,1.72,0.27,3.48-0.11,5.18
							l-0.43,1.95c-1.54,6.9-7.83,11.68-14.88,11.31l0.35,0c-1.14-0.06-2.8-0.44-3.29-1.47l-1.87-3.41l-0.18,1.23
							c-1.4,9.07,5.92,21.48,5.92,21.48l-21.02-2.84c-10.8-1.08-21.08-5.34-29.32-12.4c-4.48-3.83-7.94-7.42-9.43-11.78
							c-2.54-7.4-2.3-9.5-3.02-18.48c-0.48-6.11,1.31-12.21,5.14-17C17.81,165.98,28.65,158.6,48.88,161.17z"/>
						<path d="M69.83,235.78c-0.01,0-0.03,0-0.04,0l-21.02-2.84c-11.05-1.11-21.24-5.42-29.47-12.47c-4-3.42-7.92-7.23-9.52-11.9
							c-2.14-6.25-2.32-8.73-2.75-14.73c-0.08-1.13-0.17-2.39-0.28-3.82c-0.5-6.28,1.35-12.39,5.2-17.2
							c5.52-6.89,16.41-14.55,36.97-11.94c0,0,0,0,0,0c0.73,0.1,17.96,2.45,23.86,9.65c7.93,9.66,11.04,24.36,11.81,28.63
							c0.32,1.77,0.28,3.55-0.11,5.3l-0.43,1.95c-1.57,7.06-7.95,11.91-15.18,11.54c-0.05,0-0.09-0.02-0.13-0.04
							c-1.25-0.15-2.59-0.63-3.05-1.6l-1.44-2.63l-0.05,0.37c-1.37,8.86,5.81,21.17,5.89,21.29c0.06,0.1,0.05,0.21-0.01,0.31
							C70.01,235.74,69.92,235.78,69.83,235.78z M41.01,160.94c-15.3,0-23.93,6.41-28.61,12.25c-3.76,4.69-5.56,10.66-5.08,16.79
							c0.11,1.43,0.2,2.69,0.28,3.82c0.42,5.94,0.6,8.4,2.72,14.58c1.56,4.54,5.41,8.28,9.35,11.65
							c8.14,6.97,18.22,11.23,29.17,12.33l20.45,2.76c-1.38-2.46-6.93-13.03-5.67-21.16l0.18-1.22c0.02-0.12,0.11-0.22,0.23-0.24
							c0.12-0.02,0.25,0.04,0.31,0.15l1.87,3.41c0.41,0.88,1.9,1.26,3.05,1.32c0.03,0,0.05,0.01,0.08,0.02
							c6.76,0.15,12.67-4.46,14.15-11.1l0.43-1.95c0.37-1.67,0.41-3.38,0.11-5.07c-0.76-4.24-3.84-18.81-11.68-28.36
							c-5.76-7.02-23.32-9.42-23.49-9.44C46.06,161.1,43.45,160.94,41.01,160.94z"/>
					</g>
					<path d="M65.29,216.27c-0.11,0-0.21-0.06-0.26-0.16l-4.98-10.45c-0.07-0.14-0.01-0.32,0.14-0.39c0.14-0.07,0.32-0.01,0.39,0.14
						l4.98,10.45c0.07,0.14,0.01,0.32-0.14,0.39C65.37,216.26,65.33,216.27,65.29,216.27z"/>
				</g>
				<g>
					<path d="M51.67,125.57l1.31-0.87c1.05-0.7,1.49-2.02,1.05-3.2c-1.31-3.54-6.09-9.72-23.48-5.03
						c-17.73,4.78-14.6,33.23,0.51,39.31s20.24-25.18,20.24-25.18L51.67,125.57z"/>
					<g>
						<path class="st0" d="M49.49,126.22c0.2-1.09,1.65-1.32,2.19-0.36c1.33,2.33,1.96,3.95,2.17,4.94
							c0.29,1.33-0.95,2.66-0.29,4.09c0.67,1.43,1.71,3.04,1.81,5.61c0.09,2.51,2.63,13.99-6.29,13.63
							c-0.35-0.01-0.64,0.26-0.64,0.61c0.02,1.75,0.12,6.56,0.5,9.16c0.21,1.42-0.67,2.77-2.05,3.16
							c-3.57,1.01-10.22,2.43-15.2,0.81c-1.29-0.42-1.97-1.84-1.51-3.12c0.59-1.63,1.41-6.23,0.87-8.96c0,0,2.98-0.29,6.3-1.82
							c5.1-2.34,7.61-8.04,6.2-13.47c-0.3-1.17-0.96-2.83-0.28-4.59c1.76-4.54,4.4,0.02,4.4,0.02L49.49,126.22z"/>
						<path d="M36.94,168.88c-1.85,0-3.68-0.21-5.34-0.75c-0.7-0.23-1.26-0.71-1.58-1.37c-0.33-0.67-0.37-1.42-0.12-2.12
							c0.57-1.58,1.39-6.12,0.86-8.8c-0.02-0.08,0-0.16,0.05-0.23c0.05-0.07,0.12-0.11,0.2-0.12c0.03,0,2.98-0.31,6.21-1.79
							c4.89-2.25,7.44-7.77,6.04-13.14c-0.04-0.16-0.09-0.32-0.14-0.49c-0.32-1.12-0.76-2.66-0.13-4.27
							c0.54-1.39,1.24-2.13,2.07-2.19c1.02-0.08,1.94,0.9,2.44,1.57l1.68-9.01c0.11-0.61,0.59-1.08,1.2-1.18
							c0.62-0.1,1.22,0.18,1.53,0.73c1.49,2.62,2.02,4.18,2.2,5.02c0.14,0.66-0.04,1.29-0.22,1.91c-0.21,0.73-0.41,1.42-0.08,2.12
							c0.11,0.24,0.23,0.48,0.35,0.73c0.62,1.24,1.4,2.79,1.48,4.99c0.01,0.3,0.06,0.77,0.12,1.31c0.31,2.83,0.89,8.1-1.69,10.87
							c-1.17,1.25-2.86,1.84-5.02,1.75c-0.09,0-0.18,0.03-0.24,0.09c-0.06,0.06-0.1,0.14-0.09,0.23c0.02,1.89,0.12,6.57,0.5,9.12
							c0.23,1.55-0.74,3.05-2.26,3.48C44.58,168.01,40.74,168.88,36.94,168.88z M31.39,156.03c0.44,2.84-0.35,7.19-0.94,8.81
							c-0.2,0.55-0.17,1.14,0.09,1.67c0.25,0.52,0.69,0.9,1.24,1.08c4.92,1.6,11.53,0.18,15.03-0.81c1.24-0.35,2.03-1.57,1.85-2.84
							c-0.39-2.59-0.48-7.3-0.51-9.2c0-0.25,0.09-0.48,0.27-0.65c0.18-0.17,0.42-0.26,0.67-0.26c1.99,0.08,3.53-0.45,4.57-1.57
							c2.4-2.58,1.84-7.67,1.54-10.41c-0.06-0.57-0.11-1.02-0.12-1.35c-0.08-2.07-0.79-3.5-1.42-4.75c-0.13-0.25-0.25-0.5-0.36-0.74
							c-0.42-0.9-0.17-1.76,0.05-2.52c0.17-0.57,0.32-1.11,0.21-1.63c-0.14-0.66-0.61-2.16-2.14-4.86c-0.23-0.4-0.63-0.49-0.93-0.44
							c-0.3,0.05-0.64,0.26-0.73,0.72l-1.81,9.7c-0.02,0.12-0.12,0.21-0.24,0.23c-0.12,0.02-0.24-0.04-0.3-0.14
							c-0.32-0.55-1.35-1.96-2.31-1.89c-0.59,0.05-1.12,0.66-1.57,1.82c-0.56,1.43-0.17,2.8,0.15,3.91c0.05,0.18,0.1,0.35,0.14,0.5
							c1.46,5.64-1.21,11.45-6.36,13.81C34.73,155.49,32.24,155.92,31.39,156.03z"/>
					</g>
					<path d="M23.41,122.22c0,0-8.73-4.16-15.07,1.78c-6.35,5.95-12.49,19.04-2.97,33.32c5.98,8.97,8.28,16.07,9.17,20.1
						c0.3,1.35,2.07,1.69,2.83,0.54c3.83-5.75,10.82-18.43,7.44-30.35C20.23,131.54,23.41,122.22,23.41,122.22z"/>
					<path d="M55.4,139.37c-0.1,0-0.19-0.05-0.25-0.14c-0.08-0.14-0.04-0.31,0.1-0.4c2.86-1.72,1.01-6.57,0.49-7.77l-8.1,4.14
						c-0.14,0.07-0.32,0.02-0.39-0.13c-0.07-0.14-0.02-0.32,0.13-0.39l8.37-4.27c0.07-0.04,0.15-0.04,0.22-0.02
						c0.07,0.02,0.13,0.08,0.17,0.15c0.13,0.27,3.11,6.56-0.6,8.79C55.5,139.35,55.45,139.37,55.4,139.37z"/>
					<path d="M55.63,142.69c-0.07,0-0.15-0.03-0.21-0.09c-0.11-0.11-0.11-0.3,0-0.41l1.14-1.13c0.35-0.34,0.39-0.88,0.11-1.28
						l-0.79-1.1c-0.09-0.13-0.06-0.31,0.07-0.4c0.13-0.09,0.31-0.06,0.4,0.07l0.79,1.1c0.45,0.63,0.38,1.48-0.17,2.03l-1.14,1.13
						C55.78,142.66,55.7,142.69,55.63,142.69z"/>
					<path d="M46.44,143.68c-0.19,0-0.38-0.02-0.59-0.07c-0.99-0.25-1.84-1.09-2.52-2.51c-0.07-0.14-0.01-0.32,0.13-0.39
						c0.14-0.07,0.32-0.01,0.39,0.13c0.61,1.25,1.32,2,2.13,2.2c0.87,0.22,1.57-0.28,1.58-0.28c0.13-0.09,0.31-0.07,0.4,0.06
						c0.09,0.13,0.07,0.31-0.06,0.4C47.87,143.25,47.28,143.68,46.44,143.68z"/>
					<g>
						<path class="st0" d="M21.21,121.43c0,0,8.11,2.44,4.79,10.22c0,0,3.75-2.7,3.65-6.92c-0.09-4.22-3.22-5.59-5.31-5.55
							S21.21,121.43,21.21,121.43z"/>
						<path d="M26,131.94c-0.06,0-0.13-0.02-0.18-0.06c-0.1-0.08-0.14-0.22-0.09-0.34c0.94-2.21,1.02-4.18,0.24-5.86
							c-1.34-2.88-4.81-3.96-4.85-3.97c-0.08-0.02-0.15-0.08-0.18-0.16c-0.03-0.08-0.03-0.16,0-0.24c0.05-0.1,1.15-2.37,3.38-2.42
							c1.29-0.03,2.6,0.42,3.59,1.24c0.89,0.73,1.96,2.12,2.01,4.59c0.1,4.32-3.61,7.05-3.77,7.16
							C26.12,131.92,26.06,131.94,26,131.94z M21.64,121.27c0.96,0.36,3.65,1.56,4.86,4.15c0.72,1.55,0.78,3.31,0.17,5.25
							c1.06-1.05,2.75-3.17,2.69-5.94c-0.04-1.79-0.66-3.22-1.8-4.16c-0.88-0.72-2.08-1.13-3.21-1.11
							C22.9,119.5,21.99,120.71,21.64,121.27z"/>
					</g>
				</g>
			</g>
			<g>
				<path d="M5.75,187.91c6.69,4.04,20.3,9.81,42.2,8.47c1.61-0.1,3.1,0.86,3.67,2.37l1.37,5.47c2.4,9.61,6.92,18.57,13.22,26.22
					l3.27,3.97c0.5,0.61,0.03,1.53-0.76,1.47l-14.44-1.06c-24.79-3.28-44.04-15.71-50.22-38.36l-1.65-6.04
					C1.88,188.45,4.01,186.85,5.75,187.91z"/>
			</g>
		</g>
		<g>
			<g>
				<path class="st0" d="M176.32,33.86h47.55c2.69,0,4.75,2.19,4.75,4.88V52.5c0,2.69-2.06,4.87-4.75,4.87c-0.02,0-0.75,0-1.72,0
					v9.19l-6.26-9.19c-9.09,0-39.57,0-39.57,0c-2.69,0-5-2.17-5-4.87V38.74C171.32,36.05,173.63,33.86,176.32,33.86z"/>
				<path d="M222.15,66.85c-0.09,0-0.18-0.05-0.24-0.13l-6.17-9.06h-39.42c-2.87,0-5.29-2.36-5.29-5.16V38.74
					c0-2.8,2.42-5.17,5.29-5.17h47.55c2.83,0,5.04,2.27,5.04,5.17V52.5c0,2.89-2.21,5.16-5.04,5.16h-1.43v8.9
					c0,0.13-0.08,0.24-0.2,0.28C222.2,66.84,222.18,66.85,222.15,66.85z M176.32,34.15c-2.55,0-4.71,2.1-4.71,4.59V52.5
					c0,2.48,2.16,4.58,4.71,4.58h39.57c0.1,0,0.19,0.05,0.24,0.13l5.73,8.41v-8.25c0-0.16,0.13-0.29,0.29-0.29h1.72
					c2.5,0,4.46-2.01,4.46-4.58V38.74c0-2.58-1.96-4.59-4.46-4.59H176.32z"/>
			</g>
			<g>
				<path d="M194.17,49.02c-0.04,0-0.08-0.01-0.12-0.03l-6.55-2.97c-0.1-0.05-0.17-0.15-0.17-0.26c0-0.11,0.07-0.22,0.17-0.26
					l6.55-2.99c0.15-0.07,0.32,0,0.38,0.14c0.07,0.15,0,0.32-0.14,0.38l-5.97,2.72l5.97,2.71c0.15,0.07,0.21,0.24,0.14,0.38
					C194.39,48.96,194.28,49.02,194.17,49.02z"/>
				<path d="M203.55,49.02c-0.11,0-0.22-0.06-0.26-0.17c-0.07-0.15,0-0.32,0.14-0.38l5.97-2.71l-5.97-2.72
					c-0.15-0.07-0.21-0.24-0.14-0.38c0.07-0.15,0.24-0.21,0.38-0.14l6.55,2.99c0.1,0.05,0.17,0.15,0.17,0.26
					c0,0.11-0.07,0.22-0.17,0.26L203.67,49C203.63,49.01,203.59,49.02,203.55,49.02z"/>
				<path d="M196.14,52.51c-0.03,0-0.07-0.01-0.1-0.02c-0.15-0.06-0.22-0.22-0.17-0.37l5.1-13.34c0.06-0.15,0.22-0.22,0.37-0.17
					c0.15,0.06,0.22,0.22,0.17,0.37l-5.1,13.34C196.37,52.44,196.26,52.51,196.14,52.51z"/>
			</g>
		</g>
		<g>
			<g>
				<path d="M172.38,219.54c-0.11,0-0.22-0.06-0.26-0.17c-0.06-0.15,0-0.32,0.15-0.38c14.91-6.61,28.44-17.31,39.11-30.95
					c0.1-0.13,0.28-0.15,0.41-0.05c0.13,0.1,0.15,0.28,0.05,0.41c-10.73,13.72-24.34,24.48-39.34,31.13
					C172.46,219.53,172.42,219.54,172.38,219.54z"/>
				<path d="M170.95,227.16c-0.12,0-0.22-0.07-0.27-0.18c-0.06-0.15,0.02-0.32,0.17-0.37c14.35-5.57,27.2-14.39,38.2-26.23
					c0.11-0.12,0.29-0.12,0.41-0.01c0.12,0.11,0.12,0.29,0.01,0.41c-11.06,11.9-23.99,20.78-38.42,26.37
					C171.02,227.15,170.99,227.16,170.95,227.16z"/>
			</g>
			<g>
				<path d="M122.14,11.22c-0.13,0-0.25-0.09-0.28-0.22c-0.04-0.16,0.06-0.31,0.22-0.35c14.93-3.44,29.72-3.67,43.96-0.69
					c0.16,0.03,0.26,0.19,0.22,0.34c-0.03,0.16-0.19,0.26-0.34,0.22c-14.16-2.97-28.87-2.74-43.71,0.68
					C122.18,11.22,122.16,11.22,122.14,11.22z"/>
				<path d="M171.59,5.19c-0.02,0-0.05,0-0.07-0.01c-12.2-3.16-24.97-3.96-37.96-2.38c-0.16,0.02-0.3-0.09-0.32-0.25
					c-0.02-0.16,0.09-0.3,0.25-0.32c13.06-1.6,25.9-0.79,38.17,2.39c0.15,0.04,0.25,0.2,0.21,0.35
					C171.84,5.1,171.72,5.19,171.59,5.19z"/>
			</g>
			<circle cx="165.38" cy="220.16" r="1.93"/>
			<g>
				<path d="M45.27,101.09c-0.07,0-0.14-0.03-0.2-0.08c-0.12-0.11-0.12-0.29-0.01-0.41l1.06-1.11c0.11-0.12,0.29-0.12,0.41-0.01
					c0.12,0.11,0.12,0.29,0.01,0.41L45.48,101C45.42,101.06,45.35,101.09,45.27,101.09z"/>
				<path d="M41.55,104.98c-0.07,0-0.14-0.03-0.2-0.08c-0.12-0.11-0.12-0.29-0.01-0.41l1.06-1.11c0.11-0.12,0.29-0.12,0.41-0.01
					c0.12,0.11,0.12,0.29,0.01,0.41l-1.06,1.11C41.7,104.95,41.63,104.98,41.55,104.98z"/>
				<path d="M42.59,101.15c-0.07,0-0.15-0.03-0.2-0.08L41.31,100c-0.11-0.11-0.12-0.29,0-0.41c0.11-0.11,0.3-0.12,0.41,0l1.08,1.06
					c0.11,0.11,0.12,0.29,0,0.41C42.74,101.12,42.67,101.15,42.59,101.15z"/>
				<path d="M46.37,104.87c-0.07,0-0.15-0.03-0.2-0.08l-1.08-1.06c-0.11-0.11-0.12-0.3,0-0.41c0.11-0.11,0.3-0.11,0.41,0l1.08,1.06
					c0.11,0.11,0.12,0.3,0,0.41C46.52,104.84,46.45,104.87,46.37,104.87z"/>
			</g>
			<path d="M177.45,10.53c-0.35,0-0.69-0.06-1.03-0.19c-0.72-0.28-1.29-0.83-1.61-1.56c-0.64-1.47,0.02-3.2,1.47-3.85
				c0.7-0.31,1.47-0.33,2.18-0.06c0.72,0.28,1.29,0.83,1.61,1.56c0.64,1.47-0.02,3.2-1.47,3.85
				C178.24,10.45,177.84,10.53,177.45,10.53z M177.45,5.26c-0.31,0-0.63,0.07-0.92,0.2c-1.16,0.52-1.69,1.91-1.18,3.1
				c0.25,0.58,0.71,1.02,1.28,1.25c0.57,0.22,1.18,0.2,1.74-0.04c1.16-0.52,1.69-1.91,1.18-3.1c-0.25-0.58-0.71-1.02-1.28-1.25
				C178,5.31,177.72,5.26,177.45,5.26z M176.41,5.19L176.41,5.19L176.41,5.19z"/>
		</g>
	</g>
</g>
</svg>
