<?xml version="1.0" encoding="utf-8"?>
<!-- Generator: Adobe Illustrator 26.1.0, SVG Export Plug-In . SVG Version: 6.00 Build 0)  -->
<svg version="1.1" id="Layer_1" xmlns="http://www.w3.org/2000/svg" xmlns:xlink="http://www.w3.org/1999/xlink" x="0px" y="0px"
	 viewBox="0 0 299 232" style="enable-background:new 0 0 299 232;" xml:space="preserve">
<style type="text/css">
	.st0{fill:#FFFFFF;}
	.st1{fill:#1955CC;}
</style>
<path d="M263.9,215.8H161.7c-4.4,0-7.5-3.6-7-7.9L179.9,9.1c0.6-4.4,4.6-7.9,9-7.9L285.9,0C297,0,298.6,4.7,298,9.1l-25.2,198.8
	C272.3,212.2,268.3,215.8,263.9,215.8z"/>
<path class="st0" d="M257.7,215.8H155.5c-4.4,0-7.5-3.6-7-8L173.7,8.4c0.6-4.4,4.6-8,9-8h102.2c4.4,0,7.5,3.6,7,8l-25.2,199.4
	C266.1,212.2,262.1,215.8,257.7,215.8z"/>
<path d="M257.7,216.1H155.5c-2.2,0-4.2-0.9-5.5-2.4c-1.4-1.6-2-3.7-1.7-5.9L173.4,8.4c0.6-4.5,4.7-8.2,9.3-8.2h102.2
	c2.2,0,4.2,0.9,5.5,2.4c1.4,1.6,2,3.7,1.7,5.9L267,207.9C266.4,212.4,262.2,216.1,257.7,216.1z M182.7,0.7c-4.3,0-8.2,3.5-8.7,7.7
	l-25.2,199.4c-0.3,2.1,0.3,4,1.6,5.4c1.3,1.4,3.1,2.2,5.1,2.2h102.2c4.3,0,8.2-3.5,8.7-7.7L291.6,8.4c0.3-2.1-0.3-4-1.6-5.4
	c-1.3-1.4-3.1-2.2-5.1-2.2H182.7z"/>
<path d="M258.7,210.2H156c-0.6,0-1.1-0.2-1.4-0.6s-0.5-0.9-0.4-1.5l24-190.4c0.1-1.1,1.2-2.1,2.4-2.1h102.7c0.6,0,1.1,0.2,1.4,0.6
	c0.4,0.4,0.5,0.9,0.4,1.5l-24,190.4C260.9,209.3,259.9,210.2,258.7,210.2z M180.5,16.1c-0.9,0-1.7,0.7-1.8,1.6l-24,190.4
	c-0.1,0.4,0.1,0.8,0.3,1.1s0.6,0.4,1,0.4h102.8c0.9,0,1.7-0.7,1.8-1.6l24-190.4c0-0.4-0.1-0.8-0.3-1.1s-0.6-0.4-1-0.4H180.5z"/>
<path d="M234.8,9.7c1.3-1.2,1.5-3.1,0.4-4.2c-1.1-1.1-3-1.1-4.2,0.1c-1.3,1.2-1.5,3.1-0.4,4.2C231.6,10.9,233.5,10.9,234.8,9.7z"/>
<path class="st0" d="M274.5,30.2h-105c-3.8,0-7.3,3.1-7.8,7l-10,78.2c-0.5,3.8,2.2,7,6,7h105c3.8,0,7.3-3.1,7.8-7l10-78.2
	C281,33.4,278.3,30.2,274.5,30.2z"/>
<path d="M262.7,122.7h-105c-1.9,0-3.6-0.8-4.8-2.1c-1.2-1.4-1.8-3.2-1.5-5.2l10-78.2c0.5-4,4.1-7.2,8.1-7.2h105
	c1.9,0,3.6,0.8,4.8,2.1c1.2,1.4,1.8,3.2,1.5,5.2l-10,78.2C270.3,119.5,266.7,122.7,262.7,122.7z M169.4,30.5c-3.7,0-7.1,3-7.5,6.7
	l-10,78.2c-0.2,1.8,0.2,3.5,1.4,4.7c1.1,1.2,2.6,1.9,4.4,1.9h105c3.7,0,7.1-3,7.5-6.7l10-78.2c0.2-1.8-0.2-3.5-1.4-4.7
	c-1.1-1.2-2.6-1.9-4.4-1.9H169.4z"/>
<path d="M274.4,42H166.6c-0.2,0-0.3-0.1-0.3-0.3s0.1-0.3,0.3-0.3h107.9c0.2,0,0.3,0.1,0.3,0.3C274.7,41.8,274.6,42,274.4,42z"/>
<path class="st0" d="M174.2,35.6c-0.1,1-1,1.8-2,1.8c-1,0-1.7-0.8-1.6-1.8c0.1-1,1-1.8,2-1.8S174.3,34.6,174.2,35.6z"/>
<path class="st0" d="M181.3,35.6c-0.1,1-1,1.8-2,1.8c-1,0-1.7-0.8-1.6-1.8c0.1-1,1-1.8,2-1.8S181.4,34.6,181.3,35.6z"/>
<path class="st0" d="M188.4,35.6c-0.1,1-1,1.8-2,1.8c-1,0-1.7-0.8-1.6-1.8c0.1-1,1-1.8,2-1.8S188.5,34.6,188.4,35.6z"/>
<path d="M275.3,35.9h-10c-0.2,0-0.3-0.1-0.3-0.3s0.1-0.3,0.3-0.3h10c0.2,0,0.3,0.1,0.3,0.3C275.6,35.8,275.4,35.9,275.3,35.9z"/>
<path d="M260.8,35.9h-48.4c-0.2,0-0.3-0.1-0.3-0.3s0.1-0.3,0.3-0.3h48.4c0.2,0,0.3,0.1,0.3,0.3C261,35.8,260.9,35.9,260.8,35.9z"/>
<path d="M201.5,35.9h-8.8c-0.2,0-0.3-0.1-0.3-0.3s0.1-0.3,0.3-0.3h8.8c0.2,0,0.3,0.1,0.3,0.3C201.8,35.8,201.6,35.9,201.5,35.9z"/>
<path class="st0" d="M261.1,109.3h-99.8l7.8-60.8h99.8L261.1,109.3z"/>
<path d="M261.1,109.6h-99.8c-0.1,0-0.2,0-0.2-0.1c0-0.1-0.1-0.1-0.1-0.2l7.8-60.8c0-0.1,0.1-0.2,0.3-0.2h99.8c0.1,0,0.2,0,0.2,0.1
	c0.1,0.1,0.1,0.1,0.1,0.2l-7.8,60.8C261.3,109.5,261.2,109.6,261.1,109.6z M161.6,109h99.2l7.7-60.2h-99.2L161.6,109z"/>
<path class="st0" d="M20.6,107c-13.5,2.9-20,27.8-20.3,43.9c-0.5,27.4,16.7,53.7,40.4,66.4c31.5,16.8,78.4,11.6,93.9-15.7
	c9.2-16.3,8-41.7-4.9-51.9c-12.9-10.2-26.1,3.8-50.7-2.5C45,138.5,37.5,103.4,20.6,107z"/>
<path d="M80.7,227.2c-14.2,0-28.3-3.3-40.1-9.7c-24.7-13.2-41-39.9-40.5-66.6c0.2-8.9,2.1-19,5.2-27c2.7-6.9,7.5-15.5,15.3-17.2
	c8-1.7,13.9,5.1,21.4,13.6c8.5,9.8,19.1,21.9,37.2,26.6c11.8,3,20.7,1.4,28.7-0.1c8.6-1.6,15.3-2.8,22.1,2.6
	c6.1,4.8,10,13.5,10.8,23.9c0.8,10-1.3,20.4-5.9,28.4c-3.8,6.6-9.4,12.2-16.9,16.4c-6.9,4-15.3,6.8-24.3,8.1
	C89.4,226.9,85,227.2,80.7,227.2z M20.6,107l0.1,0.3c-7.5,1.6-12.2,10-14.9,16.8c-3.1,7.9-5,17.9-5.2,26.8
	c-0.5,26.5,15.7,53,40.2,66.1c15.4,8.2,34.6,11.3,52.8,8.6c18.7-2.8,33.6-11.6,40.7-24.2c4.5-7.9,6.6-18.1,5.8-28.1
	c-0.8-10.2-4.7-18.8-10.6-23.5c-6.6-5.2-13.2-4-21.6-2.5c-8,1.4-17,3.1-28.9,0.1c-18.3-4.7-28.9-16.9-37.5-26.7
	c-7.4-8.4-13.2-15.1-20.8-13.5L20.6,107z"/>
<path class="st0" d="M98.5,226.9c0,0,11.8,4.9,20.2,4.8c1.4,0,2.3-1.5,1.7-2.8c-0.3-0.7-0.9-1.7-1.7-2.9
	c-2.9-4.4-15.4-11.5-15.4-11.5l-2,0.9c-0.7,0.3-1,1.2-0.6,1.8l0.5,0.9h-3.4c-0.8,0-1.4,0.6-1.3,1.4
	C96.7,221.1,97.1,223.8,98.5,226.9z"/>
<path d="M118.5,231.9c-8.3,0-20-4.8-20.1-4.8c-0.1,0-0.1-0.1-0.2-0.1c-1.4-3.1-1.9-5.8-1.9-7.5c0-0.4,0.1-0.9,0.4-1.2
	c0.3-0.3,0.7-0.5,1.2-0.5h2.9l-0.3-0.5c-0.2-0.4-0.3-0.9-0.1-1.3c0.1-0.4,0.5-0.8,0.9-0.9l2-0.9c0.1,0,0.2,0,0.2,0
	c0.5,0.3,12.6,7.2,15.5,11.6c0.7,1.1,1.3,2.1,1.7,2.9c0.3,0.7,0.3,1.5-0.1,2.1c-0.4,0.6-1.1,1-1.9,1
	C118.7,231.9,118.6,231.9,118.5,231.9z M98.7,226.6c1.2,0.5,12,4.7,19.8,4.7c0.1,0,0.1,0,0.2,0c0.6,0,1.1-0.3,1.4-0.8
	c0.3-0.5,0.3-1.1,0.1-1.6c-0.4-0.8-0.9-1.8-1.6-2.8c-2.7-4-13.9-10.6-15.2-11.3l-1.9,0.8c-0.3,0.1-0.5,0.3-0.6,0.6
	c-0.1,0.3-0.1,0.6,0.1,0.8l0.5,0.9c0,0.1,0,0.2,0,0.3c-0.1,0.1-0.2,0.1-0.2,0.1h-3.4c-0.3,0-0.6,0.1-0.8,0.3
	c-0.2,0.2-0.3,0.5-0.3,0.8C97,221.1,97.4,223.7,98.7,226.6z"/>
<path d="M119.2,229.7C119.1,229.7,119.1,229.7,119.2,229.7c-9.2-0.6-20-4.7-20.1-4.7c-0.1-0.1-0.2-0.2-0.2-0.4
	c0.1-0.1,0.2-0.2,0.4-0.2c0.1,0,10.8,4.1,19.9,4.7c0.2,0,0.3,0.2,0.3,0.3C119.4,229.6,119.3,229.7,119.2,229.7z"/>
<path d="M111.2,224.9c-0.1,0-0.1,0-0.1,0c-0.1-0.1-0.2-0.3-0.1-0.4l1.8-3.1c0.1-0.1,0.2-0.2,0.4-0.1s0.2,0.3,0.1,0.4l-1.8,3.1
	C111.4,224.8,111.3,224.9,111.2,224.9z"/>
<path d="M107.1,223.6c0,0-0.1,0-0.1,0c-0.1-0.1-0.2-0.3-0.1-0.4l2.3-3.9c0.1-0.1,0.2-0.2,0.4-0.1c0.1,0.1,0.2,0.3,0.1,0.4l-2.3,3.9
	C107.3,223.6,107.2,223.6,107.1,223.6z"/>
<path d="M61.6,151.2c0.4-0.4,26.1-11.5,36.7-13.9c10.5-2.4,14.5-2.4,18.1,3.6c3.6,6-17.3,38.9-17.3,38.9l-44.4-11.6L61.6,151.2z"/>
<path class="st0" d="M86.5,163.9c0,0-0.1,0-0.1,0c-0.1-0.1-0.2-0.2-0.1-0.4c5-11.1,13.2-19,13.2-19.1c0.1-0.1,0.3-0.1,0.4,0
	c0.1,0.1,0.1,0.3,0,0.4c-0.1,0.1-8.2,7.9-13.1,18.9C86.8,163.9,86.7,163.9,86.5,163.9z"/>
<path d="M40.5,165.9c0,0,0,6.3,6,12.2c7.5,7.4,31.5,2.3,31.5,2.3s2.5,4.1,4.1,14.9s3.4,25.4,6.1,28.9l23.3-5c0,0-7.7-46.3-13.1-52.6
	c-5.4-6.3-44.4-7.3-44.4-7.3L40.5,165.9z"/>
<path class="st0" d="M101,172.5c-0.1,0-0.2-0.1-0.3-0.2c-1-2.8-1.9-4.7-2.6-5.6c-3.6-4.2-29.7-6.4-37.6-6.9c-0.2,0-0.3-0.1-0.3-0.3
	c0-0.2,0.2-0.3,0.3-0.3c10.2,0.7,34.4,2.9,38,7.1c0.8,1,1.7,2.9,2.7,5.8C101.3,172.2,101.2,172.4,101,172.5
	C101,172.5,101,172.5,101,172.5z"/>
<path d="M70,144.1c0.1-0.4,12-18.5,12-18.5l2.9,2.1l-10.9,17L70,144.1z"/>
<path class="st0" d="M28.9,163.6c0,0-4.2-5.8-2.5-18.9c1.7-13.1,5.9-19.9,10.3-21.4c4.4-1.6,22.4,1.3,23.8,23.2L28.9,163.6z"/>
<path d="M28.9,163.9c-0.1,0-0.2,0-0.2-0.1c-0.2-0.2-4.2-6.1-2.5-19.1c1.6-11.9,5.4-19.8,10.5-21.6c2.3-0.8,8.3-0.4,13.7,3.1
	c4.4,2.9,9.7,8.7,10.5,20.4c0,0.1-0.1,0.2-0.2,0.3L29,163.8C29,163.9,29,163.9,28.9,163.9z M39.3,123.2c-1,0-1.9,0.1-2.5,0.3
	c-4.8,1.7-8.6,9.6-10.1,21.2c-1.5,11.4,1.6,17.3,2.3,18.5l31.2-16.9c-0.8-11.3-6-17-10.2-19.8C46.2,124.1,42.1,123.2,39.3,123.2z"/>
<path d="M41.5,154.4c-0.1,0-0.3-0.1-0.3-0.3l-0.9-12.3c0-0.2,0.1-0.3,0.3-0.3c0.2,0,0.3,0.1,0.3,0.3l0.9,12.3
	C41.8,154.3,41.7,154.4,41.5,154.4C41.5,154.4,41.5,154.4,41.5,154.4z"/>
<path class="st0" d="M27.4,160.2c0,0,1.5,11,16.9,7.3c15.3-3.7,23.3-17.9,23.3-17.9s8.9-1.9,8.6-7.7c0,0-3,0.8-5.5,0
	c-2.5-0.8-5.3,0-6.4,1C57.1,149.7,33.9,151.7,27.4,160.2z"/>
<path d="M38.4,168.6c-2.9,0-5.3-0.7-7.2-2c-3.6-2.4-4.1-6.2-4.1-6.3c0-0.1,0-0.2,0.1-0.2c3.6-4.7,12.1-7.4,20.3-10
	c6.9-2.2,13.4-4.3,16.6-7.3c1.2-1.1,4.1-1.9,6.6-1.1c2.4,0.8,5.3,0,5.4,0c0.1,0,0.2,0,0.2,0c0.1,0.1,0.1,0.1,0.1,0.2
	c0.3,5.7-7.6,7.7-8.7,8c-0.8,1.4-8.9,14.5-23.5,18C42.2,168.3,40.2,168.6,38.4,168.6z M27.7,160.3c0.1,0.6,0.9,3.8,3.9,5.8
	c3,2,7.2,2.4,12.6,1.1c15-3.6,23.1-17.7,23.2-17.8c0-0.1,0.1-0.1,0.2-0.1c0.1,0,8.3-1.9,8.4-7.1c-0.9,0.2-3.2,0.6-5.3-0.1
	c-2.5-0.8-5.1,0.1-6.1,0.9c-3.3,3.1-9.9,5.2-16.9,7.5C39.6,153.1,31.2,155.8,27.7,160.3z"/>
<path d="M70.8,144.6c-0.2,0-0.5,0-0.8,0c-0.2,0-0.3-0.1-0.3-0.3c0-0.2,0.1-0.3,0.3-0.3c4.5,0.2,5.9-1.3,6-1.3c0.1-0.1,0.3-0.1,0.4,0
	c0.1,0.1,0.1,0.3,0,0.4C76.3,143.2,74.9,144.6,70.8,144.6z"/>
<path d="M70.3,146.8c-0.1,0-0.2,0-0.3,0c-0.2,0-0.3-0.1-0.3-0.3c0-0.2,0.1-0.3,0.3-0.3c0,0,0,0,0,0c3.8,0.1,5.1-1.3,5.1-1.3
	c0.1-0.1,0.3-0.1,0.4,0c0.1,0.1,0.1,0.3,0,0.4C75.5,145.3,74.2,146.8,70.3,146.8z"/>
<path class="st0" d="M43.9,114.6c-0.1,0.2-4.5,7.6-4.5,7.6l-3,2c1.1,0.8,3.1,2.1,5.8,2.8c2.8,0.7,5.2,0.6,6.5,0.4
	c-0.1-0.4-0.3-0.9-0.7-1.4c-0.5-0.8-1.2-1.3-1.6-1.6c0.9-1.5,1.8-3.1,2.7-4.6L43.9,114.6z"/>
<path d="M46.5,127.9c-1.5,0-2.9-0.2-4.3-0.6c-2.1-0.6-4.1-1.5-5.9-2.9c-0.1-0.1-0.1-0.1-0.1-0.2c0-0.1,0-0.2,0.1-0.2l2.9-2
	c1.5-2.6,4.3-7.4,4.4-7.6c0-0.1,0.1-0.1,0.2-0.2c0.1,0,0.2,0,0.2,0.1l5.3,5.3c0.1,0.1,0.1,0.2,0,0.3l-2.5,4.4
	c0.6,0.4,1.1,0.9,1.5,1.5c0.3,0.4,0.5,0.9,0.7,1.5c0,0.1,0,0.2,0,0.2c0,0.1-0.1,0.1-0.2,0.1C48.1,127.8,47.3,127.9,46.5,127.9z
	 M37,124.2c1.6,1.2,3.4,2,5.4,2.5c2,0.5,4,0.7,6.1,0.4c-0.1-0.4-0.3-0.7-0.5-1c-0.4-0.6-0.9-1.1-1.5-1.5c-0.1-0.1-0.2-0.2-0.1-0.4
	l2.6-4.4L44,115c-0.8,1.4-4.1,7-4.3,7.3c0,0,0,0.1-0.1,0.1L37,124.2z"/>
<path d="M51.6,103.1c-2.6-0.3-3.7,2.4-6.7,1.9c-1.4-0.2-2-0.9-3.3-0.7c-0.9,0.2-2.3,0.8-2.8,2c-0.6,1.5,1,2.3,2,5.8
	c0.6,2.4,0.3,3.9,1.3,4.3c0.9,0.4,1.8-0.8,2.8-0.4c1.4,0.5,0.9,2.9,2.2,4c0.9,0.8,3.2,1.2,7.1-0.6c-0.2-0.7-0.4-2.1-0.8-3.5
	c-1.2-4.1-2.6-5.1-2-6.1c0.9-1.5,3.9-0.4,4.5-1.7C56.4,106.7,54.2,103.4,51.6,103.1z"/>
<path class="st0" d="M45.6,109.2l1,0.8c0,0,0.7,4.1,1.2,5.4s4.9,0.1,4.9,0.1l0.3-0.8l1.2-0.4c0,0-2.3-3.5-2.8-6.5
	C51.4,107.8,48.4,106.7,45.6,109.2z"/>
<path d="M45.9,109.2c0.3,0.2,0.6,0.4,0.9,0.6c0,0.1,0.1,0.1,0.1,0.2c0.1,0.9,0.3,1.8,0.5,2.6c0.2,0.9,0.4,1.8,0.7,2.6l0,0.2
	c0,0,0,0.1,0,0.1c0,0,0.1,0.1,0.2,0.2c0.1,0.1,0.3,0.1,0.5,0.2c0.4,0.1,0.8,0,1.3,0c0.9-0.1,1.7-0.3,2.6-0.5l-0.2,0.2l0.3-0.8l0,0
	c0-0.1,0.1-0.1,0.2-0.2l1.2-0.3l-0.1,0.3c-0.6-1-1.2-2.1-1.7-3.2c-0.5-1.1-0.9-2.2-1.2-3.4l0.2,0.2c-0.5-0.1-1-0.2-1.5-0.2
	c-0.5,0-1,0.1-1.5,0.2c-0.5,0.1-1,0.3-1.4,0.5c-0.2,0.1-0.4,0.2-0.6,0.4c-0.1,0.1-0.1,0.1-0.2,0.2C46.1,109.1,46,109.1,45.9,109.2z
	 M45.3,109.2c0.1-0.1,0.2-0.3,0.4-0.4c0.1-0.1,0.3-0.3,0.4-0.3c0.2-0.2,0.5-0.3,0.7-0.4c0.5-0.3,1-0.5,1.5-0.6s1.1-0.2,1.6-0.2
	c0.5,0,1.1,0.1,1.6,0.2c0.1,0,0.2,0.1,0.2,0.2v0c0.2,1.1,0.6,2.2,1.1,3.3c0.5,1.1,1,2.1,1.6,3.1c0.1,0.1,0,0.2-0.1,0.3c0,0,0,0,0,0
	h0l-1.2,0.5l0.2-0.2l-0.3,0.8c0,0.1-0.1,0.1-0.2,0.2c-0.9,0.2-1.8,0.4-2.7,0.5c-0.5,0-0.9,0.1-1.4,0c-0.2,0-0.5-0.1-0.7-0.3
	c-0.1-0.1-0.2-0.2-0.3-0.3c0-0.1-0.1-0.1-0.1-0.2l-0.1-0.2c-0.3-0.9-0.5-1.8-0.7-2.6c-0.2-0.9-0.3-1.8-0.5-2.7l0.1,0.2
	C46,109.9,45.6,109.5,45.3,109.2z"/>
<path class="st0" d="M46.1,112.8c0,0-1.2-2.6-2.2-1.8C42.9,111.8,44.2,114.6,46.1,112.8z"/>
<path d="M44.9,113.7c-0.2,0-0.4,0-0.5-0.1c-0.6-0.2-1-0.8-1.1-1.5c-0.1-0.6,0.1-1,0.5-1.3c0.3-0.2,0.5-0.2,0.8-0.2
	c1,0.2,1.7,1.9,1.8,2.1c0,0.1,0,0.2-0.1,0.3C45.8,113.5,45.3,113.7,44.9,113.7z M44.3,111.2c-0.1,0-0.2,0-0.2,0.1
	c-0.3,0.2-0.3,0.6-0.2,0.8c0.1,0.5,0.4,0.9,0.8,1c0.3,0.1,0.8,0,1.2-0.3c-0.3-0.6-0.9-1.4-1.3-1.6C44.4,111.2,44.4,111.2,44.3,111.2
	z"/>
<path d="M27.4,189.3c0,0-0.1,0-0.1,0c-0.1-0.1-0.2-0.2-0.1-0.4c3.2-7.7,13.8-9.2,13.9-9.2c0.2,0,0.3,0.1,0.3,0.2
	c0,0.2-0.1,0.3-0.2,0.3c-0.1,0-10.4,1.5-13.4,8.8C27.6,189.2,27.5,189.3,27.4,189.3z"/>
<path d="M41.8,194c-0.1,0-0.3-0.1-0.3-0.3c-0.8-7.4,3.6-12.3,3.6-12.4c0.1-0.1,0.3-0.1,0.4,0c0.1,0.1,0.1,0.3,0,0.4
	c0,0.1-4.2,4.8-3.5,11.9C42.1,193.9,42,194,41.8,194C41.8,194,41.8,194,41.8,194z"/>
<path class="st0" d="M205.4,105.3c1.9-2.2,22.9-27.9,9.7-57.3c-9.3-20.6-32.8-37.3-60.2-38.2c-4.6-0.1-33.7-1.1-49.3,18.4
	C95,41.4,93.9,59.8,104.1,73.1c12.2,15.9,35.3,18.2,38.8,18.5c24.1,2,37.4-11,50.5-4.7C201.5,90.8,204.2,99.3,205.4,105.3z"/>
<path d="M205.4,105.6C205.4,105.6,205.3,105.6,205.4,105.6c-0.2,0-0.3-0.1-0.3-0.2c-1.7-9.1-5.7-15.2-11.8-18.1
	c-6.7-3.2-13.3-1.3-21.7,1c-8,2.2-17,4.7-28.7,3.7c-2.4-0.2-8.9-0.9-16.2-3.4c-10-3.3-17.7-8.4-22.8-15.2c-5-6.5-7.5-14.4-7.1-22.7
	c0.3-8,3.4-16,8.6-22.5c14.2-17.7,39.4-18.9,49.6-18.5c13.1,0.4,25.9,4.5,37,11.8c10.5,6.9,18.8,16.3,23.4,26.6
	c5.6,12.3,5.8,25.5,0.8,39c-3.8,10.3-9.4,17.3-10.5,18.5C205.5,105.5,205.4,105.6,205.4,105.6z M185.5,84.9c2.7,0,5.4,0.5,8,1.8
	c6.1,2.9,10.2,9,12,18c1.7-2,6.6-8.6,10.1-17.9c5-13.4,4.7-26.4-0.8-38.6c-9.8-21.9-33.9-37.2-59.9-38c-10.1-0.3-35.1,0.8-49.1,18.3
	C95.1,41.8,94.5,60.1,104.3,73c11.7,15.3,34.2,18,38.6,18.3c11.6,1,20.6-1.5,28.5-3.7C176.6,86.2,181.2,84.9,185.5,84.9z"/>
<path class="st0" d="M239.8,205.1c-1.7-3.5-1.9-7,0-10.5l-1.3-1.6l-36.4,1.2l1.2,11.6l35.2,0.4L239.8,205.1z"/>
<path d="M238.5,206.4C238.5,206.4,238.5,206.4,238.5,206.4l-35.2-0.4c-0.1,0-0.3-0.1-0.3-0.2l-1.2-11.6c0-0.1,0-0.2,0.1-0.2
	c0-0.1,0.1-0.1,0.2-0.1l36.4-1.2c0.1,0,0.2,0,0.2,0.1l1.3,1.6c0.1,0.1,0.1,0.2,0,0.3c-1.7,3.3-1.7,6.7,0,10.3c0.1,0.1,0,0.3-0.1,0.3
	l-1.2,1C238.7,206.4,238.6,206.4,238.5,206.4z M203.6,205.4l34.8,0.4l1-0.8c-1.7-3.6-1.7-7.1,0-10.4l-1.1-1.3l-35.9,1.2L203.6,205.4
	z"/>
<path class="st0" d="M173,191.7h47.9h19.6c0.8,0,1.4,0.6,1.4,1.4c0,0.8-0.6,1.4-1.4,1.4h-31c-2.3,0-4.1,1.8-4.1,4.1v2.3
	c0,2.3,1.8,4.1,4.1,4.1h31c0.8,0,1.4,0.6,1.4,1.4c0,0.8-0.6,1.4-1.4,1.4H173c-4.2,0-7.6-3.4-7.6-7.6v-1.1
	C165.4,195.1,168.8,191.7,173,191.7z"/>
<path d="M240.4,208.2H173c-4.3,0-7.9-3.5-7.9-7.9v-1.1c0-4.3,3.5-7.9,7.9-7.9h67.5c0.9,0,1.7,0.8,1.7,1.7c0,0.9-0.8,1.7-1.7,1.7h-31
	c-2.1,0-3.8,1.7-3.8,3.8v2.3c0,2.1,1.7,3.8,3.8,3.8h31c0.9,0,1.7,0.8,1.7,1.7C242.1,207.4,241.4,208.2,240.4,208.2z M173,192
	c-4,0-7.3,3.3-7.3,7.3v1.1c0,4,3.3,7.3,7.3,7.3h67.5c0.6,0,1.1-0.5,1.1-1.1s-0.5-1.1-1.1-1.1h-31c-2.4,0-4.4-2-4.4-4.4v-2.3
	c0-2.4,2-4.4,4.4-4.4h31c0.6,0,1.1-0.5,1.1-1.1s-0.5-1.1-1.1-1.1L173,192L173,192z"/>
<path d="M238.4,199.6h-16.6c-0.2,0-0.3-0.1-0.3-0.3s0.1-0.3,0.3-0.3h16.6c0.2,0,0.3,0.1,0.3,0.3S238.6,199.6,238.4,199.6z"/>
<path d="M220.6,202.7h-3c-0.2,0-0.3-0.1-0.3-0.3s0.1-0.3,0.3-0.3h3c0.2,0,0.3,0.1,0.3,0.3S220.8,202.7,220.6,202.7z"/>
<path d="M238.6,202.7h-16.6c-0.2,0-0.3-0.1-0.3-0.3s0.1-0.3,0.3-0.3h16.6c0.2,0,0.3,0.1,0.3,0.3S238.7,202.7,238.6,202.7z"/>
<path class="st0" d="M238.7,224.5h-60.9v-14.9h60.9C236.9,214.6,236.9,219.6,238.7,224.5z"/>
<path d="M238.7,224.8h-60.9c-0.2,0-0.3-0.1-0.3-0.3v-14.9c0-0.2,0.1-0.3,0.3-0.3h60.9c0.1,0,0.2,0.1,0.2,0.1c0.1,0.1,0.1,0.2,0,0.3
	c-1.8,5-1.8,10,0,14.7c0,0.1,0,0.2,0,0.3C238.9,224.8,238.8,224.8,238.7,224.8z M178.1,224.2h60.2c-1.6-4.7-1.6-9.5,0-14.4h-60.3
	V224.2z"/>
<path class="st1" d="M185.1,210.3h54c0.6,0,1.2-0.5,1.2-1.2c0-0.6-0.5-1.2-1.2-1.2H169c-2.9,0-5.2,2.3-5.2,5.2v8.1
	c0,2.9,2.3,5.2,5.2,5.2h70.1c0.6,0,1.2-0.5,1.2-1.2c0-0.6-0.5-1.2-1.2-1.2h-54c-2,0-3.6-1.6-3.6-3.7V214
	C181.5,212,183.1,210.3,185.1,210.3z"/>
<path d="M239.1,226.7H169c-3,0-5.5-2.4-5.5-5.5v-8.1c0-3,2.4-5.5,5.5-5.5h70.1c0.8,0,1.5,0.7,1.5,1.5c0,0.8-0.7,1.5-1.5,1.5h-54
	c-1.9,0-3.4,1.5-3.4,3.4v6.5c0,1.9,1.5,3.4,3.4,3.4h54c0.8,0,1.5,0.7,1.5,1.5C240.6,226.1,239.9,226.7,239.1,226.7z M169,208.3
	c-2.7,0-4.9,2.2-4.9,4.9v8.1c0,2.7,2.2,4.9,4.9,4.9h70.1c0.5,0,0.9-0.4,0.9-0.9c0-0.5-0.4-0.9-0.9-0.9h-54c-2.2,0-3.9-1.8-3.9-3.9
	V214c0-2.2,1.8-3.9,3.9-3.9h54c0.5,0,0.9-0.4,0.9-0.9s-0.4-0.9-0.9-0.9L169,208.3L169,208.3z"/>
<path d="M237.6,213.4h-9c-0.2,0-0.3-0.1-0.3-0.3c0-0.2,0.1-0.3,0.3-0.3h9c0.2,0,0.3,0.1,0.3,0.3
	C237.9,213.3,237.8,213.4,237.6,213.4z"/>
<path d="M227.1,213.4h-16.4c-0.2,0-0.3-0.1-0.3-0.3c0-0.2,0.1-0.3,0.3-0.3h16.4c0.2,0,0.3,0.1,0.3,0.3
	C227.4,213.3,227.2,213.4,227.1,213.4z"/>
<path d="M237.4,215.4H215c-0.2,0-0.3-0.1-0.3-0.3c0-0.2,0.1-0.3,0.3-0.3h22.5c0.2,0,0.3,0.1,0.3,0.3
	C237.7,215.3,237.6,215.4,237.4,215.4z"/>
<path d="M213.1,215.4h-4.6c-0.2,0-0.3-0.1-0.3-0.3c0-0.2,0.1-0.3,0.3-0.3h4.6c0.2,0,0.3,0.1,0.3,0.3
	C213.3,215.3,213.2,215.4,213.1,215.4z"/>
<path d="M237.4,219.6h-23.8c-0.2,0-0.3-0.1-0.3-0.3s0.1-0.3,0.3-0.3h23.8c0.2,0,0.3,0.1,0.3,0.3
	C237.7,219.4,237.6,219.6,237.4,219.6z"/>
<path d="M211.9,219.6h-1.2c-0.2,0-0.3-0.1-0.3-0.3s0.1-0.3,0.3-0.3h1.2c0.2,0,0.3,0.1,0.3,0.3C212.2,219.4,212.1,219.6,211.9,219.6z
	"/>
<path class="st0" d="M251.8,206.3h-24.8c-1.4,0-2.4,1.3-2.1,2.6c1.6,6.5,4,11.8,5.8,15.2c1.3,2.5,3.9,4.1,6.7,4.1h3.8
	c2.8,0,5.4-1.6,6.7-4.1c1.8-3.4,4.2-8.7,5.8-15.2C254.2,207.6,253.2,206.3,251.8,206.3z"/>
<path d="M241.3,228.5h-3.8c-2.9,0-5.6-1.6-7-4.2c-1.8-3.4-4.2-8.8-5.9-15.3c-0.2-0.7,0-1.5,0.4-2.1c0.5-0.6,1.2-0.9,1.9-0.9h24.8
	c0.8,0,1.4,0.3,1.9,0.9c0.5,0.6,0.6,1.3,0.4,2.1c-1.6,6.5-4.1,11.9-5.9,15.3C246.9,226.9,244.2,228.5,241.3,228.5z M226.9,206.6
	c-0.6,0-1.1,0.3-1.4,0.7c-0.4,0.4-0.5,1-0.3,1.6c1.6,6.5,4.1,11.8,5.8,15.1c1.3,2.4,3.8,3.9,6.5,3.9h3.8c2.7,0,5.2-1.5,6.5-3.9
	c1.8-3.3,4.2-8.7,5.8-15.1c0.1-0.6,0-1.1-0.3-1.6c-0.4-0.4-0.9-0.7-1.5-0.7H226.9z"/>
<path class="st0" d="M235.1,143.8c0.1-4.2-0.5-10.8-4.1-17.3c-7.7-13.6-24.4-19.1-26-16.9c-1.2,1.6,4.9,8.1,16.1,20.2
	C226.8,135.8,231.7,140.5,235.1,143.8z"/>
<path d="M235.1,144c-0.1,0-0.1,0-0.2-0.1c-4.8-4.5-9.5-9.2-14-14.1c-12-12.9-17.5-18.7-16.1-20.5c0.3-0.5,1.1-0.6,2.2-0.6
	c5.1,0.3,17.8,6,24.2,17.5c2.9,5.1,4.3,11,4.2,17.5c0,0.1-0.1,0.2-0.2,0.3C235.2,144,235.1,144,235.1,144z M206.5,109.4
	c-0.9,0-1.2,0.2-1.3,0.3c-1,1.4,5.8,8.7,16.1,19.8c4.4,4.7,8.9,9.3,13.5,13.6c0-6.1-1.4-11.6-4.1-16.5
	c-6.4-11.3-18.8-16.9-23.8-17.2C206.8,109.4,206.6,109.4,206.5,109.4z"/>
<path class="st0" d="M236.9,143.9c-0.5-8.5,0.2-15.4,0.9-20.2c2.8-17.9,9.5-27.1,11-29.1c1.1-1.5,6.6-8.6,8.9-7.5
	c2,0.9,0.9,7.6-1,17.5c-1.7,9.2-2.5,13.7-4.3,18C250.6,127.3,246.3,135.7,236.9,143.9z"/>
<path d="M236.9,144.2c0,0-0.1,0-0.1,0c-0.1,0-0.2-0.1-0.2-0.2c-0.4-6.8-0.1-13.6,0.9-20.2c2.6-16.6,8.6-26,11.1-29.3
	c3.1-4,7.2-8.6,9.3-7.6c2.2,1,1.2,6.8-0.8,17.8c-1.7,9.2-2.5,13.8-4.3,18.1c-3.2,8.1-8.5,15.3-15.7,21.5
	C237,144.1,236.9,144.2,236.9,144.2z M257.2,87.2c-1,0-3.3,1.1-8.2,7.5c-2.5,3.2-8.5,12.5-11,29c-1,6.4-1.3,13-0.9,19.5
	c6.9-6,12-13,15.1-20.8c1.7-4.3,2.6-8.9,4.3-18c1.6-8.7,3-16.3,1.1-17.2C257.5,87.2,257.4,87.2,257.2,87.2z"/>
<path class="st0" d="M235.2,145.7c-2.3-2.2-8.1-7.1-15.9-6.8c-3.6,0.1-8.1,1.4-8.1,2.7c0,1.8,7.9,3.5,12.6,4.1
	C228.5,146.2,232.5,146,235.2,145.7z"/>
<path d="M229.6,146.3c-2,0-3.9-0.1-5.9-0.4c-0.1,0-12.9-1.6-12.9-4.3c0-1.7,4.9-2.9,8.4-3c7.4-0.2,13.2,4.2,16.1,6.9
	c0.1,0.1,0.1,0.2,0.1,0.3c0,0.1-0.1,0.2-0.2,0.2C233.3,146.2,231.5,146.3,229.6,146.3z M219.9,139.1c-0.2,0-0.4,0-0.6,0
	c-3.7,0.1-7.9,1.4-7.9,2.5c0,1.3,6.5,3.1,12.4,3.8c3.5,0.4,7.1,0.5,10.7,0.1C231.7,142.9,226.5,139.1,219.9,139.1z"/>
<path class="st0" d="M238.9,149.5c1,1.6,2.5,3.8,4.5,6.2c0.9,1.2,3.7,4.6,7,7.4c5.1,4.3,13.6,9.2,15.3,7.3
	c1.7-1.8-2.4-10.2-8.9-14.4c-2.1-1.4-4.4-2.2-8.2-3.6C244.7,151,241.3,150.1,238.9,149.5z"/>
<path d="M264.5,171.1c-3.2,0-10-4.1-14.3-7.8c-2.2-1.9-4.6-4.4-7-7.4c-1.6-2-3.1-4.1-4.5-6.2c-0.1-0.1-0.1-0.2,0-0.3
	c0.1-0.1,0.2-0.1,0.3-0.1c3.3,0.8,6.6,1.8,9.7,2.9c3.8,1.4,6.1,2.2,8.3,3.6c5,3.2,8.9,9.4,9.3,12.8c0.1,0.9,0,1.6-0.4,2
	C265.6,170.9,265.1,171.1,264.5,171.1z M239.5,150c1.2,1.9,2.6,3.8,4.1,5.6c2.4,3,4.8,5.5,6.9,7.3c5.3,4.5,13.5,8.9,14.9,7.3
	c0.3-0.3,0.4-0.8,0.3-1.5c-0.3-2.9-3.8-9-9.1-12.4c-2.1-1.4-4.3-2.2-8.2-3.6C245.6,151.6,242.6,150.7,239.5,150z"/>
<path d="M239.6,204.2L239.6,204.2c-0.2,0-0.3-0.1-0.3-0.3c1.2-30.4-2.8-57.1-2.9-57.4c0-0.2,0.1-0.3,0.2-0.3c0.1,0,0.3,0.1,0.3,0.2
	c0,0.3,4.1,27.1,2.9,57.5C239.8,204.1,239.7,204.2,239.6,204.2z"/>
<path d="M237.3,204.2c-0.2,0-0.3-0.1-0.3-0.3c0-0.3-2.3-29.8-11.3-47.8c-0.1-0.1,0-0.3,0.1-0.4c0.1-0.1,0.3,0,0.4,0.1
	c9.1,18.1,11.4,47.7,11.4,48C237.6,204.1,237.5,204.2,237.3,204.2C237.3,204.2,237.3,204.2,237.3,204.2z"/>
<path class="st1" d="M225.1,161.6c0.7,0.7,3.8,4.2,3.7,9.4c0,5.2-3,10.2-4.2,9.9C223.5,180.7,223.1,176.6,225.1,161.6z"/>
<path class="st1" d="M224,157.5c-3.1,3.7-8.1,8.8-15.4,13c-8,4.6-18.9,8.2-20.2,6.1c-1-1.7,4.6-6.9,7.4-9.3
	C200,163.9,208.8,158.2,224,157.5z"/>
<path class="st1" d="M223.1,154.3c-3.1-3.6-8.2-8.6-15.8-12c-16.2-7.2-34.8-3.1-35.1,0c-0.2,1.7,5.1,1.7,19.7,8.4
	c9.7,4.5,13.6,7.3,20.2,7C216.9,157.5,220.7,155.8,223.1,154.3z"/>
<path class="st1" d="M226.2,154c3.8-3.8,10.4-9.2,19.9-11.8c5.9-1.6,15.4-2.8,16.3-0.3c1,2.7-7.7,9.6-17,12.3
	C237.4,156.4,230.3,155.1,226.2,154z"/>
<path class="st0" d="M236.4,155.7c-3.3,0-6.8-0.5-10.2-1.5c-0.1,0-0.2-0.1-0.2-0.2c0-0.1,0-0.2,0.1-0.3c5.9-5.8,12.6-9.8,20-11.8
	c4.7-1.3,15.5-3.1,16.7-0.1c0.2,0.5,0.1,1.1-0.3,1.8c-1.7,3.3-9,8.6-17,10.8C242.5,155.3,239.5,155.7,236.4,155.7z M226.8,153.9
	c6.4,1.7,12.6,1.7,18.5,0.1c7.6-2.1,15-7.3,16.6-10.5c0.3-0.6,0.4-1,0.2-1.4c-0.8-2.2-9.9-1.2-16,0.5
	C239,144.5,232.5,148.3,226.8,153.9z"/>
<path d="M71.7,132c-0.1,0-0.1,0-0.2-0.1c-0.1-0.1-0.1-0.3,0-0.4l1.1-1.1c0.1-0.1,0.3-0.1,0.4,0c0.1,0.1,0.1,0.3,0,0.4l-1,1.1
	C71.9,131.9,71.8,132,71.7,132z"/>
<path d="M68.1,135.8c-0.1,0-0.1,0-0.2-0.1c-0.1-0.1-0.1-0.3,0-0.4l1-1.1c0.1-0.1,0.3-0.1,0.4,0s0.1,0.3,0,0.4l-1.1,1.1
	C68.2,135.8,68.1,135.8,68.1,135.8z"/>
<path d="M69.1,132c-0.1,0-0.1,0-0.2-0.1l-1.1-1.1c-0.1-0.1-0.1-0.3,0-0.4s0.3-0.1,0.4,0l1.1,1.1c0.1,0.1,0.1,0.3,0,0.4
	C69.2,132,69.2,132,69.1,132z"/>
<path d="M72.8,135.7c-0.1,0-0.1,0-0.2-0.1l-1.1-1c-0.1-0.1-0.1-0.3,0-0.4s0.3-0.1,0.4,0l1.1,1c0.1,0.1,0.1,0.3,0,0.4
	C73,135.7,72.9,135.7,72.8,135.7z"/>
<path d="M96.2,28.8c-0.1,0-0.1,0-0.1,0l-15.1-8.4c-0.1-0.1-0.2-0.2-0.1-0.4c0.1-0.1,0.2-0.2,0.4-0.1l15.1,8.4
	c0.1,0.1,0.2,0.2,0.1,0.4C96.4,28.8,96.3,28.8,96.2,28.8z"/>
<path d="M101.5,25.2c-0.1,0-0.2,0-0.2-0.1L80.8,4.4c-0.1-0.1-0.1-0.3,0-0.4c0.1-0.1,0.3-0.1,0.4,0l20.4,20.7c0.1,0.1,0.1,0.3,0,0.4
	C101.6,25.2,101.6,25.2,101.5,25.2z"/>
<path d="M107.6,20c-0.1,0-0.2,0-0.2-0.1L97.7,4.1c-0.1-0.1,0-0.3,0.1-0.4c0.1-0.1,0.3,0,0.4,0.1l9.7,15.7c0.1,0.1,0,0.3-0.1,0.4
	C107.7,19.9,107.7,20,107.6,20z"/>
<path d="M112,134.8c-0.1,0-0.2,0-0.2-0.1c-0.1-0.1-0.1-0.3,0.1-0.4c0.5-0.3,0.9-0.7,1.4-1c0.1-0.1,0.3-0.1,0.4,0.1
	c0.1,0.1,0.1,0.3-0.1,0.4c-0.4,0.4-0.9,0.7-1.4,1C112.2,134.8,112.1,134.8,112,134.8z"/>
<path d="M65.2,129c-0.1,0-0.2,0-0.2-0.1c-0.7-0.9-1.4-1.8-2.1-2.8c-0.1-0.1,0-0.3,0.1-0.4c0.1-0.1,0.3,0,0.4,0.1
	c0.6,0.9,1.3,1.9,2.1,2.7c0.1,0.1,0.1,0.3,0,0.4C65.4,129,65.3,129,65.2,129z M61.4,123.3c-0.1,0-0.2,0-0.2-0.2
	c-0.6-1-1.1-2.1-1.5-3.1c-0.1-0.2,0-0.3,0.2-0.4c0.1-0.1,0.3,0,0.4,0.1c0.4,1.1,0.9,2.1,1.5,3.1c0.1,0.1,0,0.3-0.1,0.4
	C61.5,123.3,61.4,123.3,61.4,123.3z M58.7,116.9c-0.1,0-0.2-0.1-0.3-0.2c-0.3-1.1-0.6-2.2-0.8-3.4c0-0.1,0.1-0.3,0.2-0.3
	c0.2,0,0.3,0.1,0.3,0.2c0.2,1.1,0.5,2.2,0.8,3.3C59,116.7,58.9,116.9,58.7,116.9C58.8,116.9,58.7,116.9,58.7,116.9z M57.4,110.1
	c-0.2,0-0.3-0.1-0.3-0.3c0-0.4-0.1-0.9-0.1-1.3c0-0.4,0-0.8,0-1.1c0-0.3,0-0.7,0-1c0-0.2,0.2-0.3,0.3-0.3c0.2,0,0.3,0.1,0.3,0.3
	c0,0.3,0,0.7,0,1c0,0.4,0,0.8,0,1.1c0,0.4,0,0.9,0.1,1.3C57.7,110,57.6,110.1,57.4,110.1C57.4,110.1,57.4,110.1,57.4,110.1z
	 M57.6,103.2C57.6,103.2,57.6,103.2,57.6,103.2c-0.2,0-0.3-0.2-0.3-0.3c0.2-1.1,0.4-2.3,0.7-3.4c0-0.2,0.2-0.2,0.4-0.2
	c0.1,0,0.2,0.2,0.2,0.4c-0.3,1.1-0.5,2.2-0.7,3.4C57.9,103.2,57.8,103.2,57.6,103.2z M59.3,96.6C59.3,96.6,59.3,96.5,59.3,96.6
	c-0.2-0.1-0.3-0.2-0.3-0.4c0.4-1.1,0.9-2.2,1.4-3.2c0.1-0.1,0.2-0.2,0.4-0.1c0.1,0.1,0.2,0.2,0.1,0.4c-0.5,1-1,2.1-1.3,3.2
	C59.6,96.5,59.4,96.6,59.3,96.6z M90,91.6c-0.1,0-0.2-0.1-0.3-0.2c0-0.2,0.1-0.3,0.2-0.3c1-0.2,2-0.8,2.8-1.6c0.1-0.1,0.3-0.1,0.4,0
	s0.1,0.3,0,0.4C92.3,90.7,91.2,91.3,90,91.6C90,91.6,90,91.6,90,91.6z M86.6,91.3c0,0-0.1,0-0.1,0c-1.1-0.4-2.1-1.1-2.9-2
	c-0.1-0.1-0.1-0.3,0-0.4s0.3-0.1,0.4,0c0.8,0.8,1.7,1.5,2.7,1.8c0.2,0.1,0.2,0.2,0.2,0.4C86.8,91.2,86.7,91.3,86.6,91.3z M62.3,90.4
	c0,0-0.1,0-0.1,0c-0.1-0.1-0.2-0.3-0.1-0.4c0.6-1,1.3-2,2-2.9c0.1-0.1,0.3-0.2,0.4,0c0.1,0.1,0.2,0.3,0.1,0.4
	c-0.7,0.9-1.4,1.9-2,2.8C62.5,90.3,62.4,90.4,62.3,90.4z M94.7,87C94.7,87,94.6,87,94.7,87c-0.2-0.1-0.3-0.2-0.3-0.4
	c0.2-0.7,0.3-1.5,0.3-2.2c0-0.4,0-0.8-0.1-1.1c0-0.2,0.1-0.3,0.2-0.3c0.2,0,0.3,0.1,0.3,0.2c0.1,0.4,0.1,0.8,0.1,1.2
	c0,0.8-0.1,1.6-0.4,2.3C94.9,86.9,94.8,87,94.7,87z M82,86.4c-0.1,0-0.2-0.1-0.3-0.2c-0.4-1-0.7-2.2-0.8-3.4c0-0.2,0.1-0.3,0.3-0.3
	c0.2,0,0.3,0.1,0.3,0.3c0.1,1.2,0.3,2.3,0.7,3.3C82.3,86.2,82.2,86.4,82,86.4C82,86.4,82,86.4,82,86.4z M66.6,84.9
	c-0.1,0-0.1,0-0.2-0.1c-0.1-0.1-0.1-0.3,0-0.4c0.8-0.8,1.7-1.6,2.5-2.4c0.1-0.1,0.3-0.1,0.4,0c0.1,0.1,0.1,0.3,0,0.4
	c-0.9,0.7-1.7,1.5-2.5,2.4C66.7,84.9,66.6,84.9,66.6,84.9z M71.8,80.4c-0.1,0-0.2,0-0.2-0.1c-0.1-0.1-0.1-0.3,0.1-0.4
	c1-0.7,2-1.3,3-1.8c0.1-0.1,0.3,0,0.4,0.1c0.1,0.1,0,0.3-0.1,0.4c-1,0.5-2,1.1-2.9,1.8C71.9,80.4,71.9,80.4,71.8,80.4z M93.6,80.4
	c-0.1,0-0.2,0-0.2-0.1c-0.6-0.9-1.4-1.7-2.4-2.3c-0.1-0.1-0.2-0.3-0.1-0.4c0.1-0.1,0.3-0.2,0.4-0.1c1,0.7,1.9,1.5,2.5,2.5
	c0.1,0.1,0.1,0.3-0.1,0.4C93.7,80.4,93.7,80.4,93.6,80.4z M81.3,79.6C81.3,79.6,81.3,79.6,81.3,79.6c-0.2,0-0.3-0.2-0.3-0.3
	c0-0.2,0-0.3,0.1-0.5c0.1-1,0.3-1.9,0.6-2.9c0-0.2,0.2-0.2,0.3-0.2c0.2,0,0.2,0.2,0.2,0.3c-0.3,0.9-0.5,1.9-0.6,2.8
	c0,0.2-0.1,0.3-0.1,0.5C81.6,79.5,81.5,79.6,81.3,79.6z M77.9,77.2c-0.1,0-0.2-0.1-0.3-0.2c-0.1-0.2,0-0.3,0.2-0.4
	c1.1-0.4,2.3-0.8,3.4-1c0.2,0,0.3,0.1,0.3,0.2c0,0.1-0.1,0.3-0.2,0.3C80.2,76.5,79.1,76.8,77.9,77.2C78,77.2,78,77.2,77.9,77.2z
	 M88.1,76.5C88,76.5,88,76.5,88.1,76.5c-0.5-0.2-1-0.3-1.4-0.3C86,76,85.3,76,84.7,76c-0.2,0-0.3-0.1-0.3-0.3c0-0.2,0.1-0.3,0.3-0.3
	c0.7,0,1.4,0.1,2,0.2c0.5,0.1,1,0.2,1.4,0.3c0.2,0.1,0.2,0.2,0.2,0.4C88.3,76.4,88.2,76.5,88.1,76.5z M83.2,73c0,0-0.1,0-0.1,0
	c-0.1-0.1-0.2-0.2-0.1-0.4c0.5-1.1,1-2.1,1.6-3.1c0.1-0.1,0.3-0.2,0.4-0.1c0.1,0.1,0.2,0.3,0.1,0.4c-0.6,1-1.1,2-1.6,3
	C83.4,72.9,83.3,73,83.2,73z M86.8,67.2c-0.1,0-0.1,0-0.2-0.1c-0.1-0.1-0.1-0.3,0-0.4c0.8-0.9,1.6-1.7,2.4-2.5
	c0.1-0.1,0.3-0.1,0.4,0c0.1,0.1,0.1,0.3,0,0.4c-0.8,0.8-1.6,1.6-2.4,2.4C87,67.1,86.9,67.2,86.8,67.2z"/>
<path d="M92,62.6c-0.1,0-0.2-0.1-0.2-0.1c-0.1-0.1-0.1-0.3,0.1-0.4c0.5-0.3,1-0.6,1.5-0.9c0.1-0.1,0.3,0,0.4,0.1
	c0.1,0.1,0,0.3-0.1,0.4c-0.5,0.3-1,0.6-1.4,0.9C92.1,62.5,92.1,62.6,92,62.6z"/>
<path class="st1" d="M125.7,45.9c1.5,0,3,0,4.6,0c0,3.9,0.1,7.7,0.1,11.6c-1.5,0-3.1,0-4.6,0C125.8,53.7,125.7,49.8,125.7,45.9z"/>
<path class="st1" d="M177.4,74c-3.2,0-6.4,0-9.6,0.1c-0.1-15.1-0.2-30.1-0.3-45.2c3.2,0,6.3,0,9.6-0.1c0,0.2,0,0.4,0,0.6
	c0,4.5,0.1,9,0.1,13.4c0,0.5,0.1,0.7,0.6,0.9c3,1,5,3,5.6,6.2c0.6,3.2-0.5,5.8-3.1,7.8c-0.7,0.6-1.6,1-2.5,1.3
	c-0.5,0.2-0.6,0.4-0.6,0.8c0,4.5,0.1,9,0.1,13.4C177.4,73.5,177.4,73.7,177.4,74z"/>
<path class="st1" d="M164.1,33.8c0.1,11.8,0.2,23.6,0.2,35.5c-0.1-0.1-0.2-0.1-0.3-0.2c-4-3-8.5-5-13.3-6.5
	c-0.4-0.1-0.6-0.3-0.6-0.8c0-6.9-0.1-13.7-0.1-20.6c0-0.4,0.1-0.6,0.5-0.7c4.8-1.5,9.3-3.6,13.3-6.6c0.1-0.1,0.1-0.1,0.2-0.2
	C164,33.8,164.1,33.8,164.1,33.8z"/>
<path class="st1" d="M133.8,41.6c4.3,0,8.5-0.1,12.8-0.1c0,6.7,0.1,13.5,0.1,20.2c-4.2,0-8.5,0.1-12.8,0.1
	C133.8,55,133.8,48.3,133.8,41.6z"/>
<path class="st1" d="M150.5,80.4c-0.2,0-0.4,0-0.6,0c-3.5,0-7.1,0-10.6,0.1c-0.4,0-0.6-0.1-0.8-0.5c-0.9-1.6-1.9-3.2-2.8-4.8
	c-0.1-0.2-0.2-0.4-0.2-0.7c0-3-0.1-6.1-0.1-9.2c0-0.1,0-0.1,0-0.3c3.4,0,6.9-0.1,10.4-0.1c0,0.2,0,0.4,0,0.6c0,2,0,4,0.1,6
	c0,0.4,0.1,0.7,0.3,1.1c1.3,2.3,2.7,4.7,4,7C150.2,80,150.3,80.2,150.5,80.4z"/>
</svg>
