<?xml version="1.0" encoding="utf-8"?>
<!-- Generator: Adobe Illustrator 26.1.0, SVG Export Plug-In . SVG Version: 6.00 Build 0)  -->
<svg version="1.1" id="Layer_1" xmlns="http://www.w3.org/2000/svg" xmlns:xlink="http://www.w3.org/1999/xlink" x="0px" y="0px"
	 viewBox="0 0 300 240" style="enable-background:new 0 0 300 240;" xml:space="preserve">
<style type="text/css">
	.st0{fill:#FFFFFF;}
	.st1{fill:#1955CC;}
</style>
<path class="st0" d="M143.2,145.2h81.7c4.2,0,7.6-3.4,7.6-7.6V7.9c0-4.2-3.4-7.6-7.6-7.6H35.4c-4.2,0-7.6,3.4-7.6,7.6v129.8
	c0,4.2,3.4,7.6,7.6,7.6L143.2,145.2L143.2,145.2z"/>
<path class="st0" d="M35.5,142.3c-2.5,0-4.6-2.1-4.6-4.6V7.9c0-2.5,2.1-4.6,4.6-4.6H225c2.5,0,4.6,2.1,4.6,4.6v129.8
	c0,2.5-2.1,4.6-4.6,4.6H35.5z"/>
<path d="M225,142.6H35.5c-2.7,0-4.9-2.2-4.9-4.9V7.9c0-2.7,2.2-4.9,4.9-4.9H225c2.7,0,4.9,2.2,4.9,4.9v129.8
	C230,140.4,227.8,142.6,225,142.6z M35.5,3.6c-2.4,0-4.3,1.9-4.3,4.3v129.8c0,2.4,1.9,4.3,4.3,4.3H225c2.4,0,4.3-1.9,4.3-4.3V7.9
	c0-2.4-1.9-4.3-4.3-4.3L35.5,3.6L35.5,3.6z"/>
<path d="M103.6,145.5H62.1c-0.2,0-0.3-0.1-0.3-0.3s0.1-0.3,0.3-0.3h41.4c0.2,0,0.3,0.1,0.3,0.3S103.7,145.5,103.6,145.5z"/>
<path d="M38.8,145.5h-3.4c-4.4,0-7.9-3.5-7.9-7.9V7.9C27.5,3.5,31,0,35.4,0h189.5c4.3,0,7.9,3.5,7.9,7.9v43.5c0,0.2-0.1,0.3-0.3,0.3
	c-0.2,0-0.3-0.1-0.3-0.3V7.9c0-4-3.3-7.2-7.3-7.2H35.4c-4,0-7.3,3.2-7.3,7.2v129.8c0,4,3.3,7.2,7.3,7.2h3.4c0.2,0,0.3,0.1,0.3,0.3
	S38.9,145.5,38.8,145.5z"/>
<path class="st0" d="M245.4,238.7h-15.1V73l14.9-1.1L245.4,238.7z"/>
<path d="M245.4,239.1h-15.1c-0.2,0-0.3-0.1-0.3-0.3V73c0-0.2,0.1-0.3,0.3-0.3l14.9-1c0.1,0,0.2,0,0.2,0.1c0.1,0.1,0.1,0.1,0.1,0.2
	l0.1,166.8c0,0.1,0,0.2-0.1,0.2C245.6,239,245.5,239.1,245.4,239.1z M230.6,238.4h14.5l-0.2-166.1l-14.3,1V238.4z"/>
<path class="st0" d="M299.4,238.7h-53.8c-0.1,0-0.2-0.1-0.2-0.2V72.2c0-0.1,0.1-0.2,0.2-0.2l53.8,2.1c0.1,0,0.2,0.1,0.2,0.2v164.2
	C299.6,238.6,299.5,238.7,299.4,238.7z"/>
<path d="M299.4,239.1h-53.8c-0.3,0-0.6-0.2-0.6-0.5V72.2c0-0.2,0.1-0.3,0.2-0.4c0.1-0.1,0.3-0.1,0.4-0.1l53.8,2.1
	c0.3,0,0.6,0.2,0.6,0.5v164.2C300,238.8,299.7,239.1,299.4,239.1z M245.8,238.4h53.4v-164l-53.4-2.1V238.4z"/>
<path class="st1" d="M272.6,161.4c-0.2,0-0.3-0.1-0.3-0.3V85.9c0-0.2,0.1-0.3,0.3-0.3c0.2,0,0.3,0.1,0.3,0.3v75.2
	C272.9,161.2,272.7,161.4,272.6,161.4z"/>
<path class="st1" d="M259.8,134.6c-0.2,0-0.3-0.1-0.3-0.3v-22.2c0-0.2,0.1-0.3,0.3-0.3c0.2,0,0.3,0.1,0.3,0.3v22.2
	C260.1,134.5,259.9,134.6,259.8,134.6z"/>
<path class="st1" d="M259.8,210.6c-0.2,0-0.3-0.1-0.3-0.3v-38.3c0-0.2,0.1-0.3,0.3-0.3c0.2,0,0.3,0.1,0.3,0.3v38.3
	C260.1,210.5,259.9,210.6,259.8,210.6z"/>
<path class="st0" d="M172.3,238.8h-24.1V120l24-4.7L172.3,238.8z"/>
<path d="M172.3,239.1h-24.1c-0.2,0-0.3-0.1-0.3-0.3V120c0-0.2,0.1-0.3,0.2-0.3l24-4.7c0.1,0,0.2,0,0.3,0.1c0.1,0.1,0.1,0.2,0.1,0.2
	l0.1,123.5c0,0.1,0,0.2-0.1,0.2S172.4,239.1,172.3,239.1z M148.5,238.4H172l-0.1-122.8l-23.4,4.6V238.4z"/>
<path class="st0" d="M237.4,238.8h-65c-0.1,0-0.2-0.1-0.2-0.2V115.4c0-0.1,0.1-0.2,0.2-0.2l65,1.6c0.1,0,0.2,0.1,0.2,0.2v121.5
	C237.6,238.7,237.5,238.8,237.4,238.8z"/>
<path d="M237.4,239.1h-65c-0.3,0-0.6-0.2-0.6-0.5V115.4c0-0.1,0.1-0.2,0.1-0.3c0.1-0.1,0.3-0.2,0.4-0.2l65,1.6
	c0.3,0,0.5,0.2,0.5,0.5v121.5C237.9,238.9,237.7,239.1,237.4,239.1z M172.5,238.4h64.9V117.2l-64.9-1.6V238.4z"/>
<path class="st1" d="M204.9,189.9c-0.2,0-0.3-0.1-0.3-0.3v-63.3c0-0.2,0.1-0.3,0.3-0.3s0.3,0.1,0.3,0.3v63.3
	C205.2,189.8,205.1,189.9,204.9,189.9z"/>
<path class="st1" d="M187.8,147.2c-0.2,0-0.3-0.1-0.3-0.3v-10.8c0-0.2,0.1-0.3,0.3-0.3s0.3,0.1,0.3,0.3v10.8
	C188.1,147.1,187.9,147.2,187.8,147.2z"/>
<path class="st1" d="M187.8,218.8c-0.2,0-0.3-0.1-0.3-0.3v-53.7c0-0.2,0.1-0.3,0.3-0.3s0.3,0.1,0.3,0.3v53.7
	C188.1,218.7,187.9,218.8,187.8,218.8z"/>
<path d="M222.1,168.5c-0.2,0-0.3-0.1-0.3-0.3v-10.8c0-0.2,0.1-0.3,0.3-0.3s0.3,0.1,0.3,0.3v10.8
	C222.4,168.4,222.2,168.5,222.1,168.5z"/>
<path class="st0" d="M83.8,238.8H54.3v-60l29.5-3.3V238.8z"/>
<path d="M83.8,239.1H54.3c-0.2,0-0.3-0.1-0.3-0.3v-60c0-0.2,0.1-0.3,0.3-0.3l29.5-3.3c0.1,0,0.2,0,0.2,0.1c0.1,0.1,0.1,0.1,0.1,0.2
	v63.3C84.2,238.9,84,239.1,83.8,239.1z M54.6,238.4h28.9v-62.7L54.6,179V238.4z"/>
<path class="st0" d="M164.4,238.8H83.8v-63.1c0-0.1,0.2-0.2,0.3-0.2l80.2,1.4L164.4,238.8L164.4,238.8z"/>
<path d="M164.4,239.1H83.8c-0.2,0-0.3-0.1-0.3-0.3v-63.1c0-0.1,0.1-0.2,0.1-0.3c0.1-0.1,0.3-0.2,0.5-0.2l80.2,1.4
	c0.2,0,0.3,0.1,0.3,0.3v61.9C164.7,238.9,164.6,239.1,164.4,239.1z M84.2,238.4h80v-61.3l-79.9-1.4c0,0,0,0,0,0V238.4z"/>
<path class="st1" d="M105.3,229.6c-0.2,0-0.3-0.1-0.3-0.2v-37.5c0-0.1,0.1-0.2,0.3-0.2c0.2,0,0.3,0.1,0.3,0.2v37.5
	C105.6,229.5,105.4,229.6,105.3,229.6z"/>
<path class="st1" d="M147.5,234c-0.2,0-0.3-0.1-0.3-0.2v-37.5c0-0.1,0.1-0.2,0.3-0.2s0.3,0.1,0.3,0.2v37.5
	C147.8,233.9,147.7,234,147.5,234z"/>
<path class="st1" d="M126.4,219.3c-0.2,0-0.3-0.1-0.3-0.2v-7.7c0-0.1,0.1-0.2,0.3-0.2c0.2,0,0.3,0.1,0.3,0.2v7.7
	C126.7,219.2,126.6,219.3,126.4,219.3z"/>
<path class="st0" d="M21,238.8H0.5v-20l20.3-2.9L21,238.8z"/>
<path d="M21,239.1H0.5c-0.3,0-0.5-0.1-0.5-0.3v-20c0-0.2,0.2-0.3,0.4-0.3l20.3-2.9c0.1,0,0.3,0,0.4,0.1c0.1,0.1,0.2,0.2,0.2,0.2
	l0.2,23c0,0.1-0.1,0.2-0.1,0.2C21.2,239,21.1,239.1,21,239.1z M1,238.4h19.5l-0.2-22.3L1,219V238.4z"/>
<path class="st0" d="M75.9,238.8H21c-0.1,0-0.2-0.1-0.2-0.1v-22.7c0-0.1,0.1-0.1,0.2-0.1l54.9,0.7c0.1,0,0.2,0.1,0.2,0.1v22
	C76.1,238.7,76,238.8,75.9,238.8z"/>
<path d="M75.9,239.1H21c-0.4,0-0.7-0.2-0.7-0.5v-22.7c0-0.1,0.1-0.2,0.2-0.3c0.1-0.1,0.3-0.1,0.5-0.1l55,0.7c0.4,0,0.7,0.2,0.7,0.5
	v22C76.6,238.9,76.3,239.1,75.9,239.1z M21.3,238.4h54.4v-21.7l-54.4-0.7V238.4z"/>
<path class="st1" d="M65.6,229.1c-0.2,0-0.3-0.1-0.3-0.3v-5.7c0-0.2,0.1-0.3,0.3-0.3c0.2,0,0.3,0.1,0.3,0.3v5.7
	C65.9,228.9,65.8,229.1,65.6,229.1z"/>
<path class="st1" d="M54.5,239.5c-0.2,0-0.3-0.1-0.3-0.3v-7.4c0-0.2,0.1-0.3,0.3-0.3c0.2,0,0.3,0.1,0.3,0.3v7.4
	C54.9,239.4,54.7,239.5,54.5,239.5z"/>
<path d="M189.7,62.7c-1.8,1.5-0.7,2.8-3,6.2c-1.7,2.5-3.1,3.1-3.1,4.8c0.1,1.5,1.3,2.5,2.1,3.2c3.7,3.2,8.7,2.8,11.8,2.6
	c2.5-0.2,5.9-0.4,6.4-2c0.5-1.5-2.5-2.6-2.8-5.7c-0.2-2.4,1.6-3.1,1.2-5.3c-0.5-2.8-4-4.2-4.6-4.5C195.4,61.2,191.9,60.8,189.7,62.7
	z"/>
<path d="M191.4,63c0,0-0.5-4.8-4.3-3.7c-3.8,1-0.4,5.2,2.4,5.6C192.3,65.4,191.4,63,191.4,63z"/>
<path class="st0" d="M205.4,144.9l-4.1,6.8l-2.2-2.9l3.6-6.7L205.4,144.9z"/>
<path d="M201.3,152c-0.1,0-0.2,0-0.2-0.1l-2.2-2.9c-0.1-0.1-0.1-0.2,0-0.3l3.6-6.7c0.1-0.1,0.1-0.2,0.2-0.2c0.1,0,0.2,0,0.3,0.1
	l2.8,2.8c0.1,0.1,0.1,0.3,0.1,0.4l-4.1,6.8C201.5,151.9,201.4,152,201.3,152C201.3,152,201.3,152,201.3,152z M199.4,148.7l1.8,2.4
	l3.8-6.2l-2.3-2.3L199.4,148.7z"/>
<path d="M202.7,150.7c-1.1,2.1-3.8,7.3-6.5,9.8c-0.6,0.6-1.7,0.3-2-0.5c-0.8-3-1.4-9.2,1.7-14.1c0,0,1.5-0.2,4.2,0.3l-0.6,2.4
	l0.3-0.2c0.5-0.3,1.2-0.3,1.7,0.1l0.8,0.6C202.9,149.5,203,150.1,202.7,150.7z"/>
<path class="st0" d="M195.8,159.8c-0.1,0-0.2-0.1-0.3-0.2c-2.4-6.1,0.7-13,0.9-13.3c0.1-0.2,0.3-0.2,0.4-0.2
	c0.1,0.1,0.2,0.3,0.1,0.4c0,0.1-3.2,6.9-0.8,12.8c0.1,0.2,0,0.3-0.2,0.4C195.9,159.8,195.8,159.8,195.8,159.8z"/>
<path class="st0" d="M201.1,153.9c-0.1,0-0.1,0-0.2,0l-2.1-1.3c-0.1-0.1-0.2-0.3-0.1-0.4c0.1-0.1,0.3-0.2,0.4-0.1l2.1,1.3
	c0.2,0.1,0.2,0.3,0.1,0.4C201.3,153.9,201.2,153.9,201.1,153.9z"/>
<path class="st0" d="M200.1,155.7c-0.1,0-0.1,0-0.2-0.1l-1.9-1.4c-0.1-0.1-0.2-0.3-0.1-0.4c0.1-0.1,0.3-0.2,0.4-0.1l1.9,1.4
	c0.1,0.1,0.2,0.3,0.1,0.4C200.3,155.6,200.2,155.7,200.1,155.7z"/>
<path class="st0" d="M217.1,147.5c0,0.2,3.8,8,3.8,8l-4.3,0.3l-2.9-6.7L217.1,147.5z"/>
<path d="M216.6,156.1c-0.1,0-0.2-0.1-0.3-0.2l-2.9-6.7c-0.1-0.1,0-0.3,0.1-0.4l3.4-1.6c0.1-0.1,0.2,0,0.3,0c0.1,0,0.1,0.1,0.1,0.2
	c0.1,0.4,2.3,4.9,3.8,7.9c0,0.1,0,0.2,0,0.3s-0.1,0.1-0.2,0.2L216.6,156.1C216.6,156.1,216.6,156.1,216.6,156.1z M214.1,149.3
	l2.7,6.2l3.6-0.3c-2.4-4.9-3.2-6.6-3.5-7.3L214.1,149.3z"/>
<path d="M216.9,153.9c0,0,0.9-1.9,3.1-1c0,0,4.1,5.6,5.6,10.2c0.4,1.3-1,2.5-2.3,1.9c-3.1-1.3-7.9-4.1-10.7-9.2c0,0,0.9-2.1,2.2-3.1
	L216.9,153.9z"/>
<path class="st0" d="M224.4,164c-1.2,0-5.4-0.6-11-7.8c-0.1-0.1-0.1-0.3,0.1-0.4c0.1-0.1,0.3-0.1,0.4,0.1c6.1,8,10.7,7.5,10.7,7.5
	c0.2,0,0.3,0.1,0.4,0.3c0,0.2-0.1,0.3-0.3,0.3C224.7,163.9,224.6,164,224.4,164z"/>
<path class="st0" d="M220.9,159.6c-0.1,0-0.2-0.1-0.3-0.2c-0.1-0.1,0-0.3,0.1-0.4l2.1-1.1c0.2-0.1,0.3,0,0.4,0.1
	c0.1,0.2,0,0.3-0.1,0.4l-2.1,1.1C221,159.5,220.9,159.6,220.9,159.6z"/>
<path class="st0" d="M219.9,158.1c-0.1,0-0.2-0.1-0.3-0.2c-0.1-0.2,0-0.3,0.1-0.4l2.2-1.1c0.1-0.1,0.3,0,0.4,0.1
	c0.1,0.1,0,0.3-0.1,0.4l-2.2,1.1C220,158.1,219.9,158.1,219.9,158.1z"/>
<path d="M196.5,105.6c0,0,11.2,1.9,19.3,9.9c2,2,2.8,4.9,1.9,7.6c-1.8,5.5-5.7,15.5-12.2,23l-5-4.1c0,0,1.2-9.5,4.5-15.3
	c3.3-5.9-15.8-18.6-15.8-18.6L196.5,105.6z"/>
<path d="M218.5,149l-5.8,1.6c0,0-10.7-21.3-13.8-24.4s-9.1-8.1-15.5-9.9s-5.2-5.9-5.2-5.9l9.7-3.4c0,0,15.1,6.2,20.1,13.2
	C213,127.2,218.5,149,218.5,149z"/>
<path d="M200.4,113.5c3,2,5.9,4.3,7.6,6.7c5,7,10.5,28.8,10.5,28.8l-5.8,1.6c0,0-10.7-21.3-13.8-24.4c-3.1-3.1-9.1-8.1-15.5-9.9
	c-6.4-1.8-5.2-5.9-5.2-5.9l9.7-3.4C187.9,106.9,194.5,109.6,200.4,113.5z"/>
<path class="st0" d="M213.7,133.3c-0.1,0-0.2-0.1-0.3-0.2c-2.1-6.1-4-10.4-5.7-12.8c-2.7-3.8-8.6-7.4-13-9.8
	c-0.1-0.1-0.2-0.3-0.1-0.4s0.3-0.2,0.4-0.1c4.5,2.4,10.4,6,13.2,10c1.7,2.4,3.6,6.7,5.8,12.9c0.1,0.2,0,0.3-0.2,0.4
	C213.8,133.3,213.8,133.3,213.7,133.3z"/>
<path class="st0" d="M208.6,143.1c-0.1,0-0.2-0.1-0.3-0.2c-2.2-4.1-4-7.6-5.6-10.3c-0.1-0.1,0-0.3,0.1-0.4c0.1-0.1,0.3,0,0.4,0.1
	c1.6,2.7,3.4,6.2,5.6,10.3c0.1,0.2,0,0.3-0.1,0.4C208.7,143,208.7,143.1,208.6,143.1z"/>
<path class="st0" d="M189.4,75.6c-1.5-0.6-3.2-0.3-4.5,0.6c-2.2,1.5-5.1,4.3-5.4,8.5c-0.5,6.8-6.6,23.5-0.3,30.9
	c0.5-0.4,9.9-9.5,19-9.6c-0.2-4.4,0.3-18.1-1.4-23.8C195.6,78.4,191.9,76.5,189.4,75.6z"/>
<path d="M179.2,116c-0.1,0-0.2,0-0.2-0.1c-4.8-5.7-2.6-16.6-0.9-24.5c0.6-2.7,1-5,1.2-6.7c0.3-4.3,3.2-7.1,5.6-8.8
	c1.4-1,3.2-1.2,4.8-0.6c4.1,1.5,6.7,3.8,7.6,6.9c1.3,4.4,1.3,13.2,1.3,19.1c0,2,0,3.7,0.1,4.8c0,0.1,0,0.2-0.1,0.2
	c-0.1,0.1-0.1,0.1-0.2,0.1c-7.2,0-14.7,5.8-18.6,9.3c-0.1,0.1-0.2,0.2-0.3,0.2C179.3,116,179.2,116,179.2,116z M187.7,75.6
	c-0.9,0-1.9,0.3-2.6,0.8c-2.2,1.6-5,4.3-5.3,8.3c-0.1,1.7-0.6,4-1.2,6.7c-1.6,7.7-3.8,18.2,0.6,23.7c0,0,0,0,0,0
	c3.8-3.5,11.3-9.2,18.6-9.4c0-1.1-0.1-2.7-0.1-4.5c0-5.8-0.1-14.7-1.3-18.9c-0.8-2.8-3.2-5-7.2-6.4
	C188.8,75.7,188.2,75.6,187.7,75.6z"/>
<path d="M204.4,84.9l1.7-4.5l2-0.1l4.1,5.2l0.2,0.7l-5.2,9.6l-6.3,0.8l0.2-4.4l1.7-7.3L204.4,84.9z"/>
<path class="st0" d="M206.1,80.4l3,4.3l-4.8,0.1L206.1,80.4z"/>
<path d="M204.3,85.1c-0.1,0-0.2,0-0.3-0.1c-0.1-0.1-0.1-0.2,0-0.3l1.8-4.4c0-0.1,0.1-0.2,0.2-0.2c0.1,0,0.2,0,0.3,0.1l3,4.3
	c0.1,0.1,0.1,0.2,0,0.3c-0.1,0.1-0.2,0.2-0.3,0.2L204.3,85.1z M206.1,81l-1.4,3.4l3.7-0.1L206.1,81z"/>
<path d="M202.5,86.1C202.4,86.1,202.4,86.1,202.5,86.1c-0.3-0.1-0.3-0.2-0.3-0.4l0.3-0.9c0-0.1,0.2-0.2,0.3-0.2l7.1-0.1
	c0.2,0,0.3,0.1,0.3,0.3s-0.1,0.3-0.3,0.3l-6.9,0.1l-0.2,0.7C202.7,86,202.6,86.1,202.5,86.1z"/>
<path d="M200.6,96.8c-0.2,0-0.3-0.1-0.3-0.3c0-0.2,0.1-0.3,0.3-0.3l6.5-0.7l4.9-9.3c0.1-0.2,0.1-0.4-0.1-0.5l-4.5-5.7
	c-0.1-0.1-0.1-0.3,0.1-0.4c0.1-0.1,0.3-0.1,0.4,0l4.5,5.7c0.3,0.4,0.3,0.8,0.1,1.2l-5,9.5c-0.1,0.1-0.1,0.2-0.2,0.2L200.6,96.8
	C200.6,96.8,200.6,96.8,200.6,96.8z"/>
<path d="M204,86.7c-0.1,0-0.2,0-0.2-0.1l-1.2-1.6c-0.1-0.1-0.1-0.3,0.1-0.4c0.1-0.1,0.3-0.1,0.4,0l1.2,1.6c0.1,0.1,0.1,0.3-0.1,0.4
	C204.1,86.7,204,86.7,204,86.7z"/>
<path class="st0" d="M182.3,92.3c0,0,3.4,0.9,6.4-0.6l0.1,5.1c0,0,7.6-2.3,9.5-3.7c2-1.4,0.5-6.2,4.2-7.3c0,0-0.8,2.2-0.5,2.5
	c0.3,0.3,1.3,0.4,2.4-0.3s3.1-1.7,4.5-1.4c1.4,0.3-0.8,5.6-4.1,6.7c-4.2,1.4-11.6,10.9-17.6,12.5c-1.5,0.4-3-0.3-3.7-1.7
	c-0.4-0.8-0.7-1.8-0.8-3.2C182.4,97.3,182.3,92.3,182.3,92.3z"/>
<path d="M186.5,106.2c-1.3,0-2.5-0.7-3.1-2c-0.4-0.9-0.7-2-0.8-3.3c-0.4-3.6-0.5-8.6-0.5-8.7c0-0.1,0-0.2,0.1-0.2
	c0.1-0.1,0.2-0.1,0.3,0c0,0,3.3,0.9,6.2-0.6c0.1-0.1,0.2-0.1,0.3,0c0.1,0.1,0.1,0.2,0.1,0.3l0.1,4.7c1.6-0.5,7.4-2.4,9-3.5
	c0.7-0.5,0.9-1.6,1.1-2.8c0.4-1.8,0.8-3.9,3.1-4.6c0.1,0,0.2,0,0.3,0.1c0.1,0.1,0.1,0.2,0.1,0.3c-0.3,0.9-0.6,1.9-0.5,2.2
	c0.2,0.1,1,0.3,2-0.4c0.5-0.3,3-1.8,4.8-1.4c0.2,0.1,0.6,0.3,0.7,1c0.1,1.6-1.8,5.4-4.7,6.4c-1.8,0.6-4.3,2.8-6.9,5.1
	c-3.4,3-7.3,6.4-10.7,7.4C187.1,106.2,186.8,106.2,186.5,106.2z M182.6,92.7c0,1.3,0.2,5.3,0.5,8.2c0.1,1.2,0.4,2.2,0.8,3.1
	c0.6,1.2,2,1.9,3.3,1.5c3.3-0.9,7.1-4.3,10.5-7.2c2.7-2.4,5.2-4.6,7.1-5.3c2.5-0.9,4.3-4.3,4.3-5.7c0-0.2-0.1-0.4-0.2-0.4
	c-1.1-0.3-3,0.5-4.3,1.3c-1.3,0.8-2.4,0.6-2.8,0.3c-0.1-0.1-0.4-0.4,0.1-2.2c-1.5,0.8-1.8,2.3-2.1,3.9c-0.3,1.3-0.5,2.5-1.4,3.1
	c-2,1.4-9.3,3.7-9.6,3.8c-0.1,0-0.2,0-0.3-0.1c-0.1-0.1-0.1-0.2-0.1-0.2l-0.1-4.6C186,93.2,183.6,92.9,182.6,92.7z"/>
<path class="st0" d="M190.2,71.5l-2,3.4c-1,1.7-0.9,3.8,0.3,5.4c0.2,0.3,0.4,0.5,0.7,0.8c0.6,0.6,1.7,0.4,2.1-0.4l2.1-4.6
	L190.2,71.5z"/>
<path d="M190.2,81.7c-0.4,0-0.8-0.2-1.1-0.4c-0.2-0.2-0.5-0.5-0.7-0.8c-1.3-1.6-1.4-3.9-0.4-5.7l2-3.4c0-0.1,0.1-0.2,0.3-0.2
	c0.1,0,0.2,0.1,0.3,0.1l3.2,4.6c0.1,0.1,0.1,0.2,0,0.3l-2.1,4.6c-0.2,0.5-0.7,0.8-1.2,0.9C190.4,81.7,190.3,81.7,190.2,81.7z
	 M190.3,72.1l-1.7,3c-0.9,1.6-0.8,3.6,0.3,5c0.2,0.3,0.4,0.5,0.7,0.7c0.2,0.2,0.5,0.3,0.9,0.2c0.3-0.1,0.6-0.3,0.7-0.6l2-4.4
	L190.3,72.1z"/>
<path class="st0" d="M200.6,68.5c0.5,0.2-2.2,8.8-5,9.1s-6.3-2.3-6.1-5.3c0,0-1.8-0.5-0.9-2.8c0.7-1.9,2.2-0.2,2.6,0.4
	c0.1,0.1,0.2,0.2,0.3,0.2c1.8,0.3,0.7-3,5.8-3.3C197.4,66.8,198.6,67.9,200.6,68.5z"/>
<path d="M195.3,77.9c-1.5,0-3.3-0.7-4.5-1.9c-1-1-1.6-2.2-1.6-3.5c-0.3-0.1-0.7-0.4-0.9-0.9c-0.3-0.6-0.3-1.4,0.1-2.2
	c0.2-0.7,0.6-1,1.1-1.1c0.8-0.1,1.7,0.8,2.1,1.4c0,0,0.1,0.1,0.2,0.1c0.5,0.1,0.6-0.1,1-0.8c0.6-0.9,1.4-2.4,4.7-2.5
	c0.1,0,0.2,0,0.2,0.1c0,0,1.2,1.1,3.1,1.7c0.3,0.1,0.3,0.5,0.3,0.7c-0.2,1.7-2.6,8.7-5.3,9C195.5,77.9,195.4,77.9,195.3,77.9z
	 M189.6,68.9C189.6,68.9,189.5,68.9,189.6,68.9c-0.3,0-0.5,0.4-0.6,0.7c-0.3,0.7-0.3,1.3-0.1,1.7c0.2,0.5,0.8,0.7,0.8,0.7
	c0.1,0,0.2,0.2,0.2,0.3c-0.1,1.1,0.4,2.2,1.4,3.2c1.2,1.2,2.9,1.9,4.4,1.8c0.6-0.1,1.2-0.6,1.9-1.5c1.6-2.3,2.9-6.2,2.9-7
	c-1.7-0.5-2.8-1.4-3.1-1.7c-2.8,0.2-3.5,1.4-4,2.2c-0.4,0.6-0.7,1.2-1.6,1.1c0,0,0,0,0,0c-0.2-0.1-0.4-0.2-0.5-0.3
	C190.5,69.3,189.9,68.9,189.6,68.9z"/>
<path d="M37.3,206.4c5.5-7.2,10.7-15.9,12.2-24.9l0.3-1.7l-6.8-4.2l-2.5,13.3c-0.9,5.9-6.9,15.1-6.9,15.1L37.3,206.4z"/>
<path d="M51.7,209.3l4.5,0l1.1-8.8c0.3-3.6,0.6-6.9,0.4-10.5L57,178.4l-8,0l2,10.8c0.6,4.1,1,7.8,1,12L51.7,209.3z"/>
<path class="st0" d="M51.2,207.9l0.1,0.9c0.1,0.8,0,1.6-0.4,2.3c-0.3,0.6-0.7,1.4-0.7,2.3c0,0,6.9,1.6,12.9,0.1c0,0,0-0.7-1.8-1.1
	c-1.9-0.4-4.1-0.7-4.2-1.3c-0.2-0.6-0.2-2.3-0.4-2.6c-0.3-0.3-2.5-0.9-3.6,0C53,208.4,52,207.7,51.2,207.9z"/>
<path d="M57.3,214.4c-3.9,0-7.1-0.7-7.2-0.7c-0.1,0-0.2-0.2-0.2-0.3c0-1,0.4-1.9,0.7-2.5c0.3-0.5,0.4-1.2,0.4-2.1l-0.1-0.9
	c0-0.1,0.1-0.3,0.2-0.3c0.7-0.2,1.5,0.2,1.9,0.4c1.3-0.8,3.5-0.3,3.9,0.2c0.2,0.3,0.3,0.8,0.3,1.7c0,0.4,0.1,0.8,0.1,1
	c0.1,0.3,1.8,0.6,2.8,0.8c0.4,0.1,0.8,0.2,1.2,0.2c2,0.4,2.1,1.3,2.1,1.4c0,0.1-0.1,0.3-0.2,0.3C61.2,214.2,59.2,214.4,57.3,214.4z
	 M50.5,213.1c1.2,0.3,7,1.3,12.1,0.1c-0.2-0.2-0.6-0.4-1.4-0.6c-0.4-0.1-0.8-0.2-1.2-0.2c-2-0.4-3.1-0.6-3.3-1.3
	c-0.1-0.3-0.1-0.7-0.1-1.1c0-0.5-0.1-1.2-0.2-1.4c-0.2-0.2-2.2-0.7-3.2,0.1c-0.1,0.1-0.3,0.1-0.4,0c-0.2-0.1-0.8-0.5-1.3-0.5l0,0.6
	c0,0.6,0,1.6-0.4,2.4C50.9,211.6,50.6,212.3,50.5,213.1z"/>
<path class="st0" d="M63.1,214.9c0-0.3,0-0.8,0-1.1c0-0.2-0.2-0.3-0.3-0.2c-1.2,0.2-6.3,0.9-12.3-0.1c-0.2,0-0.3,0.1-0.3,0.3v1.2
	c0,0.3,0.2,0.6,0.6,0.6c1.7,0.2,7.4,0.7,11.9-0.1C62.9,215.4,63.1,215.2,63.1,214.9z"/>
<path d="M56.9,216.2c-2.5,0-4.8-0.2-6.2-0.4c-0.5-0.1-0.8-0.5-0.8-0.9v-1.2c0-0.2,0.1-0.3,0.2-0.4c0.1-0.1,0.3-0.2,0.5-0.1
	c5.9,0.9,10.8,0.3,12.2,0.1c0.2,0,0.3,0,0.5,0.1c0.1,0.1,0.2,0.2,0.2,0.4c0,0.4,0,0.9,0,1.2c0,0.4-0.3,0.7-0.7,0.8
	C60.9,216.1,58.8,216.2,56.9,216.2z M50.5,213.7v1.1c0,0.2,0.1,0.3,0.3,0.3c2.3,0.3,7.7,0.7,11.8-0.1c0.1,0,0.2-0.1,0.2-0.2
	c0-0.3,0-0.7,0-1.1C61.4,214,56.5,214.7,50.5,213.7z"/>
<path d="M60.3,213.1c0,0-0.1,0-0.1,0c-0.2-0.1-0.2-0.2-0.2-0.4l0.2-0.6c0.1-0.2,0.2-0.2,0.4-0.2c0.2,0.1,0.2,0.2,0.2,0.4l-0.2,0.6
	C60.6,213,60.4,213.1,60.3,213.1z"/>
<path d="M58.9,213.1c0,0-0.1,0-0.1,0c-0.2-0.1-0.2-0.2-0.2-0.4l0.3-0.8c0.1-0.2,0.2-0.2,0.4-0.2c0.2,0.1,0.2,0.2,0.2,0.4l-0.3,0.8
	C59.1,213,59,213.1,58.9,213.1z"/>
<path d="M57.4,212.7c-0.1,0-0.1,0-0.2-0.1c-0.1-0.1-0.2-0.3,0-0.4l0.6-0.8c0.1-0.1,0.3-0.2,0.4,0c0.1,0.1,0.2,0.3,0.1,0.4l-0.6,0.8
	C57.6,212.7,57.5,212.7,57.4,212.7z"/>
<path d="M55.9,211.7c-0.1,0-0.2-0.1-0.3-0.2c-0.1-0.2,0-0.3,0.2-0.4l1.1-0.5c0.2-0.1,0.3,0,0.4,0.2c0.1,0.2,0,0.3-0.2,0.4l-1.1,0.5
	C56,211.7,56,211.7,55.9,211.7z"/>
<path d="M55.6,210.2c-0.2,0-0.3-0.1-0.3-0.3c0-0.2,0.1-0.3,0.3-0.3l1.3-0.1c0.2,0,0.3,0.1,0.3,0.3c0,0.2-0.1,0.3-0.3,0.3L55.6,210.2
	C55.6,210.2,55.6,210.2,55.6,210.2z"/>
<path class="st0" d="M33.8,202.7l-0.4,0.8c-0.4,0.7-0.9,1.3-1.6,1.7c-0.6,0.3-1.4,0.8-1.9,1.6c0,0,4.9,5.1,10.8,7.1
	c0,0,0.4-0.6-0.9-1.9c-1.3-1.3-3.1-2.8-2.8-3.4c0.3-0.7,1.1-1.6,1.1-2.1c0.1-0.6-1.6-2.4-3.1-2.2C35,204.1,34.5,203,33.8,202.7z"/>
<path d="M40.7,214.2c0,0-0.1,0-0.1,0c-5.9-2-10.8-7.1-10.9-7.2c-0.1-0.1-0.1-0.3,0-0.4c0.6-0.9,1.4-1.4,2-1.7c0.5-0.3,1-0.8,1.4-1.6
	l0.4-0.8c0.1-0.1,0.2-0.2,0.4-0.1c0.7,0.2,1.2,1,1.4,1.4c1,0,2,0.7,2.5,1.3c0.3,0.3,0.7,0.8,0.6,1.3c-0.1,0.4-0.3,0.8-0.6,1.3
	c-0.2,0.3-0.4,0.6-0.5,0.9c-0.1,0.3,1.1,1.5,1.8,2.2c0.3,0.3,0.6,0.6,0.9,0.9c1.4,1.5,1,2.2,0.9,2.3
	C40.8,214.1,40.8,214.2,40.7,214.2z M30.3,206.7c0.9,0.9,5.1,4.9,10.1,6.7c-0.1-0.2-0.3-0.7-0.9-1.3c-0.3-0.3-0.6-0.6-0.9-0.9
	c-1.5-1.4-2.2-2.2-2-2.9c0.1-0.3,0.4-0.7,0.6-1c0.2-0.4,0.5-0.8,0.5-1c0-0.1-0.1-0.4-0.5-0.8c-0.6-0.6-1.5-1.2-2.3-1.1
	c-0.1,0-0.3-0.1-0.3-0.2c-0.1-0.2-0.4-0.8-0.8-1.1l-0.3,0.5c-0.3,0.6-0.8,1.4-1.7,1.8C31.4,205.7,30.8,206.1,30.3,206.7z"/>
<path class="st0" d="M39.9,215.1c0.2-0.2,0.4-0.5,0.6-0.8c0.1-0.2,0-0.5-0.2-0.6c-1.3-0.6-5.7-2.7-10-6.6c-0.2-0.2-0.5-0.1-0.6,0.1
	l-0.5,0.9c-0.2,0.3-0.1,0.6,0.1,0.8c1.3,1.1,5.8,4.7,10,6.4C39.4,215.4,39.7,215.3,39.9,215.1z"/>
<path d="M39.4,215.6c-0.1,0-0.2,0-0.3-0.1c-3.9-1.6-8.3-4.9-10.1-6.5c-0.4-0.3-0.4-0.8-0.2-1.2l0.6-0.8c0.1-0.2,0.3-0.3,0.5-0.3
	c0.2,0,0.4,0,0.6,0.2c4.4,3.9,8.7,6,9.9,6.6c0.2,0.1,0.3,0.2,0.4,0.4c0.1,0.2,0,0.4-0.1,0.6c-0.2,0.3-0.4,0.6-0.6,0.9
	C39.9,215.5,39.7,215.6,39.4,215.6z M30,207.3C30,207.3,30,207.3,30,207.3C29.9,207.3,29.9,207.3,30,207.3l-0.6,0.9
	c-0.1,0.1-0.1,0.3,0.1,0.4c1.8,1.5,6.1,4.8,9.9,6.4c0.1,0.1,0.2,0,0.3-0.1c0.2-0.2,0.4-0.5,0.5-0.8c0,0,0-0.1,0-0.1c0,0,0,0,0-0.1
	C38.9,213.4,34.4,211.2,30,207.3C30,207.3,30,207.3,30,207.3z"/>
<path d="M38.7,212.1c-0.1,0-0.2,0-0.2-0.1c-0.1-0.1-0.1-0.3,0.1-0.4l0.5-0.4c0.1-0.1,0.3-0.1,0.4,0.1c0.1,0.1,0.1,0.3-0.1,0.4
	l-0.5,0.4C38.8,212.1,38.7,212.1,38.7,212.1z"/>
<path d="M37.5,211.3c-0.1,0-0.2-0.1-0.3-0.1c-0.1-0.1-0.1-0.3,0.1-0.4l0.7-0.5c0.1-0.1,0.3-0.1,0.4,0.1c0.1,0.1,0.1,0.3-0.1,0.4
	l-0.7,0.5C37.6,211.3,37.6,211.3,37.5,211.3z"/>
<path d="M36.5,210.1c-0.1,0-0.2-0.1-0.3-0.2c-0.1-0.2,0-0.3,0.2-0.4l0.9-0.3c0.2-0.1,0.3,0,0.4,0.2s0,0.3-0.2,0.4l-0.9,0.3
	C36.5,210.1,36.5,210.1,36.5,210.1z"/>
<path d="M37,208.7C36.9,208.7,36.9,208.7,37,208.7l-1.2-0.2c-0.2,0-0.3-0.2-0.3-0.4c0-0.2,0.2-0.3,0.4-0.3l1.2,0.2
	c0.2,0,0.3,0.2,0.3,0.4C37.2,208.6,37.1,208.7,37,208.7z"/>
<path d="M37.5,207.7c-0.1,0-0.1,0-0.2,0l-1.2-0.6c-0.2-0.1-0.2-0.3-0.1-0.4c0.1-0.2,0.3-0.2,0.4-0.1l1.2,0.6
	c0.2,0.1,0.2,0.3,0.1,0.4C37.7,207.6,37.6,207.7,37.5,207.7z"/>
<path class="st0" d="M71,158.9c1.1-3-1-6.4-4.7-7.8c-3.7-1.3-7.5,0-8.6,2.9c-1.1,3,1,6.4,4.7,7.8C66.1,163.2,70,161.9,71,158.9z"/>
<path d="M65.4,162.7c-1,0-2-0.2-3-0.5c-1.8-0.7-3.3-1.9-4.3-3.4c-0.9-1.6-1.1-3.2-0.6-4.8c1.2-3.1,5.2-4.5,9-3.1
	c1.8,0.7,3.4,1.9,4.3,3.4c0.9,1.6,1.1,3.2,0.6,4.8C70.5,161.3,68.1,162.7,65.4,162.7z M63.5,150.9c-2.5,0-4.6,1.2-5.4,3.2
	c-0.5,1.3-0.3,2.8,0.5,4.2c0.8,1.4,2.2,2.5,4,3.2c3.5,1.3,7.2,0.1,8.2-2.7c0.5-1.3,0.3-2.8-0.5-4.2c-0.8-1.4-2.2-2.5-4-3.2
	C65.4,151.1,64.4,150.9,63.5,150.9z"/>
<path class="st0" d="M72.2,158c1.3,0,2.3-1,2.3-2.3c0-1.3-1-2.3-2.3-2.3c-1.3,0-2.3,1-2.3,2.3C69.8,156.9,70.9,158,72.2,158z"/>
<path class="st0" d="M59.8,153.5c1.3,0,2.3-1,2.3-2.3s-1-2.3-2.3-2.3c-1.3,0-2.3,1-2.3,2.3S58.5,153.5,59.8,153.5z"/>
<path d="M72.2,158.3c-0.3,0-0.5,0-0.8-0.1c-0.3-0.1-0.6-0.2-0.8-0.4c-0.1-0.1-0.2-0.3-0.1-0.4s0.3-0.2,0.4-0.1
	c0.2,0.1,0.4,0.3,0.6,0.3c1.1,0.3,2.2-0.3,2.5-1.3c0.2-0.5,0.1-1.1-0.1-1.5c-0.2-0.5-0.7-0.8-1.2-1c-0.9-0.3-1.9,0.1-2.4,0.9
	c-0.1,0.1-0.3,0.2-0.4,0.1s-0.2-0.3-0.1-0.4c0.6-1.1,1.9-1.6,3.1-1.2c0.7,0.2,1.2,0.7,1.5,1.3c0.3,0.6,0.4,1.3,0.2,2
	C74.3,157.6,73.3,158.3,72.2,158.3z"/>
<path d="M59.9,153.7c-0.8,0-1.6-0.4-2.1-1.1c-0.4-0.6-0.6-1.3-0.5-2c0.1-0.7,0.5-1.3,1-1.7c1.2-0.9,2.8-0.6,3.7,0.5
	c0.2,0.3,0.4,0.7,0.5,1.2c0,0.2-0.1,0.3-0.3,0.4c-0.2,0-0.3-0.1-0.4-0.3c0-0.3-0.2-0.6-0.4-0.9c-0.7-0.9-1.9-1.1-2.8-0.4
	c-0.4,0.3-0.7,0.8-0.8,1.3c-0.1,0.5,0.1,1.1,0.4,1.5c0.4,0.6,1.1,0.9,1.9,0.8c0.2,0,0.3,0.1,0.3,0.3s-0.1,0.3-0.3,0.4
	C60.1,153.7,60,153.7,59.9,153.7z"/>
<path class="st0" d="M72.1,169.2c-0.9,0.5-2,0.1-2.5-0.8l-3.6-6.9l3.3-1.8l3.6,6.9C73.3,167.6,73,168.8,72.1,169.2z"/>
<path d="M71.2,169.8c-0.8,0-1.5-0.4-1.9-1.2l-2.7-5.1c-0.1-0.1,0-0.3,0.1-0.4c0.1-0.1,0.3,0,0.4,0.1l2.7,5.1
	c0.4,0.8,1.3,1.1,2.1,0.6c0.4-0.2,0.6-0.5,0.8-0.9c0.1-0.4,0.1-0.8-0.1-1.2l-3.1-5.8c-0.1-0.2,0-0.3,0.1-0.4c0.2-0.1,0.3,0,0.4,0.1
	l3.1,5.9c0.3,0.5,0.3,1.1,0.2,1.7c-0.2,0.6-0.5,1-1.1,1.3C71.9,169.7,71.5,169.8,71.2,169.8z"/>
<path class="st0" d="M31.8,177.4c-0.6,0.2-1-0.1-1-0.6c0.1-0.5,0.7-0.7,1.3-1.4c0.1-0.1-1.8,0.4-2.6,0.3c-0.4,0-0.7-0.2-0.8-0.6
	c0,0-0.4-0.8,0.3-1.3c1.1-0.7,4-1.2,4.8-1.6l1.6-1l1.9,2l-2.3,2.1c-0.1,0.1-1,0.8-1.6,1.2L31.8,177.4z"/>
<path d="M31.4,177.8c-0.2,0-0.5-0.1-0.6-0.2c-0.2-0.2-0.3-0.5-0.3-0.8c0.1-0.4,0.3-0.6,0.6-0.9c-0.6,0.1-1.2,0.2-1.7,0.2
	c-0.5,0-0.9-0.3-1.1-0.7c-0.2-0.3-0.4-1.1,0.4-1.7c0.6-0.4,1.9-0.8,3-1.1c0.8-0.2,1.5-0.4,1.8-0.6l1.6-1c0.1-0.1,0.3-0.1,0.4,0.1
	l1.9,2c0.1,0.1,0.1,0.1,0.1,0.2c0,0.1,0,0.2-0.1,0.2l-2.3,2.1c-0.1,0.1-1,0.8-1.7,1.2l-1.5,0.9c0,0,0,0-0.1,0
	C31.7,177.8,31.6,177.8,31.4,177.8z M32.1,175.1c0.2,0,0.2,0.1,0.3,0.2c0.1,0.1,0,0.3,0,0.4c-0.2,0.3-0.5,0.4-0.7,0.6
	c-0.3,0.2-0.5,0.4-0.5,0.6c0,0.1,0,0.2,0.1,0.2c0.1,0.1,0.2,0.1,0.5,0l1.5-0.9c0.6-0.4,1.5-1,1.6-1.1l2-1.8l-1.5-1.6l-1.4,0.9
	c-0.4,0.2-1.1,0.4-1.9,0.6c-1.1,0.3-2.3,0.6-2.8,1c-0.4,0.3-0.2,0.8-0.2,0.8c0.1,0.2,0.3,0.4,0.6,0.4c0.5,0,1.3-0.1,1.9-0.2
	C31.7,175.1,32,175.1,32.1,175.1z"/>
<path class="st0" d="M66.7,162.3l-4.3-2.6c-2-1.2-3.8-2.7-5.3-4.4l-5-5.8l-4.8,0l-0.2,1l-1.8-0.5l-2.2,5.8c-1.6,4-3.6,7.9-6,11.5
	l-2.7,4l2.9,3.1c2.1-1.7,3.7-3.2,4.9-4.7l-3.4,13.1h20.1v-16.7l3.6,2.2c1.7,1,3.8,0.5,4.9-1.1C68.3,165.4,68,163.4,66.7,162.3z"/>
<path d="M58.8,182.9H38.8c-0.1,0-0.2,0-0.2-0.1s-0.1-0.2-0.1-0.3l3-11.8c-1.2,1.3-2.5,2.5-4.1,3.8c-0.1,0.1-0.3,0.1-0.4,0l-2.9-3.1
	c-0.1-0.1-0.1-0.3,0-0.4l2.7-4c2.4-3.6,4.4-7.4,5.9-11.4l2.2-5.8c0.1-0.2,0.2-0.2,0.4-0.2l1.5,0.4l0.2-0.7c0-0.1,0.2-0.2,0.3-0.2
	l4.8,0c0.1,0,0.2,0,0.2,0.1l5.1,5.8c1.5,1.7,3.2,3.2,5.2,4.4l4.3,2.6c0,0,0,0,0.1,0c1.5,1.3,1.8,3.4,0.7,5c-1.2,1.8-3.5,2.3-5.3,1.2
	l-3.1-1.9v16.1C59.2,182.8,59,182.9,58.8,182.9z M39.2,182.3h19.4v-16.4c0-0.1,0.1-0.2,0.2-0.3c0.1-0.1,0.2-0.1,0.3,0l3.6,2.2
	c1.5,0.9,3.5,0.5,4.5-1c0.9-1.4,0.6-3.1-0.6-4.2l-4.3-2.6c-2-1.2-3.8-2.7-5.3-4.5l-5-5.7l-4.4,0l-0.2,0.7c0,0.1-0.1,0.2-0.2,0.2
	c-0.1,0-0.2,0.1-0.2,0l-1.5-0.5l-2.1,5.5c-1.6,4-3.6,7.9-6,11.5l-2.5,3.8l2.5,2.7c1.9-1.5,3.4-3,4.7-4.5c0.1-0.1,0.2-0.1,0.4-0.1
	c0.1,0.1,0.2,0.2,0.2,0.4L39.2,182.3z"/>
<path class="st0" d="M63.1,171.9c1.4,0,2.5-1.2,2.5-2.6c0-1.4-1.1-2.6-2.5-2.6s-2.5,1.2-2.5,2.6C60.7,170.7,61.8,171.9,63.1,171.9z"
	/>
<path d="M63.1,172.2c-1.5,0-2.8-1.3-2.8-2.9s1.2-2.9,2.8-2.9s2.8,1.3,2.8,2.9S64.6,172.2,63.1,172.2z M63.1,167
	c-1.2,0-2.1,1-2.1,2.3c0,1.3,1,2.3,2.1,2.3c1.2,0,2.1-1,2.1-2.3C65.2,168,64.3,167,63.1,167z"/>
<path class="st0" d="M58.8,167c0.8-1.3,0.4-2.9-0.8-3.6c-1.2-0.7-2.8-0.2-3.5,1.1c-0.8,1.3-0.4,2.9,0.8,3.6
	C56.4,168.8,58,168.3,58.8,167z"/>
<path d="M56.4,168.7c-0.4,0-0.9-0.1-1.3-0.4c-0.6-0.4-1-0.9-1.2-1.6c-0.2-0.8-0.1-1.7,0.3-2.4c0.8-1.5,2.6-2,4-1.2
	c0.6,0.3,1,0.9,1.2,1.6c0.2,0.8,0.1,1.7-0.3,2.4C58.5,168.1,57.5,168.7,56.4,168.7z M56.8,163.4c-0.8,0-1.6,0.5-2.1,1.3
	c-0.3,0.6-0.4,1.3-0.3,1.9c0.2,0.6,0.5,1,1,1.3c1,0.6,2.4,0.1,3.1-1c0.3-0.6,0.4-1.3,0.3-1.9c-0.2-0.5-0.5-1-1-1.3
	C57.5,163.4,57.2,163.4,56.8,163.4z"/>
<path class="st0" d="M54.7,138.7c0.5,0.1,0.9,1.6,1,2.2c0.4,2,0.2,5.4-0.9,5.8c-1.1,0.3-1.3-0.2-2.1,0.4c-0.6,0.5-0.9,1.5-1,3
	c0,0.1,1,1.1,1.6,1.7c0.2,0.2-1.2,1.8-3.9,1.6c-3.5-0.2-3.1-2.5-3.1-2.7C46.2,150.7,48.4,137.2,54.7,138.7z"/>
<path d="M49.7,153.8c-0.1,0-0.2,0-0.4,0c-1.6-0.1-3.4-0.6-3.4-2.9c0,0,0,0,0-0.1c0-0.2,1.2-7.8,4.5-11.1c1.3-1.3,2.8-1.8,4.3-1.4
	c0.7,0.2,1.1,1.9,1.2,2.5c0.4,1.8,0.3,5.7-1.2,6.1c-0.5,0.2-0.9,0.1-1.2,0.1c-0.3,0-0.5,0-0.8,0.2c-0.5,0.4-0.8,1.3-0.9,2.7
	c0.1,0.2,0.6,0.6,0.9,1c0.2,0.2,0.4,0.4,0.6,0.6c0,0.1,0.2,0.2,0,0.5C53.3,152.6,52,153.8,49.7,153.8z M46.5,150.8c0,0,0,0.1,0,0.1
	c0,1.4,0.9,2.1,2.8,2.2c2.2,0.1,3.3-0.9,3.6-1.2c-0.1-0.1-0.3-0.3-0.4-0.5c-1-1.1-1.1-1.2-1.1-1.3c0.1-1.7,0.4-2.7,1.1-3.2
	c0.5-0.4,0.9-0.4,1.2-0.4c0.3,0,0.5,0,0.9-0.1c0.8-0.3,1.1-3.4,0.7-5.4c-0.2-1-0.6-1.9-0.8-2c-1.1-0.3-2.1-0.1-3.1,0.6
	C48,142.2,46.6,150.4,46.5,150.8z"/>
<path d="M56.6,139.1c0.1,0.6-0.3,1.2-1,1.3c-1.7,0.2-3.4,0.6-4.6,2.1c-1.2,1.4-1.1,8.5-1.6,13c-0.2,2-2.2,3.2-4.1,2.5
	c-4.7-1.8-7.7-6.3-5.8-9.6l5.7-10.3c0.7-1.2,1.7-2.1,3-2.7c0.6-0.3,1.7-0.6,2.4-0.6C55.2,134.6,56.3,137.5,56.6,139.1z"/>
<path class="st0" d="M52.1,143.3c-1.2-0.2-1.5-2.4-0.7-2.7c0.7-0.3,1.2,0.9,1.2,0.9L52.1,143.3z"/>
<path d="M52.1,143.6C52.1,143.6,52.1,143.6,52.1,143.6c-0.9-0.1-1.3-1-1.4-1.8c-0.1-0.8,0.1-1.3,0.6-1.5c0.8-0.3,1.4,0.5,1.6,1.1
	c0.1,0.2,0,0.3-0.2,0.4c-0.2,0.1-0.3,0-0.4-0.2c-0.1-0.2-0.5-0.9-0.8-0.8c-0.1,0-0.2,0.4-0.2,0.9c0.1,0.6,0.4,1.2,0.8,1.3
	c0.2,0,0.3,0.2,0.3,0.3C52.4,143.5,52.3,143.6,52.1,143.6z"/>
<path class="st0" d="M118,165.8l0.3,5.6c0,0.1-0.1,0.3-0.2,0.3l-2.7,0.2c-0.1,0-0.2-0.1-0.2-0.2l-0.9-5.2L118,165.8z"/>
<path d="M115.4,172.1c-0.3,0-0.5-0.2-0.5-0.5l-0.9-5.2c0-0.1,0-0.2,0-0.2c0.1-0.1,0.1-0.1,0.2-0.1l3.7-0.6c0.1,0,0.2,0,0.2,0.1
	c0.1,0.1,0.1,0.1,0.1,0.2l0.3,5.6c0,0.2,0,0.3-0.1,0.4c-0.1,0.1-0.2,0.2-0.4,0.2L115.4,172.1C115.4,172.1,115.4,172.1,115.4,172.1z
	 M114.7,166.6l0.8,4.9l2.6-0.2l-0.3-5.2L114.7,166.6z"/>
<path class="st0" d="M118.8,169.9c0.2,0.6,0.6,2.5,0.7,3.6c0.1,0.7-0.3,1.3-1,1.5c-1.9,0.5-6.4,0.5-10.2,0.7c-0.3,0-0.7-0.1-0.9-0.7
	c-0.7-2.1,3.2-2.8,7.1-4.9c0.1,0,0.2,0,0.2,0c0,0,0.1,0.1,0.2,0.1c0.7,0.4,1.8,0.4,2.5,0l0.8-0.5
	C118.5,169.6,118.8,169.7,118.8,169.9z"/>
<path d="M108.3,176c-0.4,0-1-0.2-1.2-0.9c-0.6-1.8,1.4-2.6,3.9-3.7c1.1-0.5,2.2-1,3.4-1.6c0.2-0.1,0.4-0.1,0.6,0
	c0,0,0.1,0.1,0.2,0.1c0.6,0.4,1.6,0.4,2.2,0l0.8-0.5c0.2-0.1,0.4-0.1,0.6-0.1c0.2,0.1,0.4,0.2,0.4,0.5c0.2,0.7,0.6,2.5,0.7,3.6
	c0.1,0.8-0.4,1.7-1.2,1.9c-1.4,0.4-4.3,0.5-7.3,0.6C110.4,175.9,109.3,176,108.3,176C108.4,176,108.3,176,108.3,176z M114.7,170.3
	c-1.2,0.7-2.4,1.2-3.4,1.6c-2.5,1.1-3.9,1.8-3.5,2.9c0.2,0.5,0.6,0.5,0.6,0.5c1,0,2-0.1,3-0.1c2.8-0.1,5.7-0.2,7.1-0.5
	c0.5-0.1,0.9-0.6,0.8-1.2c-0.2-1.1-0.5-2.9-0.7-3.5c0,0,0,0,0,0c0,0,0,0-0.1,0l-0.8,0.5c-0.8,0.5-2.1,0.5-2.8,0
	C114.8,170.4,114.7,170.4,114.7,170.3z"/>
<path class="st0" d="M119.7,174C119.7,174,119.7,174.1,119.7,174c0.1,0.7-0.6,1.2-1.2,1.4c-1.9,0.9-9.4,0.4-9.7,0.4c0,0,0,0,0,0
	c-0.1,0-1,0-1.3-0.6c0-0.1-0.1-0.2-0.1-0.3c0-0.2,0-0.3,0-0.5c0-0.1,0.1-0.2,0.3-0.2c1.4,0.4,4.7,0.5,7.9,0.1c2.2-0.2,3.1-0.7,3.6-1
	c0.1-0.1,0.3,0,0.3,0.2C119.6,173.7,119.6,173.9,119.7,174z"/>
<path d="M113.5,176.3c-2.2,0-4.3-0.1-4.7-0.2c-0.2,0-1.2,0-1.6-0.8c0-0.1-0.1-0.2-0.1-0.4c0-0.2,0-0.4,0-0.6c0-0.1,0.1-0.3,0.2-0.3
	c0.1-0.1,0.3-0.1,0.4-0.1c1.3,0.3,4.5,0.5,7.8,0.1c2-0.2,3-0.7,3.5-1c0.2-0.1,0.3-0.1,0.5,0c0.2,0.1,0.3,0.2,0.3,0.4l0.1,0.5
	c0.2,1-1,1.5-1.4,1.7C117.7,176.2,115.6,176.3,113.5,176.3z M108.8,175.5C108.8,175.5,108.8,175.5,108.8,175.5
	c2.9,0.2,8.1,0.3,9.6-0.3c0.8-0.3,1.1-0.7,1-1.1v0l-0.1-0.3c-0.6,0.3-1.6,0.8-3.6,1c-3.3,0.4-6.6,0.2-7.9-0.1c0,0.1,0,0.2,0,0.3
	c0,0.1,0,0.2,0,0.2C107.9,175.5,108.8,175.5,108.8,175.5z"/>
<path d="M114.3,172.1c-0.1,0-0.1,0-0.2-0.1l-1.1-0.9c-0.1-0.1-0.2-0.3-0.1-0.4s0.3-0.2,0.4-0.1l1.1,0.9c0.1,0.1,0.2,0.3,0.1,0.4
	C114.5,172,114.4,172.1,114.3,172.1z"/>
<path d="M112.8,172.7c-0.1,0-0.1,0-0.2-0.1l-1-0.8c-0.1-0.1-0.2-0.3-0.1-0.4c0.1-0.1,0.3-0.2,0.4-0.1l1,0.8c0.1,0.1,0.2,0.3,0.1,0.4
	C113,172.6,112.9,172.7,112.8,172.7z"/>
<path d="M126,115c0,0,2.2,4.3,2.9,8.9c0.7,4.2,3.2,21.7,9.3,35.8c0.7,1.6-0.1,3.2-1.8,3.6c-0.7,0.2-1-0.1-1.6-0.4
	c-0.3-0.2-0.8-0.6-0.8-0.6s-10.8-9-15.2-32.6c-2.8-15.2-2.4-14-2.4-14L126,115z"/>
<path d="M123,117c0,0,1.3,8.2-1.1,14.3c-2.3,5.9-3.8,28.8-2.9,35.5c0.1,0.4-0.2,0.8-0.7,0.9c-1,0.2-2.9,0.4-4.2,0.1
	c-0.2,0-0.4-0.2-0.5-0.4c-0.8-3.4-7.9-33.8-2.9-49.4L123,117z"/>
<path class="st0" d="M120.6,138.4c-0.2,0-0.3-0.1-0.3-0.3c0-0.1-0.1-3.3,1.2-6.4c0.5-1.1,0.5-2.1,0.5-3.4c0-0.2,0.1-0.3,0.3-0.3
	c0.2,0,0.3,0.1,0.3,0.3c0,1.4,0,2.6-0.5,3.7c-1.3,2.9-1.2,6.1-1.2,6.1C120.9,138.3,120.8,138.4,120.6,138.4
	C120.6,138.4,120.6,138.4,120.6,138.4z"/>
<path class="st0" d="M115.5,130c-0.3,0-0.7-0.1-1-0.2l-2.3-1c-0.8-0.4-1.3-1.2-1.3-2l0.1-4.5c0-0.2,0.1-0.5,0.3-0.6
	c0.2-0.2,0.4-0.2,0.6-0.2c2.7,0.3,5.2,0,6.4-0.2c0.2,0,0.5,0,0.7,0.2c0.2,0.2,0.3,0.4,0.3,0.7l-0.2,4.7c0,0.7-0.4,1.2-0.9,1.6
	l-1.5,1.1C116.5,129.8,116,130,115.5,130z M112,122.1c0,0-0.1,0-0.2,0.1c0,0-0.1,0.1-0.1,0.2l-0.1,4.4c0,0.6,0.3,1.2,0.9,1.4l2.3,1
	c0.6,0.2,1.2,0.2,1.7-0.2l1.5-1.1c0.4-0.3,0.6-0.7,0.6-1.2l0.2-4.7c0-0.1,0-0.1-0.1-0.2c0,0-0.1-0.1-0.2-0.1
	C117.4,122.1,114.8,122.3,112,122.1C112,122.1,112,122.1,112,122.1z"/>
<path class="st0" d="M127,128.9c-0.1,0-0.3,0-0.4-0.1l-2.5-1.3c-0.3-0.1-0.4-0.4-0.5-0.7l-0.6-5.2c-0.1-0.5,0.3-0.9,0.7-0.9l3-0.5
	c0.2,0,0.3,0.1,0.4,0.3c0,0.2-0.1,0.3-0.3,0.4l-3,0.5c-0.1,0-0.2,0.1-0.2,0.3l0.6,5.2c0,0.1,0.1,0.2,0.1,0.2l2.5,1.3
	c0.1,0,0.2,0,0.2,0l1.5-1.1c0.1-0.1,0.3-0.1,0.4,0.1c0.1,0.1,0.1,0.3-0.1,0.4l-1.5,1.1C127.3,128.9,127.1,128.9,127,128.9z"/>
<path class="st0" d="M136.4,166c-0.3-1.7-0.5-2-1.3-3.3c-0.6-0.9,0.8-2.4,1.6-2.5c1.2-0.2,1,0.1,2.4,1.9l1.1,1.3
	C140.2,163.5,136.6,167.4,136.4,166z"/>
<path d="M136.7,166.6c-0.1,0-0.1,0-0.2,0c-0.1,0-0.4-0.2-0.5-0.6c-0.3-1.4-0.4-1.8-1-2.8c-0.1-0.1,0-0.3,0.1-0.4
	c0.2-0.1,0.3,0,0.4,0.1c0.6,1.1,0.7,1.5,1,3c0,0.1,0,0.1,0,0.1c0.3,0.1,1.7-1,3.1-2.5l-0.9-1.1c-0.4-0.5-0.7-0.9-0.9-1.3
	c-0.1-0.2,0-0.3,0.1-0.4c0.2-0.1,0.3,0,0.4,0.1c0.2,0.4,0.4,0.7,0.8,1.2l1,1.3c0.1,0.1,0.1,0.3,0,0.4
	C139.6,164.6,137.7,166.6,136.7,166.6z"/>
<path class="st0" d="M136.2,165.4l1.4-2.1c0.7-1,2.1-1.1,2.9-0.3l1.6,1.4c0,0,0.3,0.9,0.2,1.5c-0.1,0.8-0.4,1.9-0.9,3
	c-0.8,1.7-2.8,5.1-3.6,6.3c-0.2,0.2-0.5,0.5-0.8,0.4c-0.3-0.1-0.7-0.4-1-0.7c-0.5-0.5-0.3-2.6-0.1-4.2c0.1-1,0-3.5,0-4.5
	C135.9,165.9,136,165.6,136.2,165.4z"/>
<path d="M137.2,175.9c-0.1,0-0.2,0-0.3-0.1c-0.3-0.1-0.7-0.4-1.1-0.8c-0.3-0.3-0.6-1-0.2-4.4c0.1-0.9,0-3.4,0-4.4
	c0-0.4,0.1-0.7,0.3-1l1.4-2.1c0.4-0.6,0.9-0.9,1.6-1c0.7-0.1,1.3,0.2,1.8,0.6l1.6,1.3c0,0,0.1,0.1,0.1,0.1c0,0,0.3,1,0.2,1.7
	c-0.1,0.8-0.4,1.9-0.9,3.1c-0.8,1.7-2.8,5-3.6,6.4C138,175.6,137.6,175.9,137.2,175.9z M139.2,162.7c-0.1,0-0.1,0-0.2,0
	c-0.5,0.1-0.9,0.3-1.2,0.7l-1.4,2.1c-0.1,0.2-0.2,0.4-0.2,0.6c0,1,0.1,3.5,0,4.5c-0.4,3.3,0,3.8,0.1,3.9c0.3,0.3,0.6,0.5,0.9,0.6
	c0.1,0,0.3-0.1,0.4-0.3c0.6-1.1,2.8-4.6,3.6-6.3c0.5-1.1,0.7-2.2,0.9-2.9c0.1-0.4-0.1-1-0.2-1.3l-1.6-1.3
	C140,162.9,139.6,162.7,139.2,162.7z"/>
<path d="M136,168.1c-0.1,0-0.3-0.1-0.3-0.2c-0.1-0.2,0.1-0.3,0.2-0.4l1.5-0.4c0.2-0.1,0.3,0,0.4,0.2c0.1,0.2-0.1,0.3-0.2,0.4
	L136,168.1C136.1,168.1,136,168.1,136,168.1z"/>
<path d="M136.1,169.5c-0.1,0-0.3-0.1-0.3-0.2c-0.1-0.2,0.1-0.3,0.2-0.4l1.5-0.4c0.2-0.1,0.3,0,0.4,0.2c0.1,0.2-0.1,0.3-0.2,0.4
	L136.1,169.5C136.2,169.5,136.1,169.5,136.1,169.5z"/>
<path class="st0" d="M137.7,175.7c-0.2,0-0.3,0-0.4-0.1c-0.5-0.2-1.6-0.5-1.5-2.1c0.1-1.7,1.4-2.6,2.4-3.7c0.7-0.9,0.6-4.4,0.9-5.1
	c0.4-1.2,2.2-1.4,3.1-0.5c0.6,0.6,0.6,2,0.6,3c-0.1,1.9-1.2,5.6-2.6,7.3C139.4,175.5,138.4,175.7,137.7,175.7z"/>
<path d="M137.7,176c-0.2,0-0.4,0-0.5-0.1l0,0c-0.5-0.2-1.8-0.6-1.6-2.4c0.1-1.4,0.9-2.3,1.8-3.1c0.2-0.2,0.5-0.5,0.7-0.7
	c0.4-0.5,0.5-2.2,0.6-3.4c0.1-0.7,0.1-1.3,0.2-1.6c0.2-0.6,0.7-1.1,1.4-1.2c0.8-0.2,1.7,0.1,2.2,0.7c0.7,0.7,0.7,2.1,0.7,3.2
	c-0.1,1.8-1.2,5.6-2.6,7.5C139.6,175.8,138.3,176,137.7,176z M140.6,164c-0.1,0-0.2,0-0.4,0c-0.5,0.1-0.8,0.4-1,0.8
	c-0.1,0.2-0.1,0.8-0.2,1.4c-0.1,1.4-0.2,3.1-0.8,3.8c-0.2,0.3-0.5,0.5-0.7,0.8c-0.8,0.8-1.5,1.5-1.6,2.7c-0.1,1.3,0.8,1.6,1.2,1.8
	l0,0c0.1,0,0.2,0.1,0.3,0.1c0.6,0,1.6-0.1,2.2-1c1.4-1.8,2.4-5.4,2.5-7.2c0.1-1.3-0.1-2.3-0.5-2.7C141.6,164.2,141.1,164,140.6,164z
	"/>
<path d="M137.7,176c-0.5,0-0.9-0.2-1.1-0.5c-0.2-0.3-0.4-0.6-0.3-1c0.2-1.8,1.2-2.7,2.2-3.7c0.7-0.7,0.9-3.4,1-4.6
	c0-0.5,0.1-0.7,0.1-0.8c0.2-0.6,0.9-1.1,1.6-1.2c0.7-0.1,1.3,0.2,1.6,0.9c0.1,0.1,0,0.3-0.1,0.4c-0.1,0.1-0.3,0-0.4-0.1
	c-0.3-0.5-0.7-0.6-1-0.5c-0.5,0.1-1,0.4-1.1,0.7c0,0.1-0.1,0.4-0.1,0.7c-0.1,1.4-0.3,4.1-1.2,5c-1,0.9-1.8,1.8-2.1,3.4
	c0,0.2,0,0.4,0.1,0.5c0.1,0.2,0.4,0.3,0.7,0.3c0.2,0,0.3,0,0.5,0c0.2,0,0.3,0.1,0.4,0.3s-0.1,0.3-0.3,0.4
	C138,176,137.9,176,137.7,176z"/>
<path class="st0" d="M128.1,80.9c0,0,1.6-5,1.7-6.6s-1.6-9.2-2.2-11.6c0,0,0.6-4.6-2.9-5.4c-0.2-0.1-0.4-0.2-0.5-0.5
	c-0.3-0.8-0.4-1.3-0.7-2.2c-0.2-0.8-1.4-0.4-1.3,0.4c0,0.3,0.4,3.1,0.5,4.3c0,0.2-0.1,0.4-0.2,0.5c-0.2,0.3-0.5,0.8,0,1.8
	c0.8,1.5,1.1,1.1,1.9,2.4c0.8,1.3,1.1,5.9,1.1,8.4c0,2.5-1,4.5-1.5,5.5C123.6,78.7,128.1,80.9,128.1,80.9z"/>
<path d="M128.1,81.2c0,0-0.1,0-0.1,0c-0.6-0.3-3.8-1.9-4.2-3c-0.1-0.2,0-0.4,0.1-0.5c0.5-0.8,1.5-2.8,1.5-5.3
	c-0.1-3.3-0.4-7.1-1.1-8.2c-0.3-0.5-0.6-0.7-0.8-1c-0.3-0.3-0.6-0.5-1.1-1.5c-0.6-1.2-0.2-1.9,0-2.2c0.1-0.1,0.1-0.2,0.1-0.2
	c-0.2-1.2-0.5-4-0.5-4.3c-0.1-0.7,0.4-1.1,0.8-1.2c0.5-0.1,0.9,0.2,1,0.6c0.1,0.3,0.2,0.6,0.2,0.8c0.1,0.5,0.2,0.9,0.4,1.4
	c0.1,0.2,0.2,0.3,0.3,0.3c3.5,0.8,3.2,5.1,3.1,5.7c0.6,2.3,2.3,9.9,2.2,11.7c-0.1,1.7-1.7,6.5-1.7,6.7
	C128.4,81.1,128.3,81.1,128.1,81.2C128.2,81.2,128.2,81.2,128.1,81.2z M123,54.4C123,54.4,123,54.4,123,54.4
	c-0.2,0.1-0.4,0.2-0.4,0.5c0,0.3,0.4,3.1,0.5,4.3c0,0.2-0.1,0.5-0.2,0.7c-0.3,0.3-0.3,0.8,0,1.5c0.4,0.8,0.6,1,0.9,1.3
	c0.3,0.2,0.6,0.5,0.9,1.1c0.9,1.4,1.1,6.4,1.2,8.5c0.1,2.6-1.1,4.8-1.5,5.6c0,0,0,0,0,0c0.2,0.6,2.1,1.7,3.5,2.5
	c0.4-1.2,1.5-4.9,1.6-6.2c0.1-1.6-1.5-9-2.2-11.5c0,0,0-0.1,0-0.1c0-0.2,0.5-4.3-2.7-5.1c-0.3-0.1-0.6-0.3-0.7-0.7
	c-0.2-0.5-0.3-1-0.5-1.4c-0.1-0.2-0.1-0.5-0.2-0.8C123.2,54.4,123.1,54.4,123,54.4z"/>
<path class="st0" d="M125.5,75.7c-0.6-0.1-1.2,0.2-1.5,0.7c-0.6,1.1-4.9,5.8-5.5,6.3c-0.8,0.6-3.1,4.4-8,4.3c-0.3,0-0.6,0.1-0.8,0.3
	c-0.6,0.5-1.9,1.4-4.2,2.1c-1.4,0.4-2.5,1.7-2.6,4.8c-0.2,3.6-3.9,10.6-2.8,13.3c1.9,4.7,4.9,3.3,7.8,2.4c0,0,0.2,0,0,4.2
	c-0.3,6.4-0.4,6.7,8.5,6.1c6.7-0.4,12.8-1.4,12.9-2.8c0.1-1-1.7-6.6-2.1-13.3c-0.4-6.7,0.8-16.9,1.6-19.6
	C129.4,82.1,128.5,76.3,125.5,75.7z"/>
<path d="M112,120.6c-1.8,0-2.9-0.2-3.6-0.9c-0.9-0.9-0.9-2.5-0.8-5.5l0-0.3c0.1-2.4,0.1-3.4,0-3.8l-0.1,0c-2.7,0.9-5.8,1.9-7.7-2.7
	c-0.7-1.7,0.3-4.8,1.3-7.7c0.7-2.1,1.4-4.2,1.4-5.7c0.1-2.8,1.1-4.5,2.8-5c2.2-0.7,3.5-1.6,4.1-2c0.3-0.2,0.6-0.3,1-0.3
	c3.9,0.1,6.1-2.4,7.2-3.6c0.3-0.3,0.5-0.5,0.6-0.6c0.6-0.5,4.9-5.1,5.5-6.2c0.4-0.7,1.1-1,1.9-0.9c0.9,0.2,1.7,0.8,2.3,1.9
	c1.3,2.1,1.6,5.5,1.1,7.2c-0.7,2.6-1.9,12.8-1.5,19.5c0.2,4.5,1.1,8.5,1.7,10.9c0.3,1.3,0.5,2.1,0.4,2.5c-0.1,1.8-7.2,2.7-13.2,3.1
	C114.6,120.5,113.2,120.6,112,120.6z M107.9,109.5c0.1,0,0.2,0,0.2,0.1c0.1,0.1,0.3,0.3,0.1,4.4l0,0.3c-0.1,2.8-0.2,4.3,0.6,5
	c0.8,0.8,2.9,0.8,7.6,0.5c8.6-0.6,12.5-1.7,12.6-2.5c0-0.3-0.2-1.2-0.4-2.3c-0.5-2.4-1.4-6.5-1.7-11c-0.4-6.8,0.8-17.1,1.6-19.7
	c0.5-1.6,0.1-4.8-1-6.8c-0.5-0.9-1.2-1.4-1.9-1.6c-0.5-0.1-1,0.1-1.2,0.6c-0.6,1.2-4.9,5.8-5.6,6.4c-0.1,0.1-0.3,0.3-0.5,0.6
	c-1.1,1.2-3.4,3.8-7.4,3.8c-0.1,0-0.1,0-0.2,0c-0.2,0-0.4,0.1-0.6,0.2c-0.6,0.5-1.9,1.4-4.3,2.1c-1.5,0.4-2.3,1.9-2.4,4.5
	c-0.1,1.6-0.8,3.6-1.5,5.8c-1,2.9-1.9,5.9-1.3,7.3c1.7,4.2,4.2,3.3,6.9,2.4L107.9,109.5C107.9,109.5,107.9,109.5,107.9,109.5z"/>
<path d="M107.4,110.6c-0.1,0-0.2-0.1-0.3-0.2c-0.1-0.2,0-0.3,0.2-0.4c0.1,0,2.4-1,2-7.6c0-0.2,0.1-0.3,0.3-0.3
	c0.2,0,0.3,0.1,0.3,0.3c0.4,7.2-2.3,8.2-2.4,8.2C107.5,110.6,107.4,110.6,107.4,110.6z"/>
<path class="st0" d="M116,72.9c0.2,0.6,0.5,2,0.8,2.5c0.9,1.1,1.6,4.6,0.2,7.1c-0.8,1.4-0.8,2.5-0.8,3.1c0,0.4-0.2,0.8-0.5,1.1l0,0
	c-0.9,0.6-1.9,0.9-2.9,1l-0.3,0c-0.5,0.1-1-0.2-1.2-0.7c-0.7-1.3-2.1-4.1-3-4.8c-1.2-0.9-8.2-8.9-3.6-11.3
	C112.9,66.7,115.5,71.1,116,72.9z"/>
<path d="M112.4,88c-0.6,0-1.1-0.3-1.3-0.8c-1.2-2.5-2.3-4.2-2.9-4.7c-0.8-0.6-5.6-5.7-5.3-9.3c0.1-1.1,0.7-2,1.7-2.5
	c3.5-1.8,6.3-2.3,8.5-1.4c2.2,0.9,2.9,3,3.1,3.6c0,0.1,0.1,0.3,0.1,0.4c0.2,0.6,0.4,1.6,0.7,1.9c0.9,1.2,1.7,4.9,0.3,7.4
	c-0.7,1.3-0.8,2.3-0.8,2.9c0.1,0.5-0.2,1.1-0.7,1.4c-0.9,0.6-2,1-3.1,1.1l-0.3,0C112.6,88,112.5,88,112.4,88z M110.8,69.4
	c-1.6,0-3.6,0.6-5.8,1.8c-0.9,0.5-1.3,1.1-1.4,2c-0.3,3.1,4,7.9,5,8.7c0.9,0.7,2.3,3.4,3.1,5c0.2,0.3,0.5,0.5,0.9,0.5l0.3,0
	c1-0.1,1.9-0.4,2.8-1c0.3-0.2,0.4-0.5,0.4-0.8c-0.1-0.7,0-1.9,0.8-3.3c1.3-2.3,0.6-5.7-0.2-6.7c-0.3-0.4-0.5-1.2-0.8-2.2
	c0-0.2-0.1-0.3-0.1-0.4c-0.2-0.5-0.8-2.3-2.7-3.2C112.3,69.6,111.6,69.4,110.8,69.4z"/>
<path d="M115.8,78.9c-0.9,0-1.5-1.1-1.6-2.1c-0.1-0.9,0.2-1.5,0.7-1.7c0.6-0.1,1,0.5,1,0.6c0.1,0.2,0,0.3-0.1,0.4
	c-0.2,0.1-0.3,0-0.4-0.1c-0.1-0.2-0.2-0.3-0.3-0.3c-0.2,0-0.3,0.4-0.2,1c0.1,0.8,0.5,1.6,1,1.6c0.2,0,0.3,0.2,0.3,0.3
	C116.1,78.8,115.9,78.9,115.8,78.9z"/>
<path d="M117.8,73.9c0,0-0.3-6.5-4.5-7.4c-4.3-0.9-9.4,0.6-10.8,2.5c-1.4,1.9-0.2,5.1-0.2,5.1s-1.7,3,0.5,4.4
	c2.2,1.4,4.4,4.9,6.7,3.8c2.3-1.2,3.5-2.5,3.4-4.8C112.7,74.2,117.8,73.9,117.8,73.9z"/>
<path class="st0" d="M244.9,100.1c0.9-2.9,0.7-4.7-0.1-6.6l-1.3-2.6l4-1.6l1.2,3c0.4,1,1,1.9,1.7,2.6l0.7,0.7L244.9,100.1z"/>
<path d="M244.9,100.4c-0.1,0-0.1,0-0.2-0.1c-0.1-0.1-0.2-0.2-0.1-0.3c0.9-3,0.6-4.7-0.1-6.4l-1.3-2.6c0-0.1,0-0.2,0-0.2
	s0.1-0.2,0.2-0.2l4-1.6c0.2-0.1,0.3,0,0.4,0.2l1.2,3c0.4,0.9,0.9,1.8,1.6,2.5l0.7,0.7c0.1,0.1,0.1,0.1,0.1,0.2c0,0.1,0,0.2-0.1,0.2
	l-6.2,4.5C245.1,100.4,245,100.4,244.9,100.4z M244,91l1.2,2.3c0.8,1.9,0.9,3.6,0.3,5.9l5.2-3.8l-0.4-0.4c-0.8-0.8-1.3-1.7-1.8-2.7
	l-1.1-2.7L244,91z"/>
<path class="st0" d="M249.3,94.1c0.1-0.3,0.5-0.4,0.7-0.2c0.6,0.7,1.7,1.8,2.6,2.4c0.8,0.5,1,1.6,0.6,2.4c-1.3,2.4-4.4,7.5-7.8,11.4
	c-0.2,0.3-0.8,0.6-1.6,0.3c-2.8-1.2-0.1-6.8,1.4-12.7c0.1-0.2,0.2-0.4,0.5-0.5l0.8-0.1C248,96.9,248.7,96.2,249.3,94.1z"/>
<path d="M244.5,110.9c-0.2,0-0.5-0.1-0.8-0.2c-2.4-1.1-1.2-4.8,0.1-9.1c0.4-1.3,0.8-2.6,1.1-3.9c0.1-0.3,0.4-0.6,0.7-0.7l0.8-0.2
	c1.4-0.3,2-0.9,2.6-2.9c0.1-0.2,0.3-0.4,0.5-0.5c0.3-0.1,0.5,0,0.7,0.2c0.6,0.6,1.7,1.8,2.5,2.3c0.9,0.6,1.2,1.8,0.7,2.8
	c-1.3,2.5-4.5,7.5-7.8,11.5C245.4,110.7,245,110.9,244.5,110.9z M249.6,94.2c-0.7,2.2-1.4,3-3.1,3.3l-0.8,0.2
	c-0.1,0-0.2,0.1-0.2,0.2c-0.3,1.3-0.7,2.6-1.1,3.9c-1.2,4-2.3,7.5-0.4,8.4c0.8,0.3,1.2-0.1,1.2-0.2c3.3-3.9,6.4-8.9,7.8-11.3
	c0.4-0.7,0.2-1.6-0.5-2c-0.9-0.6-2-1.8-2.6-2.4C249.8,94.1,249.7,94.1,249.6,94.2C249.7,94.2,249.6,94.2,249.6,94.2z"/>
<path class="st0" d="M252.4,96.2c0,0,0.1,0.1,0.2,0.1c0.8,0.5,1,1.6,0.6,2.4c-1.3,2.4-4.4,7.5-7.8,11.4c-0.2,0.3-0.8,0.6-1.6,0.3
	c-0.2-0.1-0.6-0.4-0.6-0.4l0.2-0.3c3.2-4.1,6.1-8.4,8.7-12.9L252.4,96.2z"/>
<path d="M244.5,110.9c-0.2,0-0.5-0.1-0.8-0.2c-0.3-0.1-0.7-0.4-0.7-0.5c-0.1-0.1-0.1-0.3-0.1-0.4l0.2-0.3c3.2-4.1,6.1-8.4,8.7-12.9
	l0.3-0.6c0-0.1,0.1-0.1,0.2-0.2c0.1,0,0.2,0,0.2,0.1l0.2,0.1c0.9,0.6,1.2,1.8,0.7,2.8c-1.3,2.5-4.5,7.6-7.8,11.5
	C245.4,110.7,245,110.9,244.5,110.9z M243.6,110c0.1,0.1,0.2,0.2,0.3,0.2c0.8,0.3,1.2-0.1,1.2-0.2c3.3-3.9,6.4-8.9,7.8-11.3
	c0.4-0.7,0.2-1.5-0.4-2l-0.2,0.3C249.8,101.5,246.9,105.8,243.6,110L243.6,110z"/>
<path d="M244,102.4c-0.1,0-0.3-0.1-0.3-0.3c0-0.2,0.1-0.3,0.3-0.4l2.8-0.5c0.2,0,0.3,0.1,0.4,0.3c0,0.2-0.1,0.3-0.3,0.4L244,102.4
	C244.1,102.4,244.1,102.4,244,102.4z"/>
<path d="M243.6,104c-0.2,0-0.3-0.1-0.3-0.3c0-0.2,0.1-0.3,0.3-0.3l2.2-0.3c0.2,0,0.3,0.1,0.4,0.3c0,0.2-0.1,0.3-0.3,0.3L243.6,104
	C243.6,104,243.6,104,243.6,104z"/>
<path d="M267.5,58.4c0,0-27.8-6.1-36.2-1.3c-1.3,0.7-2.5,2.2-2.8,3.7c-0.8,4.4,1.6,14,15,31.9c0.2,0.2,0.5,0.4,0.8,0.2l4.2-1.6
	c0.3-0.1,0.5-0.5,0.4-0.9l-5.7-19.8c-0.1-0.5,0.3-1,0.8-1l26.5,3.2L267.5,58.4z"/>
<path class="st0" d="M259.3,110.6l-0.5,2.6c-0.7,3.8,2,5.7,2,5.7l-8.1,1c0,0,1.8-1.1,1.4-6.3l-0.5-4.4L259.3,110.6z"/>
<path d="M252.6,120.2c-0.1,0-0.2-0.1-0.3-0.2c-0.1-0.1,0-0.3,0.1-0.4c0,0,1.6-1.1,1.3-6l-0.5-4.4c0-0.1,0-0.2,0.1-0.3
	c0.1-0.1,0.2-0.1,0.3-0.1l5.7,1.4c0.2,0,0.3,0.2,0.2,0.4l-0.5,2.6c-0.7,3.5,1.9,5.4,1.9,5.4c0.1,0.1,0.2,0.2,0.1,0.3
	c0,0.1-0.1,0.2-0.3,0.2L252.6,120.2C252.7,120.2,252.6,120.2,252.6,120.2z M253.9,109.6l0.4,3.9c0.2,3.4-0.4,5.1-0.9,5.9l6.6-0.8
	c-0.8-0.8-2.2-2.7-1.6-5.5l0.5-2.3L253.9,109.6z"/>
<path class="st0" d="M259.5,115.4c0.7,0.8,1.9,2.2,2.8,3.6c0.6,0.9,0.2,1.9-0.4,2.7c-1.3,1.7-3,3-5.1,4.4c-1.8,1.2-3.8,2.4-6.3,3.5
	c-0.7,0.3-2.1,0.7-3.1,0.2c-3-1.5,2-6.2,5.9-11.6c0.1-0.2,0.4-0.3,0.7-0.3l0.9,0.2c0.9,0.2,1.9-0.2,2.4-1l1.2-1.8
	C258.8,115.2,259.2,115.1,259.5,115.4z"/>
<path d="M248.5,130.5c-0.4,0-0.9-0.1-1.3-0.3c-0.6-0.3-0.9-0.7-1-1.2c-0.4-1.7,1.6-4.1,4.1-7.2c0.9-1.2,1.9-2.3,2.8-3.6
	c0.2-0.3,0.6-0.5,1-0.4l0.9,0.2c0.8,0.2,1.6-0.2,2.1-0.8l1.2-1.8c0.1-0.2,0.4-0.4,0.7-0.4c0.3,0,0.5,0.1,0.7,0.3
	c0.6,0.8,1.9,2.2,2.8,3.7c0.6,0.9,0.4,2-0.4,3.1c-1.3,1.7-3,3-5.2,4.5c-1.7,1.1-3.8,2.4-6.3,3.6
	C250.2,130.2,249.4,130.5,248.5,130.5z M253.9,118.4c-0.1,0-0.2,0.1-0.3,0.2c-0.9,1.2-1.9,2.4-2.8,3.6c-2.2,2.7-4.3,5.3-4,6.7
	c0.1,0.3,0.3,0.6,0.7,0.8c0.8,0.4,2.2,0.1,2.9-0.2c2.4-1.1,4.5-2.4,6.2-3.5c2.1-1.4,3.8-2.7,5-4.3c0.5-0.6,0.9-1.6,0.4-2.4
	c-0.9-1.4-2.2-2.8-2.8-3.6c-0.1-0.1-0.1-0.1-0.2-0.1c0,0-0.1,0-0.2,0.1l-1.2,1.8c-0.6,0.9-1.6,1.3-2.7,1.1L253.9,118.4
	C253.9,118.4,253.9,118.4,253.9,118.4z"/>
<path class="st0" d="M261.8,118.4c0,0,0.4,0.6,0.5,0.7c0.1,0.2,0.2,0.5,0.3,0.7c0.1,0.8-0.1,1.7-0.7,2.3c-0.1,0.1-0.3,0.3-0.6,0.6
	c-2.4,2.2-5,4.2-7.9,5.7c-1.5,0.8-4.7,2.4-6,1.6c-0.4-0.3-0.6-1.1-0.6-1.1s0.8,0.5,3.1-0.7c3.9-1.9,6.6-4.1,9.8-6.7
	c0.6-0.5,1.1-1,1.5-1.5C261.5,119.5,261.7,118.9,261.8,118.4z"/>
<path d="M248.4,130.5c-0.5,0-0.9-0.1-1.1-0.3c-0.5-0.3-0.8-1.2-0.8-1.2c0-0.1,0-0.3,0.1-0.3c0.1-0.1,0.2-0.1,0.3,0
	c0,0,0.7,0.3,2.8-0.7c3.8-1.9,6.4-4,9.4-6.4l0.3-0.2c0.5-0.4,1-0.9,1.5-1.5c0.3-0.4,0.5-0.9,0.6-1.4c0-0.1,0.1-0.2,0.2-0.3
	s0.2,0,0.3,0.1c0.1,0.1,0.5,0.6,0.5,0.7c0.2,0.2,0.3,0.5,0.3,0.9c0.2,0.9-0.1,1.9-0.8,2.6c-0.1,0.2-0.3,0.3-0.6,0.6
	c-2.4,2.2-5,4.2-7.9,5.8C251.3,129.9,249.6,130.5,248.4,130.5z M247.2,129.3c0.1,0.2,0.2,0.3,0.3,0.4c0.5,0.3,1.8,0.5,5.7-1.6
	c2.9-1.6,5.5-3.5,7.8-5.7c0.2-0.2,0.4-0.4,0.6-0.6c0.5-0.6,0.8-1.3,0.7-2.1c-0.1-0.2-0.1-0.5-0.2-0.6c0,0,0,0-0.1-0.1
	c-0.1,0.4-0.3,0.7-0.6,1c-0.5,0.7-1,1.1-1.6,1.6l-0.3,0.2c-3.1,2.5-5.7,4.6-9.5,6.5C248.6,129.1,247.8,129.3,247.2,129.3z"/>
<path d="M254.1,122.4C254.1,122.4,254,122.4,254.1,122.4l-3.1-0.7c-0.2,0-0.3-0.2-0.2-0.4c0-0.2,0.2-0.3,0.4-0.2l3,0.7
	c0.2,0,0.3,0.2,0.2,0.4C254.4,122.3,254.2,122.4,254.1,122.4z"/>
<path d="M252.4,123.8C252.4,123.8,252.3,123.8,252.4,123.8l-2.5-0.6c-0.2,0-0.3-0.2-0.2-0.4c0-0.2,0.2-0.3,0.4-0.2l2.5,0.6
	c0.2,0,0.3,0.2,0.2,0.4C252.7,123.7,252.5,123.8,252.4,123.8z"/>
<path d="M249.5,66.3c8.1-6.9,34.1-7.1,34.1-7.1s3.2,3.9,1.7,11.7c-0.5,2.6-2.3,4.9-5.2,4.9l-16,0.1c-1.2,0-2.1,1-2.1,2.2
	c0.3,7.7,0.6,23.7-1.6,34.5c-0.1,0.4-0.4,0.8-0.9,0.9c-1,0.3-3,0.7-5.2,0.7c-0.7,0-1.2-0.5-1.3-1.2l-5.3-39.5
	c-0.2-1.2-0.2-2.4,0-3.6C248.1,68.6,248.5,67.2,249.5,66.3z"/>
<path class="st0" d="M247.4,71.2C247.4,71.2,247.4,71.2,247.4,71.2c-0.2,0-0.3-0.2-0.3-0.3c0.2-6.5,8.6-8.4,8.7-8.4
	c0.2,0,0.3,0.1,0.4,0.2s-0.1,0.3-0.2,0.4c-0.1,0-8,1.8-8.2,7.8C247.7,71.1,247.5,71.2,247.4,71.2z"/>
<path class="st0" d="M237.4,43.1c0.1-0.9,0.3-1.9-0.1-2.6l-0.9-1.3c-0.7-1.1-0.6-2.5-0.2-3.7l1.2-3c0.1-0.3,0.6,0.4,0.7,0.8l3.4,12
	c0.6,1.8,2.5,1.9,3.6,1.2l4.5-3.1l5.3,7.4c0,0-5.1,3.6-11.8,4.8C241.6,55.9,236.6,55.7,237.4,43.1z"/>
<path d="M242.4,56c-0.7,0-1.8-0.2-2.8-1.1c-2.1-1.8-2.9-5.8-2.6-11.8c0-0.2,0-0.5,0.1-0.7c0.1-0.7,0.1-1.3-0.2-1.8l-0.9-1.2
	c-0.7-1-0.8-2.5-0.2-3.9l1.2-3c0.1-0.2,0.2-0.3,0.4-0.3c0.5,0,0.9,1,0.9,1.1l3.4,12c0.2,0.8,0.8,1.1,1.2,1.2
	c0.6,0.2,1.4,0.1,1.9-0.3l4.5-3.1c0.1-0.1,0.3-0.1,0.4,0.1l5.3,7.4c0,0.1,0.1,0.2,0,0.2c0,0.1-0.1,0.2-0.1,0.2
	c-0.1,0-5.3,3.7-11.9,4.8C242.9,56,242.7,56,242.4,56z M237.7,43.1c-0.4,7.2,1.1,10.2,2.4,11.3c1.1,1,2.3,1,2.9,0.9
	c5.6-1,10.2-3.8,11.4-4.6l-4.9-6.9l-4.2,2.9c-0.7,0.5-1.7,0.6-2.5,0.3c-0.8-0.3-1.3-0.8-1.6-1.7l-3.4-12.1c0-0.1-0.1-0.3-0.2-0.5
	l-1.1,2.7c-0.5,1.2-0.4,2.5,0.2,3.4l0.9,1.2c0.4,0.7,0.3,1.5,0.2,2.2C237.7,42.7,237.7,42.9,237.7,43.1z"/>
<path class="st0" d="M286,61c-0.6-2.3-1-4.5-3.3-10.5c-1.6-4.1,0.7-12.6-3.2-16.4c-6.5-6.2-24.8,4.2-26,4.9l-1.2,0.7
	c-1.4,0.8-2.8,1.7-4,2.7l-0.2,0.2l5.8,9.2l6.7-3.4c1.8,3,3.4,6.2,4.6,9.5l0.8,2.9c0,0-0.3,0.5,6.9,1.6c5.2,0.8,9.9,0.4,12.2,0.2
	C285.7,62.4,286.2,61.7,286,61z"/>
<path d="M279.6,63.1c-2,0-4.3-0.1-6.8-0.5c-6.8-1-7.1-1.5-7.2-1.7c0,0,0-0.1,0-0.1l-0.8-2.8c-1.2-3.2-2.7-6.2-4.4-9.1l-6.4,3.3
	c-0.1,0.1-0.3,0-0.4-0.1l-5.8-9.2c-0.1-0.1-0.1-0.3,0.1-0.4l0.2-0.2c1.4-1.1,2.8-2,4.1-2.7l1.2-0.7c2-1.2,19.8-11.2,26.4-4.9
	c2.5,2.4,2.6,6.7,2.7,10.4c0,2.3,0.1,4.5,0.7,6c2,5.3,2.6,7.6,3.1,9.7c0.1,0.3,0.1,0.5,0.2,0.8c0.1,0.4,0,0.9-0.2,1.2
	s-0.6,0.6-1.1,0.6C283.8,63,281.9,63.1,279.6,63.1z M266.2,60.6c0.2,0.1,1.2,0.6,6.7,1.4c5.1,0.7,9.8,0.4,12.1,0.2
	c0.3,0,0.5-0.2,0.6-0.4c0.1-0.2,0.2-0.5,0.1-0.7c-0.1-0.3-0.1-0.5-0.2-0.8c-0.5-2-1.1-4.4-3.1-9.6c-0.6-1.6-0.7-3.9-0.7-6.2
	c-0.1-3.8-0.1-7.8-2.5-10c-6.3-6.1-24.9,4.5-25.7,5l-1.2,0.7c-1.3,0.7-2.6,1.6-4,2.7l0,0l5.5,8.7l6.5-3.3c0.1-0.1,0.3,0,0.4,0.1
	c1.9,3,3.4,6.2,4.6,9.5L266.2,60.6z M266.2,60.9C266.2,60.9,266.2,60.9,266.2,60.9C266.2,60.9,266.2,60.9,266.2,60.9z"/>
<path class="st0" d="M262.9,46.1l-3.1,2.8c-0.2,0.2-0.5,0.4-0.8,0.4c-0.6,0.1-1.2-0.1-1.6-0.6l-6.1-9c-0.4-0.7-1.2-1.1-2-1.1
	l-3.9-0.3c-0.5,0-0.8,0.6-0.5,0.9c0.4,0.4,0.9,0.8,1.7,0.9c0.5,0.1,0.9,0.5,0.9,0.9c0.3,2.1,2.7,3,2.7,3s2.3,13.9,8.9,12.2
	C268,54.1,273,48,273,48L262.9,46.1z"/>
<path d="M258.2,56.7c-0.9,0-1.7-0.2-2.5-0.8c-3.8-2.5-5.4-10.4-5.6-11.7c-0.6-0.3-2.4-1.2-2.7-3.2c-0.1-0.3-0.3-0.6-0.7-0.7
	c-0.7-0.1-1.4-0.5-1.9-1c-0.2-0.3-0.3-0.6-0.2-1c0.2-0.3,0.5-0.5,0.9-0.5l3.9,0.3c0.9,0,1.7,0.5,2.2,1.3l6.1,9
	c0.3,0.4,0.8,0.5,1.3,0.5c0.2,0,0.4-0.2,0.6-0.3l3.1-2.8c0.1-0.1,0.2-0.1,0.3-0.1l10.1,1.9c0.1,0,0.2,0.1,0.2,0.2c0,0.1,0,0.2,0,0.3
	c0,0.1-5.2,6.2-13.9,8.5C259,56.7,258.6,56.7,258.2,56.7z M245.4,38.6c-0.2,0-0.2,0.1-0.2,0.2c0,0-0.1,0.2,0,0.3
	c0.4,0.4,0.9,0.7,1.6,0.8c0.6,0.1,1.1,0.6,1.2,1.2c0.3,1.9,2.5,2.8,2.5,2.8c0.1,0,0.2,0.1,0.2,0.2c0,0.1,1.5,8.9,5.4,11.4
	c1,0.6,2,0.8,3.1,0.5c7.2-1.9,11.9-6.5,13.2-7.8l-9.5-1.7l-3,2.7c-0.3,0.2-0.6,0.4-0.9,0.5c-0.7,0.1-1.5-0.1-1.9-0.7l-6.1-9
	c-0.4-0.6-1.1-1-1.8-1L245.4,38.6C245.4,38.6,245.4,38.6,245.4,38.6z"/>
<path d="M263.1,45c-0.1,0-0.1,0-0.2-0.1c-0.1-0.1-0.2-0.3-0.1-0.4l1.4-2c0.1-0.1,0.3-0.2,0.4-0.1c0.1,0.1,0.2,0.3,0.1,0.4l-1.4,2
	C263.3,45,263.2,45,263.1,45z"/>
<path d="M273.4,47.4c-0.1,0-0.2,0-0.2-0.1c-0.1-0.1-0.1-0.3,0-0.4c4.7-4.1,6.1-7.4,6.7-8.9l0.1-0.2c0.1-0.2,0.2-0.2,0.4-0.2
	s0.2,0.2,0.2,0.4l-0.1,0.2c-0.6,1.5-2.1,4.9-6.9,9.1C273.6,47.3,273.5,47.4,273.4,47.4z"/>
<path d="M241.3,48.4l7.4,0.4c1.1,0,2.1-0.7,2-1.4l-2.5-15.5c-0.1-0.5-0.6-0.9-1.3-0.9l-7.4-0.4c-1.1-0.1-2.1,0.7-2,1.4l2.5,15.5
	C240.1,48,240.6,48.4,241.3,48.4z"/>
<path class="st0" d="M272.4,33.2l2.1,0.6c0.5,0.1,0.5,0.8,0,1c-5.6,2.1-8.4,1.3-10.1,1.1c-0.5-0.1-0.6-0.8-0.2-1l0,0
	c0.6-0.3,0.9-1,0.6-1.6l-1.5-3.8l3.2-6.3l3.4,8.2C270.5,32.3,271.3,33,272.4,33.2z"/>
<path d="M267.8,36.5c-1.1,0-2-0.1-2.8-0.2c-0.2,0-0.4-0.1-0.6-0.1c-0.4,0-0.7-0.3-0.7-0.7c-0.1-0.4,0.1-0.7,0.5-0.9
	c0.5-0.2,0.7-0.8,0.5-1.2l-1.5-3.8c0-0.1,0-0.2,0-0.3l3.2-6.3c0.1-0.1,0.2-0.2,0.3-0.2c0.1,0,0.2,0.1,0.3,0.2l3.4,8.2
	c0.4,0.9,1.2,1.5,2.2,1.7l2.1,0.6c0.4,0.1,0.6,0.4,0.6,0.7c0,0.4-0.2,0.7-0.6,0.9C271.6,36.2,269.4,36.5,267.8,36.5z M263.7,29.5
	l1.5,3.6c0.3,0.8,0,1.7-0.8,2c-0.1,0.1-0.1,0.2-0.1,0.2c0,0,0,0.2,0.2,0.2c0.2,0,0.4,0.1,0.6,0.1c1.8,0.3,4.4,0.7,9.3-1.1
	c0.1,0,0.2-0.2,0.2-0.2c0-0.1,0-0.1-0.1-0.2l-2.2-0.6c-1.1-0.3-2-1.1-2.6-2.1l-3.1-7.6L263.7,29.5z"/>
<path class="st0" d="M259.4,20.5c-3.2,2.4-1.9,4.5-1.9,4.5c0.2,0.6,0.8,2.1,0.7,2.4c-0.1,0.4-0.5,1.1-0.4,1.3c0,0.2,0.5,0.5,1.1,0.5
	c0,0,1.1,3,2.1,3.3c1,0.3,3.8-1.6,3.8-1.6l0.5-0.4c1.5-1.2,2.1-2.9,2.1-4.8C267.4,25.7,266.8,15.1,259.4,20.5z"/>
<path d="M261.2,32.8c-0.1,0-0.2,0-0.3,0c-1-0.3-1.9-2.5-2.2-3.3c-0.7,0-1.2-0.4-1.2-0.7c0-0.2,0.1-0.4,0.2-0.8
	c0.1-0.2,0.2-0.4,0.2-0.6c0-0.1-0.1-0.6-0.7-2.2c-0.2-0.3-1.2-2.5,2-4.9c2-1.5,3.8-1.9,5.2-1.3c2.3,1,3,4.6,3.2,6.1
	c0,0.2-0.1,0.3-0.3,0.3c-0.2,0-0.3-0.1-0.3-0.3c-0.2-1.4-0.8-4.8-2.8-5.6c-1.2-0.5-2.7-0.1-4.5,1.3c-2.9,2.2-1.8,4.1-1.8,4.1
	c0,0,0,0,0,0c0.6,1.6,0.8,2.3,0.7,2.6c0,0.2-0.1,0.4-0.2,0.7c-0.1,0.1-0.2,0.4-0.2,0.5c0.1,0.1,0.3,0.2,0.8,0.2
	c0.1,0,0.3,0.1,0.3,0.2c0.5,1.2,1.3,3,1.9,3.1c0.6,0.2,2.4-0.8,3.5-1.6l0.4-0.4c0.2-0.1,0.4-0.3,0.6-0.5c0.1-0.1,0.3-0.1,0.4,0
	c0.1,0.1,0.1,0.3,0,0.4c-0.2,0.2-0.4,0.4-0.6,0.6l-0.5,0.4C264.5,31.4,262.4,32.8,261.2,32.8z"/>
<path d="M260.1,18.5c-0.9,0.5-1.6,1.4-2.1,1.6c-0.8,0.3-1.3-0.4-2.2,0.3c-0.8,0.6-1.3,1.3-1.2,2.2c0,0.1,0.1,0.3,0.1,0.4
	c0.8,2.1,2.3,1.9,2.8,1.8c0,0,3.1-0.9,3.8-0.9c0.6,0,1.6,0.5,2.2,1.7c0.1,0.2,0.3,0.2,0.4,0.2c0.2,0,0.3-0.2,0.3-0.4
	c-0.1-0.6-0.1-1.9,0.5-2.1c0.7-0.2,2,0.9,1.4,2.1c-0.2,0.4,0,0.8,0.4,0.9c0.3,0,0.7-0.1,1-0.5c0,0,0.9-3.8-0.8-6.3
	C265.2,16.9,261.3,17.8,260.1,18.5z"/>
<path d="M257.7,29.2c0,0-0.1,0-0.1,0c-0.4-0.2-0.8-0.7-1-1.4c-0.1-0.4-0.2-0.9-0.2-1.2c0.1-0.6,0.4-0.8,0.5-0.9
	c0.6-0.2,1.2,0.4,1.6,1.4c0.1,0.2,0,0.3-0.2,0.4s-0.3,0-0.4-0.2c-0.3-0.7-0.7-1-0.8-1c0,0-0.1,0.1-0.1,0.3c0,0.3,0,0.6,0.1,1
	c0.2,0.6,0.5,0.9,0.7,1c0.1,0.1,0.2,0.3,0.1,0.4C258,29.1,257.9,29.2,257.7,29.2z"/>
<path d="M260,28.3c-0.6,0-1.2-0.6-1.5-1.4c-0.2-0.4-0.2-0.9-0.1-1.3c0.1-0.4,0.4-0.8,0.7-0.9c0.7-0.2,1.5,0.4,1.8,1.4
	c0.2,0.5,0.2,0.9,0.1,1.3c-0.1,0.4-0.4,0.8-0.7,0.9C260.1,28.3,260,28.3,260,28.3z M259.3,25.3C259.3,25.3,259.3,25.3,259.3,25.3
	c-0.2,0.1-0.3,0.2-0.4,0.4c-0.1,0.3,0,0.6,0.1,1c0.2,0.7,0.7,1.1,1,1c0.1,0,0.2-0.2,0.3-0.4c0.1-0.3,0-0.6-0.1-1
	C260,25.6,259.6,25.3,259.3,25.3z"/>
<path d="M260.2,25.9c-0.1,0-0.2-0.1-0.3-0.2c-0.1-0.2,0-0.3,0.2-0.4l3.3-1.3c0.2-0.1,0.3,0,0.4,0.2s0,0.3-0.2,0.4l-3.3,1.3
	C260.3,25.8,260.3,25.9,260.2,25.9z"/>
<path class="st1" d="M165.9,42.8c-0.1,0-0.2,0-0.3-0.1c-0.1-0.1-0.1-0.3,0.1-0.4L199,20.6c0.1-0.1,0.3,0,0.4,0.1s0.1,0.3-0.1,0.4
	l-33.2,21.7C166.1,42.8,166,42.8,165.9,42.8z"/>
<path class="st1" d="M163.6,37.6c-0.1,0-0.2,0-0.2-0.1c-0.1-0.1-0.1-0.3,0-0.4l12.7-13.4c0.1-0.1,0.3-0.1,0.4,0
	c0.1,0.1,0.1,0.3,0,0.4l-12.7,13.5C163.7,37.6,163.6,37.6,163.6,37.6z"/>
<path d="M47.2,126.5L47.2,126.5l-2.4-0.1c-0.2,0-0.3-0.2-0.3-0.3c0-0.2,0.2-0.3,0.3-0.3l2.4,0.1c0.2,0,0.3,0.2,0.3,0.3
	C47.5,126.4,47.3,126.5,47.2,126.5z"/>
<path d="M41.5,126.3L41.5,126.3l-2.4-0.1c-0.2,0-0.3-0.2-0.3-0.3c0-0.2,0.2-0.3,0.3-0.3l2.4,0.1c0.2,0,0.3,0.1,0.3,0.3
	C41.8,126.2,41.7,126.3,41.5,126.3z"/>
<path d="M43.2,124.8L43.2,124.8c-0.2,0-0.3-0.2-0.3-0.3L43,122c0-0.2,0.1-0.3,0.3-0.3c0.2,0,0.3,0.1,0.3,0.3l-0.1,2.4
	C43.5,124.6,43.3,124.8,43.2,124.8z"/>
<path d="M43,130.4L43,130.4c-0.2,0-0.3-0.2-0.3-0.3l0.1-2.4c0-0.2,0.2-0.3,0.3-0.3c0.2,0,0.3,0.2,0.3,0.3l-0.1,2.4
	C43.3,130.2,43.2,130.4,43,130.4z"/>
<path class="st1" d="M276.2,12.7L276.2,12.7l-2.4-0.1c-0.2,0-0.3-0.2-0.3-0.3c0-0.2,0.2-0.3,0.3-0.3l2.4,0.1c0.2,0,0.3,0.1,0.3,0.3
	C276.5,12.6,276.4,12.7,276.2,12.7z"/>
<path class="st1" d="M270.6,12.5L270.6,12.5l-2.4-0.1c-0.2,0-0.3-0.1-0.3-0.3s0.1-0.3,0.3-0.3l2.4,0.1c0.2,0,0.3,0.2,0.3,0.3
	S270.8,12.5,270.6,12.5z"/>
<path class="st1" d="M272.3,11L272.3,11c-0.2,0-0.3-0.1-0.3-0.3l0.1-2.4c0-0.2,0.2-0.3,0.3-0.3c0.2,0,0.3,0.2,0.3,0.3l-0.1,2.4
	C272.6,10.9,272.4,11,272.3,11z"/>
<path class="st1" d="M272.1,16.6L272.1,16.6c-0.2,0-0.3-0.1-0.3-0.3l0.1-2.4c0-0.2,0.2-0.3,0.3-0.3c0.2,0,0.3,0.2,0.3,0.3l-0.1,2.4
	C272.4,16.5,272.2,16.6,272.1,16.6z"/>
<path class="st1" d="M52.5,100.7c-0.1,0-0.2,0-0.2-0.1c-0.1-0.1-0.1-0.3,0.1-0.4l18.2-13.5c0.1-0.1,0.3-0.1,0.4,0.1
	c0.1,0.1,0.1,0.3-0.1,0.4l-18.2,13.5C52.6,100.7,52.6,100.7,52.5,100.7z"/>
<path class="st1" d="M71,93.4c-0.1,0-0.2,0-0.2-0.1c-0.1-0.1-0.1-0.3,0.1-0.4L86.9,81c0.1-0.1,0.3-0.1,0.4,0.1
	c0.1,0.1,0.1,0.3-0.1,0.4L71.2,93.3C71.1,93.4,71.1,93.4,71,93.4z"/>
<path class="st1" d="M54.7,105.4c-0.1,0-0.2,0-0.2-0.1c-0.1-0.1-0.1-0.3,0.1-0.4l12.4-9.1c0.1-0.1,0.3-0.1,0.4,0.1
	c0.1,0.1,0.1,0.3-0.1,0.4l-12.4,9.1C54.8,105.3,54.8,105.4,54.7,105.4z"/>
<path class="st1" d="M140.7,95.7c-0.1,0-0.2,0-0.2-0.1c-0.1-0.1-0.1-0.3,0.1-0.4l18.2-13.5c0.1-0.1,0.3-0.1,0.4,0.1
	c0.1,0.1,0.1,0.3-0.1,0.4l-18.2,13.5C140.8,95.7,140.8,95.7,140.7,95.7z"/>
<path class="st1" d="M142.9,100.4c-0.1,0-0.2,0-0.2-0.1c-0.1-0.1-0.1-0.3,0.1-0.4l28.9-21.7c0.1-0.1,0.3-0.1,0.4,0.1
	c0.1,0.1,0.1,0.3-0.1,0.4l-28.9,21.7C143,100.4,142.9,100.4,142.9,100.4z"/>
<path class="st1" d="M52.5,23.7c0-0.6-0.2-1.1-0.7-1.5c-0.4-0.4-1.2-0.7-2.3-1.1c-1.1-0.4-2-0.7-2.7-1.1c-2.3-1.1-3.5-2.7-3.5-4.7
	c0-1,0.3-1.9,0.9-2.6s1.4-1.3,2.4-1.8c1-0.4,2.2-0.6,3.5-0.6c1.3,0,2.4,0.2,3.4,0.7c1,0.5,1.8,1.1,2.4,1.9c0.6,0.8,0.8,1.8,0.8,2.9
	h-4.3c0-0.7-0.2-1.3-0.7-1.7c-0.4-0.4-1-0.6-1.8-0.6c-0.8,0-1.4,0.2-1.8,0.5c-0.4,0.3-0.7,0.8-0.7,1.3c0,0.5,0.2,0.9,0.7,1.2
	c0.5,0.4,1.4,0.8,2.6,1.1c1.2,0.4,2.2,0.8,3,1.3c1.9,1.1,2.9,2.6,2.9,4.6c0,1.6-0.6,2.8-1.8,3.7c-1.2,0.9-2.8,1.3-4.8,1.3
	c-1.4,0-2.8-0.3-3.9-0.8c-1.2-0.5-2-1.2-2.6-2.1s-0.9-1.9-0.9-3.1H47c0,1,0.2,1.7,0.7,2.1c0.5,0.5,1.3,0.7,2.4,0.7
	c0.7,0,1.3-0.1,1.7-0.5C52.3,24.6,52.5,24.2,52.5,23.7z"/>
<path class="st1" d="M64.6,10.6l4,12.4l4-12.4h5.7v17.8h-4.3v-4.2l0.4-8.5L70,28.4h-2.8l-4.3-12.7l0.4,8.5v4.2H59V10.6H64.6z"/>
<path class="st1" d="M91,25.1h-5.9l-1,3.3h-4.6l6.5-17.8h4l6.6,17.8h-4.6L91,25.1z M86.2,21.7H90l-1.9-6.2L86.2,21.7z"/>
<path class="st1" d="M102.2,25.1h7.5v3.3H98V10.6h4.3V25.1z"/>
<path class="st1" d="M115.8,25.1h7.5v3.3h-11.8V10.6h4.3V25.1z"/>
<path class="st1" d="M55.6,48c-0.6,0.6-1.4,1.1-2.5,1.5s-2.3,0.6-3.6,0.6c-2,0-3.6-0.6-4.8-1.8s-1.8-2.9-1.9-5.1l0-1.3
	c0-1.5,0.3-2.8,0.8-3.9c0.5-1.1,1.3-2,2.3-2.6c1-0.6,2.1-0.9,3.4-0.9c1.9,0,3.4,0.4,4.4,1.3c1.1,0.9,1.7,2.2,1.8,3.9h-3.5
	c-0.1-0.9-0.4-1.5-0.8-1.8c-0.4-0.4-1-0.5-1.8-0.5c-0.9,0-1.6,0.4-2.1,1.2c-0.5,0.8-0.8,1.9-0.8,3.4v0.9c0,1.5,0.3,2.7,0.8,3.4
	c0.5,0.8,1.3,1.2,2.5,1.2c1,0,1.7-0.2,2.1-0.6v-2.4h-2.6v-2.5h6.2L55.6,48L55.6,48z"/>
<path class="st1" d="M63.4,44.4h-2v5.4h-3.7V34.6h6c1.8,0,3.2,0.4,4.2,1.2c1,0.8,1.5,1.9,1.5,3.4c0,1.1-0.2,1.9-0.6,2.6
	s-1.1,1.3-2,1.7l3.2,6.2v0.2h-3.9L63.4,44.4z M61.4,41.6h2.3c0.7,0,1.2-0.2,1.6-0.5c0.3-0.4,0.5-0.9,0.5-1.5s-0.2-1.2-0.5-1.5
	c-0.4-0.4-0.9-0.6-1.6-0.6h-2.3L61.4,41.6L61.4,41.6z"/>
<path class="st1" d="M84.7,42.5c0,1.5-0.3,2.8-0.8,4c-0.6,1.1-1.3,2-2.3,2.6c-1,0.6-2.2,0.9-3.5,0.9s-2.4-0.3-3.5-0.9
	c-1-0.6-1.8-1.5-2.3-2.6c-0.6-1.1-0.9-2.4-0.9-3.8v-0.9c0-1.5,0.3-2.8,0.8-4c0.5-1.1,1.3-2,2.4-2.7c1-0.6,2.2-0.9,3.5-0.9
	c1.3,0,2.4,0.3,3.5,0.9c1,0.6,1.8,1.5,2.4,2.6c0.6,1.1,0.8,2.4,0.8,3.9L84.7,42.5L84.7,42.5z M80.9,41.9c0-1.5-0.2-2.7-0.8-3.5
	s-1.2-1.2-2.2-1.2c-1.8,0-2.8,1.4-2.9,4.2l0,1.1c0,1.5,0.2,2.6,0.7,3.5c0.5,0.8,1.2,1.2,2.2,1.2c0.9,0,1.6-0.4,2.2-1.2
	c0.5-0.8,0.8-1.9,0.8-3.4V41.9z"/>
<path class="st1" d="M98.5,34.6v10c0,1.1-0.2,2.1-0.7,2.9c-0.5,0.8-1.2,1.5-2.1,1.9s-2,0.7-3.2,0.7c-1.9,0-3.3-0.5-4.4-1.5
	c-1.1-1-1.6-2.3-1.6-4v-10h3.7v10.1c0,1.7,0.8,2.5,2.3,2.5c0.8,0,1.3-0.2,1.7-0.6c0.4-0.4,0.6-1.1,0.6-2v-10H98.5z"/>
<path class="st1" d="M104.5,44.7v5.2h-3.7V34.6h6.1c1.2,0,2.2,0.2,3.1,0.6s1.6,1,2.1,1.8c0.5,0.8,0.7,1.7,0.7,2.7
	c0,1.5-0.5,2.7-1.6,3.6s-2.5,1.3-4.4,1.3H104.5z M104.5,41.8h2.4c0.7,0,1.3-0.2,1.6-0.5c0.4-0.3,0.6-0.9,0.6-1.5
	c0-0.7-0.2-1.3-0.6-1.7c-0.4-0.4-0.9-0.6-1.6-0.6h-2.4V41.8z"/>
<path class="st1" d="M122.6,45.8c0-0.5-0.2-1-0.6-1.3s-1.1-0.6-2-0.9s-1.7-0.6-2.3-0.9c-2-1-3-2.3-3-4c0-0.8,0.2-1.6,0.7-2.2
	c0.5-0.7,1.2-1.2,2.1-1.5s1.9-0.5,3-0.5c1.1,0,2.1,0.2,2.9,0.6c0.9,0.4,1.6,1,2,1.7c0.5,0.7,0.7,1.5,0.7,2.5h-3.7
	c0-0.6-0.2-1.1-0.6-1.5c-0.4-0.3-0.9-0.5-1.6-0.5c-0.7,0-1.2,0.1-1.6,0.4c-0.4,0.3-0.6,0.7-0.6,1.1c0,0.4,0.2,0.8,0.6,1.1
	c0.4,0.3,1.2,0.7,2.2,1c1.1,0.3,1.9,0.7,2.6,1.1c1.7,1,2.5,2.3,2.5,3.9c0,1.3-0.5,2.4-1.5,3.1c-1,0.8-2.4,1.1-4.1,1.1
	c-1.2,0-2.4-0.2-3.4-0.7c-1-0.4-1.8-1-2.3-1.8c-0.5-0.8-0.8-1.7-0.8-2.7h3.7c0,0.8,0.2,1.4,0.6,1.8s1.1,0.6,2.1,0.6
	c0.6,0,1.1-0.1,1.4-0.4C122.5,46.6,122.6,46.3,122.6,45.8z"/>
</svg>
