<?xml version="1.0" encoding="utf-8"?>
<!-- Generator: Adobe Illustrator 26.1.0, SVG Export Plug-In . SVG Version: 6.00 Build 0)  -->
<svg version="1.1" id="Layer_1" xmlns="http://www.w3.org/2000/svg" xmlns:xlink="http://www.w3.org/1999/xlink" x="0px" y="0px"
	 viewBox="0 0 299 238" style="enable-background:new 0 0 299 238;" xml:space="preserve">
<style type="text/css">
	.st0{fill:#FFFFFF;}
	.st1{fill:#1955CC;}
</style>
<path d="M192.1,127.2l-45.4,0.3c-0.3,0-0.4,0.3-0.4,0.5v38.7c0,3.7-25.8,13.3-26.1,12.8l0,4.1c0,0.8,0.7,1.4,1.5,1.4h0.6h0h38.1
	c1.8,0,3.5-0.4,5.1-1.1l20.9-8.8c3.8-1.6,6.2-5,6.2-8.7v-38.7C192.5,127.5,192.4,127.2,192.1,127.2z"/>
<path class="st0" d="M141.6,125.2v38.7c0,3.8-2.4,7.3-6.3,8.9l-14.1,6c-0.9,0.4-0.6,1.6,0.4,1.6h38.8c1.8,0,3.5-0.3,5.1-1l15.7-6.6
	c3.9-1.6,6.4-5.1,6.4-8.9v-38.7c0-0.2-0.1-0.3-0.3-0.3H142C141.8,125,141.6,125.1,141.6,125.2z"/>
<path d="M160.4,180.8h-38.8c-0.7,0-1.1-0.5-1.2-0.9c-0.1-0.5,0.2-1,0.7-1.2l14.1-6c3.7-1.6,6.1-5,6.1-8.7v-38.7
	c0-0.3,0.3-0.6,0.6-0.6h45.2c0.3,0,0.6,0.3,0.6,0.6v38.7c0,3.9-2.6,7.6-6.5,9.2l-15.6,6.6C164,180.4,162.2,180.8,160.4,180.8z
	 M141.9,125.3v38.7c0,3.9-2.5,7.5-6.5,9.2l-14.1,6c-0.3,0.1-0.4,0.3-0.4,0.6c0,0.2,0.2,0.5,0.7,0.5h38.8c1.7,0,3.4-0.3,4.9-1
	l15.6-6.6c3.8-1.6,6.2-5,6.2-8.7v-38.7c0,0,0,0,0,0L141.9,125.3C142,125.3,141.9,125.3,141.9,125.3z"/>
<path d="M56.7,147.4l195.8,0.4c1.7,0,3.4-1.3,3.6-3l15.9-122.5c0.4-3-1.9-5.9-4.9-5.8l-193.5,1L56.7,147.4z"/>
<path class="st0" d="M259.5,17.2c3.4,0,6.4,3.4,6,6.8l-15.4,120.6c-0.2,1.7-2,3.1-3.8,3.1L54,147.4c-2,0-3.4-1.7-3.2-3.8l16-122.8
	c0.2-1.7,1.3-3.6,3.1-3.6H259.5z"/>
<path d="M246.3,148L54,147.7c-1,0-2-0.4-2.6-1.1c-0.7-0.8-1-1.8-0.8-2.9l16-122.8c0.2-1.9,1.5-3.9,3.3-3.9h189.7
	c1.7,0,3.4,0.8,4.6,2.2c1.2,1.4,1.8,3.2,1.6,4.8l-15.4,120.6C250.1,146.4,248.2,148,246.3,148z M69.9,17.5c-1.5,0-2.6,1.7-2.8,3.4
	l-16,122.8c-0.1,0.9,0.1,1.8,0.7,2.5c0.5,0.6,1.3,1,2.2,1l192.3,0.3c1.6,0,3.3-1.4,3.5-2.9l15.4-120.6c0.2-1.5-0.4-3.1-1.5-4.4
	c-1.1-1.3-2.7-2-4.2-2H69.9z"/>
<path d="M241.8,142.5l-181.7-0.3c-1,0-1.8-0.4-2.4-1.1c-0.6-0.7-0.9-1.7-0.8-2.7l14.7-113c0.2-1.7,1.4-3.6,3.1-3.6h179.3
	c1.6,0,3.1,0.8,4.3,2.1c1.1,1.3,1.7,2.9,1.5,4.5l-14.2,111C245.3,141,243.6,142.5,241.8,142.5z M74.7,22.4c-1.4,0-2.3,1.6-2.5,3.1
	l-14.7,113c-0.1,0.9,0.1,1.7,0.6,2.3c0.5,0.6,1.2,0.9,2,0.9l181.7,0.3c1.5,0,3-1.3,3.2-2.6l14.2-111c0.2-1.4-0.3-2.8-1.3-4
	c-1.1-1.2-2.5-1.9-3.9-1.9L74.7,22.4L74.7,22.4z"/>
<path d="M234.8,37.7H161c-0.1,0-0.2,0-0.2-0.1c-0.1-0.1-0.1-0.2-0.1-0.2l0.5-3.7c0-0.1,0.1-0.2,0.3-0.2h73.9c0.1,0,0.2,0,0.2,0.1
	c0.1,0.1,0.1,0.2,0.1,0.2l-0.5,3.7C235.1,37.6,235,37.7,234.8,37.7z M161.3,37.2h73.3L235,34h-73.3L161.3,37.2z"/>
<path class="st1" d="M250.8,43.6h-75.3l0.5-3.7h75.3L250.8,43.6z"/>
<path d="M240.9,49.9H202c-0.1,0-0.2,0-0.2-0.1c-0.1-0.1-0.1-0.1-0.1-0.2l0.5-3.7c0-0.1,0.1-0.2,0.3-0.2h38.9c0.1,0,0.2,0,0.2,0.1
	c0,0.1,0.1,0.1,0.1,0.2l-0.5,3.7C241.1,49.8,241,49.9,240.9,49.9z M202.3,49.4h38.3l0.4-3.1h-38.3L202.3,49.4z"/>
<path d="M228.3,86.6h-73.9c-0.1,0-0.2,0-0.2-0.1c0-0.1-0.1-0.2-0.1-0.2l0.5-3.7c0-0.1,0.1-0.2,0.3-0.2h73.9c0.1,0,0.2,0,0.2,0.1
	c0,0.1,0.1,0.2,0.1,0.2l-0.5,3.7C228.5,86.5,228.4,86.6,228.3,86.6z M154.7,86H228l0.4-3.1h-73.3L154.7,86z"/>
<path d="M188.3,92.7h-19.4c-0.1,0-0.2,0-0.2-0.1c-0.1-0.1-0.1-0.1-0.1-0.2l0.5-3.7c0-0.1,0.1-0.2,0.3-0.2H187c0.2,0,0.3,0.1,0.3,0.3
	c0,0.2-0.1,0.3-0.3,0.3h-17.2l-0.4,3.1h19c0.2,0,0.3,0.1,0.3,0.3C188.6,92.6,188.5,92.7,188.3,92.7z"/>
<path d="M244.2,92.7h-46.5c-0.2,0-0.3-0.1-0.3-0.3c0-0.2,0.1-0.3,0.3-0.3h46.2l0.4-3.1h-49.2c-0.2,0-0.3-0.1-0.3-0.3
	c0-0.2,0.1-0.3,0.3-0.3h49.5c0.1,0,0.2,0,0.2,0.1c0.1,0.1,0.1,0.2,0.1,0.2l-0.5,3.7C244.5,92.6,244.4,92.7,244.2,92.7z"/>
<path d="M243.4,98.8h-40.2c-0.2,0-0.3-0.1-0.3-0.3c0-0.2,0.1-0.3,0.3-0.3h39.9l0.4-3.1H201c-0.2,0-0.3-0.1-0.3-0.3
	c0-0.2,0.1-0.3,0.3-0.3h42.9c0.1,0,0.2,0,0.2,0.1c0.1,0.1,0.1,0.2,0.1,0.2l-0.5,3.7C243.7,98.7,243.5,98.8,243.4,98.8z"/>
<path d="M194.5,104.6h-27.4c-0.1,0-0.2,0-0.2-0.1c-0.1-0.1-0.1-0.1-0.1-0.2l0.5-3.7c0-0.1,0.1-0.2,0.3-0.2h22.6
	c0.2,0,0.3,0.1,0.3,0.3c0,0.2-0.1,0.3-0.3,0.3h-22.3l-0.4,3.1h27.1c0.2,0,0.3,0.1,0.3,0.3C194.8,104.5,194.6,104.6,194.5,104.6z"/>
<path class="st1" d="M232.4,55.8h-73.9l0.5-3.7h73.9L232.4,55.8z"/>
<path class="st1" d="M237.5,61.9H173l0.5-3.7h64.1L237.5,61.9z"/>
<path d="M228.5,74.4h-29.8c-0.1,0-0.2,0-0.2-0.1c-0.1-0.1-0.1-0.2-0.1-0.2l0.5-3.7c0-0.1,0.1-0.2,0.3-0.2H229c0.1,0,0.2,0,0.2,0.1
	c0,0.1,0.1,0.2,0.1,0.2l-0.5,3.7C228.8,74.3,228.7,74.4,228.5,74.4z M199,73.8h29.2l0.4-3.1h-29.2L199,73.8z"/>
<path class="st1" d="M236.6,80.2h-29.8l0.5-3.7h29.8L236.6,80.2z"/>
<path class="st1" d="M235.2,68h-35.7l0.5-3.7h35.3L235.2,68z"/>
<path class="st0" d="M225,110.7h-73.9l0.5-3.7h73.9L225,110.7z"/>
<path d="M204.7,117.1h-39c-0.1,0-0.2,0-0.2-0.1c-0.1-0.1-0.1-0.2-0.1-0.2l0.5-3.7c0-0.1,0.1-0.2,0.3-0.2h37.2c0.2,0,0.3,0.1,0.3,0.3
	c0,0.2-0.1,0.3-0.3,0.3h-36.9l-0.4,3.1h38.7c0.2,0,0.3,0.1,0.3,0.3C204.9,117,204.8,117.1,204.7,117.1z"/>
<path d="M225.2,123.2h-33c-0.1,0-0.2,0-0.2-0.1c-0.1-0.1-0.1-0.1-0.1-0.2l0.5-3.7c0-0.1,0.1-0.2,0.3-0.2H224c0.2,0,0.3,0.1,0.3,0.3
	c0,0.2-0.1,0.3-0.3,0.3h-31.1l-0.4,3.1h32.7c0.2,0,0.3,0.1,0.3,0.3C225.5,123.1,225.3,123.2,225.2,123.2z"/>
<path class="st0" d="M222.5,129h-73.9l0.5-3.7H223L222.5,129z"/>
<path d="M224.9,135.4h-61.7c-0.1,0-0.2,0-0.2-0.1c-0.1-0.1-0.1-0.2-0.1-0.2l0.5-3.7c0-0.1,0.1-0.2,0.3-0.2h61.5
	c0.2,0,0.3,0.1,0.3,0.3s-0.1,0.3-0.3,0.3h-61.2l-0.4,3.1h61.4c0.2,0,0.3,0.1,0.3,0.3C225.2,135.3,225,135.4,224.9,135.4z"/>
<path class="st1" d="M149.1,80.1h-7.2l0.5-3.6h7.2L149.1,80.1z"/>
<path class="st1" d="M155.1,37.4h-7.5l0.5-3.7h7.5L155.1,37.4z"/>
<path class="st1" d="M155.8,31.8h-7.5l0.5-3.7h7.5L155.8,31.8z"/>
<path class="st1" d="M154.2,43.6h-7.4l0.5-3.7h7.4L154.2,43.6z"/>
<path class="st1" d="M153.1,49.7h-7.1l0.5-3.7h7.1L153.1,49.7z"/>
<path class="st1" d="M152.4,55.8h-7.2l0.5-3.7h7.2L152.4,55.8z"/>
<path class="st1" d="M151.5,61.9h-7.2l0.5-3.7h7.2L151.5,61.9z"/>
<path class="st1" d="M150.1,73.8h-7.1l0.5-3.7h7.1L150.1,73.8z"/>
<path class="st1" d="M150.7,67.7h-6.8l0.5-3.7h6.8L150.7,67.7z"/>
<path class="st1" d="M146.6,98.7h-7.2l0.5-3.6h7.2L146.6,98.7z"/>
<path class="st1" d="M147.6,92.4h-7.1l0.5-3.7h7.1L147.6,92.4z"/>
<path class="st1" d="M148.2,86.3h-6.8l0.5-3.7h6.8L148.2,86.3z"/>
<path class="st1" d="M141.7,134.8h-7.2l0.5-3.6h7.2L141.7,134.8z"/>
<path class="st1" d="M145.8,104.3h-7.1l0.5-3.7h7.1L145.8,104.3z"/>
<path class="st1" d="M145,110.4h-7.2l0.5-3.7h7.2L145,110.4z"/>
<path class="st1" d="M144.1,116.5H137l0.5-3.7h7.2L144.1,116.5z"/>
<path class="st1" d="M142.7,128.5h-7.1l0.5-3.7h7.1L142.7,128.5z"/>
<path class="st1" d="M143.4,122.4h-6.8l0.5-3.7h6.8L143.4,122.4z"/>
<path class="st1" d="M116.9,31H81.4l0.5-3.6h35.6L116.9,31z"/>
<path d="M123.2,37.5H85.7c-0.1,0-0.2,0-0.2-0.1c-0.1-0.1-0.1-0.1-0.1-0.2l0.5-3.7c0-0.1,0.1-0.2,0.3-0.2h37.5c0.1,0,0.2,0,0.2,0.1
	c0.1,0.1,0.1,0.1,0.1,0.2l-0.5,3.7C123.5,37.4,123.3,37.5,123.2,37.5z M86,36.9h36.9l0.4-3.1H86.5L86,36.9z"/>
<path d="M133,43.6H89.3c-0.1,0-0.2,0-0.2-0.1c0-0.1-0.1-0.2-0.1-0.2l0.5-3.7c0-0.1,0.1-0.2,0.3-0.2h43.7c0.1,0,0.2,0,0.2,0.1
	c0.1,0.1,0.1,0.2,0.1,0.2l-0.5,3.7C133.3,43.5,133.1,43.6,133,43.6z M89.7,43h43.1l0.4-3.1H90.1L89.7,43z"/>
<path d="M138.6,49.7h-36.4c-0.1,0-0.2,0-0.2-0.1c-0.1-0.1-0.1-0.2-0.1-0.2l0.5-3.7c0-0.1,0.1-0.2,0.3-0.2h36.4c0.1,0,0.2,0,0.2,0.1
	c0.1,0.1,0.1,0.2,0.1,0.2l-0.5,3.7C138.9,49.6,138.7,49.7,138.6,49.7z M102.5,49.1h35.9l0.4-3.1h-35.9L102.5,49.1z"/>
<path class="st1" d="M103.6,79.9H74.8l0.5-3.6h28.8L103.6,79.9z"/>
<path d="M104.1,86.3H83c-0.1,0-0.2,0-0.2-0.1c0-0.1-0.1-0.2-0.1-0.2l0.5-3.7c0-0.1,0.1-0.2,0.3-0.2h21.1c0.1,0,0.2,0,0.2,0.1
	c0,0.1,0.1,0.2,0.1,0.2l-0.5,3.7C104.3,86.2,104.2,86.3,104.1,86.3z M83.3,85.8h20.5l0.4-3.1H83.8L83.3,85.8z"/>
<path d="M111.6,92.4H91.4c-0.1,0-0.2,0-0.2-0.1c-0.1-0.1-0.1-0.2-0.1-0.2l0.5-3.7c0-0.1,0.1-0.2,0.3-0.2h20.2c0.1,0,0.2,0,0.2,0.1
	c0,0.1,0.1,0.2,0.1,0.2l-0.5,3.7C111.9,92.3,111.8,92.4,111.6,92.4z M91.8,91.9h19.6l0.4-3.1H92.2L91.8,91.9z"/>
<path d="M125,98.5H99.4c-0.1,0-0.2,0-0.2-0.1c-0.1-0.1-0.1-0.1-0.1-0.2l0.5-3.7c0-0.1,0.1-0.2,0.3-0.2h25.5c0.1,0,0.2,0,0.2,0.1
	c0,0.1,0.1,0.1,0.1,0.2l-0.5,3.7C125.2,98.4,125.1,98.5,125,98.5z M99.8,98h24.9l0.4-3.1h-24.9L99.8,98z"/>
<path class="st1" d="M104.3,55.5H78.6l0.5-3.7h25.7L104.3,55.5z"/>
<path d="M136.3,61.9H96.5c-0.1,0-0.2,0-0.2-0.1c-0.1-0.1-0.1-0.2-0.1-0.2l0.5-3.7c0-0.1,0.1-0.2,0.3-0.2h39.8c0.1,0,0.2,0,0.2,0.1
	c0.1,0.1,0.1,0.2,0.1,0.2l-0.5,3.7C136.6,61.8,136.5,61.9,136.3,61.9z M96.8,61.3h39.2l0.4-3.1H97.3L96.8,61.3z"/>
<path class="st1" d="M103,67.7H77.2l0.5-3.7h25.7L103,67.7z"/>
<path d="M135,74.1H95.2c-0.1,0-0.2,0-0.2-0.1c-0.1-0.1-0.1-0.2-0.1-0.2l0.5-3.7c0-0.1,0.1-0.2,0.3-0.2h39.8c0.1,0,0.2,0,0.2,0.1
	c0.1,0.1,0.1,0.2,0.1,0.2l-0.5,3.7C135.3,74,135.1,74.1,135,74.1z M95.5,73.5h39.2l0.4-3.1H95.9L95.5,73.5z"/>
<path class="st1" d="M103.6,104.3h-32l0.5-3.6h32L103.6,104.3z"/>
<path d="M124.3,110.8H72c-0.1,0-0.2,0-0.2-0.1c0-0.1-0.1-0.2-0.1-0.2l0.5-3.7c0-0.1,0.1-0.2,0.3-0.2h52.3c0.1,0,0.2,0,0.2,0.1
	c0,0.1,0.1,0.2,0.1,0.2l-0.5,3.7C124.5,110.7,124.4,110.8,124.3,110.8z M72.3,110.2H124l0.4-3.1H72.7L72.3,110.2z"/>
<path d="M124.1,116.9h-30c-0.1,0-0.2,0-0.2-0.1c-0.1-0.1-0.1-0.2-0.1-0.2l0.5-3.7c0-0.1,0.1-0.2,0.3-0.2h30c0.1,0,0.2,0,0.2,0.1
	c0,0.1,0.1,0.1,0.1,0.2l-0.5,3.7C124.4,116.8,124.2,116.9,124.1,116.9z M94.4,116.3h29.4l0.4-3.1H94.8L94.4,116.3z"/>
<path class="st1" d="M111.5,128.8H91.4l-1.6-3.7H112L111.5,128.8z"/>
<path d="M130.1,122.5h-28.8c-0.1,0-0.2,0-0.2-0.1c-0.1-0.1-0.1-0.2-0.1-0.2l0.5-3.7c0-0.1,0.1-0.2,0.3-0.2h28.8c0.1,0,0.2,0,0.2,0.1
	c0.1,0.1,0.1,0.2,0.1,0.2l-0.5,3.7C130.4,122.4,130.3,122.5,130.1,122.5z M101.6,121.9h28.2l0.4-3.1h-28.2L101.6,121.9z"/>
<path d="M117.5,135.2h-23c-0.2,0-0.3-0.1-0.3-0.3c0-0.2,0.1-0.3,0.3-0.3h22.7l0.4-3.1H93.4c-0.2,0-0.3-0.1-0.3-0.3s0.1-0.3,0.3-0.3
	h24.5c0.1,0,0.2,0,0.2,0.1c0.1,0.1,0.1,0.1,0.1,0.2l-0.5,3.7C117.7,135.1,117.6,135.2,117.5,135.2z"/>
<path class="st0" d="M287.1,216.4l-0.7,6.9l-4.6,0.6v-8.2L287.1,216.4z"/>
<path d="M281.8,224.1c-0.1,0-0.1,0-0.2-0.1c-0.1-0.1-0.1-0.1-0.1-0.2v-8.2c0-0.1,0-0.2,0.1-0.2c0.1-0.1,0.1-0.1,0.2-0.1l5.4,0.7
	c0.1,0,0.3,0.2,0.2,0.3l-0.7,6.9c0,0.1-0.1,0.2-0.2,0.3L281.8,224.1C281.8,224.1,281.8,224.1,281.8,224.1z M282,216v7.6l4.1-0.5
	l0.7-6.4L282,216z"/>
<path class="st0" d="M281,235.9c1.9,0.3,5.1,0.5,8.8,0c1.2-0.2,2-1.4,1.7-2.6c-0.8-3.4-2.2-9.7-4.7-12.7l-0.6,1.6l-0.8-1.5
	c-0.1-0.2-0.3-0.4-0.5-0.4l-1.8-0.2c-0.4-0.1-0.7,0.2-0.8,0.6l-0.3,1.4l-1.1-1.8l-0.5,6.8c-0.1,1.5-0.3,2.9-0.6,4.3l-0.5,2.1
	C279.1,234.7,279.9,235.7,281,235.9z"/>
<path d="M285.4,236.5c-1.8,0-3.3-0.1-4.4-0.3c-1.3-0.2-2.2-1.4-2-2.7l0.5-2.2c0.3-1.4,0.5-2.9,0.6-4.3l0.5-6.8
	c0-0.1,0.1-0.2,0.2-0.3c0.1,0,0.2,0,0.3,0.1l0.7,1.2l0.1-0.7c0.1-0.5,0.6-0.9,1.1-0.8l1.8,0.2c0.3,0,0.6,0.2,0.8,0.5l0.5,1l0.4-1
	c0-0.1,0.1-0.2,0.2-0.2c0.1,0,0.2,0,0.3,0.1c2.3,2.8,3.7,8.6,4.5,12.1l0.2,0.7c0.2,0.6,0,1.4-0.3,1.9c-0.4,0.6-1,0.9-1.6,1
	C288.3,236.4,286.8,236.5,285.4,236.5z M281.1,221.2l-0.4,5.9c-0.1,1.5-0.3,2.9-0.7,4.4l-0.5,2.2c-0.1,0.9,0.6,1.8,1.5,2
	c2,0.3,5.1,0.5,8.8,0c0.5-0.1,1-0.4,1.2-0.8c0.3-0.4,0.4-0.9,0.3-1.4l-0.2-0.7c-0.8-3.3-2.1-8.6-4.1-11.4l-0.4,1.1
	c0,0.1-0.1,0.2-0.2,0.2c-0.1,0-0.2,0-0.3-0.1l-0.8-1.5c-0.1-0.1-0.2-0.2-0.3-0.2l-1.8-0.2c-0.2,0-0.5,0.1-0.5,0.4l-0.3,1.4
	c0,0.1-0.1,0.2-0.2,0.2c-0.1,0-0.2,0-0.3-0.1L281.1,221.2z"/>
<path d="M285.3,234.4c-2.4,0-3.8-0.5-3.9-0.5c-0.1-0.1-0.2-0.2-0.2-0.4c0.1-0.1,0.2-0.2,0.4-0.2c0,0,3.1,1.1,7.6,0
	c0.2,0,0.3,0.1,0.4,0.2c0,0.2-0.1,0.3-0.2,0.3C287.8,234.3,286.4,234.4,285.3,234.4z"/>
<path d="M287.5,229.1l-4.4-0.1c-0.2,0-0.3-0.1-0.3-0.3c0-0.2,0.1-0.3,0.3-0.3l4.4,0.1c0.2,0,0.3,0.1,0.3,0.3
	C287.8,229,287.7,229.1,287.5,229.1z"/>
<path class="st0" d="M265.4,212.7l-0.7,10.1h-5.6l-0.3-10.1H265.4z"/>
<path d="M264.7,223.1h-5.6c-0.2,0-0.3-0.1-0.3-0.3l-0.3-10.1c0-0.1,0-0.1,0.1-0.2s0.1-0.1,0.2-0.1h6.6c0.1,0,0.2,0,0.2,0.1
	s0.1,0.1,0.1,0.2l-0.7,10.1C264.9,223,264.8,223.1,264.7,223.1z M259.4,222.5h5l0.7-9.5h-5.9L259.4,222.5z"/>
<path class="st0" d="M266.1,228.5c0,0.9-0.6,1.8-1.6,2c-3.2,0.8-10.4,2.4-12.5,2.7c-2.7,0.4-6-0.4-7.4-2c-1.4-1.6,3.2-5.4,5.3-6.7
	c3.2-2,6.3-6.1,7.6-6.2c1.3-0.2,3.7,3.6,3.7,3.6l4-1.7C265.4,220.2,266.1,223.6,266.1,228.5z"/>
<path d="M250.6,233.6c-2.5,0-5-0.9-6.2-2.2c-0.3-0.3-0.4-0.7-0.3-1.1c0.3-2,4-4.9,5.7-6c1.6-1,3.1-2.5,4.5-3.8
	c1.5-1.4,2.5-2.4,3.3-2.5c1.3-0.2,3.2,2.6,3.9,3.6l3.8-1.6c0.1,0,0.2,0,0.2,0c0.1,0,0.1,0.1,0.2,0.2c0,0,0.7,3.5,0.8,8.3
	c0,1.1-0.7,2.1-1.8,2.3c-3.1,0.7-10.5,2.4-12.5,2.7C251.6,233.6,251.1,233.6,250.6,233.6z M257.8,218.5
	C257.7,218.5,257.7,218.5,257.8,218.5c-0.6,0.1-1.8,1.2-3,2.4c-1.4,1.3-2.9,2.8-4.6,3.8c-1.8,1.1-5.2,3.9-5.5,5.6
	c0,0.3,0,0.5,0.2,0.7c1.3,1.5,4.4,2.3,7.1,1.9c2.1-0.3,9.4-2,12.5-2.7c0.8-0.2,1.4-0.9,1.3-1.7c-0.1-3.9-0.5-6.9-0.7-7.9l-3.6,1.5
	c-0.1,0.1-0.3,0-0.4-0.1C260.2,220.6,258.5,218.5,257.8,218.5z"/>
<path d="M250.7,231.1c-1.8,0-3.3-0.3-4.4-1c-0.1-0.1-0.2-0.3-0.1-0.4s0.3-0.2,0.4-0.1c4.2,2.7,15.2-1.3,17.4-2.1
	c0.2-0.1,0.3,0,0.4,0.2c0.1,0.1,0,0.3-0.2,0.4C261.8,228.9,255.6,231.1,250.7,231.1z"/>
<path d="M256.9,225.7c-0.1,0-0.2,0-0.2-0.1l-2.3-2.3c-0.1-0.1-0.1-0.3,0-0.4c0.1-0.1,0.3-0.1,0.4,0l2.3,2.3c0.1,0.1,0.1,0.3,0,0.4
	C257,225.6,257,225.7,256.9,225.7z"/>
<path class="st0" d="M288.7,146.9c0,0,1.7,31.6,2.6,42.4s-2.1,28.4-2.1,28.4l-8.6-0.5c0,0-0.6-21.3-1.2-27.2c0,0-3.6-8-4.7-15.2
	c-1.1-7.1-4.8-18.4-4.8-18.4s-3,56.4-3.3,60.8c0,0-6.8,0.3-9.2-1.2c0,0-4.3-20.6-3.7-31.7c0.6-11.2-0.1-39-0.1-39L288.7,146.9z"/>
<path d="M289.2,218C289.2,218,289.2,218,289.2,218l-8.6-0.5c-0.2,0-0.3-0.1-0.3-0.3c0-0.2-0.6-21.2-1.2-27.1
	c-0.3-0.7-3.7-8.4-4.7-15.2c-0.8-5.5-3.2-13.6-4.3-16.9c-0.5,9.2-2.9,55.2-3.2,59.2c0,0.1-0.1,0.3-0.3,0.3c-0.3,0-6.9,0.3-9.4-1.3
	c-0.1,0-0.1-0.1-0.1-0.2c0-0.2-4.3-20.7-3.7-31.8c0.6-11-0.1-38.7-0.1-38.9c0-0.1,0-0.2,0.1-0.2c0.1-0.1,0.1-0.1,0.2-0.1l35,1.6
	c0.1,0,0.3,0.1,0.3,0.3c0,0.3,1.7,31.7,2.6,42.4c0.9,10.8-2.1,28.3-2.1,28.5C289.5,217.9,289.4,218,289.2,218z M280.9,217l8.1,0.4
	c0.4-2.2,2.9-18.1,2.1-28.1c-0.9-10.2-2.5-39.1-2.6-42.2l-34.5-1.5c0.1,3.1,0.6,28.2,0.1,38.7c-0.6,10.6,3.3,29.8,3.6,31.5
	c2.1,1.2,7.4,1.2,8.7,1.1c0.4-6,3.2-60,3.3-60.5c0-0.1,0.1-0.2,0.2-0.3c0.1,0,0.3,0.1,0.3,0.2c0,0.1,3.7,11.4,4.8,18.5
	c1.1,7,4.7,15,4.7,15.1c0,0,0,0.1,0,0.1C280.3,195.5,280.8,214.5,280.9,217z"/>
<path d="M283.6,190.4H281c-0.2,0-0.3-0.1-0.3-0.3s0.1-0.3,0.3-0.3h2.6c0.2,0,0.3,0.1,0.3,0.3S283.8,190.4,283.6,190.4z"/>
<path d="M262.2,206.8c-0.2,0-0.3-0.1-0.3-0.3c-0.1-5.1-5.9-14.6-5.9-14.7c-0.1-0.1,0-0.3,0.1-0.4c0.1-0.1,0.3,0,0.4,0.1
	c0.2,0.4,5.9,9.7,6,14.9C262.5,206.6,262.3,206.8,262.2,206.8z"/>
<path class="st0" d="M248.3,97c-0.5,0-4.5,6.8-6.3,10c-0.5,0.9-1.7,1.2-2.6,0.7l-14.6-9c-1.2-0.7-2.2-1.7-3-2.9
	c-1.2-1.9-1.9-3.8-3.6-5.1c-1.3-1.1-2.7-2.3-3.1-2.6c-0.2-0.2-1.4,0.6-0.5,2.1c0.3,0.5,1.3,1.4,1.6,1.8c0.4,0.7,0.4,1.6,0,2.2
	c-0.5,0.7-1,1.8-0.4,3.3c0.9,2.2,2.9,2.8,4,2.9c0.6,0.1,1.1,0.3,1.4,0.8l13.5,15.5c2.1,2.4,5.6,2.9,8.3,1.3
	c4.4-2.7,10-8.1,14.1-14.9L248.3,97z"/>
<path d="M239.5,119.1c-1.9,0-3.8-0.8-5.1-2.3l-13.5-15.5c-0.3-0.4-0.8-0.6-1.3-0.7c-1.2-0.1-3.3-0.7-4.2-3.1
	c-0.6-1.7-0.1-2.8,0.4-3.5c0.4-0.5,0.4-1.3,0-1.8c-0.1-0.2-0.4-0.5-0.7-0.8c-0.4-0.4-0.7-0.8-0.9-1c-0.6-1.1-0.3-1.9,0.1-2.3
	c0.3-0.3,0.6-0.3,0.8-0.2c0.2,0.1,0.5,0.4,0.9,0.8c0.6,0.5,1.4,1.2,2.1,1.8c1.2,1,1.9,2.2,2.7,3.5c0.3,0.5,0.6,1.1,1,1.6
	c0.7,1.1,1.7,2.1,2.9,2.8l14.6,9c0.4,0.2,0.8,0.3,1.2,0.2c0.4-0.1,0.8-0.4,1-0.8c5.9-10.2,6.3-10.2,6.6-10.2c0.1,0,0.1,0,0.1,0.1
	l8.7,6c0.1,0.1,0.2,0.2,0.1,0.4c-4.4,7.3-10.2,12.6-14.2,15C242,118.8,240.8,119.1,239.5,119.1z M215,88.4c-0.1,0-0.2,0.1-0.3,0.4
	c-0.1,0.3-0.2,0.7,0.2,1.4c0.1,0.2,0.5,0.6,0.8,0.9c0.3,0.3,0.6,0.6,0.8,0.8c0.5,0.8,0.5,1.8-0.1,2.5c-0.7,0.8-0.8,1.8-0.3,3
	c0.8,2.1,2.7,2.6,3.7,2.7c0.6,0.1,1.2,0.4,1.6,0.9l13.5,15.5c2,2.3,5.3,2.8,7.9,1.2c3.9-2.4,9.6-7.5,13.9-14.6l-8.3-5.8
	c-0.5,0.5-2.3,3.3-6.1,9.8c-0.3,0.5-0.8,0.9-1.4,1c-0.6,0.2-1.2,0.1-1.7-0.3l-14.6-9c-1.2-0.8-2.3-1.8-3.1-3c-0.4-0.6-0.7-1.1-1-1.6
	c-0.7-1.3-1.4-2.5-2.5-3.4c-0.8-0.6-1.6-1.3-2.1-1.8C215.5,88.8,215.2,88.5,215,88.4z"/>
<path d="M298.5,109.7c0,0,1-18-12.6-23c-10.5-3.9-24-2.2-28.2-0.8c-10.4,3.6-15.5,17.3-15.5,17.3l12.1,1.7c0,0-3.7,39.4-2.1,48.1
	c0,0,9.8,1.1,13.9-0.5c4.1-1.6,17.8-3.9,24.3-0.9l-1.2-42.1L298.5,109.7z"/>
<path class="st0" d="M259.3,153.7c-3.5,0-6.7-0.4-6.9-0.4c-0.1,0-0.2-0.1-0.2-0.2c-1.5-8.4,1.7-44.1,2.1-47.9l-11.9-1.7
	c-0.1,0-0.2-0.1-0.2-0.1c0-0.1,0-0.2,0-0.2c0-0.1,5.3-13.9,15.6-17.5c4.6-1.6,18.1-3.1,28.4,0.8c5.6,2.1,9.6,6.8,11.6,13.6
	c1.4,5.1,1.2,9.7,1.2,9.7c0,0.2-0.1,0.3-0.3,0.3c0,0,0,0,0,0l-8.8-0.2l1.2,41.8c0,0.1,0,0.2-0.1,0.2c-0.1,0.1-0.2,0.1-0.3,0
	c-6.5-3-20-0.7-24.1,0.9C264.6,153.5,261.9,153.7,259.3,153.7z M252.6,152.8c1.4,0.1,9.9,1,13.6-0.5c4.1-1.6,17.3-3.9,24.1-1.1
	l-1.2-41.7c0-0.1,0-0.2,0.1-0.2c0.1-0.1,0.1-0.1,0.2-0.1l8.9,0.2c0-2.3-0.1-17.9-12.4-22.5c-10.2-3.8-23.4-2.3-28-0.8
	c-9.2,3.2-14.3,14.7-15.2,16.8l11.8,1.7c0.1,0,0.3,0.2,0.2,0.3C254.7,105.3,251.1,143.7,252.6,152.8z"/>
<path class="st0" d="M281.6,143.2C281.6,143.2,281.6,143.2,281.6,143.2c-15.9-2.8-20.5-13.9-20.6-14c-0.1-0.2,0-0.3,0.2-0.4
	s0.3,0,0.4,0.2c0,0.1,4.6,10.9,20.1,13.7c0.2,0,0.3,0.2,0.2,0.3C281.9,143.1,281.7,143.2,281.6,143.2z"/>
<path class="st0" d="M252.6,124.1h19.9l-6.2-22.4h-19.9L252.6,124.1z"/>
<path d="M272.5,124.4h-19.9c-0.1,0-0.2-0.1-0.3-0.2l-6.2-22.4c0-0.1,0-0.2,0.1-0.2c0.1-0.1,0.1-0.1,0.2-0.1h19.9
	c0.1,0,0.2,0.1,0.3,0.2l6.2,22.4c0,0.1,0,0.2-0.1,0.2C272.7,124.4,272.6,124.4,272.5,124.4z M252.8,123.9h19.3l-6.1-21.8h-19.3
	L252.8,123.9z"/>
<path class="st0" d="M296.2,109.7l-8.8-0.4c0,0-0.1,7.4-0.9,7.6c-2.8,0.5-8.7,0.5-12.5,0c-1.3-0.2-2.4-1.2-2.6-2.5
	c-0.2-1-0.7-2.2-2.1-3c-1.3-0.8,0,1.8-1.3,3.4c-0.7,0.9-2.8,0.5-5.6-0.2c-2.9-0.7-3.6,2.4-0.4,4.3c3.5,2,5.7,1.8,6.8,2
	c2.2,0.5,21.8,3.6,24.9,1.9C296,121.5,296.2,109.7,296.2,109.7z"/>
<path d="M289.9,123.6c-7,0-20-2.2-21.1-2.4c-0.2-0.1-0.5-0.1-0.8-0.1c-1.3-0.1-3.3-0.3-6.1-2c-2-1.2-2.5-2.8-2.1-3.8
	c0.3-0.7,1.2-1.4,2.7-1c2.6,0.6,4.8,1,5.4,0.3c0.6-0.7,0.6-1.7,0.5-2.4c0-0.6,0-1,0.3-1.2c0.3-0.2,0.6,0,0.8,0.1
	c1.2,0.8,2,1.9,2.2,3.2c0.2,1.2,1.2,2.1,2.4,2.3c3.8,0.5,9.6,0.4,12.4,0c0.4-0.4,0.6-4.1,0.7-7.3c0-0.1,0-0.2,0.1-0.2
	c0.1-0.1,0.1-0.1,0.2-0.1l8.8,0.4c0.2,0,0.3,0.1,0.3,0.3c0,1.2-0.2,12-2.6,13.4C293.1,123.4,291.7,123.6,289.9,123.6z M261.6,114.8
	c-0.7,0-1.2,0.3-1.4,0.8c-0.3,0.8,0.1,2.1,1.9,3.1c2.7,1.6,4.6,1.8,5.8,1.9c0.4,0,0.6,0.1,0.9,0.1c2.3,0.5,21.8,3.5,24.7,1.9
	c1.8-1,2.3-9.1,2.4-12.6l-8.2-0.4c0,0.6,0,2-0.1,3.4c-0.2,3.7-0.6,4-1,4.1c-2.9,0.5-8.8,0.5-12.6,0c-1.4-0.2-2.6-1.3-2.9-2.8
	c-0.2-1.2-0.9-2.2-2-2.8c-0.1-0.1-0.2-0.1-0.2-0.1c0,0.1,0,0.4,0,0.7c0,0.8,0,1.9-0.6,2.8c-0.8,1-3,0.6-6-0.1
	C262.1,114.8,261.8,114.8,261.6,114.8z"/>
<path class="st0" d="M266,86.2c0,0,2.3-1.4,2.2-2.2l0.6-4.2c0-0.4-0.2-0.7-0.6-0.8l-2.7-0.9c-0.3-0.1-0.6-0.5-0.5-0.8l0.2-3.3
	l-1-0.9c-0.1-0.1-0.1-0.2,0-0.3l1.7-2c0.5-0.8,1.1-2.6,1.5-2.5c0,0,9.5-1.1,9.9,3.7c0.1,0.7-0.1,1.4-0.5,1.9L276,75
	c-0.8,1.2-1.3,2.6-1.1,4.1c0,0.3,0.4,2.2,0.7,3.5c0.1,0.7,0.6,1.4,1.1,1.8c0.7,0.6,1.6,1.3,1.5,1.3c0,0-1,0.8-2.7,1.5
	c-2.9,1.2-6.3,0.9-9-0.8L266,86.2z"/>
<path d="M271.7,88.2c-1.9,0-3.8-0.5-5.4-1.5l-0.5-0.3c-0.1,0-0.1-0.1-0.1-0.2c0-0.1,0-0.2,0.1-0.2c1-0.6,2.1-1.6,2.1-2c0,0,0,0,0,0
	l0.6-4.2c0-0.2-0.2-0.5-0.4-0.6l-2.7-0.9c-0.5-0.2-0.8-0.6-0.7-1.1L265,74l-1-0.8c-0.2-0.2-0.2-0.5,0-0.7l1.7-2
	c0.2-0.2,0.4-0.7,0.6-1.1c0.4-0.9,0.7-1.5,1.2-1.5c0.6-0.1,6.2-0.6,8.9,1.5c0.8,0.6,1.2,1.5,1.3,2.4c0.1,0.7-0.1,1.5-0.6,2.1
	l-0.8,1.2c-0.8,1.2-1.2,2.6-1.1,3.9c0,0.1,0.1,0.8,0.7,3.5c0.1,0.7,0.5,1.2,1,1.7c1.7,1.3,1.6,1.4,1.6,1.6c0,0.1-0.1,0.2-0.1,0.2
	c0,0-1.1,0.8-2.8,1.5C274.4,88,273,88.2,271.7,88.2z M266.6,86.2L266.6,86.2c2.7,1.6,6,1.9,8.8,0.8c1.2-0.5,2-1,2.4-1.3
	c-0.2-0.2-0.5-0.5-1.3-1c-0.6-0.5-1.1-1.2-1.2-2c-0.4-2.1-0.7-3.3-0.7-3.6c-0.1-1.5,0.3-3,1.2-4.3l0.8-1.2c0.4-0.5,0.6-1.2,0.5-1.8
	c-0.1-0.8-0.4-1.5-1.1-2c-2.5-2-8.4-1.4-8.5-1.4c0,0,0,0-0.1,0c-0.2,0.1-0.4,0.8-0.6,1.1c-0.2,0.4-0.4,0.9-0.6,1.2l-1.6,2l1,0.9
	c0.1,0.1,0.1,0.2,0.1,0.2l-0.2,3.3c0,0.2,0.1,0.5,0.4,0.5l2.7,0.9c0.5,0.2,0.8,0.6,0.8,1.1c0,0,0,0,0,0l-0.6,4.2
	C268.5,84.8,267.3,85.7,266.6,86.2z"/>
<path d="M267.1,60.9c2.2-0.1-0.6,2.1,7.4-0.2c3.2-0.9,1.6,2.8,2.4,2.6c3.1-0.9,2.9-0.8,4.4-0.4c1,0.3,1.6,2.1,1.4,3.5
	c-0.3,1.8-2.3,4.7-4.1,7.7c-0.9,1.6-2.6,1.7-4.6-0.6c-0.2-0.2,0.9-1.7,0.3-2.3c-1.5-1.6-2.1,0.8-3.3,0.1c-1.1-0.7-1.6-1.2-2.8-2.3
	c-1.5-1.3-3.9,0.8-4.8-2.3C262.9,65,264.2,61.1,267.1,60.9z"/>
<path class="st0" d="M137.2,226.1c0,0,0.7,0,1.3-0.5c2-1.4,6-4.5,8.8-4.1c4.6,0.6,5.2,4.4,5.2,4.4s3.9-0.1,3.8,2.5
	c-0.1,2-1.2,4.6-4.4,6c-4.3,1.9-8.7,3.4-13.4,0.2c-0.9-0.6-2-0.9-3.1-0.8c-2.7,0.3-42.7,1.1-42.7,1.1c-9.2,0-17.6-5.1-21.8-13.2
	l-8.4-16.1l9.7-27l15.2,35.2C94.5,223.9,136.4,226.3,137.2,226.1z"/>
<path d="M144.3,236.7c-1.9,0-3.9-0.5-6-1.9c-0.9-0.6-1.9-0.8-3-0.7c-2.7,0.3-41.1,1.1-42.8,1.1c-9.3,0-17.8-5.1-22.1-13.4l-8.4-16.1
	c0-0.1,0-0.2,0-0.2l9.7-27c0-0.1,0.1-0.2,0.3-0.2c0.1,0,0.2,0.1,0.3,0.2l15.2,35.2c7.1,9.6,48,12.2,49.7,12.1c0,0,0,0,0.1,0
	s0.6,0,1.1-0.4l0.5-0.3c2.2-1.6,5.9-4.2,8.5-3.8c4.1,0.6,5.2,3.6,5.4,4.4c0.6,0,2.3,0.1,3.2,1.1c0.5,0.4,0.7,1,0.7,1.7
	c0,1-0.4,4.4-4.5,6.2C149.6,235.8,147,236.7,144.3,236.7z M135.8,233.6c1,0,2,0.3,2.8,0.9c4.7,3.1,8.9,1.6,13.2-0.2
	c3.8-1.7,4.2-4.8,4.2-5.7c0-0.5-0.1-0.9-0.5-1.3c-1-1-3-0.9-3.1-0.9h0c-0.1,0-0.3-0.1-0.3-0.2c0-0.2-0.6-3.6-5-4.2
	c-2.5-0.3-6.1,2.3-8.1,3.7l-0.5,0.3c-0.7,0.5-1.4,0.5-1.5,0.5c-1,0.1-11.5-0.5-22.6-2.3c-10.5-1.7-23.8-4.7-27.6-10c0,0,0,0,0-0.1
	l-14.9-34.6l-9.4,26.2l8.4,16c4.2,8.1,12.5,13,21.6,13c0.4,0,40.1-0.9,42.7-1.1C135.5,233.6,135.7,233.6,135.8,233.6z"/>
<path class="st0" d="M126.7,218.9l3.9-6.8l3.2,2.1c0.2,0.1,0.3,0.3,0.4,0.4l0.2,0.3c0.2,0.4,0.7,0.7,1.1,0.7c0.3,0,0.5,0.1,0.7,0.2
	l23.7,15.3c0.2,0.1,0.4,0.3,0.5,0.4l4.8,5.3l-6.6-1.5c-0.4-0.1-0.7-0.2-1-0.4l-24.9-13c-0.2-0.1-0.4-0.3-0.5-0.5l0-0.1
	c-0.2-0.4-0.7-0.6-1.1-0.6h-0.2c-0.2,0-0.4-0.1-0.6-0.2L126.7,218.9z"/>
<path d="M165.2,237.1C165.1,237.1,165.1,237.1,165.2,237.1l-6.7-1.5c-0.4-0.1-0.8-0.2-1.1-0.4l-24.9-13c-0.3-0.1-0.5-0.3-0.6-0.6
	l0-0.1c-0.2-0.3-0.5-0.5-0.9-0.5h-0.2c0,0,0,0,0,0c-0.2,0-0.5-0.1-0.7-0.2l-3.4-1.8c-0.1,0-0.1-0.1-0.1-0.2c0-0.1,0-0.2,0-0.2
	l3.9-6.8c0-0.1,0.1-0.1,0.2-0.1c0.1,0,0.2,0,0.2,0l3.2,2.1c0.2,0.1,0.4,0.3,0.5,0.5l0.2,0.3c0.2,0.3,0.5,0.5,0.9,0.5c0,0,0,0,0,0
	c0.3,0,0.6,0.1,0.9,0.3l23.6,15.3c0.2,0.1,0.4,0.3,0.6,0.5l4.8,5.3c0.1,0.1,0.1,0.2,0,0.3C165.4,237.1,165.3,237.1,165.2,237.1z
	 M130.9,220.5c0.5,0,1.1,0.3,1.4,0.8l0,0c0.1,0.2,0.2,0.3,0.4,0.4l24.9,13c0.3,0.2,0.6,0.3,1,0.4l5.8,1.3l-4.2-4.6
	c-0.1-0.1-0.3-0.3-0.5-0.4L136,216c-0.2-0.1-0.4-0.2-0.6-0.2c0,0,0,0,0,0c-0.6,0-1.1-0.3-1.4-0.8l-0.2-0.3c-0.1-0.1-0.2-0.3-0.3-0.4
	l-2.9-1.9l-3.6,6.2l3.1,1.6c0.2,0.1,0.3,0.1,0.5,0.1L130.9,220.5z"/>
<path d="M158.7,234.4c0,0-0.1,0-0.1,0c-0.1-0.1-0.2-0.2-0.1-0.4l1.4-2.8c0.1-0.1,0.2-0.2,0.4-0.1c0.1,0.1,0.2,0.2,0.1,0.4l-1.4,2.8
	C158.9,234.3,158.8,234.4,158.7,234.4z"/>
<path d="M125,208.7l5.6,3.4l-4,6.8l-5.6-3.4c-1-0.6-1.4-2-0.8-3l1.8-3.1C122.7,208.4,124,208.1,125,208.7z"/>
<path d="M126.7,219.2c-0.1,0-0.1,0-0.2,0l-5.6-3.4c-1.2-0.7-1.6-2.2-0.9-3.4l1.8-3.1c0.3-0.6,0.8-0.9,1.5-1.1
	c0.6-0.2,1.3-0.1,1.9,0.3l5.6,3.4c0.1,0.1,0.2,0.3,0.1,0.4l-4,6.8C126.9,219.1,126.8,219.1,126.7,219.2
	C126.7,219.2,126.7,219.2,126.7,219.2z M123.9,208.7c-0.2,0-0.3,0-0.5,0.1c-0.5,0.1-0.9,0.4-1.1,0.8l-1.8,3.1
	c-0.5,0.9-0.2,2,0.7,2.6l5.4,3.2l3.7-6.3l-5.4-3.3C124.6,208.8,124.2,208.7,123.9,208.7z"/>
<path d="M132.2,220.1c-0.1,0-0.1,0-0.1,0c-0.1-0.1-0.2-0.3-0.1-0.4l1.9-3.2c0.1-0.1,0.3-0.2,0.4-0.1s0.2,0.3,0.1,0.4l-1.9,3.2
	C132.4,220.1,132.3,220.1,132.2,220.1z"/>
<path d="M143.5,222.8c-0.1,0-0.1,0-0.2,0l-7.1-4.4c-0.1-0.1-0.2-0.3-0.1-0.4c0.1-0.1,0.3-0.2,0.4-0.1l7.1,4.4
	c0.1,0.1,0.2,0.3,0.1,0.4C143.7,222.8,143.6,222.8,143.5,222.8z"/>
<path d="M158.3,231.9c-0.1,0-0.1,0-0.1,0l-2.8-1.7c-0.1-0.1-0.2-0.3-0.1-0.4c0.1-0.1,0.3-0.2,0.4-0.1l2.8,1.7
	c0.1,0.1,0.2,0.3,0.1,0.4C158.4,231.9,158.4,231.9,158.3,231.9z"/>
<path class="st0" d="M126.1,216.5c0,0-0.1,0-0.2,0l-4.3-2.6c-0.1-0.1-0.2-0.3-0.1-0.4c0.1-0.1,0.3-0.2,0.4-0.1l4.3,2.6
	c0.1,0.1,0.2,0.3,0.1,0.4C126.2,216.4,126.1,216.5,126.1,216.5z"/>
<path class="st0" d="M137.2,226.1c0,0,5.8-0.7,9.5-0.2c2.9,0.4,11.3-1.6,9.6,3.8c-0.4,1.2-0.6,2-1.6,3.1c-0.6,0.6-2.1,1.9-3,2.3
	c-4.3,1.9-8.2,2.7-13-0.4c-0.9-0.6-2-0.9-3.1-0.8C134.7,233.9,137,226.1,137.2,226.1z"/>
<path d="M144.9,237c-2.1,0-4.3-0.6-6.6-2.2c-0.9-0.6-1.9-0.8-2.9-0.7c-0.7,0.1-3,0.2-3.1,0.2c-0.2,0-0.3-0.1-0.3-0.3
	c0-0.2,0.1-0.3,0.3-0.3c0,0,2.3-0.1,3-0.2c1.2-0.1,2.3,0.2,3.3,0.8c4.6,3,8.3,2.4,12.8,0.4c0.8-0.4,2.4-1.6,2.9-2.2
	c0.9-1,1.1-1.7,1.5-2.7l0.1-0.2c0.3-1,0.3-1.8-0.1-2.3c-0.9-1.2-3.4-1.1-5.7-1c-1.4,0-2.8,0.1-3.6-0.2c-4.4-1.4-9.2,0.2-9.3,0.2
	c-0.2,0.1-0.9,0-2.3-0.1c-0.2,0-0.3-0.1-0.3-0.3s0.1-0.3,0.3-0.3c1.3,0.1,2,0.1,2.2,0.1c0.2-0.1,5.1-1.6,9.6-0.2
	c0.8,0.2,2.1,0.2,3.4,0.2c2.4-0.1,5.1-0.1,6.1,1.2c0.5,0.7,0.6,1.6,0.2,2.8l-0.1,0.2c-0.4,1.1-0.6,1.9-1.6,3
	c-0.6,0.6-2.2,1.9-3.1,2.3C149.3,236.4,147.1,237,144.9,237z"/>
<path class="st0" d="M48.4,159.7c0,0,17.8,2.3,23.7,9.5c7.5,9.1,10.7,22.7,11.8,28.5c0.3,1.7,0.3,3.5-0.1,5.2l-0.4,1.9
	c-1.5,6.9-7.8,11.7-14.9,11.3h0.3c-1.1-0.1-2.8-0.4-3.3-1.5l-1.9-3.4l-0.2,1.2c-1.4,9.1,5.9,21.5,5.9,21.5l-21-2.8
	c-10.8-1.1-21.1-5.3-29.3-12.4c-4.5-3.8-7.9-7.4-9.4-11.8c-2.5-7.4-2.3-9.5-3-18.5c-0.5-6.1,1.3-12.2,5.1-17
	C17.4,164.5,28.2,157.2,48.4,159.7z"/>
<path d="M69.4,234.3C69.4,234.3,69.3,234.3,69.4,234.3l-21.1-2.8c-11.1-1.1-21.2-5.4-29.5-12.5c-4-3.4-7.9-7.2-9.5-11.9
	c-2.1-6.2-2.3-8.7-2.7-14.7c-0.1-1.1-0.2-2.4-0.3-3.8c-0.5-6.3,1.3-12.4,5.2-17.2c5.5-6.9,16.4-14.6,37-11.9
	c0.7,0.1,18,2.4,23.9,9.7c7.9,9.7,11,24.4,11.8,28.6c0.3,1.8,0.3,3.6-0.1,5.3l-0.4,1.9c-1.6,7.1-7.9,11.9-15.2,11.5
	c-0.1,0-0.1,0-0.1,0c-1.2-0.1-2.6-0.6-3-1.6l-1.4-2.6l0,0.4c-1.4,8.9,5.8,21.2,5.9,21.3c0.1,0.1,0.1,0.2,0,0.3
	C69.6,234.3,69.5,234.3,69.4,234.3z M40.6,159.5c-15.3,0-23.9,6.4-28.6,12.2c-3.8,4.7-5.6,10.7-5.1,16.8c0.1,1.4,0.2,2.7,0.3,3.8
	c0.4,5.9,0.6,8.4,2.7,14.6c1.6,4.5,5.4,8.3,9.3,11.7c8.1,7,18.2,11.2,29.2,12.3l20.5,2.8c-1.4-2.5-6.9-13-5.7-21.2l0.2-1.2
	c0-0.1,0.1-0.2,0.2-0.2c0.1,0,0.2,0,0.3,0.2l1.9,3.4c0.4,0.9,1.9,1.3,3.1,1.3c0,0,0,0,0.1,0c6.8,0.1,12.7-4.5,14.2-11.1l0.4-1.9
	c0.4-1.7,0.4-3.4,0.1-5.1c-0.8-4.2-3.8-18.8-11.7-28.4c-5.8-7-23.3-9.4-23.5-9.4C45.6,159.7,43,159.5,40.6,159.5z"/>
<path d="M64.8,214.8c-0.1,0-0.2-0.1-0.3-0.2l-5-10.4c-0.1-0.1,0-0.3,0.1-0.4c0.1-0.1,0.3,0,0.4,0.1l5,10.4c0.1,0.1,0,0.3-0.1,0.4
	C64.9,214.8,64.9,214.8,64.8,214.8z"/>
<path d="M51.2,124.1l1.3-0.9c1-0.7,1.5-2,1-3.2c-1.3-3.5-6.1-9.7-23.5-5c-17.7,4.8-14.6,33.2,0.5,39.3c15.1,6.1,20.2-25.2,20.2-25.2
	L51.2,124.1z"/>
<path class="st0" d="M49,124.8c0.2-1.1,1.7-1.3,2.2-0.4c1.3,2.3,2,4,2.2,4.9c0.3,1.3-1,2.7-0.3,4.1c0.7,1.4,1.7,3,1.8,5.6
	c0.1,2.5,2.6,14-6.3,13.6c-0.3,0-0.6,0.3-0.6,0.6c0,1.8,0.1,6.6,0.5,9.2c0.2,1.4-0.7,2.8-2,3.2c-3.6,1-10.2,2.4-15.2,0.8
	c-1.3-0.4-2-1.8-1.5-3.1c0.6-1.6,1.4-6.2,0.9-9c0,0,3-0.3,6.3-1.8c5.1-2.3,7.6-8,6.2-13.5c-0.3-1.2-1-2.8-0.3-4.6
	c1.8-4.5,4.4,0,4.4,0L49,124.8z"/>
<path d="M36.5,167.4c-1.8,0-3.7-0.2-5.3-0.8c-0.7-0.2-1.3-0.7-1.6-1.4c-0.3-0.7-0.4-1.4-0.1-2.1c0.6-1.6,1.4-6.1,0.9-8.8
	c0-0.1,0-0.2,0.1-0.2c0-0.1,0.1-0.1,0.2-0.1c0,0,3-0.3,6.2-1.8c4.9-2.2,7.4-7.8,6-13.1c0-0.2-0.1-0.3-0.1-0.5
	c-0.3-1.1-0.8-2.7-0.1-4.3c0.5-1.4,1.2-2.1,2.1-2.2c1-0.1,1.9,0.9,2.4,1.6l1.7-9c0.1-0.6,0.6-1.1,1.2-1.2c0.6-0.1,1.2,0.2,1.5,0.7
	c1.5,2.6,2,4.2,2.2,5c0.1,0.7,0,1.3-0.2,1.9c-0.2,0.7-0.4,1.4-0.1,2.1c0.1,0.2,0.2,0.5,0.4,0.7c0.6,1.2,1.4,2.8,1.5,5
	c0,0.3,0.1,0.8,0.1,1.3c0.3,2.8,0.9,8.1-1.7,10.9c-1.2,1.2-2.9,1.8-5,1.8c-0.1,0-0.2,0-0.2,0.1c-0.1,0.1-0.1,0.1-0.1,0.2
	c0,1.9,0.1,6.6,0.5,9.1c0.2,1.6-0.7,3.1-2.3,3.5C44.1,166.6,40.3,167.4,36.5,167.4z M30.9,154.6c0.4,2.8-0.4,7.2-0.9,8.8
	c-0.2,0.5-0.2,1.1,0.1,1.7c0.2,0.5,0.7,0.9,1.2,1.1c4.9,1.6,11.5,0.2,15-0.8c1.2-0.4,2-1.6,1.9-2.8c-0.4-2.6-0.5-7.3-0.5-9.2
	c0-0.2,0.1-0.5,0.3-0.6s0.4-0.3,0.7-0.3c2,0.1,3.5-0.4,4.6-1.6c2.4-2.6,1.8-7.7,1.5-10.4c-0.1-0.6-0.1-1-0.1-1.4
	c-0.1-2.1-0.8-3.5-1.4-4.8c-0.1-0.2-0.2-0.5-0.4-0.7c-0.4-0.9-0.2-1.8,0-2.5c0.2-0.6,0.3-1.1,0.2-1.6c-0.1-0.7-0.6-2.2-2.1-4.9
	c-0.2-0.4-0.6-0.5-0.9-0.4c-0.3,0.1-0.6,0.3-0.7,0.7l-1.8,9.7c0,0.1-0.1,0.2-0.2,0.2s-0.2,0-0.3-0.1c-0.3-0.6-1.4-2-2.3-1.9
	c-0.6,0.1-1.1,0.7-1.6,1.8c-0.6,1.4-0.2,2.8,0.2,3.9c0,0.2,0.1,0.4,0.1,0.5c1.5,5.6-1.2,11.4-6.4,13.8
	C34.3,154.1,31.8,154.5,30.9,154.6z"/>
<path d="M23,120.8c0,0-8.7-4.2-15.1,1.8c-6.3,6-12.5,19-3,33.3c6,9,8.3,16.1,9.2,20.1c0.3,1.3,2.1,1.7,2.8,0.5
	c3.8-5.8,10.8-18.4,7.4-30.4C19.8,130.1,23,120.8,23,120.8z"/>
<path d="M54.9,137.9c-0.1,0-0.2-0.1-0.2-0.1c-0.1-0.1,0-0.3,0.1-0.4c2.9-1.7,1-6.6,0.5-7.8l-8.1,4.1c-0.1,0.1-0.3,0-0.4-0.1
	c-0.1-0.1,0-0.3,0.1-0.4l8.4-4.3c0.1,0,0.1,0,0.2,0c0.1,0,0.1,0.1,0.2,0.2c0.1,0.3,3.1,6.6-0.6,8.8C55,137.9,55,137.9,54.9,137.9z"
	/>
<path d="M55.2,141.3c-0.1,0-0.1,0-0.2-0.1c-0.1-0.1-0.1-0.3,0-0.4l1.1-1.1c0.4-0.3,0.4-0.9,0.1-1.3l-0.8-1.1
	c-0.1-0.1-0.1-0.3,0.1-0.4c0.1-0.1,0.3-0.1,0.4,0.1l0.8,1.1c0.5,0.6,0.4,1.5-0.2,2l-1.1,1.1C55.3,141.2,55.2,141.3,55.2,141.3z"/>
<path d="M46,142.2c-0.2,0-0.4,0-0.6-0.1c-1-0.2-1.8-1.1-2.5-2.5c-0.1-0.1,0-0.3,0.1-0.4s0.3,0,0.4,0.1c0.6,1.2,1.3,2,2.1,2.2
	c0.9,0.2,1.6-0.3,1.6-0.3c0.1-0.1,0.3-0.1,0.4,0.1s0.1,0.3-0.1,0.4C47.4,141.8,46.8,142.2,46,142.2z"/>
<path class="st0" d="M20.8,120c0,0,8.1,2.4,4.8,10.2c0,0,3.8-2.7,3.6-6.9c-0.1-4.2-3.2-5.6-5.3-5.5S20.8,120,20.8,120z"/>
<path d="M25.5,130.5c-0.1,0-0.1,0-0.2-0.1c-0.1-0.1-0.1-0.2-0.1-0.3c0.9-2.2,1-4.2,0.2-5.9c-1.3-2.9-4.8-4-4.9-4
	c-0.1,0-0.1-0.1-0.2-0.2c0-0.1,0-0.2,0-0.2c0.1-0.1,1.1-2.4,3.4-2.4c1.3,0,2.6,0.4,3.6,1.2c0.9,0.7,2,2.1,2,4.6
	c0.1,4.3-3.6,7-3.8,7.2C25.7,130.5,25.6,130.5,25.5,130.5z M21.2,119.8c1,0.4,3.6,1.6,4.9,4.2c0.7,1.6,0.8,3.3,0.2,5.3
	c1.1-1.1,2.8-3.2,2.7-5.9c0-1.8-0.7-3.2-1.8-4.2c-0.9-0.7-2.1-1.1-3.2-1.1C22.4,118.1,21.5,119.3,21.2,119.8z"/>
<path d="M5.3,186.5c6.7,4,20.3,9.8,42.2,8.5c1.6-0.1,3.1,0.9,3.7,2.4l1.4,5.5c2.4,9.6,6.9,18.6,13.2,26.2l3.3,4
	c0.5,0.6,0,1.5-0.8,1.5l-14.4-1.1C29,230.1,9.8,217.7,3.6,195L2,189C1.4,187,3.6,185.4,5.3,186.5z"/>
<path class="st0" d="M175.9,32.4h47.6c2.7,0,4.8,2.2,4.8,4.9v13.8c0,2.7-2.1,4.9-4.8,4.9c0,0-0.8,0-1.7,0v9.2l-6.3-9.2
	c-9.1,0-39.6,0-39.6,0c-2.7,0-5-2.2-5-4.9V37.3C170.9,34.6,173.2,32.4,175.9,32.4z"/>
<path d="M221.7,65.4c-0.1,0-0.2,0-0.2-0.1l-6.2-9.1h-39.4c-2.9,0-5.3-2.4-5.3-5.2V37.3c0-2.8,2.4-5.2,5.3-5.2h47.6
	c2.8,0,5,2.3,5,5.2v13.8c0,2.9-2.2,5.2-5,5.2H222v8.9C222,65.3,221.9,65.4,221.7,65.4C221.7,65.4,221.7,65.4,221.7,65.4z
	 M175.9,32.7c-2.6,0-4.7,2.1-4.7,4.6v13.8c0,2.5,2.2,4.6,4.7,4.6h39.6c0.1,0,0.2,0,0.2,0.1l5.7,8.4v-8.2c0-0.2,0.1-0.3,0.3-0.3h1.7
	c2.5,0,4.5-2,4.5-4.6V37.3c0-2.6-2-4.6-4.5-4.6H175.9z"/>
<path class="st1" d="M193.7,47.6c0,0-0.1,0-0.1,0l-6.6-3c-0.1-0.1-0.2-0.2-0.2-0.3s0.1-0.2,0.2-0.3l6.6-3c0.1-0.1,0.3,0,0.4,0.1
	c0.1,0.2,0,0.3-0.1,0.4l-6,2.7l6,2.7c0.2,0.1,0.2,0.2,0.1,0.4C193.9,47.5,193.8,47.6,193.7,47.6z"/>
<path class="st1" d="M203.1,47.6c-0.1,0-0.2-0.1-0.3-0.2c-0.1-0.2,0-0.3,0.1-0.4l6-2.7l-6-2.7c-0.1-0.1-0.2-0.2-0.1-0.4
	c0.1-0.1,0.2-0.2,0.4-0.1l6.6,3c0.1,0,0.2,0.1,0.2,0.3s-0.1,0.2-0.2,0.3l-6.6,3C203.2,47.6,203.1,47.6,203.1,47.6z"/>
<path class="st1" d="M195.7,51.1c0,0-0.1,0-0.1,0c-0.1-0.1-0.2-0.2-0.2-0.4l5.1-13.3c0.1-0.1,0.2-0.2,0.4-0.2
	c0.1,0.1,0.2,0.2,0.2,0.4L196,50.9C195.9,51,195.8,51.1,195.7,51.1z"/>
<path class="st1" d="M171.9,218.1c-0.1,0-0.2-0.1-0.3-0.2c-0.1-0.2,0-0.3,0.1-0.4c14.9-6.6,28.4-17.3,39.1-30.9
	c0.1-0.1,0.3-0.2,0.4-0.1s0.2,0.3,0.1,0.4c-10.7,13.7-24.3,24.5-39.3,31.1C172,218.1,172,218.1,171.9,218.1z"/>
<path class="st1" d="M170.5,225.7c-0.1,0-0.2-0.1-0.3-0.2c-0.1-0.2,0-0.3,0.2-0.4c14.4-5.6,27.2-14.4,38.2-26.2
	c0.1-0.1,0.3-0.1,0.4,0c0.1,0.1,0.1,0.3,0,0.4c-11.1,11.9-24,20.8-38.4,26.4C170.6,225.7,170.5,225.7,170.5,225.7z"/>
<path d="M121.7,9.8c-0.1,0-0.2-0.1-0.3-0.2c0-0.2,0.1-0.3,0.2-0.3c14.9-3.4,29.7-3.7,44-0.7c0.2,0,0.3,0.2,0.2,0.3
	c0,0.2-0.2,0.3-0.3,0.2C151.3,6.1,136.6,6.3,121.7,9.8C121.7,9.8,121.7,9.8,121.7,9.8z"/>
<path d="M171.1,3.8C171.1,3.8,171.1,3.8,171.1,3.8c-12.3-3.2-25-4-38-2.4c-0.2,0-0.3-0.1-0.3-0.2c0-0.2,0.1-0.3,0.2-0.3
	c13.1-1.6,25.9-0.8,38.2,2.4c0.2,0,0.2,0.2,0.2,0.4C171.4,3.7,171.3,3.8,171.1,3.8z"/>
<path class="st1" d="M164.9,220.7c1.1,0,1.9-0.9,1.9-1.9c0-1.1-0.9-1.9-1.9-1.9c-1.1,0-1.9,0.9-1.9,1.9
	C163,219.8,163.9,220.7,164.9,220.7z"/>
<path class="st1" d="M44.8,99.7c-0.1,0-0.1,0-0.2-0.1c-0.1-0.1-0.1-0.3,0-0.4l1.1-1.1c0.1-0.1,0.3-0.1,0.4,0c0.1,0.1,0.1,0.3,0,0.4
	L45,99.6C45,99.6,44.9,99.7,44.8,99.7z"/>
<path class="st1" d="M41.1,103.5c-0.1,0-0.1,0-0.2-0.1c-0.1-0.1-0.1-0.3,0-0.4l1.1-1.1c0.1-0.1,0.3-0.1,0.4,0c0.1,0.1,0.1,0.3,0,0.4
	l-1.1,1.1C41.2,103.5,41.2,103.5,41.1,103.5z"/>
<path class="st1" d="M42.1,99.7c-0.1,0-0.2,0-0.2-0.1l-1.1-1.1c-0.1-0.1-0.1-0.3,0-0.4c0.1-0.1,0.3-0.1,0.4,0l1.1,1.1
	c0.1,0.1,0.1,0.3,0,0.4C42.3,99.7,42.2,99.7,42.1,99.7z"/>
<path class="st1" d="M45.9,103.4c-0.1,0-0.2,0-0.2-0.1l-1.1-1.1c-0.1-0.1-0.1-0.3,0-0.4c0.1-0.1,0.3-0.1,0.4,0l1.1,1.1
	c0.1,0.1,0.1,0.3,0,0.4C46.1,103.4,46,103.4,45.9,103.4z"/>
<path d="M177,9.1c-0.4,0-0.7-0.1-1-0.2c-0.7-0.3-1.3-0.8-1.6-1.6c-0.6-1.5,0-3.2,1.5-3.9c0.7-0.3,1.5-0.3,2.2-0.1
	c0.7,0.3,1.3,0.8,1.6,1.6c0.6,1.5,0,3.2-1.5,3.8C177.8,9,177.4,9.1,177,9.1z M177,3.8c-0.3,0-0.6,0.1-0.9,0.2
	c-1.2,0.5-1.7,1.9-1.2,3.1c0.2,0.6,0.7,1,1.3,1.2c0.6,0.2,1.2,0.2,1.7,0c1.2-0.5,1.7-1.9,1.2-3.1c-0.2-0.6-0.7-1-1.3-1.2
	C177.5,3.9,177.3,3.8,177,3.8z"/>
</svg>
