<?xml version="1.0" encoding="utf-8"?>
<!-- Generator: Adobe Illustrator 26.1.0, SVG Export Plug-In . SVG Version: 6.00 Build 0)  -->
<svg version="1.1" id="Layer_1" xmlns="http://www.w3.org/2000/svg" xmlns:xlink="http://www.w3.org/1999/xlink" x="0px" y="0px"
	 viewBox="0 0 298 240" style="enable-background:new 0 0 298 240;" xml:space="preserve">
<style type="text/css">
	.st0{fill:#FFFFFF;}
	.st1{fill:#1955CC;}
</style>
<path class="st0" d="M228.1,157h-41.4c-38.2,0-69.2-31-69.2-69.2v-5.2c0-38.2,31-69.2,69.2-69.2h41.4c38.2,0,69.2,31,69.2,69.2v5.2
	C297.3,126,266.3,157,228.1,157z"/>
<path d="M297.3,31.3H117.6c-0.2,0-0.3-0.1-0.3-0.3v-9.4c0-4.7,3.8-8.6,8.6-8.6H289c4.7,0,8.6,3.8,8.6,8.6v9.4
	C297.6,31.2,297.5,31.3,297.3,31.3z M117.8,30.8h179.2v-9.1c0-4.4-3.6-8-8-8H125.9c-4.4,0-8,3.6-8,8V30.8z"/>
<path d="M276.9,143.9H137.9c-3.9,0-7.1-3.2-7.1-7.1V50.5c0-3.9,3.2-7.1,7.1-7.1h138.9c3.9,0,7.1,3.2,7.1,7.1v86.3
	C284,140.7,280.8,143.9,276.9,143.9z M137.9,43.9c-3.6,0-6.6,3-6.6,6.6v86.3c0,3.6,3,6.6,6.6,6.6h138.9c3.6,0,6.6-3,6.6-6.6V50.5
	c0-3.6-3-6.6-6.6-6.6H137.9z"/>
<path d="M289,157.2h-71.7c-0.1,0-0.3-0.1-0.3-0.3s0.1-0.3,0.3-0.3H289c4.4,0,8-3.6,8-8V21.7c0-4.4-3.6-8-8-8h-88
	c-0.1,0-0.3-0.1-0.3-0.3c0-0.2,0.1-0.3,0.3-0.3h88c4.7,0,8.5,3.8,8.5,8.5v127C297.6,153.4,293.7,157.2,289,157.2z"/>
<path class="st1" d="M268.4,25.6c1.7,0,3-1.4,3-3c0-1.7-1.4-3-3-3c-1.7,0-3,1.4-3,3C265.4,24.2,266.7,25.6,268.4,25.6z"/>
<path class="st1" d="M278.2,25.6c1.7,0,3-1.4,3-3c0-1.7-1.4-3-3-3c-1.7,0-3,1.4-3,3C275.2,24.2,276.6,25.6,278.2,25.6z"/>
<path class="st1" d="M288.1,25.6c1.7,0,3-1.4,3-3c0-1.7-1.4-3-3-3c-1.7,0-3,1.4-3,3C285.1,24.2,286.5,25.6,288.1,25.6z"/>
<path class="st0" d="M152,90.2h-28.8c-24.8,0-45-20.1-45-45c0-24.8,20.1-45,45-45H152c24.8,0,45,20.1,45,45
	C197,70.1,176.8,90.2,152,90.2z"/>
<path class="st0" d="M151.4,85.8h-27.8C101.1,85.8,83,67.6,83,45.2c0-22.4,18.2-40.6,40.6-40.6h27.8c22.4,0,40.6,18.2,40.6,40.6
	C192,67.6,173.8,85.8,151.4,85.8z"/>
<path d="M186.4,86.1H88.5c-3.2,0-5.8-2.6-5.8-5.8V10.2c0-3.2,2.6-5.8,5.8-5.8h97.9c3.2,0,5.8,2.6,5.8,5.8v70.1
	C192.2,83.5,189.6,86.1,186.4,86.1z M88.5,4.9c-2.9,0-5.3,2.4-5.3,5.3v70.1c0,2.9,2.4,5.3,5.3,5.3h97.9c2.9,0,5.3-2.4,5.3-5.3V10.2
	c0-2.9-2.4-5.3-5.3-5.3H88.5z"/>
<path d="M117.2,90.5H85.6c-4.2,0-7.6-3.4-7.6-7.6V7.6C78,3.4,81.4,0,85.6,0h104c4.2,0,7.6,3.4,7.6,7.6v51.9c0,0.2-0.1,0.3-0.3,0.3
	c-0.1,0-0.3-0.1-0.3-0.3V7.6c0-3.9-3.2-7.1-7.1-7.1h-104c-3.9,0-7.1,3.2-7.1,7.1v75.2c0,3.9,3.2,7.1,7.1,7.1h31.6
	c0.2,0,0.3,0.1,0.3,0.3C117.5,90.3,117.4,90.5,117.2,90.5z"/>
<path d="M189.6,90.5H144c-0.1,0-0.3-0.1-0.3-0.3c0-0.2,0.1-0.3,0.3-0.3h45.6c2.1,0,4.1-0.9,5.5-2.6c0.1-0.1,0.3-0.1,0.4,0
	c0.1,0.1,0.1,0.3,0,0.4C194,89.5,191.9,90.5,189.6,90.5z"/>
<path class="st1" d="M175.8,15.7h-16.4c-0.8,0-1.4-0.6-1.4-1.4c0-0.8,0.6-1.4,1.4-1.4h16.4c0.8,0,1.4,0.6,1.4,1.4
	C177.2,15.1,176.5,15.7,175.8,15.7z"/>
<path class="st1" d="M182.4,21.6h-23c-0.8,0-1.4-0.6-1.4-1.4c0-0.8,0.6-1.4,1.4-1.4h23c0.8,0,1.4,0.6,1.4,1.4
	C183.8,21,183.2,21.6,182.4,21.6z"/>
<path class="st1" d="M165.2,27.5h-5.8c-0.8,0-1.4-0.6-1.4-1.4s0.6-1.4,1.4-1.4h5.8c0.8,0,1.4,0.6,1.4,1.4S165.9,27.5,165.2,27.5z"/>
<path class="st1" d="M181.9,27.5h-8.5c-0.8,0-1.4-0.6-1.4-1.4s0.6-1.4,1.4-1.4h8.5c0.8,0,1.4,0.6,1.4,1.4S182.7,27.5,181.9,27.5z"/>
<path class="st1" d="M146.2,61h-26.2c-0.8,0-1.4-0.6-1.4-1.4s0.6-1.4,1.4-1.4h26.2c0.8,0,1.4,0.6,1.4,1.4S147,61,146.2,61z"/>
<path class="st1" d="M138.5,66.8h-18.5c-0.8,0-1.4-0.6-1.4-1.4c0-0.8,0.6-1.4,1.4-1.4h18.5c0.8,0,1.4,0.6,1.4,1.4
	C139.9,66.2,139.3,66.8,138.5,66.8z"/>
<path d="M277.5,143.6c-0.2-1.3-0.5-2.3-0.7-3.2c-1.6-6.9-3.3-12.5-4.6-16.3l-3.4-12.5l-42.3,7.7c0,0-1.4,9.2-4.2,24.3H277.5z"/>
<path d="M231.9,142c4.6,0,7.7-5.1,5.6-9.4c-0.5-1-1-2-1.4-2.9c-3.6-7.2-13.8-5.6-15.1,2.4c0,0.1-0.3,0.3-0.3,0.4
	c-0.7,5.1,3.2,9.5,8.1,9.5L231.9,142L231.9,142z"/>
<path class="st0" d="M290,85.4c0-17.8-3.4-25.9-27.6-32.6c-6.1-1.7-15.2-2.4-23.9-1.4c-24.4,0.3-33.7,11.2-42.3,10.9
	c-9.4-0.3-17.2-12.5-17.2-12.5c-3.1-3.4-6.4-1.7-8.2-0.7c-2.1,1.2-3,4-3.4,6c-0.2,1.3,0,2.6,0.6,3.7c3.1,5.6,14.1,23.9,24.2,25.4
	c8,1.2,24.2-3.3,31.5-4.7c5.2,18.1-3,52.9-3,52.9c6.1-4.4,26.7,1.3,39.9,6.3c6.6,2.5,12.5,1.1,16.8-1.4c4.3-2.5-3.3-28-3.3-28
	S290,100.9,290,85.4z"/>
<path d="M267.6,140.4c-2.2,0-4.6-0.4-7.1-1.4c-11.8-4.5-33.3-10.8-39.6-6.3c-0.1,0.1-0.2,0.1-0.3,0c-0.1-0.1-0.1-0.2-0.1-0.3
	c0.1-0.3,8.1-34.6,3.1-52.5c-1.6,0.3-3.5,0.7-5.7,1.2c-8.2,1.8-19.4,4.4-25.7,3.4c-10.2-1.5-21.3-20-24.4-25.6
	c-0.7-1.2-0.9-2.6-0.6-3.9c0.4-2.1,1.4-4.9,3.5-6.2c1.5-0.9,5.1-2.9,8.5,0.7c0,0,0,0,0,0c0.1,0.1,7.9,12.1,17,12.4
	c3.2,0.1,6.6-1.4,10.8-3.3c6.9-3.1,16.3-7.4,31.4-7.6c8.2-0.9,17.5-0.4,24,1.4c12,3.3,19.1,7.1,23,12.2c4,5.2,4.8,12,4.8,20.6
	c0,8.1-4.4,14.2-8,18c-3.5,3.6-7,5.7-7.8,6.1c0.3,1.1,2,6.9,3.2,12.9c1.9,9,1.8,14.1-0.1,15.2C275.1,139.1,271.7,140.4,267.6,140.4z
	 M227.7,130.7c9.4,0,24,4.5,33,7.9c7.1,2.7,12.9,0.8,16.6-1.4c3.4-1.9-1.3-20.6-3.5-27.7c0-0.1,0-0.2,0.1-0.3
	c0.2-0.1,15.8-8.6,15.8-23.8c0-16.8-2.7-25.5-27.4-32.3c-6.5-1.8-15.6-2.3-23.8-1.4c-15,0.2-24.4,4.4-31.2,7.5
	c-4.3,2-7.7,3.5-11.1,3.4c-9.3-0.3-16.9-11.9-17.4-12.6c-2.7-2.9-5.5-1.9-7.8-0.6c-2,1.1-2.9,3.8-3.3,5.8c-0.2,1.2,0,2.5,0.6,3.6
	c3.1,5.6,14,23.8,24,25.3c6.2,0.9,17.4-1.6,25.5-3.4c2.3-0.5,4.3-1,5.9-1.3c0.1,0,0.3,0.1,0.3,0.2c4.8,16.6-1.8,47.6-2.9,52.4
	C222.7,131.1,225,130.7,227.7,130.7z"/>
<path d="M173.9,61.3c-2.7,0-4.5-3-4.6-3.1c-0.1-0.1,0-0.3,0.1-0.4c0.1-0.1,0.3,0,0.4,0.1c0,0,1.7,2.9,4.2,2.9c1.9,0,3.7-1.7,5.5-5
	c0.1-0.1,0.2-0.2,0.4-0.1c0.1,0.1,0.2,0.2,0.1,0.4C178.1,59.5,176.1,61.3,173.9,61.3C174,61.3,173.9,61.3,173.9,61.3z"/>
<path d="M252.1,101.7c-0.1,0-0.2-0.1-0.2-0.2c-0.1-0.1,0-0.3,0.1-0.3c9-4.1,13.3-10.2,15.4-14.6c2.2-4.7,2.4-8.5,2.4-8.6
	c0-0.2,0.1-0.2,0.3-0.3c0.1,0,0.3,0.1,0.3,0.3c0,0.2-0.1,3.9-2.4,8.8c-2.1,4.5-6.5,10.7-15.6,14.9
	C252.2,101.7,252.2,101.7,252.1,101.7z"/>
<path d="M256.1,114.2c-0.1,0-0.3-0.1-0.3-0.3c0-0.2,0.1-0.3,0.3-0.3c11-0.1,18.2-4.2,18.3-4.2c0.1-0.1,0.3,0,0.4,0.1
	c0.1,0.1,0,0.3-0.1,0.4C274.6,109.9,267.2,114.1,256.1,114.2z"/>
<path class="st0" d="M245.9,113.2c0,0,2.2,0.2,6.7-0.9c3.4-0.8,2.4-11.8-1.7-8.8c-3.4,2.5-5.4,2.8-5.4,2.8l-3.3-1.6
	c-1.3-0.6-2.7-1.1-4.1-1.2c-5.7-0.7-5.3,0.6-5.3,0.6c-0.2,1.3,0.2,1.5,1.3,2l4.4,1.9c0.6,0.3,0.8,1.1,0.3,1.6
	c-0.8,0.7-1.7,1.3-2.6,1.7c-1.8,0.7-4.8,1.8-7.9,2.5c-1.5,0.3-1.9,2.2-0.6,2.8l9.8,0.7c2.5,0.2,4.9-0.7,6.8-2.4L245.9,113.2z"/>
<path d="M238,117.5c-0.2,0-0.4,0-0.7,0l-9.8-0.7c0,0-0.1,0-0.1,0c-0.7-0.3-1-1-0.9-1.7c0.1-0.8,0.7-1.5,1.6-1.7c3-0.7,6-1.7,7.9-2.5
	c0.9-0.4,1.8-0.9,2.6-1.6c0,0,0,0,0,0c0.2-0.2,0.2-0.4,0.2-0.6c0-0.2-0.2-0.4-0.4-0.5l-4.4-1.9c-1-0.4-1.7-0.7-1.4-2.2
	c0-0.1,0-0.3,0.2-0.5c0.6-0.7,2.4-0.8,5.5-0.4c1.4,0.2,2.9,0.6,4.2,1.3l3.2,1.6c0.4-0.1,2.3-0.6,5.2-2.7c1.1-0.8,1.9-0.6,2.4-0.3
	c1.5,0.9,2,4,1.7,6.3c-0.3,1.8-1.1,3-2.1,3.3c-3.9,1-6.1,0.9-6.7,0.9l-1.7,1.5C242.6,116.6,240.3,117.5,238,117.5z M227.6,116.3
	l9.8,0.7c2.4,0.2,4.8-0.7,6.6-2.3l1.8-1.6c0.1-0.1,0.1-0.1,0.2-0.1c0,0,2.3,0.2,6.6-0.9c0.8-0.2,1.5-1.2,1.7-2.8
	c0.3-2.2-0.2-5-1.4-5.8c-0.5-0.3-1.1-0.2-1.8,0.3c-3.4,2.5-5.5,2.8-5.5,2.8c-0.1,0-0.1,0-0.2,0l-3.3-1.6c-1.3-0.6-2.6-1-4-1.2
	c-3.8-0.4-4.7,0-5,0.2c-0.1,0.1-0.1,0.1-0.1,0.1c0,0,0,0,0,0.1c-0.2,1.1,0.1,1.2,1.1,1.7l4.4,1.9c0.4,0.2,0.6,0.5,0.7,0.9
	c0.1,0.4-0.1,0.8-0.4,1.1l0,0c-0.8,0.7-1.7,1.3-2.7,1.7c-1.9,0.8-4.9,1.8-8,2.5c-0.7,0.2-1.1,0.7-1.2,1.2
	C227,115.6,227.2,116,227.6,116.3z"/>
<path class="st0" d="M151.8,33c0.2-0.7,0.9-1,1.5-0.9c1.8,0.4,11.1,2.4,12.8,2.8s1.8,2.3,2.8,4.1c0.9,1.5,3.8,7.1,7,11.1
	c1,1.2,1.1,2.9,0.3,4.2c-0.4,0.8-1,1.5-1.6,2c-1.7,1.1-2.9,2.5-6.3-5.5c-0.2-0.5-0.6-0.9-1-1.2c-0.6-0.4-1.6-1.2-2.6-2.3
	c0,0-5.6,6.9-7.1-7.1c-0.1-1.2,0.4-2.5,1.5-3.1c0.1,0,0.2-0.1,0.3-0.2l-6.8-2.2C151.9,34.6,151.5,33.8,151.8,33z"/>
<path d="M172.8,57.5c-0.1,0-0.3,0-0.5-0.1c-1.2-0.4-2.5-2.3-4.3-6.5c-0.2-0.5-0.5-0.8-0.9-1.1c-0.6-0.4-1.5-1.1-2.4-2.1
	c-0.5,0.6-2,1.9-3.6,1.5c-1.9-0.6-3.1-3.6-3.7-8.9c-0.1-1.3,0.4-2.5,1.4-3.2l-6.2-2c-0.4-0.1-0.7-0.4-0.9-0.8
	c-0.2-0.4-0.2-0.9-0.1-1.3c0.3-0.8,1-1.2,1.8-1.1c0.1,0,10.9,2.4,12.8,2.8c1.3,0.3,1.8,1.4,2.3,2.6c0.2,0.5,0.4,1,0.7,1.6
	c0.1,0.2,0.2,0.4,0.4,0.6c1.1,2.1,3.8,6.9,6.6,10.4c1,1.3,1.2,3.1,0.4,4.5c-0.5,1-1.1,1.7-1.7,2.1l-0.2,0.1
	C174,57.1,173.4,57.5,172.8,57.5z M164.7,47c0.1,0,0.2,0,0.2,0.1c0.9,1.1,1.9,1.8,2.5,2.3c0.5,0.3,0.9,0.8,1.1,1.3
	c1.6,3.9,2.9,5.9,3.9,6.2c0.6,0.2,1.1-0.2,1.7-0.6l0.2-0.2c0.5-0.4,1.1-1,1.6-1.9c0.7-1.2,0.6-2.8-0.3-3.9
	c-2.9-3.5-5.6-8.4-6.7-10.5c-0.1-0.3-0.3-0.5-0.4-0.6c-0.3-0.5-0.5-1.1-0.7-1.6c-0.4-1.2-0.8-2.1-1.9-2.3
	c-1.9-0.4-12.7-2.8-12.8-2.8c-0.5-0.1-1,0.2-1.2,0.7c-0.1,0.3-0.1,0.6,0.1,0.9c0.1,0.3,0.3,0.5,0.6,0.5l6.8,2.2
	c0.1,0,0.2,0.1,0.2,0.2s-0.1,0.2-0.1,0.3s-0.2,0.1-0.2,0.1c-0.9,0.5-1.5,1.6-1.3,2.8c0.7,6.4,2.2,8.1,3.3,8.5
	c1.6,0.5,3.3-1.5,3.3-1.5C164.6,47,164.7,47,164.7,47z"/>
<path d="M166,44.4c-0.1,0-0.1,0-0.1,0c-0.4-0.3-1.3-0.8-1.6-1.1c-1.8-1.3-2.9-2.6-3.3-3.3c-0.3-0.5-0.5-1-0.4-1.5
	c0-1,0.6-1.2,0.9-1.3c1.1-0.4,2.8,0.7,3,0.8c0.1,0.1,0.2,0.2,0.1,0.4c-0.1,0.1-0.2,0.2-0.4,0.1c-0.5-0.3-1.8-1-2.6-0.7
	c-0.3,0.1-0.6,0.2-0.6,0.8c0,0.4,0.1,0.8,0.4,1.2c0.4,0.6,1.4,1.9,3.2,3.1c0.3,0.2,1.1,0.8,1.6,1.1c0.1,0.1,0.2,0.2,0.1,0.4
	C166.2,44.3,166.1,44.4,166,44.4z"/>
<path d="M164.8,47.6c-0.1,0-0.1,0-0.2-0.1c-1.5-1.6-1.4-3.3-1.4-3.4c0-0.1,0.1-0.2,0.3-0.2c0.1,0,0.3,0.1,0.2,0.3
	c0,0-0.1,1.5,1.3,2.9c0.1,0.1,0.1,0.3,0,0.4C164.9,47.6,164.9,47.6,164.8,47.6z"/>
<path class="st0" d="M253.6,52.4L253,35.9L241.4,42l0.1,10.5c0.1,2.3,2,3.6,2,3.6c2.4,1.8,5.7,1.5,8.1-0.3l0.6-0.4
	C253.2,54.7,253.7,53.6,253.6,52.4z"/>
<path d="M247.3,57.5c-1.4,0-2.8-0.4-3.9-1.3c-0.1-0.1-2-1.4-2.1-3.8L241.2,42c0-0.1,0.1-0.2,0.1-0.2l11.6-6.1c0.1,0,0.2,0,0.3,0
	s0.1,0.1,0.1,0.2l0.6,16.5c0.1,1.3-0.5,2.5-1.5,3.2l-0.6,0.4C250.4,57,248.8,57.5,247.3,57.5z M241.7,42.1l0.1,10.3
	c0.1,2.2,1.9,3.4,1.9,3.4c2.2,1.6,5.3,1.5,7.8-0.3l0.6-0.4c0.9-0.6,1.4-1.7,1.3-2.8l-0.6-16.1L241.7,42.1z"/>
<path d="M236.2,16.9c3.1-0.2-0.8,3.1,10.7-0.4c4.6-1.4,2.2,4.1,3.4,3.8c4.4-1.3,4.2-1.3,6.4-0.7c1.4,0.4,2.3,3.1,2.1,5.1
	c-0.4,2.6-2.5,3.3-4.3,8.9c-1.3,3.9-1,6.3-2.5,6.9c-1.6,0.6-2.7-1.5-4.4-1c-2.2,0.7-1.8,4.7-4,6.3c-1.4,1.1-4.6,1.5-9.7-1
	c-0.8-0.4-1.3-1.4-1-2.3c0.3-1.2,0.7-2.7,1.2-4.1c2.4-6.6,4.7-8.1,3.9-9.8c-1.3-2.6-6.1-1.1-6.9-3.3C230,23,231.9,17.2,236.2,16.9z"
	/>
<path class="st0" d="M247,28.4l-0.9,1.7c-0.4,0.8-0.8,1.6-1.1,2.5c-0.6,1.6-1.7,4.3-2.3,5.8c-1.9,4.9-7.8-0.5-7.8-0.5l-0.4-1.3
	l-0.8-0.3c-0.2-0.1-0.3-0.2-0.4-0.3c-0.2-0.3-0.2-0.8,0-1.1c1.2-1.8,3.6-5.8,4.5-9.4C237.8,25.4,242.9,24,247,28.4z"/>
<path d="M240.1,40.7c-2.4,0-5.2-2.5-5.3-2.6c0,0-0.1-0.1-0.1-0.1l-0.4-1.2l-0.7-0.3c-0.2-0.1-0.4-0.2-0.5-0.4
	c-0.3-0.4-0.3-1-0.1-1.4c1.1-1.6,3.6-5.7,4.5-9.4c0-0.1,0.1-0.2,0.2-0.2c0.1,0,5.2-1.3,9.4,3.1c0.1,0.1,0.1,0.2,0,0.3l-0.9,1.7
	c-0.4,0.8-0.8,1.6-1.1,2.5c-0.4,1.2-1.1,2.9-1.7,4.4c-0.2,0.5-0.4,1.1-0.6,1.5c-0.5,1.2-1.2,1.9-2.2,2.2
	C240.5,40.7,240.3,40.7,240.1,40.7z M235.2,37.8c0.4,0.4,3.4,2.9,5.5,2.4c0.8-0.2,1.4-0.8,1.8-1.8c0.2-0.4,0.4-0.9,0.6-1.5
	c0.6-1.4,1.3-3.2,1.7-4.4c0.3-0.9,0.7-1.7,1.1-2.5l0.8-1.5c-3.5-3.6-7.7-3-8.6-2.8c-0.9,3.5-3.2,7.4-4.5,9.4c-0.2,0.2-0.1,0.6,0,0.8
	c0.1,0.1,0.2,0.2,0.3,0.2l0.8,0.3c0.1,0,0.1,0.1,0.1,0.2L235.2,37.8z"/>
<path class="st0" d="M245.7,34.3c0,0,2.1-4.1,3.7-2.7C251,33,248.6,37.4,245.7,34.3z"/>
<path d="M237.9,35c-0.5,0-0.8-0.1-1.1-0.4c-0.6-0.5-0.8-1.5-0.7-3c0.1-1.1,0.4-1.8,1-2.1c0.4-0.2,0.9-0.2,1.3,0
	c0.3,0.1,0.6,0.4,0.7,0.7c0.7,1.9,0.4,3.4-0.1,4.2c-0.2,0.4-0.5,0.6-0.8,0.6C238,35,237.9,35,237.9,35z M237.7,29.8
	c-0.2,0-0.3,0-0.5,0.1c-0.4,0.2-0.6,0.7-0.7,1.6c-0.1,1.3,0.1,2.2,0.6,2.6c0.2,0.2,0.5,0.3,0.9,0.3c0.1,0,0.3-0.1,0.4-0.4
	c0.4-0.7,0.7-2.1,0.1-3.8c-0.1-0.2-0.2-0.3-0.4-0.4C237.9,29.9,237.8,29.8,237.7,29.8z"/>
<path d="M247.6,31.1C247.6,31.1,247.6,31.1,247.6,31.1l-9.7-1.3c-0.1,0-0.2-0.2-0.2-0.3c0-0.1,0.2-0.2,0.3-0.2l9.7,1.3
	c0.1,0,0.2,0.1,0.2,0.3C247.9,31,247.8,31.1,247.6,31.1z"/>
<path d="M233.6,34c0,0-0.1,0-0.1,0c-0.3-0.1-0.5-0.6-0.6-1c-0.3-0.9-0.4-2.3,0.2-3.4c0.2-0.4,0.5-0.6,0.9-0.7c0.9-0.2,2,0.7,2,0.7
	c0.1,0.1,0.1,0.3,0,0.4c-0.1,0.1-0.3,0.1-0.4,0c-0.3-0.2-1-0.7-1.6-0.6c-0.2,0-0.4,0.2-0.5,0.4c-0.8,1.4-0.1,3.4,0.1,3.6
	c0.1,0.1,0.2,0.2,0.1,0.4C233.8,33.9,233.7,34,233.6,34z"/>
<path class="st0" d="M183.4,138.5c4,0,7.3-3.3,7.3-7.3c0-4-3.3-7.3-7.3-7.3c-4,0-7.3,3.3-7.3,7.3
	C176.1,135.2,179.4,138.5,183.4,138.5z"/>
<path d="M183.4,138.8c-4.2,0-7.6-3.4-7.6-7.6c0-4.2,3.4-7.6,7.6-7.6c4.2,0,7.6,3.4,7.6,7.6C191,135.4,187.6,138.8,183.4,138.8z
	 M183.4,124.1c-3.9,0-7.1,3.2-7.1,7.1c0,3.9,3.2,7.1,7.1,7.1c3.9,0,7.1-3.2,7.1-7.1C190.5,127.3,187.3,124.1,183.4,124.1z"/>
<path class="st0" d="M207.4,138.5c4,0,7.3-3.3,7.3-7.3c0-4-3.3-7.3-7.3-7.3c-4,0-7.3,3.3-7.3,7.3
	C200.1,135.2,203.4,138.5,207.4,138.5z"/>
<path d="M207.4,138.8c-4.2,0-7.6-3.4-7.6-7.6c0-4.2,3.4-7.6,7.6-7.6c4.2,0,7.6,3.4,7.6,7.6C215,135.4,211.6,138.8,207.4,138.8z
	 M207.4,124.1c-3.9,0-7.1,3.2-7.1,7.1c0,3.9,3.2,7.1,7.1,7.1c3.9,0,7.1-3.2,7.1-7.1C214.5,127.3,211.3,124.1,207.4,124.1z"/>
<path class="st1" d="M205,134v-5.7c0-0.3,0.3-0.5,0.6-0.3l5.7,2.8c0.3,0.1,0.3,0.5,0,0.7l-5.7,2.9C205.3,134.5,205,134.3,205,134z"
	/>
<path class="st0" d="M231.4,138.5c4,0,7.3-3.3,7.3-7.3c0-4-3.3-7.3-7.3-7.3c-4,0-7.3,3.3-7.3,7.3C224,135.2,227.3,138.5,231.4,138.5
	z"/>
<path d="M231.4,138.8c-4.2,0-7.6-3.4-7.6-7.6c0-4.2,3.4-7.6,7.6-7.6c4.2,0,7.6,3.4,7.6,7.6C239,135.4,235.6,138.8,231.4,138.8z
	 M231.4,124.1c-3.9,0-7.1,3.2-7.1,7.1c0,3.9,3.2,7.1,7.1,7.1c3.9,0,7.1-3.2,7.1-7.1C238.4,127.3,235.3,124.1,231.4,124.1z"/>
<path class="st1" d="M233.8,133.9c-0.1,0-0.1,0-0.2-0.1l-4.9-4.9c-0.1-0.1-0.1-0.3,0-0.4c0.1-0.1,0.3-0.1,0.4,0l4.9,4.9
	c0.1,0.1,0.1,0.3,0,0.4C233.9,133.8,233.8,133.9,233.8,133.9z"/>
<path class="st1" d="M228.9,133.9c-0.1,0-0.1,0-0.2-0.1c-0.1-0.1-0.1-0.3,0-0.4l4.9-4.9c0.1-0.1,0.3-0.1,0.4,0
	c0.1,0.1,0.1,0.3,0,0.4l-4.9,4.9C229,133.8,229,133.9,228.9,133.9z"/>
<path d="M138.3,220c-0.1,0-0.1,0-0.2-0.1c-0.1-0.1-0.1-0.3,0-0.4l2.3-2.8c0.1-0.1,0.3-0.1,0.4,0c0.1,0.1,0.1,0.3,0,0.4l-2.3,2.8
	C138.4,219.9,138.4,220,138.3,220z"/>
<path d="M136,218.3c-0.1,0-0.1,0-0.2-0.1c-0.1-0.1-0.1-0.3,0-0.4l2.6-2.9c0.1-0.1,0.3-0.1,0.4,0c0.1,0.1,0.1,0.3,0,0.4l-2.6,2.9
	C136.2,218.3,136.1,218.3,136,218.3z"/>
<path d="M223.6,213.1c-0.1,0-0.2,0-0.2-0.1c-0.1-0.1-0.1-0.3,0-0.5l1.8-1.8c0.1-0.1,0.3-0.1,0.5,0c0.1,0.1,0.1,0.3,0,0.5l-1.8,1.8
	C223.8,213.1,223.7,213.1,223.6,213.1z"/>
<path d="M219.3,217.4c-0.1,0-0.2,0-0.2-0.1c-0.1-0.1-0.1-0.3,0-0.5l1.8-1.8c0.1-0.1,0.3-0.1,0.5,0c0.1,0.1,0.1,0.3,0,0.5l-1.8,1.8
	C219.5,217.4,219.4,217.4,219.3,217.4z"/>
<path d="M221.2,213.1c-0.1,0-0.2,0-0.2-0.1l-1.8-1.8c-0.1-0.1-0.1-0.3,0-0.5s0.3-0.1,0.5,0l1.8,1.8c0.1,0.1,0.1,0.3,0,0.5
	C221.3,213.1,221.3,213.1,221.2,213.1z"/>
<path d="M225.5,217.4c-0.1,0-0.2,0-0.2-0.1l-1.8-1.8c-0.1-0.1-0.1-0.3,0-0.5s0.3-0.1,0.5,0l1.8,1.8c0.1,0.1,0.1,0.3,0,0.5
	C225.6,217.4,225.6,217.4,225.5,217.4z"/>
<path d="M215.3,204.3c-0.3,0-0.6-0.1-0.9-0.2c-0.7-0.3-1.2-0.8-1.5-1.4c-0.6-1.4,0-2.9,1.4-3.5c0.6-0.3,1.3-0.3,2,0
	c0.7,0.3,1.2,0.8,1.5,1.4c0.6,1.4,0,2.9-1.3,3.5C216.1,204.2,215.7,204.3,215.3,204.3z M215.3,199.6c-0.3,0-0.5,0.1-0.8,0.2
	c-1,0.5-1.4,1.6-1,2.7c0.2,0.5,0.6,0.9,1.1,1.1c0.5,0.2,1,0.2,1.5,0c1-0.4,1.4-1.6,1-2.6c-0.2-0.5-0.6-0.9-1.1-1.1
	C215.8,199.7,215.6,199.6,215.3,199.6z"/>
<path d="M243.7,211.2c-0.1,0-0.1,0-0.2,0c-0.6-0.1-1.2-0.3-1.6-0.8c-0.4-0.5-0.6-1.1-0.6-1.7c0.1-1.3,1.3-2.3,2.6-2.2
	c0.7,0.1,1.2,0.3,1.7,0.8c0.4,0.5,0.6,1.1,0.6,1.7C246,210.2,244.9,211.2,243.7,211.2z M241.9,208.7c0,0.4,0.1,0.9,0.4,1.2
	c0.3,0.4,0.7,0.6,1.2,0.6c1,0.1,1.8-0.6,1.9-1.6c0-0.4-0.1-0.9-0.4-1.2c-0.3-0.4-0.7-0.6-1.2-0.6C242.8,207.1,242,207.8,241.9,208.7
	z"/>
<path class="st1" d="M131.2,38.6l3.7,1.3v2.1l-6-2.5v-1.8l6-2.5v2.1L131.2,38.6z"/>
<path class="st1" d="M137.1,43.6h-1.6l3.4-10.8h1.6L137.1,43.6z"/>
<path class="st1" d="M145.1,38.5l-3.7-1.3v-2.1l6,2.5v1.8l-6,2.5v-2.1L145.1,38.5z"/>
<path class="st1" d="M93.7,26.3c-1.6-0.5-2.5-1.5-2.5-3.2v-1.3c0-0.9-0.4-1.4-1.1-1.4v-1.5c0.7,0,1.1-0.5,1.1-1.4V16
	c0-0.8,0.2-1.5,0.6-2s1-0.9,1.8-1.1l0.4,1.2c-0.6,0.2-0.9,0.8-0.9,1.8v1.5c0,1-0.4,1.7-1.3,2.2c0.8,0.4,1.3,1.1,1.3,2.2v1.5
	c0,1,0.3,1.6,0.9,1.8L93.7,26.3z"/>
<path class="st1" d="M96.5,21.6c0.4,0,0.7,0.1,0.9,0.3c0.2,0.2,0.4,0.5,0.4,0.8s-0.1,0.6-0.4,0.8c-0.2,0.2-0.5,0.3-0.9,0.3
	c-0.4,0-0.7-0.1-0.9-0.3c-0.2-0.2-0.4-0.5-0.4-0.8s0.1-0.6,0.4-0.8C95.8,21.7,96.1,21.6,96.5,21.6z"/>
<path class="st1" d="M100.7,21.6c0.4,0,0.7,0.1,0.9,0.3c0.2,0.2,0.4,0.5,0.4,0.8s-0.1,0.6-0.4,0.8c-0.2,0.2-0.5,0.3-0.9,0.3
	c-0.4,0-0.7-0.1-0.9-0.3c-0.2-0.2-0.4-0.5-0.4-0.8s0.1-0.6,0.4-0.8C100.1,21.7,100.4,21.6,100.7,21.6z"/>
<path class="st1" d="M105,21.6c0.4,0,0.7,0.1,0.9,0.3c0.2,0.2,0.4,0.5,0.4,0.8s-0.1,0.6-0.4,0.8c-0.2,0.2-0.5,0.3-0.9,0.3
	c-0.4,0-0.7-0.1-0.9-0.3c-0.2-0.2-0.4-0.5-0.4-0.8s0.1-0.6,0.4-0.8C104.3,21.7,104.6,21.6,105,21.6z"/>
<path class="st1" d="M109.2,21.6c0.4,0,0.7,0.1,0.9,0.3c0.2,0.2,0.4,0.5,0.4,0.8s-0.1,0.6-0.4,0.8c-0.2,0.2-0.5,0.3-0.9,0.3
	c-0.4,0-0.7-0.1-0.9-0.3c-0.2-0.2-0.4-0.5-0.4-0.8s0.1-0.6,0.4-0.8C108.5,21.7,108.8,21.6,109.2,21.6z"/>
<path class="st1" d="M113.4,21.6c0.4,0,0.7,0.1,0.9,0.3c0.2,0.2,0.4,0.5,0.4,0.8s-0.1,0.6-0.4,0.8c-0.2,0.2-0.5,0.3-0.9,0.3
	s-0.7-0.1-0.9-0.3c-0.2-0.2-0.4-0.5-0.4-0.8s0.1-0.6,0.4-0.8C112.8,21.7,113.1,21.6,113.4,21.6z"/>
<path class="st1" d="M118.1,37.1c0.6-0.2,0.9-0.8,0.9-1.8v-1.5c0-1,0.4-1.7,1.3-2.2c-0.8-0.4-1.3-1.1-1.3-2.2v-1.5
	c0-1-0.3-1.6-0.9-1.8l0.4-1.2c0.8,0.2,1.4,0.6,1.8,1.1c0.4,0.5,0.6,1.2,0.6,2v1.4c0,0.9,0.4,1.4,1.1,1.4v1.6c-0.7,0-1.1,0.5-1.1,1.4
	v1.5c0,1.6-0.8,2.6-2.5,3.1L118.1,37.1z"/>
<g>
	<g>
		<g>
			<g>
				<path class="st0" d="M15,218.6h94.5c5.8,0,10.6-3.6,10.6-8s-4.7-8-10.6-8H15c4.4,4.8,4.5,11.1,0.1,15.9L15,218.6z"/>
				<path d="M14.7,218.7c0-0.1,0-0.2,0-0.3l0.2-0.2c4.2-4.7,4.2-10.9-0.1-15.5c-0.1-0.1-0.1-0.2-0.1-0.3c0-0.1,0.1-0.2,0.2-0.2h94.5
					c6,0,10.8,3.7,10.8,8.3c0,4.6-4.9,8.3-10.8,8.3H15C14.8,218.9,14.7,218.8,14.7,218.7z M15.6,202.8c4,4.7,4,10.8,0,15.5h93.9
					c5.7,0,10.3-3.5,10.3-7.8c0-4.3-4.6-7.8-10.3-7.8H15.6z"/>
			</g>
			<path d="M15.2,203.5h94.1c5.1,0,9.3,3,9.4,6.9c0.1,3.9-4.1,7.2-9.2,7.2H15.2c-0.4,0-0.7,0.2-0.7,0.5c0,0.3,0.3,0.5,0.7,0.5h94.3
				c4.6,0,8.4-2.2,9.9-5.3c0.4-0.9,0.6-1.8,0.6-2.8s-0.2-1.9-0.6-2.8c-0.1-0.2-0.3-0.5-0.4-0.7c-0.7-1.1-1.6-2-2.8-2.7
				c-1.8-1.1-4.2-1.8-6.7-1.8H15.2c-0.4,0-0.7,0.2-0.7,0.5C14.5,203.3,14.8,203.5,15.2,203.5z"/>
			<g>
				<path d="M71,209.9h38.4c0.1,0,0.3-0.1,0.3-0.3c0-0.1-0.1-0.3-0.3-0.3H71c-0.1,0-0.3,0.1-0.3,0.3C70.7,209.7,70.8,209.9,71,209.9
					z"/>
				<path d="M43.8,211.9h49.1c0.1,0,0.3-0.1,0.3-0.3c0-0.1-0.1-0.3-0.3-0.3H43.8c-0.1,0-0.3,0.1-0.3,0.3
					C43.5,211.8,43.6,211.9,43.8,211.9z"/>
				<path d="M48.2,209.9h7.6c0.1,0,0.3-0.1,0.3-0.3c0-0.1-0.1-0.3-0.3-0.3h-7.6c-0.1,0-0.3,0.1-0.3,0.3
					C48,209.7,48.1,209.9,48.2,209.9z"/>
			</g>
		</g>
		<g>
			<path class="st0" d="M94,189.3c0-5.3,2.7-9.9,6.5-11.8c0.2-0.1,0.3-0.3,0.3-0.5c0-0.3-0.2-0.5-0.4-0.5H27.6
				c-5.8,0-10.6,5.7-10.6,12.8c0,7.1,4.7,12.8,10.6,12.8h72.8c0.2,0,0.4-0.2,0.4-0.5c0-0.2-0.1-0.4-0.3-0.5
				C96.7,199.2,94,194.7,94,189.3z"/>
			<path d="M100.8,201.6c0-0.2-0.1-0.4-0.3-0.5c-0.4-0.2-0.7-0.4-1.1-0.6H27.6c-5.1,0-9.3-5-9.3-11.2c0-6.2,4.1-11.2,9.3-11.2h71.9
				c0.3-0.2,0.7-0.4,1.1-0.6c0.2-0.1,0.3-0.3,0.3-0.5c0-0.3-0.2-0.5-0.4-0.5H27.6c-4.6,0-8.4,3.5-9.9,8.4c-0.4,1.4-0.6,2.9-0.6,4.4
				c0,1.5,0.2,3,0.6,4.4c0.1,0.4,0.3,0.8,0.4,1.2c0.7,1.7,1.6,3.2,2.8,4.3c1.8,1.8,4.2,2.9,6.7,2.9h72.8
				C100.6,202.1,100.8,201.9,100.8,201.6z"/>
			<g>
				<path class="st1" d="M81.3,188.6h-9.5v8.5c0,0.6,0.5,0.9,0.9,0.6l3.6-2.6c0.2-0.1,0.4-0.1,0.6,0l3.6,2.6
					c0.4,0.3,0.9-0.1,0.9-0.6V188.6z"/>
				<path d="M49.5,189h38.4c0.1,0,0.3-0.1,0.3-0.3s-0.1-0.3-0.3-0.3H49.5c-0.1,0-0.3,0.1-0.3,0.3S49.3,189,49.5,189z"/>
				<path d="M29.4,189H39c0.1,0,0.3-0.1,0.3-0.3s-0.1-0.3-0.3-0.3h-9.6c-0.1,0-0.3,0.1-0.3,0.3S29.3,189,29.4,189z"/>
			</g>
		</g>
		<g>
			<g>
				<path class="st0" d="M119.8,229.2c0-4.4,2.3-8.2,5.7-9.8c0.1-0.1,0.2-0.2,0.2-0.4c0-0.2-0.2-0.4-0.4-0.4H9.4
					c-5.1,0-9.2,4.7-9.2,10.6s4.1,10.6,9.2,10.6h115.9c0.2,0,0.4-0.2,0.4-0.4c0-0.2-0.1-0.3-0.2-0.4
					C122.2,237.3,119.8,233.6,119.8,229.2z"/>
				<path d="M0,229.2c0-6,4.2-10.8,9.4-10.8h115.9c0.3,0,0.6,0.3,0.6,0.7c0,0.3-0.1,0.5-0.4,0.6c-3.3,1.6-5.5,5.3-5.5,9.5
					c0,4.2,2.2,7.9,5.5,9.5c0.2,0.1,0.4,0.4,0.4,0.6c0,0.4-0.3,0.7-0.6,0.7H9.4C4.2,240,0,235.1,0,229.2z M9.4,218.9
					c-4.9,0-8.9,4.6-8.9,10.3c0,5.7,4,10.3,8.9,10.3h115.9c0,0,0.1-0.1,0.1-0.1c0-0.1,0-0.1-0.1-0.1c-3.5-1.7-5.8-5.6-5.8-10
					c0-4.4,2.3-8.3,5.8-10c0,0,0.1-0.1,0.1-0.1c0-0.1,0-0.1-0.1-0.1H9.4z"/>
			</g>
			<path d="M125.7,239.3c0-0.2-0.1-0.3-0.2-0.4c-0.3-0.2-0.6-0.3-0.9-0.5H9.4c-4.4,0-8-4.1-8-9.3c0-5.1,3.6-9.3,8-9.3h115.1
				c0.3-0.2,0.6-0.4,0.9-0.5c0.1-0.1,0.2-0.2,0.2-0.4c0-0.2-0.2-0.4-0.4-0.4H9.4c-4,0-7.3,2.9-8.6,6.9c-0.4,1.1-0.6,2.4-0.6,3.6
				s0.2,2.5,0.6,3.6c0.1,0.3,0.2,0.6,0.3,0.9c0.6,1.4,1.4,2.6,2.4,3.6c1.6,1.5,3.6,2.4,5.8,2.4h115.9
				C125.5,239.7,125.7,239.5,125.7,239.3z"/>
			<g>
				<path class="st1" d="M114.9,223.9h-8.3v8.7c0,0.5,0.4,0.8,0.8,0.5l3.1-2.2c0.2-0.1,0.4-0.1,0.5,0l3.1,2.2c0.3,0.2,0.8,0,0.8-0.5
					V223.9z"/>
				<g>
					<path d="M84.2,224.4h33.3c0.1,0,0.3-0.1,0.3-0.3c0-0.1-0.1-0.3-0.3-0.3H84.2c-0.1,0-0.3,0.1-0.3,0.3
						C83.9,224.3,84,224.4,84.2,224.4z"/>
					<path d="M68.7,224.4h7.6c0.1,0,0.3-0.1,0.3-0.3c0-0.1-0.1-0.3-0.3-0.3h-7.6c-0.1,0-0.3,0.1-0.3,0.3
						C68.5,224.3,68.6,224.4,68.7,224.4z"/>
					<path d="M8,227.6h18.4c0.1,0,0.3-0.1,0.3-0.3c0-0.1-0.1-0.3-0.3-0.3H8c-0.1,0-0.3,0.1-0.3,0.3C7.7,227.4,7.8,227.6,8,227.6z"/>
					<path d="M13.1,224.4h7.6c0.1,0,0.3-0.1,0.3-0.3c0-0.1-0.1-0.3-0.3-0.3h-7.6c-0.1,0-0.3,0.1-0.3,0.3
						C12.8,224.3,12.9,224.4,13.1,224.4z"/>
				</g>
			</g>
		</g>
	</g>
	<g>
		<g>
			<g>
				<path class="st0" d="M93.7,147.5c0,0-7.5,3.2-8,10.2c-0.5,7-3.5,28.4,3,36.1c0,0,1.9-5.6,16.4-13c0,0,0.3-19.7-1.4-25.7
					C101.8,149.2,94,147.8,93.7,147.5z"/>
				<path d="M88.5,193.9c-5.8-6.9-4.2-24.1-3.3-33.3c0.1-1.2,0.2-2.2,0.3-3c0.5-7.1,8.1-10.4,8.2-10.5c0.1,0,0.2,0,0.3,0
					c0.1,0,0.4,0.1,0.6,0.2c2.1,0.7,7.8,2.5,9.3,7.6c1.8,5.9,1.5,24.9,1.5,25.8c0,0.1-0.1,0.2-0.1,0.2C91,188.2,89,193.8,88.9,193.9
					c0,0.1-0.1,0.2-0.2,0.2c0,0,0,0-0.1,0C88.6,194,88.5,194,88.5,193.9z M103.3,155.2c-1.4-4.8-6.9-6.6-9-7.2
					c-0.3-0.1-0.5-0.2-0.7-0.2c-1,0.4-7.2,3.6-7.7,9.9c-0.1,0.8-0.2,1.8-0.3,3c-0.8,8.3-2.4,25.6,2.9,32.5c0.7-1.5,4-6.4,16.2-12.6
					C104.8,178.7,105,160.8,103.3,155.2z M93.9,147.3C93.9,147.3,93.9,147.3,93.9,147.3C93.9,147.3,93.9,147.3,93.9,147.3z"/>
			</g>
			<g>
				<g>
					<g>
						<polygon class="st1" points="111.4,157.8 113.2,153.2 115.3,153.1 119.6,158.5 119.7,159.2 114.4,169.1 107.8,169.9 
							108,165.4 109.8,157.8 						"/>
						<path class="st0" d="M107.6,170.1c-0.1-0.1-0.1-0.1-0.1-0.2l0.2-4.5c0,0,0,0,0-0.1l1.8-7.6c0-0.1,0.1-0.2,0.3-0.2l1.5,0
							l1.7-4.5c0-0.1,0.1-0.2,0.2-0.2l2.1-0.1c0.1,0,0.2,0,0.2,0.1l4.2,5.4c0,0,0,0.1,0,0.1l0.2,0.7c0,0.1,0,0.1,0,0.2l-5.3,9.9
							c0,0.1-0.1,0.1-0.2,0.1l-6.6,0.8c0,0,0,0,0,0C107.8,170.2,107.7,170.1,107.6,170.1z M119.4,159.2l-0.1-0.5l-4.1-5.3l-1.8,0.1
							l-1.7,4.5c0,0.1-0.1,0.2-0.3,0.2l-1.4,0l-1.7,7.3l-0.2,4.2l6.1-0.7L119.4,159.2z"/>
					</g>
					<g>
						<polygon class="st0" points="113.2,153.2 116.3,157.6 111.4,157.7 						"/>
						<path d="M111.2,157.9c-0.1-0.1-0.1-0.2,0-0.3l1.8-4.6c0-0.1,0.1-0.2,0.2-0.2c0.1,0,0.2,0,0.3,0.1l3.1,4.5
							c0.1,0.1,0.1,0.2,0,0.3c0,0.1-0.1,0.1-0.2,0.1l-4.9,0.1c0,0,0,0,0,0C111.3,158,111.2,158,111.2,157.9z M113.3,153.7l-1.5,3.7
							l4-0.1L113.3,153.7z"/>
					</g>
				</g>
				<g>
					<path d="M109.5,159c0.1,0,0.2-0.1,0.3-0.2l0.2-0.8l7.2-0.1c0.1,0,0.3-0.1,0.3-0.3c0-0.1-0.1-0.3-0.3-0.3c0,0,0,0,0,0l-7.4,0.1
						c-0.1,0-0.2,0.1-0.3,0.2l-0.3,0.9C109.2,158.8,109.3,159,109.5,159C109.4,159,109.5,159,109.5,159z"/>
					<path d="M107.5,170.2C107.5,170.2,107.5,170.2,107.5,170.2l6.9-0.8c0.1,0,0.2-0.1,0.2-0.1l5.1-9.8c0.2-0.4,0.2-0.9-0.1-1.2
						l-4.6-5.9c-0.1-0.1-0.3-0.1-0.4,0c-0.1,0.1-0.1,0.3,0,0.4l4.6,5.9c0.1,0.2,0.2,0.4,0.1,0.6l-5.1,9.7l-6.7,0.8
						c-0.1,0-0.3,0.2-0.2,0.3C107.3,170.1,107.4,170.2,107.5,170.2z"/>
					<path d="M111,159.7c0.1,0,0.1,0,0.2-0.1c0.1-0.1,0.1-0.3,0-0.4l-1.3-1.6c-0.1-0.1-0.3-0.1-0.4,0c-0.1,0.1-0.1,0.3,0,0.4
						l1.3,1.6C110.9,159.6,110.9,159.7,111,159.7z"/>
				</g>
			</g>
			<g>
				<path class="st0" d="M88.6,165.5c0,0,3.5,1,6.6-0.7l0.1,5.3c0,0,7.8-2.4,9.8-3.8s0.5-6.4,4.3-7.5c0,0-0.8,2.3-0.5,2.6
					c0.3,0.3,1.4,0.4,2.5-0.3c1.2-0.7,3.3-1.8,4.7-1.4c1.4,0.3-0.8,5.8-4.2,7c-4.3,1.5-12,11.2-18.2,12.9c-1.5,0.4-3.1-0.3-3.8-1.7
					c-0.4-0.8-0.7-1.8-0.8-3.3C88.8,170.7,88.6,165.5,88.6,165.5z"/>
				<path d="M89.8,177.9c-0.4-0.9-0.7-2.1-0.9-3.4c-0.4-3.7-0.5-8.9-0.5-9c0-0.1,0-0.2,0.1-0.2c0.1-0.1,0.2-0.1,0.2,0
					c0,0,3.4,0.9,6.4-0.6c0.1,0,0.2,0,0.3,0c0.1,0,0.1,0.1,0.1,0.2l0.1,4.9c1.5-0.5,7.7-2.5,9.4-3.7c0.7-0.5,1-1.7,1.2-2.9
					c0.4-1.9,0.8-4,3.2-4.7c0.1,0,0.2,0,0.3,0.1c0.1,0.1,0.1,0.2,0.1,0.3c-0.4,1-0.6,2-0.5,2.3c0.3,0.2,1.2,0.3,2.2-0.4
					c0.5-0.3,3.1-1.9,4.9-1.5c0.2,0.1,0.6,0.3,0.6,1c0.1,1.6-1.9,5.5-4.8,6.5c-1.9,0.6-4.4,2.9-7.2,5.3c-3.5,3.1-7.5,6.7-11.1,7.6
					c-0.3,0.1-0.6,0.1-0.9,0.1C91.6,179.9,90.4,179.1,89.8,177.9z M111.7,161.2c-1.3,0.8-2.4,0.6-2.8,0.3c-0.1-0.1-0.4-0.3,0.2-2.3
					c-1.6,0.8-2,2.5-2.3,4.1c-0.3,1.3-0.5,2.6-1.4,3.2c-2,1.4-9.6,3.8-9.9,3.9c-0.1,0-0.2,0-0.2,0c-0.1-0.1-0.1-0.1-0.1-0.2
					l-0.1-4.9c-2.5,1.1-5.1,0.8-6.1,0.6c0,1.2,0.2,5.5,0.5,8.6c0.1,1.2,0.4,2.3,0.8,3.2c0.6,1.3,2.1,2,3.5,1.6
					c3.4-0.9,7.4-4.4,10.8-7.5c2.8-2.5,5.4-4.8,7.4-5.4c2.6-0.9,4.5-4.5,4.5-6c0-0.3-0.1-0.4-0.2-0.5c-0.2,0-0.4-0.1-0.6-0.1
					C114.4,159.8,112.8,160.5,111.7,161.2z"/>
			</g>
		</g>
		<g>
			<g>
				<path d="M97.6,146.7c-1.4-0.2-4.2-1.8-5.3-4.9c-1.1-3.2-0.7-7.2,0.2-8.6c1-1.4,7.2-7,12.6-3.1c5.4,3.9,0.6,9.9,0.6,9.9
					L97.6,146.7z"/>
				<circle cx="90" cy="135" r="4"/>
				<ellipse transform="matrix(0.9946 -0.1034 0.1034 0.9946 -12.7306 11.1821)" cx="101.5" cy="128.4" rx="3.6" ry="3.6"/>
			</g>
			<g>
				<path class="st0" d="M95.5,143l-1.3,3.9c-0.6,1.9-0.1,4.1,1.4,5.4c0.3,0.2,0.5,0.4,0.8,0.6c0.8,0.5,1.8,0,2-0.9l1.2-5.1
					L95.5,143z"/>
				<path d="M96.4,153.1c-0.3-0.2-0.6-0.4-0.9-0.7c-1.6-1.4-2.2-3.6-1.5-5.7l1.3-3.9c0-0.1,0.1-0.2,0.2-0.2c0.1,0,0.2,0,0.3,0.1
					l4.2,4c0.1,0.1,0.1,0.2,0.1,0.3l-1.2,5.1c-0.1,0.5-0.5,0.9-1,1.1c-0.2,0.1-0.4,0.1-0.6,0.1C96.9,153.4,96.6,153.3,96.4,153.1z
					 M95.6,143.5l-1.2,3.5c-0.6,1.8-0.1,3.8,1.4,5.1c0.3,0.2,0.5,0.4,0.8,0.6c0.3,0.2,0.6,0.2,1,0.1c0.3-0.1,0.6-0.4,0.7-0.8
					l1.1-4.9L95.6,143.5z"/>
			</g>
			<g>
				<path class="st0" d="M105.4,133.5c0.6-0.2,3.3,10,0.7,12c-2.6,2-7.6,1.7-9.2-1.4c0,0-2,0.6-2.6-2.2c-0.5-2.4,2-1.5,2.8-1.2
					c0.2,0.1,0.3,0.1,0.5,0c2-0.8-1.1-3.4,3.6-6.8C101.1,133.8,103,134.2,105.4,133.5z"/>
				<path d="M100.3,146.8c-1.6-0.4-2.9-1.2-3.6-2.5c-0.3,0-0.9,0-1.4-0.3c-0.6-0.4-1.1-1.1-1.3-2.2c-0.1-0.8,0-1.3,0.4-1.6
					c0.7-0.6,2.1-0.2,2.8,0.1c0.1,0,0.2,0,0.3,0c0.6-0.2,0.6-0.6,0.6-1.5c0-1.3,0-3.2,3-5.3c0.1,0,0.1-0.1,0.2,0
					c0,0,1.8,0.4,4.1-0.3c0.3-0.1,0.5,0.3,0.6,0.5c0.9,1.7,2.8,10.1,0.3,12c-1.1,0.8-2.6,1.3-4.2,1.3
					C101.4,147,100.9,146.9,100.3,146.8z M101.2,134.1c-2.7,1.9-2.7,3.6-2.7,4.8c0,0.8,0,1.6-0.9,2c0,0,0,0,0,0
					c-0.2,0.1-0.4,0-0.6,0c-0.8-0.3-1.8-0.5-2.3-0.2c-0.2,0.2-0.3,0.6-0.2,1.1c0.2,0.9,0.5,1.5,1,1.8c0.6,0.4,1.2,0.2,1.2,0.2
					c0.1,0,0.3,0,0.3,0.1c0.6,1.2,1.8,2,3.4,2.4c1.9,0.4,4.1,0,5.5-1c0.6-0.5,0.9-1.5,1-3.1c0.1-3.4-1.1-7.8-1.6-8.4
					C103.3,134.4,101.7,134.2,101.2,134.1z M105.4,133.8C105.4,133.8,105.4,133.8,105.4,133.8C105.4,133.8,105.4,133.8,105.4,133.8z
					"/>
			</g>
		</g>
		<g>
			<g>
				<g>
					<path class="st0" d="M119.5,212.7c1.5-0.8,3.2-0.7,4.6,0.3c1,0.7,2.5,1.5,5,2.1c1.7,0.4,2.8,0.9,3.6,1.5c1.3,1,0.7,3.3-0.9,3.3
						h-12.9l-0.6-7.2L119.5,212.7z"/>
					<path d="M118.6,220l-0.6-7.2c0-0.1,0-0.1,0.1-0.2c0.1-0.1,0.1-0.1,0.2-0.1c0,0,0,0,0,0l1.1,0c1.5-0.8,3.4-0.7,4.9,0.4
						c1.2,0.9,2.8,1.6,4.9,2.1c1.5,0.4,2.8,0.9,3.7,1.6c0.8,0.6,0.9,1.7,0.7,2.4c-0.3,0.8-0.9,1.3-1.7,1.3h-12.9
						C118.7,220.2,118.6,220.1,118.6,220z M119.6,213c0,0-0.1,0-0.1,0l-0.9,0l0.5,6.7h12.6c0.7,0,1.1-0.5,1.2-1
						c0.2-0.6,0.1-1.4-0.5-1.8c-0.8-0.6-2-1.1-3.5-1.5c-2.1-0.5-3.8-1.2-5.1-2.1c-0.7-0.5-1.6-0.8-2.4-0.8
						C120.9,212.5,120.2,212.6,119.6,213z"/>
				</g>
				<path d="M128.7,218.7h2.9c0.1,0,0.3-0.1,0.3-0.3s-0.1-0.3-0.3-0.3h-2.9c-0.1,0-0.3,0.1-0.3,0.3S128.6,218.7,128.7,218.7z"/>
			</g>
			<g>
				<g>
					<path class="st0" d="M113.2,212.7c1.5-0.8,3.2-0.7,4.6,0.3c1,0.7,2.5,1.5,5,2.1c3.2,0.8,4.5,2.1,4.9,3.2
						c0.3,0.8-0.2,1.6-0.9,1.6h-13.5c-1,0-1.8-1.1-1.6-2.2l0.9-4.7L113.2,212.7z"/>
					<path d="M111.9,219.6c-0.4-0.5-0.6-1.2-0.5-1.9l0.9-4.7c0-0.1,0.1-0.1,0.1-0.2l0.6-0.3c1.6-0.9,3.4-0.7,4.9,0.3
						c1.2,0.9,2.8,1.6,4.9,2.1c3.4,0.8,4.6,2.3,5.1,3.3c0.2,0.5,0.1,1-0.1,1.4c-0.2,0.4-0.6,0.6-1,0.6h-13.5
						C112.7,220.2,112.2,220,111.9,219.6z M113.3,213l-0.5,0.3l-0.9,4.6c-0.1,0.5,0,1,0.3,1.4c0.3,0.3,0.6,0.5,1,0.5h13.5
						c0.2,0,0.4-0.1,0.6-0.3c0.2-0.3,0.2-0.6,0.1-0.9c-0.4-1-1.5-2.3-4.7-3c-2.1-0.5-3.8-1.2-5.1-2.1c-0.7-0.5-1.6-0.8-2.4-0.8
						C114.6,212.5,113.9,212.6,113.3,213z"/>
				</g>
				<path d="M114,218.7h11.6c0.1,0,0.3-0.1,0.3-0.3s-0.1-0.3-0.3-0.3H114c-0.1,0-0.3,0.1-0.3,0.3S113.8,218.7,114,218.7z"/>
			</g>
			<g>
				<g>
					<path d="M87.6,191c0,0,1.5-1.8,8.9-6.8c7.4-5,21.3-8.3,25.6-8.1c5.8,0.3,5.7,7.1,5.7,11.2c0,6,2.3,26.9,2.3,26.9h-13.2
						c0,0-2.1-13.1-0.7-24.7c0,0-4.9,10.7-11.8,13c-1.2,0.4-5.9,0.4-9.2-0.4c-4.2-0.9-6.3-4.3-7-7.7C87.9,193.5,87.7,192.4,87.6,191
						z"/>
					<path class="st0" d="M116.6,214.3c0-0.1-1.9-12.2-0.8-23.3c-1.6,3-5.8,10-11.3,11.8c-1.3,0.4-6.1,0.4-9.3-0.4
						c-5.3-1.1-6.8-5.9-7.2-7.9c-0.2-1.1-0.4-2.2-0.5-3.4c0-0.1,0-0.1,0.1-0.2c0.1-0.1,1.6-1.9,9-6.8c7.5-5,21.4-8.3,25.7-8.1
						c6,0.3,6,7.1,6,11.2l0,0.3c0,5.9,2.3,26.6,2.3,26.8c0,0.1,0,0.2-0.1,0.2c-0.1,0.1-0.1,0.1-0.2,0.1h-13.2
						C116.7,214.5,116.6,214.4,116.6,214.3z M127.5,187.4l0-0.3c0-4.1,0-10.4-5.4-10.7c-4.2-0.2-18.1,3.2-25.4,8
						c-6.4,4.3-8.4,6.2-8.8,6.7c0.1,1.2,0.3,2.3,0.5,3.3c0.4,1.9,1.8,6.4,6.8,7.5c3.3,0.7,7.9,0.7,9.1,0.4
						c6.7-2.2,11.6-12.8,11.7-12.9c0.1-0.1,0.2-0.2,0.3-0.1c0.1,0,0.2,0.2,0.2,0.3c-1.3,10.6,0.4,22.6,0.6,24.4h12.7
						C129.5,211.4,127.5,192.9,127.5,187.4z"/>
				</g>
				<path d="M117.8,185.3c0,0-7.9,17.8-7.9,29h10.6L117.8,185.3z"/>
				<path class="st0" d="M116.6,212.5C116.6,212.5,116.6,212.5,116.6,212.5c0.2,0,0.3-0.2,0.3-0.3c-0.5-3.6-1.2-10.8-0.8-18.1
					c0-0.1-0.1-0.3-0.3-0.3c-0.2,0-0.3,0.1-0.3,0.3c-0.4,7.4,0.3,14.6,0.8,18.2C116.3,212.4,116.5,212.5,116.6,212.5z"/>
			</g>
		</g>
	</g>
</g>
</svg>
