<?xml version="1.0" encoding="utf-8"?>
<!-- Generator: Adobe Illustrator 26.1.0, SVG Export Plug-In . SVG Version: 6.00 Build 0)  -->
<svg version="1.1" id="Layer_1" xmlns="http://www.w3.org/2000/svg" xmlns:xlink="http://www.w3.org/1999/xlink" x="0px" y="0px"
	 viewBox="0 0 35.9 35.9" style="enable-background:new 0 0 35.9 35.9;" xml:space="preserve">
<style type="text/css">
	.st0{fill:#2C2C2C;}
	.st1{fill:#FFFFFF;}
</style>
<path class="st0" d="M24.8,34.6c9.2-3.8,13.6-14.2,9.8-23.4C30.8,2,20.3-2.4,11.2,1.3C2,5.1-2.4,15.6,1.3,24.8
	C5.1,33.9,15.6,38.3,24.8,34.6z"/>
<path class="st1" d="M22.9,7.2h-9.7c-3.3,0-6,2.6-6,6v9.7c0,3.3,2.6,6,6,6h9.7c3.3,0,6-2.6,6-6v-9.7C28.8,9.8,26.1,7.2,22.9,7.2z
	 M27,22.8c0,2.4-1.9,4.2-4.2,4.2h-9.6C10.8,27,9,25.1,9,22.8v-9.6c0-2.4,1.9-4.2,4.2-4.2h9.6c2.4,0,4.2,1.9,4.2,4.2V22.8z"/>
<path class="st1" d="M18,12.3c-3.2,0-5.7,2.5-5.7,5.7s2.5,5.7,5.7,5.7c3.2,0,5.7-2.5,5.7-5.7C23.7,14.9,21.1,12.3,18,12.3z M18,21.7
	c-2,0-3.7-1.7-3.7-3.7s1.7-3.7,3.7-3.7c2,0,3.7,1.7,3.7,3.7C21.7,20,20.1,21.7,18,21.7z"/>
<path class="st1" d="M25.2,12.1c0,0.7-0.6,1.3-1.3,1.3c-0.7,0-1.3-0.6-1.3-1.3c0-0.7,0.6-1.3,1.3-1.3C24.6,10.8,25.2,11.4,25.2,12.1
	z"/>
</svg>
