<svg width="56" height="56" viewBox="0 0 56 56" fill="none" xmlns="http://www.w3.org/2000/svg">
<path d="M56 4.15557C56 16.9527 56 29.7482 56 42.5453C55.8459 43.0265 55.7483 43.5384 55.5257 43.9853C54.5891 45.8568 53.0087 46.6735 50.9558 46.6735C44.3209 46.6718 37.6878 46.6718 31.0529 46.6735C30.8252 46.6735 30.5957 46.6924 30.3663 46.7026C30.3663 48.2676 30.3663 49.7692 30.3663 51.3154C30.6402 51.3154 30.8748 51.3136 31.1094 51.3154C33.4038 51.3428 35.7033 51.2999 37.9925 51.4164C40.1756 51.5277 42.0368 53.7416 41.9512 55.9675C32.647 55.9675 23.3428 55.9675 14.0368 55.9675C14.0283 53.6132 15.8466 51.5208 18.129 51.4095C20.4011 51.2999 22.6818 51.3445 24.9591 51.3222C25.1748 51.3205 25.3889 51.3222 25.632 51.3222C25.632 49.7487 25.632 48.2333 25.632 46.6718C25.3546 46.6718 25.12 46.6718 24.8855 46.6718C18.2883 46.6718 11.6894 46.6735 5.09215 46.6701C4.24974 46.6701 3.42102 46.5828 2.65395 46.1855C0.861249 45.2541 0.00856112 43.7507 0.00513667 41.756C-0.00342445 36.3967 0.00171222 31.0392 0.00171222 25.6799C0.00171222 18.7899 0.00342445 11.9017 0 5.01168C0 3.74977 0.315049 2.61114 1.15233 1.63004C1.95022 0.695163 2.99468 0.244848 4.15728 0C20.0519 0 35.9481 0 51.8427 0C52.6731 0.20033 53.4779 0.441754 54.1713 0.982817C55.2175 1.79784 55.7466 2.89366 56 4.15557ZM23.8838 33.825C24.9728 33.825 25.9881 33.8096 27.0035 33.8335C27.3682 33.8421 27.4966 33.7154 27.5737 33.3627C28.9417 27.1661 30.3252 20.973 31.7018 14.7799C31.8422 14.1515 31.9655 13.5197 32.1093 12.828C31.0323 12.828 30.0512 12.8451 29.0701 12.8194C28.6729 12.8091 28.5102 12.9222 28.4212 13.3314C27.1713 19.0142 25.8991 24.692 24.6355 30.3697C24.3855 31.4964 24.1441 32.6281 23.8838 33.825ZM18.8756 17.766C18.0349 16.927 17.2215 16.1172 16.3945 15.2919C14.3895 17.3003 12.316 19.3721 10.2477 21.449C9.01657 22.6853 9.02 23.9763 10.2562 25.2159C12.2116 27.1747 14.1704 29.1318 16.1274 31.0871C16.2541 31.2138 16.3894 31.3337 16.475 31.4142C17.302 30.5872 18.1068 29.7824 18.9372 28.952C17.0931 27.1131 15.2148 25.2399 13.3006 23.3308C15.2148 21.4233 17.0914 19.5485 18.8756 17.766ZM39.5353 15.2696C38.7117 16.0932 37.9052 16.8979 37.0457 17.7575C38.8897 19.5861 40.7732 21.4559 42.7114 23.377C40.8057 25.2776 38.9257 27.1525 37.097 28.9777C37.9052 29.7859 38.7082 30.5906 39.4514 31.3337C41.6635 29.166 43.9408 26.9915 46.1462 24.7468C46.9526 23.9266 46.8567 22.5928 45.9989 21.7196C43.8586 19.5382 41.6738 17.3979 39.5353 15.2696Z" fill="#FD7D00"/>
</svg>
