<?xml version="1.0" encoding="utf-8"?>
<!-- Generator: Adobe Illustrator 26.1.0, SVG Export Plug-In . SVG Version: 6.00 Build 0)  -->
<svg version="1.1" id="Layer_1" xmlns="http://www.w3.org/2000/svg" xmlns:xlink="http://www.w3.org/1999/xlink" x="0px" y="0px"
	 viewBox="0 0 36 36" style="enable-background:new 0 0 36 36;" xml:space="preserve">
<style type="text/css">
	.st0{fill:#2C2C2C;}
	.st1{fill:#FFFFFF;}
</style>
<path class="st0" d="M18,36C28,36,36,28,36,18C36,8.1,28,0,18,0C8.1,0,0,8.1,0,18C0,28,8.1,36,18,36z"/>
<path class="st1" d="M28.9,20.3v7.6h-4.4v-7.1c0-1.8-0.6-3-2.3-3c-1.2,0-2,0.8-2.3,1.6c-0.1,0.3-0.2,0.7-0.2,1.1v7.4h-4.4
	c0,0,0.1-12,0-13.3h4.4v1.9c0,0,0,0.1-0.1,0.1h0.1v-0.1c0.6-0.9,1.6-2.2,4-2.2C26.7,14.2,28.9,16.2,28.9,20.3z M8.6,27.9h4.4V14.6
	H8.6V27.9z M13.1,10.1c0,1.2-1,2.3-2.3,2.3c-1.2,0-2.3-1-2.3-2.3c0-1.2,1-2.3,2.3-2.3C12,7.8,13.1,8.8,13.1,10.1z"/>
</svg>
