<?xml version="1.0" encoding="utf-8"?>
<!-- Generator: Adobe Illustrator 26.1.0, SVG Export Plug-In . SVG Version: 6.00 Build 0)  -->
<svg version="1.1" id="Layer_1" xmlns="http://www.w3.org/2000/svg" xmlns:xlink="http://www.w3.org/1999/xlink" x="0px" y="0px"
	 viewBox="0 0 36 36" style="enable-background:new 0 0 36 36;" xml:space="preserve">
<style type="text/css">
	.st0{fill:#2C2C2C;}
	.st1{fill:#FFFFFF;}
</style>
<path class="st0" d="M24.8,34.7C34,31,38.4,20.5,34.7,11.3C31,2,20.5-2.4,11.3,1.3C2,5.1-2.4,15.6,1.3,24.8
	C5.1,34,15.6,38.4,24.8,34.7z"/>
<path class="st1" d="M19.6,24.9c-1.5-0.1-2.2-0.9-3.4-1.6c-0.7,3.5-1.5,6.9-3.9,8.6c-0.7-5.3,1.1-9.2,2-13.5
	c-1.5-2.4,0.2-7.4,3.3-6.1c3.8,1.5-3.3,9.1,1.5,10.1c5,1,6.9-8.6,3.9-11.7c-4.4-4.5-12.9-0.1-11.8,6.3c0.2,1.6,1.9,2,0.7,4.2
	c-2.8-0.6-3.7-2.9-3.5-5.9c0.2-4.9,4.4-8.3,8.6-8.7c5.3-0.6,10.4,2,11,7C28.5,19.2,25.4,25.3,19.6,24.9z"/>
</svg>
