<svg width="28" height="33" viewBox="0 0 28 33" fill="none" xmlns="http://www.w3.org/2000/svg">
<path d="M0.0251123 0C9.29262 0 18.5593 0 27.8268 0C27.8352 0.124929 27.8504 0.250701 27.8504 0.37563C27.8513 9.99766 27.8513 19.6205 27.8513 29.2426C27.8513 29.3658 27.8513 29.489 27.8513 29.6528C20.348 29.6528 12.8809 29.6528 5.37931 29.6528C5.37931 30.5594 5.37931 31.4246 5.37931 32.3413C4.90492 32.0265 4.4778 31.7428 4.04393 31.455C3.60246 31.747 3.16943 32.0332 2.67562 32.3599C2.67562 31.4102 2.67562 30.5433 2.67562 29.6444C1.77327 29.6444 0.904677 29.6444 0.000633084 29.6444C0.000633084 29.4899 0.000633084 29.3658 0.000633084 29.2426C-0.000211028 19.6096 -0.000211028 9.9774 0.000633084 0.344398C0.000633084 0.229598 0.0166712 0.114799 0.0251123 0ZM15.1254 12.7123C15.4175 12.606 15.5796 12.7022 15.6986 12.9537C15.8244 13.2188 15.9839 13.4678 16.135 13.7194C16.1755 13.786 16.2397 13.8856 16.2954 13.8882C16.6744 13.9034 17.0551 13.8958 17.4729 13.8958C17.1732 13.3699 16.9048 12.8997 16.6381 12.4321C16.7309 12.3418 16.8035 12.281 16.8651 12.2101C17.5252 11.4521 17.1724 10.1302 16.1991 9.96052C15.5011 9.83897 14.7642 9.93688 14.0298 9.93688C14.0298 11.2503 14.0298 12.5595 14.0298 13.8789C14.3978 13.8789 14.7481 13.8789 15.1246 13.8789C15.1254 13.4737 15.1254 13.088 15.1254 12.7123ZM11.4316 13.9354C12.5534 13.9253 13.4735 13.0052 13.4651 11.9028C13.4566 10.7802 12.5433 9.86429 11.435 9.86598C10.3039 9.86767 9.36859 10.8021 9.38547 11.9163C9.40151 13.0373 10.3216 13.9447 11.4316 13.9354ZM20.7109 14.8243C19.5815 14.831 18.6699 15.7334 18.6699 16.8434C18.6699 17.9703 19.6026 18.8997 20.7227 18.8887C21.8387 18.8777 22.763 17.945 22.7461 16.8459C22.7292 15.7115 21.8294 14.8175 20.7109 14.8243ZM11.045 14.8243C9.91473 14.8268 9.00224 15.725 8.99887 16.8367C8.99549 17.9686 9.91895 18.8963 11.0416 18.8895C12.1609 18.8819 13.0759 17.9644 13.0675 16.8552C13.059 15.7182 12.166 14.8218 11.045 14.8243ZM6.0335 9.92422C6.0335 11.2486 6.0335 12.5654 6.0335 13.8797C6.40069 13.8797 6.74256 13.8797 7.11143 13.8797C7.11143 13.4737 7.11143 13.0888 7.11143 12.6591C7.38914 12.6591 7.64153 12.6786 7.88886 12.6549C8.54727 12.5925 9.03263 12.0632 9.07146 11.3879C9.11113 10.7008 8.65531 10.0044 8.02054 9.93857C7.36804 9.87189 6.70373 9.92422 6.0335 9.92422ZM7.10552 17.3676C7.55881 17.3676 7.98424 17.3676 8.42318 17.3676C8.42318 17.0561 8.42318 16.7793 8.42318 16.4669C7.97665 16.4669 7.55037 16.4669 7.12747 16.4669C7.12747 16.2272 7.12747 16.0229 7.12747 15.784C7.68121 15.784 8.21131 15.784 8.73382 15.784C8.73382 15.4565 8.73382 15.1662 8.73382 14.8699C7.8188 14.8699 6.92151 14.8699 6.03181 14.8699C6.03181 16.2036 6.03181 17.5136 6.03181 18.8288C6.39563 18.8288 6.73665 18.8288 7.10552 18.8288C7.10552 18.34 7.10552 17.8715 7.10552 17.3676ZM18.7416 10.8561C18.7416 11.8986 18.7416 12.8921 18.7416 13.8814C19.1172 13.8814 19.4599 13.8814 19.8381 13.8814C19.8381 12.8685 19.8381 11.8741 19.8381 10.8451C20.2365 10.8451 20.5995 10.8451 20.9718 10.8451C20.9718 10.5185 20.9718 10.2289 20.9718 9.91663C19.8381 9.91663 18.7213 9.91663 17.6012 9.91663C17.6012 10.2374 17.6012 10.5354 17.6012 10.857C17.9802 10.8561 18.3347 10.8561 18.7416 10.8561ZM14.7228 14.8682C14.348 14.8682 13.9977 14.8682 13.6415 14.8682C13.6415 16.1994 13.6415 17.5086 13.6415 18.8279C14.6131 18.8279 15.5644 18.8279 16.5199 18.8279C16.5199 18.508 16.5199 18.2117 16.5199 17.8758C15.9105 17.8758 15.328 17.8758 14.7228 17.8758C14.7228 16.8502 14.7228 15.8642 14.7228 14.8682ZM18.09 18.8321C18.09 17.4849 18.09 16.1757 18.09 14.8657C17.7245 14.8657 17.3834 14.8657 17.0348 14.8657C17.0348 16.1951 17.0348 17.5052 17.0348 18.8321C17.3919 18.8321 17.7329 18.8321 18.09 18.8321Z" fill="#2C2C2C"/>
<path d="M15.1355 11.7827C15.1355 11.4097 15.1355 11.153 15.1355 10.8027C15.442 10.8686 15.7425 10.8863 15.9898 11.0112C16.0708 11.0517 16.0835 11.4924 16.0092 11.5329C15.7653 11.6646 15.4664 11.6975 15.1355 11.7827Z" fill="#2C2C2C"/>
<path d="M10.5115 11.9094C10.5073 11.2704 10.8703 10.8509 11.4249 10.8525C11.9702 10.8542 12.3374 11.2636 12.3424 11.8773C12.3483 12.5163 11.9871 12.9476 11.4418 12.9535C10.8872 12.9611 10.5149 12.5433 10.5115 11.9094Z" fill="#2C2C2C"/>
<path d="M19.7967 16.8517C19.7976 16.2144 20.1665 15.7915 20.7177 15.7974C21.252 15.8033 21.6259 16.2296 21.6285 16.8365C21.6318 17.4705 21.263 17.9026 20.7168 17.906C20.1656 17.9094 19.7967 17.4865 19.7967 16.8517Z" fill="#2C2C2C"/>
<path d="M11.0424 17.9053C10.4879 17.9078 10.1249 17.4908 10.1249 16.8501C10.1249 16.2263 10.4794 15.8068 11.0129 15.7975C11.5624 15.7882 11.9532 16.2187 11.9558 16.8375C11.9591 17.4697 11.5886 17.9027 11.0424 17.9053Z" fill="#2C2C2C"/>
<path d="M7.11818 11.7755C7.11818 11.4049 7.11818 11.1492 7.11818 10.8022C7.39758 10.8698 7.67783 10.8791 7.87872 11.0107C7.96989 11.0707 7.97748 11.4809 7.89139 11.54C7.69218 11.6767 7.41277 11.6962 7.11818 11.7755Z" fill="#2C2C2C"/>
</svg>
