<?xml version="1.0" encoding="utf-8"?>
<!-- Generator: Adobe Illustrator 26.0.3, SVG Export Plug-In . SVG Version: 6.00 Build 0)  -->
<svg version="1.1" xmlns="http://www.w3.org/2000/svg" xmlns:xlink="http://www.w3.org/1999/xlink" x="0px" y="0px"
	 viewBox="0 0 36.17 40.26" style="enable-background:new 0 0 36.17 40.26;" xml:space="preserve">
<g id="Background">
</g>
<g id="Illustration">
	<g>
		<path d="M19.08,1.9c0.78,0.13,1.57,0.22,2.34,0.39c1.81,0.41,3.48,1.16,5,2.24c0.19,0.13,0.34,0.16,0.54,0.04
			c0.76-0.44,1.53-0.86,2.29-1.28c0.62-0.35,1.25-0.35,1.85,0.03C31.7,3.69,32,4.24,31.95,4.94c-0.02,0.3-0.11,0.61-0.22,0.89
			C31.38,6.72,31,7.6,30.61,8.47c-0.09,0.2-0.1,0.33,0,0.55c0.49,1.04,0.96,2.08,1.41,3.14c0.09,0.21,0.17,0.31,0.41,0.33
			c2.23,0.18,3.81,1.96,3.74,4.18c-0.06,1.95-1.63,3.63-3.57,3.81c-0.38,0.03-0.52,0.17-0.64,0.52c-1.61,4.64-4.74,7.76-9.38,9.37
			c-0.1,0.03-0.2,0.07-0.34,0.11c0.31,0.23,0.61,0.44,0.89,0.66c0.34,0.26,0.41,0.6,0.19,0.85c-0.21,0.25-0.51,0.23-0.85-0.01
			c-0.5-0.35-1.02-0.67-1.56-1.02c-0.58,1.08-1.38,1.84-2.35,2.42c-0.34,0.2-0.61,0.2-0.95-0.01c-0.98-0.59-1.77-1.35-2.33-2.38
			c-1.51,0.69-2.62,1.78-3.43,3.27c0.55,0.39,1.05,0.83,1.63,1.14c0.6,0.33,0.88,0.75,0.77,1.43c-0.02,0.13,0,0.26,0,0.41
			c2.57,0,5.11,0,7.7,0c0-0.31,0.01-0.61,0-0.92c-0.01-0.29,0.12-0.48,0.36-0.64c0.68-0.45,1.35-0.92,2.04-1.4
			c-0.16-0.28-0.29-0.5-0.42-0.72c-0.18-0.31-0.12-0.62,0.14-0.78c0.27-0.17,0.56-0.09,0.76,0.22c0.94,1.45,1.37,3.04,1.31,4.76
			c-0.01,0.38-0.22,0.57-0.62,0.57c-0.78,0.01-1.57,0-2.35,0c-4.11,0-8.21,0-12.32,0c-0.65,0-0.8-0.15-0.8-0.79
			c0.02-2.95,1.26-5.25,3.69-6.91c0.06-0.04,0.11-0.08,0.21-0.15c-0.31-0.11-0.59-0.19-0.86-0.3c-4.4-1.71-7.38-4.79-8.89-9.27
			c-0.1-0.31-0.24-0.41-0.56-0.44C1.56,20.31-0.02,18.55,0,16.45c0.02-2.07,1.61-3.8,3.68-3.96c0.3-0.02,0.42-0.13,0.51-0.41
			c0.55-1.81,1.45-3.44,2.67-4.9c0.1-0.11,0.23-0.28,0.35-0.28c0.2,0,0.45,0.07,0.59,0.2c0.19,0.18,0.13,0.44-0.03,0.65
			c-0.31,0.41-0.63,0.8-0.92,1.22c-1.4,2.09-2.14,4.39-2.27,6.95c0.13,0.01,0.26,0.03,0.38,0.03c3.87,0,7.74,0.01,11.6,0
			c6.63-0.03,12.4-4.39,14.27-10.77c0.12-0.43,0.06-0.72-0.23-0.93c-0.31-0.23-0.62-0.17-0.92,0.03c-2.48,1.6-5.19,2.57-8.12,2.92
			c-0.58,0.07-1.16,0.09-1.74,0.12c-0.44,0.02-0.66-0.16-0.67-0.5c-0.01-0.34,0.21-0.55,0.63-0.56c1.41-0.03,2.79-0.23,4.14-0.59
			c0.5-0.13,0.99-0.3,1.56-0.47c-0.15-0.11-0.23-0.18-0.32-0.24C20.31,1.94,13.84,2.4,9.47,6.07C9.41,6.12,9.35,6.18,9.28,6.23
			C8.97,6.47,8.66,6.46,8.46,6.22C8.25,5.97,8.28,5.64,8.6,5.42c0.9-0.63,1.78-1.31,2.74-1.84c1.71-0.95,3.57-1.46,5.52-1.62
			c0.08-0.01,0.16-0.04,0.24-0.06C17.75,1.9,18.42,1.9,19.08,1.9z M25.11,14.5c-0.05,0.03-0.1,0.05-0.14,0.07
			c-2.76,1.74-5.77,2.49-9.02,2.46C12.32,17,8.69,17.03,5.06,17.03c-0.15,0-0.3,0-0.51,0c0.38,4.88,2.52,8.69,6.73,11.11
			c4.8,2.76,9.69,2.6,14.32-0.44c3.79-2.49,5.7-6.15,6.02-10.68C29.14,16.86,27,16.01,25.11,14.5z M26.03,13.85
			c1.48,1.21,4.34,2.25,5.57,2.04c-0.11-2.15-0.67-4.16-1.76-6.08C28.77,11.38,27.53,12.71,26.03,13.85z M32.38,13.59
			c0.4,1.95,0.39,3.88,0.01,5.8c1.32,0.1,2.67-1.3,2.71-2.78C35.14,15.01,33.86,13.56,32.38,13.59z M3.8,13.55
			c-1.1,0.12-1.88,0.63-2.37,1.55c-0.57,1.08-0.49,2.16,0.22,3.15c0.51,0.71,1.22,1.11,2.14,1.19C3.4,17.46,3.4,15.54,3.8,13.55z
			 M13.13,37.27c0.13-0.49,0.04-0.85-0.44-1.06c-0.16-0.07-0.3-0.19-0.44-0.3c-0.26-0.19-0.53-0.38-0.86-0.62
			c-0.11,0.7-0.22,1.32-0.32,1.98C11.8,37.27,12.46,37.27,13.13,37.27z M24.78,35.29c-0.5,0.35-0.91,0.65-1.33,0.93
			c-0.52,0.35-0.54,0.4-0.41,1.04c0.66,0,1.32,0,2.05,0C25,36.62,24.9,35.99,24.78,35.29z M16.56,31.06
			c0.39,0.56,0.87,0.98,1.43,1.32c0.05,0.03,0.14,0.03,0.19,0c0.55-0.34,1.04-0.75,1.42-1.31C18.58,31.06,17.59,31.06,16.56,31.06z"
			/>
		<path d="M18.1,20.36c-0.66,0-1.23-0.24-1.68-0.73c-0.23-0.25-0.24-0.54-0.03-0.76c0.21-0.22,0.5-0.22,0.76-0.01
			c0.7,0.59,1.15,0.59,1.88-0.01c0.25-0.2,0.53-0.2,0.74,0c0.22,0.21,0.23,0.51,0,0.76C19.32,20.11,18.76,20.36,18.1,20.36z"/>
		<path d="M13.64,18.81c-0.01,0.19,0,0.38-0.03,0.56c-0.05,0.28-0.24,0.42-0.53,0.42c-0.27-0.01-0.47-0.15-0.49-0.42
			c-0.03-0.39-0.03-0.78,0-1.16c0.02-0.27,0.22-0.41,0.49-0.42c0.28-0.01,0.48,0.14,0.53,0.42C13.64,18.4,13.64,18.61,13.64,18.81z"
			/>
		<path d="M22.53,18.78c0.01-0.19,0-0.38,0.03-0.56c0.05-0.28,0.23-0.44,0.52-0.44c0.28,0,0.49,0.16,0.51,0.44
			c0.03,0.37,0.03,0.75,0,1.13c-0.02,0.28-0.23,0.43-0.51,0.43c-0.29,0-0.47-0.15-0.51-0.44c-0.02-0.19,0-0.38,0-0.56
			C22.54,18.78,22.54,18.78,22.53,18.78z"/>
	</g>
</g>
</svg>
