<?xml version="1.0" encoding="utf-8"?>
<!-- Generator: Adobe Illustrator 26.0.3, SVG Export Plug-In . SVG Version: 6.00 Build 0)  -->
<svg version="1.1" xmlns="http://www.w3.org/2000/svg" xmlns:xlink="http://www.w3.org/1999/xlink" x="0px" y="0px"
	 viewBox="0 0 36.17 40.26" style="enable-background:new 0 0 36.17 40.26;" xml:space="preserve">
<g id="Background">
</g>
<g id="Illustration">
	<g>
		<path d="M7.82,40.23c-0.32-0.19-0.4-0.46-0.4-0.83c0.01-1.98,0.01-3.95,0-5.93c0-0.26-0.04-0.52-0.12-0.77
			c-0.68-2.26-1.38-4.53-2.07-6.79c-0.03-0.11-0.07-0.23-0.09-0.34c-0.06-0.35,0.1-0.61,0.41-0.7c0.31-0.09,0.59,0.06,0.7,0.4
			C6.5,26,6.71,26.73,6.94,27.45c0.03,0.1,0.07,0.2,0.11,0.34c1-0.29,1.99-0.57,3.02-0.86c-0.09-0.3-0.16-0.57-0.24-0.84
			c-0.64-2.1-1.3-4.2-1.92-6.3c-0.09-0.32-0.08-0.69-0.03-1.03c0.07-0.54,0.21-1.07,0.33-1.65c-0.13,0.04-0.23,0.07-0.32,0.1
			c-0.47,0.17-0.73,0.05-0.92-0.43c-0.35-0.92-1.17-1.35-2.02-1.06C4.1,16,3.69,16.83,3.98,17.77c0.5,1.66,1.02,3.33,1.52,4.99
			c0.04,0.12,0.09,0.25,0.1,0.38c0.01,0.31-0.13,0.54-0.44,0.61c-0.33,0.08-0.57-0.05-0.69-0.36c-0.12-0.3-0.2-0.62-0.29-0.94
			c-0.44-1.42-0.85-2.86-1.31-4.27c-0.68-2.06,0.87-3.8,2.64-3.74c0.02,0,0.05-0.01,0.13-0.03c-0.1-0.47-0.2-0.95-0.29-1.43
			c-0.31-1.62-0.58-3.26-0.5-4.91c0.05-0.92,0.15-1.86,0.4-2.74c0.63-2.15,2.4-3.14,4.6-2.7c0.34,0.07,0.68,0.17,1.04,0.26
			c0.04-0.04,0.08-0.09,0.12-0.14c1.22-1.8,2.96-2.35,5.03-2.07c1.23,0.16,2.38,0.61,3.47,1.18c0.14,0.07,0.28,0.14,0.4,0.2
			c0.46-0.48,0.89-0.95,1.35-1.39c0.4-0.38,0.88-0.62,1.44-0.65c0.94-0.05,1.49,0.44,1.83,1.61c0.3-0.28,0.59-0.56,0.9-0.81
			c0.69-0.55,1.47-0.84,2.36-0.8c1,0.05,1.65,0.69,1.72,1.69c0.01,0.2,0,0.41,0,0.68c0.15-0.1,0.24-0.16,0.33-0.22
			c0.35-0.21,0.68-0.44,1.05-0.61c0.68-0.31,1.37-0.35,1.99,0.16c0.62,0.51,0.72,1.19,0.59,1.92c-0.2,1.08-0.71,2.02-1.34,2.9
			c-0.58,0.81-1.23,1.56-1.84,2.35c-0.1,0.13-0.18,0.32-0.17,0.48c0.12,1.61,0.25,3.21,0.4,4.81c0.01,0.1,0.14,0.24,0.24,0.27
			c1.37,0.44,2.2,1.5,2.22,2.86c0.02,1.34-0.8,2.45-2.16,2.89c-0.23,0.07-0.26,0.2-0.28,0.4c-0.07,0.79-0.07,1.6-0.24,2.38
			c-0.38,1.71-1.35,3.04-2.81,4.02c-0.08,0.06-0.17,0.12-0.28,0.19c0.26,0.19,0.5,0.36,0.73,0.55c1.74,1.44,2.61,3.3,2.63,5.56
			c0.01,1.44,0.01,2.88,0,4.32c0,1.33-0.65,2.18-1.93,2.57c-0.04,0.01-0.06,0.04-0.1,0.06C21.65,40.23,14.73,40.23,7.82,40.23z
			 M7.41,15.19c0.09-0.7,0.16-0.77,0.85-0.84c0.98-0.09,1.72-0.59,2.28-1.37c0.59-0.82,0.91-1.76,1.12-2.74
			c0.12-0.55,0.62-0.72,1.03-0.33c1.91,1.76,4.24,2.42,6.75,2.57c2.01,0.12,3.97-0.16,5.82-1.02c0.17-0.08,0.48-0.03,0.64,0.07
			c0.13,0.09,0.24,0.39,0.19,0.54c-0.06,0.19-0.26,0.39-0.45,0.48c-1.27,0.63-2.63,0.95-4.03,1.06c-3.18,0.25-6.18-0.26-8.86-2.12
			c-0.04-0.03-0.09-0.04-0.15-0.08c-0.04,0.11-0.08,0.21-0.12,0.3c-0.66,1.83-1.65,3.34-3.73,3.76c-0.05,0.01-0.09,0.07-0.14,0.11
			c0.06,0.05,0.1,0.13,0.17,0.16c0.6,0.26,0.79,0.61,0.66,1.24c-0.13,0.64-0.28,1.28-0.4,1.92C9.01,19.1,9,19.31,9.05,19.48
			c0.62,2.05,1.24,4.1,1.88,6.15c0.05,0.15,0.16,0.31,0.28,0.39c0.72,0.48,1.51,0.79,2.38,0.85c3.54,0.22,7.09,0.24,10.64,0.01
			c2.8-0.18,4.96-2.4,5.11-5.19c0.18-3.35,0.1-6.7-0.17-10.05c-0.04-0.47-0.1-0.94-0.15-1.46c-0.42,0.35-0.77,0.66-1.14,0.94
			c-0.27,0.21-0.61,0.16-0.81-0.08c-0.21-0.25-0.19-0.56,0.06-0.81c0.15-0.15,0.32-0.27,0.48-0.4c1.68-1.44,3.16-3.06,4.19-5.04
			c0.26-0.5,0.43-1.07,0.53-1.62c0.09-0.52-0.3-0.8-0.8-0.6c-0.37,0.14-0.75,0.34-1.04,0.6c-0.61,0.55-1.18,1.15-1.75,1.74
			c-0.23,0.24-0.49,0.31-0.78,0.14c-0.3-0.17-0.33-0.45-0.23-0.75c0.05-0.14,0.13-0.26,0.16-0.4c0.16-0.7,0.34-1.39,0.43-2.1
			c0.05-0.42-0.2-0.61-0.63-0.62c-0.17,0-0.34,0.01-0.51,0.05c-0.67,0.14-1.22,0.52-1.61,1.05c-0.48,0.66-0.86,1.4-1.32,2.08
			c-0.12,0.18-0.36,0.37-0.56,0.4c-0.16,0.02-0.4-0.17-0.51-0.33c-0.08-0.12-0.03-0.35-0.02-0.53c0.06-0.66,0.19-1.33,0.17-1.98
			c-0.02-0.76-0.5-0.97-1.11-0.52c-0.38,0.28-0.73,0.64-1.03,1.01c-0.6,0.72-1.15,1.49-1.75,2.22c-0.57,0.69-1.19,1.33-2.03,1.69
			c-0.41,0.18-0.75,0.07-0.89-0.27c-0.14-0.33,0-0.61,0.41-0.8c1-0.49,1.61-1.37,2.35-2.3c-0.94-0.34-1.79-0.73-2.68-0.97
			c-2.08-0.54-3.9-0.11-4.94,1.94c-0.16,0.31-0.44,0.38-0.77,0.25C10.5,4.04,10.1,3.89,9.7,3.8C7.97,3.44,6.8,4.13,6.32,5.83
			C6.16,6.39,6.06,6.98,6.02,7.56c-0.13,2.31,0.3,4.56,0.82,6.8C6.92,14.71,7,15.04,7.41,15.19z M25.03,35.5c0-0.83-0.01-1.6,0-2.37
			c0.01-0.39,0.26-0.64,0.6-0.63c0.33,0.01,0.55,0.24,0.57,0.62c0.01,0.18,0,0.35,0,0.52c1.1,0,2.14,0,3.18,0
			c0.23-2.35-1.23-4.83-3.37-5.75c-0.1-0.04-0.23-0.09-0.33-0.07c-0.71,0.11-1.41,0.23-2.14,0.36c0.05,0.12,0.12,0.25,0.18,0.39
			c0.55,1.23,0.55,2.46,0,3.69c-0.2,0.44-0.4,0.53-0.87,0.43c-1.01-0.21-1.95-0.58-2.85-1.09c-0.12-0.07-0.24-0.12-0.4-0.21
			c0,0.91,0,1.76,0,2.61c0,0.53-0.2,0.8-0.58,0.81c-0.39,0.01-0.59-0.26-0.6-0.79c0-0.77,0-1.55,0-2.32c0-0.09-0.02-0.19-0.04-0.32
			c-1.04,0.62-2.09,1.06-3.23,1.3c-0.47,0.1-0.71,0.02-0.86-0.44c-0.19-0.57-0.34-1.15-0.4-1.74c-0.08-0.84,0.2-1.62,0.58-2.31
			c-0.98-0.18-1.95-0.37-2.92-0.55c0.02,0.08,0.06,0.2,0.09,0.32c0.37,1.2,0.74,2.4,1.1,3.6c0.11,0.38-0.05,0.7-0.37,0.79
			c-0.34,0.1-0.63-0.07-0.76-0.45c-0.12-0.36-0.22-0.72-0.33-1.09c-0.28-0.92-0.56-1.84-0.86-2.79c-1.03,0.3-2.02,0.59-3.04,0.88
			c0.39,1.3,0.77,2.53,1.15,3.77c0.04,0.14,0.08,0.28,0.08,0.42c0,1.83-0.01,3.67-0.01,5.5c0,0.14,0,0.28,0,0.42
			c3.31,0,6.57,0,9.82,0c0.02-0.05,0.05-0.08,0.05-0.12c0.42-2.28,1.79-3.41,4.11-3.41C23.38,35.5,24.18,35.5,25.03,35.5z
			 M29.4,34.9c-1.09,0-2.13,0-3.19,0c0,0.33,0,0.63,0,0.93c0,0.68-0.17,0.85-0.86,0.85c-1.1,0-2.2-0.02-3.3,0.01
			c-1.26,0.04-2.4,1.19-2.35,2.33c0.02,0.01,0.05,0.02,0.07,0.02c2.81,0,5.63,0.01,8.44,0c0.61,0,1.15-0.48,1.18-1.11
			C29.43,36.93,29.4,35.92,29.4,34.9z M16.42,28.2c0.39,0.9,1.58,1.48,2.78,1.39c1.19-0.09,2.17-0.66,2.35-1.39
			C19.85,28.2,18.15,28.2,16.42,28.2z M15.43,28.93c-0.43,0.86-0.49,1.67-0.16,2.6c0.76-0.32,1.47-0.62,2.19-0.92
			C16.6,30.2,15.93,29.71,15.43,28.93z M30.61,19.01c0.81-0.29,1.25-1,1.21-1.82c-0.03-0.57-0.54-1.43-1.21-1.5
			C30.61,16.79,30.61,17.89,30.61,19.01z M20.59,30.5c-0.01,0.04-0.02,0.08-0.04,0.11c0.72,0.3,1.45,0.59,2.2,0.9
			c0.29-0.94,0.25-1.75-0.18-2.59C22.08,29.71,21.41,30.2,20.59,30.5z"/>
		<path d="M19,22.55c-1.18-0.07-2.08-0.57-2.68-1.59c-0.23-0.39-0.17-0.74,0.14-0.93c0.32-0.19,0.63-0.08,0.87,0.32
			c0.84,1.36,2.51,1.35,3.35-0.01c0.23-0.38,0.53-0.49,0.84-0.31c0.32,0.18,0.39,0.53,0.17,0.92C21.09,21.98,20.17,22.49,19,22.55z"
			/>
		<path d="M15,16.49c-0.18,0.42-0.27,0.82-0.49,1.15c-0.32,0.48-0.85,0.46-1.22,0.02c-0.51-0.6-0.5-1.74,0.02-2.33
			c0.35-0.4,0.87-0.44,1.17,0C14.71,15.66,14.83,16.08,15,16.49z"/>
		<path d="M23,16.51c0.18-0.43,0.29-0.85,0.52-1.19c0.29-0.42,0.79-0.4,1.15-0.03c0.56,0.59,0.56,1.83-0.01,2.42
			c-0.36,0.37-0.85,0.38-1.15-0.04C23.29,17.34,23.18,16.93,23,16.51z"/>
	</g>
</g>
</svg>
