<?xml version="1.0" encoding="utf-8"?>
<!-- Generator: Adobe Illustrator 26.0.3, SVG Export Plug-In . SVG Version: 6.00 Build 0)  -->
<svg version="1.1" xmlns="http://www.w3.org/2000/svg" xmlns:xlink="http://www.w3.org/1999/xlink" x="0px" y="0px"
	 viewBox="0 0 36.17 40.26" style="enable-background:new 0 0 36.17 40.26;" xml:space="preserve">
<g id="Background">
</g>
<g id="Illustration">
	<g>
		<path d="M18.87,0c0.46,0.1,0.92,0.18,1.37,0.31c3.35,0.95,5.67,4,5.7,7.48c0.01,0.6,0,1.2,0,1.86c0.4,0,0.77,0,1.15,0
			c0.47,0,0.94-0.01,1.41,0.01c0.42,0.02,0.71,0.33,0.74,0.73c0.02,0.38-0.23,0.71-0.62,0.8c-0.15,0.03-0.31,0.03-0.47,0.04
			c-0.93,0-1.86,0-2.84,0c0,0.16,0,0.3,0,0.44c-0.02,1.13,0.01,2.25-0.06,3.38c-0.06,1.1-0.45,2.12-1.03,3.06
			c-0.03,0.05-0.06,0.11-0.09,0.18c1.53,0.86,2.5,2.14,2.94,3.82c0.09,0.35,0.16,0.72,0.18,1.08c0.01,0.29,0.12,0.42,0.37,0.55
			c5.42,2.72,8.27,7.12,8.53,13.18c0.04,0.81,0.01,1.62,0,2.44c0,0.6-0.3,0.9-0.89,0.9c-4.51,0-9.01,0-13.52,0
			c-0.56,0-0.92-0.33-0.91-0.8c0.01-0.46,0.36-0.76,0.91-0.77c1.82,0,3.64,0,5.46,0c0.14,0,0.28,0,0.46,0c0-0.17,0-0.31,0-0.45
			c0-1.65,0-3.3,0-4.95c0-0.71,0.27-1.08,0.8-1.07c0.51,0.01,0.78,0.37,0.78,1.05c0,1.65,0,3.3,0,4.95c0,0.14,0,0.28,0,0.45
			c1.79,0,3.55,0,5.31,0c0.57-6.3-2.94-11.44-7.8-13.59c-0.8,1.14-1.98,1.37-3.33,1.25c0.03,0.11,0.04,0.19,0.07,0.25
			c0.57,1.06,0.83,2.19,0.81,3.4c-0.01,0.43,0.01,0.86,0,1.3c-0.01,0.5-0.31,0.82-0.75,0.83c-0.46,0.01-0.79-0.31-0.81-0.82
			c-0.02-0.59,0-1.18-0.02-1.77c-0.05-1.11-0.44-2.09-1.13-2.95c-0.09-0.11-0.28-0.2-0.42-0.2c-2.04-0.01-4.09-0.01-6.13,0
			c-0.15,0-0.35,0.1-0.45,0.22c-0.72,0.88-1.09,1.9-1.14,3.03c-0.02,0.54,0,1.07-0.01,1.61c-0.01,0.55-0.31,0.88-0.79,0.88
			c-0.48,0-0.78-0.33-0.78-0.88c-0.02-1.32-0.06-2.65,0.48-3.91c0.13-0.31,0.28-0.61,0.44-0.98c-1.34,0.11-2.53-0.1-3.34-1.24
			c-4.75,1.48-8.45,7.89-7.84,13.57c1.76,0,3.52,0,5.31,0c0-0.15,0-0.29,0-0.43c0-1.69,0-3.38,0-5.07c0-0.6,0.3-0.96,0.8-0.95
			c0.48,0.01,0.77,0.36,0.77,0.94c0,1.69,0,3.38,0,5.07c0,0.14,0,0.28,0,0.47c0.17,0,0.31,0,0.45,0c1.81,0,3.62-0.01,5.42,0.01
			c0.25,0,0.58,0.09,0.73,0.26c0.15,0.17,0.24,0.53,0.16,0.74c-0.08,0.23-0.37,0.39-0.6,0.54c-0.09,0.06-0.26,0.02-0.39,0.02
			c-4.4,0-8.8,0-13.2,0C0.26,40.24,0,39.99,0,39.2c0.01-1.54-0.08-3.09,0.22-4.62c0.97-5.02,3.76-8.62,8.34-10.87
			c0.15-0.07,0.34-0.25,0.35-0.39c0.17-2.21,1.19-3.89,3.12-5.05c-0.05-0.1-0.1-0.2-0.16-0.3c-0.66-1.1-1-2.3-1.02-3.58
			c-0.01-0.96-0.01-1.91,0-2.87c0-0.2-0.05-0.31-0.23-0.43c-0.18-0.12-0.38-0.36-0.38-0.55c0-1.5-0.17-3.01,0.19-4.5
			c0.77-3.19,3.38-5.54,6.64-5.97C17.15,0.06,17.22,0.02,17.3,0C17.82,0,18.34,0,18.87,0z M12.42,11.24c0,1.06-0.01,2.08,0,3.1
			c0.02,2.76,2.12,5.18,4.79,5.54c2.88,0.39,5.52-1.29,6.29-4.03c0.14-0.49,0.21-1,0.22-1.51c0.03-1.03,0.01-2.06,0.01-3.11
			C19.95,11.24,16.21,11.24,12.42,11.24z M24.42,9.63c-0.06-1.03-0.01-2.02-0.19-2.98c-0.69-3.55-4.11-5.78-7.59-4.9
			c-3.82,0.97-5.27,4.26-4.78,7.88C16.01,9.63,20.17,9.63,24.42,9.63z M14.77,20.77c-0.49-0.35-0.98-0.68-1.43-1.05
			c-0.2-0.17-0.35-0.17-0.55-0.06c-1.37,0.76-2.15,1.9-2.29,3.47c-0.08,0.98,0.49,1.6,1.47,1.61c1.05,0,2.09,0,3.14,0
			c0.11,0,0.22-0.01,0.38-0.02C14.36,23.53,14.14,22.21,14.77,20.77z M20.68,24.74c1.32,0,2.56,0.03,3.8-0.01
			c0.69-0.02,1.19-0.62,1.22-1.31c0.06-1.51-1.02-3.22-2.41-3.79c-0.1-0.04-0.26-0.04-0.35,0.02c-0.51,0.36-1.01,0.74-1.53,1.13
			C22.05,22.2,21.82,23.52,20.68,24.74z M16,22.21c-0.01,0.59,0.23,1.09,0.69,1.43c0.4,0.29,0.82,0.56,1.24,0.82
			c0.08,0.05,0.25,0.05,0.34,0c0.43-0.27,0.86-0.54,1.27-0.85c0.65-0.49,0.84-1.38,0.49-2.08c-0.09-0.17-0.17-0.24-0.39-0.19
			c-0.94,0.21-1.89,0.24-2.84,0.05c-0.54-0.11-0.64-0.04-0.75,0.51C16.02,22.02,16.01,22.14,16,22.21z"/>
		<path d="M18.08,38.67c0.43,0,0.8,0.37,0.79,0.8c-0.01,0.42-0.36,0.76-0.78,0.77c-0.43,0-0.79-0.37-0.79-0.8
			C17.31,39.02,17.66,38.67,18.08,38.67z"/>
		<path d="M18.13,17.73c-0.71-0.02-1.29-0.23-1.76-0.69c-0.34-0.33-0.37-0.8-0.09-1.12c0.29-0.32,0.71-0.35,1.09-0.08
			c0.58,0.42,0.83,0.42,1.43-0.01c0.38-0.27,0.81-0.23,1.09,0.11c0.27,0.32,0.23,0.77-0.09,1.09
			C19.38,17.46,18.71,17.74,18.13,17.73z"/>
		<path d="M18.08,6.51c0.48,0,0.97-0.01,1.45,0c0.48,0.01,0.82,0.33,0.82,0.77c0.01,0.41-0.31,0.78-0.76,0.79
			c-1,0.02-2.01,0.02-3.01,0c-0.45-0.01-0.77-0.38-0.76-0.79c0.01-0.43,0.34-0.76,0.82-0.77C17.11,6.5,17.6,6.51,18.08,6.51z"/>
	</g>
</g>
</svg>
