<svg width="23" height="27" viewBox="0 0 23 27" fill="none" xmlns="http://www.w3.org/2000/svg">
<path d="M22.8636 26.9052C15.2337 26.9052 7.6274 26.9052 0 26.9052C0 17.9365 0 8.9822 0 0C4.91273 0 9.83137 0 14.7838 0C14.7838 2.66571 14.7838 5.33394 14.7838 8.04692C17.4925 8.04692 20.1692 8.04692 22.8636 8.04692C22.8636 14.3507 22.8636 20.6098 22.8636 26.9052ZM13.4442 10.7363C10.5134 10.7363 7.61473 10.7363 4.67976 10.7363C4.67976 8.25288 4.67976 5.80665 4.67976 3.35619C4.21718 3.35619 3.79175 3.35619 3.36294 3.35619C3.36294 6.27513 3.36294 9.17465 3.36294 12.0792C6.73348 12.0792 10.0846 12.0792 13.4442 12.0792C13.4442 11.6344 13.4442 11.214 13.4442 10.7363ZM18.1602 18.194C13.2028 18.194 8.28243 18.194 3.36547 18.194C3.36547 18.6447 3.36547 19.0702 3.36547 19.4889C8.30944 19.4889 13.2298 19.4889 18.1602 19.4889C18.1602 19.0482 18.1602 18.6312 18.1602 18.194ZM18.1611 21.5569C13.2028 21.5569 8.28074 21.5569 3.36632 21.5569C3.36632 22.0068 3.36632 22.4331 3.36632 22.8501C8.30944 22.8501 13.2306 22.8501 18.1611 22.8501C18.1611 22.4061 18.1611 21.9891 18.1611 21.5569ZM12.7562 14.8133C9.61443 14.8133 6.487 14.8133 3.36294 14.8133C3.36294 15.2649 3.36294 15.6912 3.36294 16.1276C6.50135 16.1276 9.62034 16.1276 12.7562 16.1276C12.7562 15.6819 12.7562 15.2556 12.7562 14.8133ZM8.03679 5.20395C7.21378 6.01767 6.41609 6.80776 5.66146 7.55396C5.95099 7.85699 6.25065 8.17185 6.55706 8.49261C7.01879 8.03088 7.49234 7.56662 7.95238 7.0897C8.09334 6.94367 8.19295 6.91581 8.3719 7.04243C8.88765 7.40624 9.42535 7.73713 9.94195 8.1001C10.1158 8.22249 10.2154 8.20983 10.3623 8.06127C11.2191 7.19099 12.0843 6.32915 12.9521 5.46985C13.0474 5.37531 13.1766 5.31368 13.2652 5.25375C12.882 4.87559 12.5722 4.57002 12.227 4.229C11.4934 4.96422 10.7379 5.72223 9.97065 6.49038C9.32068 6.05819 8.66481 5.62179 8.03679 5.20395Z" fill="#2C2C2C"/>
<path d="M16.1698 6.67698C16.1698 4.59456 16.1698 2.52817 16.1698 0.510742C18.221 2.56109 20.2882 4.62832 22.3369 6.67698C20.3355 6.67698 18.2716 6.67698 16.1698 6.67698Z" fill="#2C2C2C"/>
</svg>
