<svg width="78" height="64" viewBox="0 0 78 64" fill="none" xmlns="http://www.w3.org/2000/svg">
<path d="M0 16.7803C3.49998 15.2459 6.9101 13.752 10.3202 12.2581C19.5644 8.20778 28.8041 4.15517 38.0572 0.127271C38.3897 -0.0187488 38.8929 -0.0501992 39.2142 0.0913276C51.9022 5.70747 64.5789 11.3483 77.2579 16.9892C77.4084 17.0566 77.5522 17.1397 77.8173 17.2767C77.1231 17.5867 76.5278 17.8563 75.9303 18.1169C63.8893 23.3938 51.8482 28.6753 39.7982 33.9297C39.4433 34.0847 38.9086 34.1117 38.5649 33.9589C25.9511 28.3765 13.3507 22.7671 0.750317 17.1622C0.523425 17.0611 0.307765 16.9375 0 16.7803Z" fill="#FD7D00"/>
<path d="M11.3199 23.304C12.4791 23.8139 13.4742 24.2452 14.4649 24.6855C22.4556 28.2394 30.4485 31.7888 38.4301 35.3652C39.021 35.6303 39.4837 35.5224 40.0206 35.2843C48.5414 31.544 57.069 27.8126 65.5943 24.0835C65.8437 23.9756 66.0975 23.879 66.4277 23.7465C66.4502 24.0678 66.4794 24.3081 66.4794 24.5507C66.4817 29.8569 66.4727 35.1653 66.4951 40.4714C66.4974 41.0644 66.3244 41.3722 65.7695 41.5991C64.1363 42.2708 62.5189 42.9829 60.9149 43.722C60.6701 43.8343 60.369 44.1735 60.3668 44.4094C60.3309 47.9453 60.3421 51.4813 60.3421 55.0419C60.6386 55.143 60.9037 55.2216 61.162 55.3227C63.0199 56.0461 64.0622 57.9578 63.6848 59.9437C63.3231 61.8442 61.6136 63.2235 59.6434 63.2033C57.6621 63.1853 56.0334 61.77 55.674 59.7527C55.346 57.9151 56.4377 55.945 58.2664 55.3429C58.9695 55.1115 59.0661 54.7746 59.0616 54.1501C59.0369 51.2858 59.0504 48.4216 59.0504 45.5574C59.0504 45.281 59.0504 45.0047 59.0504 44.5779C58.6752 44.7217 58.4011 44.8115 58.1361 44.9261C52.1268 47.5567 46.1153 50.1783 40.1172 52.8336C39.4523 53.1279 38.9221 53.1594 38.2392 52.8539C29.5409 48.9607 20.8291 45.0968 12.1129 41.2464C11.5176 40.9836 11.2929 40.6781 11.2974 40.0041C11.3311 34.7811 11.3154 29.5581 11.3154 24.3351C11.3199 24.0565 11.3199 23.778 11.3199 23.304Z" fill="#FD7D00"/>
</svg>
