<?xml version="1.0" encoding="utf-8"?>
<!-- Generator: Adobe Illustrator 26.1.0, SVG Export Plug-In . SVG Version: 6.00 Build 0)  -->
<svg version="1.1" id="Layer_1" xmlns="http://www.w3.org/2000/svg" xmlns:xlink="http://www.w3.org/1999/xlink" x="0px" y="0px"
	 viewBox="0 0 36 36" style="enable-background:new 0 0 36 36;" xml:space="preserve">
<style type="text/css">
	.st0{fill:#2C2C2C;}
	.st1{fill-rule:evenodd;clip-rule:evenodd;fill:#CB2252;}
	.st2{fill-rule:evenodd;clip-rule:evenodd;fill:#FFFFFF;}
	.st3{fill-rule:evenodd;clip-rule:evenodd;fill:#8BC7CE;}
</style>
<path class="st0" d="M24.8,34.7C34,31,38.4,20.5,34.7,11.3C31,2,20.5-2.4,11.3,1.3C2,5.1-2.4,15.6,1.3,24.8
	C5.1,34,15.6,38.4,24.8,34.7z"/>
<path class="st1" d="M23.3,14.6c1.6,1.1,3.5,1.8,5.7,1.8v-4.1c-0.4,0-0.8-0.1-1.2-0.1v3.2c-2.1,0-4.1-0.7-5.7-1.8V22
	c0,4.2-3.4,7.5-7.5,7.5c-1.6,0-3-0.5-4.2-1.3c1.4,1.4,3.3,2.3,5.4,2.3c4.2,0,7.5-3.4,7.5-7.5V14.6z M24.8,10.5
	c-0.8-0.9-1.4-2-1.5-3.3V6.6h-1.1C22.5,8.2,23.4,9.6,24.8,10.5z M13,24.9c-0.5-0.6-0.7-1.4-0.7-2.1c0-1.9,1.5-3.4,3.4-3.4
	c0.3,0,0.7,0.1,1.1,0.2v-4.2c-0.4-0.1-0.8-0.1-1.2-0.1v3.2c-0.3-0.1-0.7-0.2-1.1-0.2c-1.9,0-3.4,1.5-3.4,3.4
	C11.1,23.3,11.9,24.4,13,24.9z"/>
<path class="st2" d="M22.1,13.6c1.6,1.1,3.5,1.8,5.7,1.8v-3.2c-1.2-0.2-2.3-0.8-3-1.7c-1.4-0.8-2.3-2.3-2.6-3.8h-3v16.3
	c0,1.9-1.6,3.4-3.4,3.4c-1.1,0-2.1-0.5-2.8-1.4c-1.1-0.6-1.9-1.7-1.9-3.1c0-1.9,1.5-3.4,3.4-3.4c0.3,0,0.7,0.1,1.1,0.2v-3.3
	c-4.1,0.1-7.4,3.4-7.4,7.5c0,2,0.8,3.9,2.1,5.3c1.2,0.8,2.6,1.3,4.2,1.3c4.2,0,7.5-3.4,7.5-7.5V13.6z"/>
<path class="st3" d="M27.8,12.2v-0.8c-1.1,0-2.1-0.3-3-0.8C25.6,11.3,26.6,11.9,27.8,12.2z M22.2,6.6c0-0.2-0.1-0.3-0.1-0.5V5.6H18
	v16.3c0,1.9-1.6,3.4-3.4,3.4c-0.6,0-1.1-0.1-1.6-0.4c0.6,0.8,1.6,1.4,2.8,1.4c1.9,0,3.4-1.5,3.4-3.4V6.5L22.2,6.6L22.2,6.6z
	 M15.6,15.4v-0.9c-0.3-0.1-0.7-0.1-1-0.1C10.4,14.4,7,17.8,7,22c0,2.6,1.4,4.9,3.3,6.2C9,26.9,8.2,25,8.2,22.9
	C8.2,18.8,11.5,15.4,15.6,15.4z"/>
</svg>
