<svg width="54" height="54" viewBox="0 0 54 54" fill="none" xmlns="http://www.w3.org/2000/svg">
<path d="M53.3445 5.00105C53.3445 13.8571 53.3445 22.7131 53.3445 31.5691C53.3195 31.615 53.2834 31.6566 53.2723 31.7053C52.5957 34.8712 50.4717 36.5952 47.2321 36.5952C38.258 36.5966 29.2839 36.5952 20.3098 36.5952C20.107 36.5952 19.9042 36.5952 19.6458 36.5952C19.6458 36.3104 19.6555 36.0881 19.6444 35.8672C19.5985 35.0018 19.5708 34.1349 19.4846 33.2736C19.4485 32.9097 19.5277 32.6693 19.7889 32.4096C22.9159 29.3006 26.0305 26.1805 29.1464 23.0618C29.2936 22.9145 29.4464 22.77 29.5729 22.6061C29.9757 22.0824 30.0202 21.4087 29.6798 20.8502C29.3284 20.2723 28.7824 19.9917 28.1364 20.1306C27.7572 20.2126 27.3599 20.4473 27.0807 20.7252C24.2662 23.5077 21.4739 26.3125 18.6747 29.1103C18.5428 29.2422 18.4052 29.3659 18.2344 29.5284C18.1052 29.3214 18.0232 29.1228 17.8829 28.9825C17.4384 28.5379 17.5926 28.1767 17.8843 27.6864C20.1848 23.8342 20.3348 19.8611 18.0899 15.9811C15.8478 12.1081 12.354 10.2285 7.85165 10.2883C7.47796 10.2938 7.10427 10.2883 6.74725 10.2883C6.74725 8.53512 6.64862 6.79726 6.77364 5.07467C6.91534 3.12565 7.98501 1.66285 9.69092 0.72793C10.2994 0.394527 11.0065 0.23755 11.6691 0C23.8939 0 36.1187 0 48.3435 0C48.4213 0.0319511 48.4963 0.0764049 48.5768 0.0916859C50.5745 0.47371 52.0012 1.59478 52.8416 3.43683C53.0681 3.93138 53.1806 4.47872 53.3445 5.00105Z" fill="#FD7D00"/>
<path d="M0 34.1738C0.231993 33.3611 0.443148 32.5415 0.707093 31.74C0.82934 31.3691 1.05856 31.0315 1.26138 30.637C3.35904 32.2026 5.66508 33.0264 8.24478 33.0305C10.8273 33.0347 13.1389 32.2123 15.2351 30.655C15.9367 31.7469 16.4062 32.893 16.4437 34.1321C16.5229 36.6618 16.5132 39.1957 16.5076 41.7282C16.5062 42.5784 16.0214 43.084 15.1698 43.2771C15.0712 43.2993 14.974 43.3285 14.8392 43.3646C14.8392 43.9828 14.8392 44.5871 14.8392 45.1914C14.8392 47.2391 14.81 49.2867 14.8517 51.3316C14.8712 52.2943 14.5558 52.975 13.6473 53.3431C10.0354 53.3431 6.42357 53.3431 2.8117 53.3431C1.92124 52.9208 1.63506 52.2123 1.65451 51.2441C1.70036 48.888 1.66979 46.5292 1.66979 44.1731C1.66979 43.8995 1.66979 43.6258 1.66979 43.3188C0.808503 43.2854 0.291728 42.8326 0 42.0921C0 39.4527 0 36.8133 0 34.1738Z" fill="#FD7D00"/>
<path d="M0 20.7335C0.0833508 20.364 0.156977 19.9917 0.250052 19.6264C1.22526 15.8075 4.75655 13.2042 8.67265 13.4112C12.6332 13.6209 15.8644 16.566 16.4396 20.4904C17.0814 24.8719 13.9585 29.145 9.63952 29.7938C5.01911 30.4884 0.801557 27.4586 0.10141 22.9465C0.0833508 22.8312 0.0347295 22.7215 0 22.6089C0 21.9838 0 21.3587 0 20.7335Z" fill="#FD7D00"/>
</svg>
