<?xml version="1.0" encoding="utf-8"?>
<!-- Generator: Adobe Illustrator 26.1.0, SVG Export Plug-In . SVG Version: 6.00 Build 0)  -->
<svg version="1.1" id="Layer_1" xmlns="http://www.w3.org/2000/svg" xmlns:xlink="http://www.w3.org/1999/xlink" x="0px" y="0px"
	 viewBox="0 0 36 36" style="enable-background:new 0 0 36 36;" xml:space="preserve">
<style type="text/css">
	.st0{fill:#2C2C2C;}
	.st1{fill-rule:evenodd;clip-rule:evenodd;fill:#FFFFFF;}
</style>
<path class="st0" d="M18,36C28,36,36,28,36,18C36,8.1,28,0,18,0C8.1,0,0,8.1,0,18C0,28,8.1,36,18,36z"/>
<path class="st1" d="M24.1,20.7c-0.3-0.2-1.8-1-2.1-1.1c-0.3-0.1-0.5-0.2-0.7,0.1c-0.2,0.3-0.8,1-1,1.2c-0.2,0.2-0.4,0.2-0.7,0.1
	c-0.3-0.2-1.3-0.5-2.4-1.6c-0.9-0.8-1.5-1.9-1.6-2.2c-0.2-0.3,0-0.5,0.2-0.6c0.2-0.1,0.3-0.3,0.5-0.5c0.2-0.2,0.2-0.3,0.3-0.5
	c0.1-0.2,0.1-0.4,0-0.6c-0.1-0.2-0.6-1.7-0.8-2.3c-0.2-0.6-0.5-0.5-0.7-0.6c-0.2,0-0.4-0.1-0.6-0.1c-0.2,0-0.6,0.1-0.8,0.3
	c-0.3,0.3-1.1,1-1.2,2.5s1,3,1.1,3.2c0.2,0.2,2,3.5,5.1,4.8c3.1,1.4,3.1,1,3.7,0.9c0.6-0.1,1.9-0.7,2.1-1.4c0.3-0.7,0.3-1.4,0.2-1.5
	C24.7,20.9,24.5,20.9,24.1,20.7z M18.5,28c-2,0-3.9-0.6-5.5-1.7l-3.9,1.3l1.2-3.7c-1.2-1.6-1.9-3.7-1.9-5.9c0-5.5,4.5-10,10-10
	c5.5,0,10,4.5,10,10C28.5,23.5,24,28,18.5,28z M18.5,5.9c-6.6,0-12,5.4-12,12c0,2.3,0.6,4.4,1.7,6.2L6,30.7l6.7-2.1
	c1.7,1,3.7,1.5,5.9,1.5c6.6,0,12-5.4,12-12C30.6,11.3,25.2,5.9,18.5,5.9z"/>
</svg>
