<?xml version="1.0" encoding="utf-8"?>
<!-- Generator: Adobe Illustrator 26.1.0, SVG Export Plug-In . SVG Version: 6.00 Build 0)  -->
<svg version="1.1" id="Layer_1" xmlns="http://www.w3.org/2000/svg" xmlns:xlink="http://www.w3.org/1999/xlink" x="0px" y="0px"
	 viewBox="0 0 36 36" style="enable-background:new 0 0 36 36;" xml:space="preserve">
<style type="text/css">
	.st0{fill:#2C2C2C;}
	.st1{fill-rule:evenodd;clip-rule:evenodd;fill:#FFFFFF;}
</style>
<path class="st0" d="M18,36C28,36,36,28,36,18C36,8.1,28,0,18,0C8.1,0,0,8.1,0,18C0,28,8.1,36,18,36z"/>
<path class="st1" d="M27.8,14.1c0-1.6-1.3-2.9-2.9-2.9H11.2c-1.6,0-2.9,1.3-2.9,2.9V22c0,1.6,1.3,2.9,2.9,2.9h13.6
	c1.6,0,2.9-1.3,2.9-2.9V14.1z M16,21.3V14l5.6,3.7L16,21.3z"/>
</svg>
